<svg width="350" height="480" viewBox="0 0 350 480" fill="none" xmlns="http://www.w3.org/2000/svg">
<ellipse cx="64.1795" cy="109.012" rx="23.5772" ry="22.9223" fill="#FBBE7E"/>
<g clip-path="url(#clip0_1236_3626)">
<path d="M67 10.4787C67 4.69149 71.6915 0 77.4787 0H339.521C345.309 0 350 4.6915 350 10.4787V255.521C350 261.309 345.309 266 339.521 266H77.4788C71.6915 266 67 261.309 67 255.521V10.4787Z" fill="#000223"/>
<g opacity="0.1">
<path d="M83.75 1L83.75 404" stroke="white"/>
<path d="M146.5 1L146.5 404" stroke="white"/>
<path d="M209.25 1L209.25 404" stroke="white"/>
<path d="M272 1L272 404" stroke="white"/>
<path d="M334.75 1L334.75 404" stroke="white"/>
</g>
<path d="M98.9864 25.4334V33.9901C98.9864 35.3148 98.6105 36.3352 97.8586 37.0512C97.1187 37.7673 96.1162 38.1253 94.8512 38.1253C93.5265 38.1253 92.4644 37.7494 91.6648 36.9975C90.8652 36.2457 90.4654 35.1776 90.4654 33.7932H93.5086C93.5086 34.3183 93.616 34.7181 93.8309 34.9926C94.0457 35.2551 94.356 35.3864 94.7617 35.3864C95.1317 35.3864 95.4181 35.2671 95.621 35.0284C95.8239 34.7897 95.9253 34.4436 95.9253 33.9901V25.4334H98.9864ZM113.256 25.4334L108.798 38H104.968L100.51 25.4334H103.768L106.883 34.921L110.016 25.4334H113.256ZM119.082 38.1253C118.163 38.1253 117.34 37.9761 116.612 37.6778C115.884 37.3794 115.299 36.9379 114.857 36.3531C114.428 35.7683 114.201 35.0642 114.177 34.2407H117.435C117.483 34.7062 117.644 35.0642 117.919 35.3148C118.193 35.5535 118.551 35.6728 118.993 35.6728C119.446 35.6728 119.804 35.5714 120.067 35.3685C120.329 35.1537 120.461 34.8613 120.461 34.4914C120.461 34.1811 120.353 33.9245 120.138 33.7216C119.935 33.5187 119.679 33.3517 119.369 33.2204C119.07 33.0891 118.641 32.9399 118.08 32.7729C117.268 32.5222 116.606 32.2716 116.093 32.021C115.58 31.7704 115.138 31.4004 114.768 30.9111C114.398 30.4218 114.213 29.7834 114.213 28.9957C114.213 27.8262 114.637 26.9132 115.484 26.2568C116.331 25.5885 117.435 25.2543 118.796 25.2543C120.18 25.2543 121.296 25.5885 122.143 26.2568C122.991 26.9132 123.444 27.8321 123.504 29.0136H120.192C120.168 28.6078 120.019 28.2916 119.745 28.0648C119.47 27.8262 119.118 27.7068 118.688 27.7068C118.318 27.7068 118.02 27.8083 117.793 28.0111C117.567 28.2021 117.453 28.4825 117.453 28.8525C117.453 29.2582 117.644 29.5745 118.026 29.8013C118.408 30.028 119.005 30.2727 119.816 30.5352C120.628 30.8097 121.284 31.0722 121.785 31.3229C122.298 31.5735 122.74 31.9375 123.11 32.4148C123.48 32.8922 123.665 33.5068 123.665 34.2587C123.665 34.9747 123.48 35.6251 123.11 36.2099C122.752 36.7947 122.227 37.2601 121.535 37.6062C120.842 37.9523 120.025 38.1253 119.082 38.1253ZM100.687 56.479C100.687 57.207 100.52 57.8753 100.186 58.484C99.8516 59.0807 99.3385 59.564 98.6463 59.934C97.9541 60.3039 97.0948 60.4889 96.0685 60.4889H94.171V65H91.1099V52.4334H96.0685C97.071 52.4334 97.9183 52.6064 98.6105 52.9525C99.3027 53.2986 99.8218 53.7759 100.168 54.3846C100.514 54.9932 100.687 55.6914 100.687 56.479ZM95.8358 58.0543C96.4206 58.0543 96.8562 57.9171 97.1426 57.6426C97.429 57.3681 97.5722 56.9803 97.5722 56.479C97.5722 55.9778 97.429 55.5899 97.1426 55.3155C96.8562 55.041 96.4206 54.9037 95.8358 54.9037H94.171V58.0543H95.8358ZM105.342 56.6759C105.7 56.127 106.147 55.6973 106.684 55.3871C107.221 55.0648 107.818 54.9037 108.474 54.9037V58.1438H107.633C106.869 58.1438 106.296 58.3109 105.915 58.6451C105.533 58.9673 105.342 59.5401 105.342 60.3636V65H102.281V55.0111H105.342V56.6759ZM111.477 53.9729C110.94 53.9729 110.499 53.8177 110.152 53.5074C109.818 53.1852 109.651 52.7914 109.651 52.326C109.651 51.8486 109.818 51.4548 110.152 51.1445C110.499 50.8223 110.94 50.6611 111.477 50.6611C112.002 50.6611 112.432 50.8223 112.766 51.1445C113.112 51.4548 113.285 51.8486 113.285 52.326C113.285 52.7914 113.112 53.1852 112.766 53.5074C112.432 53.8177 112.002 53.9729 111.477 53.9729ZM112.999 55.0111V65H109.938V55.0111H112.999ZM114.608 60.0056C114.608 58.9673 114.817 58.0603 115.235 57.2846C115.665 56.5089 116.255 55.9122 117.007 55.4945C117.771 55.0768 118.642 54.8679 119.621 54.8679C120.874 54.8679 121.918 55.1961 122.753 55.8525C123.601 56.5089 124.156 57.4338 124.418 58.6272H121.16C120.886 57.8634 120.355 57.4815 119.567 57.4815C119.006 57.4815 118.559 57.7023 118.224 58.1438C117.89 58.5735 117.723 59.194 117.723 60.0056C117.723 60.8171 117.89 61.4436 118.224 61.8852C118.559 62.3148 119.006 62.5296 119.567 62.5296C120.355 62.5296 120.886 62.1477 121.16 61.384H124.418C124.156 62.5535 123.601 63.4724 122.753 64.1407C121.906 64.8091 120.862 65.1432 119.621 65.1432C118.642 65.1432 117.771 64.9344 117.007 64.5167C116.255 64.099 115.665 63.5023 115.235 62.7265C114.817 61.9508 114.608 61.0438 114.608 60.0056ZM135.472 59.8445C135.472 60.1309 135.454 60.4292 135.418 60.7395H128.49C128.538 61.3601 128.735 61.8375 129.081 62.1716C129.439 62.4938 129.875 62.6549 130.388 62.6549C131.152 62.6549 131.683 62.3327 131.981 61.6883H135.239C135.072 62.3447 134.768 62.9354 134.326 63.4605C133.896 63.9856 133.353 64.3973 132.697 64.6957C132.041 64.994 131.307 65.1432 130.495 65.1432C129.517 65.1432 128.645 64.9344 127.882 64.5167C127.118 64.099 126.521 63.5023 126.091 62.7265C125.662 61.9508 125.447 61.0438 125.447 60.0056C125.447 58.9673 125.656 58.0603 126.074 57.2846C126.503 56.5089 127.1 55.9122 127.864 55.4945C128.627 55.0768 129.505 54.8679 130.495 54.8679C131.462 54.8679 132.321 55.0708 133.073 55.4766C133.825 55.8823 134.41 56.4611 134.827 57.213C135.257 57.9648 135.472 58.842 135.472 59.8445ZM132.339 59.0389C132.339 58.5138 132.16 58.0961 131.802 57.7858C131.444 57.4755 130.996 57.3204 130.459 57.3204C129.946 57.3204 129.511 57.4696 129.153 57.7679C128.806 58.0663 128.592 58.4899 128.508 59.0389H132.339Z" fill="white"/>
<path d="M143.246 25.6124V38H141.617V28.763L137.5 38H136.354L132.219 28.7451V38H130.59V25.6124H132.344L136.927 35.8519L141.509 25.6124H143.246ZM145.4 33.0593C145.4 32.0568 145.603 31.1796 146.009 30.4278C146.414 29.664 146.969 29.0733 147.673 28.6556C148.389 28.2379 149.183 28.029 150.054 28.029C150.913 28.029 151.659 28.214 152.292 28.584C152.924 28.9539 153.396 29.4194 153.706 29.9803V28.1901H155.353V38H153.706V36.1741C153.384 36.7469 152.9 37.2243 152.256 37.6062C151.624 37.9761 150.884 38.1611 150.036 38.1611C149.165 38.1611 148.377 37.9463 147.673 37.5167C146.969 37.087 146.414 36.4844 146.009 35.7086C145.603 34.9329 145.4 34.0498 145.4 33.0593ZM153.706 33.0772C153.706 32.3373 153.557 31.6928 153.258 31.1438C152.96 30.5949 152.554 30.1772 152.041 29.8908C151.54 29.5924 150.985 29.4432 150.376 29.4432C149.768 29.4432 149.213 29.5864 148.712 29.8729C148.21 30.1593 147.811 30.577 147.512 31.1259C147.214 31.6749 147.065 32.3194 147.065 33.0593C147.065 33.8111 147.214 34.4675 147.512 35.0284C147.811 35.5774 148.21 36.001 148.712 36.2994C149.213 36.5858 149.768 36.729 150.376 36.729C150.985 36.729 151.54 36.5858 152.041 36.2994C152.554 36.001 152.96 35.5774 153.258 35.0284C153.557 34.4675 153.706 33.8171 153.706 33.0772ZM159.735 29.7834C160.021 29.2224 160.427 28.7869 160.952 28.4766C161.489 28.1663 162.14 28.0111 162.903 28.0111V29.6938H162.474C160.648 29.6938 159.735 30.6844 159.735 32.6654V38H158.106V28.1901H159.735V29.7834ZM170.262 38L166.413 33.6679V38H164.784V24.7531H166.413V32.5401L170.19 28.1901H172.463L167.845 33.0772L172.481 38H170.262ZM182.947 32.7191C182.947 33.0294 182.929 33.3576 182.893 33.7037H175.053C175.112 34.6704 175.441 35.4282 176.037 35.9772C176.646 36.5142 177.38 36.7827 178.239 36.7827C178.943 36.7827 179.528 36.6216 179.994 36.2994C180.471 35.9652 180.805 35.5237 180.996 34.9747H182.75C182.488 35.9175 181.963 36.6872 181.175 37.284C180.387 37.8687 179.409 38.1611 178.239 38.1611C177.308 38.1611 176.473 37.9523 175.733 37.5346C175.005 37.1169 174.432 36.5261 174.015 35.7624C173.597 34.9866 173.388 34.0916 173.388 33.0772C173.388 32.0628 173.591 31.1737 173.997 30.4099C174.402 29.6461 174.969 29.0613 175.697 28.6556C176.437 28.2379 177.284 28.029 178.239 28.029C179.17 28.029 179.994 28.2319 180.71 28.6377C181.426 29.0434 181.975 29.6043 182.356 30.3204C182.75 31.0245 182.947 31.8241 182.947 32.7191ZM181.264 32.379C181.264 31.7584 181.127 31.2274 180.853 30.7858C180.578 30.3323 180.202 29.9922 179.725 29.7654C179.26 29.5268 178.74 29.4074 178.168 29.4074C177.344 29.4074 176.64 29.67 176.055 30.1951C175.482 30.7202 175.154 31.4482 175.071 32.379H181.264ZM187.084 29.5327V35.3148C187.084 35.7922 187.186 36.1323 187.389 36.3352C187.592 36.5261 187.944 36.6216 188.445 36.6216H189.644V38H188.176C187.269 38 186.589 37.7912 186.136 37.3735C185.682 36.9558 185.455 36.2696 185.455 35.3148V29.5327H184.184V28.1901H185.455V25.7198H187.084V28.1901H189.644V29.5327H187.084Z" fill="white" fill-opacity="0.5"/>
<path d="M230.903 46.4995C230.903 43.7867 233.102 41.5876 235.815 41.5876H292.293C295.006 41.5876 297.205 43.7867 297.205 46.4995V91.4114H235.815C233.102 91.4114 230.903 89.2123 230.903 86.4995V46.4995Z" fill="white" fill-opacity="0.15"/>
<path d="M230.903 46.4995C230.903 43.7867 233.102 41.5876 235.815 41.5876H292.293C295.006 41.5876 297.205 43.7867 297.205 46.4995V91.4114H235.815C233.102 91.4114 230.903 89.2123 230.903 86.4995V46.4995Z" stroke="url(#paint0_linear_1236_3626)" stroke-width="0.654922"/>
<path d="M241.337 52.516V50.8499H244.24V58.4994H242.375V52.516H241.337Z" fill="white"/>
<path d="M258.169 53.8925C258.207 53.8925 258.244 53.8909 258.281 53.8876C258.943 53.8305 259.462 53.2755 259.462 52.5987V50.5538C259.462 49.8393 258.883 49.26 258.169 49.26H256.123C255.447 49.26 254.892 49.7793 254.834 50.4409C254.831 50.478 254.83 50.5157 254.83 50.5538V51.7121V52.7116H253.616V50.5538C253.616 50.5157 253.615 50.478 253.612 50.4409C253.554 49.7793 252.999 49.26 252.323 49.26H250.277C249.563 49.26 248.984 49.8393 248.984 50.5538V52.5987C248.984 53.2755 249.503 53.8305 250.165 53.8876C250.202 53.8909 250.239 53.8925 250.277 53.8925H252.436V55.1059H250.277C250.239 55.1059 250.202 55.1076 250.165 55.1108C249.503 55.1679 248.984 55.7233 248.984 56.3997V58.445C248.984 59.1594 249.563 59.7388 250.277 59.7388H252.323C252.999 59.7388 253.554 59.2195 253.612 58.5578C253.615 58.5208 253.616 58.483 253.616 58.445V56.2868H254.83V58.445C254.83 58.483 254.831 58.5208 254.834 58.5578C254.892 59.2195 255.447 59.7388 256.123 59.7388H258.169C258.883 59.7388 259.462 59.1594 259.462 58.445V56.3997C259.462 55.7233 258.943 55.1679 258.281 55.1108C258.244 55.1076 258.207 55.1059 258.169 55.1059H256.01V53.8925H258.169ZM256.01 51.7121V50.5538C256.01 50.4915 256.061 50.4409 256.123 50.4409H258.169C258.231 50.4409 258.281 50.4915 258.281 50.5538V52.5987C258.281 52.6611 258.231 52.7116 258.169 52.7116H256.01V51.7121ZM250.277 52.7116C250.215 52.7116 250.165 52.6611 250.165 52.5987V50.5538C250.165 50.4915 250.215 50.4409 250.277 50.4409H252.323C252.385 50.4409 252.436 50.4915 252.436 50.5538V52.7116H250.277ZM252.436 58.445C252.436 58.507 252.385 58.5578 252.323 58.5578H250.277C250.215 58.5578 250.165 58.507 250.165 58.445V56.3997C250.165 56.3374 250.215 56.2868 250.277 56.2868H252.436V58.445ZM258.169 56.2868C258.231 56.2868 258.281 56.3374 258.281 56.3997V58.445C258.281 58.507 258.231 58.5578 258.169 58.5578H256.123C256.061 58.5578 256.01 58.507 256.01 58.445V56.2868H258.169ZM254.83 55.1059H253.616V53.8925H254.83V55.1059Z" fill="url(#paint1_linear_1236_3626)"/>
<path d="M253.616 56.287V58.4451C253.616 58.4832 253.615 58.5209 253.611 58.558H252.323C252.385 58.558 252.435 58.5071 252.435 58.4451V56.287H253.616Z" fill="url(#paint2_linear_1236_3626)"/>
<path d="M253.617 51.4441H252.436V55.1059H253.617V51.4441Z" fill="url(#paint3_linear_1236_3626)"/>
<path d="M256.123 58.5578H254.834C254.831 58.5207 254.829 58.483 254.829 58.4449V53.8925H256.01V58.4449C256.01 58.5069 256.061 58.5578 256.123 58.5578Z" fill="url(#paint4_linear_1236_3626)"/>
<path d="M258.282 52.5985V53.8874C258.245 53.8906 258.207 53.8923 258.169 53.8923H253.617V52.7114H258.169C258.231 52.7114 258.282 52.6608 258.282 52.5985Z" fill="url(#paint5_linear_1236_3626)"/>
<path d="M258.281 55.1109V56.3997C258.281 56.3374 258.231 56.2869 258.169 56.2869H256.01V55.106H258.169C258.207 55.106 258.244 55.1076 258.281 55.1109Z" fill="url(#paint6_linear_1236_3626)"/>
<path d="M254.83 55.106H251.85V56.2869H254.83V55.106Z" fill="url(#paint7_linear_1236_3626)"/>
<path d="M257.146 49.26H256.123C255.447 49.26 254.891 49.7793 254.834 50.4409C254.831 50.478 254.829 50.5157 254.829 50.5538V51.7121V52.7116H256.01V51.7121V50.5538C256.01 50.4915 256.061 50.4409 256.123 50.4409H257.146V49.26Z" fill="url(#paint8_linear_1236_3626)"/>
<path d="M250.165 52.5988V50.5587H248.984V52.5984C248.984 53.2752 249.503 53.8302 250.165 53.8873C250.202 53.8906 250.239 53.8922 250.277 53.8922H252.436V52.7113H250.277C250.215 52.7116 250.165 52.6611 250.165 52.5988Z" fill="url(#paint9_linear_1236_3626)"/>
<path d="M266.184 51.2167V56.4665C266.184 57.1162 265.985 57.6297 265.587 58.0069C265.196 58.3841 264.679 58.5727 264.036 58.5727C263.394 58.5727 262.873 58.3841 262.475 58.0069C262.084 57.6297 261.888 57.1162 261.888 56.4665H263.093C263.1 56.7879 263.18 57.0428 263.334 57.2315C263.495 57.4201 263.729 57.5144 264.036 57.5144C264.344 57.5144 264.578 57.4201 264.738 57.2315C264.899 57.0359 264.979 56.7809 264.979 56.4665V51.2167H266.184ZM274.404 51.2167L271.669 58.4994H270.286L267.541 51.2167H268.819L270.978 57.2734L273.147 51.2167H274.404ZM277.803 58.5727C277.314 58.5727 276.874 58.4889 276.483 58.3213C276.092 58.1466 275.784 57.9021 275.561 57.5877C275.337 57.2734 275.225 56.9066 275.225 56.4875H276.504C276.532 56.8018 276.654 57.0603 276.87 57.2629C277.094 57.4655 277.405 57.5668 277.803 57.5668C278.215 57.5668 278.537 57.469 278.767 57.2734C278.998 57.0708 279.113 56.8123 279.113 56.4979C279.113 56.2534 279.04 56.0543 278.893 55.9007C278.753 55.747 278.575 55.6282 278.358 55.5444C278.149 55.4606 277.855 55.3697 277.478 55.2719C277.003 55.1462 276.615 55.0204 276.315 54.8947C276.022 54.762 275.77 54.5594 275.561 54.2869C275.351 54.0145 275.246 53.6512 275.246 53.1971C275.246 52.778 275.351 52.4112 275.561 52.0969C275.77 51.7825 276.064 51.5415 276.441 51.3738C276.818 51.2062 277.255 51.1223 277.751 51.1223C278.456 51.1223 279.033 51.3005 279.48 51.6568C279.934 52.0061 280.185 52.4881 280.234 53.1028H278.914C278.893 52.8374 278.767 52.6103 278.537 52.4217C278.306 52.2331 278.002 52.1388 277.625 52.1388C277.283 52.1388 277.003 52.2261 276.787 52.4008C276.57 52.5754 276.462 52.8269 276.462 53.1552C276.462 53.3788 276.528 53.5639 276.661 53.7106C276.801 53.8503 276.975 53.9621 277.185 54.0459C277.394 54.1298 277.681 54.2206 278.044 54.3184C278.526 54.4511 278.917 54.5838 279.218 54.7166C279.525 54.8493 279.784 55.0554 279.993 55.3348C280.21 55.6073 280.318 55.974 280.318 56.4351C280.318 56.8053 280.217 57.1546 280.014 57.483C279.818 57.8113 279.529 58.0767 279.144 58.2793C278.767 58.4749 278.32 58.5727 277.803 58.5727Z" fill="white"/>
<path d="M249.605 77.3873C249.605 77.9113 249.474 78.4038 249.212 78.8648C248.96 79.3259 248.583 79.7136 248.08 80.028C247.587 80.3423 247.001 80.5309 246.32 80.5938V81.867H245.298V80.5938C244.313 80.4995 243.516 80.1904 242.909 79.6665C242.301 79.1425 241.997 78.4509 241.997 77.5917H243.915C243.946 78.0003 244.077 78.3409 244.308 78.6133C244.538 78.8753 244.868 79.043 245.298 79.1163V75.6583C244.596 75.4802 244.025 75.3021 243.585 75.1239C243.144 74.9353 242.767 74.6419 242.453 74.2437C242.149 73.8455 241.997 73.3006 241.997 72.609C241.997 71.7393 242.301 71.0215 242.909 70.4556C243.516 69.8793 244.313 69.544 245.298 69.4497V68.1765H246.32V69.4497C247.242 69.5335 247.98 69.8269 248.536 70.3299C249.102 70.8224 249.421 71.5035 249.495 72.3732H247.577C247.546 72.0484 247.42 71.7602 247.2 71.5087C246.98 71.2468 246.686 71.0686 246.32 70.9743V74.3694C247.022 74.5371 247.593 74.7152 248.033 74.9039C248.473 75.082 248.845 75.3702 249.149 75.7684C249.453 76.1561 249.605 76.6957 249.605 77.3873ZM243.82 72.5147C243.82 72.9443 243.946 73.2797 244.198 73.5207C244.46 73.7617 244.826 73.9555 245.298 74.1022V70.9272C244.847 70.9796 244.486 71.142 244.213 71.4144C243.951 71.6869 243.82 72.0536 243.82 72.5147ZM246.32 79.1163C246.781 79.043 247.142 78.8596 247.404 78.5662C247.666 78.2623 247.797 77.9008 247.797 77.4816C247.797 77.0625 247.666 76.7376 247.404 76.5071C247.153 76.2661 246.791 76.0722 246.32 75.9255V79.1163Z" fill="white" fill-opacity="0.5"/>
<path d="M251.984 74.6052C251.984 72.8029 252.33 71.383 253.022 70.3456C253.724 69.3082 254.85 68.7895 256.401 68.7895C257.952 68.7895 259.073 69.3082 259.765 70.3456C260.467 71.383 260.818 72.8029 260.818 74.6052C260.818 76.4285 260.467 77.8589 259.765 78.8963C259.073 79.9337 257.952 80.4524 256.401 80.4524C254.85 80.4524 253.724 79.9337 253.022 78.8963C252.33 77.8589 251.984 76.4285 251.984 74.6052ZM258.177 74.6052C258.177 73.5469 258.062 72.7348 257.831 72.1689C257.601 71.5926 257.124 71.3044 256.401 71.3044C255.678 71.3044 255.201 71.5926 254.971 72.1689C254.74 72.7348 254.625 73.5469 254.625 74.6052C254.625 75.3178 254.667 75.9098 254.751 76.3814C254.834 76.8424 255.002 77.2197 255.254 77.5131C255.516 77.796 255.898 77.9375 256.401 77.9375C256.904 77.9375 257.281 77.796 257.533 77.5131C257.795 77.2197 257.968 76.8424 258.051 76.3814C258.135 75.9098 258.177 75.3178 258.177 74.6052ZM265.397 78.016L263.652 82.5271H261.939L262.851 78.016H265.397ZM266.814 78.4562V76.2871L271.78 69.1825H274.783V76.1299H276.071V78.4562H274.783V80.4995H272.095V78.4562H266.814ZM272.283 72.1375L269.643 76.1299H272.283V72.1375ZM285.467 71.3673H280.563V73.5364C280.773 73.3059 281.066 73.1172 281.443 72.9705C281.821 72.8238 282.229 72.7505 282.669 72.7505C283.455 72.7505 284.105 72.9286 284.618 73.2849C285.142 73.6412 285.525 74.1022 285.766 74.6681C286.007 75.2339 286.127 75.8469 286.127 76.5071C286.127 77.7331 285.781 78.7076 285.09 79.4307C284.398 80.1432 283.424 80.4995 282.166 80.4995C281.328 80.4995 280.6 80.358 279.981 80.0751C279.363 79.7817 278.886 79.3783 278.551 78.8648C278.216 78.3514 278.032 77.7593 278.001 77.0887H280.626C280.689 77.4135 280.841 77.686 281.082 77.906C281.323 78.1156 281.653 78.2204 282.072 78.2204C282.564 78.2204 282.931 78.0632 283.172 77.7488C283.413 77.4345 283.534 77.0153 283.534 76.4914C283.534 75.9779 283.408 75.585 283.157 75.3125C282.905 75.0401 282.538 74.9039 282.056 74.9039C281.7 74.9039 281.407 74.9929 281.176 75.1711C280.946 75.3387 280.794 75.564 280.72 75.8469H278.127V69.0096H285.467V71.3673Z" fill="white"/>
<path d="M58.9871 198.95C56.3668 198.95 57.3494 194.087 54.0741 193.74C51.9261 193.512 52.3137 200.157 51.2645 204.856L40 278L356 273.898V51.0052C339.971 50.4583 327.867 93.1151 323.288 93.3886C318.708 93.662 316.091 76.1618 307.586 76.1618C297.76 76.1618 296.777 104.468 292.519 104.468C288.261 104.468 286.951 119.404 282.366 119.404C277.78 119.404 276.186 127.842 273.238 127.842C270.29 127.842 269.97 118.545 267.35 118.545C264.73 118.545 268.994 116.884 262.443 116.884C255.892 116.884 253.95 126.536 252.629 129.041C250.667 132.764 249.689 136.592 247.068 136.592C244.448 136.592 244.129 124.287 240.526 124.287C236.923 124.287 237.821 129.041 234.546 129.041C231.27 129.041 231.27 147.104 227.34 147.104C223.41 147.104 223.737 138.073 218.824 138.073C213.911 138.073 213.583 165.951 211.291 165.604C208.998 165.256 209.326 162.825 205.723 162.825C202.12 162.825 203.102 173.246 198.844 173.246C194.586 173.246 194.586 157.267 191.966 157.267C189.346 157.267 189.673 146.846 185.415 146.846C181.158 146.846 182.468 160.046 179.192 160.046C175.917 160.046 168.711 171.856 164.126 171.856C159.54 171.856 156.592 197.908 152.662 197.908C148.732 197.908 148.404 204.856 142.836 204.856C137.268 204.856 139.233 219.445 133.665 219.445C128.097 219.445 128.424 211.108 124.167 211.456C119.909 211.803 117.616 196.172 113.685 195.824C109.755 195.477 111.065 198.95 107.462 198.95C103.859 198.95 103.859 193.74 100.256 193.74C96.6536 193.74 97.6362 201.382 94.3609 201.382C91.0855 201.382 90.4304 204.856 86.5 204.856C82.5696 204.856 82.8971 192.351 79.6218 192.351C76.3464 192.351 78.6392 197.908 74.3812 197.908C70.1233 197.908 70.4508 179.151 67.1755 179.151C63.9001 179.151 61.6074 198.95 58.9871 198.95Z" fill="url(#paint10_radial_1236_3626)"/>
<path d="M47.8509 209.37C49.7674 209.251 50.7138 207.32 51.2645 204.854M356 51V273.898L40 278L51.2645 204.854M51.2645 204.854C52.3137 200.155 51.9261 193.511 54.0741 193.738C57.3494 194.086 56.3668 198.949 58.9871 198.949C61.6074 198.949 63.9001 179.149 67.1755 179.149C70.4508 179.149 70.1233 197.907 74.3812 197.907C78.6392 197.907 76.3464 192.349 79.6218 192.349C82.8971 192.349 82.5696 204.854 86.5 204.854C90.4304 204.854 91.0855 201.381 94.3609 201.381C97.6362 201.381 96.6536 193.738 100.256 193.738C103.859 193.738 103.859 198.949 107.462 198.949C111.065 198.949 109.755 195.475 113.685 195.823C117.616 196.17 119.909 211.802 124.167 211.454C128.424 211.107 128.097 219.444 133.665 219.444C139.233 219.444 137.268 204.854 142.836 204.854C148.404 204.854 148.732 197.907 152.662 197.907C156.592 197.907 159.54 171.854 164.126 171.854C168.711 171.854 175.917 160.043 179.192 160.043C182.468 160.043 181.158 146.843 185.415 146.843C189.673 146.843 189.346 157.264 191.966 157.264C194.586 157.264 194.586 173.243 198.844 173.243C203.102 173.243 202.12 162.822 205.723 162.822C209.326 162.822 208.998 165.254 211.291 165.601C213.583 165.949 213.911 138.07 218.824 138.07C223.737 138.07 223.41 147.101 227.34 147.101C231.27 147.101 231.27 129.038 234.546 129.038C237.821 129.038 236.838 124.255 240.441 124.255C244.044 124.255 242.663 135.63 246.992 136.85C251.321 138.07 255.901 115.869 262.116 115.838C268.331 115.807 270.29 128.112 273.238 128.112C276.186 128.112 277.78 119.401 282.366 119.401C286.951 119.401 288.261 104.464 292.519 104.464C294.394 104.464 295.633 98.9786 297.272 92.8375" stroke="url(#paint11_linear_1236_3626)" stroke-width="1.96477"/>
<circle cx="298.032" cy="91.0341" r="3.92953" fill="white"/>
</g>
<path d="M67.6549 10.4787C67.6549 5.0532 72.0532 0.654922 77.4787 0.654922H339.521C344.947 0.654922 349.345 5.0532 349.345 10.4787V255.521C349.345 260.947 344.947 265.345 339.521 265.345H77.4788C72.0532 265.345 67.6549 260.947 67.6549 255.521V10.4787Z" stroke="white" stroke-opacity="0.15" stroke-width="1.30984"/>
<g filter="url(#filter0_d_1236_3626)">
<rect x="2" y="177" width="229.223" height="300.87" rx="10.4787" fill="#000223" shape-rendering="crispEdges"/>
<rect x="2" y="177" width="229.223" height="300.87" rx="10.4787" fill="url(#paint12_linear_1236_3626)" shape-rendering="crispEdges"/>
<rect x="2.65492" y="177.655" width="227.913" height="299.56" rx="9.82383" stroke="url(#paint13_linear_1236_3626)" stroke-width="1.30984" shape-rendering="crispEdges"/>
<path d="M36.2349 200.994V203.147H33.3114V212.028H30.6236V203.147H27.7V200.994H36.2349ZM41.5763 212.154C40.717 212.154 39.9416 211.97 39.25 211.604C38.5689 211.237 38.0292 210.713 37.631 210.032C37.2433 209.351 37.0494 208.554 37.0494 207.643C37.0494 206.741 37.2485 205.95 37.6467 205.269C38.0449 204.578 38.5898 204.048 39.2814 203.682C39.973 203.315 40.7484 203.131 41.6077 203.131C42.467 203.131 43.2424 203.315 43.934 203.682C44.6256 204.048 45.1705 204.578 45.5687 205.269C45.9669 205.95 46.166 206.741 46.166 207.643C46.166 208.544 45.9616 209.34 45.553 210.032C45.1548 210.713 44.6046 211.237 43.9025 211.604C43.211 211.97 42.4355 212.154 41.5763 212.154ZM41.5763 209.827C42.0897 209.827 42.5246 209.639 42.8809 209.262C43.2476 208.884 43.431 208.345 43.431 207.643C43.431 206.941 43.2529 206.401 42.8966 206.024C42.5508 205.646 42.1212 205.458 41.6077 205.458C41.0838 205.458 40.6489 205.646 40.3031 206.024C39.9573 206.39 39.7844 206.93 39.7844 207.643C39.7844 208.345 39.9521 208.884 40.2874 209.262C40.6332 209.639 41.0628 209.827 41.5763 209.827ZM50.2797 204.499C50.5417 204.09 50.9032 203.76 51.3642 203.509C51.8253 203.257 52.365 203.131 52.9832 203.131C53.7062 203.131 54.3612 203.315 54.948 203.682C55.5348 204.048 55.9958 204.572 56.3312 205.253C56.677 205.935 56.8499 206.726 56.8499 207.627C56.8499 208.528 56.677 209.324 56.3312 210.016C55.9958 210.697 55.5348 211.226 54.948 211.604C54.3612 211.97 53.7062 212.154 52.9832 212.154C52.3754 212.154 51.8358 212.028 51.3642 211.776C50.9032 211.525 50.5417 211.2 50.2797 210.802V216.209H47.5919V203.257H50.2797V204.499ZM54.1149 207.627C54.1149 206.956 53.9263 206.432 53.5491 206.055C53.1823 205.667 52.7265 205.473 52.1816 205.473C51.6472 205.473 51.1913 205.667 50.8141 206.055C50.4473 206.443 50.264 206.972 50.264 207.643C50.264 208.313 50.4473 208.842 50.8141 209.23C51.1913 209.618 51.6472 209.812 52.1816 209.812C52.716 209.812 53.1718 209.618 53.5491 209.23C53.9263 208.832 54.1149 208.298 54.1149 207.627ZM70.2515 203.257V212.028H67.5637V210.833C67.2913 211.221 66.9193 211.535 66.4477 211.776C65.9867 212.007 65.4732 212.122 64.9074 212.122C64.2367 212.122 63.6447 211.976 63.1312 211.682C62.6178 211.378 62.2196 210.943 61.9366 210.378C61.6537 209.812 61.5122 209.146 61.5122 208.381V203.257H64.1843V208.02C64.1843 208.607 64.3363 209.062 64.6402 209.387C64.944 209.712 65.3527 209.875 65.8662 209.875C66.3901 209.875 66.804 209.712 67.1079 209.387C67.4118 209.062 67.5637 208.607 67.5637 208.02V203.257H70.2515ZM74.87 204.499C75.1319 204.09 75.4934 203.76 75.9545 203.509C76.4156 203.257 76.9552 203.131 77.5735 203.131C78.2965 203.131 78.9514 203.315 79.5382 203.682C80.125 204.048 80.5861 204.572 80.9214 205.253C81.2672 205.935 81.4401 206.726 81.4401 207.627C81.4401 208.528 81.2672 209.324 80.9214 210.016C80.5861 210.697 80.125 211.226 79.5382 211.604C78.9514 211.97 78.2965 212.154 77.5735 212.154C76.9657 212.154 76.426 212.028 75.9545 211.776C75.4934 211.525 75.1319 211.2 74.87 210.802V216.209H72.1822V203.257H74.87V204.499ZM78.7052 207.627C78.7052 206.956 78.5166 206.432 78.1393 206.055C77.7726 205.667 77.3167 205.473 76.7718 205.473C76.2374 205.473 75.7816 205.667 75.4044 206.055C75.0376 206.443 74.8542 206.972 74.8542 207.643C74.8542 208.313 75.0376 208.842 75.4044 209.23C75.7816 209.618 76.2374 209.812 76.7718 209.812C77.3063 209.812 77.7621 209.618 78.1393 209.23C78.5166 208.832 78.7052 208.298 78.7052 207.627Z" fill="white"/>
<path d="M101.339 205.118C101.397 205.118 101.453 205.115 101.509 205.11C102.501 205.025 103.28 204.192 103.28 203.177V200.11C103.28 199.038 102.411 198.169 101.339 198.169H98.2715C97.2569 198.169 96.4239 198.948 96.3383 199.94C96.3333 199.996 96.3309 200.053 96.3309 200.11V201.847V203.346H94.5113V200.11C94.5113 200.053 94.5088 199.996 94.5039 199.94C94.4183 198.948 93.5852 198.169 92.5706 198.169H89.5027C88.431 198.169 87.562 199.038 87.562 200.11V203.177C87.562 204.192 88.3409 205.025 89.3334 205.11C89.389 205.115 89.4456 205.118 89.5027 205.118H92.7399V206.938H89.5027C89.4456 206.938 89.389 206.94 89.3334 206.945C88.3409 207.031 87.562 207.864 87.562 208.878V211.946C87.562 213.018 88.431 213.887 89.5027 213.887H92.5706C93.5852 213.887 94.4183 213.108 94.5039 212.116C94.5088 212.06 94.5113 212.003 94.5113 211.946V208.709H96.3309V211.946C96.3309 212.003 96.3333 212.06 96.3383 212.116C96.4239 213.108 97.2569 213.887 98.2715 213.887H101.339C102.411 213.887 103.28 213.018 103.28 211.946V208.878C103.28 207.864 102.501 207.031 101.509 206.945C101.453 206.94 101.397 206.938 101.339 206.938H98.1023V205.118H101.339ZM98.1023 201.847V200.11C98.1023 200.016 98.1785 199.94 98.2715 199.94H101.339C101.433 199.94 101.509 200.016 101.509 200.11V203.177C101.509 203.271 101.433 203.346 101.339 203.346H98.1023V201.847ZM89.5027 203.346C89.4092 203.346 89.3334 203.271 89.3334 203.177V200.11C89.3334 200.016 89.4092 199.94 89.5027 199.94H92.5706C92.6636 199.94 92.7399 200.016 92.7399 200.11V203.346H89.5027ZM92.7399 211.946C92.7399 212.039 92.6636 212.116 92.5706 212.116H89.5027C89.4092 212.116 89.3334 212.039 89.3334 211.946V208.878C89.3334 208.785 89.4092 208.709 89.5027 208.709H92.7399V211.946ZM101.339 208.709C101.433 208.709 101.509 208.785 101.509 208.878V211.946C101.509 212.039 101.433 212.116 101.339 212.116H98.2715C98.1785 212.116 98.1023 212.039 98.1023 211.946V208.709H101.339ZM96.3309 206.938H94.5113V205.118H96.3309V206.938Z" fill="url(#paint14_linear_1236_3626)"/>
<path d="M94.511 208.71V211.947C94.511 212.004 94.5085 212.061 94.5036 212.116H92.5703C92.6633 212.116 92.7396 212.04 92.7396 211.947V208.71H94.511Z" fill="url(#paint15_linear_1236_3626)"/>
<path d="M94.5114 201.445H92.74V206.938H94.5114V201.445Z" fill="url(#paint16_linear_1236_3626)"/>
<path d="M98.2712 212.116H96.3379C96.333 212.06 96.3306 212.004 96.3306 211.947V205.118H98.102V211.947C98.102 212.04 98.1782 212.116 98.2712 212.116Z" fill="url(#paint17_linear_1236_3626)"/>
<path d="M101.509 203.177V205.11C101.453 205.115 101.397 205.118 101.34 205.118H94.5115V203.346H101.34C101.433 203.346 101.509 203.27 101.509 203.177Z" fill="url(#paint18_linear_1236_3626)"/>
<path d="M101.508 206.945V208.879C101.508 208.785 101.433 208.709 101.339 208.709H98.1018V206.938H101.339C101.396 206.938 101.453 206.94 101.508 206.945Z" fill="url(#paint19_linear_1236_3626)"/>
<path d="M96.3309 206.938H91.8611V208.709H96.3309V206.938Z" fill="url(#paint20_linear_1236_3626)"/>
<path d="M99.8049 198.169H98.2712C97.2566 198.169 96.4236 198.948 96.3379 199.94C96.333 199.996 96.3306 200.053 96.3306 200.11V201.847V203.346H98.102V201.847V200.11C98.102 200.016 98.1782 199.94 98.2712 199.94H99.8049V198.169Z" fill="url(#paint21_linear_1236_3626)"/>
<path d="M89.3334 203.177V200.117H87.562V203.177C87.562 204.192 88.3409 205.024 89.3334 205.11C89.389 205.115 89.4456 205.117 89.5027 205.117H92.7399V203.346H89.5027C89.4092 203.347 89.3334 203.271 89.3334 203.177Z" fill="url(#paint22_linear_1236_3626)"/>
<path d="M113.79 200.994V208.507C113.79 209.67 113.46 210.566 112.8 211.195C112.15 211.824 111.27 212.138 110.159 212.138C108.996 212.138 108.064 211.808 107.361 211.148C106.659 210.488 106.308 209.55 106.308 208.334H108.98C108.98 208.795 109.075 209.146 109.263 209.387C109.452 209.618 109.724 209.733 110.081 209.733C110.406 209.733 110.657 209.628 110.835 209.419C111.013 209.209 111.102 208.905 111.102 208.507V200.994H113.79ZM126.319 200.994L122.406 212.028H119.042L115.128 200.994H117.989L120.724 209.324L123.474 200.994H126.319ZM131.435 212.138C130.628 212.138 129.905 212.007 129.266 211.745C128.627 211.483 128.113 211.095 127.726 210.582C127.349 210.068 127.149 209.45 127.128 208.727H129.989C130.031 209.136 130.173 209.45 130.414 209.67C130.655 209.88 130.969 209.985 131.357 209.985C131.755 209.985 132.069 209.896 132.3 209.717C132.53 209.529 132.646 209.272 132.646 208.947C132.646 208.675 132.551 208.449 132.363 208.271C132.184 208.093 131.959 207.946 131.687 207.831C131.425 207.716 131.048 207.585 130.555 207.438C129.842 207.218 129.261 206.998 128.81 206.778C128.36 206.558 127.972 206.233 127.647 205.804C127.322 205.374 127.16 204.813 127.16 204.122C127.16 203.095 127.532 202.293 128.276 201.717C129.02 201.13 129.989 200.837 131.184 200.837C132.399 200.837 133.379 201.13 134.123 201.717C134.867 202.293 135.265 203.1 135.318 204.137H132.41C132.389 203.781 132.258 203.503 132.017 203.304C131.776 203.095 131.467 202.99 131.089 202.99C130.765 202.99 130.503 203.079 130.304 203.257C130.104 203.425 130.005 203.671 130.005 203.996C130.005 204.352 130.173 204.63 130.508 204.829C130.843 205.028 131.367 205.243 132.08 205.473C132.792 205.715 133.369 205.945 133.809 206.165C134.259 206.385 134.647 206.705 134.972 207.124C135.297 207.543 135.459 208.083 135.459 208.743C135.459 209.372 135.297 209.943 134.972 210.456C134.657 210.97 134.196 211.378 133.589 211.682C132.981 211.986 132.263 212.138 131.435 212.138Z" fill="white"/>
<path d="M142.97 205.018C143.263 204.504 143.693 204.085 144.259 203.76C144.824 203.435 145.469 203.273 146.192 203.273C146.967 203.273 147.664 203.456 148.282 203.823C148.901 204.19 149.388 204.709 149.744 205.379C150.101 206.039 150.279 206.81 150.279 207.69C150.279 208.559 150.101 209.335 149.744 210.016C149.388 210.697 148.895 211.226 148.267 211.604C147.649 211.981 146.957 212.169 146.192 212.169C145.448 212.169 144.793 212.007 144.227 211.682C143.672 211.357 143.253 210.943 142.97 210.44V212.028H141.539V200.397H142.97V205.018ZM148.817 207.69C148.817 207.04 148.686 206.474 148.424 205.992C148.162 205.51 147.806 205.143 147.355 204.892C146.915 204.64 146.428 204.515 145.893 204.515C145.369 204.515 144.882 204.646 144.432 204.908C143.991 205.159 143.635 205.531 143.363 206.024C143.101 206.506 142.97 207.066 142.97 207.705C142.97 208.355 143.101 208.926 143.363 209.419C143.635 209.901 143.991 210.273 144.432 210.535C144.882 210.786 145.369 210.912 145.893 210.912C146.428 210.912 146.915 210.786 147.355 210.535C147.806 210.273 148.162 209.901 148.424 209.419C148.686 208.926 148.817 208.35 148.817 207.69ZM151.627 207.69C151.627 206.81 151.805 206.039 152.161 205.379C152.518 204.709 153.005 204.19 153.623 203.823C154.252 203.456 154.949 203.273 155.714 203.273C156.468 203.273 157.123 203.435 157.678 203.76C158.234 204.085 158.648 204.494 158.92 204.986V203.414H160.366V212.028H158.92V210.425C158.637 210.928 158.213 211.347 157.647 211.682C157.092 212.007 156.442 212.169 155.698 212.169C154.933 212.169 154.241 211.981 153.623 211.604C153.005 211.226 152.518 210.697 152.161 210.016C151.805 209.335 151.627 208.559 151.627 207.69ZM158.92 207.705C158.92 207.056 158.789 206.49 158.527 206.008C158.265 205.526 157.909 205.159 157.458 204.908C157.018 204.646 156.531 204.515 155.997 204.515C155.462 204.515 154.975 204.64 154.535 204.892C154.095 205.143 153.744 205.51 153.482 205.992C153.22 206.474 153.089 207.04 153.089 207.69C153.089 208.35 153.22 208.926 153.482 209.419C153.744 209.901 154.095 210.273 154.535 210.535C154.975 210.786 155.462 210.912 155.997 210.912C156.531 210.912 157.018 210.786 157.458 210.535C157.909 210.273 158.265 209.901 158.527 209.419C158.789 208.926 158.92 208.355 158.92 207.705ZM164.214 200.397V212.028H162.783V200.397H164.214ZM166.117 207.69C166.117 206.81 166.295 206.039 166.652 205.379C167.008 204.709 167.495 204.19 168.113 203.823C168.742 203.456 169.439 203.273 170.204 203.273C170.958 203.273 171.613 203.435 172.169 203.76C172.724 204.085 173.138 204.494 173.41 204.986V203.414H174.856V212.028H173.41V210.425C173.127 210.928 172.703 211.347 172.137 211.682C171.582 212.007 170.932 212.169 170.188 212.169C169.423 212.169 168.732 211.981 168.113 211.604C167.495 211.226 167.008 210.697 166.652 210.016C166.295 209.335 166.117 208.559 166.117 207.69ZM173.41 207.705C173.41 207.056 173.279 206.49 173.017 206.008C172.755 205.526 172.399 205.159 171.949 204.908C171.508 204.646 171.021 204.515 170.487 204.515C169.952 204.515 169.465 204.64 169.025 204.892C168.585 205.143 168.234 205.51 167.972 205.992C167.71 206.474 167.579 207.04 167.579 207.69C167.579 208.35 167.71 208.926 167.972 209.419C168.234 209.901 168.585 210.273 169.025 210.535C169.465 210.786 169.952 210.912 170.487 210.912C171.021 210.912 171.508 210.786 171.949 210.535C172.399 210.273 172.755 209.901 173.017 209.419C173.279 208.926 173.41 208.355 173.41 207.705ZM181.47 203.257C182.518 203.257 183.367 203.577 184.017 204.216C184.666 204.845 184.991 205.756 184.991 206.951V212.028H183.577V207.155C183.577 206.296 183.362 205.641 182.932 205.191C182.502 204.73 181.916 204.499 181.172 204.499C180.417 204.499 179.815 204.735 179.364 205.206C178.924 205.678 178.704 206.364 178.704 207.265V212.028H177.274V203.414H178.704V204.64C178.987 204.2 179.369 203.86 179.851 203.619C180.344 203.378 180.883 203.257 181.47 203.257ZM186.793 207.705C186.793 206.815 186.971 206.039 187.328 205.379C187.684 204.709 188.176 204.19 188.805 203.823C189.444 203.456 190.173 203.273 190.99 203.273C192.048 203.273 192.918 203.53 193.599 204.043C194.291 204.557 194.747 205.269 194.967 206.181H193.426C193.28 205.657 192.991 205.243 192.562 204.939C192.143 204.635 191.619 204.483 190.99 204.483C190.173 204.483 189.512 204.766 189.009 205.332C188.506 205.887 188.255 206.679 188.255 207.705C188.255 208.743 188.506 209.544 189.009 210.11C189.512 210.676 190.173 210.959 190.99 210.959C191.619 210.959 192.143 210.812 192.562 210.519C192.981 210.226 193.269 209.806 193.426 209.262H194.967C194.736 210.142 194.275 210.849 193.583 211.384C192.892 211.907 192.027 212.169 190.99 212.169C190.173 212.169 189.444 211.986 188.805 211.619C188.176 211.253 187.684 210.734 187.328 210.063C186.971 209.393 186.793 208.607 186.793 207.705ZM204.734 207.391C204.734 207.664 204.719 207.952 204.687 208.256H197.803C197.855 209.104 198.143 209.77 198.667 210.252C199.201 210.723 199.846 210.959 200.6 210.959C201.219 210.959 201.732 210.818 202.141 210.535C202.56 210.241 202.853 209.854 203.021 209.372H204.561C204.331 210.199 203.87 210.875 203.178 211.399C202.487 211.913 201.627 212.169 200.6 212.169C199.783 212.169 199.05 211.986 198.4 211.619C197.761 211.253 197.258 210.734 196.891 210.063C196.524 209.382 196.341 208.596 196.341 207.705C196.341 206.815 196.519 206.034 196.875 205.363C197.231 204.693 197.729 204.179 198.368 203.823C199.018 203.456 199.762 203.273 200.6 203.273C201.418 203.273 202.141 203.451 202.769 203.807C203.398 204.164 203.88 204.656 204.216 205.285C204.561 205.903 204.734 206.605 204.734 207.391ZM203.257 207.092C203.257 206.548 203.136 206.081 202.895 205.694C202.654 205.295 202.324 204.997 201.905 204.798C201.496 204.588 201.04 204.483 200.537 204.483C199.814 204.483 199.196 204.714 198.683 205.175C198.18 205.636 197.892 206.275 197.818 207.092H203.257Z" fill="white" fill-opacity="0.7"/>
<path d="M116.611 242.915C122.718 242.915 128.764 244.118 134.406 246.455C140.047 248.791 145.174 252.216 149.491 256.534C153.809 260.852 157.234 265.978 159.571 271.62C161.908 277.261 163.111 283.308 163.111 289.414C163.111 295.521 161.908 301.567 159.571 307.209C157.234 312.851 153.809 317.977 149.491 322.295C145.174 326.612 140.047 330.038 134.406 332.374C128.764 334.711 122.718 335.914 116.611 335.914C110.505 335.914 104.458 334.711 98.8167 332.374C93.1752 330.037 88.0491 326.612 83.7312 322.294C79.4134 317.977 75.9882 312.851 73.6514 307.209C71.3146 301.567 70.1119 295.521 70.1119 289.414C70.1119 283.308 71.3146 277.261 73.6514 271.62C75.9883 265.978 79.4134 260.852 83.7313 256.534C88.0491 252.216 93.1752 248.791 98.8168 246.455C104.458 244.118 110.505 242.915 116.611 242.915L116.611 242.915Z" stroke="white" stroke-opacity="0.1" stroke-width="5.23937"/>
<path d="M116.611 242.915C127.052 242.915 137.189 246.429 145.39 252.891C153.591 259.353 159.379 268.387 161.821 278.538C164.263 288.689 163.218 299.367 158.853 308.852C154.489 318.337 147.059 326.077 137.761 330.826C128.462 335.575 117.836 337.056 107.593 335.031C97.3508 333.006 88.0876 327.593 81.2956 319.663C74.5036 311.734 70.5779 301.749 70.1508 291.317C69.7237 280.884 72.8199 270.612 78.941 262.154" stroke="url(#paint23_linear_1236_3626)" stroke-width="5.23937"/>
<circle cx="79.2807" cy="261.908" r="6.54922" fill="white"/>
<path d="M95.1787 276.245V274.163H98.8069V283.724H96.4754V276.245H95.1787Z" fill="#F8FAFC"/>
<path d="M115.772 277.928C115.822 277.928 115.872 277.926 115.92 277.921C116.789 277.846 117.47 277.118 117.47 276.23V273.546C117.47 272.608 116.71 271.848 115.772 271.848H113.088C112.2 271.848 111.471 272.529 111.396 273.398C111.392 273.446 111.39 273.496 111.39 273.546V275.066V276.378H109.798V273.546C109.798 273.496 109.795 273.446 109.791 273.398C109.716 272.529 108.987 271.848 108.1 271.848H105.415C104.477 271.848 103.717 272.608 103.717 273.546V276.23C103.717 277.118 104.399 277.846 105.267 277.921C105.316 277.926 105.365 277.928 105.415 277.928H108.248V279.52H105.415C105.365 279.52 105.316 279.523 105.267 279.527C104.399 279.602 103.717 280.331 103.717 281.218V283.903C103.717 284.841 104.477 285.601 105.415 285.601H108.1C108.987 285.601 109.716 284.919 109.791 284.051C109.795 284.002 109.798 283.953 109.798 283.903V281.07H111.39V283.903C111.39 283.953 111.392 284.002 111.396 284.051C111.471 284.919 112.2 285.601 113.088 285.601H115.772C116.71 285.601 117.47 284.841 117.47 283.903V281.218C117.47 280.331 116.789 279.602 115.92 279.527C115.872 279.523 115.822 279.52 115.772 279.52H112.94V277.928H115.772ZM112.94 275.066V273.546C112.94 273.464 113.007 273.398 113.088 273.398H115.772C115.854 273.398 115.92 273.464 115.92 273.546V276.23C115.92 276.312 115.854 276.378 115.772 276.378H112.94V275.066ZM105.415 276.378C105.333 276.378 105.267 276.312 105.267 276.23V273.546C105.267 273.464 105.333 273.398 105.415 273.398H108.1C108.181 273.398 108.248 273.464 108.248 273.546V276.378H105.415ZM108.248 283.903C108.248 283.984 108.181 284.051 108.1 284.051H105.415C105.333 284.051 105.267 283.984 105.267 283.903V281.218C105.267 281.137 105.333 281.07 105.415 281.07H108.248V283.903ZM115.772 281.07C115.854 281.07 115.92 281.137 115.92 281.218V283.903C115.92 283.984 115.854 284.051 115.772 284.051H113.088C113.007 284.051 112.94 283.984 112.94 283.903V281.07H115.772ZM111.39 279.52H109.798V277.928H111.39V279.52Z" fill="url(#paint24_linear_1236_3626)"/>
<path d="M109.798 281.07V283.903C109.798 283.953 109.796 284.002 109.791 284.051H108.1C108.181 284.051 108.248 283.984 108.248 283.903V281.07H109.798Z" fill="url(#paint25_linear_1236_3626)"/>
<path d="M109.798 274.714H108.248V279.52H109.798V274.714Z" fill="url(#paint26_linear_1236_3626)"/>
<path d="M113.088 284.051H111.397C111.392 284.002 111.39 283.952 111.39 283.902V277.927H112.94V283.902C112.94 283.984 113.007 284.051 113.088 284.051Z" fill="url(#paint27_linear_1236_3626)"/>
<path d="M115.92 276.229V277.921C115.872 277.925 115.822 277.928 115.772 277.928H109.797V276.378H115.772C115.854 276.378 115.92 276.311 115.92 276.229Z" fill="url(#paint28_linear_1236_3626)"/>
<path d="M115.92 279.527V281.218C115.92 281.136 115.854 281.07 115.772 281.07H112.94V279.52H115.772C115.822 279.52 115.872 279.522 115.92 279.527Z" fill="url(#paint29_linear_1236_3626)"/>
<path d="M111.39 279.52H107.479V281.07H111.39V279.52Z" fill="url(#paint30_linear_1236_3626)"/>
<path d="M114.43 271.848H113.088C112.2 271.848 111.472 272.529 111.397 273.398C111.392 273.446 111.39 273.496 111.39 273.546V275.066V276.378H112.94V275.066V273.546C112.94 273.464 113.007 273.398 113.088 273.398H114.43V271.848Z" fill="url(#paint31_linear_1236_3626)"/>
<path d="M105.267 276.23V273.552H103.717V276.229C103.717 277.117 104.399 277.846 105.267 277.921C105.316 277.925 105.365 277.927 105.415 277.927H108.248V276.377H105.415C105.334 276.378 105.267 276.311 105.267 276.23Z" fill="url(#paint32_linear_1236_3626)"/>
<path d="M124.026 275.421V280.817C124.026 281.418 123.841 281.9 123.471 282.263C123.1 282.62 122.611 282.798 122.004 282.798C121.389 282.798 120.896 282.616 120.526 282.253C120.156 281.883 119.971 281.38 119.971 280.744H120.924C120.931 281.1 121.022 281.39 121.197 281.614C121.378 281.837 121.647 281.949 122.004 281.949C122.36 281.949 122.625 281.844 122.8 281.635C122.975 281.418 123.062 281.146 123.062 280.817V275.421H124.026ZM131.94 275.421L129.184 282.724H128.084L125.328 275.421H126.345L128.639 281.718L130.934 275.421H131.94ZM135.302 282.798C134.82 282.798 134.386 282.714 134.002 282.546C133.625 282.372 133.328 282.134 133.112 281.834C132.895 281.526 132.783 281.174 132.776 280.775H133.793C133.828 281.118 133.967 281.408 134.212 281.645C134.463 281.876 134.827 281.991 135.302 281.991C135.756 281.991 136.112 281.879 136.37 281.656C136.636 281.425 136.769 281.132 136.769 280.775C136.769 280.496 136.692 280.269 136.538 280.094C136.384 279.92 136.192 279.787 135.962 279.696C135.731 279.605 135.42 279.507 135.029 279.403C134.547 279.277 134.159 279.151 133.866 279.025C133.58 278.9 133.332 278.704 133.122 278.439C132.919 278.166 132.818 277.803 132.818 277.349C132.818 276.951 132.919 276.598 133.122 276.29C133.325 275.983 133.608 275.746 133.971 275.578C134.341 275.41 134.764 275.326 135.239 275.326C135.923 275.326 136.482 275.498 136.915 275.84C137.355 276.182 137.603 276.636 137.659 277.202H136.611C136.577 276.923 136.43 276.678 136.171 276.469C135.913 276.252 135.571 276.144 135.144 276.144C134.746 276.144 134.421 276.248 134.17 276.458C133.918 276.661 133.793 276.947 133.793 277.317C133.793 277.583 133.866 277.799 134.013 277.967C134.166 278.135 134.352 278.264 134.568 278.355C134.792 278.439 135.103 278.536 135.501 278.648C135.983 278.781 136.37 278.914 136.664 279.046C136.957 279.172 137.209 279.371 137.418 279.644C137.628 279.909 137.733 280.272 137.733 280.733C137.733 281.09 137.638 281.425 137.45 281.739C137.261 282.054 136.982 282.309 136.611 282.504C136.241 282.7 135.805 282.798 135.302 282.798Z" fill="#F8FAFC"/>
<path d="M104.662 303.436C104.662 303.96 104.531 304.452 104.269 304.914C104.018 305.375 103.64 305.762 103.137 306.077C102.645 306.391 102.058 306.58 101.377 306.643V307.916H100.355V306.643C99.3702 306.548 98.5738 306.239 97.9661 305.715C97.3583 305.191 97.0544 304.5 97.0544 303.64H98.972C99.0035 304.049 99.1344 304.39 99.365 304.662C99.5955 304.924 99.9256 305.092 100.355 305.165V301.707C99.6531 301.529 99.0821 301.351 98.6419 301.173C98.2018 300.984 97.8246 300.691 97.5102 300.292C97.2064 299.894 97.0544 299.349 97.0544 298.658C97.0544 297.788 97.3583 297.07 97.9661 296.504C98.5738 295.928 99.3702 295.593 100.355 295.498V294.225H101.377V295.498C102.299 295.582 103.038 295.876 103.593 296.379C104.159 296.871 104.479 297.552 104.552 298.422H102.634C102.603 298.097 102.477 297.809 102.257 297.557C102.037 297.295 101.744 297.117 101.377 297.023V300.418C102.079 300.586 102.65 300.764 103.09 300.953C103.53 301.131 103.902 301.419 104.206 301.817C104.51 302.205 104.662 302.744 104.662 303.436ZM98.8777 298.563C98.8777 298.993 99.0035 299.328 99.255 299.569C99.5169 299.81 99.8837 300.004 100.355 300.151V296.976C99.9046 297.028 99.5431 297.191 99.2707 297.463C99.0087 297.736 98.8777 298.102 98.8777 298.563ZM101.377 305.165C101.838 305.092 102.199 304.908 102.461 304.615C102.723 304.311 102.854 303.949 102.854 303.53C102.854 303.111 102.723 302.786 102.461 302.556C102.21 302.315 101.848 302.121 101.377 301.974V305.165Z" fill="white" fill-opacity="0.5"/>
<path d="M106.759 297.573V295.074H111.113V306.548H108.315V297.573H106.759ZM116.111 304.065L114.366 308.576H112.653L113.564 304.065H116.111ZM117.558 298.312C117.6 297.191 117.967 296.326 118.659 295.718C119.35 295.111 120.288 294.807 121.472 294.807C122.258 294.807 122.929 294.943 123.484 295.215C124.05 295.488 124.474 295.86 124.757 296.331C125.051 296.803 125.197 297.332 125.197 297.919C125.197 298.611 125.024 299.176 124.679 299.617C124.333 300.046 123.929 300.34 123.468 300.497V300.56C124.066 300.759 124.537 301.089 124.883 301.55C125.229 302.011 125.402 302.603 125.402 303.326C125.402 303.976 125.25 304.552 124.946 305.055C124.652 305.547 124.218 305.935 123.641 306.218C123.075 306.501 122.4 306.643 121.614 306.643C120.356 306.643 119.35 306.333 118.596 305.715C117.852 305.097 117.459 304.164 117.417 302.917H120.026C120.037 303.378 120.168 303.745 120.419 304.018C120.671 304.28 121.037 304.411 121.519 304.411C121.928 304.411 122.242 304.295 122.462 304.065C122.693 303.824 122.808 303.509 122.808 303.122C122.808 302.619 122.646 302.257 122.321 302.037C122.007 301.807 121.498 301.691 120.796 301.691H120.293V299.506H120.796C121.331 299.506 121.76 299.417 122.085 299.239C122.42 299.051 122.588 298.721 122.588 298.249C122.588 297.872 122.483 297.578 122.274 297.369C122.064 297.159 121.776 297.054 121.409 297.054C121.011 297.054 120.712 297.175 120.513 297.416C120.325 297.657 120.215 297.956 120.183 298.312H117.558ZM126.981 300.654C126.981 298.852 127.327 297.432 128.018 296.394C128.72 295.357 129.847 294.838 131.398 294.838C132.949 294.838 134.07 295.357 134.761 296.394C135.463 297.432 135.814 298.852 135.814 300.654C135.814 302.477 135.463 303.908 134.761 304.945C134.07 305.982 132.949 306.501 131.398 306.501C129.847 306.501 128.72 305.982 128.018 304.945C127.327 303.908 126.981 302.477 126.981 300.654ZM133.174 300.654C133.174 299.596 133.059 298.783 132.828 298.218C132.597 297.641 132.121 297.353 131.398 297.353C130.675 297.353 130.198 297.641 129.967 298.218C129.737 298.783 129.622 299.596 129.622 300.654C129.622 301.366 129.663 301.959 129.747 302.43C129.831 302.891 129.999 303.268 130.25 303.562C130.512 303.845 130.895 303.986 131.398 303.986C131.901 303.986 132.278 303.845 132.529 303.562C132.791 303.268 132.964 302.891 133.048 302.43C133.132 301.959 133.174 301.366 133.174 300.654Z" fill="white"/>
<rect x="19.0281" y="360.801" width="195.167" height="56.8166" rx="5.23937" fill="white" fill-opacity="0.1"/>
<path d="M52.5118 370.978V375.039C52.5118 375.522 52.6371 375.886 52.8878 376.131C53.1445 376.375 53.499 376.497 53.9514 376.497C54.4098 376.497 54.7643 376.375 55.015 376.131C55.2717 375.886 55.4 375.522 55.4 375.039V370.978H56.4453V375.021C56.4453 375.541 56.3322 375.981 56.1061 376.341C55.8799 376.702 55.5773 376.971 55.1983 377.148C54.8193 377.326 54.4006 377.414 53.9422 377.414C53.4837 377.414 53.065 377.326 52.686 377.148C52.3132 376.971 52.0167 376.702 51.7967 376.341C51.5766 375.981 51.4666 375.541 51.4666 375.021V370.978H52.5118ZM59.9059 377.414C59.478 377.414 59.0929 377.341 58.7506 377.194C58.4083 377.041 58.1394 376.827 57.9438 376.552C57.7482 376.277 57.6504 375.956 57.6504 375.59H58.769C58.7934 375.865 58.9004 376.091 59.0899 376.268C59.2855 376.445 59.5575 376.534 59.9059 376.534C60.2666 376.534 60.5477 376.448 60.7495 376.277C60.9512 376.1 61.052 375.874 61.052 375.599C61.052 375.385 60.9878 375.211 60.8595 375.076C60.7372 374.942 60.5814 374.838 60.3919 374.764C60.2085 374.691 59.9518 374.612 59.6217 374.526C59.206 374.416 58.8668 374.306 58.6039 374.196C58.3472 374.08 58.1271 373.902 57.9438 373.664C57.7604 373.426 57.6687 373.108 57.6687 372.711C57.6687 372.344 57.7604 372.023 57.9438 371.748C58.1271 371.473 58.3839 371.262 58.714 371.115C59.044 370.968 59.4261 370.895 59.8601 370.895C60.4774 370.895 60.9817 371.051 61.3729 371.363C61.7703 371.668 61.9903 372.09 62.0331 372.628H60.8778C60.8595 372.396 60.7495 372.197 60.5477 372.032C60.346 371.867 60.0801 371.784 59.75 371.784C59.4505 371.784 59.206 371.861 59.0165 372.014C58.827 372.166 58.7323 372.387 58.7323 372.674C58.7323 372.869 58.7904 373.031 58.9065 373.16C59.0288 373.282 59.1816 373.38 59.365 373.453C59.5483 373.527 59.7989 373.606 60.1168 373.692C60.5386 373.808 60.8809 373.924 61.1437 374.04C61.4127 374.156 61.6388 374.336 61.8222 374.581C62.0117 374.819 62.1065 375.14 62.1065 375.544C62.1065 375.868 62.0178 376.173 61.8406 376.461C61.6694 376.748 61.4157 376.98 61.0795 377.157C60.7495 377.329 60.3583 377.414 59.9059 377.414ZM65.4212 370.978C66.0997 370.978 66.6926 371.109 67.1999 371.372C67.7134 371.629 68.1076 372.001 68.3827 372.49C68.6639 372.973 68.8045 373.539 68.8045 374.187C68.8045 374.835 68.6639 375.397 68.3827 375.874C68.1076 376.351 67.7134 376.717 67.1999 376.974C66.6926 377.225 66.0997 377.35 65.4212 377.35H63.3398V370.978H65.4212ZM65.4212 376.497C66.1669 376.497 66.7384 376.296 67.1357 375.892C67.5331 375.489 67.7317 374.92 67.7317 374.187C67.7317 373.447 67.5331 372.869 67.1357 372.454C66.7384 372.038 66.1669 371.83 65.4212 371.83H64.3851V376.497H65.4212Z" fill="white" fill-opacity="0.5"/>
<path d="M78.3758 375.712C78.3758 376.076 78.2815 376.418 78.0929 376.739C77.9113 377.054 77.6388 377.316 77.2756 377.525C76.9193 377.728 76.4966 377.847 76.0076 377.882V378.73H75.337V377.871C74.6384 377.808 74.076 377.599 73.6499 377.242C73.2238 376.879 73.0037 376.39 72.9897 375.775H74.5616C74.6035 376.278 74.8619 376.582 75.337 376.687V374.686C74.834 374.56 74.4288 374.434 74.1215 374.308C73.8141 374.183 73.5486 373.98 73.3251 373.701C73.1015 373.421 72.9897 373.04 72.9897 372.558C72.9897 371.951 73.2063 371.455 73.6394 371.07C74.0795 370.686 74.6454 370.466 75.337 370.41V369.561H76.0076V370.41C76.6783 370.466 77.2127 370.669 77.6109 371.018C78.0161 371.367 78.2431 371.849 78.292 372.464H76.7097C76.6887 372.261 76.6154 372.087 76.4896 371.94C76.3709 371.786 76.2102 371.678 76.0076 371.615V373.596C76.5316 373.728 76.9437 373.858 77.2441 373.983C77.5515 374.102 77.817 374.301 78.0405 374.581C78.2641 374.853 78.3758 375.23 78.3758 375.712ZM74.5196 372.485C74.5196 372.716 74.5895 372.904 74.7292 373.051C74.8689 373.191 75.0715 373.306 75.337 373.397V371.584C75.0855 371.619 74.8864 371.713 74.7397 371.867C74.593 372.02 74.5196 372.226 74.5196 372.485ZM76.0076 376.708C76.2731 376.659 76.4792 376.551 76.6259 376.383C76.7796 376.215 76.8564 376.013 76.8564 375.775C76.8564 375.545 76.7831 375.36 76.6364 375.22C76.4896 375.08 76.2801 374.965 76.0076 374.874V376.708Z" fill="#F8FAFC"/>
<path d="M25.5771 390.519C25.5771 388.349 27.3365 386.589 29.5067 386.589H99.5833C101.754 386.589 103.513 388.349 103.513 390.519V407.139C103.513 409.309 101.754 411.068 99.5833 411.068H29.5067C27.3365 411.068 25.5771 409.309 25.5771 407.139V390.519Z" fill="white" fill-opacity="0.1"/>
<path d="M29.5067 386.262C27.1556 386.262 25.2497 388.168 25.2497 390.519V407.139C25.2497 409.49 27.1556 411.396 29.5067 411.396H99.5833C101.934 411.396 103.84 409.49 103.84 407.139V390.519C103.84 388.168 101.934 386.262 99.5833 386.262H29.5067Z" stroke="white" stroke-opacity="0.5" stroke-width="0.654922"/>
<path d="M33.9681 396.795C34.0048 396.227 34.2217 395.783 34.6191 395.466C35.0225 395.148 35.536 394.989 36.1594 394.989C36.5873 394.989 36.9571 395.065 37.2689 395.218C37.5806 395.371 37.816 395.579 37.9749 395.841C38.1338 396.104 38.2133 396.401 38.2133 396.731C38.2133 397.11 38.1124 397.434 37.9107 397.703C37.709 397.972 37.4675 398.152 37.1864 398.244V398.28C37.547 398.39 37.8282 398.592 38.0299 398.886C38.2316 399.173 38.3325 399.543 38.3325 399.995C38.3325 400.356 38.25 400.677 38.0849 400.958C37.9199 401.239 37.6754 401.462 37.3514 401.627C37.0274 401.786 36.6393 401.865 36.187 401.865C35.5268 401.865 34.9828 401.697 34.5549 401.361C34.1331 401.019 33.9069 400.53 33.8764 399.894H34.885C34.9094 400.218 35.0347 400.484 35.2609 400.692C35.4871 400.894 35.7927 400.994 36.1778 400.994C36.5507 400.994 36.8379 400.894 37.0397 400.692C37.2414 400.484 37.3422 400.218 37.3422 399.894C37.3422 399.466 37.2047 399.164 36.9296 398.986C36.6607 398.803 36.245 398.711 35.6827 398.711H35.4443V397.849H35.6918C36.187 397.843 36.5629 397.761 36.8196 397.602C37.0824 397.443 37.2139 397.192 37.2139 396.85C37.2139 396.557 37.1191 396.324 36.9296 396.153C36.7401 395.976 36.4712 395.887 36.1228 395.887C35.7805 395.887 35.5146 395.976 35.3251 396.153C35.1356 396.324 35.0225 396.538 34.9858 396.795H33.9681ZM40.5582 398.335C39.9225 398.018 39.6047 397.516 39.6047 396.832C39.6047 396.502 39.6872 396.199 39.8522 395.924C40.0173 395.649 40.2648 395.432 40.5949 395.273C40.925 395.108 41.3284 395.025 41.8052 395.025C42.2759 395.025 42.6762 395.108 43.0063 395.273C43.3425 395.432 43.5931 395.649 43.7582 395.924C43.9232 396.199 44.0057 396.502 44.0057 396.832C44.0057 397.174 43.9171 397.477 43.7398 397.739C43.5687 397.996 43.3395 398.195 43.0522 398.335C43.4006 398.464 43.6757 398.675 43.8774 398.968C44.0791 399.255 44.1799 399.595 44.1799 399.986C44.1799 400.383 44.0791 400.735 43.8774 401.04C43.6757 401.346 43.3945 401.581 43.0338 401.746C42.6732 401.911 42.2636 401.994 41.8052 401.994C41.3468 401.994 40.9372 401.911 40.5766 401.746C40.222 401.581 39.9439 401.346 39.7422 401.04C39.5405 400.735 39.4396 400.383 39.4396 399.986C39.4396 399.588 39.5405 399.246 39.7422 398.959C39.9439 398.672 40.2159 398.464 40.5582 398.335ZM43.0063 396.96C43.0063 396.618 42.8994 396.355 42.6854 396.172C42.4715 395.988 42.1781 395.896 41.8052 395.896C41.4384 395.896 41.1481 395.988 40.9342 396.172C40.7202 396.355 40.6132 396.621 40.6132 396.969C40.6132 397.275 40.7233 397.525 40.9433 397.721C41.1695 397.911 41.4568 398.005 41.8052 398.005C42.1536 398.005 42.4409 397.907 42.6671 397.712C42.8932 397.516 43.0063 397.266 43.0063 396.96ZM41.8052 398.794C41.4018 398.794 41.0717 398.895 40.815 399.096C40.5643 399.292 40.439 399.576 40.439 399.949C40.439 400.298 40.5613 400.582 40.8058 400.802C41.0503 401.016 41.3834 401.123 41.8052 401.123C42.2209 401.123 42.5479 401.013 42.7863 400.793C43.0308 400.573 43.153 400.291 43.153 399.949C43.153 399.582 43.0277 399.298 42.7771 399.096C42.5326 398.895 42.2086 398.794 41.8052 398.794ZM46.5611 400.573L45.4516 403.103H44.7731L45.4241 400.573H46.5611ZM47.2085 400.435V399.647L50.2892 395.227H51.5545V399.527H52.4072V400.435H51.5545V401.829H50.5276V400.435H47.2085ZM50.5735 396.291L48.4096 399.527H50.5735V396.291ZM56.8676 396.694C56.8003 396.413 56.6781 396.202 56.5008 396.061C56.3235 395.921 56.076 395.851 55.7581 395.851C55.2752 395.851 54.9146 396.037 54.6762 396.41C54.4378 396.777 54.3125 397.388 54.3003 398.244C54.4592 397.975 54.6915 397.767 54.9971 397.62C55.3027 397.474 55.6328 397.4 55.9873 397.4C56.3908 397.4 56.7453 397.489 57.0509 397.666C57.3627 397.837 57.6041 398.088 57.7753 398.418C57.9525 398.748 58.0412 399.142 58.0412 399.601C58.0412 400.029 57.9556 400.411 57.7845 400.747C57.6194 401.083 57.3719 401.349 57.0418 401.544C56.7117 401.734 56.3144 401.829 55.8498 401.829C55.2202 401.829 54.7251 401.691 54.3644 401.416C54.0099 401.135 53.7593 400.741 53.6126 400.233C53.472 399.726 53.4017 399.093 53.4017 398.335C53.4017 396.098 54.1902 394.98 55.7673 394.98C56.3786 394.98 56.8584 395.145 57.2068 395.475C57.5613 395.805 57.7692 396.211 57.8303 396.694H56.8676ZM55.7581 398.28C55.3853 398.28 55.0674 398.393 54.8046 398.62C54.5478 398.84 54.4195 399.161 54.4195 399.582C54.4195 400.004 54.5387 400.34 54.777 400.591C55.0216 400.835 55.3608 400.958 55.7948 400.958C56.1799 400.958 56.4825 400.838 56.7025 400.6C56.9287 400.362 57.0418 400.044 57.0418 399.647C57.0418 399.231 56.9317 398.901 56.7117 398.656C56.4977 398.406 56.1799 398.28 55.7581 398.28Z" fill="#F8FAFC"/>
<path d="M121.851 396.69H111.372L114.274 393.466" stroke="white" stroke-width="0.806058"/>
<path d="M111.372 400.721L121.851 400.721L118.949 403.945" stroke="white" stroke-width="0.806058"/>
<path d="M156.963 370.978V375.571C156.963 376.14 156.789 376.589 156.441 376.919C156.099 377.249 155.646 377.414 155.084 377.414C154.521 377.414 154.066 377.249 153.718 376.919C153.375 376.589 153.204 376.14 153.204 375.571H154.259C154.265 375.852 154.335 376.075 154.47 376.241C154.61 376.406 154.815 376.488 155.084 376.488C155.353 376.488 155.558 376.406 155.698 376.241C155.839 376.069 155.909 375.846 155.909 375.571V370.978H156.963ZM164.156 370.978L161.763 377.35H160.553L158.15 370.978H159.269L161.158 376.277L163.056 370.978H164.156ZM167.13 377.414C166.702 377.414 166.317 377.341 165.975 377.194C165.632 377.041 165.363 376.827 165.168 376.552C164.972 376.277 164.874 375.956 164.874 375.59H165.993C166.017 375.865 166.124 376.091 166.314 376.268C166.509 376.445 166.781 376.534 167.13 376.534C167.49 376.534 167.772 376.448 167.973 376.277C168.175 376.1 168.276 375.874 168.276 375.599C168.276 375.385 168.212 375.211 168.083 375.076C167.961 374.942 167.805 374.838 167.616 374.764C167.432 374.691 167.176 374.612 166.846 374.526C166.43 374.416 166.091 374.306 165.828 374.196C165.571 374.08 165.351 373.902 165.168 373.664C164.984 373.426 164.893 373.108 164.893 372.711C164.893 372.344 164.984 372.023 165.168 371.748C165.351 371.473 165.608 371.262 165.938 371.115C166.268 370.968 166.65 370.895 167.084 370.895C167.701 370.895 168.206 371.051 168.597 371.363C168.994 371.668 169.214 372.09 169.257 372.628H168.102C168.083 372.396 167.973 372.197 167.772 372.032C167.57 371.867 167.304 371.784 166.974 371.784C166.674 371.784 166.43 371.861 166.24 372.014C166.051 372.166 165.956 372.387 165.956 372.674C165.956 372.869 166.014 373.031 166.13 373.16C166.253 373.282 166.406 373.38 166.589 373.453C166.772 373.527 167.023 373.606 167.341 373.692C167.763 373.808 168.105 373.924 168.368 374.04C168.637 374.156 168.863 374.336 169.046 374.581C169.236 374.819 169.33 375.14 169.33 375.544C169.33 375.868 169.242 376.173 169.064 376.461C168.893 376.748 168.64 376.98 168.303 377.157C167.973 377.329 167.582 377.414 167.13 377.414Z" fill="white" fill-opacity="0.5"/>
<path d="M183.26 373.743C183.298 373.743 183.336 373.741 183.373 373.738C184.035 373.681 184.554 373.126 184.554 372.449V370.404C184.554 369.69 183.975 369.111 183.26 369.111H181.215C180.539 369.111 179.983 369.63 179.926 370.292C179.923 370.329 179.921 370.366 179.921 370.404V371.563V372.562H178.708V370.404C178.708 370.366 178.707 370.329 178.703 370.292C178.646 369.63 178.091 369.111 177.415 369.111H175.369C174.655 369.111 174.075 369.69 174.075 370.404V372.449C174.075 373.126 174.595 373.681 175.256 373.738C175.293 373.741 175.331 373.743 175.369 373.743H177.527V374.957H175.369C175.331 374.957 175.293 374.958 175.256 374.961C174.595 375.019 174.075 375.574 174.075 376.25V378.296C174.075 379.01 174.655 379.589 175.369 379.589H177.415C178.091 379.589 178.646 379.07 178.703 378.408C178.707 378.371 178.708 378.334 178.708 378.296V376.137H179.921V378.296C179.921 378.334 179.923 378.371 179.926 378.408C179.983 379.07 180.539 379.589 181.215 379.589H183.26C183.975 379.589 184.554 379.01 184.554 378.296V376.25C184.554 375.574 184.035 375.019 183.373 374.961C183.336 374.958 183.298 374.957 183.26 374.957H181.102V373.743H183.26ZM181.102 371.563V370.404C181.102 370.342 181.153 370.292 181.215 370.292H183.26C183.323 370.292 183.373 370.342 183.373 370.404V372.449C183.373 372.512 183.323 372.562 183.26 372.562H181.102V371.563ZM175.369 372.562C175.307 372.562 175.256 372.512 175.256 372.449V370.404C175.256 370.342 175.307 370.292 175.369 370.292H177.415C177.477 370.292 177.527 370.342 177.527 370.404V372.562H175.369ZM177.527 378.296C177.527 378.358 177.477 378.408 177.415 378.408H175.369C175.307 378.408 175.256 378.358 175.256 378.296V376.25C175.256 376.188 175.307 376.137 175.369 376.137H177.527V378.296ZM183.26 376.137C183.323 376.137 183.373 376.188 183.373 376.25V378.296C183.373 378.358 183.323 378.408 183.26 378.408H181.215C181.153 378.408 181.102 378.358 181.102 378.296V376.137H183.26ZM179.921 374.957H178.708V373.743H179.921V374.957Z" fill="white"/>
<path d="M178.708 376.138V378.296C178.708 378.334 178.707 378.371 178.703 378.409H177.415C177.477 378.409 177.527 378.358 177.527 378.296V376.138H178.708Z" fill="white"/>
<path d="M178.709 371.295H177.528V374.957H178.709V371.295Z" fill="white"/>
<path d="M181.215 378.408H179.926C179.923 378.371 179.921 378.334 179.921 378.296V373.743H181.102V378.296C181.102 378.358 181.153 378.408 181.215 378.408Z" fill="white"/>
<path d="M183.373 372.449V373.738C183.336 373.741 183.299 373.743 183.261 373.743H178.708V372.562H183.261C183.323 372.562 183.373 372.512 183.373 372.449Z" fill="white"/>
<path d="M183.373 374.961V376.25C183.373 376.188 183.323 376.137 183.26 376.137H181.102V374.957H183.26C183.298 374.957 183.336 374.958 183.373 374.961Z" fill="white"/>
<path d="M179.922 374.957H176.942V376.137H179.922V374.957Z" fill="white"/>
<path d="M182.238 369.111H181.215C180.539 369.111 179.983 369.63 179.926 370.292C179.923 370.329 179.921 370.366 179.921 370.404V371.563V372.562H181.102V371.563V370.404C181.102 370.342 181.153 370.292 181.215 370.292H182.238V369.111Z" fill="white"/>
<path d="M175.256 372.449V370.409H174.075V372.449C174.075 373.126 174.595 373.681 175.256 373.738C175.293 373.741 175.331 373.743 175.369 373.743H177.527V372.562H175.369C175.307 372.562 175.256 372.512 175.256 372.449Z" fill="white"/>
<path d="M129.71 390.519C129.71 388.349 131.469 386.589 133.639 386.589H203.716C205.886 386.589 207.645 388.349 207.645 390.519V407.139C207.645 409.309 205.886 411.068 203.716 411.068H133.639C131.469 411.068 129.71 409.309 129.71 407.139V390.519Z" fill="white" fill-opacity="0.1"/>
<path d="M133.639 386.262C131.288 386.262 129.382 388.168 129.382 390.519V407.139C129.382 409.49 131.288 411.396 133.639 411.396H203.716C206.067 411.396 207.973 409.49 207.973 407.139V390.519C207.973 388.168 206.067 386.262 203.716 386.262H133.639Z" stroke="white" stroke-opacity="0.5" stroke-width="0.654922"/>
<path d="M142.429 396.043H139.357V397.868C139.485 397.697 139.675 397.553 139.926 397.437C140.182 397.321 140.454 397.263 140.742 397.263C141.255 397.263 141.671 397.373 141.989 397.593C142.312 397.813 142.542 398.091 142.676 398.427C142.817 398.763 142.887 399.118 142.887 399.491C142.887 399.943 142.798 400.346 142.621 400.701C142.45 401.049 142.19 401.324 141.842 401.526C141.499 401.728 141.078 401.829 140.576 401.829C139.91 401.829 139.375 401.664 138.972 401.334C138.569 401.004 138.327 400.566 138.248 400.022H139.265C139.333 400.31 139.482 400.539 139.715 400.71C139.947 400.875 140.237 400.958 140.586 400.958C141.02 400.958 141.344 400.826 141.558 400.563C141.778 400.301 141.888 399.952 141.888 399.518C141.888 399.078 141.778 398.742 141.558 398.51C141.338 398.271 141.014 398.152 140.586 398.152C140.286 398.152 140.032 398.228 139.825 398.381C139.623 398.528 139.476 398.73 139.385 398.986H138.394V395.126H142.429V396.043ZM143.975 398.4C143.975 397.342 144.152 396.517 144.507 395.924C144.868 395.325 145.485 395.025 146.359 395.025C147.233 395.025 147.847 395.325 148.202 395.924C148.563 396.517 148.743 397.342 148.743 398.4C148.743 399.469 148.563 400.307 148.202 400.912C147.847 401.511 147.233 401.81 146.359 401.81C145.485 401.81 144.868 401.511 144.507 400.912C144.152 400.307 143.975 399.469 143.975 398.4ZM147.716 398.4C147.716 397.904 147.682 397.486 147.615 397.143C147.554 396.801 147.426 396.523 147.23 396.309C147.035 396.089 146.744 395.979 146.359 395.979C145.974 395.979 145.684 396.089 145.488 396.309C145.292 396.523 145.161 396.801 145.094 397.143C145.033 397.486 145.002 397.904 145.002 398.4C145.002 398.913 145.033 399.344 145.094 399.692C145.155 400.041 145.283 400.322 145.479 400.536C145.681 400.75 145.974 400.857 146.359 400.857C146.744 400.857 147.035 400.75 147.23 400.536C147.432 400.322 147.563 400.041 147.624 399.692C147.685 399.344 147.716 398.913 147.716 398.4Z" fill="#F8FAFC"/>
<rect x="19.0281" y="430.716" width="195.167" height="26.1969" rx="5.23937" fill="url(#paint33_linear_1236_3626)"/>
<path d="M53.016 443.532C53.3766 443.599 53.6731 443.779 53.9054 444.073C54.1376 444.366 54.2538 444.702 54.2538 445.081C54.2538 445.424 54.1682 445.726 53.9971 445.989C53.832 446.246 53.5906 446.448 53.2727 446.594C52.9549 446.741 52.5789 446.814 52.1449 446.814H49.3851V440.414H52.0257C52.4597 440.414 52.8326 440.485 53.1443 440.625C53.4622 440.766 53.7006 440.962 53.8595 441.212C54.0246 441.463 54.1071 441.747 54.1071 442.065C54.1071 442.438 54.0062 442.749 53.8045 443C53.6089 443.251 53.3461 443.428 53.016 443.532ZM50.6687 443.055H51.8424C52.148 443.055 52.3833 442.988 52.5484 442.853C52.7134 442.713 52.7959 442.514 52.7959 442.257C52.7959 442.001 52.7134 441.802 52.5484 441.661C52.3833 441.521 52.148 441.451 51.8424 441.451H50.6687V443.055ZM51.9616 445.769C52.2733 445.769 52.5147 445.696 52.6859 445.549C52.8632 445.402 52.9518 445.194 52.9518 444.926C52.9518 444.65 52.8601 444.437 52.6767 444.284C52.4934 444.125 52.2458 444.045 51.9341 444.045H50.6687V445.769H51.9616ZM60.0722 441.735V446.814H58.7794V446.173C58.6143 446.393 58.3973 446.567 58.1284 446.695C57.8655 446.817 57.5782 446.879 57.2665 446.879C56.8692 446.879 56.5177 446.796 56.2121 446.631C55.9064 446.46 55.665 446.212 55.4877 445.888C55.3166 445.558 55.231 445.167 55.231 444.715V441.735H56.5146V444.531C56.5146 444.935 56.6155 445.246 56.8172 445.467C57.0189 445.68 57.294 445.787 57.6424 445.787C57.9969 445.787 58.2751 445.68 58.4768 445.467C58.6785 445.246 58.7794 444.935 58.7794 444.531V441.735H60.0722ZM66.1982 441.735L63.0533 449.217H61.6871L62.7874 446.686L60.7519 441.735H62.1914L63.5026 445.283L64.8321 441.735H66.1982Z" fill="white"/>
<path d="M78.557 443.207C78.5951 443.207 78.6328 443.206 78.6699 443.203C79.3315 443.145 79.8508 442.59 79.8508 441.914V439.869C79.8508 439.154 79.2715 438.575 78.557 438.575H76.5118C75.8353 438.575 75.28 439.094 75.2229 439.756C75.2196 439.793 75.218 439.831 75.218 439.869V441.027V442.027H74.0049V439.869C74.0049 439.831 74.0033 439.793 74 439.756C73.9429 439.094 73.3875 438.575 72.7111 438.575H70.6658C69.9514 438.575 69.3721 439.154 69.3721 439.869V441.914C69.3721 442.59 69.8913 443.145 70.553 443.203C70.5901 443.206 70.6278 443.207 70.6658 443.207H72.824V444.421H70.6658C70.6278 444.421 70.5901 444.423 70.553 444.426C69.8913 444.483 69.3721 445.038 69.3721 445.715V447.76C69.3721 448.474 69.9514 449.054 70.6658 449.054H72.7111C73.3875 449.054 73.9429 448.534 74 447.873C74.0033 447.836 74.0049 447.798 74.0049 447.76V445.602H75.218V447.76C75.218 447.798 75.2196 447.836 75.2229 447.873C75.28 448.534 75.8353 449.054 76.5118 449.054H78.557C79.2715 449.054 79.8508 448.474 79.8508 447.76V445.715C79.8508 445.038 79.3315 444.483 78.6699 444.426C78.6328 444.423 78.5951 444.421 78.557 444.421H76.3989V443.207H78.557ZM76.3989 441.027V439.869C76.3989 439.806 76.4498 439.756 76.5118 439.756H78.557C78.6194 439.756 78.6699 439.806 78.6699 439.869V441.914C78.6699 441.976 78.6194 442.027 78.557 442.027H76.3989V441.027ZM70.6658 442.027C70.6035 442.027 70.553 441.976 70.553 441.914V439.869C70.553 439.806 70.6035 439.756 70.6658 439.756H72.7111C72.7731 439.756 72.824 439.806 72.824 439.869V442.027H70.6658ZM72.824 447.76C72.824 447.822 72.7731 447.873 72.7111 447.873H70.6658C70.6035 447.873 70.553 447.822 70.553 447.76V445.715C70.553 445.652 70.6035 445.602 70.6658 445.602H72.824V447.76ZM78.557 445.602C78.6194 445.602 78.6699 445.652 78.6699 445.715V447.76C78.6699 447.822 78.6194 447.873 78.557 447.873H76.5118C76.4498 447.873 76.3989 447.822 76.3989 447.76V445.602H78.557ZM75.218 444.421H74.0049V443.207H75.218V444.421Z" fill="white"/>
<path d="M74.005 445.602V447.76C74.005 447.798 74.0033 447.836 74 447.873H72.7112C72.7732 447.873 72.824 447.822 72.824 447.76V445.602H74.005Z" fill="white"/>
<path d="M74.0051 440.759H72.8242V444.421H74.0051V440.759Z" fill="white"/>
<path d="M76.5113 447.873H75.2224C75.2192 447.836 75.2175 447.798 75.2175 447.76V443.207H76.3985V447.76C76.3985 447.822 76.4493 447.873 76.5113 447.873Z" fill="white"/>
<path d="M78.6701 441.914V443.202C78.633 443.206 78.5953 443.207 78.5573 443.207H74.0051V442.026H78.5573C78.6196 442.026 78.6701 441.976 78.6701 441.914Z" fill="white"/>
<path d="M78.6699 444.426V445.715C78.6699 445.652 78.6194 445.602 78.5571 445.602H76.3989V444.421H78.5571C78.5951 444.421 78.6328 444.423 78.6699 444.426Z" fill="white"/>
<path d="M75.2179 444.421H72.238V445.602H75.2179V444.421Z" fill="white"/>
<path d="M77.5338 438.575H76.5113C75.8349 438.575 75.2795 439.094 75.2224 439.756C75.2192 439.793 75.2175 439.831 75.2175 439.869V441.027V442.027H76.3985V441.027V439.869C76.3985 439.806 76.4493 439.756 76.5113 439.756H77.5338V438.575Z" fill="white"/>
<path d="M70.553 441.914V439.874H69.3721V441.914C69.3721 442.59 69.8913 443.145 70.553 443.202C70.5901 443.206 70.6278 443.207 70.6658 443.207H72.824V442.026H70.6658C70.6035 442.027 70.553 441.976 70.553 441.914Z" fill="white"/>
<path d="M82.9747 441.891C83.0053 441.279 83.2193 440.809 83.6166 440.479C84.02 440.142 84.5487 439.974 85.2028 439.974C85.649 439.974 86.0311 440.054 86.3489 440.213C86.6668 440.366 86.9052 440.576 87.0641 440.845C87.2291 441.108 87.3116 441.408 87.3116 441.744C87.3116 442.129 87.2108 442.456 87.0091 442.725C86.8135 442.988 86.5781 443.165 86.3031 443.257V443.293C86.6576 443.403 86.9327 443.599 87.1283 443.88C87.33 444.161 87.4308 444.522 87.4308 444.962C87.4308 445.329 87.3453 445.656 87.1741 445.943C87.0091 446.231 86.7615 446.457 86.4314 446.622C86.1075 446.781 85.7163 446.86 85.2578 446.86C84.5671 446.86 84.0047 446.686 83.5707 446.338C83.1367 445.989 82.9075 445.476 82.8831 444.797H84.13C84.1423 445.097 84.2431 445.338 84.4326 445.522C84.6282 445.699 84.8941 445.787 85.2303 445.787C85.542 445.787 85.7804 445.702 85.9455 445.531C86.1166 445.353 86.2022 445.127 86.2022 444.852C86.2022 444.485 86.0861 444.223 85.8538 444.064C85.6215 443.905 85.2609 443.825 84.7719 443.825H84.506V442.771H84.7719C85.6398 442.771 86.0738 442.48 86.0738 441.9C86.0738 441.637 85.9944 441.432 85.8354 441.285C85.6826 441.139 85.4595 441.065 85.1661 441.065C84.8788 441.065 84.6557 441.145 84.4968 441.304C84.344 441.457 84.2553 441.652 84.2309 441.891H82.9747ZM89.5638 443.275C88.9526 442.957 88.6469 442.465 88.6469 441.799C88.6469 441.469 88.7295 441.169 88.8945 440.9C89.0656 440.625 89.3193 440.408 89.6555 440.249C89.9978 440.084 90.4135 440.002 90.9025 440.002C91.3915 440.002 91.8041 440.084 92.1403 440.249C92.4826 440.408 92.7363 440.625 92.9013 440.9C93.0725 441.169 93.158 441.469 93.158 441.799C93.158 442.135 93.0755 442.432 92.9105 442.688C92.7454 442.939 92.5254 443.135 92.2503 443.275C92.5865 443.422 92.8493 443.636 93.0388 443.917C93.2283 444.198 93.3231 444.531 93.3231 444.916C93.3231 445.332 93.2161 445.696 93.0022 446.007C92.7943 446.313 92.507 446.548 92.1403 446.713C91.7735 446.879 91.3609 446.961 90.9025 446.961C90.444 446.961 90.0314 446.879 89.6647 446.713C89.304 446.548 89.0167 446.313 88.8028 446.007C88.595 445.696 88.4911 445.332 88.4911 444.916C88.4911 444.531 88.5858 444.198 88.7753 443.917C88.9648 443.63 89.2276 443.416 89.5638 443.275ZM91.9111 441.982C91.9111 441.683 91.8194 441.451 91.636 441.285C91.4587 441.12 91.2142 441.038 90.9025 441.038C90.5969 441.038 90.3524 441.12 90.169 441.285C89.9917 441.451 89.9031 441.686 89.9031 441.991C89.9031 442.267 89.9948 442.487 90.1781 442.652C90.3676 442.817 90.6091 442.899 90.9025 442.899C91.1959 442.899 91.4373 442.817 91.6268 442.652C91.8163 442.48 91.9111 442.257 91.9111 441.982ZM90.9025 443.834C90.5541 443.834 90.2698 443.923 90.0498 444.1C89.8358 444.278 89.7289 444.531 89.7289 444.861C89.7289 445.167 89.8328 445.418 90.0406 445.613C90.2545 445.803 90.5418 445.897 90.9025 445.897C91.2631 445.897 91.5474 445.8 91.7552 445.604C91.963 445.408 92.0669 445.161 92.0669 444.861C92.0669 444.537 91.96 444.287 91.746 444.11C91.5321 443.926 91.2509 443.834 90.9025 443.834ZM95.8865 445.467L94.8137 448.043H93.9885L94.5845 445.467H95.8865ZM96.61 445.512V444.504L99.6082 440.213H101.103V444.394H101.91V445.512H101.103V446.814H99.8191V445.512H96.61ZM99.9016 441.588L98.022 444.394H99.9016V441.588ZM106.193 441.799C106.132 441.542 106.025 441.35 105.872 441.221C105.725 441.093 105.511 441.029 105.23 441.029C104.808 441.029 104.496 441.2 104.295 441.542C104.099 441.878 103.998 442.429 103.992 443.193C104.139 442.948 104.353 442.759 104.634 442.624C104.915 442.484 105.221 442.413 105.551 442.413C105.948 442.413 106.3 442.499 106.605 442.67C106.911 442.841 107.149 443.092 107.32 443.422C107.492 443.746 107.577 444.137 107.577 444.595C107.577 445.029 107.489 445.418 107.311 445.76C107.14 446.096 106.886 446.359 106.55 446.548C106.214 446.738 105.814 446.833 105.349 446.833C104.713 446.833 104.212 446.692 103.845 446.411C103.485 446.13 103.231 445.739 103.084 445.237C102.944 444.73 102.874 444.106 102.874 443.367C102.874 442.248 103.066 441.405 103.451 440.836C103.836 440.262 104.445 439.974 105.276 439.974C105.918 439.974 106.416 440.149 106.77 440.497C107.125 440.845 107.33 441.279 107.385 441.799H106.193ZM105.257 443.468C104.934 443.468 104.662 443.562 104.441 443.752C104.221 443.941 104.111 444.216 104.111 444.577C104.111 444.938 104.212 445.222 104.414 445.43C104.622 445.638 104.912 445.742 105.285 445.742C105.615 445.742 105.875 445.641 106.064 445.439C106.26 445.237 106.358 444.965 106.358 444.623C106.358 444.268 106.263 443.987 106.074 443.779C105.89 443.572 105.618 443.468 105.257 443.468ZM110.593 444.275C110.593 443.749 110.7 443.29 110.914 442.899C111.128 442.502 111.424 442.196 111.803 441.982C112.182 441.762 112.616 441.652 113.105 441.652C113.735 441.652 114.255 441.811 114.664 442.129C115.08 442.441 115.358 442.881 115.499 443.449H114.114C114.041 443.229 113.915 443.058 113.738 442.936C113.567 442.808 113.353 442.743 113.096 442.743C112.729 442.743 112.439 442.878 112.225 443.147C112.011 443.41 111.904 443.786 111.904 444.275C111.904 444.757 112.011 445.133 112.225 445.402C112.439 445.665 112.729 445.797 113.096 445.797C113.616 445.797 113.955 445.564 114.114 445.1H115.499C115.358 445.65 115.08 446.087 114.664 446.411C114.248 446.735 113.729 446.897 113.105 446.897C112.616 446.897 112.182 446.79 111.803 446.576C111.424 446.356 111.128 446.05 110.914 445.659C110.7 445.262 110.593 444.8 110.593 444.275ZM118.694 446.897C118.205 446.897 117.765 446.79 117.374 446.576C116.983 446.356 116.674 446.047 116.448 445.65C116.228 445.253 116.118 444.794 116.118 444.275C116.118 443.755 116.231 443.297 116.457 442.899C116.69 442.502 117.004 442.196 117.402 441.982C117.799 441.762 118.242 441.652 118.731 441.652C119.22 441.652 119.663 441.762 120.061 441.982C120.458 442.196 120.77 442.502 120.996 442.899C121.228 443.297 121.344 443.755 121.344 444.275C121.344 444.794 121.225 445.253 120.987 445.65C120.754 446.047 120.437 446.356 120.033 446.576C119.636 446.79 119.19 446.897 118.694 446.897ZM118.694 445.778C118.927 445.778 119.144 445.723 119.345 445.613C119.553 445.497 119.718 445.326 119.841 445.1C119.963 444.874 120.024 444.599 120.024 444.275C120.024 443.792 119.896 443.422 119.639 443.165C119.388 442.902 119.08 442.771 118.713 442.771C118.346 442.771 118.037 442.902 117.787 443.165C117.542 443.422 117.42 443.792 117.42 444.275C117.42 444.757 117.539 445.13 117.778 445.393C118.022 445.65 118.328 445.778 118.694 445.778ZM122.937 441.13C122.711 441.13 122.521 441.059 122.368 440.919C122.222 440.772 122.148 440.592 122.148 440.378C122.148 440.164 122.222 439.987 122.368 439.846C122.521 439.699 122.711 439.626 122.937 439.626C123.163 439.626 123.349 439.699 123.496 439.846C123.649 439.987 123.725 440.164 123.725 440.378C123.725 440.592 123.649 440.772 123.496 440.919C123.349 441.059 123.163 441.13 122.937 441.13ZM123.57 441.735V446.814H122.286V441.735H123.57ZM127.653 441.661C128.258 441.661 128.747 441.854 129.12 442.239C129.492 442.618 129.679 443.15 129.679 443.834V446.814H128.395V444.009C128.395 443.605 128.294 443.297 128.093 443.083C127.891 442.863 127.616 442.753 127.268 442.753C126.913 442.753 126.632 442.863 126.424 443.083C126.222 443.297 126.121 443.605 126.121 444.009V446.814H124.838V441.735H126.121V442.367C126.293 442.147 126.51 441.976 126.772 441.854C127.041 441.726 127.335 441.661 127.653 441.661ZM132.843 446.897C132.428 446.897 132.055 446.823 131.725 446.677C131.395 446.524 131.132 446.319 130.936 446.062C130.747 445.806 130.643 445.522 130.625 445.21H131.917C131.942 445.405 132.037 445.567 132.202 445.696C132.373 445.824 132.584 445.888 132.834 445.888C133.079 445.888 133.268 445.839 133.403 445.742C133.543 445.644 133.614 445.518 133.614 445.366C133.614 445.201 133.528 445.078 133.357 444.999C133.192 444.913 132.926 444.822 132.559 444.724C132.18 444.632 131.868 444.537 131.624 444.44C131.386 444.342 131.178 444.192 131 443.99C130.829 443.789 130.744 443.517 130.744 443.174C130.744 442.893 130.823 442.636 130.982 442.404C131.147 442.172 131.379 441.988 131.679 441.854C131.985 441.719 132.342 441.652 132.752 441.652C133.357 441.652 133.84 441.805 134.2 442.111C134.561 442.41 134.76 442.817 134.796 443.33H133.568C133.549 443.128 133.464 442.97 133.311 442.853C133.164 442.731 132.966 442.67 132.715 442.67C132.483 442.67 132.302 442.713 132.174 442.798C132.052 442.884 131.991 443.003 131.991 443.156C131.991 443.327 132.076 443.459 132.247 443.55C132.419 443.636 132.684 443.724 133.045 443.816C133.412 443.908 133.714 444.003 133.953 444.1C134.191 444.198 134.396 444.351 134.567 444.559C134.744 444.76 134.836 445.029 134.842 445.366C134.842 445.659 134.76 445.922 134.595 446.154C134.436 446.386 134.203 446.57 133.898 446.704C133.598 446.833 133.247 446.897 132.843 446.897ZM140.41 442.789H139.52V446.814H138.218V442.789H137.641V441.735H138.218V441.478C138.218 440.855 138.396 440.396 138.75 440.103C139.105 439.809 139.639 439.672 140.355 439.69V440.772C140.043 440.766 139.826 440.818 139.704 440.928C139.581 441.038 139.52 441.237 139.52 441.524V441.735H140.41V442.789ZM143.497 446.897C143.008 446.897 142.568 446.79 142.177 446.576C141.786 446.356 141.477 446.047 141.251 445.65C141.031 445.253 140.921 444.794 140.921 444.275C140.921 443.755 141.034 443.297 141.26 442.899C141.492 442.502 141.807 442.196 142.204 441.982C142.602 441.762 143.045 441.652 143.534 441.652C144.023 441.652 144.466 441.762 144.863 441.982C145.261 442.196 145.572 442.502 145.798 442.899C146.031 443.297 146.147 443.755 146.147 444.275C146.147 444.794 146.028 445.253 145.789 445.65C145.557 446.047 145.239 446.356 144.836 446.576C144.438 446.79 143.992 446.897 143.497 446.897ZM143.497 445.778C143.729 445.778 143.946 445.723 144.148 445.613C144.356 445.497 144.521 445.326 144.643 445.1C144.765 444.874 144.827 444.599 144.827 444.275C144.827 443.792 144.698 443.422 144.441 443.165C144.191 442.902 143.882 442.771 143.515 442.771C143.149 442.771 142.84 442.902 142.589 443.165C142.345 443.422 142.223 443.792 142.223 444.275C142.223 444.757 142.342 445.13 142.58 445.393C142.825 445.65 143.13 445.778 143.497 445.778ZM148.372 442.523C148.537 442.254 148.751 442.043 149.014 441.891C149.283 441.738 149.589 441.661 149.931 441.661V443.009H149.592C149.188 443.009 148.883 443.104 148.675 443.293C148.473 443.483 148.372 443.813 148.372 444.284V446.814H147.088V441.735H148.372V442.523ZM157.546 444.971C157.546 445.289 157.464 445.589 157.299 445.87C157.14 446.145 156.901 446.374 156.584 446.558C156.272 446.735 155.902 446.839 155.474 446.869V447.612H154.887V446.86C154.276 446.805 153.784 446.622 153.411 446.31C153.038 445.992 152.846 445.564 152.833 445.026H154.209C154.246 445.467 154.472 445.732 154.887 445.824V444.073C154.447 443.963 154.093 443.853 153.824 443.743C153.555 443.633 153.323 443.455 153.127 443.211C152.931 442.966 152.833 442.633 152.833 442.212C152.833 441.68 153.023 441.246 153.402 440.91C153.787 440.573 154.282 440.381 154.887 440.332V439.589H155.474V440.332C156.061 440.381 156.529 440.558 156.877 440.864C157.232 441.169 157.43 441.591 157.473 442.129H156.088C156.07 441.952 156.006 441.799 155.896 441.671C155.792 441.536 155.651 441.441 155.474 441.386V443.119C155.933 443.235 156.293 443.348 156.556 443.459C156.825 443.562 157.057 443.737 157.253 443.981C157.449 444.22 157.546 444.55 157.546 444.971ZM154.172 442.147C154.172 442.349 154.233 442.514 154.356 442.642C154.478 442.765 154.655 442.866 154.887 442.945V441.359C154.667 441.389 154.493 441.472 154.365 441.606C154.236 441.741 154.172 441.921 154.172 442.147ZM155.474 445.842C155.706 445.8 155.887 445.705 156.015 445.558C156.15 445.411 156.217 445.234 156.217 445.026C156.217 444.825 156.153 444.663 156.024 444.54C155.896 444.418 155.713 444.317 155.474 444.238V445.842ZM163.325 441.24H160.355V442.808C160.483 442.649 160.666 442.52 160.905 442.422C161.143 442.319 161.397 442.267 161.666 442.267C162.155 442.267 162.555 442.374 162.867 442.587C163.179 442.801 163.405 443.076 163.546 443.413C163.686 443.743 163.756 444.097 163.756 444.476C163.756 445.179 163.555 445.745 163.151 446.173C162.754 446.6 162.185 446.814 161.446 446.814C160.749 446.814 160.193 446.64 159.777 446.292C159.361 445.943 159.126 445.488 159.071 444.926H160.318C160.373 445.17 160.495 445.366 160.685 445.512C160.88 445.659 161.128 445.732 161.427 445.732C161.788 445.732 162.06 445.619 162.244 445.393C162.427 445.167 162.519 444.867 162.519 444.495C162.519 444.116 162.424 443.828 162.234 443.633C162.051 443.431 161.779 443.33 161.418 443.33C161.162 443.33 160.948 443.394 160.776 443.523C160.605 443.651 160.483 443.822 160.41 444.036H159.181V440.112H163.325V441.24ZM164.733 443.385C164.733 442.328 164.923 441.499 165.302 440.9C165.687 440.301 166.323 440.002 167.209 440.002C168.095 440.002 168.728 440.301 169.107 440.9C169.492 441.499 169.685 442.328 169.685 443.385C169.685 444.449 169.492 445.283 169.107 445.888C168.728 446.493 168.095 446.796 167.209 446.796C166.323 446.796 165.687 446.493 165.302 445.888C164.923 445.283 164.733 444.449 164.733 443.385ZM168.419 443.385C168.419 442.933 168.389 442.554 168.328 442.248C168.273 441.936 168.156 441.683 167.979 441.487C167.808 441.292 167.551 441.194 167.209 441.194C166.867 441.194 166.607 441.292 166.43 441.487C166.258 441.683 166.142 441.936 166.081 442.248C166.026 442.554 165.999 442.933 165.999 443.385C165.999 443.85 166.026 444.241 166.081 444.559C166.136 444.871 166.252 445.124 166.43 445.32C166.607 445.509 166.867 445.604 167.209 445.604C167.551 445.604 167.811 445.509 167.988 445.32C168.166 445.124 168.282 444.871 168.337 444.559C168.392 444.241 168.419 443.85 168.419 443.385ZM171.376 446.879C171.144 446.879 170.951 446.808 170.798 446.668C170.652 446.521 170.578 446.341 170.578 446.127C170.578 445.913 170.652 445.735 170.798 445.595C170.951 445.448 171.144 445.375 171.376 445.375C171.602 445.375 171.789 445.448 171.935 445.595C172.082 445.735 172.155 445.913 172.155 446.127C172.155 446.341 172.082 446.521 171.935 446.668C171.789 446.808 171.602 446.879 171.376 446.879ZM173.043 443.385C173.043 442.328 173.232 441.499 173.611 440.9C173.996 440.301 174.632 440.002 175.518 440.002C176.405 440.002 177.037 440.301 177.416 440.9C177.801 441.499 177.994 442.328 177.994 443.385C177.994 444.449 177.801 445.283 177.416 445.888C177.037 446.493 176.405 446.796 175.518 446.796C174.632 446.796 173.996 446.493 173.611 445.888C173.232 445.283 173.043 444.449 173.043 443.385ZM176.729 443.385C176.729 442.933 176.698 442.554 176.637 442.248C176.582 441.936 176.466 441.683 176.288 441.487C176.117 441.292 175.861 441.194 175.518 441.194C175.176 441.194 174.916 441.292 174.739 441.487C174.568 441.683 174.452 441.936 174.391 442.248C174.336 442.554 174.308 442.933 174.308 443.385C174.308 443.85 174.336 444.241 174.391 444.559C174.446 444.871 174.562 445.124 174.739 445.32C174.916 445.509 175.176 445.604 175.518 445.604C175.861 445.604 176.12 445.509 176.298 445.32C176.475 445.124 176.591 444.871 176.646 444.559C176.701 444.241 176.729 443.85 176.729 443.385ZM178.97 443.385C178.97 442.328 179.16 441.499 179.539 440.9C179.924 440.301 180.56 440.002 181.446 440.002C182.332 440.002 182.965 440.301 183.344 440.9C183.729 441.499 183.921 442.328 183.921 443.385C183.921 444.449 183.729 445.283 183.344 445.888C182.965 446.493 182.332 446.796 181.446 446.796C180.56 446.796 179.924 446.493 179.539 445.888C179.16 445.283 178.97 444.449 178.97 443.385ZM182.656 443.385C182.656 442.933 182.626 442.554 182.564 442.248C182.509 441.936 182.393 441.683 182.216 441.487C182.045 441.292 181.788 441.194 181.446 441.194C181.104 441.194 180.844 441.292 180.666 441.487C180.495 441.683 180.379 441.936 180.318 442.248C180.263 442.554 180.236 442.933 180.236 443.385C180.236 443.85 180.263 444.241 180.318 444.559C180.373 444.871 180.489 445.124 180.666 445.32C180.844 445.509 181.104 445.604 181.446 445.604C181.788 445.604 182.048 445.509 182.225 445.32C182.402 445.124 182.519 444.871 182.574 444.559C182.629 444.241 182.656 443.85 182.656 443.385Z" fill="white"/>
</g>
<path d="M234.493 387C234.493 388.929 232.929 390.493 231 390.493C229.071 390.493 227.507 388.929 227.507 387C227.507 385.071 229.071 383.507 231 383.507C232.929 383.507 234.493 385.071 234.493 387ZM306.655 266V367.352H305.345V266H306.655ZM286.352 387.655H231V386.345H286.352V387.655ZM306.655 367.352C306.655 378.565 297.565 387.655 286.352 387.655V386.345C296.842 386.345 305.345 377.842 305.345 367.352H306.655Z" fill="#FBBE7E"/>
<rect x="286.252" y="307.821" width="37.3305" height="37.3305" rx="18.6653" fill="#FBBE7E"/>
<path d="M297.845 326.592L302.485 330.91L311.62 321.997" stroke="#000223" stroke-width="1.86653" stroke-miterlimit="10"/>
<defs>
<filter id="filter0_d_1236_3626" x="0.690156" y="176.345" width="231.842" height="303.49" filterUnits="userSpaceOnUse" color-interpolation-filters="sRGB">
<feFlood flood-opacity="0" result="BackgroundImageFix"/>
<feColorMatrix in="SourceAlpha" type="matrix" values="0 0 0 0 0 0 0 0 0 0 0 0 0 0 0 0 0 0 127 0" result="hardAlpha"/>
<feOffset dy="0.654922"/>
<feGaussianBlur stdDeviation="0.654922"/>
<feComposite in2="hardAlpha" operator="out"/>
<feColorMatrix type="matrix" values="0 0 0 0 0 0 0 0 0 0 0 0 0 0 0 0 0 0 0.05 0"/>
<feBlend mode="normal" in2="BackgroundImageFix" result="effect1_dropShadow_1236_3626"/>
<feBlend mode="normal" in="SourceGraphic" in2="effect1_dropShadow_1236_3626" result="shape"/>
</filter>
<linearGradient id="paint0_linear_1236_3626" x1="242.981" y1="41.2601" x2="269.244" y2="99.6639" gradientUnits="userSpaceOnUse">
<stop stop-color="#F56C8F"/>
<stop offset="1" stop-color="#EF7271"/>
</linearGradient>
<linearGradient id="paint1_linear_1236_3626" x1="255.37" y1="59.7001" x2="258.87" y2="48.0831" gradientUnits="userSpaceOnUse">
<stop stop-color="#FF6E75"/>
<stop offset="1" stop-color="#FBBE7E"/>
</linearGradient>
<linearGradient id="paint2_linear_1236_3626" x1="253.111" y1="58.5496" x2="254.246" y2="56.4036" gradientUnits="userSpaceOnUse">
<stop stop-color="#FF6E75"/>
<stop offset="1" stop-color="#FBBE7E"/>
</linearGradient>
<linearGradient id="paint3_linear_1236_3626" x1="253.156" y1="55.0924" x2="255.364" y2="52.728" gradientUnits="userSpaceOnUse">
<stop stop-color="#FF6E75"/>
<stop offset="1" stop-color="#FBBE7E"/>
</linearGradient>
<linearGradient id="paint4_linear_1236_3626" x1="255.618" y1="58.5405" x2="258.429" y2="55.953" gradientUnits="userSpaceOnUse">
<stop stop-color="#FF6E75"/>
<stop offset="1" stop-color="#FBBE7E"/>
</linearGradient>
<linearGradient id="paint5_linear_1236_3626" x1="256.46" y1="53.8875" x2="256.59" y2="52.3339" gradientUnits="userSpaceOnUse">
<stop stop-color="#FF6E75"/>
<stop offset="1" stop-color="#FBBE7E"/>
</linearGradient>
<linearGradient id="paint6_linear_1236_3626" x1="257.395" y1="56.395" x2="257.655" y2="54.8752" gradientUnits="userSpaceOnUse">
<stop stop-color="#FF6E75"/>
<stop offset="1" stop-color="#FBBE7E"/>
</linearGradient>
<linearGradient id="paint7_linear_1236_3626" x1="253.666" y1="56.2825" x2="253.834" y2="54.8746" gradientUnits="userSpaceOnUse">
<stop stop-color="#FF6E75"/>
<stop offset="1" stop-color="#FBBE7E"/>
</linearGradient>
<linearGradient id="paint8_linear_1236_3626" x1="256.241" y1="52.6989" x2="257.801" y2="49.2252" gradientUnits="userSpaceOnUse">
<stop stop-color="#FF6E75"/>
<stop offset="1" stop-color="#FBBE7E"/>
</linearGradient>
<linearGradient id="paint9_linear_1236_3626" x1="251.087" y1="53.8799" x2="252.169" y2="50.1635" gradientUnits="userSpaceOnUse">
<stop stop-color="#FF6E75"/>
<stop offset="1" stop-color="#FBBE7E"/>
</linearGradient>
<radialGradient id="paint10_radial_1236_3626" cx="0" cy="0" r="1" gradientUnits="userSpaceOnUse" gradientTransform="translate(148.605 81.3572) rotate(56.234) scale(220.709 154.934)">
<stop stop-color="#FBBE7E"/>
<stop offset="1" stop-color="#FF6E75" stop-opacity="0"/>
</radialGradient>
<linearGradient id="paint11_linear_1236_3626" x1="232.594" y1="277.162" x2="289.345" y2="14.9433" gradientUnits="userSpaceOnUse">
<stop stop-color="#FF6E75"/>
<stop offset="1" stop-color="#FBBE7E"/>
</linearGradient>
<linearGradient id="paint12_linear_1236_3626" x1="141.706" y1="406.557" x2="-60.142" y2="174.703" gradientUnits="userSpaceOnUse">
<stop offset="0.22549" stop-color="#FF6E75" stop-opacity="0"/>
<stop offset="1" stop-color="#FBBE7E"/>
</linearGradient>
<linearGradient id="paint13_linear_1236_3626" x1="141.706" y1="476.759" x2="266.126" y2="162.133" gradientUnits="userSpaceOnUse">
<stop stop-color="#FF6E75"/>
<stop offset="1" stop-color="#FBBE7E"/>
</linearGradient>
<linearGradient id="paint14_linear_1236_3626" x1="97.1418" y1="213.829" x2="102.392" y2="196.404" gradientUnits="userSpaceOnUse">
<stop stop-color="#FF6E75"/>
<stop offset="1" stop-color="#FBBE7E"/>
</linearGradient>
<linearGradient id="paint15_linear_1236_3626" x1="93.7531" y1="212.104" x2="95.4555" y2="208.885" gradientUnits="userSpaceOnUse">
<stop stop-color="#FF6E75"/>
<stop offset="1" stop-color="#FBBE7E"/>
</linearGradient>
<linearGradient id="paint16_linear_1236_3626" x1="93.8196" y1="206.918" x2="97.133" y2="203.371" gradientUnits="userSpaceOnUse">
<stop stop-color="#FF6E75"/>
<stop offset="1" stop-color="#FBBE7E"/>
</linearGradient>
<linearGradient id="paint17_linear_1236_3626" x1="97.5133" y1="212.09" x2="101.73" y2="208.209" gradientUnits="userSpaceOnUse">
<stop stop-color="#FF6E75"/>
<stop offset="1" stop-color="#FBBE7E"/>
</linearGradient>
<linearGradient id="paint18_linear_1236_3626" x1="98.7763" y1="205.11" x2="98.971" y2="202.78" gradientUnits="userSpaceOnUse">
<stop stop-color="#FF6E75"/>
<stop offset="1" stop-color="#FBBE7E"/>
</linearGradient>
<linearGradient id="paint19_linear_1236_3626" x1="100.178" y1="208.871" x2="100.569" y2="206.592" gradientUnits="userSpaceOnUse">
<stop stop-color="#FF6E75"/>
<stop offset="1" stop-color="#FBBE7E"/>
</linearGradient>
<linearGradient id="paint20_linear_1236_3626" x1="94.5853" y1="208.703" x2="94.8375" y2="206.591" gradientUnits="userSpaceOnUse">
<stop stop-color="#FF6E75"/>
<stop offset="1" stop-color="#FBBE7E"/>
</linearGradient>
<linearGradient id="paint21_linear_1236_3626" x1="98.4481" y1="203.327" x2="100.787" y2="198.117" gradientUnits="userSpaceOnUse">
<stop stop-color="#FF6E75"/>
<stop offset="1" stop-color="#FBBE7E"/>
</linearGradient>
<linearGradient id="paint22_linear_1236_3626" x1="90.7178" y1="205.099" x2="92.3397" y2="199.524" gradientUnits="userSpaceOnUse">
<stop stop-color="#FF6E75"/>
<stop offset="1" stop-color="#FBBE7E"/>
</linearGradient>
<linearGradient id="paint23_linear_1236_3626" x1="127.366" y1="338.171" x2="160.178" y2="229.261" gradientUnits="userSpaceOnUse">
<stop stop-color="#FF6E75"/>
<stop offset="1" stop-color="#FBBE7E"/>
</linearGradient>
<linearGradient id="paint24_linear_1236_3626" x1="113.164" y1="275.372" x2="110.47" y2="284.771" gradientUnits="userSpaceOnUse">
<stop stop-color="#F2C087"/>
<stop offset="0.9999" stop-color="#FF6E75"/>
<stop offset="1" stop-color="#FF6E75"/>
</linearGradient>
<linearGradient id="paint25_linear_1236_3626" x1="109.266" y1="281.834" x2="108.381" y2="283.593" gradientUnits="userSpaceOnUse">
<stop stop-color="#F2C087"/>
<stop offset="0.9999" stop-color="#FF6E75"/>
<stop offset="1" stop-color="#FF6E75"/>
</linearGradient>
<linearGradient id="paint26_linear_1236_3626" x1="109.312" y1="275.946" x2="107.547" y2="277.931" gradientUnits="userSpaceOnUse">
<stop stop-color="#F2C087"/>
<stop offset="0.9999" stop-color="#FF6E75"/>
<stop offset="1" stop-color="#FF6E75"/>
</linearGradient>
<linearGradient id="paint27_linear_1236_3626" x1="112.556" y1="279.497" x2="110.294" y2="281.686" gradientUnits="userSpaceOnUse">
<stop stop-color="#F2C087"/>
<stop offset="0.9999" stop-color="#FF6E75"/>
<stop offset="1" stop-color="#FF6E75"/>
</linearGradient>
<linearGradient id="paint28_linear_1236_3626" x1="114.003" y1="276.665" x2="113.904" y2="277.913" gradientUnits="userSpaceOnUse">
<stop stop-color="#F2C087"/>
<stop offset="0.9999" stop-color="#FF6E75"/>
<stop offset="1" stop-color="#FF6E75"/>
</linearGradient>
<linearGradient id="paint29_linear_1236_3626" x1="114.987" y1="279.955" x2="114.787" y2="281.178" gradientUnits="userSpaceOnUse">
<stop stop-color="#F2C087"/>
<stop offset="0.9999" stop-color="#FF6E75"/>
<stop offset="1" stop-color="#FF6E75"/>
</linearGradient>
<linearGradient id="paint30_linear_1236_3626" x1="110.165" y1="279.917" x2="110.037" y2="281.049" gradientUnits="userSpaceOnUse">
<stop stop-color="#F2C087"/>
<stop offset="0.9999" stop-color="#FF6E75"/>
<stop offset="1" stop-color="#FF6E75"/>
</linearGradient>
<linearGradient id="paint31_linear_1236_3626" x1="113.478" y1="273.009" x2="112.268" y2="275.842" gradientUnits="userSpaceOnUse">
<stop stop-color="#F2C087"/>
<stop offset="0.9999" stop-color="#FF6E75"/>
<stop offset="1" stop-color="#FF6E75"/>
</linearGradient>
<linearGradient id="paint32_linear_1236_3626" x1="106.829" y1="274.673" x2="105.997" y2="277.679" gradientUnits="userSpaceOnUse">
<stop stop-color="#F2C087"/>
<stop offset="0.9999" stop-color="#FF6E75"/>
<stop offset="1" stop-color="#FF6E75"/>
</linearGradient>
<linearGradient id="paint33_linear_1236_3626" x1="137.977" y1="456.816" x2="139.256" y2="425.189" gradientUnits="userSpaceOnUse">
<stop stop-color="#FF6E75"/>
<stop offset="1" stop-color="#FBBE7E"/>
</linearGradient>
<clipPath id="clip0_1236_3626">
<path d="M67 10.4787C67 4.69149 71.6915 0 77.4787 0H339.521C345.309 0 350 4.6915 350 10.4787V255.521C350 261.309 345.309 266 339.521 266H77.4788C71.6915 266 67 261.309 67 255.521V10.4787Z" fill="white"/>
</clipPath>
</defs>
</svg>
