<svg width="536" height="397" viewBox="0 0 536 397" fill="none" xmlns="http://www.w3.org/2000/svg">
<ellipse cx="510.268" cy="155.326" rx="24.7422" ry="24.0549" fill="#FBBE7E"/>
<g clip-path="url(#clip0_1219_10800)">
<path d="M162.503 10.9965C162.503 4.92332 167.427 0 173.5 0H496.523C502.596 0 507.519 4.92331 507.519 10.9965V268.04C507.519 274.113 502.596 279.037 496.523 279.037H173.5C167.427 279.037 162.503 274.113 162.503 268.04V10.9965Z" fill="#000223"/>
<g opacity="0.1">
<path d="M162.503 1L162.503 404" stroke="white"/>
<path d="M225.253 1L225.253 404" stroke="white"/>
<path d="M288.003 1L288.003 404" stroke="white"/>
<path d="M350.753 1L350.753 404" stroke="white"/>
<path d="M413.503 1L413.503 404" stroke="white"/>
<path d="M476.253 1L476.253 404" stroke="white"/>
</g>
<path d="M196.676 26.3691V35.3486C196.676 36.7388 196.282 37.8096 195.493 38.561C194.716 39.3124 193.664 39.6881 192.337 39.6881C190.946 39.6881 189.832 39.2936 188.993 38.5046C188.154 37.7156 187.734 36.5948 187.734 35.142H190.928C190.928 35.693 191.04 36.1126 191.266 36.4006C191.491 36.6762 191.817 36.8139 192.243 36.8139C192.631 36.8139 192.931 36.6887 193.144 36.4382C193.357 36.1877 193.464 35.8245 193.464 35.3486V26.3691H196.676ZM211.651 26.3691L206.973 39.5566H202.953L198.275 26.3691H201.694L204.963 36.3255L208.25 26.3691H211.651ZM217.765 39.6881C216.8 39.6881 215.936 39.5316 215.172 39.2185C214.408 38.9054 213.795 38.442 213.331 37.8284C212.881 37.2147 212.643 36.4758 212.618 35.6116H216.037C216.087 36.1001 216.256 36.4758 216.544 36.7388C216.832 36.9893 217.207 37.1145 217.671 37.1145C218.147 37.1145 218.522 37.008 218.798 36.7951C219.074 36.5697 219.211 36.2629 219.211 35.8746C219.211 35.549 219.099 35.2798 218.873 35.0669C218.66 34.854 218.391 34.6786 218.065 34.5409C217.752 34.4031 217.301 34.2465 216.713 34.0712C215.861 33.8082 215.166 33.5452 214.628 33.2822C214.089 33.0192 213.626 32.631 213.237 32.1175C212.849 31.604 212.655 30.934 212.655 30.1074C212.655 28.8801 213.1 27.922 213.989 27.2332C214.878 26.5319 216.037 26.1812 217.464 26.1812C218.917 26.1812 220.088 26.5319 220.977 27.2332C221.866 27.922 222.342 28.8864 222.405 30.1262H218.93C218.904 29.7004 218.748 29.3685 218.46 29.1306C218.172 28.8801 217.802 28.7549 217.352 28.7549C216.963 28.7549 216.65 28.8613 216.412 29.0742C216.174 29.2746 216.055 29.5689 216.055 29.9571C216.055 30.383 216.256 30.7148 216.656 30.9528C217.057 31.1907 217.683 31.4475 218.535 31.723C219.387 32.011 220.075 32.2866 220.601 32.5496C221.14 32.8126 221.603 33.1945 221.992 33.6955C222.38 34.1965 222.574 34.8414 222.574 35.6304C222.574 36.3819 222.38 37.0644 221.992 37.6781C221.616 38.2917 221.065 38.7802 220.338 39.1434C219.612 39.5065 218.754 39.6881 217.765 39.6881ZM308.662 30.6146C308.662 31.3786 308.486 32.0799 308.136 32.7186C307.785 33.3448 307.246 33.852 306.52 34.2403C305.794 34.6285 304.892 34.8226 303.815 34.8226H301.824V39.5566H298.611V26.3691H303.815C304.867 26.3691 305.756 26.5507 306.483 26.9139C307.209 27.277 307.754 27.778 308.117 28.4167C308.48 29.0554 308.662 29.7881 308.662 30.6146ZM303.571 32.2678C304.184 32.2678 304.642 32.1238 304.942 31.8357C305.243 31.5477 305.393 31.1406 305.393 30.6146C305.393 30.0886 305.243 29.6816 304.942 29.3936C304.642 29.1055 304.184 28.9615 303.571 28.9615H301.824V32.2678H303.571ZM313.546 30.8213C313.922 30.2452 314.392 29.7943 314.955 29.4687C315.519 29.1306 316.145 28.9615 316.834 28.9615V32.3617H315.951C315.149 32.3617 314.548 32.537 314.148 32.8877C313.747 33.2259 313.546 33.827 313.546 34.6911V39.5566H310.334V29.0742H313.546V30.8213ZM319.985 27.9846C319.421 27.9846 318.958 27.8218 318.595 27.4962C318.244 27.1581 318.069 26.7448 318.069 26.2564C318.069 25.7554 318.244 25.3421 318.595 25.0165C318.958 24.6784 319.421 24.5093 319.985 24.5093C320.536 24.5093 320.987 24.6784 321.337 25.0165C321.701 25.3421 321.882 25.7554 321.882 26.2564C321.882 26.7448 321.701 27.1581 321.337 27.4962C320.987 27.8218 320.536 27.9846 319.985 27.9846ZM321.582 29.0742V39.5566H318.369V29.0742H321.582ZM323.271 34.3154C323.271 33.2259 323.49 32.274 323.928 31.46C324.379 30.646 324.999 30.0198 325.788 29.5814C326.59 29.1431 327.504 28.9239 328.531 28.9239C329.846 28.9239 330.942 29.2683 331.818 29.9571C332.708 30.646 333.29 31.6165 333.566 32.8689H330.147C329.858 32.0674 329.301 31.6666 328.475 31.6666C327.886 31.6666 327.416 31.8983 327.066 32.3617C326.715 32.8126 326.54 33.4638 326.54 34.3154C326.54 35.167 326.715 35.8245 327.066 36.2879C327.416 36.7388 327.886 36.9642 328.475 36.9642C329.301 36.9642 329.858 36.5635 330.147 35.7619H333.566C333.29 36.9893 332.708 37.9536 331.818 38.6549C330.929 39.3563 329.833 39.7069 328.531 39.7069C327.504 39.7069 326.59 39.4878 325.788 39.0494C324.999 38.6111 324.379 37.9849 323.928 37.1709C323.49 36.3568 323.271 35.405 323.271 34.3154ZM345.165 34.1464C345.165 34.4469 345.146 34.76 345.109 35.0856H337.839C337.889 35.7369 338.095 36.2378 338.459 36.5885C338.834 36.9266 339.291 37.0957 339.83 37.0957C340.631 37.0957 341.189 36.7576 341.502 36.0813H344.921C344.746 36.7701 344.426 37.39 343.963 37.9411C343.512 38.4921 342.942 38.9242 342.253 39.2373C341.564 39.5504 340.794 39.7069 339.943 39.7069C338.916 39.7069 338.001 39.4878 337.2 39.0494C336.398 38.6111 335.772 37.9849 335.321 37.1709C334.871 36.3568 334.645 35.405 334.645 34.3154C334.645 33.2259 334.864 32.274 335.303 31.46C335.753 30.646 336.38 30.0198 337.181 29.5814C337.983 29.1431 338.903 28.9239 339.943 28.9239C340.957 28.9239 341.859 29.1368 342.648 29.5626C343.437 29.9885 344.05 30.5959 344.489 31.3849C344.94 32.1739 345.165 33.0944 345.165 34.1464ZM341.878 33.301C341.878 32.75 341.69 32.3116 341.314 31.986C340.938 31.6604 340.469 31.4976 339.905 31.4976C339.367 31.4976 338.909 31.6541 338.534 31.9672C338.171 32.2803 337.945 32.7249 337.857 33.301H341.878Z" fill="white"/>
<path d="M243.122 26.5569V39.5566H241.413V29.8632L237.092 39.5566H235.89L231.55 29.8444V39.5566H229.841V26.5569H231.682L236.491 37.3024L241.3 26.5569H243.122ZM245.383 34.3718C245.383 33.3198 245.596 32.3993 246.022 31.6103C246.447 30.8088 247.03 30.1888 247.769 29.7505C248.52 29.3122 249.353 29.093 250.267 29.093C251.169 29.093 251.952 29.2871 252.615 29.6754C253.279 30.0636 253.774 30.552 254.099 31.1406V29.2621H255.828V39.5566H254.099V37.6405C253.761 38.2416 253.254 38.7426 252.578 39.1434C251.914 39.5316 251.138 39.7257 250.248 39.7257C249.334 39.7257 248.508 39.5003 247.769 39.0494C247.03 38.5986 246.447 37.9661 246.022 37.1521C245.596 36.338 245.383 35.4113 245.383 34.3718ZM254.099 34.3906C254.099 33.6141 253.943 32.9378 253.63 32.3617C253.317 31.7856 252.891 31.3473 252.352 31.0467C251.826 30.7336 251.244 30.5771 250.605 30.5771C249.967 30.5771 249.384 30.7274 248.858 31.0279C248.332 31.3285 247.913 31.7668 247.6 32.3429C247.286 32.919 247.13 33.5953 247.13 34.3718C247.13 35.1608 247.286 35.8496 247.6 36.4382C247.913 37.0143 248.332 37.4589 248.858 37.772C249.384 38.0726 249.967 38.2229 250.605 38.2229C251.244 38.2229 251.826 38.0726 252.352 37.772C252.891 37.4589 253.317 37.0143 253.63 36.4382C253.943 35.8496 254.099 35.167 254.099 34.3906ZM260.426 30.934C260.727 30.3454 261.152 29.8883 261.704 29.5626C262.267 29.237 262.95 29.0742 263.751 29.0742V30.8401H263.3C261.384 30.8401 260.426 31.8795 260.426 33.9585V39.5566H258.717V29.2621H260.426V30.934ZM271.473 39.5566L267.434 35.0105V39.5566H265.725V25.6552H267.434V33.827L271.398 29.2621H273.784L268.937 34.3906L273.802 39.5566H271.473ZM284.785 34.0149C284.785 34.3405 284.767 34.6849 284.729 35.0481H276.501C276.564 36.0625 276.908 36.8578 277.534 37.4339C278.173 37.9974 278.943 38.2792 279.845 38.2792C280.584 38.2792 281.197 38.1101 281.686 37.772C282.187 37.4213 282.537 36.958 282.738 36.3819H284.579C284.303 37.3712 283.752 38.179 282.926 38.8052C282.099 39.4189 281.072 39.7257 279.845 39.7257C278.868 39.7257 277.991 39.5065 277.215 39.0682C276.451 38.6299 275.85 38.01 275.411 37.2084C274.973 36.3944 274.754 35.4551 274.754 34.3906C274.754 33.326 274.967 32.393 275.393 31.5915C275.818 30.79 276.413 30.1763 277.177 29.7505C277.954 29.3122 278.843 29.093 279.845 29.093C280.822 29.093 281.686 29.3059 282.437 29.7317C283.189 30.1575 283.765 30.7461 284.166 31.4976C284.579 32.2365 284.785 33.0756 284.785 34.0149ZM283.02 33.6579C283.02 33.0067 282.876 32.4494 282.588 31.986C282.299 31.5101 281.905 31.1532 281.404 30.9152C280.916 30.6647 280.371 30.5395 279.77 30.5395C278.906 30.5395 278.167 30.815 277.553 31.3661C276.952 31.9171 276.607 32.6811 276.52 33.6579H283.02ZM289.127 30.671V36.7388C289.127 37.2397 289.234 37.5967 289.447 37.8096C289.659 38.01 290.029 38.1101 290.555 38.1101H291.814V39.5566H290.273C289.321 39.5566 288.607 39.3375 288.132 38.8991C287.656 38.4608 287.418 37.7407 287.418 36.7388V30.671H286.084V29.2621H287.418V26.6696H289.127V29.2621H291.814V30.671H289.127Z" fill="white" fill-opacity="0.5"/>
<path d="M382.777 48.7971C382.777 45.9503 385.085 43.6425 387.932 43.6425H447.929C450.775 43.6425 453.083 45.9503 453.083 48.7971V94.9517H387.932C385.085 94.9517 382.777 92.6439 382.777 89.7971V48.7971Z" fill="white" fill-opacity="0.15"/>
<path d="M382.777 48.7971C382.777 45.9503 385.085 43.6425 387.932 43.6425H447.929C450.775 43.6425 453.083 45.9503 453.083 48.7971V94.9517H387.932C385.085 94.9517 382.777 92.6439 382.777 89.7971V48.7971Z" stroke="url(#paint0_linear_1219_10800)" stroke-width="0.687282"/>
<path d="M393.727 54.518V52.7695H396.773V60.797H394.816V54.518H393.727Z" fill="white"/>
<path d="M412.193 56.1601C412.233 56.1601 412.272 56.1584 412.311 56.1549C413.006 56.0951 413.551 55.5126 413.551 54.8024V52.6564C413.551 51.9066 412.943 51.2987 412.193 51.2987H410.046C409.337 51.2987 408.754 51.8436 408.694 52.538C408.69 52.5769 408.689 52.6165 408.689 52.6564V53.8719V54.9208H407.416V52.6564C407.416 52.6165 407.414 52.5769 407.411 52.538C407.351 51.8436 406.768 51.2987 406.058 51.2987H403.912C403.162 51.2987 402.554 51.9066 402.554 52.6564V54.8024C402.554 55.5126 403.099 56.0951 403.793 56.1549C403.832 56.1584 403.872 56.1601 403.912 56.1601H406.176V57.4335H403.912C403.872 57.4335 403.832 57.4352 403.793 57.4386C403.099 57.4985 402.554 58.0813 402.554 58.7912V60.9375C402.554 61.6873 403.162 62.2952 403.912 62.2952H406.058C406.768 62.2952 407.351 61.7503 407.411 61.0559C407.414 61.017 407.416 60.9775 407.416 60.9375V58.6727H408.689V60.9375C408.689 60.9775 408.69 61.017 408.694 61.0559C408.754 61.7503 409.337 62.2952 410.046 62.2952H412.193C412.943 62.2952 413.551 61.6873 413.551 60.9375V58.7912C413.551 58.0813 413.006 57.4985 412.311 57.4386C412.272 57.4352 412.233 57.4335 412.193 57.4335H409.928V56.1601H412.193ZM409.928 53.8719V52.6564C409.928 52.591 409.981 52.538 410.046 52.538H412.193C412.258 52.538 412.311 52.591 412.311 52.6564V54.8024C412.311 54.8678 412.258 54.9208 412.193 54.9208H409.928V53.8719ZM403.912 54.9208C403.846 54.9208 403.793 54.8678 403.793 54.8024V52.6564C403.793 52.591 403.846 52.538 403.912 52.538H406.058C406.123 52.538 406.176 52.591 406.176 52.6564V54.9208H403.912ZM406.176 60.9375C406.176 61.0026 406.123 61.0559 406.058 61.0559H403.912C403.846 61.0559 403.793 61.0026 403.793 60.9375V58.7912C403.793 58.7258 403.846 58.6727 403.912 58.6727H406.176V60.9375ZM412.193 58.6727C412.258 58.6727 412.311 58.7258 412.311 58.7912V60.9375C412.311 61.0026 412.258 61.0559 412.193 61.0559H410.046C409.981 61.0559 409.928 61.0026 409.928 60.9375V58.6727H412.193ZM408.689 57.4335H407.416V56.1601H408.689V57.4335Z" fill="url(#paint1_linear_1219_10800)"/>
<path d="M407.416 58.6729V60.9376C407.416 60.9776 407.414 61.0172 407.411 61.056H406.058C406.123 61.056 406.176 61.0027 406.176 60.9376V58.6729H407.416Z" fill="url(#paint2_linear_1219_10800)"/>
<path d="M407.416 53.5907H406.177V57.4335H407.416V53.5907Z" fill="url(#paint3_linear_1219_10800)"/>
<path d="M410.046 61.0559H408.694C408.69 61.017 408.689 60.9774 408.689 60.9374V56.16H409.928V60.9374C409.928 61.0025 409.981 61.0559 410.046 61.0559Z" fill="url(#paint4_linear_1219_10800)"/>
<path d="M412.311 54.8021V56.1547C412.273 56.1581 412.233 56.1598 412.193 56.1598H407.416V54.9205H412.193C412.258 54.9205 412.311 54.8675 412.311 54.8021Z" fill="url(#paint5_linear_1219_10800)"/>
<path d="M412.311 57.4385V58.791C412.311 58.7256 412.258 58.6726 412.193 58.6726H409.928V57.4333H412.193C412.233 57.4333 412.272 57.4351 412.311 57.4385Z" fill="url(#paint6_linear_1219_10800)"/>
<path d="M408.689 57.4333H405.562V58.6726H408.689V57.4333Z" fill="url(#paint7_linear_1219_10800)"/>
<path d="M411.119 51.2987H410.046C409.336 51.2987 408.754 51.8436 408.694 52.538C408.69 52.5769 408.689 52.6165 408.689 52.6564V53.8719V54.9208H409.928V53.8719V52.6564C409.928 52.591 409.981 52.538 410.046 52.538H411.119V51.2987Z" fill="url(#paint8_linear_1219_10800)"/>
<path d="M403.793 54.8024V52.6615H402.554V54.802C402.554 55.5122 403.099 56.0946 403.793 56.1545C403.832 56.158 403.872 56.1597 403.912 56.1597H406.176V54.9204H403.912C403.846 54.9208 403.793 54.8678 403.793 54.8024Z" fill="url(#paint9_linear_1219_10800)"/>
<path d="M420.605 53.1544V58.6637C420.605 59.3455 420.396 59.8843 419.978 60.2802C419.567 60.676 419.025 60.874 418.351 60.874C417.676 60.874 417.13 60.676 416.712 60.2802C416.301 59.8843 416.096 59.3455 416.096 58.6637H417.361C417.368 59.0009 417.452 59.2685 417.614 59.4664C417.782 59.6644 418.028 59.7633 418.351 59.7633C418.673 59.7633 418.919 59.6644 419.087 59.4664C419.256 59.2612 419.34 58.9936 419.34 58.6637V53.1544H420.605ZM429.231 53.1544L426.361 60.797H424.909L422.028 53.1544H423.37L425.635 59.5104L427.911 53.1544H429.231ZM432.798 60.874C432.284 60.874 431.823 60.786 431.412 60.6101C431.002 60.4268 430.679 60.1702 430.444 59.8403C430.21 59.5104 430.092 59.1255 430.092 58.6857H431.434C431.463 59.0156 431.592 59.2868 431.819 59.4994C432.054 59.712 432.38 59.8183 432.798 59.8183C433.23 59.8183 433.567 59.7157 433.809 59.5104C434.051 59.2978 434.172 59.0266 434.172 58.6967C434.172 58.4401 434.095 58.2311 433.941 58.0699C433.795 57.9086 433.608 57.784 433.38 57.696C433.16 57.608 432.853 57.5127 432.457 57.4101C431.958 57.2781 431.551 57.1462 431.236 57.0142C430.928 56.8749 430.664 56.6623 430.444 56.3764C430.224 56.0905 430.114 55.7093 430.114 55.2328C430.114 54.7929 430.224 54.408 430.444 54.0781C430.664 53.7482 430.972 53.4953 431.368 53.3194C431.764 53.1434 432.222 53.0554 432.743 53.0554C433.483 53.0554 434.088 53.2424 434.557 53.6163C435.034 53.9828 435.297 54.4887 435.349 55.1338H433.963C433.941 54.8552 433.809 54.617 433.567 54.419C433.325 54.2211 433.007 54.1221 432.611 54.1221C432.251 54.1221 431.958 54.2137 431.731 54.397C431.504 54.5803 431.39 54.8442 431.39 55.1888C431.39 55.4234 431.46 55.6176 431.599 55.7716C431.746 55.9182 431.929 56.0355 432.149 56.1235C432.369 56.2115 432.669 56.3068 433.051 56.4094C433.556 56.5487 433.967 56.688 434.282 56.8273C434.605 56.9665 434.876 57.1828 435.096 57.476C435.323 57.762 435.437 58.1468 435.437 58.6307C435.437 59.0192 435.33 59.3858 435.118 59.7303C434.913 60.0749 434.608 60.3535 434.205 60.5661C433.809 60.7713 433.34 60.874 432.798 60.874Z" fill="white"/>
<path d="M402.403 79.5312C402.403 80.081 402.266 80.5978 401.991 81.0817C401.727 81.5655 401.331 81.9724 400.803 82.3023C400.287 82.6322 399.671 82.8301 398.956 82.8961V84.2322H397.884V82.8961C396.85 82.7971 396.014 82.4727 395.377 81.9229C394.739 81.3731 394.42 80.6473 394.42 79.7456H396.432C396.465 80.1745 396.603 80.5318 396.845 80.8177C397.087 81.0927 397.433 81.2686 397.884 81.3456V77.7167C397.147 77.5298 396.548 77.3428 396.086 77.1559C395.624 76.958 395.228 76.6501 394.898 76.2322C394.579 75.8143 394.42 75.2425 394.42 74.5167C394.42 73.604 394.739 72.8508 395.377 72.257C396.014 71.6522 396.85 71.3003 397.884 71.2013V69.8652H398.956V71.2013C399.924 71.2893 400.699 71.5972 401.282 72.125C401.876 72.6418 402.211 73.3566 402.288 74.2693H400.276C400.243 73.9284 400.111 73.626 399.88 73.3621C399.649 73.0872 399.341 72.9003 398.956 72.8013V76.3642C399.693 76.5401 400.292 76.727 400.754 76.925C401.216 77.1119 401.606 77.4143 401.925 77.8322C402.244 78.2391 402.403 78.8054 402.403 79.5312ZM396.333 74.4178C396.333 74.8686 396.465 75.2205 396.729 75.4734C397.004 75.7264 397.389 75.9298 397.884 76.0837V72.7518C397.411 72.8068 397.032 72.9772 396.746 73.2631C396.471 73.549 396.333 73.9339 396.333 74.4178ZM398.956 81.3456C399.44 81.2686 399.819 81.0762 400.094 80.7683C400.369 80.4494 400.507 80.07 400.507 79.6301C400.507 79.1903 400.369 78.8494 400.094 78.6074C399.83 78.3545 399.451 78.1511 398.956 77.9971V81.3456Z" fill="white" fill-opacity="0.5"/>
<path d="M404.901 76.6116C404.901 74.7202 405.264 73.2302 405.989 72.1415C406.726 71.0528 407.908 70.5085 409.536 70.5085C411.163 70.5085 412.34 71.0528 413.066 72.1415C413.802 73.2302 414.171 74.7202 414.171 76.6116C414.171 78.525 413.802 80.026 413.066 81.1147C412.34 82.2033 411.163 82.7476 409.536 82.7476C407.908 82.7476 406.726 82.2033 405.989 81.1147C405.264 80.026 404.901 78.525 404.901 76.6116ZM411.4 76.6116C411.4 75.5009 411.279 74.6487 411.037 74.0549C410.795 73.4501 410.294 73.1477 409.536 73.1477C408.777 73.1477 408.277 73.4501 408.035 74.0549C407.793 74.6487 407.672 75.5009 407.672 76.6116C407.672 77.3593 407.716 77.9806 407.804 78.4755C407.892 78.9593 408.068 79.3552 408.332 79.6631C408.606 79.96 409.008 80.1085 409.536 80.1085C410.063 80.1085 410.459 79.96 410.723 79.6631C410.998 79.3552 411.18 78.9593 411.268 78.4755C411.356 77.9806 411.4 77.3593 411.4 76.6116ZM418.976 80.1909L417.145 84.9249H415.347L416.304 80.1909H418.976ZM420.463 80.6528V78.3765L425.675 70.9209H428.826V78.2116H430.178V80.6528H428.826V82.7971H426.005V80.6528H420.463ZM426.203 74.0219L423.432 78.2116H426.203V74.0219ZM440.038 73.2137H434.892V75.4899C435.112 75.248 435.419 75.0501 435.815 74.8961C436.211 74.7422 436.64 74.6652 437.102 74.6652C437.927 74.6652 438.608 74.8521 439.147 75.226C439.697 75.5999 440.098 76.0837 440.351 76.6776C440.604 77.2714 440.731 77.9147 440.731 78.6074C440.731 79.894 440.368 80.9167 439.642 81.6755C438.916 82.4232 437.894 82.7971 436.574 82.7971C435.694 82.7971 434.93 82.6487 434.281 82.3518C433.632 82.0439 433.132 81.6205 432.78 81.0817C432.428 80.5428 432.236 79.9215 432.203 79.2178H434.958C435.024 79.5586 435.183 79.8446 435.436 80.0755C435.689 80.2954 436.035 80.4054 436.475 80.4054C436.992 80.4054 437.377 80.2404 437.63 79.9105C437.883 79.5806 438.009 79.1408 438.009 78.591C438.009 78.0521 437.877 77.6398 437.613 77.3538C437.349 77.0679 436.964 76.925 436.459 76.925C436.085 76.925 435.777 77.0185 435.535 77.2054C435.293 77.3813 435.134 77.6178 435.057 77.9147H432.335V70.7394H440.038V73.2137Z" fill="white"/>
<path d="M202.381 229.226C199.628 229.226 200.66 223.114 197.219 222.678C194.963 222.391 195.37 230.742 194.268 236.647L182.435 303.435L514.392 298.281V43.2988C497.554 42.6115 484.839 96.2195 480.028 96.5632C475.217 96.9068 472.468 74.9138 463.533 74.9138C453.211 74.9138 452.179 110.486 447.706 110.486C443.233 110.486 441.856 129.258 437.039 129.258C432.222 129.258 430.547 139.862 427.451 139.862C424.354 139.862 424.018 128.178 421.265 128.178C418.513 128.178 422.992 126.09 416.111 126.09C409.229 126.09 407.189 138.221 405.801 141.369C403.74 146.047 402.712 150.858 399.959 150.858C397.207 150.858 396.871 135.395 393.087 135.395C389.302 135.395 390.245 141.369 386.804 141.369C383.364 141.369 383.364 164.069 379.235 164.069C375.106 164.069 375.45 152.719 370.289 152.719C365.128 152.719 364.784 187.754 362.375 187.318C359.967 186.881 360.311 183.825 356.526 183.825C352.741 183.825 353.773 196.922 349.3 196.922C344.827 196.922 344.827 176.841 342.075 176.841C339.322 176.841 339.666 163.745 335.193 163.745C330.72 163.745 332.097 180.333 328.656 180.333C325.215 180.333 317.646 195.176 312.828 195.176C308.011 195.176 304.915 227.916 300.786 227.916C296.657 227.916 296.313 236.647 290.464 236.647C284.614 236.647 286.679 254.982 280.83 254.982C274.98 254.982 275.324 244.505 270.851 244.941C266.378 245.378 263.97 225.733 259.841 225.297C255.712 224.86 257.088 229.226 253.304 229.226C249.519 229.226 249.519 222.678 245.734 222.678C241.949 222.678 242.981 232.282 239.541 232.282C236.1 232.282 235.412 236.647 231.283 236.647C227.154 236.647 227.498 220.932 224.057 220.932C220.617 220.932 223.025 227.916 218.552 227.916C214.079 227.916 214.423 204.343 210.982 204.343C207.542 204.343 205.133 229.226 202.381 229.226Z" fill="url(#paint10_radial_1219_10800)"/>
<path d="M190.682 242.322C192.695 242.172 193.689 239.746 194.268 236.647M514.392 43.2988V298.281L182.435 303.435L194.268 236.647M194.268 236.647C195.37 230.742 194.963 222.391 197.219 222.678C200.66 223.114 199.628 229.226 202.381 229.226C205.133 229.226 207.542 204.343 210.982 204.343C214.423 204.343 214.079 227.916 218.552 227.916C223.025 227.916 220.617 220.932 224.057 220.932C227.498 220.932 227.154 236.647 231.283 236.647C235.412 236.647 236.1 232.282 239.541 232.282C242.981 232.282 241.949 222.678 245.734 222.678C249.519 222.678 249.519 229.226 253.304 229.226C257.088 229.226 255.712 224.86 259.841 225.297C263.97 225.733 266.378 245.378 270.851 244.941C275.324 244.505 274.98 254.982 280.83 254.982C286.679 254.982 284.614 236.647 290.464 236.647C296.313 236.647 296.657 227.916 300.786 227.916C304.915 227.916 308.011 195.176 312.828 195.176C317.646 195.176 325.215 180.333 328.656 180.333C332.097 180.333 330.72 163.745 335.193 163.745C339.666 163.745 339.322 176.841 342.075 176.841C344.827 176.841 344.827 196.922 349.3 196.922C353.773 196.922 352.741 183.826 356.526 183.826C360.311 183.826 359.967 186.881 362.375 187.318C364.784 187.754 365.128 152.719 370.289 152.719C375.45 152.719 375.106 164.069 379.235 164.069C383.364 164.069 383.364 141.369 386.804 141.369C390.245 141.369 389.213 135.359 392.998 135.359C396.783 135.359 395.332 149.653 399.879 151.186C404.427 152.719 409.238 124.819 415.767 124.781C422.296 124.742 424.354 140.206 427.451 140.206C430.547 140.206 432.222 129.258 437.039 129.258C441.856 129.258 443.233 110.487 447.706 110.487C449.675 110.487 450.977 103.593 452.698 95.8759" stroke="url(#paint11_linear_1219_10800)" stroke-width="2.06185"/>
<circle cx="453.224" cy="95.5323" r="4.12369" fill="white"/>
</g>
<path d="M163.191 10.9965C163.191 5.3029 167.806 0.687282 173.5 0.687282H496.523C502.216 0.687282 506.832 5.30288 506.832 10.9965V268.04C506.832 273.734 502.216 278.349 496.523 278.349H173.5C167.806 278.349 163.191 273.734 163.191 268.04V10.9965Z" stroke="white" stroke-opacity="0.15" stroke-width="1.37456"/>
<g filter="url(#filter0_d_1219_10800)">
<rect x="1.67944" y="80.3328" width="240.549" height="314.167" rx="10.9965" fill="#000223" shape-rendering="crispEdges"/>
<rect x="1.67944" y="80.3328" width="240.549" height="314.167" rx="10.9965" fill="url(#paint12_linear_1219_10800)" shape-rendering="crispEdges"/>
<rect x="2.36673" y="81.02" width="239.174" height="312.793" rx="10.3092" stroke="url(#paint13_linear_1219_10800)" stroke-width="1.37456" shape-rendering="crispEdges"/>
<path d="M37.4353 104.623V106.883H34.3673V116.202H31.5467V106.883H28.4786V104.623H37.4353ZM43.0406 116.334C42.1388 116.334 41.3251 116.142 40.5993 115.757C39.8846 115.372 39.3182 114.822 38.9004 114.107C38.4935 113.393 38.2901 112.557 38.2901 111.6C38.2901 110.654 38.499 109.824 38.9169 109.109C39.3347 108.384 39.9066 107.828 40.6323 107.443C41.3581 107.059 42.1718 106.866 43.0735 106.866C43.9753 106.866 44.789 107.059 45.5148 107.443C46.2405 107.828 46.8124 108.384 47.2302 109.109C47.6481 109.824 47.857 110.654 47.857 111.6C47.857 112.546 47.6426 113.382 47.2137 114.107C46.7959 114.822 46.2186 115.372 45.4818 115.757C44.756 116.142 43.9423 116.334 43.0406 116.334ZM43.0406 113.893C43.5794 113.893 44.0357 113.695 44.4096 113.299C44.7945 112.903 44.9869 112.337 44.9869 111.6C44.9869 110.863 44.8 110.297 44.4261 109.901C44.0632 109.505 43.6124 109.307 43.0735 109.307C42.5237 109.307 42.0674 109.505 41.7045 109.901C41.3416 110.286 41.1602 110.852 41.1602 111.6C41.1602 112.337 41.3361 112.903 41.688 113.299C42.0509 113.695 42.5017 113.893 43.0406 113.893ZM52.174 108.301C52.4489 107.872 52.8283 107.526 53.3122 107.262C53.796 106.998 54.3623 106.866 55.0111 106.866C55.7699 106.866 56.4572 107.059 57.073 107.443C57.6888 107.828 58.1726 108.378 58.5245 109.093C58.8874 109.808 59.0688 110.638 59.0688 111.584C59.0688 112.529 58.8874 113.365 58.5245 114.091C58.1726 114.806 57.6888 115.361 57.073 115.757C56.4572 116.142 55.7699 116.334 55.0111 116.334C54.3733 116.334 53.807 116.202 53.3122 115.938C52.8283 115.674 52.4489 115.333 52.174 114.916V120.59H49.3534V106.998H52.174V108.301ZM56.1987 111.584C56.1987 110.88 56.0008 110.33 55.6049 109.934C55.2201 109.527 54.7417 109.324 54.1699 109.324C53.6091 109.324 53.1307 109.527 52.7348 109.934C52.35 110.341 52.1575 110.896 52.1575 111.6C52.1575 112.304 52.35 112.859 52.7348 113.266C53.1307 113.673 53.6091 113.876 54.1699 113.876C54.7307 113.876 55.2091 113.673 55.6049 113.266C56.0008 112.848 56.1987 112.287 56.1987 111.584ZM73.1327 106.998V116.202H70.3121V114.949C70.0262 115.355 69.6358 115.685 69.141 115.938C68.6571 116.18 68.1183 116.301 67.5245 116.301C66.8207 116.301 66.1994 116.147 65.6606 115.839C65.1217 115.52 64.7039 115.064 64.407 114.47C64.1101 113.876 63.9616 113.178 63.9616 112.375V106.998H66.7657V111.996C66.7657 112.612 66.9252 113.09 67.2441 113.431C67.563 113.772 67.9918 113.942 68.5307 113.942C69.0805 113.942 69.5148 113.772 69.8337 113.431C70.1526 113.09 70.3121 112.612 70.3121 111.996V106.998H73.1327ZM77.9793 108.301C78.2542 107.872 78.6336 107.526 79.1175 107.262C79.6013 106.998 80.1676 106.866 80.8164 106.866C81.5752 106.866 82.2625 107.059 82.8783 107.443C83.4941 107.828 83.9779 108.378 84.3298 109.093C84.6927 109.808 84.8741 110.638 84.8741 111.584C84.8741 112.529 84.6927 113.365 84.3298 114.091C83.9779 114.806 83.4941 115.361 82.8783 115.757C82.2625 116.142 81.5752 116.334 80.8164 116.334C80.1786 116.334 79.6123 116.202 79.1175 115.938C78.6336 115.674 78.2542 115.333 77.9793 114.916V120.59H75.1587V106.998H77.9793V108.301ZM82.004 111.584C82.004 110.88 81.8061 110.33 81.4102 109.934C81.0254 109.527 80.547 109.324 79.9752 109.324C79.4144 109.324 78.936 109.527 78.5401 109.934C78.1553 110.341 77.9628 110.896 77.9628 111.6C77.9628 112.304 78.1553 112.859 78.5401 113.266C78.936 113.673 79.4144 113.876 79.9752 113.876C80.536 113.876 81.0144 113.673 81.4102 113.266C81.8061 112.848 82.004 112.287 82.004 111.584Z" fill="white"/>
<path d="M106.039 109.747C106.099 109.747 106.159 109.744 106.217 109.739C107.258 109.649 108.076 108.776 108.076 107.71V104.491C108.076 103.367 107.164 102.455 106.039 102.455H102.82C101.755 102.455 100.881 103.272 100.791 104.314C100.786 104.372 100.783 104.431 100.783 104.491V106.315V107.888H98.8737V104.491C98.8737 104.431 98.8711 104.372 98.8659 104.314C98.7761 103.272 97.9019 102.455 96.8371 102.455H93.6176C92.4929 102.455 91.581 103.367 91.581 104.491V107.71C91.581 108.776 92.3984 109.649 93.4399 109.739C93.4983 109.744 93.5577 109.747 93.6176 109.747H97.0147V111.657H93.6176C93.5577 111.657 93.4983 111.659 93.4399 111.665C92.3984 111.754 91.581 112.629 91.581 113.693V116.913C91.581 118.038 92.4929 118.949 93.6176 118.949H96.8371C97.9019 118.949 98.7761 118.132 98.8659 117.091C98.8711 117.032 98.8737 116.973 98.8737 116.913V113.516H100.783V116.913C100.783 116.973 100.786 117.032 100.791 117.091C100.881 118.132 101.755 118.949 102.82 118.949H106.039C107.164 118.949 108.076 118.038 108.076 116.913V113.693C108.076 112.629 107.258 111.754 106.217 111.665C106.159 111.659 106.099 111.657 106.039 111.657H102.642V109.747H106.039ZM102.642 106.315V104.491C102.642 104.393 102.722 104.314 102.82 104.314H106.039C106.137 104.314 106.217 104.393 106.217 104.491V107.71C106.217 107.808 106.137 107.888 106.039 107.888H102.642V106.315ZM93.6176 107.888C93.5195 107.888 93.4399 107.808 93.4399 107.71V104.491C93.4399 104.393 93.5195 104.314 93.6176 104.314H96.8371C96.9347 104.314 97.0147 104.393 97.0147 104.491V107.888H93.6176ZM97.0147 116.913C97.0147 117.011 96.9347 117.091 96.8371 117.091H93.6176C93.5195 117.091 93.4399 117.011 93.4399 116.913V113.693C93.4399 113.595 93.5195 113.516 93.6176 113.516H97.0147V116.913ZM106.039 113.516C106.137 113.516 106.217 113.595 106.217 113.693V116.913C106.217 117.011 106.137 117.091 106.039 117.091H102.82C102.722 117.091 102.642 117.011 102.642 116.913V113.516H106.039ZM100.783 111.657H98.8737V109.747H100.783V111.657Z" fill="url(#paint14_linear_1219_10800)"/>
<path d="M98.8733 113.516V116.913C98.8733 116.973 98.8708 117.033 98.8656 117.091H96.8368C96.9344 117.091 97.0144 117.011 97.0144 116.913V113.516H98.8733Z" fill="url(#paint15_linear_1219_10800)"/>
<path d="M98.8739 105.893H97.0149V111.657H98.8739V105.893Z" fill="url(#paint16_linear_1219_10800)"/>
<path d="M102.819 117.091H100.791C100.785 117.032 100.783 116.973 100.783 116.913V109.747H102.642V116.913C102.642 117.011 102.722 117.091 102.819 117.091Z" fill="url(#paint17_linear_1219_10800)"/>
<path d="M106.217 107.71V109.739C106.159 109.744 106.1 109.747 106.04 109.747H98.8741V107.888H106.04C106.138 107.888 106.217 107.808 106.217 107.71Z" fill="url(#paint18_linear_1219_10800)"/>
<path d="M106.217 111.665V113.694C106.217 113.595 106.137 113.516 106.039 113.516H102.642V111.657H106.039C106.099 111.657 106.158 111.66 106.217 111.665Z" fill="url(#paint19_linear_1219_10800)"/>
<path d="M100.783 111.657H96.0928V113.516H100.783V111.657Z" fill="url(#paint20_linear_1219_10800)"/>
<path d="M104.429 102.455H102.819C101.755 102.455 100.88 103.272 100.791 104.314C100.785 104.372 100.783 104.431 100.783 104.491V106.315V107.888H102.642V106.315V104.491C102.642 104.393 102.722 104.314 102.819 104.314H104.429V102.455Z" fill="url(#paint21_linear_1219_10800)"/>
<path d="M93.44 107.71V104.499H91.5811V107.71C91.5811 108.775 92.3985 109.649 93.44 109.739C93.4983 109.744 93.5577 109.746 93.6176 109.746H97.0148V107.888H93.6176C93.5195 107.888 93.44 107.809 93.44 107.71Z" fill="url(#paint22_linear_1219_10800)"/>
<path d="M119.105 104.623V112.507C119.105 113.728 118.759 114.668 118.066 115.328C117.384 115.988 116.461 116.318 115.295 116.318C114.074 116.318 113.096 115.971 112.359 115.278C111.622 114.586 111.254 113.601 111.254 112.326H114.058C114.058 112.81 114.157 113.178 114.355 113.431C114.553 113.673 114.839 113.794 115.213 113.794C115.553 113.794 115.817 113.684 116.004 113.464C116.191 113.244 116.285 112.925 116.285 112.507V104.623H119.105ZM132.254 104.623L128.146 116.202H124.617L120.509 104.623H123.511L126.382 113.365L129.268 104.623H132.254ZM137.622 116.318C136.775 116.318 136.017 116.18 135.346 115.905C134.675 115.63 134.136 115.223 133.729 114.685C133.334 114.146 133.125 113.497 133.103 112.738H136.105C136.149 113.167 136.297 113.497 136.55 113.728C136.803 113.948 137.133 114.058 137.54 114.058C137.958 114.058 138.287 113.964 138.529 113.777C138.771 113.579 138.892 113.31 138.892 112.969C138.892 112.683 138.793 112.447 138.595 112.26C138.408 112.073 138.172 111.919 137.886 111.798C137.611 111.677 137.215 111.54 136.699 111.386C135.951 111.155 135.34 110.924 134.868 110.693C134.395 110.462 133.988 110.121 133.647 109.67C133.306 109.219 133.136 108.631 133.136 107.905C133.136 106.828 133.526 105.986 134.307 105.382C135.088 104.766 136.105 104.458 137.358 104.458C138.634 104.458 139.662 104.766 140.443 105.382C141.224 105.986 141.641 106.833 141.696 107.922H138.645C138.623 107.548 138.485 107.256 138.233 107.048C137.98 106.828 137.655 106.718 137.259 106.718C136.918 106.718 136.644 106.811 136.435 106.998C136.226 107.174 136.121 107.432 136.121 107.773C136.121 108.147 136.297 108.439 136.649 108.648C137.001 108.856 137.551 109.082 138.298 109.324C139.046 109.577 139.651 109.819 140.113 110.05C140.586 110.281 140.993 110.616 141.334 111.056C141.674 111.496 141.845 112.062 141.845 112.755C141.845 113.415 141.674 114.014 141.334 114.553C141.004 115.092 140.52 115.52 139.882 115.839C139.244 116.158 138.491 116.318 137.622 116.318Z" fill="white"/>
<path d="M149.727 108.845C150.035 108.307 150.485 107.867 151.079 107.526C151.673 107.185 152.349 107.015 153.108 107.015C153.922 107.015 154.653 107.207 155.302 107.592C155.951 107.977 156.462 108.521 156.836 109.225C157.21 109.918 157.397 110.726 157.397 111.65C157.397 112.562 157.21 113.376 156.836 114.091C156.462 114.806 155.945 115.361 155.285 115.757C154.637 116.153 153.911 116.351 153.108 116.351C152.327 116.351 151.64 116.18 151.046 115.839C150.463 115.498 150.024 115.064 149.727 114.536V116.202H148.226V103.996H149.727V108.845ZM155.863 111.65C155.863 110.968 155.725 110.374 155.45 109.868C155.175 109.362 154.802 108.977 154.329 108.714C153.867 108.45 153.356 108.318 152.795 108.318C152.245 108.318 151.734 108.455 151.261 108.73C150.799 108.994 150.425 109.384 150.139 109.901C149.864 110.407 149.727 110.995 149.727 111.666C149.727 112.348 149.864 112.947 150.139 113.464C150.425 113.97 150.799 114.36 151.261 114.635C151.734 114.899 152.245 115.031 152.795 115.031C153.356 115.031 153.867 114.899 154.329 114.635C154.802 114.36 155.175 113.97 155.45 113.464C155.725 112.947 155.863 112.342 155.863 111.65ZM158.812 111.65C158.812 110.726 158.999 109.918 159.372 109.225C159.746 108.521 160.258 107.977 160.907 107.592C161.566 107.207 162.298 107.015 163.1 107.015C163.892 107.015 164.579 107.185 165.162 107.526C165.745 107.867 166.179 108.296 166.465 108.812V107.163H167.983V116.202H166.465V114.52C166.168 115.048 165.723 115.487 165.129 115.839C164.546 116.18 163.865 116.351 163.084 116.351C162.281 116.351 161.555 116.153 160.907 115.757C160.258 115.361 159.746 114.806 159.372 114.091C158.999 113.376 158.812 112.562 158.812 111.65ZM166.465 111.666C166.465 110.984 166.328 110.39 166.053 109.885C165.778 109.379 165.404 108.994 164.931 108.73C164.469 108.455 163.958 108.318 163.397 108.318C162.836 108.318 162.325 108.45 161.863 108.714C161.401 108.977 161.033 109.362 160.758 109.868C160.483 110.374 160.346 110.968 160.346 111.65C160.346 112.342 160.483 112.947 160.758 113.464C161.033 113.97 161.401 114.36 161.863 114.635C162.325 114.899 162.836 115.031 163.397 115.031C163.958 115.031 164.469 114.899 164.931 114.635C165.404 114.36 165.778 113.97 166.053 113.464C166.328 112.947 166.465 112.348 166.465 111.666ZM172.02 103.996V116.202H170.519V103.996H172.02ZM174.018 111.65C174.018 110.726 174.205 109.918 174.579 109.225C174.952 108.521 175.464 107.977 176.113 107.592C176.772 107.207 177.504 107.015 178.306 107.015C179.098 107.015 179.785 107.185 180.368 107.526C180.951 107.867 181.385 108.296 181.671 108.812V107.163H183.189V116.202H181.671V114.52C181.374 115.048 180.929 115.487 180.335 115.839C179.752 116.18 179.071 116.351 178.29 116.351C177.487 116.351 176.761 116.153 176.113 115.757C175.464 115.361 174.952 114.806 174.579 114.091C174.205 113.376 174.018 112.562 174.018 111.65ZM181.671 111.666C181.671 110.984 181.534 110.39 181.259 109.885C180.984 109.379 180.61 108.994 180.137 108.73C179.675 108.455 179.164 108.318 178.603 108.318C178.043 108.318 177.531 108.45 177.069 108.714C176.607 108.977 176.239 109.362 175.964 109.868C175.689 110.374 175.552 110.968 175.552 111.65C175.552 112.342 175.689 112.947 175.964 113.464C176.239 113.97 176.607 114.36 177.069 114.635C177.531 114.899 178.043 115.031 178.603 115.031C179.164 115.031 179.675 114.899 180.137 114.635C180.61 114.36 180.984 113.97 181.259 113.464C181.534 112.947 181.671 112.348 181.671 111.666ZM190.13 106.998C191.229 106.998 192.12 107.333 192.802 108.004C193.484 108.664 193.824 109.621 193.824 110.874V116.202H192.34V111.089C192.34 110.187 192.114 109.5 191.664 109.027C191.213 108.543 190.597 108.301 189.816 108.301C189.024 108.301 188.392 108.549 187.919 109.043C187.457 109.538 187.226 110.259 187.226 111.204V116.202H185.725V107.163H187.226V108.45C187.523 107.988 187.925 107.63 188.431 107.377C188.947 107.125 189.514 106.998 190.13 106.998ZM195.716 111.666C195.716 110.731 195.902 109.918 196.276 109.225C196.65 108.521 197.167 107.977 197.827 107.592C198.498 107.207 199.262 107.015 200.12 107.015C201.23 107.015 202.143 107.284 202.858 107.823C203.584 108.362 204.062 109.109 204.293 110.066H202.676C202.522 109.516 202.22 109.082 201.769 108.763C201.329 108.444 200.779 108.285 200.12 108.285C199.262 108.285 198.569 108.582 198.041 109.175C197.513 109.758 197.25 110.588 197.25 111.666C197.25 112.755 197.513 113.596 198.041 114.19C198.569 114.784 199.262 115.081 200.12 115.081C200.779 115.081 201.329 114.927 201.769 114.619C202.209 114.311 202.511 113.871 202.676 113.299H204.293C204.051 114.223 203.567 114.965 202.841 115.526C202.115 116.076 201.208 116.351 200.12 116.351C199.262 116.351 198.498 116.158 197.827 115.773C197.167 115.388 196.65 114.844 196.276 114.14C195.902 113.437 195.716 112.612 195.716 111.666ZM214.543 111.336C214.543 111.622 214.527 111.925 214.494 112.243H207.269C207.324 113.134 207.626 113.832 208.176 114.338C208.737 114.833 209.413 115.081 210.205 115.081C210.854 115.081 211.392 114.932 211.821 114.635C212.261 114.327 212.569 113.92 212.745 113.415H214.362C214.12 114.283 213.636 114.993 212.91 115.542C212.184 116.081 211.283 116.351 210.205 116.351C209.347 116.351 208.577 116.158 207.896 115.773C207.225 115.388 206.697 114.844 206.312 114.14C205.927 113.426 205.735 112.601 205.735 111.666C205.735 110.731 205.922 109.912 206.296 109.208C206.669 108.505 207.192 107.966 207.863 107.592C208.544 107.207 209.325 107.015 210.205 107.015C211.063 107.015 211.821 107.202 212.481 107.575C213.141 107.949 213.647 108.466 213.999 109.126C214.362 109.775 214.543 110.511 214.543 111.336ZM212.992 111.023C212.992 110.451 212.866 109.962 212.613 109.555C212.36 109.137 212.014 108.823 211.574 108.615C211.145 108.395 210.667 108.285 210.139 108.285C209.38 108.285 208.731 108.527 208.193 109.01C207.665 109.494 207.362 110.165 207.285 111.023H212.992Z" fill="white" fill-opacity="0.7"/>
<path d="M121.954 149.319C128.362 149.319 134.707 150.581 140.628 153.033C146.548 155.485 151.927 159.08 156.459 163.611C160.99 168.142 164.584 173.522 167.036 179.442C169.489 185.362 170.751 191.708 170.751 198.116C170.751 204.524 169.489 210.869 167.036 216.79C164.584 222.71 160.99 228.089 156.459 232.62C151.927 237.152 146.548 240.746 140.628 243.198C134.707 245.651 128.362 246.913 121.954 246.913C115.546 246.913 109.2 245.651 103.28 243.198C97.3597 240.746 91.9803 237.152 87.4491 232.62C82.9179 228.089 79.3235 222.71 76.8712 216.79C74.4189 210.869 73.1568 204.524 73.1568 198.116C73.1568 191.708 74.419 185.362 76.8712 179.442C79.3235 173.522 82.9179 168.142 87.4491 163.611C91.9804 159.08 97.3597 155.485 103.28 153.033C109.2 150.581 115.546 149.319 121.954 149.319L121.954 149.319Z" stroke="white" stroke-opacity="0.1" stroke-width="5.49826"/>
<path d="M121.954 149.319C132.911 149.319 143.549 153.006 152.155 159.787C160.761 166.569 166.834 176.049 169.397 186.702C171.96 197.355 170.863 208.56 166.283 218.514C161.703 228.467 153.906 236.59 144.148 241.573C134.39 246.557 123.239 248.111 112.49 245.986C101.742 243.861 92.0207 238.181 84.8931 229.859C77.7655 221.538 73.6459 211.06 73.1976 200.112C72.7494 189.164 75.9987 178.384 82.4222 169.508" stroke="url(#paint23_linear_1219_10800)" stroke-width="5.49826"/>
<circle cx="82.7787" cy="169.25" r="6.87282" fill="white"/>
<path d="M99.4317 183.642V181.456H103.239V191.49H100.793V183.642H99.4317Z" fill="#F8FAFC"/>
<path d="M121.419 186.155C121.472 186.155 121.524 186.152 121.575 186.148C122.486 186.069 123.201 185.305 123.201 184.373V181.556C123.201 180.572 122.403 179.774 121.419 179.774H118.602C117.67 179.774 116.906 180.489 116.827 181.4C116.822 181.452 116.82 181.503 116.82 181.556V183.151V184.528H115.149V181.556C115.149 181.503 115.147 181.452 115.143 181.4C115.064 180.489 114.299 179.774 113.367 179.774H110.55C109.566 179.774 108.768 180.572 108.768 181.556V184.373C108.768 185.305 109.484 186.069 110.395 186.148C110.446 186.152 110.498 186.155 110.55 186.155H113.523V187.826H110.55C110.498 187.826 110.446 187.828 110.395 187.833C109.484 187.911 108.768 188.676 108.768 189.608V192.425C108.768 193.409 109.566 194.207 110.55 194.207H113.367C114.299 194.207 115.064 193.492 115.143 192.58C115.147 192.529 115.149 192.477 115.149 192.425V189.452H116.82V192.425C116.82 192.477 116.822 192.529 116.827 192.58C116.906 193.492 117.67 194.207 118.602 194.207H121.419C122.403 194.207 123.201 193.409 123.201 192.425V189.608C123.201 188.676 122.486 187.911 121.575 187.833C121.524 187.828 121.472 187.826 121.419 187.826H118.447V186.155H121.419ZM118.447 183.151V181.556C118.447 181.47 118.517 181.4 118.602 181.4H121.419C121.505 181.4 121.575 181.47 121.575 181.556V184.373C121.575 184.458 121.505 184.528 121.419 184.528H118.447V183.151ZM110.55 184.528C110.464 184.528 110.395 184.458 110.395 184.373V181.556C110.395 181.47 110.464 181.4 110.55 181.4H113.367C113.453 181.4 113.523 181.47 113.523 181.556V184.528H110.55ZM113.523 192.425C113.523 192.51 113.453 192.58 113.367 192.58H110.55C110.464 192.58 110.395 192.51 110.395 192.425V189.608C110.395 189.522 110.464 189.452 110.55 189.452H113.523V192.425ZM121.419 189.452C121.505 189.452 121.575 189.522 121.575 189.608V192.425C121.575 192.51 121.505 192.58 121.419 192.58H118.602C118.517 192.58 118.447 192.51 118.447 192.425V189.452H121.419ZM116.82 187.826H115.149V186.155H116.82V187.826Z" fill="url(#paint24_linear_1219_10800)"/>
<path d="M115.149 189.452V192.425C115.149 192.477 115.147 192.529 115.143 192.58H113.367C113.453 192.58 113.523 192.51 113.523 192.425V189.452H115.149Z" fill="url(#paint25_linear_1219_10800)"/>
<path d="M115.15 182.782H113.523V187.825H115.15V182.782Z" fill="url(#paint26_linear_1219_10800)"/>
<path d="M118.603 192.58H116.827C116.823 192.529 116.821 192.477 116.821 192.424V186.154H118.447V192.424C118.447 192.51 118.517 192.58 118.603 192.58Z" fill="url(#paint27_linear_1219_10800)"/>
<path d="M121.574 184.372V186.148C121.523 186.152 121.471 186.154 121.419 186.154H115.149V184.528H121.419C121.505 184.528 121.574 184.458 121.574 184.372Z" fill="url(#paint28_linear_1219_10800)"/>
<path d="M121.575 187.832V189.608C121.575 189.522 121.505 189.452 121.419 189.452H118.447V187.826H121.419C121.472 187.826 121.524 187.828 121.575 187.832Z" fill="url(#paint29_linear_1219_10800)"/>
<path d="M116.82 187.826H112.716V189.452H116.82V187.826Z" fill="url(#paint30_linear_1219_10800)"/>
<path d="M120.011 179.774H118.603C117.671 179.774 116.906 180.489 116.827 181.4C116.823 181.452 116.821 181.503 116.821 181.556V183.151V184.528H118.447V183.151V181.556C118.447 181.47 118.517 181.4 118.603 181.4H120.011V179.774Z" fill="url(#paint31_linear_1219_10800)"/>
<path d="M110.395 184.372V181.562H108.768V184.372C108.768 185.304 109.484 186.068 110.395 186.147C110.446 186.152 110.498 186.154 110.55 186.154H113.523V184.527H110.55C110.465 184.528 110.395 184.458 110.395 184.372Z" fill="url(#paint32_linear_1219_10800)"/>
<path d="M130.111 183.326V188.989C130.111 189.619 129.917 190.125 129.529 190.507C129.14 190.88 128.627 191.067 127.989 191.067C127.344 191.067 126.827 190.877 126.439 190.496C126.05 190.107 125.856 189.579 125.856 188.912H126.856C126.864 189.286 126.959 189.59 127.142 189.825C127.333 190.059 127.615 190.177 127.989 190.177C128.363 190.177 128.641 190.067 128.825 189.847C129.008 189.619 129.1 189.334 129.1 188.989V183.326H130.111ZM138.417 183.326L135.525 190.99H134.37L131.478 183.326H132.545L134.953 189.935L137.361 183.326H138.417ZM141.944 191.067C141.438 191.067 140.984 190.979 140.581 190.803C140.185 190.62 139.873 190.371 139.646 190.056C139.419 189.733 139.301 189.363 139.294 188.945H140.361C140.397 189.304 140.544 189.608 140.801 189.858C141.064 190.1 141.446 190.221 141.944 190.221C142.421 190.221 142.795 190.103 143.066 189.869C143.344 189.627 143.484 189.319 143.484 188.945C143.484 188.652 143.403 188.414 143.242 188.23C143.081 188.047 142.879 187.908 142.637 187.812C142.395 187.717 142.069 187.614 141.658 187.504C141.152 187.373 140.746 187.241 140.438 187.109C140.137 186.977 139.877 186.771 139.657 186.493C139.444 186.207 139.338 185.826 139.338 185.349C139.338 184.931 139.444 184.561 139.657 184.238C139.87 183.916 140.166 183.667 140.548 183.491C140.936 183.315 141.38 183.227 141.878 183.227C142.597 183.227 143.183 183.406 143.638 183.766C144.1 184.125 144.36 184.601 144.418 185.195H143.319C143.282 184.902 143.128 184.645 142.857 184.425C142.586 184.198 142.226 184.085 141.779 184.085C141.361 184.085 141.021 184.195 140.757 184.414C140.493 184.627 140.361 184.928 140.361 185.316C140.361 185.595 140.438 185.822 140.592 185.998C140.753 186.174 140.947 186.31 141.174 186.405C141.409 186.493 141.735 186.595 142.153 186.713C142.659 186.852 143.066 186.991 143.374 187.131C143.682 187.263 143.946 187.471 144.166 187.757C144.385 188.036 144.495 188.417 144.495 188.901C144.495 189.275 144.396 189.627 144.199 189.957C144.001 190.287 143.707 190.554 143.319 190.759C142.93 190.965 142.472 191.067 141.944 191.067Z" fill="#F8FAFC"/>
<path d="M109.427 212.034C109.427 212.583 109.29 213.1 109.015 213.584C108.751 214.068 108.355 214.475 107.827 214.805C107.31 215.135 106.694 215.333 105.98 215.399V216.735H104.907V215.399C103.874 215.3 103.038 214.975 102.4 214.425C101.762 213.876 101.443 213.15 101.443 212.248H103.456C103.489 212.677 103.626 213.034 103.868 213.32C104.11 213.595 104.457 213.771 104.907 213.848V210.219C104.171 210.032 103.571 209.845 103.109 209.658C102.648 209.46 102.252 209.153 101.922 208.735C101.603 208.317 101.443 207.745 101.443 207.019C101.443 206.106 101.762 205.353 102.4 204.759C103.038 204.155 103.874 203.803 104.907 203.704V202.368H105.98V203.704C106.947 203.792 107.723 204.1 108.305 204.627C108.899 205.144 109.235 205.859 109.312 206.772H107.299C107.266 206.431 107.134 206.128 106.903 205.865C106.672 205.59 106.364 205.403 105.98 205.304V208.867C106.716 209.043 107.316 209.229 107.777 209.427C108.239 209.614 108.63 209.917 108.949 210.335C109.268 210.742 109.427 211.308 109.427 212.034ZM103.357 206.92C103.357 207.371 103.489 207.723 103.753 207.976C104.028 208.229 104.413 208.432 104.907 208.586V205.254C104.435 205.309 104.055 205.48 103.769 205.766C103.494 206.051 103.357 206.436 103.357 206.92ZM105.98 213.848C106.463 213.771 106.843 213.579 107.118 213.271C107.393 212.952 107.53 212.572 107.53 212.133C107.53 211.693 107.393 211.352 107.118 211.11C106.854 210.857 106.474 210.654 105.98 210.5V213.848Z" fill="white" fill-opacity="0.5"/>
<path d="M111.627 205.881V203.258H116.196V215.3H113.26V205.881H111.627ZM121.441 212.693L119.61 217.427H117.812L118.769 212.693H121.441ZM122.961 206.656C123.005 205.48 123.389 204.572 124.115 203.935C124.841 203.297 125.825 202.978 127.068 202.978C127.892 202.978 128.596 203.121 129.179 203.407C129.773 203.693 130.218 204.083 130.515 204.578C130.823 205.073 130.977 205.628 130.977 206.244C130.977 206.97 130.796 207.564 130.433 208.025C130.07 208.476 129.646 208.784 129.163 208.949V209.015C129.789 209.224 130.284 209.57 130.647 210.054C131.01 210.538 131.191 211.159 131.191 211.918C131.191 212.6 131.032 213.205 130.713 213.733C130.405 214.249 129.949 214.656 129.344 214.953C128.75 215.25 128.041 215.399 127.216 215.399C125.897 215.399 124.841 215.074 124.049 214.425C123.268 213.777 122.856 212.798 122.812 211.489H125.55C125.561 211.973 125.699 212.358 125.963 212.644C126.227 212.919 126.611 213.056 127.117 213.056C127.546 213.056 127.876 212.935 128.107 212.693C128.349 212.44 128.47 212.111 128.47 211.704C128.47 211.176 128.299 210.796 127.958 210.566C127.629 210.324 127.095 210.203 126.358 210.203H125.831V207.91H126.358C126.919 207.91 127.37 207.816 127.711 207.629C128.063 207.432 128.239 207.085 128.239 206.59C128.239 206.194 128.129 205.887 127.909 205.667C127.689 205.447 127.387 205.337 127.002 205.337C126.584 205.337 126.27 205.463 126.062 205.716C125.864 205.969 125.748 206.282 125.715 206.656H122.961ZM132.849 209.114C132.849 207.223 133.212 205.733 133.937 204.644C134.674 203.555 135.856 203.011 137.484 203.011C139.111 203.011 140.288 203.555 141.014 204.644C141.75 205.733 142.119 207.223 142.119 209.114C142.119 211.027 141.75 212.528 141.014 213.617C140.288 214.706 139.111 215.25 137.484 215.25C135.856 215.25 134.674 214.706 133.937 213.617C133.212 212.528 132.849 211.027 132.849 209.114ZM139.348 209.114C139.348 208.003 139.227 207.151 138.985 206.557C138.743 205.953 138.242 205.65 137.484 205.65C136.725 205.65 136.225 205.953 135.983 206.557C135.741 207.151 135.62 208.003 135.62 209.114C135.62 209.862 135.664 210.483 135.752 210.978C135.84 211.462 136.016 211.858 136.28 212.166C136.554 212.462 136.956 212.611 137.484 212.611C138.012 212.611 138.407 212.462 138.671 212.166C138.946 211.858 139.128 211.462 139.216 210.978C139.304 210.483 139.348 209.862 139.348 209.114Z" fill="white"/>
<rect x="19.5488" y="273.03" width="204.81" height="58.2404" rx="5.49826" fill="white" fill-opacity="0.1"/>
<path d="M54.6565 283.215V287.478C54.6565 287.984 54.788 288.366 55.051 288.623C55.3204 288.879 55.6925 289.008 56.1672 289.008C56.6483 289.008 57.0203 288.879 57.2833 288.623C57.5527 288.366 57.6874 287.984 57.6874 287.478V283.215H58.7843V287.458C58.7843 288.004 58.6657 288.466 58.4283 288.844C58.191 289.223 57.8735 289.505 57.4758 289.691C57.078 289.877 56.6386 289.97 56.1575 289.97C55.6764 289.97 55.237 289.877 54.8393 289.691C54.448 289.505 54.1369 289.223 53.906 288.844C53.6751 288.466 53.5596 288.004 53.5596 287.458V283.215H54.6565ZM62.4159 289.97C61.9669 289.97 61.5628 289.893 61.2036 289.739C60.8444 289.579 60.5621 289.354 60.3569 289.065C60.1516 288.777 60.0489 288.44 60.0489 288.055H61.2228C61.2485 288.344 61.3607 288.581 61.5596 288.767C61.7649 288.953 62.0503 289.046 62.4159 289.046C62.7944 289.046 63.0895 288.956 63.3012 288.777C63.5129 288.591 63.6187 288.353 63.6187 288.065C63.6187 287.84 63.5513 287.657 63.4166 287.516C63.2883 287.375 63.1248 287.266 62.9259 287.189C62.7335 287.112 62.4641 287.029 62.1177 286.939C61.6815 286.823 61.3255 286.708 61.0496 286.593C60.7802 286.471 60.5493 286.285 60.3569 286.034C60.1644 285.784 60.0682 285.451 60.0682 285.034C60.0682 284.649 60.1644 284.312 60.3569 284.023C60.5493 283.735 60.8187 283.513 61.1651 283.36C61.5115 283.206 61.9124 283.129 62.3678 283.129C63.0157 283.129 63.5449 283.292 63.9555 283.619C64.3724 283.94 64.6033 284.383 64.6482 284.947H63.4359C63.4166 284.703 63.3012 284.495 63.0895 284.322C62.8778 284.149 62.5988 284.062 62.2524 284.062C61.9381 284.062 61.6815 284.142 61.4826 284.302C61.2838 284.463 61.1843 284.694 61.1843 284.995C61.1843 285.201 61.2453 285.371 61.3672 285.505C61.4954 285.634 61.6558 285.736 61.8483 285.813C62.0407 285.89 62.3037 285.974 62.6373 286.063C63.0799 286.185 63.4391 286.307 63.7149 286.429C63.9972 286.551 64.2345 286.74 64.4269 286.997C64.6258 287.247 64.7252 287.584 64.7252 288.007C64.7252 288.347 64.6322 288.668 64.4462 288.969C64.2666 289.271 64.0004 289.514 63.6476 289.7C63.3012 289.88 62.8906 289.97 62.4159 289.97ZM68.2037 283.215C68.9157 283.215 69.5379 283.353 70.0704 283.629C70.6092 283.898 71.0229 284.29 71.3116 284.803C71.6067 285.31 71.7542 285.903 71.7542 286.583C71.7542 287.263 71.6067 287.853 71.3116 288.353C71.0229 288.854 70.6092 289.239 70.0704 289.508C69.5379 289.771 68.9157 289.902 68.2037 289.902H66.0195V283.215H68.2037ZM68.2037 289.008C68.9863 289.008 69.5861 288.796 70.003 288.373C70.42 287.949 70.6284 287.353 70.6284 286.583C70.6284 285.807 70.42 285.201 70.003 284.764C69.5861 284.328 68.9863 284.11 68.2037 284.11H67.1164V289.008H68.2037Z" fill="white" fill-opacity="0.5"/>
<path d="M81.8593 287.986C81.8593 288.368 81.7603 288.727 81.5624 289.064C81.3718 289.394 81.0859 289.669 80.7047 289.889C80.3308 290.101 79.8873 290.226 79.3741 290.263V291.153H78.6703V290.252C77.9372 290.186 77.3471 289.966 76.8999 289.592C76.4527 289.211 76.2218 288.697 76.2071 288.052H77.8566C77.9006 288.58 78.1718 288.899 78.6703 289.009V286.909C78.1425 286.777 77.7173 286.645 77.3947 286.513C77.0722 286.381 76.7936 286.168 76.559 285.875C76.3244 285.582 76.2071 285.182 76.2071 284.676C76.2071 284.039 76.4344 283.518 76.8889 283.115C77.3507 282.712 77.9446 282.481 78.6703 282.422V281.531H79.3741V282.422C80.0779 282.481 80.6387 282.693 81.0566 283.06C81.4818 283.426 81.72 283.932 81.7713 284.577H80.1109C80.0889 284.365 80.0119 284.182 79.8799 284.028C79.7553 283.866 79.5867 283.753 79.3741 283.687V285.765C79.9239 285.904 80.3565 286.04 80.6717 286.172C80.9943 286.297 81.2728 286.505 81.5074 286.799C81.742 287.085 81.8593 287.48 81.8593 287.986ZM77.8126 284.599C77.8126 284.841 77.8859 285.039 78.0325 285.193C78.1791 285.34 78.3917 285.461 78.6703 285.556V283.654C78.4064 283.69 78.1975 283.789 78.0435 283.951C77.8896 284.112 77.8126 284.328 77.8126 284.599ZM79.3741 289.031C79.6527 288.98 79.8689 288.866 80.0229 288.69C80.1842 288.514 80.2648 288.302 80.2648 288.052C80.2648 287.81 80.1878 287.616 80.0339 287.469C79.8799 287.323 79.66 287.202 79.3741 287.107V289.031Z" fill="#F8FAFC"/>
<path d="M26.4216 303.524C26.4216 301.247 28.2679 299.401 30.5453 299.401H104.085C106.362 299.401 108.208 301.247 108.208 303.524V320.274C108.208 322.551 106.362 324.397 104.085 324.397H30.5453C28.2679 324.397 26.4216 322.551 26.4216 320.274V303.524Z" fill="white" fill-opacity="0.1"/>
<path d="M30.5453 299.057C28.0781 299.057 26.078 301.057 26.078 303.524V320.274C26.078 322.741 28.0781 324.741 30.5453 324.741H104.085C106.552 324.741 108.552 322.741 108.552 320.274V303.524C108.552 301.057 106.552 299.057 104.085 299.057H30.5453Z" stroke="white" stroke-opacity="0.5" stroke-width="0.687282"/>
<path d="M35.2271 309.616C35.2656 309.02 35.4933 308.555 35.9102 308.221C36.3336 307.888 36.8724 307.721 37.5267 307.721C37.9758 307.721 38.3638 307.801 38.691 307.961C39.0181 308.122 39.2651 308.34 39.4319 308.616C39.5987 308.892 39.682 309.203 39.682 309.549C39.682 309.947 39.5762 310.287 39.3645 310.569C39.1528 310.851 38.8995 311.041 38.6044 311.137V311.175C38.9828 311.291 39.2779 311.502 39.4896 311.81C39.7013 312.112 39.8071 312.5 39.8071 312.975C39.8071 313.353 39.7205 313.69 39.5473 313.985C39.3741 314.28 39.1176 314.514 38.7776 314.687C38.4376 314.854 38.0303 314.937 37.5556 314.937C36.8628 314.937 36.2919 314.761 35.8429 314.408C35.4003 314.049 35.1629 313.536 35.1309 312.869H36.1893C36.2149 313.209 36.3464 313.488 36.5838 313.706C36.8211 313.917 37.1418 314.023 37.546 314.023C37.9373 314.023 38.2387 313.917 38.4504 313.706C38.6621 313.488 38.768 313.209 38.768 312.869C38.768 312.42 38.6236 312.102 38.335 311.916C38.0527 311.724 37.6165 311.627 37.0264 311.627H36.7762V310.723H37.036C37.5556 310.717 37.9501 310.63 38.2195 310.463C38.4953 310.296 38.6333 310.033 38.6333 309.674C38.6333 309.366 38.5338 309.123 38.335 308.943C38.1361 308.757 37.8539 308.664 37.4882 308.664C37.129 308.664 36.85 308.757 36.6511 308.943C36.4523 309.123 36.3336 309.347 36.2951 309.616H35.2271ZM42.1429 311.233C41.4757 310.899 41.1422 310.373 41.1422 309.655C41.1422 309.309 41.2288 308.991 41.402 308.702C41.5752 308.414 41.835 308.186 42.1813 308.019C42.5277 307.846 42.9511 307.759 43.4514 307.759C43.9454 307.759 44.3655 307.846 44.7119 308.019C45.0647 308.186 45.3277 308.414 45.5009 308.702C45.6741 308.991 45.7607 309.309 45.7607 309.655C45.7607 310.014 45.6677 310.332 45.4817 310.608C45.3021 310.877 45.0615 311.085 44.76 311.233C45.1257 311.368 45.4143 311.589 45.626 311.897C45.8377 312.198 45.9435 312.554 45.9435 312.965C45.9435 313.382 45.8377 313.751 45.626 314.071C45.4143 314.392 45.1192 314.639 44.7408 314.812C44.3623 314.986 43.9325 315.072 43.4514 315.072C42.9703 315.072 42.5406 314.986 42.1621 314.812C41.7901 314.639 41.4982 314.392 41.2865 314.071C41.0748 313.751 40.969 313.382 40.969 312.965C40.969 312.548 41.0748 312.189 41.2865 311.887C41.4982 311.586 41.7836 311.368 42.1429 311.233ZM44.7119 309.79C44.7119 309.43 44.5997 309.155 44.3751 308.962C44.1506 308.77 43.8427 308.674 43.4514 308.674C43.0666 308.674 42.7619 308.77 42.5374 308.962C42.3128 309.155 42.2006 309.434 42.2006 309.799C42.2006 310.12 42.3161 310.383 42.547 310.588C42.7843 310.787 43.0858 310.887 43.4514 310.887C43.8171 310.887 44.1186 310.784 44.3559 310.579C44.5932 310.373 44.7119 310.11 44.7119 309.79ZM43.4514 311.714C43.0281 311.714 42.6817 311.82 42.4123 312.032C42.1493 312.237 42.0178 312.535 42.0178 312.926C42.0178 313.292 42.1461 313.59 42.4026 313.821C42.6592 314.046 43.0088 314.158 43.4514 314.158C43.8876 314.158 44.2308 314.043 44.481 313.812C44.7376 313.581 44.8659 313.286 44.8659 312.926C44.8659 312.542 44.7344 312.243 44.4714 312.032C44.2148 311.82 43.8748 311.714 43.4514 311.714ZM48.4423 313.581L47.278 316.236H46.566L47.2492 313.581H48.4423ZM49.1217 313.436V312.609L52.3547 307.971H53.6825V312.484H54.5773V313.436H53.6825V314.899H52.6048V313.436H49.1217ZM52.653 309.087L50.3822 312.484H52.653V309.087ZM59.258 309.511C59.1875 309.216 59.0592 308.994 58.8732 308.847C58.6871 308.699 58.4274 308.625 58.0938 308.625C57.587 308.625 57.2086 308.821 56.9584 309.212C56.7082 309.597 56.5767 310.239 56.5639 311.137C56.7307 310.854 56.9744 310.636 57.2952 310.482C57.6159 310.328 57.9623 310.252 58.3343 310.252C58.7577 310.252 59.1298 310.345 59.4505 310.531C59.7776 310.71 60.031 310.973 60.2106 311.32C60.3966 311.666 60.4897 312.08 60.4897 312.561C60.4897 313.01 60.3999 313.411 60.2202 313.764C60.047 314.116 59.7873 314.395 59.4409 314.601C59.0945 314.799 58.6775 314.899 58.19 314.899C57.5293 314.899 57.0097 314.755 56.6313 314.466C56.2592 314.171 55.9962 313.757 55.8423 313.225C55.6947 312.692 55.621 312.028 55.621 311.233C55.621 308.885 56.4484 307.711 58.1034 307.711C58.7449 307.711 59.2484 307.885 59.6141 308.231C59.9861 308.577 60.2042 309.004 60.2684 309.511H59.258ZM58.0938 311.175C57.7025 311.175 57.3689 311.294 57.0931 311.531C56.8237 311.762 56.689 312.099 56.689 312.542C56.689 312.984 56.8141 313.337 57.0642 313.6C57.3208 313.857 57.6768 313.985 58.1323 313.985C58.5364 313.985 58.8539 313.86 59.0849 313.61C59.3222 313.359 59.4409 313.026 59.4409 312.609C59.4409 312.173 59.3254 311.826 59.0945 311.57C58.87 311.307 58.5364 311.175 58.0938 311.175Z" fill="#F8FAFC"/>
<path d="M127.452 310.001H116.456L119.501 306.617" stroke="white" stroke-width="0.845886"/>
<path d="M116.456 314.23L127.452 314.23L124.407 317.614" stroke="white" stroke-width="0.845886"/>
<path d="M164.745 283.215V288.036C164.745 288.632 164.562 289.104 164.196 289.45C163.837 289.797 163.362 289.97 162.772 289.97C162.182 289.97 161.704 289.797 161.339 289.45C160.979 289.104 160.8 288.632 160.8 288.036H161.906C161.913 288.331 161.986 288.565 162.128 288.738C162.275 288.911 162.49 288.998 162.772 288.998C163.054 288.998 163.269 288.911 163.417 288.738C163.564 288.559 163.638 288.324 163.638 288.036V283.215H164.745ZM172.293 283.215L169.781 289.902H168.511L165.99 283.215H167.164L169.146 288.777L171.138 283.215H172.293ZM175.413 289.97C174.964 289.97 174.56 289.893 174.201 289.739C173.842 289.579 173.56 289.354 173.354 289.065C173.149 288.777 173.046 288.44 173.046 288.055H174.22C174.246 288.344 174.358 288.581 174.557 288.767C174.762 288.953 175.048 289.046 175.413 289.046C175.792 289.046 176.087 288.956 176.299 288.777C176.51 288.591 176.616 288.353 176.616 288.065C176.616 287.84 176.549 287.657 176.414 287.516C176.286 287.375 176.122 287.266 175.923 287.189C175.731 287.112 175.462 287.029 175.115 286.939C174.679 286.823 174.323 286.708 174.047 286.593C173.778 286.471 173.547 286.285 173.354 286.034C173.162 285.784 173.066 285.451 173.066 285.034C173.066 284.649 173.162 284.312 173.354 284.023C173.547 283.735 173.816 283.513 174.163 283.36C174.509 283.206 174.91 283.129 175.365 283.129C176.013 283.129 176.542 283.292 176.953 283.619C177.37 283.94 177.601 284.383 177.646 284.947H176.433C176.414 284.703 176.299 284.495 176.087 284.322C175.875 284.149 175.596 284.062 175.25 284.062C174.936 284.062 174.679 284.142 174.48 284.302C174.281 284.463 174.182 284.694 174.182 284.995C174.182 285.201 174.243 285.371 174.365 285.505C174.493 285.634 174.653 285.736 174.846 285.813C175.038 285.89 175.301 285.974 175.635 286.063C176.077 286.185 176.437 286.307 176.712 286.429C176.995 286.551 177.232 286.74 177.424 286.997C177.623 287.247 177.723 287.584 177.723 288.007C177.723 288.347 177.63 288.668 177.444 288.969C177.264 289.271 176.998 289.514 176.645 289.7C176.299 289.88 175.888 289.97 175.413 289.97Z" fill="white" fill-opacity="0.5"/>
<path d="M191.452 286.266C191.491 286.266 191.531 286.264 191.57 286.26C192.264 286.201 192.809 285.618 192.809 284.908V282.762C192.809 282.012 192.201 281.404 191.452 281.404H189.305C188.595 281.404 188.013 281.949 187.953 282.643C187.949 282.682 187.947 282.722 187.947 282.762V283.977V285.026H186.674V282.762C186.674 282.722 186.673 282.682 186.669 282.643C186.609 281.949 186.027 281.404 185.317 281.404H183.17C182.421 281.404 181.813 282.012 181.813 282.762V284.908C181.813 285.618 182.358 286.201 183.052 286.26C183.091 286.264 183.13 286.266 183.17 286.266H185.435V287.539H183.17C183.13 287.539 183.091 287.541 183.052 287.544C182.358 287.604 181.813 288.187 181.813 288.897V291.043C181.813 291.793 182.421 292.401 183.17 292.401H185.317C186.027 292.401 186.609 291.856 186.669 291.161C186.673 291.123 186.674 291.083 186.674 291.043V288.778H187.947V291.043C187.947 291.083 187.949 291.123 187.953 291.161C188.013 291.856 188.595 292.401 189.305 292.401H191.452C192.201 292.401 192.809 291.793 192.809 291.043V288.897C192.809 288.187 192.264 287.604 191.57 287.544C191.531 287.541 191.491 287.539 191.452 287.539H189.187V286.266H191.452ZM189.187 283.977V282.762C189.187 282.696 189.24 282.643 189.305 282.643H191.452C191.517 282.643 191.57 282.696 191.57 282.762V284.908C191.57 284.973 191.517 285.026 191.452 285.026H189.187V283.977ZM183.17 285.026C183.105 285.026 183.052 284.973 183.052 284.908V282.762C183.052 282.696 183.105 282.643 183.17 282.643H185.317C185.382 282.643 185.435 282.696 185.435 282.762V285.026H183.17ZM185.435 291.043C185.435 291.108 185.382 291.161 185.317 291.161H183.17C183.105 291.161 183.052 291.108 183.052 291.043V288.897C183.052 288.831 183.105 288.778 183.17 288.778H185.435V291.043ZM191.452 288.778C191.517 288.778 191.57 288.831 191.57 288.897V291.043C191.57 291.108 191.517 291.161 191.452 291.161H189.305C189.24 291.161 189.187 291.108 189.187 291.043V288.778H191.452ZM187.947 287.539H186.674V286.266H187.947V287.539Z" fill="white"/>
<path d="M186.674 288.778V291.043C186.674 291.083 186.673 291.123 186.669 291.162H185.317C185.382 291.162 185.435 291.108 185.435 291.043V288.778H186.674Z" fill="white"/>
<path d="M186.675 283.696H185.435V287.539H186.675V283.696Z" fill="white"/>
<path d="M189.305 291.161H187.952C187.949 291.122 187.947 291.083 187.947 291.043V286.266H189.187V291.043C189.187 291.108 189.24 291.161 189.305 291.161Z" fill="white"/>
<path d="M191.57 284.908V286.26C191.531 286.264 191.492 286.265 191.452 286.265H186.675V285.026H191.452C191.517 285.026 191.57 284.973 191.57 284.908Z" fill="white"/>
<path d="M191.57 287.544V288.897C191.57 288.831 191.517 288.778 191.451 288.778H189.187V287.539H191.451C191.491 287.539 191.531 287.541 191.57 287.544Z" fill="white"/>
<path d="M187.948 287.539H184.82V288.778H187.948V287.539Z" fill="white"/>
<path d="M190.378 281.404H189.305C188.595 281.404 188.012 281.949 187.952 282.643C187.949 282.682 187.947 282.722 187.947 282.762V283.977V285.026H189.187V283.977V282.762C189.187 282.696 189.24 282.643 189.305 282.643H190.378V281.404Z" fill="white"/>
<path d="M183.052 284.908V282.767H181.813V284.908C181.813 285.618 182.358 286.2 183.052 286.26C183.091 286.264 183.13 286.265 183.17 286.265H185.435V285.026H183.17C183.105 285.026 183.052 284.973 183.052 284.908Z" fill="white"/>
<path d="M135.699 303.524C135.699 301.247 137.546 299.401 139.823 299.401H213.362C215.64 299.401 217.486 301.247 217.486 303.524V320.274C217.486 322.551 215.64 324.397 213.362 324.397H139.823C137.546 324.397 135.699 322.551 135.699 320.274V303.524Z" fill="white" fill-opacity="0.1"/>
<path d="M139.823 299.057C137.356 299.057 135.356 301.057 135.356 303.524V320.274C135.356 322.741 137.356 324.741 139.823 324.741H213.362C215.83 324.741 217.83 322.741 217.83 320.274V303.524C217.83 301.057 215.83 299.057 213.362 299.057H139.823Z" stroke="white" stroke-opacity="0.5" stroke-width="0.687282"/>
<path d="M149.047 308.827H145.823V310.742C145.958 310.563 146.157 310.412 146.42 310.29C146.689 310.168 146.975 310.107 147.276 310.107C147.815 310.107 148.251 310.223 148.585 310.454C148.925 310.685 149.165 310.976 149.306 311.329C149.454 311.682 149.528 312.054 149.528 312.445C149.528 312.92 149.435 313.343 149.249 313.715C149.069 314.081 148.796 314.37 148.431 314.581C148.071 314.793 147.629 314.899 147.103 314.899C146.404 314.899 145.842 314.726 145.419 314.379C144.996 314.033 144.742 313.574 144.659 313.003H145.727C145.798 313.305 145.955 313.545 146.198 313.725C146.442 313.898 146.747 313.985 147.113 313.985C147.568 313.985 147.908 313.847 148.132 313.571C148.363 313.295 148.479 312.93 148.479 312.474C148.479 312.012 148.363 311.66 148.132 311.416C147.902 311.166 147.562 311.041 147.113 311.041C146.798 311.041 146.532 311.121 146.314 311.281C146.102 311.435 145.948 311.647 145.852 311.916H144.813V307.865H149.047V308.827ZM150.669 311.3C150.669 310.191 150.855 309.325 151.228 308.702C151.606 308.074 152.254 307.759 153.171 307.759C154.088 307.759 154.733 308.074 155.105 308.702C155.484 309.325 155.673 310.191 155.673 311.3C155.673 312.423 155.484 313.302 155.105 313.937C154.733 314.565 154.088 314.88 153.171 314.88C152.254 314.88 151.606 314.565 151.228 313.937C150.855 313.302 150.669 312.423 150.669 311.3ZM154.595 311.3C154.595 310.781 154.56 310.341 154.489 309.982C154.425 309.623 154.291 309.331 154.085 309.107C153.88 308.876 153.575 308.76 153.171 308.76C152.767 308.76 152.462 308.876 152.257 309.107C152.052 309.331 151.914 309.623 151.843 309.982C151.779 310.341 151.747 310.781 151.747 311.3C151.747 311.839 151.779 312.291 151.843 312.657C151.907 313.023 152.042 313.318 152.247 313.542C152.459 313.767 152.767 313.879 153.171 313.879C153.575 313.879 153.88 313.767 154.085 313.542C154.297 313.318 154.435 313.023 154.499 312.657C154.563 312.291 154.595 311.839 154.595 311.3Z" fill="#F8FAFC"/>
<rect x="19.5488" y="345.016" width="204.81" height="27.4913" rx="5.49826" fill="url(#paint33_linear_1219_10800)"/>
<path d="M55.1807 358.317C55.5591 358.387 55.8702 358.576 56.114 358.884C56.3577 359.192 56.4796 359.545 56.4796 359.943C56.4796 360.302 56.3898 360.62 56.2102 360.895C56.037 361.165 55.7836 361.376 55.4501 361.53C55.1165 361.684 54.722 361.761 54.2666 361.761H51.3704V355.045H54.1415C54.5969 355.045 54.9882 355.119 55.3154 355.267C55.6489 355.414 55.8991 355.619 56.0659 355.882C56.2391 356.145 56.3257 356.444 56.3257 356.777C56.3257 357.168 56.2198 357.496 56.0081 357.759C55.8029 358.022 55.527 358.208 55.1807 358.317ZM52.7174 357.816H53.949C54.2698 357.816 54.5167 357.746 54.6899 357.605C54.8631 357.457 54.9497 357.249 54.9497 356.979C54.9497 356.71 54.8631 356.501 54.6899 356.354C54.5167 356.206 54.2698 356.133 53.949 356.133H52.7174V357.816ZM54.0741 360.664C54.4013 360.664 54.6547 360.587 54.8343 360.434C55.0203 360.28 55.1133 360.061 55.1133 359.779C55.1133 359.491 55.0171 359.266 54.8246 359.106C54.6322 358.939 54.3724 358.856 54.0453 358.856H52.7174V360.664H54.0741ZM62.5855 356.431V361.761H61.2288V361.088C61.0556 361.319 60.8279 361.502 60.5456 361.636C60.2698 361.765 59.9683 361.829 59.6412 361.829C59.2242 361.829 58.8554 361.742 58.5347 361.569C58.2139 361.389 57.9605 361.13 57.7745 360.79C57.5949 360.443 57.5051 360.033 57.5051 359.558V356.431H58.8522V359.365C58.8522 359.789 58.958 360.116 59.1697 360.347C59.3814 360.571 59.67 360.684 60.0357 360.684C60.4077 360.684 60.6996 360.571 60.9113 360.347C61.123 360.116 61.2288 359.789 61.2288 359.365V356.431H62.5855ZM69.0142 356.431L65.7139 364.282H64.2802L65.4349 361.627L63.2988 356.431H64.8094L66.1854 360.154L67.5806 356.431H69.0142Z" fill="white"/>
<path d="M82.0944 358.125C82.1343 358.125 82.1739 358.123 82.2128 358.119C82.9072 358.06 83.4521 357.477 83.4521 356.767V354.621C83.4521 353.871 82.8442 353.263 82.0944 353.263H79.948C79.2382 353.263 78.6554 353.808 78.5955 354.502C78.5921 354.541 78.5903 354.581 78.5903 354.621V355.836V356.885H77.3173V354.621C77.3173 354.581 77.3156 354.541 77.3122 354.502C77.2523 353.808 76.6695 353.263 75.9596 353.263H73.8133C73.0635 353.263 72.4556 353.871 72.4556 354.621V356.767C72.4556 357.477 73.0005 358.06 73.6949 358.119C73.7338 358.123 73.7733 358.125 73.8133 358.125H76.0781V359.398H73.8133C73.7733 359.398 73.7338 359.4 73.6949 359.403C73.0005 359.463 72.4556 360.046 72.4556 360.756V362.902C72.4556 363.652 73.0635 364.26 73.8133 364.26H75.9596C76.6695 364.26 77.2523 363.715 77.3122 363.02C77.3156 362.982 77.3173 362.942 77.3173 362.902V360.637H78.5903V362.902C78.5903 362.942 78.5921 362.982 78.5955 363.02C78.6554 363.715 79.2382 364.26 79.948 364.26H82.0944C82.8442 364.26 83.4521 363.652 83.4521 362.902V360.756C83.4521 360.046 82.9072 359.463 82.2128 359.403C82.1739 359.4 82.1343 359.398 82.0944 359.398H79.8296V358.125H82.0944ZM79.8296 355.836V354.621C79.8296 354.555 79.883 354.502 79.948 354.502H82.0944C82.1598 354.502 82.2128 354.555 82.2128 354.621V356.767C82.2128 356.832 82.1598 356.885 82.0944 356.885H79.8296V355.836ZM73.8133 356.885C73.7479 356.885 73.6949 356.832 73.6949 356.767V354.621C73.6949 354.555 73.7479 354.502 73.8133 354.502H75.9596C76.0247 354.502 76.0781 354.555 76.0781 354.621V356.885H73.8133ZM76.0781 362.902C76.0781 362.967 76.0247 363.02 75.9596 363.02H73.8133C73.7479 363.02 73.6949 362.967 73.6949 362.902V360.756C73.6949 360.69 73.7479 360.637 73.8133 360.637H76.0781V362.902ZM82.0944 360.637C82.1598 360.637 82.2128 360.69 82.2128 360.756V362.902C82.2128 362.967 82.1598 363.02 82.0944 363.02H79.948C79.883 363.02 79.8296 362.967 79.8296 362.902V360.637H82.0944ZM78.5903 359.398H77.3173V358.125H78.5903V359.398Z" fill="white"/>
<path d="M77.3172 360.637V362.902C77.3172 362.942 77.3155 362.982 77.312 363.021H75.9595C76.0245 363.021 76.0779 362.967 76.0779 362.902V360.637H77.3172Z" fill="white"/>
<path d="M77.3174 355.555H76.0781V359.398H77.3174V355.555Z" fill="white"/>
<path d="M79.9477 363.02H78.5952C78.5917 362.981 78.59 362.942 78.59 362.902V358.125H79.8293V362.902C79.8293 362.967 79.8827 363.02 79.9477 363.02Z" fill="white"/>
<path d="M82.213 356.767V358.119C82.1741 358.123 82.1345 358.124 82.0945 358.124H77.3175V356.885H82.0945C82.1599 356.885 82.213 356.832 82.213 356.767Z" fill="white"/>
<path d="M82.2127 359.403V360.756C82.2127 360.69 82.1597 360.637 82.0942 360.637H79.8295V359.398H82.0942C82.1342 359.398 82.1738 359.4 82.2127 359.403Z" fill="white"/>
<path d="M78.5904 359.398H75.4633V360.637H78.5904V359.398Z" fill="white"/>
<path d="M81.0207 353.263H79.9477C79.2379 353.263 78.6551 353.808 78.5952 354.502C78.5917 354.541 78.59 354.581 78.59 354.621V355.836V356.885H79.8293V355.836V354.621C79.8293 354.555 79.8827 354.502 79.9477 354.502H81.0207V353.263Z" fill="white"/>
<path d="M73.6948 356.767V354.626H72.4556V356.767C72.4556 357.477 73.0005 358.059 73.6948 358.119C73.7337 358.123 73.7733 358.124 73.8132 358.124H76.078V356.885H73.8132C73.7478 356.885 73.6948 356.832 73.6948 356.767Z" fill="white"/>
<path d="M86.7304 356.594C86.7625 355.953 86.987 355.459 87.404 355.113C87.8273 354.76 88.3822 354.583 89.0686 354.583C89.5368 354.583 89.9378 354.667 90.2713 354.834C90.6049 354.994 90.855 355.215 91.0218 355.497C91.195 355.773 91.2816 356.088 91.2816 356.44C91.2816 356.845 91.1758 357.188 90.9641 357.47C90.7588 357.746 90.5119 357.932 90.2232 358.028V358.067C90.5953 358.182 90.8839 358.387 91.0892 358.682C91.3009 358.977 91.4067 359.356 91.4067 359.818C91.4067 360.203 91.3169 360.546 91.1373 360.847C90.9641 361.149 90.7043 361.386 90.3579 361.559C90.0179 361.726 89.6074 361.809 89.1263 361.809C88.4015 361.809 87.8113 361.627 87.3559 361.261C86.9004 360.895 86.6599 360.357 86.6342 359.645H87.9428C87.9556 359.959 88.0615 360.212 88.2603 360.405C88.4656 360.591 88.7446 360.684 89.0974 360.684C89.4246 360.684 89.6748 360.594 89.848 360.414C90.0276 360.228 90.1174 359.991 90.1174 359.702C90.1174 359.317 89.9955 359.042 89.7517 358.875C89.508 358.708 89.1295 358.625 88.6163 358.625H88.3373V357.518H88.6163C89.5272 357.518 89.9827 357.213 89.9827 356.604C89.9827 356.328 89.8993 356.113 89.7325 355.959C89.5721 355.805 89.338 355.728 89.0301 355.728C88.7286 355.728 88.4945 355.812 88.3277 355.979C88.1673 356.139 88.0743 356.344 88.0486 356.594H86.7304ZM93.6451 358.047C93.0036 357.714 92.6829 357.197 92.6829 356.498C92.6829 356.152 92.7695 355.837 92.9427 355.555C93.1223 355.267 93.3885 355.039 93.7413 354.872C94.1005 354.699 94.5367 354.612 95.0499 354.612C95.5631 354.612 95.9961 354.699 96.3489 354.872C96.7081 355.039 96.9743 355.267 97.1475 355.555C97.3271 355.837 97.4169 356.152 97.4169 356.498C97.4169 356.851 97.3303 357.162 97.1571 357.431C96.9839 357.694 96.753 357.9 96.4643 358.047C96.8171 358.201 97.093 358.426 97.2918 358.721C97.4907 359.016 97.5901 359.365 97.5901 359.77C97.5901 360.206 97.4778 360.587 97.2533 360.915C97.0352 361.235 96.7337 361.482 96.3489 361.656C95.964 361.829 95.531 361.915 95.0499 361.915C94.5688 361.915 94.1358 361.829 93.7509 361.656C93.3725 361.482 93.071 361.235 92.8465 360.915C92.6284 360.587 92.5193 360.206 92.5193 359.77C92.5193 359.365 92.6187 359.016 92.8176 358.721C93.0165 358.419 93.2923 358.195 93.6451 358.047ZM96.1083 356.691C96.1083 356.376 96.0121 356.133 95.8197 355.959C95.6336 355.786 95.377 355.7 95.0499 355.7C94.7292 355.7 94.4726 355.786 94.2801 355.959C94.0941 356.133 94.0011 356.379 94.0011 356.7C94.0011 356.989 94.0973 357.22 94.2898 357.393C94.4886 357.566 94.742 357.653 95.0499 357.653C95.3578 357.653 95.6112 357.566 95.81 357.393C96.0089 357.213 96.1083 356.979 96.1083 356.691ZM95.0499 358.634C94.6843 358.634 94.386 358.727 94.1551 358.913C93.9305 359.099 93.8183 359.365 93.8183 359.712C93.8183 360.033 93.9273 360.296 94.1454 360.501C94.3699 360.7 94.6714 360.799 95.0499 360.799C95.4284 360.799 95.7266 360.697 95.9447 360.491C96.1628 360.286 96.2719 360.026 96.2719 359.712C96.2719 359.372 96.1596 359.109 95.9351 358.923C95.7106 358.73 95.4155 358.634 95.0499 358.634ZM100.28 360.347L99.1544 363.051H98.2884L98.9139 360.347H100.28ZM101.039 360.395V359.337L104.186 354.834H105.754V359.221H106.601V360.395H105.754V361.761H104.407V360.395H101.039ZM104.494 356.277L102.521 359.221H104.494V356.277ZM111.096 356.498C111.031 356.229 110.919 356.027 110.759 355.892C110.605 355.757 110.38 355.69 110.085 355.69C109.643 355.69 109.316 355.87 109.104 356.229C108.899 356.582 108.793 357.159 108.786 357.961C108.94 357.704 109.165 357.505 109.46 357.364C109.755 357.217 110.076 357.143 110.422 357.143C110.839 357.143 111.208 357.233 111.529 357.412C111.849 357.592 112.1 357.855 112.279 358.201C112.459 358.541 112.549 358.952 112.549 359.433C112.549 359.888 112.456 360.296 112.27 360.655C112.09 361.008 111.824 361.283 111.471 361.482C111.118 361.681 110.698 361.781 110.21 361.781C109.543 361.781 109.017 361.633 108.632 361.338C108.254 361.043 107.988 360.632 107.834 360.106C107.686 359.574 107.612 358.92 107.612 358.143C107.612 356.97 107.815 356.084 108.219 355.488C108.623 354.885 109.261 354.583 110.133 354.583C110.807 354.583 111.33 354.766 111.702 355.132C112.074 355.497 112.289 355.953 112.346 356.498H111.096ZM110.114 358.249C109.774 358.249 109.489 358.349 109.258 358.548C109.027 358.746 108.911 359.035 108.911 359.414C108.911 359.792 109.017 360.09 109.229 360.308C109.447 360.527 109.752 360.636 110.143 360.636C110.489 360.636 110.762 360.53 110.961 360.318C111.166 360.106 111.269 359.821 111.269 359.462C111.269 359.09 111.169 358.795 110.971 358.576C110.778 358.358 110.493 358.249 110.114 358.249ZM115.713 359.096C115.713 358.544 115.826 358.063 116.05 357.653C116.275 357.236 116.586 356.915 116.984 356.691C117.381 356.46 117.837 356.344 118.35 356.344C119.011 356.344 119.556 356.511 119.986 356.845C120.422 357.172 120.714 357.634 120.861 358.23H119.408C119.331 357.999 119.2 357.82 119.014 357.691C118.834 357.557 118.61 357.489 118.34 357.489C117.955 357.489 117.651 357.63 117.426 357.913C117.202 358.188 117.089 358.583 117.089 359.096C117.089 359.603 117.202 359.997 117.426 360.28C117.651 360.555 117.955 360.693 118.34 360.693C118.886 360.693 119.242 360.45 119.408 359.962H120.861C120.714 360.539 120.422 360.998 119.986 361.338C119.549 361.678 119.004 361.848 118.35 361.848C117.837 361.848 117.381 361.736 116.984 361.511C116.586 361.28 116.275 360.96 116.05 360.549C115.826 360.132 115.713 359.648 115.713 359.096ZM124.215 361.848C123.702 361.848 123.24 361.736 122.83 361.511C122.419 361.28 122.095 360.956 121.858 360.539C121.627 360.122 121.511 359.641 121.511 359.096C121.511 358.551 121.63 358.07 121.867 357.653C122.111 357.236 122.441 356.915 122.858 356.691C123.275 356.46 123.74 356.344 124.254 356.344C124.767 356.344 125.232 356.46 125.649 356.691C126.066 356.915 126.393 357.236 126.63 357.653C126.874 358.07 126.996 358.551 126.996 359.096C126.996 359.641 126.871 360.122 126.621 360.539C126.377 360.956 126.043 361.28 125.62 361.511C125.203 361.736 124.735 361.848 124.215 361.848ZM124.215 360.674C124.459 360.674 124.687 360.616 124.898 360.501C125.116 360.379 125.29 360.199 125.418 359.962C125.546 359.725 125.61 359.436 125.61 359.096C125.61 358.589 125.476 358.201 125.206 357.932C124.943 357.656 124.619 357.518 124.234 357.518C123.849 357.518 123.526 357.656 123.263 357.932C123.006 358.201 122.878 358.589 122.878 359.096C122.878 359.603 123.003 359.994 123.253 360.27C123.509 360.539 123.83 360.674 124.215 360.674ZM128.667 355.796C128.43 355.796 128.231 355.722 128.071 355.574C127.917 355.42 127.84 355.231 127.84 355.007C127.84 354.782 127.917 354.596 128.071 354.449C128.231 354.295 128.43 354.218 128.667 354.218C128.904 354.218 129.1 354.295 129.254 354.449C129.414 354.596 129.495 354.782 129.495 355.007C129.495 355.231 129.414 355.42 129.254 355.574C129.1 355.722 128.904 355.796 128.667 355.796ZM129.331 356.431V361.761H127.984V356.431H129.331ZM133.616 356.354C134.251 356.354 134.764 356.556 135.155 356.96C135.547 357.358 135.742 357.916 135.742 358.634V361.761H134.395V358.817C134.395 358.394 134.289 358.07 134.078 357.845C133.866 357.614 133.577 357.499 133.212 357.499C132.84 357.499 132.545 357.614 132.327 357.845C132.115 358.07 132.009 358.394 132.009 358.817V361.761H130.662V356.431H132.009V357.095C132.189 356.864 132.416 356.684 132.692 356.556C132.974 356.421 133.282 356.354 133.616 356.354ZM139.063 361.848C138.627 361.848 138.236 361.771 137.889 361.617C137.543 361.457 137.267 361.242 137.062 360.972C136.863 360.703 136.754 360.405 136.735 360.078H138.091C138.117 360.283 138.216 360.453 138.39 360.587C138.569 360.722 138.791 360.79 139.054 360.79C139.31 360.79 139.509 360.738 139.65 360.636C139.798 360.533 139.871 360.401 139.871 360.241C139.871 360.068 139.782 359.94 139.602 359.856C139.429 359.766 139.15 359.67 138.765 359.568C138.367 359.471 138.04 359.372 137.783 359.269C137.533 359.167 137.315 359.009 137.129 358.798C136.95 358.586 136.86 358.301 136.86 357.941C136.86 357.646 136.943 357.377 137.11 357.133C137.283 356.889 137.527 356.697 137.841 356.556C138.162 356.415 138.537 356.344 138.967 356.344C139.602 356.344 140.109 356.505 140.487 356.825C140.866 357.14 141.074 357.566 141.113 358.105H139.823C139.804 357.893 139.714 357.727 139.554 357.605C139.4 357.476 139.191 357.412 138.928 357.412C138.685 357.412 138.495 357.457 138.361 357.547C138.232 357.637 138.168 357.762 138.168 357.922C138.168 358.102 138.258 358.24 138.438 358.336C138.617 358.426 138.896 358.519 139.275 358.615C139.66 358.711 139.977 358.811 140.227 358.913C140.478 359.016 140.692 359.176 140.872 359.394C141.058 359.606 141.154 359.888 141.161 360.241C141.161 360.549 141.074 360.825 140.901 361.069C140.734 361.312 140.49 361.505 140.17 361.646C139.855 361.781 139.487 361.848 139.063 361.848ZM147.003 357.537H146.07V361.761H144.704V357.537H144.097V356.431H144.704V356.161C144.704 355.507 144.89 355.026 145.262 354.718C145.634 354.41 146.195 354.266 146.946 354.285V355.42C146.618 355.414 146.391 355.469 146.262 355.584C146.134 355.7 146.07 355.908 146.07 356.209V356.431H147.003V357.537ZM150.243 361.848C149.73 361.848 149.268 361.736 148.858 361.511C148.447 361.28 148.123 360.956 147.886 360.539C147.655 360.122 147.539 359.641 147.539 359.096C147.539 358.551 147.658 358.07 147.895 357.653C148.139 357.236 148.47 356.915 148.887 356.691C149.303 356.46 149.769 356.344 150.282 356.344C150.795 356.344 151.26 356.46 151.677 356.691C152.094 356.915 152.421 357.236 152.658 357.653C152.902 358.07 153.024 358.551 153.024 359.096C153.024 359.641 152.899 360.122 152.649 360.539C152.405 360.956 152.071 361.28 151.648 361.511C151.231 361.736 150.763 361.848 150.243 361.848ZM150.243 360.674C150.487 360.674 150.715 360.616 150.926 360.501C151.144 360.379 151.318 360.199 151.446 359.962C151.574 359.725 151.638 359.436 151.638 359.096C151.638 358.589 151.504 358.201 151.234 357.932C150.971 357.656 150.647 357.518 150.262 357.518C149.878 357.518 149.554 357.656 149.291 357.932C149.034 358.201 148.906 358.589 148.906 359.096C148.906 359.603 149.031 359.994 149.281 360.27C149.538 360.539 149.858 360.674 150.243 360.674ZM155.359 357.258C155.532 356.976 155.757 356.755 156.033 356.594C156.315 356.434 156.636 356.354 156.995 356.354V357.768H156.639C156.216 357.768 155.895 357.868 155.677 358.067C155.465 358.265 155.359 358.612 155.359 359.106V361.761H154.012V356.431H155.359V357.258ZM164.987 359.827C164.987 360.161 164.9 360.475 164.727 360.77C164.56 361.059 164.31 361.299 163.976 361.492C163.649 361.678 163.261 361.787 162.812 361.819V362.598H162.196V361.809C161.555 361.752 161.038 361.559 160.647 361.232C160.256 360.899 160.054 360.45 160.041 359.885H161.484C161.523 360.347 161.76 360.626 162.196 360.722V358.884C161.734 358.769 161.362 358.653 161.08 358.538C160.798 358.423 160.554 358.237 160.349 357.98C160.144 357.723 160.041 357.374 160.041 356.931C160.041 356.373 160.24 355.918 160.638 355.565C161.042 355.212 161.561 355.01 162.196 354.959V354.179H162.812V354.959C163.428 355.01 163.919 355.196 164.284 355.517C164.656 355.837 164.865 356.28 164.91 356.845H163.457C163.438 356.659 163.37 356.498 163.255 356.363C163.146 356.222 162.998 356.123 162.812 356.065V357.884C163.293 358.006 163.672 358.124 163.947 358.24C164.23 358.349 164.473 358.532 164.679 358.788C164.884 359.038 164.987 359.385 164.987 359.827ZM161.446 356.864C161.446 357.075 161.51 357.249 161.638 357.383C161.767 357.512 161.953 357.617 162.196 357.701V356.036C161.965 356.068 161.783 356.155 161.648 356.296C161.513 356.437 161.446 356.626 161.446 356.864ZM162.812 360.741C163.056 360.697 163.245 360.597 163.38 360.443C163.521 360.289 163.591 360.103 163.591 359.885C163.591 359.673 163.524 359.503 163.389 359.375C163.255 359.247 163.062 359.141 162.812 359.058V360.741ZM171.051 355.911H167.934V357.557C168.069 357.39 168.261 357.255 168.511 357.152C168.761 357.043 169.028 356.989 169.31 356.989C169.823 356.989 170.243 357.101 170.57 357.326C170.897 357.55 171.135 357.839 171.282 358.192C171.43 358.538 171.504 358.91 171.504 359.308C171.504 360.045 171.292 360.639 170.869 361.088C170.452 361.537 169.855 361.761 169.079 361.761C168.348 361.761 167.764 361.579 167.328 361.213C166.891 360.847 166.644 360.369 166.587 359.779H167.895C167.953 360.036 168.081 360.241 168.28 360.395C168.485 360.549 168.745 360.626 169.06 360.626C169.438 360.626 169.724 360.507 169.916 360.27C170.108 360.033 170.205 359.718 170.205 359.327C170.205 358.929 170.105 358.628 169.906 358.423C169.714 358.211 169.428 358.105 169.05 358.105C168.781 358.105 168.556 358.172 168.376 358.307C168.197 358.442 168.069 358.621 167.992 358.846H166.702V354.728H171.051V355.911ZM172.529 358.163C172.529 357.053 172.728 356.184 173.125 355.555C173.53 354.927 174.197 354.612 175.127 354.612C176.057 354.612 176.721 354.927 177.119 355.555C177.523 356.184 177.725 357.053 177.725 358.163C177.725 359.279 177.523 360.154 177.119 360.79C176.721 361.425 176.057 361.742 175.127 361.742C174.197 361.742 173.53 361.425 173.125 360.79C172.728 360.154 172.529 359.279 172.529 358.163ZM176.397 358.163C176.397 357.688 176.365 357.29 176.301 356.97C176.243 356.642 176.121 356.376 175.935 356.171C175.755 355.966 175.486 355.863 175.127 355.863C174.768 355.863 174.495 355.966 174.309 356.171C174.129 356.376 174.007 356.642 173.943 356.97C173.886 357.29 173.857 357.688 173.857 358.163C173.857 358.65 173.886 359.061 173.943 359.394C174.001 359.721 174.123 359.988 174.309 360.193C174.495 360.392 174.768 360.491 175.127 360.491C175.486 360.491 175.759 360.392 175.945 360.193C176.131 359.988 176.253 359.721 176.31 359.394C176.368 359.061 176.397 358.65 176.397 358.163ZM179.5 361.829C179.256 361.829 179.054 361.755 178.894 361.607C178.74 361.453 178.663 361.264 178.663 361.04C178.663 360.815 178.74 360.629 178.894 360.482C179.054 360.328 179.256 360.251 179.5 360.251C179.737 360.251 179.933 360.328 180.087 360.482C180.241 360.629 180.318 360.815 180.318 361.04C180.318 361.264 180.241 361.453 180.087 361.607C179.933 361.755 179.737 361.829 179.5 361.829ZM181.249 358.163C181.249 357.053 181.448 356.184 181.845 355.555C182.249 354.927 182.917 354.612 183.847 354.612C184.777 354.612 185.441 354.927 185.838 355.555C186.243 356.184 186.445 357.053 186.445 358.163C186.445 359.279 186.243 360.154 185.838 360.79C185.441 361.425 184.777 361.742 183.847 361.742C182.917 361.742 182.249 361.425 181.845 360.79C181.448 360.154 181.249 359.279 181.249 358.163ZM185.117 358.163C185.117 357.688 185.085 357.29 185.021 356.97C184.963 356.642 184.841 356.376 184.655 356.171C184.475 355.966 184.206 355.863 183.847 355.863C183.487 355.863 183.215 355.966 183.029 356.171C182.849 356.376 182.727 356.642 182.663 356.97C182.605 357.29 182.577 357.688 182.577 358.163C182.577 358.65 182.605 359.061 182.663 359.394C182.721 359.721 182.843 359.988 183.029 360.193C183.215 360.392 183.487 360.491 183.847 360.491C184.206 360.491 184.479 360.392 184.665 360.193C184.851 359.988 184.972 359.721 185.03 359.394C185.088 359.061 185.117 358.65 185.117 358.163ZM187.469 358.163C187.469 357.053 187.668 356.184 188.066 355.555C188.47 354.927 189.137 354.612 190.067 354.612C190.997 354.612 191.661 354.927 192.059 355.555C192.463 356.184 192.665 357.053 192.665 358.163C192.665 359.279 192.463 360.154 192.059 360.79C191.661 361.425 190.997 361.742 190.067 361.742C189.137 361.742 188.47 361.425 188.066 360.79C187.668 360.154 187.469 359.279 187.469 358.163ZM191.337 358.163C191.337 357.688 191.305 357.29 191.241 356.97C191.183 356.642 191.061 356.376 190.875 356.171C190.696 355.966 190.426 355.863 190.067 355.863C189.708 355.863 189.435 355.966 189.249 356.171C189.07 356.376 188.948 356.642 188.884 356.97C188.826 357.29 188.797 357.688 188.797 358.163C188.797 358.65 188.826 359.061 188.884 359.394C188.941 359.721 189.063 359.988 189.249 360.193C189.435 360.392 189.708 360.491 190.067 360.491C190.426 360.491 190.699 360.392 190.885 360.193C191.071 359.988 191.193 359.721 191.251 359.394C191.308 359.061 191.337 358.65 191.337 358.163Z" fill="white"/>
</g>
<path d="M245.206 323.023C245.206 325.047 243.565 326.688 241.541 326.688C239.517 326.688 237.875 325.047 237.875 323.023C237.875 320.998 239.517 319.357 241.541 319.357C243.565 319.357 245.206 320.998 245.206 323.023ZM404.427 279.036V302.404H403.052V279.036H404.427ZM383.121 323.71H241.541V322.335H383.121V323.71ZM404.427 302.404C404.427 314.171 394.888 323.71 383.121 323.71V322.335C394.129 322.335 403.052 313.412 403.052 302.404H404.427Z" fill="#FBBE7E"/>
<rect x="310.956" y="303.091" width="39.1751" height="39.1751" rx="19.5875" fill="#FBBE7E"/>
<path d="M323.123 322.79L327.992 327.322L337.578 317.968" stroke="#000223" stroke-width="1.95875" stroke-miterlimit="10"/>
<defs>
<filter id="filter0_d_1219_10800" x="0.304879" y="79.6455" width="243.298" height="316.916" filterUnits="userSpaceOnUse" color-interpolation-filters="sRGB">
<feFlood flood-opacity="0" result="BackgroundImageFix"/>
<feColorMatrix in="SourceAlpha" type="matrix" values="0 0 0 0 0 0 0 0 0 0 0 0 0 0 0 0 0 0 127 0" result="hardAlpha"/>
<feOffset dy="0.687282"/>
<feGaussianBlur stdDeviation="0.687282"/>
<feComposite in2="hardAlpha" operator="out"/>
<feColorMatrix type="matrix" values="0 0 0 0 0 0 0 0 0 0 0 0 0 0 0 0 0 0 0.05 0"/>
<feBlend mode="normal" in2="BackgroundImageFix" result="effect1_dropShadow_1219_10800"/>
<feBlend mode="normal" in="SourceGraphic" in2="effect1_dropShadow_1219_10800" result="shape"/>
</filter>
<linearGradient id="paint0_linear_1219_10800" x1="395.587" y1="43.2988" x2="422.12" y2="104.032" gradientUnits="userSpaceOnUse">
<stop stop-color="#F56C8F"/>
<stop offset="1" stop-color="#EF7271"/>
</linearGradient>
<linearGradient id="paint1_linear_1219_10800" x1="409.256" y1="62.2546" x2="412.929" y2="50.0636" gradientUnits="userSpaceOnUse">
<stop stop-color="#FF6E75"/>
<stop offset="1" stop-color="#FBBE7E"/>
</linearGradient>
<linearGradient id="paint2_linear_1219_10800" x1="406.885" y1="61.0473" x2="408.076" y2="58.7952" gradientUnits="userSpaceOnUse">
<stop stop-color="#FF6E75"/>
<stop offset="1" stop-color="#FBBE7E"/>
</linearGradient>
<linearGradient id="paint3_linear_1219_10800" x1="406.932" y1="57.4193" x2="409.25" y2="54.938" gradientUnits="userSpaceOnUse">
<stop stop-color="#FF6E75"/>
<stop offset="1" stop-color="#FBBE7E"/>
</linearGradient>
<linearGradient id="paint4_linear_1219_10800" x1="409.516" y1="61.0378" x2="412.466" y2="58.3224" gradientUnits="userSpaceOnUse">
<stop stop-color="#FF6E75"/>
<stop offset="1" stop-color="#FBBE7E"/>
</linearGradient>
<linearGradient id="paint5_linear_1219_10800" x1="410.4" y1="56.1548" x2="410.536" y2="54.5244" gradientUnits="userSpaceOnUse">
<stop stop-color="#FF6E75"/>
<stop offset="1" stop-color="#FBBE7E"/>
</linearGradient>
<linearGradient id="paint6_linear_1219_10800" x1="411.38" y1="58.786" x2="411.654" y2="57.1912" gradientUnits="userSpaceOnUse">
<stop stop-color="#FF6E75"/>
<stop offset="1" stop-color="#FBBE7E"/>
</linearGradient>
<linearGradient id="paint7_linear_1219_10800" x1="407.468" y1="58.6681" x2="407.644" y2="57.1905" gradientUnits="userSpaceOnUse">
<stop stop-color="#FF6E75"/>
<stop offset="1" stop-color="#FBBE7E"/>
</linearGradient>
<linearGradient id="paint8_linear_1219_10800" x1="410.17" y1="54.9075" x2="411.807" y2="51.2621" gradientUnits="userSpaceOnUse">
<stop stop-color="#FF6E75"/>
<stop offset="1" stop-color="#FBBE7E"/>
</linearGradient>
<linearGradient id="paint9_linear_1219_10800" x1="404.762" y1="56.1468" x2="405.897" y2="52.2467" gradientUnits="userSpaceOnUse">
<stop stop-color="#FF6E75"/>
<stop offset="1" stop-color="#FBBE7E"/>
</linearGradient>
<radialGradient id="paint10_radial_1219_10800" cx="0" cy="0" r="1" gradientUnits="userSpaceOnUse" gradientTransform="translate(296.524 81.443) rotate(60.8006) scale(264.149 170.905)">
<stop stop-color="#FBBE7E"/>
<stop offset="1" stop-color="#FF6E75" stop-opacity="0"/>
</radialGradient>
<linearGradient id="paint11_linear_1219_10800" x1="384.754" y1="302.475" x2="455.103" y2="4.51239" gradientUnits="userSpaceOnUse">
<stop stop-color="#FF6E75"/>
<stop offset="1" stop-color="#FBBE7E"/>
</linearGradient>
<linearGradient id="paint12_linear_1219_10800" x1="148.288" y1="320.035" x2="-62.333" y2="76.8947" gradientUnits="userSpaceOnUse">
<stop offset="0.22549" stop-color="#FF6E75" stop-opacity="0"/>
<stop offset="1" stop-color="#FBBE7E"/>
</linearGradient>
<linearGradient id="paint13_linear_1219_10800" x1="148.288" y1="393.34" x2="277.735" y2="64.3672" gradientUnits="userSpaceOnUse">
<stop stop-color="#FF6E75"/>
<stop offset="1" stop-color="#FBBE7E"/>
</linearGradient>
<linearGradient id="paint14_linear_1219_10800" x1="101.634" y1="118.889" x2="107.144" y2="100.602" gradientUnits="userSpaceOnUse">
<stop stop-color="#FF6E75"/>
<stop offset="1" stop-color="#FBBE7E"/>
</linearGradient>
<linearGradient id="paint15_linear_1219_10800" x1="98.078" y1="117.078" x2="99.8645" y2="113.7" gradientUnits="userSpaceOnUse">
<stop stop-color="#FF6E75"/>
<stop offset="1" stop-color="#FBBE7E"/>
</linearGradient>
<linearGradient id="paint16_linear_1219_10800" x1="98.1479" y1="111.636" x2="101.625" y2="107.914" gradientUnits="userSpaceOnUse">
<stop stop-color="#FF6E75"/>
<stop offset="1" stop-color="#FBBE7E"/>
</linearGradient>
<linearGradient id="paint17_linear_1219_10800" x1="102.024" y1="117.064" x2="106.449" y2="112.991" gradientUnits="userSpaceOnUse">
<stop stop-color="#FF6E75"/>
<stop offset="1" stop-color="#FBBE7E"/>
</linearGradient>
<linearGradient id="paint18_linear_1219_10800" x1="103.35" y1="109.739" x2="103.554" y2="107.293" gradientUnits="userSpaceOnUse">
<stop stop-color="#FF6E75"/>
<stop offset="1" stop-color="#FBBE7E"/>
</linearGradient>
<linearGradient id="paint19_linear_1219_10800" x1="104.821" y1="113.686" x2="105.231" y2="111.294" gradientUnits="userSpaceOnUse">
<stop stop-color="#FF6E75"/>
<stop offset="1" stop-color="#FBBE7E"/>
</linearGradient>
<linearGradient id="paint20_linear_1219_10800" x1="98.9516" y1="113.509" x2="99.2162" y2="111.293" gradientUnits="userSpaceOnUse">
<stop stop-color="#FF6E75"/>
<stop offset="1" stop-color="#FBBE7E"/>
</linearGradient>
<linearGradient id="paint21_linear_1219_10800" x1="103.005" y1="107.868" x2="105.46" y2="102.4" gradientUnits="userSpaceOnUse">
<stop stop-color="#FF6E75"/>
<stop offset="1" stop-color="#FBBE7E"/>
</linearGradient>
<linearGradient id="paint22_linear_1219_10800" x1="94.8928" y1="109.727" x2="96.5949" y2="103.877" gradientUnits="userSpaceOnUse">
<stop stop-color="#FF6E75"/>
<stop offset="1" stop-color="#FBBE7E"/>
</linearGradient>
<linearGradient id="paint23_linear_1219_10800" x1="133.24" y1="249.281" x2="167.674" y2="134.991" gradientUnits="userSpaceOnUse">
<stop stop-color="#FF6E75"/>
<stop offset="1" stop-color="#FBBE7E"/>
</linearGradient>
<linearGradient id="paint24_linear_1219_10800" x1="118.682" y1="183.473" x2="115.854" y2="193.336" gradientUnits="userSpaceOnUse">
<stop stop-color="#F2C087"/>
<stop offset="0.9999" stop-color="#FF6E75"/>
<stop offset="1" stop-color="#FF6E75"/>
</linearGradient>
<linearGradient id="paint25_linear_1219_10800" x1="114.591" y1="190.254" x2="113.663" y2="192.1" gradientUnits="userSpaceOnUse">
<stop stop-color="#F2C087"/>
<stop offset="0.9999" stop-color="#FF6E75"/>
<stop offset="1" stop-color="#FF6E75"/>
</linearGradient>
<linearGradient id="paint26_linear_1219_10800" x1="114.64" y1="184.074" x2="112.788" y2="186.158" gradientUnits="userSpaceOnUse">
<stop stop-color="#F2C087"/>
<stop offset="0.9999" stop-color="#FF6E75"/>
<stop offset="1" stop-color="#FF6E75"/>
</linearGradient>
<linearGradient id="paint27_linear_1219_10800" x1="118.045" y1="187.801" x2="115.67" y2="190.098" gradientUnits="userSpaceOnUse">
<stop stop-color="#F2C087"/>
<stop offset="0.9999" stop-color="#FF6E75"/>
<stop offset="1" stop-color="#FF6E75"/>
</linearGradient>
<linearGradient id="paint28_linear_1219_10800" x1="119.562" y1="184.829" x2="119.458" y2="186.139" gradientUnits="userSpaceOnUse">
<stop stop-color="#F2C087"/>
<stop offset="0.9999" stop-color="#FF6E75"/>
<stop offset="1" stop-color="#FF6E75"/>
</linearGradient>
<linearGradient id="paint29_linear_1219_10800" x1="120.595" y1="188.282" x2="120.386" y2="189.566" gradientUnits="userSpaceOnUse">
<stop stop-color="#F2C087"/>
<stop offset="0.9999" stop-color="#FF6E75"/>
<stop offset="1" stop-color="#FF6E75"/>
</linearGradient>
<linearGradient id="paint30_linear_1219_10800" x1="115.535" y1="188.242" x2="115.4" y2="189.43" gradientUnits="userSpaceOnUse">
<stop stop-color="#F2C087"/>
<stop offset="0.9999" stop-color="#FF6E75"/>
<stop offset="1" stop-color="#FF6E75"/>
</linearGradient>
<linearGradient id="paint31_linear_1219_10800" x1="119.012" y1="180.992" x2="117.742" y2="183.966" gradientUnits="userSpaceOnUse">
<stop stop-color="#F2C087"/>
<stop offset="0.9999" stop-color="#FF6E75"/>
<stop offset="1" stop-color="#FF6E75"/>
</linearGradient>
<linearGradient id="paint32_linear_1219_10800" x1="112.034" y1="182.739" x2="111.161" y2="185.893" gradientUnits="userSpaceOnUse">
<stop stop-color="#F2C087"/>
<stop offset="0.9999" stop-color="#FF6E75"/>
<stop offset="1" stop-color="#FF6E75"/>
</linearGradient>
<linearGradient id="paint33_linear_1219_10800" x1="144.375" y1="372.406" x2="145.718" y2="339.216" gradientUnits="userSpaceOnUse">
<stop stop-color="#FF6E75"/>
<stop offset="1" stop-color="#FBBE7E"/>
</linearGradient>
<clipPath id="clip0_1219_10800">
<path d="M162.503 10.9965C162.503 4.92332 167.427 0 173.5 0H496.523C502.596 0 507.519 4.92331 507.519 10.9965V268.04C507.519 274.113 502.596 279.037 496.523 279.037H173.5C167.427 279.037 162.503 274.113 162.503 268.04V10.9965Z" fill="white"/>
</clipPath>
</defs>
</svg>
