<svg width="40" height="40" viewBox="0 0 40 40" fill="none" xmlns="http://www.w3.org/2000/svg">
<path d="M20 8.22684C13.5078 8.22684 8.22684 13.5078 8.22684 20C8.22684 26.4922 13.5078 31.7732 20 31.7732C26.4922 31.7732 31.7732 26.4922 31.7732 20C31.7732 13.5078 26.4922 8.22684 20 8.22684ZM19.1789 26.4203L12.1324 19.9076L14.9243 16.895L18.835 20.5132L24.7421 13.6361L27.8573 16.31L19.1789 26.4203ZM40 19.9897C39.9949 8.95048 31.0444 0.00513215 20.0103 0L23.0896 4.9474H23.0947C29.089 6.17911 33.8209 10.911 35.0526 16.9053L40 19.9897ZM0 20V20.1129L4.92173 17.0439C6.10726 10.9828 10.8648 6.18938 16.9053 4.9474H16.9104L19.9897 0C8.95047 0.00513215 0 8.9556 0 20ZM16.9104 35.0526C10.9571 33.8312 6.25609 29.166 4.98332 23.2384L0 20.1334C0.0718501 31.1111 8.99667 39.9949 19.9897 40L16.9104 35.0526ZM35.0526 23.0896C33.8209 29.0942 29.089 33.8209 23.0896 35.0526L20.0103 40C31.0444 39.9949 39.9949 31.0444 40 20.0103L35.0526 23.0896ZM20 8.22684C13.5078 8.22684 8.22684 13.5078 8.22684 20C8.22684 26.4922 13.5078 31.7732 20 31.7732C26.4922 31.7732 31.7732 26.4922 31.7732 20C31.7732 13.5078 26.4922 8.22684 20 8.22684ZM19.1789 26.4203L12.1324 19.9076L14.9243 16.895L18.835 20.5132L24.7421 13.6361L27.8573 16.31L19.1789 26.4203Z" fill="white" fill-opacity="0.3"/>
<path d="M20 8.22681C13.5079 8.22681 8.22687 13.5078 8.22687 20C8.22687 26.4921 13.5079 31.7731 20 31.7731C26.4922 31.7731 31.7732 26.4921 31.7732 20C31.7732 13.5078 26.4922 8.22681 20 8.22681ZM19.1789 26.4203L12.1324 19.9076L14.9243 16.895L18.835 20.5132L24.7421 13.6361L27.8574 16.3099L19.1789 26.4203Z" fill="url(#paint0_linear_1088_3688)"/>
<defs>
<linearGradient id="paint0_linear_1088_3688" x1="22.5778" y1="31.6862" x2="30.4424" y2="5.58215" gradientUnits="userSpaceOnUse">
<stop stop-color="#FF6E75"/>
<stop offset="1" stop-color="#FBBE7E"/>
</linearGradient>
</defs>
</svg>
