<svg viewBox="0 0 32 32" fill="none" xmlns="http://www.w3.org/2000/svg">
<path d="M28.0491 14.1468C28.1653 14.1468 28.2805 14.1417 28.3937 14.1317C30.4142 13.9574 32 12.2625 32 10.1958V3.95091C32 1.7691 30.2309 0 28.0491 0H21.8032C19.7375 0 18.0416 1.58578 17.8673 3.60631C17.8573 3.71951 17.8522 3.83471 17.8522 3.95091V7.4881V10.5404H14.1478V3.95091C14.1478 3.83471 14.1427 3.71951 14.1327 3.60631C13.9584 1.58578 12.2625 0 10.1968 0H3.95091C1.7691 0 0 1.7691 0 3.95091V10.1958C0 12.2625 1.58577 13.9574 3.60631 14.1317C3.71951 14.1417 3.83471 14.1468 3.95091 14.1468H10.5414V17.8522H3.95091C3.83471 17.8522 3.71951 17.8573 3.60631 17.8673C1.58577 18.0416 0 19.7375 0 21.8032V28.0491C0 30.2309 1.7691 32 3.95091 32H10.1968C12.2625 32 13.9584 30.4142 14.1327 28.3937C14.1427 28.2805 14.1478 28.1653 14.1478 28.0491V21.4586H17.8522V28.0491C17.8522 28.1653 17.8573 28.2805 17.8673 28.3937C18.0416 30.4142 19.7375 32 21.8032 32H28.0491C30.2309 32 32 30.2309 32 28.0491V21.8032C32 19.7375 30.4142 18.0416 28.3937 17.8673C28.2805 17.8573 28.1653 17.8522 28.0491 17.8522H21.4586V14.1468H28.0491ZM21.4586 7.4881V3.95091C21.4586 3.76058 21.6138 3.60631 21.8032 3.60631H28.0491C28.2394 3.60631 28.3937 3.76058 28.3937 3.95091V10.1958C28.3937 10.3862 28.2394 10.5404 28.0491 10.5404H21.4586V7.4881ZM3.95091 10.5404C3.76058 10.5404 3.60631 10.3862 3.60631 10.1958V3.95091C3.60631 3.76058 3.76058 3.60631 3.95091 3.60631H10.1968C10.3862 3.60631 10.5414 3.76058 10.5414 3.95091V10.5404H3.95091ZM10.5414 28.0491C10.5414 28.2384 10.3862 28.3937 10.1968 28.3937H3.95091C3.76058 28.3937 3.60631 28.2384 3.60631 28.0491V21.8032C3.60631 21.6128 3.76058 21.4586 3.95091 21.4586H10.5414V28.0491ZM28.0491 21.4586C28.2394 21.4586 28.3937 21.6128 28.3937 21.8032V28.0491C28.3937 28.2384 28.2394 28.3937 28.0491 28.3937H21.8032C21.6138 28.3937 21.4586 28.2384 21.4586 28.0491V21.4586H28.0491ZM17.8522 17.8522H14.1478V14.1468H17.8522V17.8522Z" fill="url(#paint0_linear_2268_2779)"/>
<path d="M14.1479 21.4585V28.049C14.1479 28.1652 14.1429 28.2804 14.1329 28.3936H10.197C10.3864 28.3936 10.5416 28.2384 10.5416 28.049V21.4585H14.1479Z" fill="url(#paint1_linear_2268_2779)"/>
<path d="M14.1483 6.66895H10.542V17.8515H14.1483V6.66895Z" fill="url(#paint2_linear_2268_2779)"/>
<path d="M21.8027 28.3929H17.8668C17.8568 28.2797 17.8518 28.1645 17.8518 28.0483V14.146H21.4581V28.0483C21.4581 28.2377 21.6134 28.3929 21.8027 28.3929Z" fill="url(#paint3_linear_2268_2779)"/>
<path d="M28.3946 10.1948V14.1307C28.2814 14.1407 28.1662 14.1457 28.05 14.1457H14.1487V10.5394H28.05C28.2403 10.5394 28.3946 10.3852 28.3946 10.1948Z" fill="url(#paint4_linear_2268_2779)"/>
<path d="M28.3936 17.8661V21.802C28.3936 21.6117 28.2394 21.4574 28.049 21.4574H21.4585V17.8511H28.049C28.1652 17.8511 28.2804 17.8561 28.3936 17.8661Z" fill="url(#paint5_linear_2268_2779)"/>
<path d="M17.8529 17.8511H8.75293V21.4574H17.8529V17.8511Z" fill="url(#paint6_linear_2268_2779)"/>
<path d="M24.9252 0H21.8027C19.7371 0 18.0411 1.58577 17.8668 3.60631C17.8568 3.71951 17.8518 3.83471 17.8518 3.95091V7.4881V10.5404H21.4581V7.4881V3.95091C21.4581 3.76058 21.6134 3.60631 21.8027 3.60631H24.9252V0Z" fill="url(#paint7_linear_2268_2779)"/>
<path d="M3.60655 10.1957V3.96582H0.000244141V10.1947C0.000244141 12.2613 1.58602 13.9563 3.60655 14.1306C3.71975 14.1406 3.83495 14.1456 3.95116 14.1456H10.5417V10.5393H3.95116C3.76082 10.5403 3.60655 10.3861 3.60655 10.1957Z" fill="url(#paint8_linear_2268_2779)"/>
<defs>
<linearGradient id="paint0_linear_2268_2779" x1="19.5032" y1="31.8818" x2="30.1915" y2="-3.59415" gradientUnits="userSpaceOnUse">
<stop stop-color="#FF6E75"/>
<stop offset="1" stop-color="#FBBE7E"/>
</linearGradient>
<linearGradient id="paint1_linear_2268_2779" x1="12.605" y1="28.368" x2="16.0708" y2="21.8145" gradientUnits="userSpaceOnUse">
<stop stop-color="#FF6E75"/>
<stop offset="1" stop-color="#FBBE7E"/>
</linearGradient>
<linearGradient id="paint2_linear_2268_2779" x1="12.7399" y1="17.8102" x2="19.4856" y2="10.5896" gradientUnits="userSpaceOnUse">
<stop stop-color="#FF6E75"/>
<stop offset="1" stop-color="#FBBE7E"/>
</linearGradient>
<linearGradient id="paint3_linear_2268_2779" x1="20.2598" y1="28.3403" x2="28.8444" y2="20.4386" gradientUnits="userSpaceOnUse">
<stop stop-color="#FF6E75"/>
<stop offset="1" stop-color="#FBBE7E"/>
</linearGradient>
<linearGradient id="paint4_linear_2268_2779" x1="22.8312" y1="14.1312" x2="23.2277" y2="9.38661" gradientUnits="userSpaceOnUse">
<stop stop-color="#FF6E75"/>
<stop offset="1" stop-color="#FBBE7E"/>
</linearGradient>
<linearGradient id="paint5_linear_2268_2779" x1="25.6853" y1="21.7874" x2="26.4819" y2="17.1465" gradientUnits="userSpaceOnUse">
<stop stop-color="#FF6E75"/>
<stop offset="1" stop-color="#FBBE7E"/>
</linearGradient>
<linearGradient id="paint6_linear_2268_2779" x1="14.2991" y1="21.4441" x2="14.8125" y2="17.1444" gradientUnits="userSpaceOnUse">
<stop stop-color="#FF6E75"/>
<stop offset="1" stop-color="#FBBE7E"/>
</linearGradient>
<linearGradient id="paint7_linear_2268_2779" x1="22.1629" y1="10.5015" x2="26.9254" y2="-0.106401" gradientUnits="userSpaceOnUse">
<stop stop-color="#FF6E75"/>
<stop offset="1" stop-color="#FBBE7E"/>
</linearGradient>
<linearGradient id="paint8_linear_2268_2779" x1="6.42499" y1="14.1081" x2="9.72703" y2="2.75876" gradientUnits="userSpaceOnUse">
<stop stop-color="#FF6E75"/>
<stop offset="1" stop-color="#FBBE7E"/>
</linearGradient>
</defs>
</svg>
