<svg width="40" height="40" viewBox="0 0 40 40" fill="none" xmlns="http://www.w3.org/2000/svg">
<path d="M19.9897 40.0001C8.99666 39.995 0.0718501 31.1112 0 20.1335L4.97819 23.2334C6.25096 29.1661 10.9623 33.8364 16.9104 35.0527L19.9897 40.0001Z" fill="white" fill-opacity="0.3"/>
<path d="M19.9897 0L16.9053 4.9474C10.8648 6.18938 6.10213 10.9879 4.92173 17.049L0 20.1129V20C0 8.95561 8.95047 0.00513215 19.9897 0Z" fill="white" fill-opacity="0.3"/>
<path d="M40 19.9897L35.0526 16.9053C33.8209 10.911 29.089 6.17911 23.0947 4.9474L20.0103 0C31.0495 0.00513215 39.9949 8.95048 40 19.9897Z" fill="white" fill-opacity="0.3"/>
<path d="M40 20.0103C40 31.0444 31.0495 39.9949 20.0103 40L23.0895 35.0526C29.089 33.826 33.8209 29.089 35.0526 23.0947L40 20.0103Z" fill="white" fill-opacity="0.3"/>
<path d="M20 8.22681C13.5079 8.22681 8.22687 13.5078 8.22687 20C8.22687 26.4921 13.5079 31.7731 20 31.7731C26.4922 31.7731 31.7732 26.4921 31.7732 20C31.7732 13.5078 26.4922 8.22681 20 8.22681ZM26.4871 23.5822L23.5823 26.4819L20 22.8996L16.4178 26.4819L13.5181 23.5822L17.1004 20L13.5181 16.4177L16.4178 13.5129L20 17.0952L23.5823 13.5129L26.4871 16.4177L22.9048 20L26.4871 23.5822Z" fill="white" fill-opacity="0.3"/>
</svg>
