<svg width="24" height="24" viewBox="0 0 24 24" fill="none" xmlns="http://www.w3.org/2000/svg">
<g clip-path="url(#clip0_732_20019)">
<path d="M13.4529 12.0929C13.4529 15.4065 10.772 18.0928 7.46526 18.0928C4.15848 18.0928 1.47745 15.4059 1.47745 12.0929C1.47745 8.77982 4.15827 6.09277 7.46526 6.09277C10.7723 6.09277 13.4529 8.77921 13.4529 12.0929ZM20.0215 12.0929C20.0215 15.212 18.6811 17.7415 17.0276 17.7415C15.3741 17.7415 14.0337 15.212 14.0337 12.0929C14.0337 8.97378 15.3739 6.44424 17.0274 6.44424C18.6809 6.44424 20.0213 8.97297 20.0213 12.0929M22.7082 12.0929C22.7082 14.8868 22.2369 17.1532 21.6553 17.1532C21.0736 17.1532 20.6025 14.8874 20.6025 12.0929C20.6025 9.29832 21.0738 7.03259 21.6553 7.03259C22.2367 7.03259 22.7082 9.29812 22.7082 12.0929Z" fill="white"/>
</g>
<defs>
<clipPath id="clip0_732_20019">
<rect width="21.2308" height="12" fill="white" transform="translate(1.47686 6.09229)"/>
</clipPath>
</defs>
</svg>
