<svg width="24" height="24" viewBox="0 0 24 24" fill="none" xmlns="http://www.w3.org/2000/svg">
<path fill-rule="evenodd" clip-rule="evenodd" d="M5.01521 18.9947L18.4684 7.7923C18.6336 7.64865 18.7673 7.4726 18.8614 7.27509C18.9555 7.07759 19.0079 6.86286 19.0153 6.64427C19.0227 6.42568 18.985 6.2079 18.9045 6.00449C18.824 5.80108 18.7025 5.61639 18.5475 5.46191C18.3924 5.30743 18.2072 5.18647 18.0034 5.10654C17.7995 5.02662 17.5814 4.98945 17.3625 4.99735C17.1437 5.00525 16.9288 5.05804 16.7313 5.15245C16.5337 5.24685 16.3577 5.38085 16.2143 5.5461L5.01521 18.9947ZM11.5007 7.06661L5.83655 11.3145L10.083 5.65246C10.17 5.53696 10.2809 5.44146 10.408 5.37241C10.5352 5.30336 10.6757 5.26236 10.8201 5.25219C10.9645 5.24203 11.1094 5.26292 11.245 5.31347C11.3806 5.36401 11.5038 5.44303 11.6062 5.54519C11.7086 5.64735 11.7879 5.77027 11.8387 5.90564C11.8894 6.04102 11.9105 6.1857 11.9005 6.32992C11.8905 6.47414 11.8496 6.61453 11.7807 6.74162C11.7117 6.86871 11.6162 6.97954 11.5007 7.06661ZM18.3665 13.9171L12.7024 18.165L16.9488 12.5035C17.0359 12.388 17.1467 12.2925 17.2739 12.2235C17.4011 12.1544 17.5416 12.1134 17.686 12.1033C17.8304 12.0931 17.9753 12.114 18.1109 12.1645C18.2465 12.2151 18.3697 12.2941 18.4721 12.3963C18.5745 12.4984 18.6538 12.6213 18.7045 12.7567C18.7553 12.8921 18.7764 13.0368 18.7664 13.181C18.7564 13.3252 18.7155 13.4656 18.6465 13.5927C18.5776 13.7198 18.4821 13.83 18.3665 13.9171Z" fill="white"/>
</svg>
