<svg width="76" height="76" viewBox="0 0 76 76" fill="none" xmlns="http://www.w3.org/2000/svg">
<rect x="6.75" y="6.77539" width="61.4117" height="61.4117" rx="30.7059" fill="url(#paint0_linear_626_2550)"/>
<path d="M33.6149 47.1733L28.1688 41.7272C27.8988 41.4572 27.4611 41.4572 27.1911 41.7272L26.4317 42.4866C26.1617 42.7566 26.1617 43.1943 26.4317 43.4643L31.8778 48.9104C32.1478 49.1804 32.5855 49.1804 32.8555 48.9104L33.6149 48.151C33.8849 47.881 33.8849 47.4433 33.6149 47.1733Z" fill="white"/>
<path d="M30.2955 46.9463L28.3962 45.047C28.2189 44.8697 27.9315 44.8697 27.7542 45.047L24.8413 47.9599C24.664 48.1372 24.664 48.4247 24.8413 48.602L26.7406 50.5013C26.9179 50.6786 27.2053 50.6786 27.3826 50.5013L30.2955 47.5883C30.4728 47.411 30.4728 47.1236 30.2955 46.9463Z" fill="white"/>
<path d="M24.9432 47.3153L28.0281 50.4001C28.2342 50.6063 28.2342 50.9404 28.0281 51.1465L27.5196 51.6549C26.7399 52.4347 25.4745 52.4339 24.6955 51.6549L23.6885 50.6478C22.9087 49.8681 22.9095 48.6027 23.6885 47.8238L24.1969 47.3153C24.403 47.1092 24.7371 47.1092 24.9432 47.3153Z" fill="white"/>
<path d="M32.0396 38.5275L37.0775 43.0687C36.0381 44.0067 34.9976 44.9446 33.9582 45.8826C32.459 44.3835 30.9599 42.8843 29.4619 41.3852L32.0396 38.5275Z" fill="white"/>
<path d="M53.0353 22.3073L50.5521 30.6165C50.4726 30.8827 50.3205 31.1224 50.1142 31.309C48.4158 32.8404 46.7184 34.3718 45.0199 35.9032C44.6535 36.234 44.2871 36.5635 43.9206 36.8942L38.7191 31.127L38.6846 31.1581L39.7124 30.0184L44.0336 25.2272C44.2191 25.0209 44.4588 24.87 44.7261 24.7905L53.0353 22.3073Z" fill="white"/>
<path d="M47.7131 41.7234L42.267 47.1696C41.997 47.4396 41.997 47.8773 42.267 48.1473L43.0264 48.9067C43.2964 49.1767 43.7341 49.1767 44.0041 48.9067L49.4502 43.4606C49.7202 43.1906 49.7202 42.7528 49.4502 42.4828L48.6908 41.7234C48.4208 41.4534 47.9831 41.4534 47.7131 41.7234Z" fill="white"/>
<path d="M47.4828 45.0476L45.5835 46.9469C45.4062 47.1242 45.4062 47.4117 45.5835 47.589L48.4964 50.5019C48.6737 50.6792 48.9612 50.6792 49.1385 50.5019L51.0378 48.6026C51.2151 48.4253 51.2151 48.1378 51.0378 47.9605L48.1248 45.0476C47.9475 44.8703 47.6601 44.8703 47.4828 45.0476Z" fill="white"/>
<path d="M47.8497 50.4034L50.9346 47.3186C51.1407 47.1125 51.4748 47.1125 51.6809 47.3186L52.1894 47.827C52.9691 48.6068 52.9683 49.8722 52.1894 50.6511L51.1823 51.6582C50.4025 52.438 49.1371 52.4372 48.3582 51.6582L47.8497 51.1498C47.6436 50.9436 47.6436 50.6096 47.8497 50.4034Z" fill="white"/>
<path d="M25.3267 30.6164C25.4062 30.8826 25.5583 31.1222 25.7646 31.3089L30.5547 35.63L36.4395 40.9375L41.9199 45.8798C42.4488 45.3497 42.9777 44.8196 43.5054 44.2884C43.9525 43.8413 44.3996 43.3942 44.8479 42.946C45.371 42.4252 45.893 41.9032 46.4161 41.3823C44.6865 39.4649 42.9569 37.5463 41.2262 35.6289C39.6302 33.8601 38.0343 32.0902 36.4395 30.3214C34.9081 28.6229 33.3767 26.9256 31.8453 25.2271C31.6586 25.0208 31.4189 24.8687 31.1528 24.7892L22.8435 22.3071L25.3267 30.6164Z" fill="white"/>
<circle opacity="0.3" cx="37.75" cy="37.7754" r="36" stroke="white" stroke-width="3"/>
<defs>
<linearGradient id="paint0_linear_626_2550" x1="44.1789" y1="67.9604" x2="64.691" y2="-0.1222" gradientUnits="userSpaceOnUse">
<stop stop-color="#FF6E75"/>
<stop offset="1" stop-color="#FBBE7E"/>
</linearGradient>
</defs>
</svg>
