<svg width="76" height="76" viewBox="0 0 76 76" fill="none" xmlns="http://www.w3.org/2000/svg">
<rect x="7.25" y="6.77539" width="61.4117" height="61.4117" rx="30.7059" fill="url(#paint0_linear_626_2642)"/>
<path d="M25.3097 43.033C26.4743 43.033 27.5827 42.6828 28.5017 42.0723V53.7746H25.4704C24.0511 53.7746 22.9001 52.6764 22.9001 51.3221V42.5121C23.6356 42.8478 24.4544 43.033 25.3097 43.033Z" fill="white"/>
<path d="M40.8445 50.8948V53.7741H35.3718V50.8948C35.3718 49.4552 36.5986 48.2832 38.1074 48.2832C39.6162 48.2832 40.8445 49.4552 40.8445 50.8948Z" fill="white"/>
<path d="M45.6163 42.0372V53.7742H42.9671V50.895C42.9671 48.3383 40.7866 46.2577 38.1071 46.2577C35.4277 46.2577 33.2486 48.3383 33.2486 50.895V53.7742H30.6238V42.0531C31.5473 42.6753 32.6648 43.0326 33.8415 43.0326C35.5096 43.0326 37.0623 42.315 38.1086 41.1401C39.155 42.315 40.7062 43.0326 42.3742 43.0326C43.56 43.0326 44.6882 42.6695 45.6163 42.0372Z" fill="white"/>
<path d="M53.3172 42.514V51.3226C53.3172 52.6768 52.1678 53.775 50.7485 53.775H47.74V42.0886C48.6544 42.6891 49.7537 43.0334 50.9077 43.0334C51.7645 43.0334 52.5833 42.8482 53.3172 42.514Z" fill="white"/>
<path d="M53.9804 36.2057L44.4545 31.1358C42.3816 29.9552 40.3102 28.7745 38.2389 27.5939C37.0788 28.2218 35.9203 28.8483 34.7603 29.4763L22.2365 36.1984C22.0697 36.2881 21.9666 36.456 21.9666 36.6397V38.6017C22.1606 39.2412 22.5397 39.7939 23.0417 40.2063C23.6558 40.7127 24.4534 41.0122 25.3102 41.0122C26.7659 41.0122 28.0791 40.1296 28.5795 38.8158C28.6159 38.7218 28.6659 38.6335 28.7281 38.5554H28.7463C28.769 38.5178 28.7948 38.483 28.8252 38.4498C28.854 38.4136 28.8873 38.3803 28.9222 38.3485L36.2463 31.8216C37.4851 31.8152 38.7167 31.8074 39.9509 31.8028L47.366 38.4223C47.3826 38.4367 47.3978 38.4512 47.4099 38.4671C47.4388 38.4961 47.4645 38.525 47.4888 38.5568C47.551 38.635 47.601 38.7232 47.6374 38.8173C47.645 38.8317 47.6495 38.8477 47.6556 38.8636C47.6571 38.8665 47.6586 38.8708 47.6601 38.8737C47.6783 38.9185 47.6965 38.962 47.7163 39.0054C47.7314 39.0372 47.7451 39.069 47.7617 39.0994C47.7799 39.1385 47.7997 39.1761 47.8209 39.2137C47.8406 39.2513 47.8618 39.2889 47.8846 39.3251C47.9058 39.3627 47.9285 39.3989 47.9513 39.4336C47.9756 39.4698 47.9983 39.5045 48.0241 39.5407C48.0726 39.6102 48.1242 39.6767 48.1787 39.7433C48.1924 39.7592 48.2045 39.7751 48.2197 39.791C48.2333 39.8069 48.247 39.8228 48.2606 39.8388C48.2894 39.8706 48.3183 39.9024 48.3471 39.9328C48.3774 39.9632 48.4062 39.9936 48.4365 40.0225C48.4684 40.0529 48.4987 40.0818 48.5305 40.1093C48.5624 40.1383 48.5942 40.1658 48.6276 40.1932C48.6594 40.2207 48.6928 40.2468 48.7262 40.2728C48.7595 40.2989 48.7944 40.3249 48.8293 40.3495C48.8672 40.377 48.9066 40.403 48.946 40.4291C48.9779 40.4508 49.0097 40.471 49.0416 40.4899C49.1144 40.5347 49.1902 40.5767 49.266 40.6157C49.3039 40.636 49.3418 40.6548 49.3812 40.6736C49.4358 40.6997 49.4904 40.7228 49.5465 40.7459C49.5496 40.7474 49.5541 40.7488 49.5541 40.7488C49.6117 40.772 49.6694 40.7937 49.727 40.814C49.774 40.8313 49.818 40.8443 49.868 40.8603C49.9514 40.8863 50.0363 40.908 50.1212 40.9268C50.1561 40.934 50.1925 40.9427 50.2289 40.95C50.2744 40.9572 50.3184 40.9659 50.3639 40.9731C50.4093 40.9789 50.4564 40.9861 50.5018 40.9905C50.5307 40.9934 50.558 40.9963 50.5868 40.9992C50.5943 40.9992 50.6004 41.0006 50.608 41.0006C50.6323 41.002 50.6565 41.0049 50.6808 41.0064C50.6899 41.0064 50.6975 41.0078 50.7066 41.0078C50.7733 41.0122 50.84 41.0136 50.9067 41.0136C51.765 41.0136 52.5611 40.7156 53.1752 40.2077C53.6802 39.7925 54.0608 39.234 54.2503 38.5858V36.6499C54.2503 36.4661 54.1457 36.2968 53.9789 36.2086L53.9804 36.2057Z" fill="white"/>
<path d="M39.1707 33.8788V38.9718C39.7135 40.1987 40.9797 41.0104 42.3748 41.0104C43.603 41.0104 44.7312 40.381 45.3514 39.3957L44.4082 38.5536L39.1707 33.8788Z" fill="white"/>
<path d="M44.1036 25.9572H37.1904C37.1161 25.9572 37.0554 25.8993 37.0554 25.8284V21.9031C37.0554 21.8322 37.1161 21.7743 37.1904 21.7743H44.0778C44.187 21.7743 44.2507 21.8915 44.1885 21.9769C43.7912 22.5194 43.3939 23.0606 42.9966 23.6031C42.9663 23.6437 42.9648 23.6986 42.9905 23.742C43.4 24.4163 43.8094 25.092 44.2188 25.7662C44.2704 25.8516 44.2067 25.9586 44.1021 25.9586L44.1036 25.9572Z" fill="white"/>
<path d="M37.0965 38.5514V33.8766L31.859 38.5514L30.9158 39.3935C31.536 40.3788 32.6642 41.0082 33.8924 41.0082C35.2875 41.0082 36.5537 40.1965 37.0965 38.9696V38.5514Z" fill="white"/>
<path d="M38.1091 29.6205C37.5222 29.6205 37.0476 29.1676 37.0476 28.6077V25.1121C37.0476 24.5521 37.5222 24.0992 38.1091 24.0992C38.6959 24.0992 39.1705 24.5521 39.1705 25.1121V28.6077C39.1705 29.1676 38.6959 29.6205 38.1091 29.6205Z" fill="white"/>
<circle opacity="0.3" cx="38.25" cy="37.7754" r="36" stroke="white" stroke-width="3"/>
<defs>
<linearGradient id="paint0_linear_626_2642" x1="44.6789" y1="67.9604" x2="65.191" y2="-0.1222" gradientUnits="userSpaceOnUse">
<stop stop-color="#FF6E75"/>
<stop offset="1" stop-color="#FBBE7E"/>
</linearGradient>
</defs>
</svg>
