<svg width="76" height="76" viewBox="0 0 76 76" fill="none" xmlns="http://www.w3.org/2000/svg">
<rect x="6.75" y="6.77539" width="61.4117" height="61.4117" rx="30.7059" fill="url(#paint0_linear_626_1864)"/>
<g clip-path="url(#clip0_626_1864)">
<path d="M26.7057 33.6011C23.7774 31.3589 22.2631 27.7748 22.0168 24.7708C21.9803 24.2946 21.5698 24.0176 21.1593 24.0176C20.8582 24.0176 20.5572 24.1648 20.393 24.4764C17.41 30.1815 18.5959 38.025 21.9712 41.1589C22.7648 38.8907 24.0602 36.6312 25.7478 34.6573C26.058 34.2937 26.3773 33.9474 26.7057 33.6098V33.6011ZM54.7843 24.4764C54.6201 24.1648 54.3191 24.0176 54.0181 24.0176C53.5984 24.0176 53.197 24.286 53.1514 24.7708C52.9051 27.7748 51.3908 31.3676 48.4625 33.6098C48.7909 33.9474 49.1102 34.2937 49.4204 34.6573C51.108 36.6312 52.4034 38.8907 53.1971 41.1589C56.5723 38.025 57.7582 30.1902 54.7843 24.4764ZM42.533 31.9303V43.9638H51.6371C50.7614 39.3495 47.231 34.1985 42.533 31.9303ZM32.6443 43.9638V31.9303C27.9463 34.1898 24.4251 39.3409 23.5402 43.9638H32.6443ZM51.9747 46.1022H23.2027C22.6827 46.1022 22.2631 46.5004 22.2631 46.9939V50.9156C22.2631 51.409 22.6827 51.8073 23.2027 51.8073H51.9655C52.4855 51.8073 52.9051 51.409 52.9051 50.9156V46.9939C52.9051 46.5004 52.4855 46.1022 51.9655 46.1022H51.9747ZM40.2798 31.0992C39.4131 30.8741 38.51 30.7529 37.5887 30.7529C36.6673 30.7529 35.7733 30.8741 34.8976 31.0992V43.9552H40.2707V31.0992H40.2798Z" fill="white"/>
</g>
<circle opacity="0.3" cx="37.75" cy="37.7754" r="36" stroke="white" stroke-width="3"/>
<defs>
<linearGradient id="paint0_linear_626_1864" x1="44.1789" y1="67.9604" x2="64.691" y2="-0.1222" gradientUnits="userSpaceOnUse">
<stop stop-color="#FF6E75"/>
<stop offset="1" stop-color="#FBBE7E"/>
</linearGradient>
<clipPath id="clip0_626_1864">
<rect width="37.794" height="27.7897" fill="white" transform="translate(18.6875 24.0171)"/>
</clipPath>
</defs>
</svg>
