<svg width="101" height="26" viewBox="0 0 101 26" fill="none" xmlns="http://www.w3.org/2000/svg">
<rect opacity="0.2" x="0.75" y="0.775391" width="100" height="25" rx="5.54736" fill="white"/>
<path d="M16.0251 6.84667L17.4977 9.97628C17.5816 10.1599 17.7495 10.2797 17.9402 10.3116L21.2365 10.8146C21.7172 10.8864 21.9079 11.5091 21.5645 11.8604L19.1763 14.2955C19.039 14.4392 18.9779 14.6387 19.0084 14.8383L19.5731 18.2793C19.657 18.7823 19.1534 19.1655 18.7185 18.926L15.7656 17.3053C15.5978 17.2095 15.3918 17.2095 15.2163 17.3053L12.2634 18.926C11.8361 19.1655 11.3325 18.7823 11.4088 18.2793L11.9735 14.8383C12.004 14.6387 11.9429 14.4392 11.8056 14.2955L9.41734 11.8604C9.06635 11.5012 9.26478 10.8864 9.74548 10.8146L13.0417 10.3116C13.2324 10.2797 13.4003 10.1599 13.4842 9.97628L14.9568 6.84667C15.1705 6.3916 15.7961 6.3916 16.0098 6.84667H16.0251Z" fill="url(#paint0_linear_626_1876)"/>
<path d="M33.5759 6.84667L35.0485 9.97628C35.1324 10.1599 35.3003 10.2797 35.491 10.3116L38.7872 10.8146C39.2679 10.8864 39.4587 11.5091 39.1153 11.8604L36.7271 14.2955C36.5898 14.4392 36.5287 14.6387 36.5592 14.8383L37.1239 18.2793C37.2078 18.7823 36.7042 19.1655 36.2693 18.926L33.3164 17.3053C33.1486 17.2095 32.9426 17.2095 32.7671 17.3053L29.8142 18.926C29.3869 19.1655 28.8833 18.7823 28.9596 18.2793L29.5243 14.8383C29.5548 14.6387 29.4937 14.4392 29.3564 14.2955L26.9681 11.8604C26.6171 11.5012 26.8155 10.8864 27.2962 10.8146L30.5925 10.3116C30.7832 10.2797 30.9511 10.1599 31.035 9.97628L32.5076 6.84667C32.7213 6.3916 33.347 6.3916 33.5606 6.84667H33.5759Z" fill="url(#paint1_linear_626_1876)"/>
<path d="M51.1227 6.84667L52.5953 9.97628C52.6792 10.1599 52.8471 10.2797 53.0379 10.3116L56.3341 10.8146C56.8148 10.8864 57.0056 11.5091 56.6622 11.8604L54.274 14.2955C54.1366 14.4392 54.0756 14.6387 54.1061 14.8383L54.6707 18.2793C54.7547 18.7823 54.2511 19.1655 53.8162 18.926L50.8633 17.3053C50.6954 17.2095 50.4894 17.2095 50.3139 17.3053L47.361 18.926C46.9338 19.1655 46.4302 18.7823 46.5065 18.2793L47.0711 14.8383C47.1016 14.6387 47.0406 14.4392 46.9033 14.2955L44.515 11.8604C44.164 11.5012 44.3624 10.8864 44.8431 10.8146L48.1393 10.3116C48.3301 10.2797 48.498 10.1599 48.5819 9.97628L50.0545 6.84667C50.2682 6.3916 50.8938 6.3916 51.1075 6.84667H51.1227Z" fill="url(#paint2_linear_626_1876)"/>
<path d="M68.6732 6.8468L70.1459 9.97641C70.2298 10.16 70.3977 10.2798 70.5884 10.3117L73.8847 10.8147C74.3653 10.8865 74.5561 11.5093 74.2127 11.8605L71.8245 14.2956C71.6872 14.4393 71.6261 14.6389 71.6567 14.8385L72.2213 18.2794C72.3052 18.7824 71.8016 19.1656 71.3667 18.9261L68.4138 17.3054C68.246 17.2096 68.0399 17.2096 67.8644 17.3054L64.9116 18.9261C64.4843 19.1656 63.9807 18.7824 64.057 18.2794L64.6216 14.8385C64.6522 14.6389 64.5911 14.4393 64.4538 14.2956L62.0655 11.8605C61.7146 11.5013 61.9129 10.8865 62.3936 10.8147L65.6899 10.3117C65.8806 10.2798 66.0485 10.16 66.1324 9.97641L67.605 6.8468C67.8186 6.39173 68.4443 6.39173 68.658 6.8468H68.6732Z" fill="url(#paint3_linear_626_1876)"/>
<path d="M86.2223 6.8468L87.6949 9.97641C87.7789 10.16 87.9468 10.2798 88.1375 10.3117L91.4337 10.8147C91.9144 10.8865 92.1052 11.5093 91.7618 11.8605L89.3736 14.2956C89.2362 14.4393 89.1752 14.6389 89.2057 14.8385L89.7703 18.2794C89.8542 18.7824 89.3507 19.1656 88.9157 18.9261L85.9629 17.3054C85.795 17.2096 85.589 17.2096 85.4135 17.3054L82.4607 18.9261C82.0334 19.1656 81.5298 18.7824 81.6061 18.2794L82.1707 14.8385C82.2013 14.6389 82.1402 14.4393 82.0029 14.2956L79.6146 11.8605C79.2636 11.5013 79.462 10.8865 79.9427 10.8147L83.2389 10.3117C83.4297 10.2798 83.5976 10.16 83.6815 9.97641L85.1541 6.8468C85.3677 6.39173 85.9934 6.39173 86.2071 6.8468H86.2223Z" fill="url(#paint4_linear_626_1876)"/>
<defs>
<linearGradient id="paint0_linear_626_1876" x1="16.8577" y1="18.953" x2="21.029" y2="5.10096" gradientUnits="userSpaceOnUse">
<stop stop-color="#FF6E75"/>
<stop offset="1" stop-color="#FBBE7E"/>
</linearGradient>
<linearGradient id="paint1_linear_626_1876" x1="34.4085" y1="18.953" x2="38.5798" y2="5.10096" gradientUnits="userSpaceOnUse">
<stop stop-color="#FF6E75"/>
<stop offset="1" stop-color="#FBBE7E"/>
</linearGradient>
<linearGradient id="paint2_linear_626_1876" x1="51.9554" y1="18.953" x2="56.1266" y2="5.10096" gradientUnits="userSpaceOnUse">
<stop stop-color="#FF6E75"/>
<stop offset="1" stop-color="#FBBE7E"/>
</linearGradient>
<linearGradient id="paint3_linear_626_1876" x1="69.5059" y1="18.9531" x2="73.6772" y2="5.10108" gradientUnits="userSpaceOnUse">
<stop stop-color="#FF6E75"/>
<stop offset="1" stop-color="#FBBE7E"/>
</linearGradient>
<linearGradient id="paint4_linear_626_1876" x1="87.055" y1="18.9531" x2="91.2263" y2="5.10108" gradientUnits="userSpaceOnUse">
<stop stop-color="#FF6E75"/>
<stop offset="1" stop-color="#FBBE7E"/>
</linearGradient>
</defs>
</svg>
