<svg width="363" height="350" viewBox="0 0 363 350" fill="none" xmlns="http://www.w3.org/2000/svg">
<path d="M303.424 201.695L298.882 184.742C301.524 184.002 303.1 181.247 302.388 178.591L300.711 172.333C299.995 169.659 297.22 168.057 294.546 168.773L231.271 185.728C228.599 186.45 226.997 189.225 227.714 191.899L229.39 198.157C230.102 200.813 232.844 202.411 235.502 201.731L240.045 218.683C243.982 233.377 257.448 243.101 272.02 242.994C259.347 250.188 252.547 265.342 256.484 280.035L261.025 296.982C258.383 297.722 256.807 300.477 257.519 303.133L259.196 309.391C259.912 312.065 262.687 313.667 265.361 312.951L328.635 295.997C331.309 295.28 332.911 292.505 332.195 289.831L330.518 283.573C329.806 280.917 327.064 279.319 324.406 280L319.865 263.053C315.928 248.359 302.462 238.635 287.89 238.742C300.563 231.548 307.363 216.394 303.426 201.701L303.424 201.695Z" fill="url(#paint0_linear_714_11475)"/>
<g filter="url(#filter0_b_714_11475)">
<rect x="106.051" y="221.675" width="70.2708" height="70.2708" rx="35.1354" transform="rotate(-180 106.051 221.675)" fill="#FF6E75"/>
<path d="M78.8711 182.232C75.3417 180.6 70.2694 179.564 65.4964 179.95C65.7357 178.37 66.326 177.269 67.295 177.037C68.6284 176.717 70.0835 177.594 71.4703 179.191C72.3789 179.308 73.4562 179.516 74.2059 179.689C71.6771 174.932 68.2854 172.266 65.7055 173.25C63.7438 173.999 62.7395 176.7 62.8608 180.329C60.3046 180.873 58.3122 181.839 57.0369 183.229C56.9723 183.304 56.8264 183.493 56.8784 183.583C56.9179 183.651 57.0481 183.574 57.1038 183.536C58.5832 182.502 60.477 181.942 62.9439 181.589C63.2953 185.462 64.9336 190.373 67.6547 194.313C66.1675 194.897 64.9178 194.936 64.2322 194.213C63.2893 193.218 63.3209 191.519 64.0106 189.519C63.6583 188.673 63.299 187.636 63.0741 186.9C60.2172 191.471 59.6042 195.741 61.7453 197.483C63.3752 198.809 66.2153 198.327 69.2995 196.409C71.0488 198.351 72.8813 199.593 74.7227 200.003C74.8198 200.021 75.0559 200.053 75.108 199.963C75.1475 199.895 75.015 199.82 74.9555 199.791C73.32 199.027 71.8881 197.666 70.3498 195.706C73.5283 193.466 76.9623 189.592 79.0142 185.265C80.2644 186.263 80.9197 187.324 80.6381 188.279C80.2477 189.593 78.7614 190.416 76.6849 190.818C76.1286 191.544 75.4091 192.374 74.8858 192.939C80.2695 193.125 84.2738 191.523 84.7121 188.797C85.0453 186.722 83.2077 184.503 80.0041 182.792C80.8119 180.306 80.9708 178.098 80.4052 176.298C80.3722 176.205 80.2825 175.984 80.1784 175.984C80.0994 175.984 80.1003 176.136 80.105 176.202C80.2616 177.999 79.7996 179.92 78.8711 182.232ZM68.9588 193.698C66.6815 190.044 65.369 185.741 65.3774 181.389C69.6792 181.245 74.0613 182.259 77.8258 184.442C75.8 188.239 72.7303 191.529 68.9574 193.697L68.9588 193.698Z" fill="white"/>
</g>
<g filter="url(#filter1_b_714_11475)">
<g clip-path="url(#clip0_714_11475)">
<rect x="135.49" width="192.966" height="310.642" rx="16.7311" transform="rotate(15 135.49 0)" fill="url(#paint1_radial_714_11475)"/>
<g filter="url(#filter2_bf_714_11475)">
<rect x="91.4939" y="259.002" width="144.446" height="33.4623" rx="9.4158" transform="rotate(15 91.4939 259.002)" fill="white" fill-opacity="0.06"/>
</g>
<g filter="url(#filter3_bf_714_11475)">
<rect x="87.9167" y="246.496" width="157.273" height="34.5777" rx="9.4158" transform="rotate(15 87.9167 246.496)" fill="white" fill-opacity="0.04"/>
</g>
<rect x="109.234" y="145.393" width="167.311" height="39.0393" rx="11.1541" transform="rotate(15 109.234 145.393)" fill="white" fill-opacity="0.08"/>
<path d="M240.481 201.88C240.356 202.349 240.115 202.758 239.761 203.108C239.417 203.451 238.975 203.695 238.433 203.84C237.903 203.979 237.316 203.986 236.672 203.862L236.378 204.958L235.512 204.726L235.809 203.616C234.929 203.293 234.275 202.828 233.848 202.22C233.423 201.603 233.308 200.896 233.503 200.097L235.533 200.641C235.413 201.305 235.642 201.787 236.219 202.087L236.912 199.501C236.306 199.165 235.826 198.862 235.472 198.594C235.119 198.325 234.846 197.971 234.654 197.533C234.462 197.095 234.449 196.564 234.616 195.942C234.827 195.157 235.278 194.591 235.97 194.244C236.672 193.901 237.479 193.812 238.391 193.979L238.685 192.883L239.551 193.115L239.258 194.211C240.105 194.516 240.725 194.962 241.118 195.551C241.521 196.143 241.647 196.844 241.497 197.655L239.454 197.107C239.497 196.838 239.462 196.587 239.351 196.354C239.251 196.115 239.081 195.919 238.841 195.768L238.155 198.326C238.786 198.679 239.274 198.988 239.618 199.255C239.974 199.514 240.248 199.863 240.44 200.302C240.634 200.731 240.648 201.257 240.481 201.88ZM236.618 196.376C236.538 196.674 236.563 196.942 236.693 197.18C236.825 197.409 237.046 197.628 237.358 197.837L237.985 195.495C237.648 195.453 237.359 195.506 237.116 195.654C236.873 195.802 236.707 196.042 236.618 196.376ZM237.078 202.346C237.438 202.374 237.742 202.306 237.989 202.14C238.246 201.977 238.415 201.742 238.497 201.435C238.577 201.137 238.546 200.873 238.405 200.641C238.264 200.41 238.033 200.189 237.713 199.977L237.078 202.346ZM243.868 196.999L244.336 195.253L247.598 196.127L244.954 205.994L243.005 205.471L245.181 197.351L243.868 196.999ZM255.933 200.116L251.548 198.941L250.928 201.255C251.18 201.071 251.502 200.954 251.892 200.904C252.285 200.845 252.68 200.869 253.077 200.975C253.799 201.169 254.348 201.485 254.724 201.924C255.099 202.363 255.324 202.859 255.399 203.411C255.476 203.953 255.439 204.505 255.289 205.064C255.011 206.102 254.49 206.856 253.725 207.329C252.969 207.803 252.046 207.894 250.954 207.601C249.925 207.326 249.173 206.849 248.697 206.17C248.221 205.491 248.054 204.726 248.195 203.874L250.036 204.367C250.021 204.75 250.124 205.087 250.345 205.378C250.576 205.672 250.913 205.879 251.355 205.997C251.887 206.14 252.333 206.08 252.693 205.819C253.054 205.558 253.307 205.152 253.455 204.601C253.605 204.042 253.579 203.58 253.376 203.217C253.185 202.846 252.824 202.59 252.291 202.447C251.912 202.346 251.571 202.356 251.268 202.478C250.964 202.6 250.716 202.804 250.523 203.091L248.71 202.605L250.262 196.812L256.379 198.451L255.933 200.116Z" fill="white"/>
<rect x="117.054" y="154.994" width="24.539" height="24.539" rx="5.57705" transform="rotate(15 117.054 154.994)" fill="white" fill-opacity="0.1"/>
<g clip-path="url(#clip1_714_11475)">
<path d="M127.529 163.863C124.158 162.96 120.7 164.819 119.552 168.052L122.611 170.396C122.955 170.274 123.339 170.252 123.718 170.353C123.752 170.363 123.785 170.373 123.818 170.384L125.942 168.576C125.945 168.566 125.947 168.556 125.95 168.545C126.308 167.211 127.684 166.416 129.019 166.773C130.353 167.131 131.148 168.508 130.79 169.842C130.433 171.176 129.056 171.971 127.722 171.614C127.703 171.609 127.685 171.604 127.667 171.598L125.069 172.57C125.062 172.598 125.055 172.627 125.048 172.656C124.779 173.658 123.746 174.254 122.744 173.986C121.865 173.75 121.298 172.926 121.354 172.05L119.167 170.375C119.207 173.272 121.152 175.91 124.09 176.697C127.634 177.647 131.277 175.544 132.227 172C133.176 168.455 131.073 164.813 127.529 163.863Z" fill="white"/>
<path d="M122.545 172.964L121.844 172.427C121.906 172.755 122.082 173.063 122.367 173.283C122.983 173.758 123.871 173.643 124.347 173.026C124.576 172.728 124.677 172.358 124.628 171.984C124.58 171.61 124.389 171.278 124.09 171.047C123.794 170.819 123.435 170.729 123.089 170.763L123.813 171.318C124.268 171.668 124.353 172.321 124.002 172.775C123.652 173.23 122.999 173.314 122.545 172.964Z" fill="white"/>
<path d="M129.982 169.623C130.221 168.734 129.691 167.817 128.802 167.579C127.913 167.34 126.996 167.87 126.757 168.759C126.519 169.648 127.049 170.565 127.938 170.804C128.827 171.042 129.744 170.512 129.982 169.623ZM127.162 168.864C127.341 168.195 128.029 167.799 128.698 167.978C129.367 168.157 129.764 168.845 129.585 169.514C129.406 170.183 128.718 170.58 128.049 170.4C127.38 170.221 126.983 169.533 127.162 168.864Z" fill="white"/>
</g>
<rect x="145.855" y="163.866" width="49.078" height="3.90393" rx="1.11541" transform="rotate(15 145.855 163.866)" fill="white" fill-opacity="0.1"/>
<rect x="143.834" y="171.408" width="25.6544" height="3.90393" rx="1.11541" transform="rotate(15 143.834 171.408)" fill="white" fill-opacity="0.1"/>
<g clip-path="url(#clip2_714_11475)">
<rect x="97.8308" y="187.95" width="167.311" height="39.0393" rx="11.1541" transform="rotate(15 97.8308 187.95)" fill="white" fill-opacity="0.08"/>
<path d="M226.21 243.668C226.085 244.137 225.844 244.547 225.49 244.897C225.146 245.24 224.704 245.484 224.162 245.629C223.632 245.767 223.045 245.774 222.401 245.65L222.107 246.747L221.241 246.514L221.538 245.405C220.658 245.082 220.004 244.616 219.577 244.009C219.152 243.392 219.037 242.684 219.232 241.885L221.262 242.429C221.142 243.093 221.371 243.575 221.948 243.875L222.641 241.29C222.035 240.954 221.555 240.651 221.201 240.382C220.848 240.113 220.575 239.76 220.383 239.321C220.191 238.883 220.178 238.353 220.345 237.73C220.556 236.945 221.007 236.379 221.699 236.033C222.401 235.689 223.208 235.601 224.12 235.768L224.414 234.672L225.28 234.904L224.987 236C225.834 236.304 226.454 236.751 226.847 237.34C227.25 237.931 227.376 238.632 227.226 239.443L225.183 238.896C225.226 238.627 225.191 238.376 225.08 238.143C224.98 237.903 224.809 237.708 224.57 237.556L223.884 240.115C224.515 240.467 225.003 240.777 225.347 241.043C225.703 241.303 225.977 241.652 226.169 242.09C226.363 242.52 226.377 243.046 226.21 243.668ZM222.347 238.165C222.267 238.463 222.292 238.73 222.422 238.968C222.554 239.197 222.775 239.416 223.087 239.625L223.714 237.284C223.377 237.242 223.088 237.295 222.845 237.443C222.602 237.59 222.436 237.831 222.347 238.165ZM222.807 244.134C223.167 244.163 223.471 244.095 223.718 243.929C223.975 243.765 224.144 243.53 224.226 243.224C224.306 242.926 224.275 242.661 224.134 242.43C223.993 242.199 223.762 241.977 223.442 241.766L222.807 244.134ZM228.82 244.991C229.879 244.501 230.73 244.086 231.373 243.746C232.018 243.396 232.582 243.006 233.065 242.574C233.548 242.143 233.857 241.675 233.992 241.169C234.116 240.709 234.104 240.319 233.958 240C233.811 239.68 233.512 239.46 233.061 239.339C232.61 239.218 232.222 239.278 231.896 239.52C231.572 239.752 231.336 240.129 231.187 240.65L229.346 240.156C229.672 239.083 230.213 238.348 230.967 237.951C231.731 237.556 232.582 237.484 233.52 237.735C234.549 238.011 235.264 238.498 235.667 239.196C236.073 239.884 236.156 240.675 235.916 241.569C235.728 242.273 235.358 242.894 234.807 243.433C234.257 243.972 233.674 244.416 233.058 244.763C232.445 245.102 231.657 245.5 230.693 245.957L234.686 247.027L234.265 248.597L227.579 246.806L227.956 245.398L228.82 244.991ZM244.531 242.673L240.145 241.498L239.525 243.812C239.778 243.628 240.099 243.512 240.49 243.461C240.883 243.402 241.278 243.426 241.675 243.532C242.396 243.726 242.945 244.042 243.321 244.481C243.696 244.92 243.921 245.416 243.996 245.968C244.073 246.511 244.036 247.062 243.886 247.621C243.608 248.659 243.087 249.414 242.322 249.886C241.567 250.36 240.643 250.451 239.551 250.159C238.522 249.883 237.77 249.406 237.294 248.727C236.819 248.048 236.651 247.283 236.793 246.431L238.633 246.924C238.618 247.307 238.721 247.644 238.943 247.936C239.173 248.23 239.51 248.436 239.952 248.554C240.484 248.697 240.93 248.638 241.291 248.376C241.651 248.115 241.905 247.709 242.052 247.159C242.202 246.599 242.176 246.138 241.973 245.774C241.782 245.404 241.421 245.147 240.888 245.004C240.509 244.903 240.168 244.913 239.865 245.035C239.561 245.157 239.313 245.361 239.12 245.648L237.307 245.162L238.859 239.369L244.977 241.008L244.531 242.673Z" fill="white"/>
<rect x="105.652" y="197.551" width="24.539" height="24.539" rx="5.57705" transform="rotate(15 105.652 197.551)" fill="white" fill-opacity="0.1"/>
<g clip-path="url(#clip3_714_11475)">
<path d="M113.659 206.626L111.134 216.05L113.086 217.298L115.204 209.396C115.303 209.024 115.536 208.821 115.779 208.977C116.101 209.167 116.077 209.528 115.978 209.897L115.133 213.052C116.289 214.051 117.507 213.688 117.961 211.992C118.425 210.259 118.019 209.322 116.382 208.218C115.734 207.791 114.522 207.038 113.659 206.626Z" fill="white"/>
<path d="M113.861 216.028L117.614 215.727C118.041 215.687 118.152 215.508 117.866 215.321C117.575 215.131 116.998 215.009 116.569 215.044L114.073 215.238L114.417 213.954L114.559 213.946C114.559 213.946 115.282 213.889 116.237 214.037C117.191 214.184 118.297 214.603 119.1 215.179C120.021 215.768 120.009 216.265 119.667 216.521C119.323 216.773 118.634 216.838 118.634 216.838L113.53 217.263" fill="white"/>
<path d="M107.448 214.17C106.493 213.606 106.484 212.953 107.048 212.728C107.568 212.524 108.372 212.481 108.372 212.481L111.721 212.21L111.388 213.451L108.98 213.649C108.553 213.684 108.442 213.865 108.728 214.051C109.019 214.243 109.593 214.366 110.021 214.327L111.18 214.229L110.883 215.336C110.812 215.33 110.733 215.321 110.661 215.314C109.56 215.207 108.457 214.834 107.448 214.17Z" fill="white"/>
<path d="M118.66 218.102C118.652 218.133 118.639 218.151 118.62 218.157C118.598 218.165 118.572 218.165 118.542 218.157L118.389 218.116L118.431 217.959L118.593 218.003C118.616 218.009 118.632 218.017 118.644 218.026C118.664 218.043 118.669 218.068 118.66 218.102ZM118.675 218.49C118.668 218.485 118.665 218.476 118.663 218.462C118.664 218.452 118.666 218.437 118.671 218.419L118.687 218.347C118.695 218.314 118.696 218.287 118.686 218.268C118.682 218.254 118.672 218.244 118.663 218.232C118.682 218.222 118.7 218.212 118.716 218.199C118.735 218.181 118.751 218.153 118.76 218.121C118.777 218.056 118.761 218.002 118.714 217.962C118.69 217.943 118.656 217.926 118.614 217.915L118.355 217.846L118.206 218.402L118.305 218.429L118.365 218.202L118.516 218.242C118.544 218.25 118.562 218.259 118.574 218.267C118.59 218.284 118.595 218.304 118.588 218.335L118.57 218.424C118.565 218.446 118.563 218.46 118.561 218.47L118.564 218.491L118.564 218.498L118.672 218.527L118.681 218.496M118.075 218.082C118.105 217.969 118.175 217.876 118.274 217.819C118.375 217.762 118.492 217.748 118.603 217.777C118.713 217.807 118.806 217.877 118.862 217.977C118.92 218.075 118.934 218.191 118.904 218.305C118.843 218.532 118.608 218.668 118.381 218.607C118.27 218.577 118.175 218.507 118.116 218.407C118.06 218.308 118.045 218.193 118.075 218.082ZM118.358 218.692C118.491 218.728 118.629 218.708 118.749 218.64C118.867 218.571 118.953 218.461 118.989 218.327C119.025 218.193 119.006 218.052 118.938 217.934C118.869 217.814 118.759 217.73 118.625 217.694C118.348 217.62 118.065 217.783 117.99 218.06C117.955 218.193 117.973 218.331 118.041 218.451C118.111 218.569 118.224 218.656 118.358 218.692Z" fill="white"/>
</g>
<rect x="134.453" y="206.423" width="49.078" height="3.90393" rx="1.11541" transform="rotate(15 134.453 206.423)" fill="white" fill-opacity="0.1"/>
<rect x="132.432" y="213.965" width="25.6544" height="3.90393" rx="1.11541" transform="rotate(15 132.432 213.965)" fill="white" fill-opacity="0.1"/>
</g>
<g filter="url(#filter4_b_714_11475)">
<g clip-path="url(#clip4_714_11475)">
<rect x="86.1582" y="230.436" width="167.869" height="38.4387" rx="11.1541" transform="rotate(15 86.1582 230.436)" fill="white" fill-opacity="0.08"/>
<path d="M218.06 286.475C217.934 286.944 217.694 287.354 217.339 287.704C216.996 288.047 216.553 288.291 216.011 288.436C215.481 288.574 214.894 288.581 214.25 288.457L213.957 289.554L213.09 289.321L213.388 288.212C212.507 287.889 211.853 287.423 211.426 286.816C211.002 286.199 210.887 285.491 211.081 284.692L213.112 285.236C212.992 285.9 213.22 286.382 213.798 286.682L214.49 284.097C213.884 283.761 213.404 283.458 213.051 283.189C212.697 282.92 212.425 282.567 212.233 282.128C212.041 281.69 212.028 281.16 212.195 280.537C212.405 279.752 212.856 279.186 213.549 278.84C214.25 278.496 215.057 278.408 215.97 278.575L216.264 277.479L217.13 277.711L216.836 278.807C217.683 279.111 218.303 279.558 218.697 280.147C219.099 280.738 219.226 281.439 219.076 282.25L217.032 281.703C217.075 281.434 217.041 281.183 216.929 280.95C216.829 280.71 216.659 280.515 216.419 280.363L215.734 282.922C216.364 283.274 216.852 283.584 217.197 283.85C217.553 284.11 217.826 284.459 218.019 284.897C218.213 285.327 218.227 285.853 218.06 286.475ZM214.196 280.972C214.116 281.27 214.141 281.537 214.271 281.775C214.403 282.004 214.625 282.223 214.936 282.432L215.564 280.091C215.227 280.049 214.937 280.102 214.694 280.249C214.452 280.397 214.286 280.638 214.196 280.972ZM214.657 286.941C215.016 286.97 215.32 286.901 215.568 286.736C215.824 286.572 215.993 286.337 216.076 286.03C216.155 285.733 216.125 285.468 215.984 285.237C215.843 285.006 215.612 284.784 215.291 284.573L214.657 286.941ZM221.446 281.594L221.914 279.849L225.176 280.723L222.532 290.589L220.583 290.067L222.759 281.946L221.446 281.594ZM226.031 286.101C226.45 284.54 227.057 283.393 227.853 282.658C228.659 281.926 229.716 281.736 231.024 282.086C232.332 282.437 233.148 283.129 233.47 284.163C233.802 285.2 233.758 286.499 233.34 288.06C232.919 289.63 232.305 290.785 231.497 291.526C230.698 292.27 229.645 292.466 228.337 292.116C227.028 291.765 226.209 291.067 225.88 290.021C225.56 288.978 225.611 287.671 226.031 286.101ZM231.472 287.559C231.651 286.892 231.756 286.32 231.787 285.845C231.829 285.363 231.758 284.942 231.573 284.584C231.398 284.227 231.058 283.981 230.552 283.846C230.047 283.71 229.625 283.752 229.286 283.971C228.956 284.192 228.684 284.52 228.471 284.956C228.268 285.386 228.078 285.934 227.899 286.602C227.715 287.288 227.601 287.876 227.557 288.367C227.515 288.849 227.586 289.269 227.77 289.628C227.957 289.978 228.303 290.221 228.808 290.356C229.313 290.491 229.734 290.454 230.071 290.245C230.41 290.026 230.682 289.698 230.886 289.259C231.093 288.812 231.288 288.245 231.472 287.559Z" fill="white"/>
<rect x="93.8533" y="239.426" width="24.539" height="24.539" rx="5.57705" transform="rotate(15 93.8533 239.426)" fill="white" fill-opacity="0.1"/>
<g clip-path="url(#clip5_714_11475)">
<path d="M96.3059 252.757C95.3872 256.185 97.4605 259.776 100.889 260.695C104.317 261.614 107.908 259.54 108.827 256.112C109.746 252.683 107.662 249.13 104.234 248.211C100.806 247.292 97.2245 249.328 96.3059 252.757ZM104.098 257.96C102.884 256.676 101.081 255.953 98.7898 255.859C98.2481 255.793 98.3733 255.028 98.8404 255.074C101.375 255.154 103.318 255.954 104.688 257.399C105.028 257.77 104.448 258.294 104.098 257.96ZM105.181 256.453C103.784 254.96 101.292 253.973 99.1573 254.04C98.4738 254.057 98.5099 253.028 99.1461 253.039C101.599 252.977 104.304 254.061 105.922 255.773C106.354 256.248 105.613 256.928 105.181 256.453ZM99.3684 252.06C98.675 252.113 98.5546 250.923 99.3326 250.852C101.711 250.77 105.408 251.88 107.349 253.878C107.892 254.384 107.016 255.267 106.445 254.715C104.753 252.983 101.429 251.973 99.3684 252.06ZM112.583 259.235C111.95 259.065 111.414 258.682 111.032 258.021C110.994 258.011 110.984 258.048 110.984 258.048L110.198 258.596C110.151 258.623 110.141 258.661 110.168 258.708C110.679 259.484 111.419 260.002 112.314 260.241C113.581 260.581 114.553 260.083 114.833 259.039C115.072 258.145 114.643 257.51 113.429 256.826C112.418 256.275 112.282 256.039 112.381 255.666C112.481 255.294 112.914 255.17 113.398 255.3C113.883 255.429 114.28 255.736 114.702 256.248C114.702 256.248 114.729 256.295 114.766 256.305C114.804 256.315 114.814 256.278 114.814 256.278L115.535 255.673C115.582 255.645 115.582 255.645 115.555 255.598C115.089 254.954 114.45 254.503 113.668 254.294C112.513 253.984 111.503 254.472 111.233 255.479C110.944 256.559 111.599 257.094 112.712 257.712C113.695 258.215 113.785 258.479 113.685 258.851C113.575 259.261 113.142 259.385 112.583 259.235ZM116.892 257.314L117.022 256.83C117.032 256.793 117.005 256.745 116.968 256.735L115.999 256.476C115.962 256.466 115.914 256.493 115.904 256.53L114.436 262.008C114.426 262.046 114.454 262.093 114.491 262.103L115.46 262.362C115.497 262.372 115.544 262.345 115.554 262.308L116.014 260.594C116.277 261.103 116.637 261.4 117.196 261.549C118.202 261.819 119.418 261.306 119.817 259.815C120.216 258.325 119.41 257.31 118.404 257.04C117.845 256.891 117.385 256.967 116.892 257.314ZM117.232 260.521C116.561 260.341 116.226 259.652 116.426 258.907C116.626 258.161 117.25 257.77 117.921 257.949C118.591 258.129 118.899 258.771 118.699 259.516C118.499 260.261 117.902 260.7 117.232 260.521ZM120.105 259.933C119.766 261.2 120.512 262.438 121.816 262.788C123.121 263.137 124.397 262.401 124.736 261.134C125.076 259.866 124.366 258.638 123.062 258.288C121.758 257.939 120.445 258.666 120.105 259.933ZM121.233 260.195C121.433 259.45 122.057 259.058 122.765 259.247C123.473 259.437 123.845 260.136 123.645 260.881C123.446 261.627 122.821 262.018 122.113 261.829C121.405 261.639 121.033 260.94 121.233 260.195ZM127.029 259.431L127.319 258.351C127.329 258.313 127.339 258.276 127.302 258.266L126.333 258.007C126.295 257.997 126.248 258.024 126.238 258.061L125.949 259.142L125.464 259.012C125.427 259.002 125.38 259.029 125.37 259.067L125.15 259.886C125.14 259.924 125.167 259.971 125.205 259.981L125.689 260.111L125.11 262.272C124.88 263.129 125.17 263.686 126.027 263.916C126.363 264.006 126.718 264.021 127.019 263.942C127.056 263.952 127.066 263.915 127.076 263.877L127.286 263.095C127.296 263.058 127.306 263.02 127.269 263.01L127.194 262.99C126.978 263.052 126.744 263.03 126.558 262.98C126.26 262.9 126.151 262.711 126.231 262.413L126.77 260.4L127.888 260.7C127.925 260.71 127.972 260.683 127.982 260.645L128.202 259.825C128.212 259.788 128.185 259.741 128.147 259.731L127.029 259.431ZM131.867 260.608C131.976 260.198 132.165 260.089 132.501 260.179C132.687 260.228 132.873 260.278 133.04 260.403L133.077 260.413C133.077 260.413 133.124 260.386 133.134 260.348L133.344 259.566C133.354 259.528 133.364 259.491 133.327 259.481C133.16 259.357 132.909 259.25 132.537 259.15C131.642 258.91 131.055 259.312 130.806 260.244L130.756 260.43L130.271 260.3C130.234 260.29 130.187 260.317 130.177 260.355L129.957 261.175C129.947 261.212 129.975 261.259 130.012 261.269L130.496 261.399L129.608 264.715C129.598 264.753 129.625 264.8 129.662 264.81L130.631 265.07C130.668 265.08 130.678 265.042 130.688 265.005L131.577 261.688L132.509 261.938L132.999 265.624C132.76 265.92 132.591 265.954 132.367 265.894C132.181 265.844 132.005 265.757 131.848 265.595L131.811 265.585L131.764 265.613L131.239 266.231C131.229 266.268 131.209 266.343 131.246 266.353C131.531 266.629 131.809 266.783 132.182 266.883C132.89 267.073 133.39 266.847 133.965 266.043L136.8 262.169L136.82 262.095C136.83 262.058 136.793 262.048 136.756 262.038L135.749 261.768C135.712 261.758 135.702 261.795 135.692 261.833L133.87 264.46L133.531 261.253C133.541 261.216 133.514 261.169 133.476 261.159L131.837 260.72L131.867 260.608ZM128.744 259.891C128.706 259.881 128.659 259.908 128.649 259.945L127.521 264.156C127.511 264.194 127.538 264.241 127.575 264.251L128.544 264.51C128.581 264.52 128.591 264.483 128.601 264.446L129.73 260.235C129.74 260.198 129.75 260.16 129.712 260.15L128.744 259.891ZM128.85 258.601C128.75 258.974 128.995 259.399 129.368 259.499C129.74 259.599 130.128 259.343 130.228 258.971C130.328 258.598 130.11 258.22 129.737 258.12C129.365 258.02 128.949 258.228 128.85 258.601ZM137.291 263.619C137.663 263.719 138.078 263.51 138.178 263.138C138.278 262.765 138.023 262.377 137.65 262.277C137.277 262.177 136.899 262.396 136.8 262.768C136.7 263.141 136.918 263.519 137.291 263.619ZM137.63 262.352C137.965 262.442 138.194 262.782 138.104 263.118C138.014 263.453 137.646 263.634 137.311 263.544C136.975 263.454 136.784 263.124 136.874 262.788C136.964 262.453 137.295 262.262 137.63 262.352ZM137.599 263.062C137.721 263.055 137.816 263.001 137.846 262.889C137.886 262.74 137.756 262.625 137.607 262.585L137.309 262.505L137.12 263.213L137.269 263.253L137.329 263.03L137.478 263.07L137.567 263.333L137.753 263.383L137.599 263.062ZM137.577 262.697C137.652 262.717 137.717 262.774 137.697 262.849C137.677 262.923 137.592 262.941 137.518 262.921L137.368 262.881L137.428 262.657L137.577 262.697Z" fill="white"/>
</g>
<rect x="122.655" y="248.298" width="49.078" height="3.90393" rx="1.11541" transform="rotate(15 122.655 248.298)" fill="white" fill-opacity="0.1"/>
<rect x="120.634" y="255.84" width="25.6544" height="3.90393" rx="1.11541" transform="rotate(15 120.634 255.84)" fill="white" fill-opacity="0.1"/>
</g>
</g>
<g filter="url(#filter5_b_714_11475)">
<rect x="144.166" y="15.0271" width="21.1928" height="21.1928" rx="10.5964" transform="rotate(15 144.166 15.0271)" fill="white" fill-opacity="0.1"/>
<path d="M147.679 26.6324C147.479 26.7479 147.41 27.0037 147.526 27.2038L149.408 30.4639C149.523 30.664 149.779 30.7325 149.979 30.617C150.179 30.5015 150.248 30.2457 150.132 30.0456L148.459 27.1477L151.357 25.4746C151.557 25.3591 151.626 25.1033 151.51 24.9032C151.395 24.7032 151.139 24.6346 150.939 24.7501L147.679 26.6324ZM155.86 29.5638C156.083 29.6236 156.313 29.4912 156.372 29.2681C156.432 29.0449 156.3 28.8156 156.077 28.7558L155.86 29.5638ZM147.78 27.3987L155.86 29.5638L156.077 28.7558L147.996 26.5906L147.78 27.3987Z" fill="white"/>
</g>
<g filter="url(#filter6_b_714_11475)">
<g clip-path="url(#clip6_714_11475)">
<rect x="136.909" y="44.2612" width="167.311" height="95.9252" rx="11.1541" transform="rotate(15 136.909 44.2612)" fill="white" fill-opacity="0.1"/>
<g filter="url(#filter7_b_714_11475)">
<g clip-path="url(#clip7_714_11475)">
<rect x="143.543" y="56.1362" width="25.5237" height="25.5237" rx="12.7619" transform="rotate(15 143.543 56.1362)" fill="url(#paint2_linear_714_11475)"/>
<g clip-path="url(#clip8_714_11475)">
<path d="M148.97 68.9764C148.1 67.8609 147.888 66.3941 148.091 65.2669C148.125 65.0885 147.999 64.9458 147.846 64.9048C147.734 64.8747 147.607 64.8987 147.515 64.9967C145.842 66.7929 145.513 69.7903 146.463 71.2776C146.981 70.5244 147.686 69.8244 148.51 69.2684C148.661 69.1659 148.814 69.0707 148.97 68.9795L148.97 68.9764ZM160.333 68.4312C160.302 68.3004 160.204 68.2163 160.092 68.1862C159.936 68.1443 159.76 68.2027 159.695 68.3761C159.308 69.4542 158.39 70.6217 157.078 71.1523C157.167 71.309 157.252 71.468 157.332 71.6324C157.767 72.5255 158.028 73.4842 158.1 74.396C159.667 73.5828 160.879 70.8254 160.333 68.4312ZM155.034 69.9437L153.85 74.3606L157.243 75.2698C157.371 73.4886 156.561 71.2454 155.034 69.9437ZM150.165 73.3731L151.348 68.9561C149.375 69.3163 147.556 70.8554 146.771 72.4639L150.165 73.3731ZM157.159 76.0884L146.435 73.2151C146.242 73.1632 146.046 73.2674 145.997 73.4485L145.612 74.888C145.563 75.0692 145.68 75.2572 145.874 75.3092L156.594 78.1815C156.788 78.2335 156.983 78.1292 157.032 77.9481L157.418 76.5086C157.466 76.3275 157.349 76.1394 157.155 76.0875L157.159 76.0884ZM154.275 69.4136C153.975 69.2444 153.65 69.1097 153.307 69.0177C152.963 68.9257 152.618 68.8809 152.27 68.8761L151.005 73.5949L153.008 74.1315L154.272 69.4127L154.275 69.4136Z" fill="white"/>
</g>
</g>
</g>
<path d="M179.514 76.8705C179.396 77.313 179.178 77.6992 178.861 78.0292C178.552 78.3613 178.14 78.5855 177.626 78.7019C177.12 78.8204 176.528 78.7886 175.848 78.6065L174.462 78.2349L173.61 81.4111L171.951 80.9665L174.168 72.6942L177.214 73.5104C177.854 73.6819 178.369 73.9385 178.76 74.2804C179.151 74.6223 179.406 75.0165 179.523 75.4629C179.648 75.9115 179.646 76.3807 179.514 76.8705ZM176.136 77.2482C176.594 77.371 176.961 77.3593 177.238 77.2132C177.516 77.0591 177.706 76.7925 177.808 76.4132C178.024 75.6073 177.681 75.0837 176.781 74.8424L175.465 74.4899L174.82 76.8957L176.136 77.2482ZM182.544 77.8602C182.851 77.5697 183.2 77.3712 183.593 77.2647C183.993 77.1604 184.415 77.1674 184.857 77.286L184.391 79.0282L183.952 78.9107C183.431 78.7709 183.003 78.7876 182.668 78.9605C182.342 79.1356 182.097 79.5273 181.934 80.1357L181.058 83.4067L179.399 82.9621L181.158 76.3964L182.817 76.841L182.544 77.8602ZM187.314 85.1973C186.682 85.028 186.15 84.7373 185.719 84.3252C185.289 83.9053 184.997 83.3994 184.842 82.8075C184.696 82.2177 184.712 81.5871 184.892 80.9155C185.072 80.2439 185.377 79.6905 185.807 79.2553C186.245 78.8221 186.758 78.5361 187.345 78.3972C187.935 78.2504 188.546 78.2616 189.178 78.431C189.81 78.6004 190.345 78.8961 190.782 79.3181C191.222 79.7323 191.519 80.2353 191.673 80.8272C191.836 81.4212 191.827 82.054 191.647 82.7256C191.467 83.3971 191.155 83.9484 190.709 84.3794C190.271 84.8125 189.753 85.1015 189.156 85.2462C188.568 85.3851 187.954 85.3688 187.314 85.1973ZM187.702 83.7514C188.002 83.8319 188.301 83.8359 188.6 83.7636C188.909 83.6855 189.182 83.5214 189.418 83.2714C189.654 83.0214 189.829 82.687 189.941 82.2683C190.108 81.6441 190.07 81.1216 189.827 80.7009C189.594 80.2743 189.241 79.9976 188.767 79.8705C188.293 79.7435 187.848 79.8065 187.433 80.0594C187.028 80.3066 186.742 80.7422 186.575 81.3664C186.408 81.9906 186.433 82.5138 186.65 82.9361C186.877 83.3527 187.227 83.6244 187.702 83.7514ZM198.592 82.8206L198.217 84.2191L193.192 82.8727L193.567 81.4742L198.592 82.8206ZM206.931 84.2169C206.813 84.6594 206.595 85.0456 206.278 85.3756C205.969 85.7077 205.557 85.9319 205.043 86.0483C204.537 86.1667 203.945 86.1349 203.265 85.9529L201.879 85.5813L201.028 88.7575L199.368 88.3129L201.585 80.0406L204.631 80.8568C205.271 81.0282 205.786 81.2849 206.177 81.6268C206.568 81.9687 206.823 82.3629 206.94 82.8093C207.066 83.2579 207.063 83.7271 206.931 84.2169ZM203.553 84.5946C204.011 84.7174 204.378 84.7057 204.655 84.5596C204.933 84.4055 205.123 84.1389 205.225 83.7596C205.441 82.9537 205.098 82.4301 204.198 82.1888L202.882 81.8363L202.237 84.2421L203.553 84.5946ZM210.825 81.983L208.475 90.753L206.816 90.3085L209.166 81.5384L210.825 81.983ZM210.811 87.8349C210.988 87.1713 211.277 86.6176 211.675 86.1739C212.081 85.7323 212.546 85.4336 213.071 85.2777C213.603 85.124 214.15 85.1222 214.711 85.2726C215.201 85.4038 215.601 85.6169 215.911 85.9118C216.23 86.2088 216.46 86.5371 216.6 86.8966L216.851 85.9603L218.522 86.4081L216.763 92.9738L215.092 92.526L215.349 91.5661C215.053 91.8171 214.688 91.9944 214.254 92.0982C213.83 92.1963 213.373 92.1797 212.883 92.0484C212.33 91.9002 211.862 91.6225 211.48 91.2153C211.106 90.8102 210.853 90.3148 210.722 89.7293C210.601 89.138 210.631 88.5065 210.811 87.8349ZM215.972 89.2432C216.079 88.8402 216.093 88.4754 216.011 88.1486C215.931 87.8139 215.777 87.5355 215.549 87.3134C215.322 87.0834 215.055 86.9272 214.747 86.8446C214.439 86.762 214.134 86.7609 213.833 86.8411C213.532 86.9214 213.26 87.0855 213.016 87.3333C212.781 87.5754 212.611 87.894 212.505 88.289C212.4 88.6841 212.385 89.0529 212.463 89.3955C212.551 89.7323 212.704 90.0146 212.922 90.2425C213.148 90.4725 213.412 90.6277 213.712 90.7082C214.02 90.7907 214.328 90.7929 214.637 90.7148C214.948 90.6288 215.221 90.4647 215.455 90.2226C215.691 89.9726 215.864 89.6461 215.972 89.2432ZM226.661 88.5889L220.005 97.1704L218.239 96.6973L220.537 93.8073L219.621 86.7026L221.482 87.2012L221.948 92.2418L224.895 88.1157L226.661 88.5889ZM233.054 93.6681C232.991 93.9051 232.918 94.1142 232.836 94.2954L228.036 93.0093C227.948 93.4939 228.015 93.9097 228.235 94.2567C228.455 94.6036 228.779 94.8343 229.205 94.9486C229.822 95.1137 230.331 94.9666 230.734 94.5071L232.523 94.9866C232.164 95.5678 231.661 95.9919 231.014 96.2588C230.369 96.5178 229.655 96.5425 228.873 96.3329C228.241 96.1635 227.709 95.8728 227.277 95.4608C226.856 95.043 226.571 94.5392 226.425 93.9494C226.286 93.3618 226.306 92.7322 226.486 92.0606C226.668 91.3811 226.966 90.8216 227.38 90.3822C227.795 89.9427 228.288 89.6514 228.859 89.5082C229.431 89.3651 230.041 89.3803 230.689 89.5539C231.313 89.7211 231.834 90.0047 232.252 90.4046C232.678 90.8066 232.958 91.2925 233.094 91.8622C233.239 92.4262 233.226 93.0281 233.054 93.6681ZM231.463 92.7336C231.569 92.3048 231.506 91.9238 231.274 91.5905C231.043 91.2493 230.711 91.0205 230.276 90.9041C229.866 90.794 229.484 90.8273 229.132 91.0039C228.79 91.1747 228.528 91.4729 228.346 91.8984L231.463 92.7336ZM236.73 92.3793C237.037 92.0888 237.386 91.8903 237.779 91.7838C238.179 91.6795 238.601 91.6866 239.043 91.8051L238.577 93.5473L238.138 93.4298C237.617 93.2901 237.189 93.3067 236.854 93.4796C236.528 93.6547 236.283 94.0464 236.12 94.6548L235.244 97.9258L233.585 97.4812L235.344 90.9155L237.003 91.3601L236.73 92.3793Z" fill="white"/>
<path d="M135.692 100.691L135.575 101.13L134.104 100.736L132.801 105.597L132.27 105.455L133.573 100.594L132.094 100.198L132.212 99.7581L135.692 100.691ZM137.058 106.802C136.669 106.698 136.34 106.518 136.073 106.262C135.812 106.003 135.633 105.689 135.537 105.322C135.446 104.951 135.459 104.551 135.574 104.121C135.689 103.691 135.88 103.342 136.148 103.072C136.416 102.797 136.73 102.616 137.09 102.528C137.451 102.435 137.826 102.441 138.215 102.545C138.604 102.649 138.932 102.832 139.198 103.093C139.47 103.35 139.652 103.664 139.742 104.035C139.838 104.402 139.829 104.801 139.714 105.23C139.6 105.655 139.409 106.005 139.14 106.279C138.872 106.554 138.554 106.737 138.189 106.829C137.824 106.916 137.447 106.907 137.058 106.802ZM137.182 106.34C137.455 106.413 137.724 106.42 137.989 106.361C138.255 106.297 138.492 106.16 138.7 105.95C138.915 105.737 139.071 105.448 139.168 105.084C139.266 104.72 139.277 104.395 139.202 104.11C139.128 103.819 138.991 103.582 138.791 103.398C138.592 103.21 138.356 103.079 138.083 103.005C137.81 102.932 137.541 102.928 137.274 102.992C137.009 103.051 136.772 103.188 136.563 103.403C136.36 103.614 136.21 103.901 136.112 104.265C136.015 104.629 136 104.956 136.069 105.245C136.144 105.531 136.279 105.767 136.472 105.955C136.672 106.138 136.909 106.267 137.182 106.34ZM141.958 104.092L141.269 106.663C141.202 106.916 141.203 107.103 141.273 107.225C141.344 107.347 141.5 107.44 141.743 107.505L142.228 107.635L142.106 108.09L141.537 107.938C141.163 107.837 140.908 107.677 140.772 107.456C140.638 107.231 140.624 106.918 140.731 106.519L141.42 103.948L140.843 103.794L140.963 103.346L141.54 103.501L141.818 102.462L142.356 102.606L142.078 103.645L143.215 103.95L143.096 104.397L141.958 104.092ZM143.447 106.223C143.561 105.798 143.744 105.449 143.996 105.175C144.255 104.897 144.556 104.713 144.9 104.621C145.251 104.525 145.616 104.528 145.995 104.63C146.389 104.735 146.704 104.917 146.938 105.175C147.177 105.434 147.322 105.722 147.373 106.039L147.617 105.129L148.147 105.271L147.038 109.412L146.507 109.269L146.753 108.352C146.546 108.6 146.273 108.779 145.935 108.888C145.603 108.995 145.24 108.995 144.846 108.889C144.472 108.789 144.157 108.61 143.901 108.351C143.65 108.095 143.482 107.781 143.397 107.412C143.317 107.044 143.333 106.647 143.447 106.223ZM147.062 107.199C147.151 106.866 147.162 106.554 147.093 106.265C147.024 105.975 146.889 105.731 146.688 105.531C146.492 105.332 146.253 105.194 145.97 105.119C145.677 105.04 145.396 105.035 145.128 105.104C144.861 105.174 144.625 105.316 144.42 105.532C144.223 105.745 144.078 106.023 143.986 106.367C143.895 106.705 143.881 107.021 143.943 107.314C144.012 107.604 144.144 107.848 144.34 108.047C144.537 108.24 144.783 108.376 145.076 108.455C145.359 108.531 145.635 108.532 145.904 108.458C146.178 108.385 146.417 108.24 146.622 108.024C146.826 107.808 146.973 107.533 147.062 107.199ZM150.436 104.308L148.932 109.919L148.402 109.777L149.905 104.166L150.436 104.308ZM155.731 108.807C156.015 108.943 156.227 109.162 156.368 109.465C156.509 109.768 156.535 110.084 156.447 110.413C156.375 110.681 156.242 110.905 156.047 111.086C155.859 111.263 155.619 111.38 155.327 111.438C155.037 111.49 154.712 111.468 154.353 111.372L152.518 110.88L153.939 105.58L155.721 106.057C156.256 106.201 156.63 106.434 156.842 106.756C157.058 107.079 157.114 107.438 157.008 107.833C156.92 108.161 156.76 108.405 156.528 108.565C156.296 108.72 156.031 108.801 155.731 108.807ZM153.842 108.065L155.078 108.396C155.436 108.492 155.734 108.483 155.971 108.367C156.214 108.248 156.376 108.04 156.456 107.741C156.534 107.448 156.497 107.192 156.345 106.972C156.198 106.754 155.937 106.595 155.563 106.494L154.35 106.169L153.842 108.065ZM154.435 110.914C154.82 111.017 155.142 111.006 155.403 110.881C155.669 110.757 155.845 110.536 155.93 110.218C156.016 109.899 155.97 109.616 155.792 109.368C155.621 109.116 155.346 108.94 154.967 108.838L153.724 108.505L153.169 110.575L154.435 110.914ZM157.509 109.99C157.622 109.566 157.805 109.216 158.057 108.943C158.316 108.665 158.617 108.48 158.962 108.389C159.312 108.293 159.677 108.296 160.056 108.397C160.451 108.503 160.765 108.685 160.999 108.943C161.239 109.202 161.384 109.49 161.434 109.807L161.678 108.897L162.209 109.039L161.1 113.179L160.569 113.037L160.815 112.12C160.607 112.367 160.335 112.546 159.996 112.656C159.664 112.762 159.301 112.762 158.907 112.657C158.533 112.557 158.218 112.377 157.962 112.119C157.711 111.862 157.543 111.549 157.458 111.18C157.378 110.811 157.395 110.415 157.509 109.99ZM161.123 110.967C161.213 110.633 161.223 110.322 161.154 110.033C161.086 109.743 160.951 109.498 160.75 109.298C160.554 109.1 160.314 108.962 160.031 108.886C159.738 108.808 159.457 108.803 159.19 108.872C158.922 108.941 158.686 109.084 158.482 109.3C158.284 109.513 158.139 109.791 158.047 110.135C157.956 110.473 157.942 110.789 158.004 111.082C158.073 111.371 158.205 111.615 158.401 111.814C158.599 112.008 158.844 112.144 159.137 112.223C159.42 112.299 159.696 112.299 159.965 112.225C160.24 112.152 160.479 112.008 160.683 111.792C160.887 111.576 161.034 111.301 161.123 110.967ZM164.497 108.076L162.994 113.687L162.463 113.545L163.966 107.933L164.497 108.076ZM164.661 111.907C164.775 111.482 164.958 111.133 165.21 110.859C165.469 110.582 165.77 110.397 166.115 110.305C166.465 110.209 166.83 110.212 167.209 110.314C167.604 110.42 167.918 110.601 168.152 110.859C168.392 111.118 168.537 111.407 168.587 111.723L168.831 110.814L169.362 110.956L168.252 115.096L167.722 114.954L167.967 114.036C167.76 114.284 167.487 114.463 167.149 114.573C166.817 114.679 166.454 114.679 166.06 114.573C165.686 114.473 165.371 114.294 165.115 114.036C164.864 113.779 164.696 113.466 164.611 113.096C164.531 112.728 164.548 112.331 164.661 111.907ZM168.276 112.884C168.366 112.55 168.376 112.238 168.307 111.949C168.238 111.66 168.104 111.415 167.903 111.215C167.707 111.016 167.467 110.879 167.184 110.803C166.891 110.724 166.61 110.72 166.343 110.789C166.075 110.858 165.839 111.001 165.635 111.217C165.437 111.429 165.292 111.707 165.2 112.051C165.109 112.39 165.095 112.706 165.157 112.999C165.226 113.288 165.358 113.532 165.554 113.731C165.752 113.925 165.997 114.061 166.29 114.139C166.573 114.215 166.849 114.216 167.118 114.142C167.392 114.069 167.632 113.925 167.836 113.708C168.04 113.492 168.187 113.217 168.276 112.884ZM172.687 111.765C173.182 111.898 173.545 112.161 173.776 112.553C174.008 112.94 174.046 113.425 173.89 114.006L173.24 116.432L172.717 116.292L173.351 113.926C173.472 113.477 173.45 113.102 173.286 112.804C173.127 112.507 172.853 112.306 172.464 112.202C172.065 112.095 171.712 112.136 171.407 112.325C171.102 112.514 170.883 112.853 170.752 113.344L170.147 115.603L169.616 115.461L170.725 111.321L171.256 111.463L171.067 112.168C171.266 111.951 171.507 111.81 171.79 111.745C172.074 111.674 172.373 111.681 172.687 111.765ZM174.878 114.652C174.993 114.223 175.179 113.872 175.436 113.599C175.695 113.322 175.999 113.138 176.348 113.047C176.699 112.952 177.069 112.956 177.458 113.06C177.969 113.197 178.354 113.436 178.615 113.777C178.881 114.119 179.004 114.52 178.984 114.981L178.415 114.828C178.424 114.511 178.332 114.237 178.139 114.007C177.953 113.772 177.685 113.609 177.336 113.515C177.058 113.441 176.791 113.437 176.535 113.504C176.279 113.57 176.051 113.712 175.852 113.93C175.659 114.144 175.514 114.433 175.416 114.797C175.319 115.161 175.299 115.486 175.358 115.773C175.422 116.061 175.548 116.298 175.736 116.484C175.925 116.67 176.158 116.8 176.436 116.874C176.785 116.968 177.098 116.962 177.375 116.858C177.659 116.749 177.877 116.553 178.029 116.269L178.597 116.421C178.388 116.82 178.081 117.104 177.679 117.272C177.276 117.441 176.822 117.457 176.316 117.322C175.927 117.217 175.604 117.039 175.347 116.785C175.091 116.527 174.919 116.216 174.833 115.851C174.748 115.482 174.763 115.082 174.878 114.652ZM183.725 116.796C183.676 116.978 183.634 117.115 183.598 117.209L180.163 116.288C180.095 116.606 180.099 116.894 180.175 117.153C180.252 117.412 180.386 117.629 180.578 117.805C180.77 117.976 180.998 118.097 181.261 118.167C181.605 118.259 181.915 118.253 182.192 118.148C182.475 118.045 182.692 117.862 182.843 117.6L183.404 117.75C183.195 118.127 182.889 118.4 182.486 118.568C182.09 118.733 181.641 118.748 181.141 118.614C180.752 118.51 180.426 118.331 180.164 118.076C179.903 117.817 179.726 117.504 179.635 117.138C179.55 116.768 179.565 116.369 179.68 115.939C179.795 115.509 179.982 115.156 180.24 114.878C180.499 114.601 180.805 114.418 181.16 114.328C181.514 114.239 181.889 114.247 182.283 114.353C182.677 114.459 182.998 114.637 183.245 114.887C183.497 115.139 183.662 115.432 183.741 115.768C183.825 116.099 183.82 116.442 183.725 116.796ZM183.191 116.636C183.279 116.329 183.286 116.049 183.213 115.797C183.144 115.546 183.014 115.334 182.821 115.164C182.629 114.993 182.401 114.872 182.138 114.802C181.744 114.696 181.374 114.732 181.028 114.911C180.682 115.089 180.433 115.404 180.279 115.856L183.191 116.636Z" fill="white"/>
<path d="M135.134 125.269C134.979 125.846 134.683 126.35 134.247 126.78C133.825 127.202 133.281 127.502 132.614 127.681C131.962 127.851 131.24 127.86 130.449 127.707L130.088 129.055L129.022 128.77L129.388 127.405C128.305 127.008 127.501 126.435 126.976 125.688C126.454 124.93 126.312 124.059 126.552 123.077L129.048 123.746C128.901 124.563 129.182 125.155 129.892 125.524L130.744 122.345C129.998 121.931 129.408 121.559 128.974 121.229C128.539 120.898 128.204 120.463 127.967 119.924C127.731 119.385 127.716 118.733 127.921 117.967C128.18 117.002 128.735 116.306 129.586 115.88C130.449 115.457 131.441 115.349 132.563 115.554L132.925 114.206L133.99 114.492L133.629 115.84C134.67 116.214 135.433 116.763 135.916 117.487C136.411 118.215 136.567 119.077 136.383 120.074L133.87 119.401C133.923 119.07 133.88 118.761 133.743 118.475C133.62 118.18 133.411 117.94 133.116 117.754L132.273 120.899C133.049 121.333 133.648 121.714 134.072 122.042C134.509 122.361 134.846 122.79 135.083 123.329C135.322 123.857 135.339 124.504 135.134 125.269ZM130.382 118.502C130.284 118.868 130.315 119.197 130.474 119.49C130.637 119.771 130.909 120.041 131.292 120.298L132.064 117.418C131.65 117.367 131.293 117.432 130.995 117.614C130.696 117.795 130.492 118.091 130.382 118.502ZM130.948 125.843C131.391 125.878 131.764 125.794 132.069 125.59C132.384 125.389 132.592 125.1 132.693 124.723C132.791 124.356 132.754 124.031 132.58 123.747C132.407 123.463 132.123 123.19 131.729 122.93L130.948 125.843ZM143.597 120.419L144.172 118.272L148.183 119.347L144.932 131.481L142.535 130.838L145.211 120.852L143.597 120.419ZM149.004 129.753C150.307 129.151 151.354 128.64 152.144 128.222C152.937 127.792 153.63 127.312 154.224 126.781C154.818 126.251 155.199 125.675 155.365 125.053C155.517 124.488 155.503 124.008 155.322 123.615C155.142 123.222 154.775 122.951 154.22 122.802C153.665 122.654 153.188 122.728 152.787 123.025C152.389 123.311 152.099 123.774 151.915 124.414L149.652 123.808C150.053 122.488 150.717 121.584 151.645 121.095C152.584 120.61 153.63 120.521 154.784 120.83C156.049 121.169 156.929 121.768 157.425 122.626C157.923 123.473 158.025 124.446 157.731 125.545C157.499 126.41 157.045 127.174 156.367 127.837C155.69 128.5 154.973 129.045 154.217 129.473C153.463 129.889 152.493 130.379 151.308 130.941L156.218 132.257L155.701 134.188L147.478 131.985L147.942 130.254L149.004 129.753ZM160.926 133.144L157.725 137.299L156.227 136.898L158.562 132.51L160.926 133.144ZM164.444 127.129C164.797 126.035 165.414 125.284 166.296 124.878C167.192 124.464 168.233 124.416 169.421 124.734C170.231 124.952 170.886 125.282 171.385 125.725C171.888 126.157 172.218 126.655 172.376 127.221C172.548 127.778 172.552 128.362 172.388 128.973C172.201 129.672 171.859 130.216 171.362 130.606C170.879 130.988 170.365 131.196 169.821 131.228L169.804 131.295C170.394 131.667 170.798 132.156 171.016 132.761C171.246 133.37 171.253 134.074 171.039 134.873C170.861 135.538 170.546 136.09 170.096 136.529C169.657 136.97 169.097 137.26 168.418 137.399C167.752 137.53 167.004 137.484 166.171 137.261C164.918 136.925 163.981 136.335 163.363 135.492C162.745 134.648 162.578 133.604 162.864 132.361L165.128 132.967C165.004 133.517 165.07 134.004 165.325 134.429C165.593 134.846 166.033 135.137 166.643 135.3C167.209 135.452 167.683 135.412 168.066 135.182C168.463 134.943 168.729 134.575 168.862 134.075C169.041 133.409 168.958 132.876 168.613 132.474C168.269 132.073 167.653 131.753 166.765 131.515L166.283 131.386L166.796 129.472L167.278 129.601C168.854 130.023 169.783 129.708 170.065 128.653C170.193 128.176 170.149 127.766 169.931 127.422C169.725 127.082 169.356 126.84 168.823 126.697C168.302 126.558 167.858 126.593 167.493 126.804C167.141 127.008 166.885 127.319 166.724 127.74L164.444 127.129ZM173.75 136.384C175.053 135.781 176.099 135.271 176.889 134.852C177.682 134.423 178.376 133.942 178.97 133.412C179.564 132.881 179.944 132.305 180.111 131.684C180.262 131.118 180.248 130.639 180.068 130.245C179.888 129.852 179.521 129.581 178.966 129.433C178.411 129.284 177.933 129.358 177.533 129.655C177.135 129.941 176.844 130.404 176.661 131.045L174.397 130.438C174.798 129.119 175.463 128.215 176.39 127.726C177.329 127.24 178.376 127.152 179.53 127.461C180.795 127.8 181.675 128.399 182.17 129.257C182.669 130.104 182.771 131.077 182.477 132.175C182.245 133.041 181.79 133.805 181.113 134.468C180.436 135.131 179.719 135.676 178.962 136.104C178.208 136.52 177.239 137.009 176.053 137.572L180.963 138.887L180.446 140.818L172.224 138.615L172.688 136.884L173.75 136.384ZM182.736 139.077L183.227 137.246L190.756 130.915L193.469 131.642L191.436 139.232L192.9 139.624L192.356 141.655L190.892 141.262L190.258 143.626L187.928 143.001L188.562 140.638L182.736 139.077ZM190.62 133.554L185.843 137.733L189.255 138.648L190.62 133.554ZM194.806 144.969C194.385 144.856 194.069 144.635 193.86 144.306C193.666 143.968 193.62 143.605 193.724 143.216C193.828 142.828 194.048 142.542 194.382 142.358C194.731 142.166 195.116 142.127 195.538 142.24C195.948 142.35 196.251 142.574 196.446 142.911C196.644 143.238 196.691 143.595 196.587 143.984C196.483 144.372 196.262 144.664 195.924 144.859C195.59 145.042 195.217 145.079 194.806 144.969ZM208.697 137.453L201.491 146.636L199.128 146.002L206.296 137.095L200.603 135.569L201.139 133.572L209.161 135.722L208.697 137.453ZM209.084 145.852C210.387 145.249 211.434 144.739 212.224 144.32C213.017 143.891 213.71 143.41 214.304 142.88C214.899 142.349 215.279 141.773 215.445 141.152C215.597 140.586 215.583 140.106 215.403 139.713C215.223 139.32 214.855 139.049 214.3 138.901C213.746 138.752 213.268 138.826 212.867 139.123C212.469 139.409 212.179 139.872 211.995 140.513L209.732 139.906C210.133 138.587 210.797 137.682 211.725 137.194C212.664 136.708 213.71 136.62 214.864 136.929C216.129 137.268 217.01 137.866 217.505 138.725C218.003 139.572 218.106 140.545 217.811 141.643C217.579 142.509 217.125 143.273 216.448 143.936C215.771 144.599 215.054 145.144 214.297 145.571C213.543 145.988 212.573 146.477 211.388 147.04L216.298 148.355L215.781 150.286L207.559 148.083L208.022 146.352L209.084 145.852Z" fill="white"/>
</g>
</g>
</g>
<rect x="135.49" width="192.966" height="310.642" rx="16.7311" transform="rotate(15 135.49 0)" stroke="url(#paint3_linear_714_11475)" stroke-width="1.11541"/>
</g>
<g filter="url(#filter8_b_714_11475)">
<rect x="292.286" y="11.4553" width="72.5016" height="72.5016" rx="36.2508" transform="rotate(15 292.286 11.4553)" fill="url(#paint4_linear_714_11475)"/>
<rect x="292.286" y="11.4553" width="72.5016" height="72.5016" rx="36.2508" transform="rotate(15 292.286 11.4553)" stroke="#FF6E75" stroke-width="1.11541" stroke-miterlimit="10"/>
<path d="M312.914 68.9821C310.893 68.2274 308.992 66.9195 307.503 65.2586C306.255 63.8669 306.022 63.3699 306.239 62.5605C306.675 60.9348 309.225 58.5663 313.153 56.1397C315.384 54.7616 318.383 53.249 318.629 53.3776C319.107 53.6276 322.11 58.6839 323.133 60.9592C324.749 64.557 325.208 67.2712 324.356 68.1985C323.71 68.9033 320.628 69.7942 318.515 69.8873C316.773 69.9641 314.607 69.614 312.914 68.9821ZM304.65 60.323C303.91 58.0586 303.783 55.9907 304.212 53.1638C304.354 52.2303 304.529 51.7216 305.322 49.9403C306.311 47.7201 308.35 45.3916 310.379 44.1659C311.243 43.6439 311.308 43.643 312.058 44.1412C312.967 44.7461 313.838 45.7701 315.093 47.712L315.826 48.845L315.124 49.352C311.867 51.7055 308.138 55.2791 306.456 57.6575C305.541 58.9506 304.941 60.3338 305.009 60.9946C305.054 61.4407 304.953 61.2519 304.65 60.323ZM326.618 66.5607C326.904 65.988 327.045 64.8331 326.978 63.612C326.833 60.9676 325.381 55.7317 323.759 52.0016L323.248 50.8274L324.286 50.2858C325.641 49.5785 326.557 49.1828 327.508 48.8933C328.258 48.6649 329.272 48.5563 329.667 48.6621C329.91 48.7274 330.529 49.8467 330.961 51.003C331.63 52.7938 331.93 54.8279 331.821 56.8325C331.751 58.1277 331.069 60.7578 330.503 61.9171C330.039 62.8685 329.278 64.0599 328.639 64.835C328.16 65.4159 327.066 66.4999 326.625 66.8299C326.398 66.9996 326.398 66.9991 326.618 66.5607ZM319.462 45.4356C318.487 44.5602 316.911 43.4785 315.993 43.0553C315.672 42.907 315.105 42.7205 314.734 42.641C313.93 42.4684 313.977 42.4364 315.411 42.1761C316.603 41.9597 317.565 41.9022 318.83 41.9717C320.254 42.0498 322.789 42.7254 324.041 43.3604C325.392 44.0463 326.911 45.1262 327.705 45.966L327.941 46.2156L327.302 46.0092C326.031 45.599 324.014 45.6163 321.735 46.0572C321.048 46.1902 320.456 46.2848 320.419 46.2674C320.383 46.25 319.952 45.8757 319.462 45.4356Z" fill="white"/>
</g>
<g filter="url(#filter9_b_714_11475)">
<rect x="0.745117" y="107.804" width="72.5016" height="72.5016" rx="36.2508" transform="rotate(-15 0.745117 107.804)" fill="url(#paint5_linear_714_11475)"/>
<rect x="0.745117" y="107.804" width="72.5016" height="72.5016" rx="36.2508" transform="rotate(-15 0.745117 107.804)" stroke="#FF6E75" stroke-width="1.11541" stroke-miterlimit="10"/>
<path d="M52.232 122.453C50.2698 122.104 48.2467 122.011 46.2072 122.195C46.0838 122.692 45.9601 123.349 45.8913 123.864C43.7359 124.108 41.6831 124.658 39.7328 125.514C39.4159 125.103 38.974 124.597 38.6165 124.229C36.7558 125.09 35.0488 126.185 33.5244 127.47C31.4316 133.727 31.8668 139.164 33.7124 144.145C36.5116 145.262 39.0556 145.715 41.4635 145.811C41.8098 144.909 42.0841 143.975 42.279 143.016C41.3943 142.926 40.5244 142.756 39.6807 142.514C39.8352 142.319 39.9837 142.119 40.1247 141.917C45.1121 142.802 49.9276 141.512 53.7511 138.266C53.9766 138.37 54.2051 138.469 54.4341 138.56C53.823 139.195 53.1528 139.778 52.4316 140.298C53.0793 141.029 53.7822 141.704 54.5354 142.311C56.5743 141.023 58.5534 139.358 60.4186 136.989C59.391 130.917 56.5004 126.188 52.232 122.453ZM41.7493 138.624C40.4189 138.981 38.995 138.031 38.5897 136.519C38.1845 135.006 38.9188 133.476 40.2726 133.113C41.6263 132.75 43.0502 133.7 43.4327 135.221C43.8401 136.733 43.1031 138.262 41.7493 138.624ZM50.698 136.227C49.3676 136.583 47.9437 135.633 47.5384 134.121C47.1331 132.608 47.8675 131.078 49.2213 130.715C50.575 130.353 51.9988 131.302 52.3814 132.823C52.7867 134.336 52.0517 135.864 50.698 136.227Z" fill="white"/>
</g>
<defs>
<filter id="filter0_b_714_11475" x="-6.52938" y="109.094" width="154.89" height="154.89" filterUnits="userSpaceOnUse" color-interpolation-filters="sRGB">
<feFlood flood-opacity="0" result="BackgroundImageFix"/>
<feGaussianBlur in="BackgroundImageFix" stdDeviation="21.1548"/>
<feComposite in2="SourceAlpha" operator="in" result="effect1_backgroundBlur_714_11475"/>
<feBlend mode="normal" in="SourceGraphic" in2="effect1_backgroundBlur_714_11475" result="shape"/>
</filter>
<filter id="filter1_b_714_11475" x="4.89616" y="-50.1934" width="367.177" height="450.387" filterUnits="userSpaceOnUse" color-interpolation-filters="sRGB">
<feFlood flood-opacity="0" result="BackgroundImageFix"/>
<feGaussianBlur in="BackgroundImageFix" stdDeviation="25.0967"/>
<feComposite in2="SourceAlpha" operator="in" result="effect1_backgroundBlur_714_11475"/>
<feBlend mode="normal" in="SourceGraphic" in2="effect1_backgroundBlur_714_11475" result="shape"/>
</filter>
<filter id="filter2_bf_714_11475" x="64.0017" y="240.171" width="185.848" height="107.37" filterUnits="userSpaceOnUse" color-interpolation-filters="sRGB">
<feFlood flood-opacity="0" result="BackgroundImageFix"/>
<feGaussianBlur in="BackgroundImageFix" stdDeviation="9.4158"/>
<feComposite in2="SourceAlpha" operator="in" result="effect1_backgroundBlur_714_11475"/>
<feBlend mode="normal" in="SourceGraphic" in2="effect1_backgroundBlur_714_11475" result="shape"/>
<feGaussianBlur stdDeviation="0.557705" result="effect2_foregroundBlur_714_11475"/>
</filter>
<filter id="filter3_bf_714_11475" x="60.1357" y="227.664" width="198.526" height="111.768" filterUnits="userSpaceOnUse" color-interpolation-filters="sRGB">
<feFlood flood-opacity="0" result="BackgroundImageFix"/>
<feGaussianBlur in="BackgroundImageFix" stdDeviation="9.4158"/>
<feComposite in2="SourceAlpha" operator="in" result="effect1_backgroundBlur_714_11475"/>
<feBlend mode="normal" in="SourceGraphic" in2="effect1_backgroundBlur_714_11475" result="shape"/>
<feGaussianBlur stdDeviation="0.557705" result="effect2_foregroundBlur_714_11475"/>
</filter>
<filter id="filter4_b_714_11475" x="42.7472" y="196.973" width="239.022" height="147.501" filterUnits="userSpaceOnUse" color-interpolation-filters="sRGB">
<feFlood flood-opacity="0" result="BackgroundImageFix"/>
<feGaussianBlur in="BackgroundImageFix" stdDeviation="16.7311"/>
<feComposite in2="SourceAlpha" operator="in" result="effect1_backgroundBlur_714_11475"/>
<feBlend mode="normal" in="SourceGraphic" in2="effect1_backgroundBlur_714_11475" result="shape"/>
</filter>
<filter id="filter5_b_714_11475" x="123.703" y="0.0499229" width="55.9102" height="55.9102" filterUnits="userSpaceOnUse" color-interpolation-filters="sRGB">
<feFlood flood-opacity="0" result="BackgroundImageFix"/>
<feGaussianBlur in="BackgroundImageFix" stdDeviation="7.48859"/>
<feComposite in2="SourceAlpha" operator="in" result="effect1_backgroundBlur_714_11475"/>
<feBlend mode="normal" in="SourceGraphic" in2="effect1_backgroundBlur_714_11475" result="shape"/>
</filter>
<filter id="filter6_b_714_11475" x="89.7738" y="21.953" width="231.054" height="180.576" filterUnits="userSpaceOnUse" color-interpolation-filters="sRGB">
<feFlood flood-opacity="0" result="BackgroundImageFix"/>
<feGaussianBlur in="BackgroundImageFix" stdDeviation="11.1541"/>
<feComposite in2="SourceAlpha" operator="in" result="effect1_backgroundBlur_714_11475"/>
<feBlend mode="normal" in="SourceGraphic" in2="effect1_backgroundBlur_714_11475" result="shape"/>
</filter>
<filter id="filter7_b_714_11475" x="105.959" y="25.1581" width="93.2162" height="93.2162" filterUnits="userSpaceOnUse" color-interpolation-filters="sRGB">
<feFlood flood-opacity="0" result="BackgroundImageFix"/>
<feGaussianBlur in="BackgroundImageFix" stdDeviation="15.4891"/>
<feComposite in2="SourceAlpha" operator="in" result="effect1_backgroundBlur_714_11475"/>
<feBlend mode="normal" in="SourceGraphic" in2="effect1_backgroundBlur_714_11475" result="shape"/>
</filter>
<filter id="filter8_b_714_11475" x="262.367" y="0.301225" width="111.104" height="111.104" filterUnits="userSpaceOnUse" color-interpolation-filters="sRGB">
<feFlood flood-opacity="0" result="BackgroundImageFix"/>
<feGaussianBlur in="BackgroundImageFix" stdDeviation="5.57705"/>
<feComposite in2="SourceAlpha" operator="in" result="effect1_backgroundBlur_714_11475"/>
<feBlend mode="normal" in="SourceGraphic" in2="effect1_backgroundBlur_714_11475" result="shape"/>
</filter>
<filter id="filter9_b_714_11475" x="-15.986" y="72.3082" width="122.258" height="122.258" filterUnits="userSpaceOnUse" color-interpolation-filters="sRGB">
<feFlood flood-opacity="0" result="BackgroundImageFix"/>
<feGaussianBlur in="BackgroundImageFix" stdDeviation="8.36557"/>
<feComposite in2="SourceAlpha" operator="in" result="effect1_backgroundBlur_714_11475"/>
<feBlend mode="normal" in="SourceGraphic" in2="effect1_backgroundBlur_714_11475" result="shape"/>
</filter>
<linearGradient id="paint0_linear_714_11475" x1="309.758" y1="134.9" x2="266.353" y2="305.344" gradientUnits="userSpaceOnUse">
<stop stop-color="#FBBE7E"/>
<stop offset="1" stop-color="#FF6E75"/>
</linearGradient>
<radialGradient id="paint1_radial_714_11475" cx="0" cy="0" r="1" gradientUnits="userSpaceOnUse" gradientTransform="translate(404.095 165.942) rotate(175.085) scale(261.364 168.983)">
<stop stop-color="#935E5D"/>
<stop offset="0.652108" stop-color="#161635"/>
</radialGradient>
<linearGradient id="paint2_linear_714_11475" x1="168.937" y1="43.1034" x2="156.305" y2="81.6599" gradientUnits="userSpaceOnUse">
<stop stop-color="#FBBE7E"/>
<stop offset="1" stop-color="#FF6E75"/>
</linearGradient>
<linearGradient id="paint3_linear_714_11475" x1="318.794" y1="-18.1513" x2="91.4231" y2="188.885" gradientUnits="userSpaceOnUse">
<stop stop-color="#FBBE7E"/>
<stop offset="1" stop-color="#FF6E75"/>
</linearGradient>
<linearGradient id="paint4_linear_714_11475" x1="306.965" y1="36.5466" x2="353.8" y2="109.969" gradientUnits="userSpaceOnUse">
<stop stop-color="#000223" stop-opacity="0.58"/>
<stop offset="1" stop-color="#FF6E75" stop-opacity="0.71"/>
</linearGradient>
<linearGradient id="paint5_linear_714_11475" x1="15.4239" y1="132.895" x2="62.2592" y2="206.318" gradientUnits="userSpaceOnUse">
<stop stop-color="#000223" stop-opacity="0.58"/>
<stop offset="1" stop-color="#FF6E75" stop-opacity="0.71"/>
</linearGradient>
<clipPath id="clip0_714_11475">
<rect x="135.49" width="192.966" height="310.642" rx="16.7311" transform="rotate(15 135.49 0)" fill="white"/>
</clipPath>
<clipPath id="clip1_714_11475">
<rect width="13.9426" height="13.9426" fill="white" transform="translate(120.998 161.824) rotate(15)"/>
</clipPath>
<clipPath id="clip2_714_11475">
<rect x="97.8308" y="187.95" width="167.311" height="39.0393" rx="11.1541" transform="rotate(15 97.8308 187.95)" fill="white"/>
</clipPath>
<clipPath id="clip3_714_11475">
<rect width="13.9426" height="11.1541" fill="white" transform="translate(108.768 205.315) rotate(15)"/>
</clipPath>
<clipPath id="clip4_714_11475">
<rect x="86.1582" y="230.436" width="167.869" height="38.4387" rx="11.1541" transform="rotate(15 86.1582 230.436)" fill="white"/>
</clipPath>
<clipPath id="clip5_714_11475">
<rect width="13.3849" height="13.3849" fill="white" transform="translate(97.7969 246.257) rotate(15)"/>
</clipPath>
<clipPath id="clip6_714_11475">
<rect x="136.909" y="44.2612" width="167.311" height="95.9252" rx="11.1541" transform="rotate(15 136.909 44.2612)" fill="white"/>
</clipPath>
<clipPath id="clip7_714_11475">
<rect x="143.543" y="56.1362" width="25.5237" height="25.5237" rx="12.7619" transform="rotate(15 143.543 56.1362)" fill="white"/>
</clipPath>
<clipPath id="clip8_714_11475">
<rect width="15.7984" height="15.7984" fill="white" transform="translate(147.019 61.957) rotate(15)"/>
</clipPath>
</defs>
</svg>
