<svg width="320" height="351" viewBox="0 0 320 351" fill="none" xmlns="http://www.w3.org/2000/svg">
<g filter="url(#filter0_b_732_19756)">
<path d="M280.423 212.063C276.446 208.538 271.348 206.769 266.068 207.088L264.693 207.17L263 194.226C262.662 191.642 260.293 189.824 257.714 190.161L178.734 200.492C176.151 200.829 174.334 203.198 174.671 205.779L176.364 218.723L175.015 218.998C169.83 220.047 165.359 223.067 162.422 227.497C159.485 231.93 158.446 237.225 159.495 242.41L161.873 254.145C162.922 259.331 165.943 263.804 170.371 266.742C174.409 269.419 179.161 270.52 183.891 269.901C184.352 269.841 184.817 269.762 185.278 269.671L189.327 268.851C197.178 278.722 209.06 285.094 222.072 285.737L224.732 306.072L218.134 306.935C212.923 307.617 209.251 312.394 209.933 317.607L210.509 322.011C210.771 324.01 212.603 325.419 214.601 325.158L255.116 319.859C257.115 319.597 258.523 317.765 258.261 315.766L257.685 311.358C257.003 306.145 252.226 302.472 247.015 303.154L240.417 304.017L237.757 283.682C250.167 279.718 260.01 270.503 265.058 258.942L269.182 258.693C269.651 258.663 270.117 258.619 270.582 258.559C275.315 257.94 279.624 255.654 282.834 252.029C286.358 248.051 288.126 242.951 287.806 237.67L287.086 225.719C286.766 220.438 284.4 215.589 280.423 212.063ZM183.211 259.463C180.754 259.963 178.236 259.463 176.122 258.063C174.007 256.663 172.571 254.534 172.074 252.076L169.696 240.341C169.2 237.883 169.696 235.365 171.095 233.25C172.495 231.135 174.623 229.698 177.08 229.202L177.718 229.073L180.064 247.01C180.637 251.393 181.841 255.544 183.566 259.392L183.208 259.463L183.211 259.463ZM276.7 226.346L277.42 238.297C277.573 240.801 276.728 243.224 275.049 245.124C273.366 247.024 271.065 248.154 268.558 248.3L268.193 248.323C268.873 244.161 268.966 239.84 268.393 235.457L266.047 217.52L266.696 217.481C269.198 217.328 271.622 218.173 273.521 219.853C275.42 221.533 276.548 223.842 276.697 226.346L276.7 226.346Z" fill="url(#paint0_linear_732_19756)"/>
</g>
<g filter="url(#filter1_b_732_19756)">
<rect x="0.0530243" y="140.839" width="67.5378" height="67.5378" rx="33.7689" transform="rotate(-21.1636 0.0530243 140.839)" fill="#FF6E75"/>
<path fill-rule="evenodd" clip-rule="evenodd" d="M31.8984 150.844L45.799 145.463C46.3277 145.258 46.9225 145.521 47.1275 146.051L47.3686 146.674C47.5736 147.203 47.3112 147.798 46.7825 148.003L32.882 153.385C32.3532 153.589 31.7584 153.326 31.5535 152.797L31.3123 152.174C31.1073 151.644 31.3697 151.049 31.8984 150.844ZM40.0772 171.97L53.9778 166.588C54.5065 166.384 55.1013 166.647 55.3063 167.177L55.5474 167.8C55.7524 168.329 55.49 168.924 54.9613 169.129L41.0608 174.51C40.532 174.715 39.9372 174.452 39.7323 173.922L39.4911 173.299C39.2861 172.77 39.5485 172.175 40.0772 171.97ZM47.6403 149.149L48.0038 150.087C49.3076 153.455 48.1123 157.201 45.3341 159.248C48.7663 158.89 52.1728 160.855 53.4766 164.223L53.8401 165.162L39.2193 170.822L38.8558 169.883C37.552 166.516 38.7473 162.769 41.5255 160.723C38.0933 161.08 34.6868 159.116 33.383 155.748L33.0195 154.809L47.6403 149.149Z" fill="white"/>
</g>
<g filter="url(#filter2_b_732_19756)">
<g clip-path="url(#clip0_732_19756)">
<rect x="90.0237" y="29.1182" width="176.811" height="284.636" rx="15.3305" transform="rotate(15.3806 90.0237 29.1182)" fill="url(#paint1_radial_732_19756)"/>
<rect x="43.5313" y="240.518" width="31.683" height="31.683" rx="10.2203" transform="rotate(15.3806 43.5313 240.518)" fill="white" fill-opacity="0.08"/>
<g opacity="0.4">
<path d="M51.7668 263.429L50.1619 260.606C50.0823 260.466 49.9044 260.417 49.7644 260.497L49.3708 260.72C49.2308 260.8 49.1819 260.978 49.2614 261.118L50.8664 263.941C50.9459 264.081 51.1239 264.13 51.2639 264.05L51.6575 263.826C51.7974 263.747 51.8464 263.569 51.7668 263.429Z" fill="white"/>
<path d="M50.4431 262.965L49.8834 261.98C49.8311 261.888 49.7142 261.856 49.6223 261.909L48.1124 262.767C48.0205 262.819 47.9884 262.936 48.0406 263.028L48.6004 264.013C48.6526 264.104 48.7695 264.137 48.8614 264.084L50.3713 263.226C50.4632 263.174 50.4953 263.057 50.4431 262.965Z" fill="white"/>
<path d="M48.2259 262.515L49.135 264.114C49.1958 264.221 49.1584 264.357 49.0516 264.418L48.788 264.568C48.3838 264.798 47.8695 264.656 47.64 264.252L47.3432 263.73C47.1134 263.326 47.2552 262.811 47.659 262.582L47.9225 262.432C48.0294 262.371 48.1652 262.409 48.2259 262.515Z" fill="white"/>
<path d="M52.0938 259.738L53.634 262.147C53.1065 262.412 52.5786 262.677 52.0512 262.942C51.6094 262.165 51.1676 261.388 50.7263 260.611L52.0938 259.738Z" fill="white"/>
<path d="M62.442 255.492L60.5033 258.592C60.4413 258.692 60.3526 258.772 60.2479 258.825C59.3862 259.257 58.5249 259.69 57.6632 260.123C57.4772 260.216 57.2914 260.309 57.1055 260.403L55.6359 257.476L55.6183 257.485L56.1636 257.137L58.4561 255.672C58.5545 255.609 58.6689 255.575 58.7864 255.572L62.442 255.492Z" fill="white"/>
<path d="M58.1062 262.792L55.2832 264.397C55.1432 264.477 55.0942 264.655 55.1738 264.795L55.3976 265.188C55.4772 265.328 55.6551 265.377 55.7951 265.298L58.6181 263.693C58.758 263.613 58.807 263.435 58.7274 263.295L58.5036 262.902C58.4241 262.762 58.2461 262.713 58.1062 262.792Z" fill="white"/>
<path d="M57.6418 264.117L56.6573 264.677C56.5654 264.729 56.5333 264.846 56.5855 264.938L57.444 266.448C57.4962 266.539 57.6131 266.572 57.705 266.519L58.6895 265.96C58.7814 265.907 58.8135 265.791 58.7613 265.699L57.9029 264.189C57.8506 264.097 57.7337 264.065 57.6418 264.117Z" fill="white"/>
<path d="M57.193 266.333L58.792 265.424C58.8988 265.364 59.0346 265.401 59.0954 265.508L59.2452 265.771C59.475 266.175 59.3332 266.69 58.9294 266.919L58.4074 267.216C58.0032 267.446 57.4889 267.304 57.2593 266.9L57.1095 266.637C57.0487 266.53 57.0861 266.394 57.193 266.333Z" fill="white"/>
<path d="M50.2489 255.772C50.2514 255.889 50.2865 256.003 50.3494 256.102L51.8135 258.395L53.6123 261.21L55.2875 263.832C55.5618 263.676 55.8361 263.52 56.11 263.363C56.3418 263.231 56.5735 263.099 56.8059 262.967C57.0768 262.814 57.3474 262.66 57.6183 262.507C57.1296 261.534 56.641 260.561 56.1518 259.587C55.7009 258.69 55.25 257.792 54.7995 256.895C54.3669 256.033 53.9341 255.172 53.5015 254.31C53.4487 254.205 53.3683 254.117 53.2689 254.054L50.1686 252.116L50.2489 255.772Z" fill="white"/>
</g>
<path d="M40.8851 283.193L39.3951 282.783L38.9744 284.312L37.9338 284.026L38.3545 282.497L36.8646 282.087L37.1291 281.125L38.6191 281.535L39.0398 280.005L40.0804 280.292L39.6597 281.821L41.1497 282.231L40.8851 283.193ZM47.9901 285.944C47.9149 286.218 47.7731 286.456 47.5647 286.658C47.363 286.857 47.1038 286.998 46.7871 287.08C46.4772 287.159 46.1346 287.161 45.7595 287.086L45.5838 287.725L45.0793 287.586L45.2571 286.939C44.7446 286.747 44.3649 286.473 44.118 286.117C43.8726 285.756 43.8083 285.342 43.925 284.877L45.1075 285.202C45.0349 285.589 45.1665 285.871 45.5022 286.049L45.9164 284.543C45.564 284.344 45.2852 284.166 45.08 284.007C44.8748 283.849 44.717 283.642 44.6066 283.385C44.4963 283.129 44.491 282.819 44.5907 282.457C44.7165 281.999 44.9821 281.671 45.3874 281.472C45.798 281.274 46.2693 281.225 46.8012 281.326L46.9768 280.688L47.4814 280.827L47.3057 281.465C47.7987 281.646 48.1588 281.909 48.3861 282.254C48.6186 282.601 48.6897 283.01 48.5992 283.483L47.4089 283.156C47.435 282.999 47.416 282.852 47.3517 282.716C47.2942 282.576 47.1957 282.461 47.0563 282.372L46.6465 283.862C47.0132 284.07 47.2965 284.252 47.4965 284.409C47.7031 284.562 47.8616 284.767 47.972 285.023C48.0838 285.275 48.0898 285.582 47.9901 285.944ZM45.7569 282.718C45.7092 282.892 45.7227 283.048 45.7974 283.187C45.8736 283.321 46.0022 283.45 46.1831 283.573L46.5583 282.209C46.3619 282.184 46.1926 282.213 46.0504 282.299C45.9082 282.384 45.8104 282.524 45.7569 282.718ZM46.0024 286.203C46.2122 286.221 46.3897 286.182 46.5347 286.087C46.6851 285.992 46.7848 285.856 46.8339 285.677C46.8817 285.504 46.8648 285.349 46.7833 285.214C46.7019 285.078 46.5681 284.948 46.3819 284.823L46.0024 286.203ZM50.5395 286.612C50.518 286.854 50.5634 287.059 50.6759 287.226C50.795 287.389 50.9807 287.505 51.233 287.574C51.5589 287.664 51.8322 287.595 52.0531 287.367C52.2755 287.134 52.4748 286.697 52.6512 286.056C52.484 286.191 52.2771 286.276 52.0303 286.309C51.7888 286.345 51.5419 286.328 51.2897 286.258C50.9533 286.166 50.6673 286.014 50.4316 285.802C50.2026 285.586 50.0468 285.32 49.9643 285.003C49.8833 284.681 49.897 284.323 50.0054 283.929C50.1659 283.346 50.4666 282.931 50.9074 282.685C51.3497 282.433 51.8704 282.39 52.4695 282.555C53.2158 282.76 53.6756 283.144 53.8489 283.706C54.0274 284.27 53.9844 285.032 53.7198 285.994C53.5319 286.677 53.3175 287.22 53.0766 287.623C52.841 288.028 52.5475 288.303 52.1963 288.45C51.8504 288.598 51.4304 288.604 50.9363 288.468C50.5474 288.361 50.2365 288.196 50.0037 287.974C49.7724 287.746 49.6164 287.491 49.5357 287.209C49.4618 286.923 49.4547 286.63 49.5147 286.33L50.5395 286.612ZM51.7655 285.422C52.0388 285.498 52.2774 285.473 52.4814 285.348C52.6853 285.223 52.8263 285.019 52.9044 284.735C52.9897 284.425 52.9713 284.163 52.8494 283.948C52.7342 283.73 52.5347 283.582 52.2509 283.504C51.9671 283.426 51.7165 283.453 51.4992 283.585C51.2886 283.714 51.1435 283.923 51.064 284.212C50.9873 284.49 51.0033 284.741 51.1118 284.963C51.227 285.181 51.4449 285.334 51.7655 285.422ZM54.5101 289.502C54.3104 289.447 54.1614 289.341 54.0633 289.184C53.9719 289.023 53.9515 288.85 54.0021 288.666C54.0527 288.483 54.1576 288.347 54.317 288.261C54.4831 288.171 54.666 288.154 54.8657 288.209C55.0602 288.262 55.2031 288.369 55.2946 288.53C55.3875 288.686 55.4086 288.856 55.358 289.039C55.3074 289.223 55.2017 289.361 55.0409 289.453C54.8815 289.539 54.7045 289.555 54.5101 289.502ZM57.283 285.117L57.5627 284.1L59.4627 284.623L57.8818 290.37L56.7465 290.057L58.0477 285.327L57.283 285.117Z" fill="white"/>
<rect x="82.4557" y="251.225" width="31.683" height="31.683" rx="10.2203" transform="rotate(15.3806 82.4557 251.225)" fill="white" fill-opacity="0.08"/>
<g opacity="0.4">
<path fill-rule="evenodd" clip-rule="evenodd" d="M91.5497 263.308L99.0296 265.366C99.3141 265.444 99.4812 265.738 99.4028 266.023L99.3106 266.359C99.2322 266.644 98.9381 266.811 98.6536 266.733L91.1737 264.675C90.8892 264.597 90.7221 264.303 90.8005 264.018L90.8927 263.682C90.971 263.397 91.2652 263.23 91.5497 263.308ZM88.4228 274.675L95.9027 276.733C96.1872 276.811 96.3543 277.106 96.2759 277.391L96.1837 277.726C96.1053 278.011 95.8111 278.178 95.5266 278.1L88.0468 276.042C87.7623 275.964 87.5952 275.67 87.6735 275.385L87.7658 275.05C87.8441 274.765 88.1383 274.597 88.4228 274.675ZM98.6575 267.477L98.5186 267.982C98.02 269.795 96.3587 270.991 94.5624 270.985C96.1088 271.899 96.9246 273.777 96.426 275.589L96.2871 276.095L88.4196 273.93L88.5586 273.425C89.0572 271.613 90.7185 270.417 92.5148 270.422C90.9684 269.508 90.1526 267.631 90.6511 265.818L90.7901 265.313L98.6575 267.477Z" fill="white"/>
</g>
<path d="M80.0077 293.954L78.5177 293.545L78.097 295.074L77.0564 294.788L77.4771 293.258L75.9871 292.848L76.2517 291.887L77.7416 292.297L78.1624 290.767L79.203 291.053L78.7823 292.583L80.2722 292.993L80.0077 293.954ZM87.1126 296.706C87.0374 296.979 86.8956 297.217 86.6872 297.42C86.4855 297.619 86.2263 297.76 85.9097 297.842C85.5997 297.921 85.2572 297.923 84.8821 297.848L84.7064 298.486L84.2019 298.348L84.3797 297.701C83.8671 297.509 83.4874 297.235 83.2406 296.879C82.9952 296.517 82.9308 296.104 83.0475 295.639L84.23 295.964C84.1575 296.351 84.289 296.633 84.6247 296.81L85.0389 295.305C84.6866 295.106 84.4078 294.927 84.2025 294.769C83.9973 294.611 83.8395 294.404 83.7292 294.147C83.6188 293.891 83.6135 293.581 83.7133 293.218C83.839 292.761 84.1046 292.433 84.51 292.233C84.9206 292.035 85.3918 291.987 85.9237 292.088L86.0994 291.45L86.6039 291.588L86.4283 292.227C86.9212 292.408 87.2814 292.671 87.5086 293.016C87.7412 293.363 87.8122 293.772 87.7218 294.245L86.5314 293.917C86.5576 293.761 86.5385 293.614 86.4743 293.478C86.4167 293.337 86.3183 293.223 86.1789 293.134L85.769 294.623C86.1357 294.832 86.419 295.014 86.619 295.171C86.8257 295.324 86.9842 295.529 87.0945 295.785C87.2063 296.036 87.2124 296.343 87.1126 296.706ZM84.8794 293.48C84.8317 293.653 84.8452 293.81 84.92 293.949C84.9962 294.083 85.1248 294.212 85.3057 294.335L85.6808 292.971C85.4844 292.945 85.3151 292.975 85.1729 293.06C85.0308 293.146 84.9329 293.285 84.8794 293.48ZM85.1249 296.965C85.3348 296.983 85.5122 296.944 85.6573 296.848C85.8076 296.754 85.9073 296.618 85.9565 296.439C86.0042 296.265 85.9873 296.111 85.9059 295.976C85.8244 295.84 85.6906 295.71 85.5044 295.585L85.1249 296.965ZM88.6299 297.488C89.2501 297.206 89.7483 296.967 90.1245 296.771C90.5021 296.57 90.8327 296.344 91.1163 296.094C91.3999 295.845 91.5821 295.572 91.6631 295.278C91.7368 295.01 91.7316 294.782 91.6474 294.595C91.5632 294.408 91.3897 294.279 91.1269 294.206C90.8641 294.134 90.6372 294.168 90.4461 294.307C90.2565 294.442 90.1172 294.661 90.0281 294.964L88.9559 294.669C89.1504 294.044 89.4686 293.617 89.9103 293.388C90.3573 293.161 90.8541 293.122 91.4007 293.273C91.9999 293.437 92.4156 293.724 92.648 294.133C92.8819 294.536 92.9272 294.998 92.7841 295.519C92.6714 295.929 92.4533 296.29 92.1299 296.602C91.8065 296.915 91.4646 297.171 91.1042 297.372C90.7452 297.567 90.2836 297.796 89.7194 298.059L92.045 298.699L91.7934 299.613L87.899 298.542L88.1246 297.722L88.6299 297.488ZM97.8063 296.196L95.252 295.494L94.8812 296.842C95.0292 296.735 95.2172 296.668 95.4453 296.641C95.6748 296.608 95.9052 296.623 96.1365 296.687C96.5569 296.802 96.8759 296.989 97.0933 297.247C97.3107 297.504 97.4401 297.794 97.4815 298.117C97.5243 298.434 97.5009 298.755 97.4113 299.081C97.245 299.685 96.9378 300.124 96.4898 300.396C96.047 300.67 95.5076 300.72 94.8717 300.545C94.2725 300.38 93.8355 300.099 93.5605 299.701C93.2855 299.303 93.1909 298.856 93.2766 298.359L94.3487 298.654C94.3382 298.877 94.397 299.074 94.5253 299.245C94.6588 299.418 94.8543 299.539 95.1118 299.61C95.4219 299.696 95.6825 299.663 95.8936 299.512C96.1048 299.361 96.2545 299.125 96.3427 298.804C96.4323 298.478 96.4188 298.209 96.3021 297.996C96.1922 297.779 95.9822 297.628 95.6721 297.543C95.4513 297.482 95.2522 297.487 95.0747 297.556C94.8972 297.626 94.7516 297.745 94.6379 297.911L93.5815 297.621L94.5097 294.246L98.073 295.227L97.8063 296.196Z" fill="white"/>
<rect x="121.38" y="261.933" width="31.683" height="31.683" rx="10.2203" transform="rotate(15.3806 121.38 261.933)" fill="white" fill-opacity="0.08"/>
<g opacity="0.4">
<path d="M138.176 281.946C139.003 278.941 137.237 275.835 134.234 275.008C131.23 274.182 128.124 275.948 127.297 278.954C127.032 279.918 127.095 280.462 127.095 280.462C127.195 281.299 127.438 281.74 127.171 282.12C127.02 282.335 126.959 282.388 126.725 282.769C126.71 282.793 126.615 282.959 126.561 283.155C126.331 283.989 126.822 284.853 127.656 285.082C127.723 285.101 127.896 285.155 128.122 285.138C128.628 285.101 128.719 284.863 129.067 284.857C129.108 284.856 129.145 284.858 129.179 284.864C129.207 284.877 129.257 284.907 129.291 284.959C129.344 285.039 129.338 285.141 129.318 285.226C129.272 285.396 129.226 285.566 129.179 285.736L129.183 285.737L128.959 286.552C128.923 286.683 129 286.819 129.131 286.855L129.782 287.034C129.914 287.07 130.049 286.993 130.085 286.862L130.309 286.048C130.397 286.072 130.485 286.096 130.572 286.12L130.349 286.933C130.312 287.065 130.389 287.2 130.521 287.236L131.172 287.415C131.303 287.452 131.438 287.374 131.475 287.243L131.698 286.43C131.786 286.454 131.874 286.479 131.961 286.503L131.738 287.316C131.702 287.447 131.779 287.582 131.91 287.619L132.561 287.798C132.692 287.834 132.828 287.757 132.864 287.625L133.212 286.359C133.219 286.34 133.226 286.32 133.234 286.302C133.27 286.211 133.308 286.129 133.394 286.087C133.447 286.061 133.5 286.059 133.54 286.062C133.571 286.075 133.604 286.092 133.638 286.113C133.934 286.297 133.891 286.548 134.307 286.839C134.492 286.969 134.668 287.011 134.736 287.029C135.57 287.259 136.433 286.768 136.663 285.933C136.717 285.737 136.719 285.546 136.719 285.518C136.712 285.07 136.687 284.994 136.668 284.731C136.632 284.27 137.067 284.014 137.581 283.346C137.581 283.346 137.913 282.911 138.178 281.946L138.176 281.946ZM131.923 283.412C132.3 283.516 132.341 284.575 132.124 284.744C132.112 284.754 132.097 284.759 132.092 284.762C131.943 284.829 131.831 284.742 131.568 284.671C131.315 284.602 131.177 284.615 131.086 284.485C131.084 284.482 131.072 284.467 131.067 284.454C130.967 284.199 131.545 283.308 131.922 283.412L131.923 283.412ZM128.773 281.515C128.779 281.429 128.811 281.006 129.135 280.77C129.422 280.561 129.776 280.659 130.36 280.813C130.941 280.965 131.273 281.053 131.427 281.361C131.613 281.736 131.398 282.161 131.365 282.228C131.111 282.734 130.443 283.114 129.778 282.931C129.112 282.748 128.731 282.089 128.773 281.515ZM135.599 283.392C135.345 283.898 134.677 284.278 134.011 284.095C133.345 283.912 132.965 283.254 133.006 282.679C133.012 282.593 133.044 282.17 133.368 281.934C133.656 281.725 134.009 281.824 134.594 281.977C135.174 282.13 135.507 282.217 135.66 282.526C135.846 282.9 135.631 283.326 135.599 283.392Z" fill="white"/>
</g>
<path d="M119.767 304.892L118.277 304.482L117.857 306.011L116.816 305.725L117.237 304.196L115.747 303.786L116.011 302.824L117.501 303.234L117.922 301.704L118.963 301.991L118.542 303.52L120.032 303.93L119.767 304.892ZM126.872 307.643C126.797 307.917 126.655 308.155 126.447 308.357C126.245 308.556 125.986 308.697 125.669 308.779C125.359 308.858 125.017 308.86 124.642 308.785L124.466 309.424L123.962 309.285L124.139 308.638C123.627 308.446 123.247 308.172 123 307.816C122.755 307.455 122.69 307.041 122.807 306.576L123.99 306.901C123.917 307.288 124.049 307.57 124.384 307.747L124.799 306.242C124.446 306.043 124.167 305.865 123.962 305.706C123.757 305.548 123.599 305.341 123.489 305.084C123.378 304.828 123.373 304.518 123.473 304.156C123.599 303.698 123.864 303.37 124.27 303.171C124.68 302.973 125.152 302.924 125.683 303.025L125.859 302.387L126.364 302.526L126.188 303.164C126.681 303.345 127.041 303.608 127.268 303.953C127.501 304.3 127.572 304.709 127.481 305.182L126.291 304.855C126.317 304.698 126.298 304.551 126.234 304.415C126.176 304.275 126.078 304.16 125.939 304.071L125.529 305.561C125.895 305.769 126.179 305.951 126.379 306.108C126.585 306.261 126.744 306.466 126.854 306.722C126.966 306.974 126.972 307.281 126.872 307.643ZM124.639 304.417C124.591 304.591 124.605 304.747 124.68 304.886C124.756 305.02 124.884 305.149 125.065 305.272L125.441 303.908C125.244 303.882 125.075 303.912 124.933 303.998C124.79 304.083 124.693 304.223 124.639 304.417ZM124.885 307.902C125.094 307.92 125.272 307.881 125.417 307.786C125.567 307.691 125.667 307.555 125.716 307.376C125.764 307.203 125.747 307.048 125.666 306.913C125.584 306.777 125.45 306.647 125.264 306.522L124.885 307.902ZM128.867 304.808L129.147 303.792L131.047 304.314L129.466 310.061L128.331 309.749L129.632 305.019L128.867 304.808ZM135.895 306.674L133.341 305.971L132.97 307.319C133.118 307.213 133.306 307.146 133.534 307.118C133.764 307.085 133.994 307.101 134.226 307.164C134.646 307.28 134.965 307.467 135.182 307.724C135.4 307.982 135.529 308.272 135.571 308.594C135.613 308.911 135.59 309.233 135.5 309.559C135.334 310.163 135.027 310.602 134.579 310.874C134.136 311.148 133.597 311.197 132.961 311.023C132.362 310.858 131.925 310.576 131.65 310.178C131.375 309.781 131.28 309.333 131.366 308.837L132.438 309.132C132.427 309.355 132.486 309.552 132.614 309.723C132.748 309.895 132.943 310.017 133.201 310.088C133.511 310.173 133.772 310.14 133.983 309.989C134.194 309.838 134.344 309.602 134.432 309.282C134.521 308.956 134.508 308.686 134.391 308.473C134.281 308.257 134.071 308.106 133.761 308.02C133.54 307.96 133.341 307.964 133.164 308.034C132.986 308.104 132.841 308.222 132.727 308.389L131.671 308.098L132.599 304.724L136.162 305.704L135.895 306.674Z" fill="white"/>
<rect x="160.304" y="272.64" width="31.683" height="31.683" rx="10.2203" transform="rotate(15.3806 160.304 272.64)" fill="white" fill-opacity="0.08"/>
<g opacity="0.4">
<path d="M169.577 298.373L169.364 298.253C164.022 294.147 166.67 286.537 166.701 286.423L166.9 285.926L167.416 286.068C170.051 286.793 172.668 285.795 172.668 285.795L173.074 285.662L173.356 285.985C173.356 285.985 175.093 288.18 177.729 288.905L178.245 289.047L178.161 289.576C178.146 289.633 176.517 297.645 169.842 298.385L169.578 298.373L169.577 298.373ZM167.675 287.365C167.236 288.962 166.184 294.129 169.906 297.176C174.648 296.518 176.387 291.54 176.842 289.887C174.769 289.133 173.259 287.675 172.697 287.03C171.884 287.297 169.842 287.777 167.675 287.365Z" fill="white"/>
<path d="M170.156 296.268C166.661 293.512 168.512 288.188 168.512 288.188C170.489 288.732 172.451 287.925 172.451 287.925C172.451 287.925 173.724 289.622 175.701 290.165C175.701 290.165 174.568 295.688 170.156 296.268Z" fill="white"/>
</g>
<path d="M156.415 314.973L154.925 314.563L154.504 316.092L153.464 315.806L153.884 314.277L152.394 313.867L152.659 312.905L154.149 313.315L154.57 311.785L155.61 312.072L155.19 313.601L156.679 314.011L156.415 314.973ZM163.52 317.724C163.445 317.997 163.303 318.235 163.095 318.438C162.893 318.637 162.634 318.778 162.317 318.86C162.007 318.939 161.664 318.941 161.289 318.866L161.114 319.505L160.609 319.366L160.787 318.719C160.274 318.527 159.895 318.253 159.648 317.897C159.402 317.536 159.338 317.122 159.455 316.657L160.637 316.982C160.565 317.369 160.696 317.651 161.032 317.828L161.446 316.323C161.094 316.124 160.815 315.946 160.61 315.787C160.405 315.629 160.247 315.422 160.136 315.165C160.026 314.909 160.021 314.599 160.121 314.237C160.246 313.779 160.512 313.451 160.917 313.252C161.328 313.054 161.799 313.005 162.331 313.106L162.507 312.468L163.011 312.607L162.836 313.245C163.328 313.426 163.689 313.689 163.916 314.034C164.148 314.381 164.22 314.79 164.129 315.263L162.939 314.936C162.965 314.779 162.946 314.632 162.882 314.496C162.824 314.356 162.726 314.241 162.586 314.152L162.176 315.642C162.543 315.85 162.826 316.032 163.026 316.189C163.233 316.342 163.391 316.547 163.502 316.803C163.614 317.055 163.62 317.362 163.52 317.724ZM161.287 314.498C161.239 314.671 161.253 314.828 161.327 314.967C161.403 315.101 161.532 315.23 161.713 315.353L162.088 313.989C161.892 313.963 161.722 313.993 161.58 314.078C161.438 314.164 161.34 314.304 161.287 314.498ZM161.532 317.983C161.742 318.001 161.919 317.962 162.065 317.867C162.215 317.772 162.315 317.636 162.364 317.457C162.411 317.284 162.395 317.129 162.313 316.994C162.232 316.858 162.098 316.728 161.912 316.603L161.532 317.983ZM166.147 316.878C165.696 316.46 165.55 315.965 165.707 315.392C165.785 315.108 165.927 314.87 166.133 314.678C166.345 314.482 166.614 314.355 166.941 314.298C167.274 314.237 167.651 314.265 168.072 314.38C168.492 314.496 168.827 314.664 169.077 314.886C169.334 315.103 169.501 315.35 169.578 315.625C169.661 315.897 169.664 316.175 169.586 316.459C169.506 316.748 169.365 316.983 169.163 317.165C168.962 317.341 168.726 317.458 168.456 317.513C168.711 317.719 168.886 317.965 168.983 318.252C169.079 318.538 169.082 318.847 168.991 319.178C168.892 319.536 168.714 319.823 168.457 320.04C168.206 320.254 167.903 320.388 167.549 320.444C167.194 320.499 166.82 320.472 166.426 320.364C166.032 320.255 165.696 320.087 165.42 319.858C165.149 319.631 164.958 319.361 164.846 319.047C164.741 318.73 164.738 318.393 164.836 318.035C164.927 317.704 165.087 317.44 165.317 317.243C165.548 317.041 165.824 316.919 166.147 316.878ZM168.47 316.322C168.541 316.064 168.517 315.843 168.399 315.657C168.285 315.474 168.095 315.345 167.827 315.271C167.564 315.199 167.334 315.212 167.137 315.31C166.946 315.41 166.814 315.592 166.742 315.854C166.677 316.091 166.704 316.302 166.822 316.487C166.946 316.674 167.134 316.802 167.386 316.871C167.639 316.941 167.866 316.927 168.068 316.83C168.271 316.727 168.405 316.558 168.47 316.322ZM167.165 317.675C166.866 317.593 166.6 317.602 166.369 317.702C166.143 317.804 165.991 317.997 165.913 318.281C165.841 318.544 165.871 318.784 166.003 319.001C166.143 319.214 166.367 319.364 166.677 319.449C166.987 319.535 167.255 319.518 167.48 319.399C167.705 319.28 167.853 319.091 167.924 318.834C168 318.555 167.967 318.314 167.825 318.111C167.685 317.903 167.465 317.758 167.165 317.675ZM170.171 321.318C169.971 321.263 169.822 321.157 169.724 321C169.633 320.839 169.612 320.666 169.663 320.482C169.713 320.299 169.818 320.163 169.978 320.077C170.144 319.987 170.327 319.97 170.526 320.025C170.721 320.078 170.864 320.185 170.955 320.346C171.048 320.502 171.069 320.671 171.019 320.855C170.968 321.039 170.862 321.177 170.702 321.269C170.542 321.355 170.365 321.371 170.171 321.318ZM172.037 320.567L172.276 319.7L175.869 316.72L177.154 317.073L176.165 320.668L176.858 320.859L176.594 321.821L175.9 321.63L175.592 322.75L174.488 322.446L174.796 321.326L172.037 320.567ZM175.796 317.972L173.516 319.94L175.132 320.384L175.796 317.972Z" fill="white"/>
<g clip-path="url(#clip1_732_19756)">
<rect x="90.5627" y="69.5461" width="153.305" height="87.8947" rx="10.2203" transform="rotate(15.3806 90.5627 69.5461)" fill="white" fill-opacity="0.1"/>
<g filter="url(#filter3_b_732_19756)">
<g clip-path="url(#clip2_732_19756)">
<rect x="96.5686" y="80.4668" width="23.387" height="23.387" rx="11.6935" transform="rotate(15.3806 96.5686 80.4668)" fill="url(#paint2_linear_732_19756)"/>
<g clip-path="url(#clip3_732_19756)">
<path d="M101.463 92.2647C100.672 91.2373 100.487 89.8921 100.68 88.8605C100.712 88.6972 100.598 88.5657 100.458 88.5272C100.355 88.499 100.239 88.5201 100.154 88.6094C98.6103 90.245 98.2902 92.9894 99.1514 94.358C99.6314 93.6709 100.282 93.0338 101.039 92.5294C101.178 92.4364 101.319 92.3501 101.462 92.2676L101.463 92.2647ZM111.877 91.8343C111.85 91.7142 111.761 91.6366 111.659 91.6084C111.516 91.569 111.354 91.6215 111.294 91.78C110.932 92.7654 110.084 93.8295 108.879 94.3077C108.96 94.4519 109.037 94.5981 109.109 94.7492C109.502 95.5701 109.735 96.4501 109.796 97.286C111.236 96.5504 112.364 94.0314 111.877 91.8343ZM107.013 93.1879L105.901 97.2277L109.005 98.0814C109.133 96.4502 108.405 94.3899 107.013 93.1879ZM102.531 96.3005L103.642 92.2606C101.832 92.5786 100.156 93.9777 99.4272 95.4468L102.531 96.3005ZM108.923 98.831L99.1146 96.133C98.9374 96.0842 98.7576 96.1786 98.712 96.3443L98.3498 97.6609C98.3043 97.8265 98.4105 97.9996 98.5878 98.0483L108.393 100.745C108.57 100.794 108.75 100.7 108.795 100.534L109.157 99.2176C109.203 99.0519 109.097 98.8789 108.919 98.8301L108.923 98.831ZM106.321 92.6976C106.047 92.5407 105.75 92.4154 105.436 92.329C105.122 92.2426 104.806 92.1994 104.487 92.1929L103.3 96.5089L105.131 97.0127L106.318 92.6967L106.321 92.6976Z" fill="white"/>
</g>
</g>
</g>
<path d="M129.753 99.872C129.641 100.277 129.439 100.629 129.147 100.93C128.861 101.232 128.483 101.435 128.011 101.538C127.547 101.644 127.004 101.611 126.383 101.44L125.115 101.091L124.315 103.996L122.798 103.579L124.879 96.0129L127.665 96.7792C128.25 96.9402 128.721 97.1785 129.077 97.4942C129.434 97.8098 129.664 98.1725 129.769 98.5823C129.881 98.994 129.876 99.4239 129.753 99.872ZM126.655 100.197C127.074 100.313 127.41 100.304 127.664 100.172C127.92 100.033 128.096 99.7895 128.192 99.4426C128.394 98.7055 128.084 98.2236 127.26 97.997L126.057 97.666L125.451 99.8665L126.655 100.197ZM132.523 100.797C132.805 100.533 133.127 100.353 133.487 100.258C133.855 100.165 134.241 100.174 134.646 100.285L134.207 101.879L133.806 101.768C133.329 101.637 132.937 101.65 132.63 101.806C132.33 101.965 132.103 102.322 131.95 102.878L131.127 105.87L129.61 105.453L131.261 99.4475L132.779 99.865L132.523 100.797ZM136.849 107.549C136.27 107.39 135.785 107.12 135.392 106.74C135.001 106.353 134.736 105.888 134.598 105.344C134.467 104.803 134.486 104.225 134.655 103.611C134.824 102.997 135.107 102.491 135.504 102.095C135.908 101.701 136.379 101.442 136.918 101.318C137.46 101.188 138.019 101.202 138.597 101.361C139.176 101.52 139.664 101.794 140.062 102.183C140.462 102.565 140.731 103.028 140.869 103.571C141.015 104.117 141.003 104.696 140.834 105.311C140.665 105.925 140.375 106.428 139.964 106.82C139.56 107.214 139.084 107.476 138.535 107.605C137.996 107.729 137.434 107.71 136.849 107.549ZM137.212 106.227C137.487 106.302 137.761 106.308 138.036 106.243C138.319 106.173 138.57 106.025 138.788 105.797C139.006 105.57 139.168 105.264 139.273 104.881C139.43 104.31 139.399 103.831 139.179 103.444C138.968 103.052 138.646 102.796 138.212 102.677C137.778 102.558 137.371 102.613 136.989 102.842C136.616 103.066 136.352 103.463 136.195 104.034C136.038 104.605 136.057 105.085 136.254 105.473C136.459 105.856 136.779 106.107 137.212 106.227ZM147.196 105.44L146.844 106.719L142.248 105.455L142.6 104.176L147.196 105.44ZM154.829 106.77C154.718 107.175 154.516 107.527 154.223 107.828C153.938 108.13 153.56 108.333 153.088 108.437C152.624 108.542 152.081 108.509 151.459 108.338L150.191 107.989L149.392 110.895L147.874 110.477L149.956 102.911L152.742 103.677C153.327 103.838 153.798 104.077 154.154 104.392C154.51 104.708 154.741 105.071 154.846 105.48C154.958 105.892 154.952 106.322 154.829 106.77ZM151.731 107.096C152.15 107.211 152.487 107.202 152.741 107.07C152.997 106.931 153.173 106.688 153.268 106.341C153.471 105.604 153.16 105.122 152.337 104.895L151.133 104.564L150.528 106.765L151.731 107.096ZM158.41 104.747L156.204 112.768L154.686 112.351L156.893 104.329L158.41 104.747ZM158.361 110.109C158.528 109.502 158.796 108.996 159.163 108.592C159.538 108.19 159.967 107.919 160.448 107.779C160.937 107.642 161.438 107.644 161.951 107.785C162.399 107.908 162.764 108.106 163.047 108.378C163.337 108.652 163.545 108.954 163.672 109.284L163.908 108.428L165.436 108.848L163.784 114.854L162.256 114.433L162.497 113.555C162.225 113.783 161.889 113.944 161.49 114.036C161.101 114.123 160.682 114.105 160.234 113.982C159.728 113.843 159.302 113.586 158.954 113.21C158.614 112.837 158.385 112.381 158.269 111.844C158.162 111.301 158.193 110.723 158.361 110.109ZM163.082 111.43C163.183 111.062 163.197 110.728 163.124 110.428C163.053 110.121 162.914 109.865 162.706 109.66C162.5 109.448 162.256 109.303 161.974 109.225C161.692 109.148 161.413 109.145 161.137 109.217C160.861 109.288 160.61 109.437 160.385 109.663C160.169 109.883 160.011 110.174 159.912 110.535C159.812 110.896 159.797 111.234 159.866 111.549C159.944 111.858 160.083 112.117 160.281 112.328C160.487 112.54 160.728 112.683 161.002 112.759C161.284 112.837 161.567 112.84 161.85 112.771C162.136 112.694 162.386 112.545 162.602 112.325C162.821 112.097 162.98 111.799 163.082 111.43ZM172.88 110.896L166.729 118.718L165.114 118.274L167.237 115.64L166.441 109.125L168.143 109.593L168.539 114.214L171.265 110.452L172.88 110.896ZM178.707 115.589C178.647 115.806 178.579 115.997 178.503 116.162L174.113 114.955C174.029 115.398 174.088 115.78 174.288 116.099C174.487 116.418 174.782 116.631 175.173 116.739C175.736 116.894 176.204 116.762 176.576 116.343L178.212 116.794C177.88 117.324 177.416 117.71 176.822 117.95C176.229 118.184 175.575 118.202 174.859 118.005C174.281 117.846 173.796 117.576 173.403 117.196C173.019 116.811 172.762 116.348 172.631 115.806C172.507 115.267 172.53 114.69 172.699 114.076C172.87 113.454 173.146 112.944 173.528 112.544C173.91 112.143 174.364 111.879 174.889 111.752C175.414 111.624 175.972 111.642 176.565 111.805C177.136 111.962 177.611 112.225 177.992 112.594C178.38 112.965 178.634 113.412 178.754 113.934C178.884 114.452 178.868 115.004 178.707 115.589ZM177.255 114.723C177.355 114.331 177.299 113.981 177.088 113.674C176.879 113.36 176.576 113.149 176.179 113.039C175.803 112.936 175.453 112.964 175.129 113.124C174.815 113.278 174.573 113.55 174.404 113.939L177.255 114.723ZM182.083 114.43C182.365 114.166 182.687 113.986 183.047 113.891C183.415 113.798 183.801 113.807 184.206 113.918L183.768 115.512L183.367 115.401C182.89 115.27 182.497 115.283 182.19 115.439C181.89 115.598 181.663 115.955 181.51 116.512L180.687 119.503L179.17 119.086L180.822 113.081L182.339 113.498L182.083 114.43Z" fill="white"/>
<path d="M89.4612 121.085L89.3505 121.487L88.0051 121.117L86.7822 125.563L86.2967 125.429L87.5196 120.984L86.1672 120.612L86.2779 120.209L89.4612 121.085ZM90.6752 126.693C90.3192 126.595 90.0195 126.428 89.776 126.192C89.5385 125.953 89.3766 125.665 89.2903 125.328C89.2099 124.987 89.2237 124.621 89.3318 124.228C89.4399 123.835 89.6172 123.515 89.8638 123.27C90.1117 123.02 90.4005 122.855 90.7304 122.777C91.0616 122.694 91.4052 122.702 91.7612 122.8C92.1172 122.897 92.4163 123.067 92.6585 123.307C92.9065 123.545 93.0707 123.834 93.1512 124.174C93.2375 124.511 93.2266 124.876 93.1185 125.269C93.0117 125.658 92.8343 125.977 92.5865 126.227C92.3386 126.477 92.0468 126.643 91.711 126.725C91.3765 126.802 91.0312 126.791 90.6752 126.693ZM90.7916 126.27C91.0412 126.339 91.2877 126.347 91.5309 126.295C91.7754 126.238 91.9935 126.114 92.1853 125.923C92.3829 125.728 92.5276 125.465 92.6191 125.132C92.7107 124.799 92.7229 124.501 92.6558 124.239C92.5899 123.972 92.4659 123.754 92.2838 123.585C92.1029 123.411 91.8876 123.289 91.6379 123.221C91.3883 123.152 91.1412 123.146 90.8967 123.203C90.6535 123.256 90.4354 123.38 90.2423 123.575C90.0551 123.768 89.9158 124.03 89.8242 124.363C89.7326 124.696 89.7175 124.995 89.7787 125.261C89.8459 125.523 89.9676 125.74 90.1438 125.913C90.326 126.083 90.5419 126.202 90.7916 126.27ZM95.1815 124.24L94.5348 126.591C94.4712 126.822 94.4713 126.994 94.5349 127.106C94.5986 127.218 94.7414 127.305 94.9634 127.366L95.4072 127.488L95.2927 127.904L94.7726 127.761C94.4305 127.667 94.1978 127.518 94.0746 127.315C93.9526 127.108 93.9419 126.821 94.0424 126.456L94.6891 124.105L94.162 123.96L94.2746 123.551L94.8017 123.696L95.0631 122.745L95.5555 122.881L95.2941 123.831L96.3344 124.117L96.2218 124.526L95.1815 124.24ZM96.5329 126.201C96.6397 125.813 96.8095 125.494 97.0422 125.244C97.2808 124.992 97.5581 124.824 97.8742 124.742C98.1961 124.657 98.5304 124.662 98.8772 124.757C99.2378 124.856 99.5247 125.025 99.7379 125.262C99.9556 125.501 100.087 125.766 100.131 126.057L100.36 125.225L100.845 125.358L99.8038 129.145L99.3183 129.011L99.5492 128.172C99.3577 128.398 99.1067 128.56 98.7961 128.659C98.4914 128.754 98.1587 128.752 97.7981 128.653C97.456 128.559 97.1684 128.393 96.9355 128.154C96.7073 127.918 96.5552 127.63 96.4794 127.29C96.4082 126.952 96.4261 126.589 96.5329 126.201ZM99.8392 127.118C99.9231 126.813 99.9344 126.527 99.8732 126.262C99.812 125.996 99.6899 125.771 99.5069 125.587C99.3285 125.403 99.1099 125.276 98.851 125.205C98.5828 125.131 98.3259 125.125 98.0801 125.187C97.8344 125.248 97.6173 125.378 97.4288 125.575C97.2463 125.768 97.1118 126.022 97.0253 126.336C96.9401 126.646 96.9252 126.936 96.9805 127.204C97.0418 127.47 97.1616 127.694 97.3399 127.878C97.5195 128.056 97.7434 128.183 98.0116 128.256C98.2705 128.328 98.5235 128.33 98.7705 128.264C99.0221 128.199 99.2422 128.068 99.4306 127.871C99.619 127.674 99.7552 127.423 99.8392 127.118ZM102.948 124.489L101.536 129.621L101.051 129.488L102.463 124.356L102.948 124.489ZM107.773 128.644C108.032 128.77 108.225 128.972 108.352 129.251C108.479 129.529 108.501 129.819 108.419 130.12C108.351 130.365 108.228 130.569 108.048 130.734C107.875 130.895 107.654 131.001 107.386 131.052C107.12 131.098 106.823 131.076 106.495 130.985L104.816 130.524L106.15 125.676L107.78 126.124C108.27 126.259 108.611 126.475 108.803 126.771C108.999 127.069 109.048 127.398 108.949 127.759C108.866 128.059 108.718 128.282 108.504 128.427C108.291 128.568 108.047 128.64 107.773 128.644ZM106.046 127.952L107.176 128.263C107.504 128.354 107.777 128.347 107.995 128.242C108.219 128.135 108.368 127.945 108.443 127.672C108.517 127.404 108.484 127.169 108.346 126.966C108.212 126.765 107.974 126.618 107.632 126.524L106.523 126.219L106.046 127.952ZM106.572 130.567C106.924 130.663 107.22 130.655 107.459 130.542C107.704 130.43 107.866 130.229 107.947 129.937C108.027 129.646 107.986 129.386 107.825 129.158C107.67 128.926 107.419 128.763 107.072 128.668L105.935 128.355L105.414 130.248L106.572 130.567ZM109.394 129.739C109.501 129.35 109.67 129.032 109.903 128.782C110.142 128.53 110.419 128.362 110.735 128.28C111.057 128.195 111.391 128.199 111.738 128.295C112.099 128.394 112.386 128.562 112.599 128.8C112.817 129.039 112.948 129.304 112.992 129.595L113.221 128.762L113.706 128.896L112.665 132.683L112.179 132.549L112.41 131.71C112.219 131.936 111.968 132.098 111.657 132.197C111.352 132.292 111.02 132.29 110.659 132.191C110.317 132.096 110.029 131.93 109.797 131.692C109.568 131.455 109.416 131.167 109.34 130.828C109.269 130.49 109.287 130.127 109.394 129.739ZM112.7 130.656C112.784 130.351 112.795 130.065 112.734 129.8C112.673 129.534 112.551 129.309 112.368 129.125C112.19 128.941 111.971 128.814 111.712 128.743C111.444 128.669 111.187 128.663 110.941 128.725C110.695 128.786 110.478 128.916 110.29 129.112C110.107 129.306 109.973 129.56 109.886 129.874C109.801 130.184 109.786 130.473 109.841 130.742C109.903 131.008 110.023 131.232 110.201 131.416C110.38 131.594 110.604 131.72 110.873 131.794C111.131 131.865 111.384 131.868 111.631 131.802C111.883 131.737 112.103 131.606 112.292 131.409C112.48 131.212 112.616 130.961 112.7 130.656ZM115.809 128.027L114.397 133.159L113.912 133.026L115.324 127.894L115.809 128.027ZM115.936 131.538C116.043 131.15 116.213 130.831 116.445 130.582C116.684 130.329 116.961 130.162 117.277 130.08C117.599 129.994 117.934 129.999 118.28 130.094C118.641 130.194 118.928 130.362 119.141 130.6C119.359 130.839 119.49 131.104 119.534 131.394L119.763 130.562L120.249 130.696L119.207 134.482L118.722 134.349L118.952 133.51C118.761 133.735 118.51 133.898 118.199 133.996C117.895 134.091 117.562 134.089 117.201 133.99C116.859 133.896 116.572 133.73 116.339 133.492C116.11 133.255 115.958 132.967 115.883 132.628C115.811 132.29 115.829 131.927 115.936 131.538ZM119.242 132.455C119.326 132.15 119.338 131.865 119.276 131.599C119.215 131.334 119.093 131.109 118.91 130.924C118.732 130.741 118.513 130.614 118.254 130.542C117.986 130.469 117.729 130.463 117.483 130.524C117.238 130.586 117.02 130.715 116.832 130.912C116.65 131.106 116.515 131.359 116.429 131.674C116.343 131.984 116.328 132.273 116.384 132.542C116.445 132.807 116.565 133.032 116.743 133.215C116.923 133.394 117.147 133.52 117.415 133.594C117.674 133.665 117.927 133.668 118.174 133.601C118.425 133.536 118.645 133.405 118.834 133.208C119.022 133.012 119.158 132.761 119.242 132.455ZM123.29 131.458C123.743 131.582 124.074 131.825 124.283 132.186C124.494 132.542 124.526 132.986 124.38 133.518L123.769 135.737L123.291 135.606L123.886 133.442C123.999 133.03 123.981 132.687 123.833 132.413C123.69 132.139 123.44 131.954 123.084 131.856C122.718 131.755 122.395 131.791 122.114 131.962C121.834 132.134 121.631 132.444 121.508 132.892L120.94 134.959L120.454 134.825L121.496 131.039L121.981 131.172L121.804 131.817C121.988 131.619 122.209 131.491 122.469 131.433C122.73 131.371 123.004 131.379 123.29 131.458ZM125.28 134.116C125.389 133.723 125.561 133.403 125.799 133.155C126.037 132.902 126.317 132.735 126.637 132.654C126.959 132.569 127.298 132.575 127.654 132.673C128.121 132.802 128.473 133.023 128.71 133.337C128.952 133.652 129.062 134.02 129.04 134.442L128.52 134.299C128.53 134.008 128.448 133.757 128.273 133.544C128.103 133.329 127.859 133.177 127.54 133.089C127.286 133.019 127.041 133.014 126.806 133.074C126.57 133.133 126.361 133.262 126.177 133.46C125.999 133.655 125.864 133.919 125.773 134.252C125.681 134.585 125.661 134.883 125.713 135.146C125.77 135.41 125.884 135.628 126.056 135.799C126.227 135.971 126.44 136.092 126.695 136.162C127.014 136.249 127.301 136.246 127.555 136.152C127.816 136.055 128.017 135.876 128.158 135.617L128.678 135.76C128.483 136.124 128.201 136.382 127.831 136.534C127.461 136.686 127.045 136.698 126.582 136.571C126.226 136.473 125.931 136.307 125.697 136.074C125.464 135.835 125.309 135.549 125.232 135.215C125.156 134.875 125.172 134.509 125.28 134.116ZM133.374 136.134C133.328 136.3 133.288 136.426 133.255 136.511L130.113 135.647C130.048 135.938 130.05 136.202 130.119 136.44C130.188 136.677 130.31 136.877 130.484 137.04C130.659 137.197 130.867 137.309 131.108 137.375C131.422 137.462 131.706 137.458 131.961 137.364C132.22 137.271 132.42 137.105 132.561 136.865L133.074 137.006C132.88 137.351 132.598 137.599 132.228 137.751C131.864 137.899 131.453 137.911 130.995 137.785C130.639 137.687 130.342 137.52 130.103 137.286C129.865 137.046 129.706 136.759 129.624 136.423C129.548 136.084 129.564 135.718 129.672 135.324C129.781 134.931 129.954 134.609 130.192 134.356C130.431 134.103 130.713 133.937 131.038 133.858C131.364 133.778 131.707 133.788 132.067 133.887C132.428 133.986 132.721 134.151 132.946 134.382C133.175 134.614 133.325 134.884 133.394 135.192C133.47 135.496 133.463 135.81 133.374 136.134ZM132.885 135.984C132.967 135.704 132.976 135.447 132.91 135.216C132.849 134.985 132.731 134.791 132.556 134.633C132.38 134.475 132.172 134.363 131.932 134.297C131.571 134.198 131.232 134.229 130.914 134.39C130.596 134.552 130.366 134.839 130.222 135.252L132.885 135.984Z" fill="white"/>
<path d="M88.2859 144.329C88.1407 144.857 87.8669 145.317 87.4645 145.708C87.075 146.092 86.5745 146.364 85.963 146.523C85.3644 146.675 84.703 146.679 83.9786 146.534L83.6394 147.767L82.6651 147.499L83.0085 146.251C82.0188 145.88 81.2855 145.351 80.8088 144.663C80.3349 143.965 80.2107 143.167 80.4361 142.268L82.7195 142.896C82.5794 143.644 82.8335 144.189 83.4817 144.531L84.2815 141.623C83.6011 141.239 83.0627 140.895 82.6664 140.589C82.2701 140.284 81.9654 139.883 81.7523 139.388C81.5393 138.893 81.529 138.295 81.7217 137.595C81.9645 136.712 82.4774 136.078 83.2601 135.693C84.053 135.31 84.963 135.217 85.9901 135.412L86.3293 134.179L87.3036 134.447L86.9644 135.68C87.9163 136.029 88.6117 136.537 89.0506 137.204C89.4997 137.873 89.6369 138.664 89.4622 139.577L87.1635 138.944C87.2141 138.642 87.1773 138.359 87.0532 138.095C86.9421 137.824 86.752 137.603 86.4828 137.431L85.6913 140.308C86.3994 140.71 86.9466 141.062 87.3327 141.365C87.7318 141.661 88.0379 142.056 88.251 142.551C88.4669 143.036 88.4785 143.629 88.2859 144.329ZM83.9735 138.1C83.8814 138.434 83.9075 138.736 84.0519 139.005C84.199 139.264 84.4473 139.513 84.7966 139.751L85.5211 137.117C85.1418 137.067 84.8148 137.125 84.5403 137.289C84.2658 137.454 84.0768 137.724 83.9735 138.1ZM84.4476 144.829C84.8528 144.864 85.1955 144.789 85.4756 144.604C85.7659 144.422 85.9585 144.158 86.0534 143.813C86.1455 143.479 86.1129 143.18 85.9556 142.919C85.7984 142.657 85.54 142.406 85.1804 142.165L84.4476 144.829ZM92.1381 138.855L92.6783 136.892L96.3471 137.901L93.2944 148.998L91.1022 148.395L93.6148 139.262L92.1381 138.855ZM97.0357 147.44C98.2333 146.896 99.1953 146.435 99.9218 146.056C100.651 145.667 101.289 145.232 101.837 144.749C102.385 144.267 102.737 143.741 102.893 143.173C103.035 142.655 103.025 142.216 102.863 141.855C102.7 141.493 102.365 141.243 101.857 141.103C101.35 140.964 100.912 141.029 100.543 141.298C100.177 141.558 99.9076 141.981 99.7356 142.566L97.6652 141.997C98.0408 140.79 98.6552 139.966 99.5082 139.524C100.371 139.084 101.331 139.01 102.386 139.3C103.543 139.618 104.346 140.172 104.795 140.961C105.246 141.741 105.334 142.633 105.058 143.637C104.84 144.429 104.419 145.126 103.794 145.73C103.17 146.333 102.51 146.828 101.814 147.215C101.12 147.592 100.229 148.035 99.1395 148.543L103.63 149.778L103.145 151.544L95.6243 149.476L96.0598 147.892L97.0357 147.44ZM107.938 150.62L104.981 154.407L103.61 154.03L105.777 150.025L107.938 150.62ZM111.199 145.13C111.529 144.129 112.099 143.446 112.91 143.079C113.733 142.705 114.688 142.667 115.773 142.966C116.514 143.17 117.112 143.476 117.567 143.885C118.025 144.284 118.325 144.743 118.466 145.262C118.62 145.774 118.62 146.309 118.467 146.867C118.291 147.507 117.974 148.004 117.516 148.358C117.071 148.705 116.6 148.892 116.101 148.919L116.084 148.979C116.623 149.324 116.99 149.774 117.186 150.331C117.393 150.89 117.396 151.534 117.195 152.265C117.027 152.874 116.736 153.378 116.32 153.777C115.915 154.178 115.401 154.441 114.777 154.564C114.167 154.68 113.481 154.633 112.72 154.424C111.573 154.108 110.719 153.562 110.158 152.786C109.596 152.009 109.45 151.052 109.719 149.914L111.79 150.484C111.673 150.986 111.73 151.433 111.961 151.824C112.205 152.208 112.606 152.477 113.164 152.63C113.682 152.773 114.117 152.739 114.469 152.531C114.834 152.314 115.079 151.978 115.205 151.521C115.372 150.912 115.3 150.423 114.987 150.053C114.674 149.683 114.111 149.386 113.299 149.163L112.858 149.042L113.339 147.291L113.781 147.412C115.222 147.809 116.075 147.525 116.34 146.561C116.46 146.124 116.422 145.748 116.225 145.432C116.038 145.119 115.701 144.895 115.214 144.761C114.737 144.63 114.33 144.66 113.994 144.851C113.671 145.035 113.434 145.319 113.285 145.704L111.199 145.13ZM119.669 153.666C120.866 153.122 121.828 152.661 122.555 152.282C123.284 151.893 123.923 151.458 124.47 150.975C125.018 150.493 125.37 149.967 125.526 149.399C125.668 148.881 125.658 148.442 125.496 148.08C125.333 147.719 124.998 147.469 124.491 147.329C123.983 147.19 123.545 147.255 123.176 147.524C122.81 147.784 122.541 148.206 122.369 148.792L120.298 148.223C120.674 147.016 121.288 146.192 122.141 145.75C123.004 145.31 123.964 145.236 125.019 145.526C126.176 145.844 126.979 146.398 127.428 147.187C127.879 147.967 127.967 148.859 127.691 149.863C127.473 150.655 127.052 151.352 126.427 151.956C125.803 152.559 125.143 153.054 124.447 153.441C123.753 153.818 122.862 154.261 121.773 154.769L126.263 156.004L125.778 157.77L118.257 155.702L118.693 154.118L119.669 153.666ZM127.886 156.189L128.347 154.514L135.285 148.759L137.766 149.442L135.857 156.384L137.196 156.752L136.685 158.609L135.346 158.241L134.751 160.402L132.62 159.816L133.215 157.654L127.886 156.189ZM135.144 151.177L130.742 154.976L133.862 155.835L135.144 151.177ZM138.91 161.661C138.525 161.555 138.237 161.35 138.048 161.047C137.871 160.737 137.832 160.404 137.929 160.049C138.027 159.693 138.23 159.432 138.537 159.266C138.858 159.092 139.211 159.058 139.597 159.165C139.973 159.268 140.249 159.475 140.425 159.785C140.604 160.086 140.645 160.414 140.548 160.769C140.45 161.124 140.246 161.39 139.935 161.566C139.627 161.733 139.286 161.764 138.91 161.661ZM151.683 154.859L145.025 163.229L142.864 162.634L149.485 154.516L144.279 153.084L144.781 151.257L152.119 153.275L151.683 154.859ZM151.987 162.556C153.185 162.013 154.147 161.551 154.873 161.172C155.602 160.784 156.241 160.348 156.788 159.865C157.336 159.383 157.688 158.857 157.844 158.289C157.987 157.771 157.976 157.332 157.814 156.971C157.651 156.609 157.316 156.359 156.809 156.219C156.301 156.08 155.863 156.145 155.494 156.414C155.128 156.674 154.859 157.097 154.687 157.682L152.617 157.113C152.992 155.906 153.606 155.082 154.46 154.64C155.323 154.2 156.282 154.126 157.338 154.416C158.494 154.734 159.297 155.288 159.746 156.078C160.198 156.857 160.285 157.749 160.009 158.753C159.791 159.545 159.37 160.243 158.746 160.846C158.121 161.449 157.461 161.944 156.765 162.331C156.072 162.708 155.18 163.151 154.091 163.659L158.582 164.894L158.096 166.66L150.576 164.592L151.011 163.008L151.987 162.556Z" fill="white"/>
</g>
<g clip-path="url(#clip4_732_19756)">
<rect x="64.133" y="165.625" width="153.305" height="65.921" rx="10.2203" transform="rotate(15.3806 64.133 165.625)" fill="white" fill-opacity="0.08"/>
<mask id="mask0_732_19756" style="mask-type:alpha" maskUnits="userSpaceOnUse" x="84" y="209" width="118" height="53">
<path d="M188.903 261.161L84.5461 228.215C84.5461 228.215 88.6943 227.412 92.8242 224.132C97.2559 220.613 102.15 212.388 107.459 213.318C117.377 215.056 111.206 222.817 120.343 224.283C128.21 225.545 136.265 208.788 144.623 209.232C152.614 209.656 152.186 222.198 159.225 223.583C169.684 225.641 173.515 206.314 183.098 210.011C187.65 211.767 191.726 220.069 191.726 220.069L201.567 239.206L188.903 261.161Z" fill="url(#paint3_radial_732_19756)"/>
<path d="M188.903 261.161L84.5461 228.215C84.5461 228.215 88.6943 227.412 92.8242 224.132C97.2559 220.613 102.15 212.388 107.459 213.318C117.377 215.056 111.206 222.817 120.343 224.283C128.21 225.545 136.265 208.788 144.623 209.232C152.614 209.656 152.186 222.198 159.225 223.583C169.684 225.641 173.515 206.314 183.098 210.011C187.65 211.767 191.726 220.069 191.726 220.069L201.567 239.206L188.903 261.161Z" fill="url(#paint4_radial_732_19756)"/>
</mask>
<g mask="url(#mask0_732_19756)">
<g filter="url(#filter4_f_732_19756)">
<path d="M186.441 239.285C180.922 278.411 85.3595 225.259 85.3595 225.259C85.3595 225.259 89.5077 224.455 93.6376 221.176C98.0693 217.657 102.963 209.432 108.272 210.362C118.191 212.1 112.019 219.86 121.156 221.326C129.024 222.588 137.078 205.831 145.436 206.275C153.428 206.7 152.999 219.242 160.038 220.627C170.497 222.685 174.329 203.358 183.912 207.054C188.464 208.81 192.54 217.113 192.54 217.113C192.54 217.113 188.671 223.469 186.441 239.285Z" fill="url(#paint5_radial_732_19756)"/>
</g>
</g>
<g filter="url(#filter5_d_732_19756)">
<path d="M85.1991 226.805L86.8626 226.475C90.1621 225.822 93.1909 224.197 95.5598 221.809L102.116 215.2C105.768 211.519 112.002 212.825 113.869 217.662L114.596 219.545C116.376 224.158 122.188 225.616 125.936 222.392L139.477 210.741C142.876 207.817 148.096 208.703 150.338 212.586L154.747 220.219C157.067 224.236 162.537 225.017 165.888 221.811L176.327 211.823C179.485 208.802 184.59 209.293 187.114 212.861L191.862 219.574" stroke="#FF6E75" stroke-width="0.511016"/>
</g>
<path d="M72.7503 184.341C72.6845 184.581 72.5604 184.789 72.3781 184.966C72.2016 185.14 71.9748 185.263 71.6977 185.336C71.4265 185.404 71.1268 185.406 70.7985 185.34L70.6448 185.899L70.2034 185.778L70.359 185.212C69.9105 185.044 69.5782 184.804 69.3622 184.493C69.1475 184.176 69.0912 183.815 69.1933 183.407L70.228 183.692C70.1645 184.031 70.2797 184.278 70.5734 184.433L70.9358 183.115C70.6275 182.941 70.3835 182.785 70.204 182.647C70.0244 182.508 69.8863 182.327 69.7898 182.102C69.6932 181.878 69.6886 181.607 69.7759 181.29C69.8859 180.89 70.1183 180.602 70.473 180.428C70.8323 180.255 71.2446 180.212 71.71 180.301L71.8637 179.742L72.3052 179.863L72.1515 180.422C72.5828 180.58 72.8979 180.811 73.0968 181.113C73.3003 181.416 73.3624 181.774 73.2833 182.188L72.2417 181.901C72.2646 181.764 72.2479 181.636 72.1917 181.517C72.1414 181.394 72.0552 181.294 71.9333 181.215L71.5746 182.519C71.8955 182.701 72.1434 182.861 72.3184 182.998C72.4992 183.132 72.6379 183.311 72.7345 183.536C72.8323 183.756 72.8376 184.024 72.7503 184.341ZM70.7962 181.519C70.7545 181.67 70.7663 181.807 70.8317 181.929C70.8984 182.046 71.0109 182.159 71.1692 182.267L71.4975 181.073C71.3256 181.051 71.1775 181.077 71.0531 181.151C70.9287 181.226 70.8431 181.348 70.7962 181.519ZM71.0111 184.568C71.1947 184.584 71.3499 184.55 71.4769 184.466C71.6084 184.383 71.6957 184.264 71.7387 184.108C71.7804 183.956 71.7657 183.821 71.6944 183.702C71.6231 183.584 71.506 183.47 71.3431 183.361L71.0111 184.568ZM78.0083 182.768L75.7734 182.153L75.4489 183.333C75.5783 183.24 75.7429 183.181 75.9425 183.157C76.1433 183.128 76.3449 183.141 76.5472 183.197C76.9151 183.298 77.1942 183.462 77.3845 183.687C77.5747 183.912 77.688 184.166 77.7241 184.448C77.7616 184.726 77.7411 185.007 77.6627 185.292C77.5172 185.821 77.2484 186.205 76.8564 186.443C76.4689 186.683 75.997 186.726 75.4405 186.573C74.9163 186.429 74.5339 186.182 74.2933 185.834C74.0526 185.486 73.9698 185.095 74.0448 184.66L74.983 184.918C74.9737 185.114 75.0252 185.286 75.1374 185.436C75.2542 185.587 75.4253 185.693 75.6506 185.755C75.922 185.83 76.15 185.801 76.3348 185.669C76.5195 185.537 76.6505 185.33 76.7277 185.05C76.8061 184.765 76.7943 184.529 76.6922 184.342C76.596 184.153 76.4122 184.021 76.1409 183.946C75.9477 183.893 75.7735 183.897 75.6182 183.958C75.4629 184.019 75.3355 184.123 75.236 184.268L74.3117 184.014L75.1238 181.062L78.2417 181.919L78.0083 182.768ZM78.7615 184.711C78.9803 183.916 79.2943 183.332 79.7034 182.96C80.1171 182.589 80.6573 182.495 81.3241 182.678C81.9909 182.862 82.4049 183.218 82.566 183.747C82.7318 184.277 82.7052 184.94 82.4864 185.736C82.2663 186.536 81.9487 187.124 81.5338 187.5C81.1234 187.876 80.5849 187.973 79.918 187.79C79.2512 187.606 78.8356 187.247 78.6711 186.712C78.5112 186.178 78.5414 185.511 78.7615 184.711ZM81.5345 185.474C81.6281 185.134 81.6835 184.842 81.7008 184.6C81.7239 184.354 81.689 184.139 81.5961 183.955C81.5079 183.773 81.335 183.646 81.0774 183.575C80.8199 183.504 80.6042 183.524 80.4304 183.634C80.2611 183.746 80.1213 183.913 80.0108 184.135C79.9061 184.353 79.807 184.633 79.7134 184.973C79.6172 185.323 79.557 185.623 79.5326 185.873C79.5095 186.119 79.5443 186.334 79.6372 186.518C79.7314 186.697 79.9072 186.822 80.1647 186.893C80.4222 186.964 80.6373 186.946 80.8099 186.84C80.9837 186.73 81.1236 186.563 81.2295 186.34C81.3367 186.112 81.4383 185.824 81.5345 185.474ZM83.3589 185.976C83.5777 185.18 83.8917 184.597 84.3008 184.224C84.7145 183.853 85.2547 183.76 85.9215 183.943C86.5883 184.126 87.0023 184.483 87.1634 185.012C87.3292 185.542 87.3026 186.205 87.0838 187.001C86.8637 187.801 86.5461 188.389 86.1312 188.764C85.7208 189.141 85.1823 189.238 84.5155 189.054C83.8486 188.871 83.433 188.512 83.2685 187.977C83.1086 187.443 83.1388 186.776 83.3589 185.976ZM86.1319 186.739C86.2255 186.398 86.2809 186.107 86.2982 185.864C86.3213 185.619 86.2864 185.404 86.1935 185.22C86.1053 185.037 85.9324 184.911 85.6748 184.84C85.4173 184.769 85.2016 184.789 85.0278 184.899C84.8585 185.011 84.7187 185.178 84.6082 185.4C84.5035 185.618 84.4044 185.898 84.3108 186.238C84.2147 186.587 84.1544 186.887 84.13 187.138C84.1069 187.384 84.1417 187.599 84.2346 187.783C84.3288 187.962 84.5046 188.087 84.7621 188.158C85.0197 188.228 85.2347 188.211 85.4073 188.105C85.5811 187.995 85.721 187.828 85.8269 187.605C85.9341 187.377 86.0357 187.088 86.1319 186.739Z" fill="white"/>
<path d="M68.6129 202.283C68.5471 202.522 68.4231 202.731 68.2407 202.908C68.0642 203.082 67.8374 203.205 67.5604 203.277C67.2891 203.346 66.9894 203.348 66.6612 203.282L66.5075 203.841L66.066 203.72L66.2216 203.154C65.7731 202.986 65.4409 202.746 65.2249 202.435C65.0101 202.118 64.9538 201.757 65.056 201.349L66.0907 201.634C66.0272 201.973 66.1423 202.22 66.436 202.375L66.7985 201.057C66.4901 200.883 66.2462 200.727 66.0666 200.589C65.887 200.45 65.749 200.269 65.6524 200.044C65.5558 199.82 65.5512 199.549 65.6385 199.232C65.7486 198.832 65.9809 198.544 66.3356 198.37C66.6949 198.197 67.1072 198.154 67.5726 198.243L67.7263 197.684L68.1678 197.805L68.0141 198.364C68.4455 198.522 68.7606 198.752 68.9594 199.054C69.1629 199.358 69.2251 199.716 69.146 200.13L68.1044 199.843C68.1272 199.706 68.1106 199.578 68.0544 199.458C68.004 199.336 67.9179 199.235 67.7959 199.157L67.4373 200.461C67.7581 200.643 68.006 200.803 68.181 200.94C68.3619 201.074 68.5006 201.253 68.5971 201.478C68.6949 201.697 68.7002 201.966 68.6129 202.283ZM66.6589 199.46C66.6171 199.612 66.629 199.749 66.6944 199.871C66.7611 199.988 66.8735 200.101 67.0318 200.209L67.3601 199.015C67.1882 198.993 67.0401 199.019 66.9157 199.093C66.7913 199.168 66.7057 199.29 66.6589 199.46ZM66.8737 202.51C67.0573 202.526 67.2126 202.492 67.3395 202.408C67.471 202.325 67.5583 202.206 67.6013 202.05C67.6431 201.898 67.6283 201.763 67.557 201.644C67.4858 201.526 67.3687 201.412 67.2058 201.303L66.8737 202.51ZM69.9406 202.968C70.4832 202.721 70.9192 202.512 71.2483 202.34C71.5788 202.164 71.868 201.967 72.1162 201.748C72.3643 201.529 72.5237 201.291 72.5946 201.034C72.6591 200.799 72.6545 200.6 72.5808 200.436C72.5072 200.273 72.3553 200.159 72.1254 200.096C71.8955 200.033 71.6969 200.062 71.5298 200.184C71.3638 200.302 71.2419 200.494 71.1639 200.759L70.2258 200.501C70.396 199.954 70.6744 199.581 71.0609 199.38C71.4521 199.181 71.8868 199.147 72.365 199.279C72.8893 199.423 73.2531 199.674 73.4564 200.032C73.661 200.385 73.7007 200.789 73.5755 201.244C73.4768 201.603 73.286 201.919 73.003 202.192C72.7201 202.466 72.4209 202.69 72.1055 202.866C71.7914 203.036 71.3875 203.237 70.8938 203.467L72.9288 204.027L72.7086 204.827L69.301 203.89L69.4984 203.172L69.9406 202.968ZM77.9699 201.837L75.7349 201.222L75.4104 202.402C75.5399 202.309 75.7044 202.25 75.904 202.226C76.1049 202.197 76.3065 202.211 76.5088 202.266C76.8767 202.368 77.1558 202.531 77.346 202.756C77.5363 202.982 77.6495 203.236 77.6857 203.518C77.7232 203.795 77.7027 204.076 77.6242 204.361C77.4788 204.89 77.21 205.274 76.8179 205.512C76.4305 205.752 75.9585 205.795 75.4021 205.642C74.8778 205.498 74.4954 205.252 74.2548 204.904C74.0142 204.556 73.9314 204.164 74.0064 203.73L74.9445 203.988C74.9353 204.183 74.9868 204.356 75.099 204.505C75.2158 204.656 75.3869 204.763 75.6122 204.824C75.8835 204.899 76.1116 204.87 76.2963 204.738C76.4811 204.606 76.6121 204.4 76.6892 204.119C76.7676 203.834 76.7558 203.598 76.6537 203.412C76.5575 203.222 76.3738 203.09 76.1024 203.015C75.9093 202.962 75.7351 202.966 75.5797 203.027C75.4244 203.089 75.297 203.192 75.1976 203.338L74.2732 203.083L75.0854 200.131L78.2033 200.989L77.9699 201.837ZM78.723 203.781C78.9419 202.985 79.2558 202.401 79.6649 202.029C80.0786 201.658 80.6189 201.564 81.2857 201.748C81.9525 201.931 82.3664 202.287 82.5276 202.816C82.6933 203.347 82.6668 204.01 82.4479 204.805C82.2278 205.606 81.9103 206.193 81.4953 206.569C81.085 206.946 80.5464 207.043 79.8796 206.859C79.2128 206.676 78.7972 206.316 78.6327 205.782C78.4728 205.248 78.5029 204.581 78.723 203.781ZM81.496 204.544C81.5896 204.203 81.6451 203.912 81.6623 203.669C81.6855 203.423 81.6506 203.208 81.5577 203.025C81.4694 202.842 81.2965 202.715 81.039 202.644C80.7815 202.574 80.5658 202.593 80.3919 202.704C80.2227 202.816 80.0828 202.982 79.9723 203.204C79.8677 203.423 79.7686 203.702 79.6749 204.043C79.5788 204.392 79.5185 204.692 79.4941 204.943C79.471 205.189 79.5059 205.403 79.5988 205.587C79.6929 205.766 79.8688 205.892 80.1263 205.962C80.3838 206.033 80.5989 206.016 80.7714 205.91C80.9453 205.799 81.0851 205.633 81.191 205.409C81.2982 205.182 81.3999 204.893 81.496 204.544Z" fill="white"/>
<path d="M63.4904 219.954C63.4247 220.193 63.3006 220.401 63.1182 220.579C62.9417 220.753 62.715 220.876 62.4379 220.948C62.1667 221.017 61.8669 221.018 61.5387 220.953L61.385 221.512L60.9435 221.39L61.0991 220.825C60.6507 220.657 60.3184 220.417 60.1024 220.105C59.8877 219.789 59.8314 219.427 59.9335 219.02L60.9682 219.305C60.9047 219.643 61.0198 219.89 61.3136 220.045L61.676 218.728C61.3676 218.554 61.1237 218.398 60.9441 218.259C60.7646 218.121 60.6265 217.939 60.5299 217.715C60.4334 217.49 60.4287 217.22 60.516 216.902C60.6261 216.502 60.8585 216.215 61.2131 216.04C61.5724 215.867 61.9848 215.825 62.4502 215.913L62.6039 215.354L63.0453 215.476L62.8916 216.035C63.323 216.193 63.6381 216.423 63.837 216.725C64.0404 217.028 64.1026 217.387 64.0235 217.8L62.9819 217.514C63.0048 217.377 62.9881 217.248 62.9319 217.129C62.8816 217.006 62.7954 216.906 62.6734 216.828L62.3148 218.132C62.6357 218.314 62.8836 218.474 63.0585 218.611C63.2394 218.745 63.3781 218.924 63.4746 219.148C63.5725 219.368 63.5777 219.637 63.4904 219.954ZM61.5364 217.131C61.4947 217.283 61.5065 217.42 61.5719 217.541C61.6386 217.659 61.7511 217.771 61.9094 217.879L62.2376 216.686C62.0658 216.663 61.9176 216.689 61.7932 216.764C61.6688 216.838 61.5832 216.961 61.5364 217.131ZM61.7512 220.18C61.9348 220.196 62.0901 220.162 62.217 220.078C62.3486 219.996 62.4358 219.876 62.4788 219.72C62.5206 219.568 62.5058 219.433 62.4346 219.315C62.3633 219.196 62.2462 219.082 62.0833 218.973L61.7512 220.18ZM65.236 217.473L65.4808 216.584L67.1432 217.041L65.7599 222.07L64.7666 221.796L65.9051 217.658L65.236 217.473ZM67.5616 219.79C67.7804 218.995 68.0944 218.411 68.5035 218.038C68.9172 217.667 69.4574 217.574 70.1242 217.757C70.791 217.94 71.205 218.297 71.3661 218.826C71.5319 219.356 71.5053 220.019 71.2865 220.815C71.0664 221.615 70.7488 222.203 70.3339 222.578C69.9235 222.955 69.385 223.052 68.7182 222.868C68.0513 222.685 67.6357 222.326 67.4712 221.791C67.3113 221.257 67.3415 220.59 67.5616 219.79ZM70.3346 220.553C70.4282 220.213 70.4836 219.921 70.5009 219.679C70.524 219.433 70.4891 219.218 70.3962 219.034C70.308 218.851 70.1351 218.725 69.8775 218.654C69.62 218.583 69.4043 218.603 69.2305 218.713C69.0612 218.825 68.9214 218.992 68.8109 219.214C68.7062 219.432 68.6071 219.712 68.5135 220.052C68.4174 220.401 68.3571 220.701 68.3327 220.952C68.3096 221.198 68.3444 221.413 68.4373 221.597C68.5315 221.776 68.7073 221.901 68.9648 221.972C69.2224 222.043 69.4374 222.025 69.61 221.919C69.7838 221.809 69.9237 221.642 70.0296 221.419C70.1368 221.191 70.2384 220.902 70.3346 220.553ZM72.159 221.055C72.3778 220.259 72.6918 219.675 73.1009 219.303C73.5146 218.932 74.0548 218.838 74.7216 219.022C75.3884 219.205 75.8024 219.561 75.9635 220.091C76.1293 220.621 76.1027 221.284 75.8839 222.079C75.6638 222.88 75.3462 223.467 74.9313 223.843C74.5209 224.22 73.9824 224.317 73.3156 224.133C72.6488 223.95 72.2331 223.591 72.0686 223.056C71.9087 222.522 71.9389 221.855 72.159 221.055ZM74.932 221.818C75.0256 221.477 75.081 221.186 75.0983 220.943C75.1214 220.697 75.0865 220.482 74.9936 220.299C74.9054 220.116 74.7325 219.989 74.4749 219.918C74.2174 219.848 74.0017 219.867 73.8279 219.978C73.6586 220.09 73.5188 220.256 73.4083 220.478C73.3036 220.697 73.2045 220.976 73.1109 221.317C73.0148 221.666 72.9545 221.966 72.9301 222.217C72.907 222.463 72.9418 222.677 73.0347 222.861C73.1289 223.041 73.3047 223.166 73.5622 223.236C73.8198 223.307 74.0348 223.29 74.2074 223.184C74.3812 223.073 74.5211 222.907 74.627 222.683C74.7342 222.456 74.8358 222.167 74.932 221.818Z" fill="white"/>
<circle cx="108.937" cy="213.725" r="1.27754" transform="rotate(15.3806 108.937 213.725)" fill="#FF6E75"/>
<circle cx="145.608" cy="209.503" r="1.27754" transform="rotate(15.3806 145.608 209.503)" fill="#FF6E75"/>
<circle cx="182.538" cy="210.121" r="1.27754" transform="rotate(15.3806 182.538 210.121)" fill="#FF6E75"/>
</g>
<g filter="url(#filter6_b_732_19756)">
<rect x="97.8816" y="42.9397" width="19.4186" height="19.4186" rx="9.7093" transform="rotate(15.3806 97.8816 42.9397)" fill="white" fill-opacity="0.1"/>
<path d="M101.03 53.5943C100.846 53.6989 100.782 53.9329 100.887 54.1169L102.591 57.1155C102.696 57.2995 102.93 57.3639 103.114 57.2593C103.298 57.1547 103.362 56.9207 103.258 56.7367L101.742 54.0712L104.408 52.5559C104.592 52.4513 104.656 52.2173 104.552 52.0333C104.447 51.8493 104.213 51.7849 104.029 51.8895L101.03 53.5943ZM108.509 56.3301C108.713 56.3862 108.924 56.2663 108.98 56.0622C109.036 55.8581 108.916 55.6471 108.712 55.591L108.509 56.3301ZM101.118 54.297L108.509 56.3301L108.712 55.591L101.322 53.558L101.118 54.297Z" fill="white"/>
</g>
</g>
<rect x="90.0237" y="29.1182" width="176.811" height="284.636" rx="15.3305" transform="rotate(15.3806 90.0237 29.1182)" stroke="url(#paint6_linear_732_19756)" stroke-width="1.02203"/>
</g>
<g filter="url(#filter7_b_732_19756)">
<rect x="221.198" y="0.455322" width="67.5378" height="67.5378" rx="33.7689" transform="rotate(22.5842 221.198 0.455322)" fill="url(#paint7_linear_732_19756)"/>
<rect x="221.198" y="0.455322" width="67.5378" height="67.5378" rx="33.7689" transform="rotate(22.5842 221.198 0.455322)" stroke="#FF6E75" stroke-width="1.02203" stroke-miterlimit="10"/>
<path d="M250.847 46.0035C253.206 40.3319 250.522 33.8235 244.854 31.4659C239.185 29.1082 232.678 31.7932 230.318 37.4648C229.561 39.2853 229.549 40.3634 229.549 40.3634C229.538 42.0257 229.904 42.948 229.29 43.6234C228.94 44.0078 228.809 44.0956 228.257 44.7834C228.221 44.8265 227.994 45.1266 227.84 45.4968C227.185 47.0716 227.93 48.8806 229.505 49.5354C229.631 49.588 229.957 49.7369 230.402 49.7601C231.401 49.8113 231.638 49.3703 232.32 49.4431C232.4 49.4517 232.471 49.4655 232.537 49.4843C232.588 49.5178 232.678 49.5882 232.732 49.6991C232.816 49.8689 232.778 50.0655 232.72 50.2274C232.586 50.5485 232.455 50.8693 232.322 51.1903L232.329 51.1934L231.69 52.7305C231.587 52.9783 231.704 53.2625 231.951 53.3656L233.18 53.8764C233.427 53.9794 233.712 53.8622 233.815 53.6143L234.454 52.0783C234.619 52.147 234.785 52.2161 234.95 52.2848L234.312 53.8198C234.208 54.0676 234.326 54.3519 234.573 54.4549L235.802 54.9657C236.049 55.0688 236.333 54.9515 236.437 54.7037L237.075 53.1697C237.24 53.2384 237.406 53.3075 237.571 53.3762L236.933 54.9102C236.83 55.158 236.947 55.4422 237.195 55.5453L238.423 56.0561C238.671 56.1591 238.955 56.0419 239.058 55.794L240.052 53.4047C240.07 53.3694 240.09 53.331 240.108 53.2993C240.202 53.1287 240.296 52.979 240.474 52.9179C240.584 52.8792 240.688 52.8892 240.766 52.9056C240.824 52.9386 240.884 52.9792 240.946 53.0296C241.478 53.4621 241.333 53.9423 242.074 54.6136C242.403 54.9125 242.738 55.0383 242.865 55.0914C244.44 55.7461 246.248 54.9996 246.903 53.4249C247.058 53.0537 247.11 52.6815 247.115 52.6263C247.213 51.7493 247.183 51.5946 247.21 51.0759C247.255 50.165 248.167 49.7729 249.339 48.5932C249.339 48.5932 250.095 47.8247 250.852 46.0042L250.847 46.0035ZM238.26 47.324C238.972 47.6201 238.79 49.702 238.324 49.9792C238.299 49.9942 238.268 50.0009 238.257 50.0052C237.95 50.0993 237.751 49.9025 237.254 49.6985C236.778 49.5002 236.505 49.4923 236.359 49.2146C236.356 49.2083 236.336 49.1767 236.33 49.1507C236.197 48.6259 237.546 47.0281 238.258 47.3242L238.26 47.324ZM232.57 42.8367C232.603 42.6699 232.769 41.8512 233.462 41.4693C234.075 41.1321 234.742 41.412 235.847 41.8568C236.944 42.2986 237.573 42.5513 237.796 43.1926C238.067 43.9702 237.542 44.749 237.462 44.8714C236.84 45.7976 235.441 46.3759 234.185 45.8533C232.928 45.3307 232.347 43.9494 232.57 42.8367ZM245.451 48.1942C244.829 49.1204 243.43 49.6988 242.174 49.1762C240.917 48.6536 240.336 47.2722 240.559 46.1596C240.592 45.9928 240.758 45.174 241.45 44.7922C242.064 44.455 242.731 44.7349 243.836 45.1797C244.933 45.6215 245.561 45.8741 245.785 46.5154C246.056 47.293 245.531 48.0719 245.451 48.1942Z" fill="white"/>
</g>
<g filter="url(#filter8_b_732_19756)">
<rect x="269.885" y="48.4519" width="63.7708" height="63.7708" rx="31.8854" transform="rotate(38.2715 269.885 48.4519)" fill="url(#paint8_linear_732_19756)"/>
<rect x="269.885" y="48.4519" width="63.7708" height="63.7708" rx="31.8854" transform="rotate(38.2715 269.885 48.4519)" stroke="#FF6E75" stroke-width="0.917728" stroke-miterlimit="10"/>
<path d="M268.142 96.7322L267.486 91.1684C267.453 90.8926 267.203 90.6953 266.927 90.7279L266.152 90.8194C265.876 90.8519 265.679 91.1019 265.711 91.3778L266.368 96.9416C266.4 97.2174 266.65 97.4147 266.926 97.3821L267.702 97.2906C267.978 97.2581 268.175 97.0081 268.142 96.7322Z" fill="white"/>
<path d="M266.352 95.1023L266.123 93.162C266.101 92.9808 265.937 92.8513 265.756 92.8727L262.78 93.2238C262.599 93.2451 262.469 93.4093 262.491 93.5904L262.72 95.5308C262.741 95.7119 262.905 95.8414 263.086 95.8201L266.062 95.469C266.243 95.4476 266.373 95.2834 266.352 95.1023Z" fill="white"/>
<path d="M263.128 92.9035L263.5 96.055C263.524 96.2656 263.374 96.4563 263.163 96.4812L262.644 96.5425C261.847 96.6365 261.125 96.0659 261.031 95.2701L260.91 94.2412C260.816 93.4446 261.386 92.7224 262.182 92.6285L262.702 92.5672C262.912 92.5423 263.103 92.6929 263.128 92.9035Z" fill="white"/>
<path d="M271.141 91.081L271.972 95.9442C270.956 96.0115 269.939 96.0784 268.923 96.1458C268.742 94.6142 268.562 93.0827 268.382 91.5516L271.141 91.081Z" fill="white"/>
<path d="M290.437 91.2786L285.275 94.905C285.11 95.0212 284.915 95.0895 284.713 95.1032C283.053 95.2125 281.394 95.3223 279.734 95.4316C279.376 95.4554 279.018 95.4785 278.66 95.5023L278.288 89.8652L278.254 89.8674L279.355 89.6797L283.981 88.8904C284.18 88.8562 284.385 88.878 284.573 88.953L290.437 91.2786Z" fill="white"/>
<path d="M278.646 99.9705L273.083 100.627C272.807 100.659 272.609 100.909 272.642 101.185L272.734 101.961C272.766 102.237 273.016 102.434 273.292 102.402L278.856 101.745C279.132 101.713 279.329 101.463 279.296 101.187L279.205 100.411C279.172 100.135 278.922 99.9379 278.646 99.9705Z" fill="white"/>
<path d="M277.019 101.764L275.079 101.993C274.898 102.014 274.768 102.179 274.79 102.36L275.141 105.336C275.162 105.517 275.326 105.646 275.507 105.625L277.448 105.396C277.629 105.375 277.758 105.21 277.737 105.029L277.386 102.053C277.364 101.872 277.2 101.743 277.019 101.764Z" fill="white"/>
<path d="M274.818 104.986L277.969 104.614C278.18 104.589 278.371 104.74 278.395 104.95L278.457 105.47C278.551 106.266 277.98 106.989 277.184 107.082L276.156 107.204C275.359 107.298 274.637 106.727 274.543 105.931L274.482 105.412C274.457 105.201 274.607 105.011 274.818 104.986Z" fill="white"/>
<path d="M270.869 83.5402C270.794 83.7281 270.773 83.9335 270.807 84.133L271.595 88.7588L272.565 94.4411L273.468 99.7326C274.009 99.6682 274.55 99.6038 275.09 99.5382C275.547 99.4843 276.004 99.4305 276.462 99.3764C276.995 99.3147 277.528 99.2518 278.062 99.19C277.938 97.3158 277.815 95.4409 277.69 93.5661C277.576 91.837 277.462 90.1072 277.348 88.3786C277.239 86.7186 277.129 85.0594 277.019 83.3994C277.006 83.1976 276.937 83.0027 276.821 82.8374L273.194 77.6763L270.869 83.5402Z" fill="white"/>
</g>
<defs>
<filter id="filter0_b_732_19756" x="122.443" y="153.467" width="202.054" height="208.376" filterUnits="userSpaceOnUse" color-interpolation-filters="sRGB">
<feFlood flood-opacity="0" result="BackgroundImageFix"/>
<feGaussianBlur in="BackgroundImageFix" stdDeviation="18.327"/>
<feComposite in2="SourceAlpha" operator="in" result="effect1_backgroundBlur_732_19756"/>
<feBlend mode="normal" in="SourceGraphic" in2="effect1_backgroundBlur_732_19756" result="shape"/>
</filter>
<filter id="filter1_b_732_19756" x="-40.8282" y="75.5743" width="169.128" height="169.128" filterUnits="userSpaceOnUse" color-interpolation-filters="sRGB">
<feFlood flood-opacity="0" result="BackgroundImageFix"/>
<feGaussianBlur in="BackgroundImageFix" stdDeviation="20.4406"/>
<feComposite in2="SourceAlpha" operator="in" result="effect1_backgroundBlur_732_19756"/>
<feBlend mode="normal" in="SourceGraphic" in2="effect1_backgroundBlur_732_19756" result="shape"/>
</filter>
<filter id="filter2_b_732_19756" x="-31.4615" y="-16.8732" width="337.956" height="413.32" filterUnits="userSpaceOnUse" color-interpolation-filters="sRGB">
<feFlood flood-opacity="0" result="BackgroundImageFix"/>
<feGaussianBlur in="BackgroundImageFix" stdDeviation="22.9957"/>
<feComposite in2="SourceAlpha" operator="in" result="effect1_backgroundBlur_732_19756"/>
<feBlend mode="normal" in="SourceGraphic" in2="effect1_backgroundBlur_732_19756" result="shape"/>
</filter>
<filter id="filter3_b_732_19756" x="61.981" y="52.0821" width="85.5217" height="85.5217" filterUnits="userSpaceOnUse" color-interpolation-filters="sRGB">
<feFlood flood-opacity="0" result="BackgroundImageFix"/>
<feGaussianBlur in="BackgroundImageFix" stdDeviation="14.1924"/>
<feComposite in2="SourceAlpha" operator="in" result="effect1_backgroundBlur_732_19756"/>
<feBlend mode="normal" in="SourceGraphic" in2="effect1_backgroundBlur_732_19756" result="shape"/>
</filter>
<filter id="filter4_f_732_19756" x="80.2493" y="201.156" width="117.401" height="57.6122" filterUnits="userSpaceOnUse" color-interpolation-filters="sRGB">
<feFlood flood-opacity="0" result="BackgroundImageFix"/>
<feBlend mode="normal" in="SourceGraphic" in2="BackgroundImageFix" result="shape"/>
<feGaussianBlur stdDeviation="2.55508" result="effect1_foregroundBlur_732_19756"/>
</filter>
<filter id="filter5_d_732_19756" x="82.5433" y="206.147" width="112.134" height="23.5146" filterUnits="userSpaceOnUse" color-interpolation-filters="sRGB">
<feFlood flood-opacity="0" result="BackgroundImageFix"/>
<feColorMatrix in="SourceAlpha" type="matrix" values="0 0 0 0 0 0 0 0 0 0 0 0 0 0 0 0 0 0 127 0" result="hardAlpha"/>
<feOffset/>
<feGaussianBlur stdDeviation="1.30309"/>
<feComposite in2="hardAlpha" operator="out"/>
<feColorMatrix type="matrix" values="0 0 0 0 1 0 0 0 0 0.431373 0 0 0 0 0.458824 0 0 0 1 0"/>
<feBlend mode="normal" in2="BackgroundImageFix" result="effect1_dropShadow_732_19756"/>
<feBlend mode="normal" in="SourceGraphic" in2="effect1_dropShadow_732_19756" result="shape"/>
</filter>
<filter id="filter6_b_732_19756" x="79.0079" y="29.2164" width="51.3202" height="51.3202" filterUnits="userSpaceOnUse" color-interpolation-filters="sRGB">
<feFlood flood-opacity="0" result="BackgroundImageFix"/>
<feGaussianBlur in="BackgroundImageFix" stdDeviation="6.86167"/>
<feComposite in2="SourceAlpha" operator="in" result="effect1_backgroundBlur_732_19756"/>
<feBlend mode="normal" in="SourceGraphic" in2="effect1_backgroundBlur_732_19756" result="shape"/>
</filter>
<filter id="filter7_b_732_19756" x="179.93" y="-14.8751" width="118.957" height="118.957" filterUnits="userSpaceOnUse" color-interpolation-filters="sRGB">
<feFlood flood-opacity="0" result="BackgroundImageFix"/>
<feGaussianBlur in="BackgroundImageFix" stdDeviation="7.66523"/>
<feComposite in2="SourceAlpha" operator="in" result="effect1_backgroundBlur_732_19756"/>
<feBlend mode="normal" in="SourceGraphic" in2="effect1_backgroundBlur_732_19756" result="shape"/>
</filter>
<filter id="filter8_b_732_19756" x="216.621" y="34.686" width="117.096" height="117.096" filterUnits="userSpaceOnUse" color-interpolation-filters="sRGB">
<feFlood flood-opacity="0" result="BackgroundImageFix"/>
<feGaussianBlur in="BackgroundImageFix" stdDeviation="6.88296"/>
<feComposite in2="SourceAlpha" operator="in" result="effect1_backgroundBlur_732_19756"/>
<feBlend mode="normal" in="SourceGraphic" in2="effect1_backgroundBlur_732_19756" result="shape"/>
</filter>
<linearGradient id="paint0_linear_732_19756" x1="174.128" y1="320.619" x2="304.022" y2="220.307" gradientUnits="userSpaceOnUse">
<stop stop-color="#FF6E75"/>
<stop offset="1" stop-color="#FBBE7E"/>
</linearGradient>
<radialGradient id="paint1_radial_732_19756" cx="0" cy="0" r="1" gradientUnits="userSpaceOnUse" gradientTransform="translate(336.143 181.168) rotate(175.085) scale(239.484 154.836)">
<stop stop-color="#935E5D"/>
<stop offset="0.652108" stop-color="#161635"/>
</radialGradient>
<linearGradient id="paint2_linear_732_19756" x1="119.836" y1="68.5251" x2="108.262" y2="103.854" gradientUnits="userSpaceOnUse">
<stop stop-color="#FBBE7E"/>
<stop offset="1" stop-color="#FF6E75"/>
</linearGradient>
<radialGradient id="paint3_radial_732_19756" cx="0" cy="0" r="1" gradientUnits="userSpaceOnUse" gradientTransform="translate(144.913 199.506) rotate(105.381) scale(47.78 119.918)">
<stop offset="0.005" stop-color="#FF6E75" stop-opacity="0.67"/>
<stop offset="0.873891" stop-color="#FF6E75" stop-opacity="0"/>
</radialGradient>
<radialGradient id="paint4_radial_732_19756" cx="0" cy="0" r="1" gradientUnits="userSpaceOnUse" gradientTransform="translate(144.913 199.506) rotate(105.381) scale(47.78 119.918)">
<stop offset="0.005" stop-color="#FF6E75" stop-opacity="0.67"/>
<stop offset="0.873891" stop-color="#FF6E75" stop-opacity="0"/>
</radialGradient>
<radialGradient id="paint5_radial_732_19756" cx="0" cy="0" r="1" gradientUnits="userSpaceOnUse" gradientTransform="translate(137.011 206.077) rotate(81.7512) scale(66.9338 167.991)">
<stop offset="0.005" stop-color="#FF6E75" stop-opacity="0.73"/>
<stop offset="0.873891" stop-color="#FF6E75" stop-opacity="0"/>
</radialGradient>
<linearGradient id="paint6_linear_732_19756" x1="257.982" y1="12.4864" x2="49.6464" y2="202.19" gradientUnits="userSpaceOnUse">
<stop stop-color="#FBBE7E"/>
<stop offset="1" stop-color="#FF6E75"/>
</linearGradient>
<linearGradient id="paint7_linear_732_19756" x1="234.872" y1="23.8287" x2="278.501" y2="92.224" gradientUnits="userSpaceOnUse">
<stop stop-color="#000223" stop-opacity="0.58"/>
<stop offset="1" stop-color="#FF6E75" stop-opacity="0.71"/>
</linearGradient>
<linearGradient id="paint8_linear_732_19756" x1="282.797" y1="70.5216" x2="323.992" y2="135.102" gradientUnits="userSpaceOnUse">
<stop stop-color="#000223" stop-opacity="0.58"/>
<stop offset="1" stop-color="#FF6E75" stop-opacity="0.71"/>
</linearGradient>
<clipPath id="clip0_732_19756">
<rect x="90.0237" y="29.1182" width="176.811" height="284.636" rx="15.3305" transform="rotate(15.3806 90.0237 29.1182)" fill="white"/>
</clipPath>
<clipPath id="clip1_732_19756">
<rect x="90.5627" y="69.5461" width="153.305" height="87.8947" rx="10.2203" transform="rotate(15.3806 90.5627 69.5461)" fill="white"/>
</clipPath>
<clipPath id="clip2_732_19756">
<rect x="96.5686" y="80.4668" width="23.387" height="23.387" rx="11.6935" transform="rotate(15.3806 96.5686 80.4668)" fill="white"/>
</clipPath>
<clipPath id="clip3_732_19756">
<rect width="14.4758" height="14.4758" fill="white" transform="translate(99.7177 85.8213) rotate(15.3806)"/>
</clipPath>
<clipPath id="clip4_732_19756">
<rect x="64.133" y="165.625" width="153.305" height="65.921" rx="10.2203" transform="rotate(15.3806 64.133 165.625)" fill="white"/>
</clipPath>
</defs>
</svg>
