<svg width="376" height="350" viewBox="0 0 376 350" fill="none" xmlns="http://www.w3.org/2000/svg">
<path d="M80.6312 156.38C99.5688 161.596 119.149 150.472 124.364 131.534C129.58 112.596 118.456 93.0164 99.5181 87.8009C80.5805 82.5854 61.0005 93.7094 55.785 112.647C50.5695 131.585 61.6935 151.165 80.6312 156.38Z" fill="#FBBE7E" stroke="#FBBE7E" stroke-width="1.28132" stroke-miterlimit="10"/>
<g clip-path="url(#clip0_714_11699)">
<rect width="21.9936" height="35.889" transform="translate(83.6528 102.183) rotate(15.3977)" fill="#FBBE7E"/>
<path d="M86.6542 116.442L86.6543 116.442L86.6536 116.44C86.5038 115.986 86.5025 115.486 86.6547 114.934C86.8354 114.277 87.1827 113.75 87.7056 113.343C88.2314 112.933 88.8868 112.671 89.6872 112.564C90.0173 112.519 90.364 112.507 90.7277 112.527L88.9425 119.009C88.8491 118.946 88.7551 118.882 88.6605 118.816C88.1982 118.489 87.7852 118.128 87.4175 117.731C87.0594 117.344 86.8052 116.913 86.6542 116.442ZM92.2662 120.968L94.2924 113.611C94.7849 113.91 95.203 114.261 95.5482 114.663C96.1366 115.348 96.4256 116.114 96.4203 116.972C96.4169 117.462 96.7557 117.887 97.2233 118.016L97.2367 118.019L99.212 118.563C99.8627 118.743 100.526 118.3 100.593 117.629L100.593 117.628C100.691 116.623 100.564 115.647 100.21 114.701L100.21 114.701C99.7328 113.432 98.9139 112.321 97.7627 111.36C97.0562 110.77 96.2386 110.271 95.3235 109.867L95.8263 108.041C95.9864 107.46 95.6424 106.863 95.0606 106.703L93.5784 106.295C92.9966 106.135 92.3955 106.471 92.2354 107.052L91.7395 108.853C90.6756 108.707 89.6469 108.708 88.6553 108.858C87.1361 109.084 85.8233 109.634 84.7251 110.504C83.6205 111.38 82.8658 112.554 82.4643 114.012C81.977 115.782 82.1818 117.383 83.0879 118.8C83.9808 120.196 85.3639 121.443 87.2252 122.539L87.8664 122.917L85.7133 130.734C85.3529 130.562 85.016 130.366 84.7019 130.148C84.0032 129.659 83.4917 129.07 83.1582 128.376C82.914 127.861 82.8034 127.299 82.833 126.682L92.2662 120.968Z" fill="#000223" stroke="#000223" stroke-width="0.427107"/>
</g>
<g filter="url(#filter0_b_714_11699)">
<path d="M208.79 189.665L325.449 170.294C338.975 168.048 351.775 177.193 354.019 190.706L365.788 261.584C368.032 275.097 358.874 287.888 345.348 290.134L228.69 309.506C224.442 310.211 220.417 307.335 219.713 303.092L202.367 198.63C201.662 194.386 204.541 190.364 208.789 189.659L208.79 189.665Z" fill="url(#paint0_linear_714_11699)"/>
</g>
<g filter="url(#filter1_b_714_11699)">
<path d="M310.496 210.288L351.78 203.432C357.51 202.481 362.927 206.357 363.877 212.075L367.739 235.331C368.689 241.056 364.808 246.469 359.084 247.42L317.8 254.275C306.187 256.203 295.19 248.347 293.263 236.744L292.942 234.808C291.015 223.205 298.882 212.216 310.496 210.288Z" fill="url(#paint1_linear_714_11699)"/>
<path d="M310.496 210.288L351.78 203.432C357.51 202.481 362.927 206.357 363.877 212.075L367.739 235.331C368.689 241.056 364.808 246.469 359.084 247.42L317.8 254.275C306.187 256.203 295.19 248.347 293.263 236.744L292.942 234.808C291.015 223.205 298.882 212.216 310.496 210.288Z" stroke="white" stroke-width="1.09434" stroke-miterlimit="10"/>
</g>
<path d="M315.338 243.934C321.724 242.874 326.042 236.842 324.983 230.463C323.923 224.083 317.888 219.771 311.502 220.831C305.116 221.892 300.798 227.923 301.858 234.303C302.917 240.682 308.952 244.994 315.338 243.934Z" fill="white"/>
<g filter="url(#filter2_b_714_11699)">
<g clip-path="url(#clip1_714_11699)">
<rect x="130.326" y="12.998" width="189.322" height="304.775" rx="16.4152" transform="rotate(11.7775 130.326 12.998)" fill="url(#paint2_radial_714_11699)"/>
<g filter="url(#filter3_b_714_11699)">
<g clip-path="url(#clip2_714_11699)">
<rect x="90.5215" y="262.883" width="164.152" height="34.1321" rx="9.23798" transform="rotate(11.7775 90.5215 262.883)" fill="url(#paint3_linear_714_11699)"/>
<path d="M147.158 286.92L142.575 295.766L140.355 295.303L139.986 288.247L136.748 294.551L134.538 294.105L133.969 284.17L135.988 284.591L136.123 292.23L139.554 285.334L141.654 285.772L141.945 293.402L145.126 286.496L147.158 286.92ZM149.394 288.481C149.062 288.412 148.806 288.251 148.624 287.998C148.454 287.738 148.402 287.45 148.467 287.136C148.533 286.822 148.694 286.585 148.953 286.423C149.222 286.255 149.523 286.205 149.855 286.274C150.187 286.343 150.438 286.508 150.608 286.768C150.789 287.021 150.847 287.305 150.782 287.619C150.716 287.933 150.549 288.174 150.28 288.343C150.021 288.504 149.726 288.551 149.394 288.481ZM150.138 289.563L148.583 297.019L146.699 296.626L148.254 289.17L150.138 289.563ZM154.139 292.012L153.387 295.619C153.335 295.87 153.355 296.067 153.447 296.208C153.55 296.341 153.746 296.438 154.033 296.498L154.907 296.68L154.576 298.269L153.392 298.022C151.804 297.69 151.171 296.753 151.493 295.21L152.242 291.617L151.354 291.432L151.676 289.884L152.565 290.069L152.949 288.225L154.847 288.621L154.462 290.465L156.131 290.813L155.808 292.36L154.139 292.012ZM161.977 291.919C162.542 292.037 163.018 292.267 163.405 292.61C163.794 292.944 164.06 293.379 164.201 293.914C164.353 294.442 164.359 295.042 164.219 295.715L163.307 300.089L161.422 299.696L162.281 295.578C162.405 294.986 162.351 294.502 162.12 294.126C161.892 293.741 161.522 293.496 161.01 293.389C160.49 293.28 160.043 293.356 159.671 293.615C159.309 293.868 159.067 294.29 158.943 294.882L158.085 299L156.201 298.607L158.277 288.648L160.161 289.041L159.446 292.473C159.755 292.2 160.131 292.017 160.572 291.921C161.015 291.817 161.483 291.816 161.977 291.919ZM165.666 296.663C165.823 295.909 166.11 295.271 166.528 294.75C166.955 294.23 167.461 293.868 168.047 293.662C168.633 293.457 169.244 293.42 169.881 293.553C170.366 293.654 170.805 293.858 171.2 294.165C171.597 294.463 171.888 294.814 172.076 295.219L172.814 291.679L174.725 292.078L172.648 302.037L170.737 301.638L170.967 300.535C170.657 300.854 170.268 301.082 169.8 301.218C169.331 301.354 168.819 301.365 168.263 301.249C167.635 301.118 167.094 300.836 166.641 300.405C166.188 299.973 165.87 299.434 165.686 298.787C165.514 298.134 165.507 297.425 165.666 296.663ZM171.528 297.913C171.623 297.455 171.615 297.046 171.503 296.686C171.393 296.317 171.203 296.015 170.933 295.781C170.666 295.538 170.357 295.38 170.007 295.307C169.657 295.234 169.316 295.252 168.985 295.361C168.653 295.469 168.358 295.67 168.101 295.963C167.854 296.248 167.684 296.615 167.59 297.064C167.497 297.513 167.504 297.926 167.613 298.304C167.732 298.676 167.921 298.982 168.179 299.223C168.447 299.466 168.751 299.623 169.092 299.694C169.442 299.767 169.787 299.75 170.128 299.643C170.47 299.527 170.765 299.327 171.012 299.041C171.261 298.747 171.433 298.371 171.528 297.913ZM177.955 296.571C178.28 296.227 178.658 295.982 179.091 295.839C179.532 295.697 180.004 295.678 180.507 295.783L180.094 297.761L179.596 297.657C179.004 297.534 178.526 297.579 178.163 297.794C177.809 298.01 177.56 298.464 177.416 299.155L176.642 302.869L174.758 302.476L176.312 295.021L178.196 295.413L177.955 296.571ZM180.766 299.811C180.923 299.057 181.211 298.42 181.628 297.898C182.055 297.379 182.557 297.015 183.134 296.808C183.72 296.602 184.331 296.566 184.968 296.699C185.524 296.815 185.985 297.028 186.351 297.338C186.726 297.651 187.004 298.003 187.184 298.397L187.406 297.334L189.303 297.729L187.749 305.185L185.851 304.789L186.078 303.699C185.763 303.999 185.366 304.22 184.887 304.364C184.418 304.5 183.906 304.51 183.35 304.394C182.721 304.263 182.181 303.982 181.728 303.551C181.284 303.121 180.97 302.583 180.787 301.936C180.614 301.282 180.607 300.574 180.766 299.811ZM186.628 301.061C186.724 300.604 186.715 300.195 186.603 299.834C186.493 299.465 186.303 299.163 186.034 298.929C185.766 298.686 185.457 298.528 185.107 298.455C184.757 298.382 184.417 298.4 184.085 298.509C183.753 298.618 183.459 298.818 183.201 299.111C182.954 299.397 182.784 299.764 182.691 300.212C182.597 300.661 182.605 301.074 182.713 301.453C182.832 301.824 183.021 302.13 183.28 302.371C183.547 302.614 183.852 302.772 184.193 302.843C184.543 302.916 184.888 302.899 185.228 302.792C185.571 302.676 185.865 302.475 186.112 302.19C186.361 301.895 186.533 301.519 186.628 301.061ZM201.748 300.324L198.014 307.325L195.981 306.902L195.708 301.41L193.263 306.335L191.217 305.908L190.578 297.995L192.489 298.394L192.624 304.348L195.235 298.966L197.226 299.381L197.445 305.339L199.945 299.948L201.748 300.324Z" fill="white"/>
</g>
</g>
<g filter="url(#filter4_b_714_11699)">
<rect x="139.653" y="27.2395" width="20.7926" height="20.7926" rx="10.3963" transform="rotate(11.7775 139.653 27.2395)" fill="white" fill-opacity="0.1"/>
<path d="M143.734 38.4138C143.544 38.538 143.491 38.7923 143.615 38.9819L145.639 42.0716C145.763 42.2612 146.017 42.3143 146.207 42.1901C146.397 42.0659 146.45 41.8116 146.325 41.622L144.527 38.8755L147.273 37.0768C147.463 36.9526 147.516 36.6982 147.392 36.5086C147.267 36.319 147.013 36.266 146.823 36.3902L143.734 38.4138ZM151.91 40.8341C152.131 40.8803 152.349 40.738 152.395 40.5161C152.441 40.2942 152.299 40.0769 152.077 40.0306L151.91 40.8341ZM143.875 39.1588L151.91 40.8341L152.077 40.0306L144.042 38.3553L143.875 39.1588Z" fill="white"/>
</g>
<g clip-path="url(#clip3_714_11699)">
<rect x="133.631" y="56.1208" width="164.152" height="94.1137" rx="10.9434" transform="rotate(11.7775 133.631 56.1208)" fill="white" fill-opacity="0.1"/>
<g filter="url(#filter5_b_714_11699)">
<rect x="140.784" y="67.387" width="25.0417" height="25.0417" rx="12.5208" transform="rotate(11.7775 140.784 67.387)" fill="url(#paint4_linear_714_11699)"/>
<g clip-path="url(#clip4_714_11699)">
<path d="M146.809 79.6654C145.894 78.6208 145.606 77.1957 145.743 76.0802C145.766 75.9036 145.635 75.7708 145.482 75.7391C145.371 75.7158 145.248 75.7463 145.164 75.8473C143.624 77.6991 143.467 80.6534 144.479 82.058C144.946 81.2915 145.598 80.5669 146.373 79.9769C146.516 79.8681 146.661 79.7664 146.808 79.6686L146.809 79.6654ZM157.909 78.5047C157.871 78.3783 157.771 78.3013 157.66 78.278C157.504 78.2456 157.335 78.3126 157.281 78.486C156.961 79.5633 156.127 80.7576 154.871 81.3497C154.967 81.4983 155.059 81.6494 155.146 81.806C155.621 82.6568 155.929 83.5816 156.051 84.4708C157.54 83.5878 158.576 80.8199 157.909 78.5047ZM152.801 80.2786L151.885 84.6705L155.259 85.374C155.286 83.6222 154.37 81.4694 152.801 80.2786ZM148.221 83.9064L149.137 79.5145C147.224 79.9761 145.527 81.5841 144.847 83.203L148.221 83.9064ZM155.222 86.1805L144.559 83.9573C144.366 83.9171 144.181 84.0301 144.143 84.2102L143.845 85.6415C143.807 85.8216 143.932 85.9994 144.125 86.0395L154.784 88.262C154.977 88.3022 155.163 88.1893 155.2 88.0092L155.499 86.5778C155.536 86.3977 155.411 86.22 155.218 86.1798L155.222 86.1805ZM152.029 79.8011C151.725 79.652 151.4 79.538 151.058 79.4668C150.717 79.3956 150.376 79.3708 150.035 79.3852L149.056 84.0774L151.048 84.4925L152.026 79.8004L152.029 79.8011Z" fill="white"/>
</g>
</g>
<path d="M177.262 85.9852C177.17 86.4251 176.978 86.8155 176.686 87.1562C176.401 87.4986 176.011 87.7409 175.514 87.8832C175.025 88.0272 174.442 88.0287 173.767 87.8878L172.388 87.6004L171.729 90.7586L170.079 90.4146L171.795 82.1891L174.823 82.8206C175.459 82.9533 175.979 83.1763 176.381 83.4896C176.782 83.8029 177.053 84.175 177.193 84.6059C177.341 85.0383 177.364 85.4981 177.262 85.9852ZM173.974 86.5415C174.429 86.6365 174.788 86.6048 175.051 86.4464C175.315 86.2801 175.486 86.0085 175.565 85.6314C175.732 84.83 175.368 84.336 174.472 84.1492L173.164 83.8765L172.665 86.2687L173.974 86.5415ZM180.284 86.7875C180.569 86.4861 180.9 86.2724 181.279 86.1464C181.666 86.0221 182.079 86.0057 182.519 86.0975L182.158 87.8298L181.722 87.7389C181.203 87.6308 180.785 87.6706 180.467 87.8585C180.157 88.048 179.939 88.4452 179.813 89.0501L179.135 92.3026L177.485 91.9586L178.846 85.4301L180.496 85.7741L180.284 86.7875ZM185.362 93.7116C184.733 93.5806 184.196 93.3252 183.751 92.9454C183.307 92.5577 182.993 92.0782 182.809 91.507C182.632 90.9373 182.614 90.3186 182.753 89.6509C182.892 88.9831 183.16 88.4242 183.558 87.9741C183.963 87.5257 184.449 87.2173 185.017 87.0488C185.587 86.8724 186.186 86.8498 186.814 86.9808C187.443 87.1118 187.983 87.372 188.435 87.7613C188.888 88.1427 189.207 88.6191 189.391 89.1904C189.583 89.7633 189.609 90.3836 189.47 91.0514C189.331 91.7192 189.055 92.2764 188.642 92.7232C188.237 93.1716 187.746 93.4832 187.168 93.6579C186.6 93.8264 185.998 93.8443 185.362 93.7116ZM185.661 92.2739C185.96 92.3362 186.254 92.3236 186.542 92.2363C186.841 92.1427 187.099 91.9669 187.316 91.709C187.534 91.4511 187.686 91.114 187.773 90.6976C187.903 90.0769 187.837 89.5672 187.575 89.1685C187.324 88.7635 186.962 88.5119 186.491 88.4136C186.02 88.3153 185.588 88.4015 185.195 88.6721C184.812 88.9366 184.556 89.3791 184.426 89.9998C184.297 90.6204 184.35 91.1316 184.586 91.5333C184.832 91.9288 185.19 92.1756 185.661 92.2739ZM196.278 90.7615L195.988 92.1521L190.991 91.1103L191.281 89.7197L196.278 90.7615ZM204.524 91.6693C204.432 92.1093 204.24 92.4996 203.948 92.8403C203.663 93.1827 203.273 93.4251 202.776 93.5674C202.287 93.7113 201.704 93.7129 201.029 93.572L199.65 93.2845L198.991 96.4427L197.341 96.0988L199.056 87.8733L202.085 88.5047C202.721 88.6374 203.241 88.8604 203.642 89.1738C204.044 89.4871 204.315 89.8592 204.455 90.29C204.603 90.7225 204.626 91.1822 204.524 91.6693ZM201.235 92.2256C201.691 92.3206 202.05 92.2889 202.313 92.1305C202.577 91.9643 202.748 91.6926 202.827 91.3155C202.994 90.5142 202.63 90.0201 201.734 89.8334L200.426 89.5607L199.927 91.9529L201.235 92.2256ZM208.215 89.2663L206.397 97.9868L204.747 97.6428L206.565 88.9223L208.215 89.2663ZM208.524 94.9995C208.661 94.3395 208.913 93.7813 209.278 93.3247C209.652 92.8697 210.091 92.5514 210.597 92.3698C211.11 92.1899 211.645 92.158 212.203 92.2743C212.69 92.3759 213.094 92.5626 213.414 92.8343C213.742 93.1077 213.985 93.4166 214.143 93.761L214.337 92.83L215.999 93.1765L214.638 99.705L212.976 99.3586L213.175 98.404C212.899 98.6662 212.551 98.8601 212.131 98.9857C211.721 99.1052 211.273 99.1141 210.786 99.0125C210.236 98.8979 209.762 98.6516 209.366 98.2738C208.977 97.8976 208.702 97.4263 208.541 96.86C208.39 96.2874 208.384 95.6672 208.524 94.9995ZM213.657 96.0943C213.74 95.6936 213.733 95.3355 213.635 95.0199C213.538 94.6965 213.372 94.4323 213.136 94.2273C212.902 94.0145 212.631 93.8761 212.325 93.8123C212.018 93.7484 211.72 93.764 211.43 93.8593C211.139 93.9545 210.881 94.1302 210.656 94.3865C210.44 94.6366 210.291 94.958 210.209 95.3508C210.127 95.7436 210.133 96.1057 210.228 96.437C210.333 96.7621 210.498 97.0302 210.724 97.2414C210.959 97.4542 211.225 97.5917 211.524 97.654C211.83 97.7179 212.132 97.703 212.431 97.6094C212.731 97.508 212.989 97.3323 213.205 97.0822C213.422 96.8243 213.573 96.495 213.657 96.0943ZM224.092 94.8638L218.045 103.637L216.289 103.271L218.381 100.313L217.092 93.4043L218.942 93.7901L219.676 98.702L222.336 94.4977L224.092 94.8638ZM230.634 99.4866C230.585 99.7223 230.525 99.9312 230.455 100.113L225.682 99.1181C225.623 99.5976 225.711 100.001 225.946 100.329C226.181 100.657 226.51 100.865 226.935 100.953C227.548 101.081 228.038 100.909 228.407 100.436L230.187 100.807C229.867 101.397 229.398 101.84 228.778 102.137C228.161 102.426 227.463 102.49 226.685 102.328C226.057 102.197 225.52 101.941 225.074 101.561C224.638 101.175 224.332 100.697 224.156 100.128C223.987 99.5599 223.972 98.942 224.112 98.2742C224.253 97.5986 224.514 97.0341 224.895 96.5808C225.277 96.1274 225.743 95.8149 226.296 95.6431C226.848 95.4714 227.446 95.4526 228.09 95.5869C228.711 95.7164 229.237 95.9654 229.669 96.3341C230.108 96.7044 230.409 97.1648 230.573 97.7155C230.747 98.2599 230.767 98.8503 230.634 99.4866ZM229.024 98.659C229.105 98.2331 229.022 97.8634 228.776 97.5497C228.531 97.2282 228.193 97.0224 227.761 96.9323C227.352 96.8471 226.98 96.9008 226.645 97.0932C226.319 97.2794 226.079 97.5859 225.925 98.0128L229.024 98.659ZM234.164 98.0215C234.448 97.72 234.78 97.5063 235.158 97.3803C235.545 97.256 235.958 97.2397 236.398 97.3314L236.037 99.0637L235.601 98.9728C235.082 98.8647 234.664 98.9046 234.346 99.0924C234.036 99.2819 233.818 99.6791 233.692 100.284L233.014 103.537L231.364 103.193L232.725 96.664L234.375 97.008L234.164 98.0215Z" fill="white"/>
<path d="M135.536 111.634L135.445 112.072L133.982 111.767L132.974 116.6L132.447 116.49L133.454 111.657L131.984 111.35L132.075 110.913L135.536 111.634ZM137.211 117.546C136.824 117.465 136.492 117.307 136.216 117.071C135.946 116.831 135.754 116.534 135.639 116.18C135.53 115.821 135.52 115.429 135.609 115.001C135.698 114.574 135.866 114.221 136.113 113.942C136.361 113.658 136.659 113.463 137.006 113.357C137.355 113.246 137.722 113.231 138.109 113.312C138.496 113.392 138.827 113.553 139.102 113.794C139.383 114.031 139.578 114.329 139.687 114.687C139.802 115.042 139.815 115.432 139.726 115.86C139.638 116.282 139.47 116.635 139.222 116.919C138.974 117.203 138.673 117.4 138.32 117.51C137.967 117.615 137.598 117.627 137.211 117.546ZM137.307 117.086C137.578 117.143 137.842 117.135 138.098 117.062C138.356 116.985 138.581 116.838 138.773 116.621C138.971 116.4 139.108 116.108 139.183 115.746C139.259 115.385 139.252 115.066 139.162 114.79C139.074 114.509 138.927 114.285 138.721 114.116C138.516 113.942 138.277 113.827 138.006 113.77C137.734 113.714 137.47 113.724 137.213 113.801C136.956 113.874 136.732 114.021 136.538 114.243C136.351 114.461 136.22 114.751 136.145 115.113C136.069 115.475 136.073 115.796 136.156 116.075C136.246 116.351 136.39 116.575 136.59 116.748C136.796 116.917 137.035 117.029 137.307 117.086ZM141.861 114.621L141.328 117.177C141.276 117.429 141.288 117.612 141.363 117.727C141.439 117.843 141.597 117.926 141.839 117.976L142.321 118.076L142.227 118.529L141.661 118.411C141.289 118.333 141.031 118.19 140.885 117.982C140.741 117.768 140.71 117.463 140.793 117.066L141.326 114.51L140.753 114.39L140.846 113.945L141.419 114.065L141.634 113.032L142.169 113.143L141.954 114.176L143.085 114.412L142.992 114.857L141.861 114.621ZM143.437 116.626C143.525 116.203 143.685 115.851 143.917 115.569C144.155 115.283 144.44 115.086 144.773 114.976C145.111 114.863 145.468 114.846 145.845 114.925C146.238 115.007 146.555 115.167 146.799 115.407C147.048 115.648 147.206 115.922 147.273 116.229L147.461 115.325L147.989 115.435L147.131 119.551L146.603 119.441L146.793 118.529C146.604 118.783 146.347 118.974 146.021 119.1C145.702 119.222 145.347 119.242 144.954 119.161C144.582 119.083 144.264 118.925 143.999 118.686C143.739 118.448 143.557 118.151 143.454 117.793C143.355 117.437 143.349 117.048 143.437 116.626ZM147.032 117.383C147.101 117.051 147.094 116.746 147.011 116.466C146.928 116.186 146.782 115.954 146.574 115.769C146.371 115.585 146.129 115.464 145.848 115.405C145.556 115.344 145.281 115.355 145.023 115.438C144.764 115.52 144.541 115.673 144.353 115.896C144.171 116.115 144.044 116.395 143.973 116.737C143.903 117.074 143.906 117.384 143.983 117.668C144.067 117.947 144.21 118.179 144.413 118.363C144.617 118.542 144.864 118.662 145.156 118.723C145.437 118.781 145.708 118.767 145.967 118.679C146.232 118.593 146.458 118.438 146.646 118.215C146.835 117.992 146.963 117.715 147.032 117.383ZM150.178 114.365L149.014 119.944L148.487 119.834L149.65 114.255L150.178 114.365ZM155.613 118.48C155.898 118.597 156.118 118.8 156.273 119.089C156.428 119.379 156.471 119.687 156.403 120.013C156.347 120.28 156.229 120.507 156.048 120.695C155.874 120.879 155.645 121.007 155.362 121.079C155.081 121.146 154.762 121.142 154.405 121.068L152.58 120.688L153.679 115.417L155.451 115.787C155.984 115.898 156.363 116.105 156.588 116.409C156.818 116.714 156.892 117.063 156.81 117.455C156.742 117.782 156.599 118.03 156.38 118.199C156.162 118.363 155.906 118.457 155.613 118.48ZM153.721 117.857L154.95 118.113C155.307 118.188 155.598 118.162 155.824 118.036C156.055 117.906 156.202 117.693 156.264 117.396C156.325 117.104 156.274 116.855 156.113 116.649C155.957 116.443 155.692 116.301 155.32 116.224L154.114 115.972L153.721 117.857ZM154.46 120.615C154.842 120.695 155.157 120.666 155.406 120.529C155.66 120.393 155.82 120.167 155.886 119.851C155.952 119.534 155.891 119.259 155.704 119.026C155.523 118.789 155.243 118.631 154.866 118.552L153.63 118.294L153.201 120.353L154.46 120.615ZM157.419 119.541C157.507 119.119 157.667 118.766 157.899 118.484C158.137 118.198 158.422 118.001 158.754 117.892C159.093 117.779 159.45 117.761 159.827 117.84C160.219 117.922 160.537 118.082 160.781 118.322C161.03 118.563 161.188 118.837 161.255 119.145L161.443 118.24L161.971 118.35L161.113 122.467L160.585 122.357L160.775 121.444C160.586 121.699 160.328 121.889 160.003 122.015C159.684 122.137 159.328 122.158 158.936 122.076C158.564 121.998 158.246 121.84 157.981 121.601C157.721 121.363 157.539 121.066 157.435 120.709C157.337 120.352 157.331 119.963 157.419 119.541ZM161.014 120.298C161.083 119.966 161.076 119.661 160.993 119.381C160.91 119.102 160.764 118.869 160.556 118.684C160.353 118.5 160.111 118.379 159.829 118.32C159.538 118.26 159.263 118.27 159.004 118.353C158.746 118.435 158.523 118.588 158.335 118.811C158.152 119.03 158.026 119.311 157.955 119.652C157.884 119.989 157.888 120.299 157.965 120.583C158.048 120.863 158.192 121.094 158.394 121.278C158.598 121.457 158.846 121.577 159.138 121.638C159.419 121.697 159.69 121.682 159.949 121.595C160.214 121.508 160.44 121.353 160.628 121.13C160.816 120.907 160.945 120.63 161.014 120.298ZM164.16 117.28L162.996 122.859L162.468 122.749L163.632 117.17L164.16 117.28ZM164.532 121.024C164.62 120.602 164.78 120.249 165.012 119.967C165.249 119.681 165.535 119.484 165.867 119.375C166.205 119.262 166.563 119.244 166.94 119.323C167.332 119.405 167.65 119.565 167.893 119.805C168.142 120.046 168.3 120.32 168.367 120.628L168.556 119.723L169.083 119.833L168.225 123.95L167.697 123.84L167.888 122.927C167.698 123.181 167.441 123.372 167.116 123.498C166.796 123.62 166.441 123.64 166.049 123.559C165.677 123.481 165.358 123.323 165.093 123.084C164.833 122.846 164.652 122.549 164.548 122.192C164.449 121.835 164.444 121.446 164.532 121.024ZM168.127 121.781C168.196 121.449 168.189 121.144 168.105 120.864C168.022 120.585 167.876 120.352 167.668 120.167C167.465 119.983 167.223 119.862 166.942 119.803C166.65 119.743 166.375 119.753 166.117 119.836C165.858 119.918 165.635 120.071 165.447 120.294C165.265 120.513 165.138 120.794 165.067 121.135C164.997 121.472 165 121.782 165.077 122.066C165.161 122.346 165.304 122.577 165.507 122.761C165.711 122.94 165.959 123.06 166.25 123.121C166.532 123.179 166.802 123.165 167.062 123.078C167.326 122.991 167.552 122.836 167.741 122.613C167.929 122.39 168.057 122.113 168.127 121.781ZM172.385 120.443C172.878 120.545 173.248 120.782 173.495 121.154C173.744 121.521 173.808 121.993 173.688 122.571L173.185 124.984L172.665 124.875L173.155 122.523C173.248 122.075 173.206 121.71 173.03 121.427C172.858 121.144 172.578 120.963 172.191 120.882C171.794 120.799 171.451 120.859 171.163 121.061C170.874 121.263 170.679 121.608 170.577 122.095L170.109 124.342L169.581 124.232L170.439 120.116L170.967 120.226L170.821 120.927C171.004 120.703 171.232 120.551 171.506 120.472C171.78 120.387 172.073 120.378 172.385 120.443ZM174.691 123.15C174.78 122.723 174.943 122.368 175.18 122.087C175.418 121.801 175.705 121.604 176.043 121.496C176.381 121.383 176.743 121.367 177.131 121.448C177.638 121.554 178.029 121.766 178.303 122.086C178.583 122.406 178.725 122.793 178.731 123.245L178.165 123.127C178.157 122.816 178.051 122.552 177.85 122.337C177.654 122.118 177.383 121.972 177.036 121.9C176.76 121.843 176.498 121.853 176.25 121.933C176.003 122.013 175.788 122.164 175.605 122.388C175.428 122.609 175.302 122.9 175.226 123.261C175.151 123.623 175.149 123.943 175.223 124.221C175.301 124.499 175.438 124.724 175.633 124.896C175.828 125.068 176.063 125.183 176.34 125.24C176.687 125.313 176.993 125.29 177.259 125.172C177.531 125.051 177.733 124.846 177.866 124.559L178.432 124.677C178.248 125.08 177.964 125.374 177.579 125.562C177.194 125.749 176.75 125.79 176.247 125.685C175.86 125.604 175.533 125.447 175.268 125.213C175.003 124.975 174.818 124.679 174.713 124.327C174.609 123.969 174.602 123.577 174.691 123.15ZM183.475 124.761C183.438 124.942 183.404 125.079 183.374 125.173L179.958 124.461C179.908 124.775 179.928 125.057 180.018 125.307C180.108 125.556 180.251 125.762 180.448 125.924C180.646 126.08 180.876 126.186 181.137 126.241C181.479 126.312 181.783 126.289 182.049 126.171C182.319 126.054 182.522 125.863 182.656 125.597L183.214 125.714C183.03 126.095 182.745 126.379 182.36 126.566C181.98 126.749 181.542 126.789 181.044 126.685C180.657 126.605 180.328 126.447 180.057 126.212C179.787 125.972 179.598 125.676 179.488 125.322C179.384 124.965 179.376 124.573 179.466 124.145C179.555 123.718 179.718 123.361 179.956 123.075C180.194 122.789 180.484 122.593 180.826 122.486C181.169 122.379 181.536 122.366 181.928 122.448C182.32 122.53 182.644 122.686 182.9 122.918C183.161 123.151 183.339 123.429 183.434 123.753C183.535 124.073 183.549 124.409 183.475 124.761ZM182.943 124.634C183.012 124.329 183.004 124.054 182.918 123.811C182.838 123.569 182.698 123.369 182.5 123.212C182.302 123.056 182.072 122.95 181.811 122.896C181.419 122.814 181.058 122.87 180.73 123.064C180.401 123.257 180.174 123.58 180.048 124.031L182.943 124.634Z" fill="white"/>
<path d="M136.49 134.944C136.371 135.517 136.109 136.027 135.705 136.472C135.315 136.909 134.798 137.233 134.156 137.444C133.526 137.647 132.819 137.696 132.036 137.59L131.756 138.93L130.697 138.709L130.98 137.352C129.897 137.023 129.078 136.507 128.522 135.804C127.969 135.09 127.783 134.245 127.963 133.269L130.445 133.787C130.346 134.595 130.654 135.16 131.37 135.482L132.029 132.321C131.276 131.957 130.677 131.625 130.233 131.325C129.789 131.025 129.437 130.618 129.176 130.103C128.915 129.588 128.864 128.95 129.022 128.189C129.222 127.229 129.728 126.517 130.538 126.052C131.36 125.591 132.326 125.429 133.437 125.569L133.716 124.228L134.775 124.449L134.496 125.79C135.537 126.099 136.314 126.595 136.828 127.277C137.353 127.963 137.553 128.799 137.428 129.786L134.928 129.265C134.962 128.938 134.904 128.638 134.753 128.365C134.617 128.083 134.398 127.859 134.099 127.693L133.447 130.821C134.231 131.203 134.839 131.543 135.272 131.84C135.719 132.129 136.072 132.531 136.333 133.046C136.597 133.55 136.649 134.182 136.49 134.944ZM131.463 128.577C131.387 128.941 131.435 129.262 131.607 129.539C131.782 129.806 132.064 130.055 132.453 130.286L133.05 127.422C132.642 127.395 132.296 127.478 132.014 127.673C131.732 127.867 131.548 128.168 131.463 128.577ZM132.422 135.736C132.858 135.746 133.219 135.643 133.506 135.427C133.803 135.212 133.992 134.918 134.07 134.543C134.146 134.179 134.091 133.862 133.905 133.593C133.719 133.324 133.426 133.073 133.026 132.84L132.422 135.736ZM140.239 128.835L140.684 126.7L144.672 127.531L142.157 139.596L139.773 139.099L141.844 129.17L140.239 128.835ZM146.05 137.679C147.293 137.018 148.29 136.46 149.041 136.006C149.794 135.542 150.447 135.033 151 134.481C151.552 133.928 151.893 133.343 152.022 132.725C152.139 132.162 152.099 131.693 151.901 131.318C151.703 130.943 151.328 130.698 150.776 130.583C150.225 130.468 149.761 130.567 149.385 130.88C149.011 131.182 148.752 131.652 148.607 132.289L146.356 131.82C146.677 130.505 147.278 129.583 148.159 129.053C149.052 128.525 150.073 128.381 151.22 128.62C152.478 128.883 153.373 129.42 153.906 130.234C154.441 131.036 154.594 131.983 154.367 133.076C154.187 133.936 153.784 134.71 153.157 135.397C152.531 136.083 151.858 136.657 151.141 137.118C150.425 137.567 149.502 138.1 148.372 138.716L153.255 139.734L152.854 141.654L144.679 139.949L145.038 138.228L146.05 137.679ZM157.915 140.343L155.009 144.59L153.519 144.28L155.565 139.853L157.915 140.343ZM161.03 134.258C161.315 133.166 161.878 132.397 162.72 131.951C163.575 131.496 164.592 131.391 165.773 131.637C166.578 131.805 167.238 132.093 167.752 132.499C168.268 132.894 168.619 133.365 168.805 133.91C169.004 134.447 169.04 135.018 168.913 135.625C168.768 136.32 168.463 136.873 167.998 137.282C167.546 137.683 167.054 137.914 166.523 137.976L166.51 138.043C167.108 138.375 167.531 138.831 167.778 139.412C168.037 139.996 168.083 140.685 167.917 141.479C167.779 142.141 167.502 142.699 167.085 143.153C166.679 143.61 166.147 143.925 165.489 144.098C164.844 144.263 164.108 144.26 163.281 144.087C162.034 143.827 161.084 143.301 160.432 142.509C159.78 141.717 159.559 140.703 159.771 139.47L162.021 139.939C161.931 140.484 162.022 140.958 162.295 141.36C162.581 141.754 163.028 142.014 163.635 142.14C164.197 142.258 164.66 142.193 165.022 141.946C165.398 141.691 165.637 141.315 165.741 140.818C165.879 140.156 165.768 139.638 165.409 139.264C165.049 138.889 164.428 138.61 163.546 138.426L163.066 138.326L163.463 136.423L163.942 136.523C165.509 136.85 166.402 136.489 166.62 135.441C166.719 134.966 166.653 134.567 166.421 134.242C166.201 133.92 165.826 133.703 165.296 133.593C164.777 133.485 164.345 133.544 163.998 133.771C163.665 133.99 163.431 134.309 163.297 134.731L161.03 134.258ZM170.656 142.81C171.899 142.148 172.896 141.59 173.647 141.137C174.4 140.672 175.053 140.163 175.605 139.611C176.158 139.058 176.499 138.473 176.628 137.855C176.745 137.293 176.704 136.824 176.506 136.449C176.308 136.073 175.933 135.828 175.382 135.713C174.83 135.598 174.366 135.697 173.99 136.01C173.616 136.312 173.357 136.782 173.213 137.42L170.962 136.95C171.282 135.636 171.883 134.713 172.765 134.183C173.658 133.656 174.678 133.511 175.825 133.751C177.083 134.013 177.979 134.551 178.511 135.364C179.046 136.166 179.2 137.114 178.972 138.206C178.793 139.067 178.39 139.84 177.763 140.527C177.136 141.214 176.464 141.787 175.746 142.248C175.031 142.697 174.108 143.23 172.978 143.847L177.86 144.865L177.46 146.784L169.284 145.08L169.643 143.359L170.656 142.81ZM179.607 144.952L179.987 143.132L187.013 136.515L189.711 137.078L188.137 144.624L189.594 144.928L189.173 146.947L187.716 146.643L187.226 148.993L184.909 148.51L185.399 146.16L179.607 144.952ZM187.025 139.108L182.577 143.465L185.969 144.172L187.025 139.108ZM191.756 150.059C191.336 149.971 191.015 149.772 190.792 149.461C190.583 149.141 190.518 148.787 190.599 148.401C190.679 148.015 190.878 147.723 191.196 147.524C191.527 147.317 191.902 147.257 192.322 147.344C192.73 147.43 193.039 147.632 193.248 147.952C193.46 148.261 193.526 148.609 193.445 148.995C193.365 149.381 193.165 149.679 192.845 149.888C192.527 150.087 192.164 150.144 191.756 150.059ZM204.948 141.93L198.396 151.322L196.046 150.832L202.576 141.711L196.916 140.531L197.33 138.545L205.307 140.208L204.948 141.93ZM205.79 150.135C207.033 149.474 208.03 148.916 208.781 148.462C209.534 147.998 210.187 147.489 210.74 146.936C211.293 146.384 211.633 145.799 211.762 145.181C211.88 144.618 211.839 144.149 211.641 143.774C211.443 143.399 211.068 143.154 210.516 143.039C209.965 142.924 209.501 143.023 209.125 143.336C208.751 143.638 208.492 144.108 208.347 144.745L206.097 144.276C206.417 142.961 207.018 142.039 207.9 141.509C208.793 140.981 209.813 140.837 210.96 141.076C212.218 141.339 213.113 141.876 213.646 142.69C214.181 143.492 214.335 144.439 214.107 145.532C213.927 146.392 213.524 147.166 212.898 147.853C212.271 148.539 211.599 149.113 210.881 149.574C210.165 150.023 209.243 150.556 208.113 151.172L212.995 152.19L212.595 154.11L204.419 152.405L204.778 150.684L205.79 150.135Z" fill="white"/>
</g>
<path d="M118.384 164.078L115.806 169.011L115.221 168.889L114.833 164.144L112.552 168.332L111.98 168.221L111.62 162.668L112.182 162.785L112.424 167.632L114.725 163.315L115.309 163.437L115.656 168.306L117.822 163.961L118.384 164.078ZM119.521 164.707C119.416 164.685 119.334 164.629 119.275 164.538C119.215 164.447 119.197 164.347 119.22 164.237C119.243 164.127 119.299 164.045 119.389 163.99C119.48 163.931 119.577 163.912 119.682 163.934C119.787 163.956 119.87 164.012 119.929 164.103C119.989 164.189 120.008 164.286 119.985 164.396C119.962 164.506 119.905 164.591 119.815 164.65C119.724 164.71 119.626 164.729 119.521 164.707ZM119.623 165.534L118.769 169.628L118.244 169.519L119.098 165.424L119.623 165.534ZM121.552 166.398L121.022 168.94C120.969 169.19 120.981 169.372 121.056 169.487C121.131 169.602 121.289 169.684 121.529 169.734L122.009 169.834L121.915 170.284L121.353 170.167C120.983 170.09 120.725 169.948 120.581 169.74C120.437 169.528 120.407 169.224 120.489 168.829L121.019 166.287L120.449 166.168L120.542 165.725L121.111 165.844L121.326 164.817L121.858 164.928L121.644 165.955L122.769 166.19L122.677 166.632L121.552 166.398ZM125.75 166.733C126.06 166.798 126.324 166.921 126.542 167.102C126.765 167.284 126.918 167.524 127.002 167.823C127.091 168.119 127.096 168.459 127.016 168.844L126.515 171.243L125.998 171.136L126.486 168.796C126.579 168.351 126.537 167.987 126.361 167.706C126.19 167.425 125.912 167.244 125.527 167.164C125.132 167.082 124.791 167.141 124.504 167.342C124.217 167.543 124.023 167.886 123.922 168.371L123.456 170.606L122.931 170.496L124.088 164.947L124.613 165.056L124.164 167.208C124.345 166.991 124.575 166.84 124.853 166.757C125.136 166.675 125.435 166.667 125.75 166.733ZM128.015 169.412C128.102 168.992 128.264 168.642 128.5 168.363C128.736 168.078 129.02 167.882 129.35 167.773C129.687 167.661 130.042 167.644 130.417 167.722C130.777 167.797 131.084 167.952 131.338 168.188C131.591 168.423 131.756 168.695 131.833 169.003L132.321 166.663L132.845 166.773L131.688 172.322L131.163 172.213L131.354 171.298C131.17 171.557 130.916 171.749 130.592 171.874C130.27 171.995 129.916 172.015 129.531 171.935C129.156 171.857 128.837 171.699 128.573 171.461C128.315 171.225 128.134 170.929 128.031 170.573C127.933 170.219 127.927 169.832 128.015 169.412ZM131.59 170.165C131.659 169.835 131.652 169.531 131.569 169.253C131.486 168.975 131.342 168.744 131.135 168.56C130.933 168.377 130.692 168.256 130.412 168.198C130.122 168.138 129.848 168.148 129.591 168.23C129.334 168.312 129.112 168.464 128.925 168.686C128.744 168.904 128.618 169.183 128.547 169.523C128.477 169.858 128.481 170.166 128.558 170.449C128.641 170.727 128.783 170.957 128.985 171.14C129.188 171.318 129.434 171.437 129.724 171.498C130.004 171.556 130.273 171.542 130.531 171.455C130.794 171.369 131.019 171.215 131.206 170.993C131.394 170.771 131.522 170.495 131.59 170.165ZM134.264 169.346C134.432 169.115 134.648 168.954 134.912 168.863C135.181 168.773 135.488 168.764 135.833 168.835L135.719 169.383L135.577 169.353C135.197 169.274 134.87 169.313 134.598 169.47C134.325 169.627 134.139 169.945 134.039 170.425L133.562 172.713L133.037 172.603L133.89 168.509L134.415 168.618L134.264 169.346ZM136.092 171.096C136.18 170.676 136.339 170.326 136.57 170.045C136.806 169.761 137.09 169.564 137.42 169.456C137.757 169.343 138.112 169.326 138.487 169.404C138.877 169.486 139.193 169.646 139.436 169.884C139.683 170.123 139.84 170.396 139.907 170.702L140.095 169.802L140.62 169.912L139.766 174.006L139.241 173.897L139.43 172.989C139.242 173.242 138.986 173.431 138.662 173.557C138.345 173.679 137.991 173.699 137.601 173.617C137.231 173.54 136.914 173.383 136.651 173.145C136.392 172.909 136.212 172.613 136.108 172.258C136.01 171.903 136.005 171.516 136.092 171.096ZM139.668 171.849C139.737 171.519 139.729 171.215 139.647 170.937C139.564 170.659 139.419 170.428 139.212 170.244C139.01 170.061 138.769 169.941 138.489 169.882C138.199 169.822 137.926 169.833 137.669 169.915C137.412 169.997 137.19 170.149 137.003 170.37C136.821 170.588 136.696 170.867 136.625 171.207C136.555 171.542 136.558 171.851 136.635 172.133C136.718 172.411 136.86 172.641 137.062 172.824C137.265 173.002 137.511 173.121 137.801 173.182C138.081 173.24 138.35 173.226 138.609 173.139C138.872 173.053 139.097 172.899 139.284 172.677C139.471 172.455 139.599 172.179 139.668 171.849ZM147.367 171.319L145.231 175.146L144.706 175.036L144.29 171.366L142.442 174.564L141.909 174.453L141.48 170.091L142.013 170.202L142.29 173.977L144.18 170.654L144.705 170.763L145.093 174.569L146.85 171.211L147.367 171.319ZM151.031 172.544L150.501 175.086C150.449 175.336 150.46 175.519 150.535 175.633C150.611 175.748 150.768 175.831 151.008 175.881L151.488 175.981L151.394 176.431L150.832 176.313C150.462 176.236 150.205 176.094 150.06 175.887C149.917 175.674 149.886 175.37 149.968 174.975L150.498 172.433L149.929 172.314L150.021 171.872L150.591 171.991L150.805 170.963L151.337 171.074L151.123 172.102L152.248 172.336L152.156 172.779L151.031 172.544ZM154.19 177.076C153.805 176.996 153.475 176.839 153.201 176.604C152.932 176.365 152.741 176.07 152.626 175.717C152.518 175.361 152.508 174.97 152.597 174.545C152.686 174.12 152.853 173.769 153.098 173.492C153.345 173.209 153.641 173.015 153.986 172.91C154.333 172.8 154.699 172.785 155.084 172.865C155.469 172.945 155.798 173.105 156.071 173.345C156.351 173.58 156.545 173.876 156.653 174.233C156.767 174.585 156.78 174.974 156.691 175.399C156.604 175.819 156.437 176.17 156.19 176.453C155.943 176.735 155.644 176.931 155.293 177.04C154.942 177.144 154.575 177.156 154.19 177.076ZM154.285 176.619C154.555 176.675 154.818 176.667 155.073 176.595C155.329 176.518 155.552 176.372 155.743 176.156C155.94 175.936 156.076 175.646 156.152 175.286C156.227 174.926 156.22 174.609 156.131 174.335C156.043 174.056 155.896 173.832 155.692 173.665C155.488 173.492 155.251 173.377 154.981 173.321C154.711 173.264 154.448 173.275 154.192 173.352C153.937 173.424 153.713 173.57 153.521 173.791C153.335 174.008 153.204 174.296 153.129 174.656C153.054 175.016 153.058 175.335 153.141 175.613C153.23 175.888 153.374 176.111 153.573 176.282C153.778 176.45 154.015 176.562 154.285 176.619ZM157.454 177.733C157.344 177.71 157.259 177.654 157.2 177.563C157.145 177.473 157.13 177.374 157.153 177.264C157.175 177.154 157.229 177.071 157.314 177.015C157.404 176.956 157.505 176.938 157.615 176.961C157.72 176.983 157.799 177.038 157.854 177.128C157.914 177.214 157.933 177.311 157.91 177.421C157.887 177.531 157.83 177.616 157.74 177.675C157.654 177.736 157.559 177.755 157.454 177.733ZM158.134 174.471C158.024 174.448 157.939 174.391 157.88 174.301C157.825 174.211 157.81 174.111 157.833 174.001C157.856 173.891 157.909 173.809 157.994 173.753C158.085 173.694 158.185 173.676 158.295 173.699C158.4 173.721 158.48 173.776 158.534 173.866C158.594 173.952 158.613 174.049 158.59 174.159C158.567 174.269 158.51 174.354 158.42 174.413C158.334 174.474 158.239 174.493 158.134 174.471Z" fill="white"/>
<g filter="url(#filter6_b_714_11699)">
<rect x="108.502" y="176.643" width="19.6982" height="19.6982" rx="9.84911" transform="rotate(11.7775 108.502 176.643)" fill="white" fill-opacity="0.14"/>
<g clip-path="url(#clip5_714_11699)">
<path d="M121.311 187.593L121.417 187.085C121.538 186.502 121.165 185.932 120.582 185.81L113.05 184.24C112.467 184.118 111.897 184.492 111.775 185.075L111.669 185.583C111.664 185.608 111.669 185.634 111.683 185.655C111.697 185.677 111.719 185.692 111.744 185.697L121.197 187.668C121.222 187.673 121.248 187.668 121.27 187.654C121.291 187.64 121.306 187.618 121.311 187.593ZM111.504 186.374L110.833 189.594C110.711 190.177 111.085 190.747 111.668 190.869L119.2 192.439C119.783 192.561 120.353 192.187 120.475 191.604L121.146 188.384C121.151 188.359 121.146 188.333 121.132 188.312C121.118 188.291 121.097 188.276 121.072 188.27L111.618 186.299C111.593 186.294 111.567 186.299 111.546 186.313C111.524 186.327 111.51 186.349 111.504 186.374ZM113.4 189.343C113.366 189.51 113.203 189.617 113.036 189.582L112.735 189.519C112.569 189.484 112.462 189.321 112.496 189.155L112.559 188.854C112.594 188.687 112.757 188.581 112.923 188.615L113.225 188.678C113.391 188.713 113.498 188.876 113.463 189.042L113.4 189.343Z" fill="white"/>
</g>
</g>
<path d="M135.523 192.593C135.794 192.702 136.002 192.9 136.146 193.187C136.291 193.475 136.331 193.774 136.266 194.086C136.21 194.352 136.09 194.579 135.904 194.765C135.724 194.948 135.49 195.075 135.203 195.146C134.916 195.213 134.6 195.21 134.253 195.137L132.157 194.7L133.249 189.46L135.247 189.877C135.604 189.951 135.898 190.075 136.129 190.249C136.361 190.423 136.52 190.627 136.608 190.861C136.697 191.089 136.715 191.329 136.662 191.58C136.599 191.882 136.467 192.116 136.264 192.284C136.061 192.451 135.814 192.554 135.523 192.593ZM133.65 191.841L134.713 192.063C134.994 192.121 135.226 192.104 135.408 192.011C135.596 191.914 135.715 191.744 135.766 191.503C135.815 191.267 135.773 191.067 135.639 190.902C135.512 190.734 135.307 190.621 135.026 190.562L133.963 190.34L133.65 191.841ZM134.324 194.42C134.615 194.481 134.858 194.458 135.054 194.352C135.249 194.246 135.373 194.067 135.425 193.816C135.479 193.56 135.433 193.338 135.289 193.15C135.144 192.963 134.926 192.839 134.635 192.778L133.504 192.542L133.162 194.178L134.324 194.42ZM137.207 193.566C137.294 193.149 137.457 192.797 137.695 192.511C137.938 192.226 138.226 192.027 138.559 191.912C138.898 191.794 139.249 191.773 139.611 191.849C139.938 191.917 140.208 192.041 140.422 192.222C140.642 192.399 140.805 192.598 140.911 192.82L141.037 192.217L141.904 192.397L141.038 196.552L140.171 196.371L140.299 195.753C140.113 195.918 139.88 196.04 139.602 196.119C139.323 196.197 139.023 196.203 138.701 196.136C138.344 196.061 138.036 195.903 137.778 195.66C137.52 195.412 137.337 195.106 137.229 194.743C137.128 194.376 137.12 193.983 137.207 193.566ZM140.604 194.29C140.664 194.004 140.656 193.742 140.579 193.506C140.508 193.271 140.388 193.078 140.22 192.927C140.052 192.777 139.857 192.679 139.636 192.633C139.415 192.587 139.197 192.599 138.983 192.67C138.77 192.735 138.581 192.861 138.417 193.047C138.258 193.229 138.149 193.463 138.089 193.75C138.03 194.036 138.035 194.3 138.106 194.54C138.181 194.781 138.302 194.98 138.469 195.135C138.642 195.287 138.837 195.385 139.053 195.43C139.274 195.476 139.492 195.464 139.706 195.393C139.92 195.322 140.107 195.193 140.266 195.006C140.432 194.815 140.545 194.577 140.604 194.29ZM145.294 193.033C145.62 193.102 145.898 193.23 146.126 193.419C146.359 193.61 146.521 193.853 146.611 194.15C146.701 194.447 146.707 194.784 146.628 195.161L146.117 197.611L145.265 197.433L145.75 195.111C145.827 194.739 145.793 194.436 145.648 194.201C145.504 193.961 145.271 193.808 144.95 193.741C144.628 193.674 144.351 193.721 144.118 193.882C143.891 194.039 143.739 194.304 143.661 194.676L143.177 196.998L142.317 196.819L143.184 192.664L144.043 192.843L143.944 193.318C144.12 193.177 144.327 193.081 144.563 193.031C144.804 192.981 145.047 192.982 145.294 193.033ZM149.441 196.14L150.923 198.613L149.762 198.371L148.597 196.263L148.224 198.05L147.365 197.871L148.528 192.292L149.387 192.471L148.711 195.713L150.598 194.21L151.79 194.459L149.441 196.14ZM157.182 198.801L154.988 198.343L154.388 199.335L153.49 199.148L156.462 194.292L157.457 194.5L158.24 200.139L157.336 199.95L157.182 198.801ZM157.087 198.049L156.743 195.436L155.375 197.692L157.087 198.049ZM159.355 198.2C159.444 197.772 159.608 197.416 159.846 197.13C160.09 196.84 160.383 196.639 160.727 196.527C161.07 196.415 161.44 196.4 161.837 196.483C162.34 196.588 162.729 196.795 163.006 197.104C163.288 197.409 163.441 197.795 163.465 198.262L162.537 198.068C162.505 197.847 162.418 197.661 162.276 197.51C162.134 197.36 161.938 197.259 161.686 197.207C161.334 197.133 161.027 197.2 160.763 197.408C160.506 197.611 160.33 197.936 160.237 198.384C160.144 198.831 160.174 199.202 160.328 199.496C160.486 199.791 160.742 199.976 161.094 200.049C161.591 200.153 161.966 200.003 162.218 199.599L163.145 199.792C162.937 200.189 162.64 200.479 162.256 200.661C161.873 200.838 161.435 200.876 160.943 200.773C160.546 200.69 160.212 200.529 159.942 200.289C159.673 200.044 159.484 199.742 159.375 199.384C159.273 199.022 159.266 198.627 159.355 198.2ZM164.027 199.174C164.116 198.746 164.279 198.39 164.517 198.104C164.761 197.814 165.055 197.613 165.398 197.501C165.742 197.389 166.112 197.374 166.509 197.457C167.011 197.562 167.401 197.769 167.677 198.078C167.96 198.384 168.113 198.769 168.136 199.236L167.209 199.043C167.176 198.821 167.089 198.635 166.948 198.485C166.806 198.334 166.609 198.233 166.358 198.181C166.006 198.107 165.698 198.174 165.435 198.382C165.177 198.585 165.002 198.91 164.909 199.358C164.816 199.805 164.846 200.176 164.999 200.47C165.158 200.765 165.413 200.95 165.765 201.023C166.263 201.127 166.638 200.977 166.89 200.573L167.817 200.766C167.608 201.164 167.312 201.453 166.928 201.635C166.545 201.812 166.107 201.85 165.614 201.747C165.217 201.664 164.884 201.503 164.614 201.263C164.345 201.018 164.156 200.716 164.047 200.358C163.944 199.996 163.938 199.601 164.027 199.174ZM170.339 202.732C169.947 202.65 169.611 202.488 169.331 202.246C169.052 201.999 168.855 201.696 168.741 201.337C168.629 200.972 168.617 200.577 168.706 200.149C168.794 199.727 168.965 199.372 169.219 199.084C169.473 198.796 169.779 198.598 170.138 198.489C170.496 198.38 170.874 198.367 171.271 198.45C171.668 198.533 172.009 198.695 172.294 198.938C172.579 199.181 172.781 199.486 172.898 199.851C173.016 200.217 173.031 200.611 172.943 201.033C172.855 201.455 172.682 201.81 172.422 202.096C172.163 202.383 171.849 202.583 171.48 202.694C171.116 202.802 170.736 202.815 170.339 202.732ZM170.494 201.986C170.716 202.032 170.933 202.022 171.146 201.956C171.364 201.891 171.555 201.766 171.72 201.58C171.884 201.394 171.998 201.15 172.061 200.849C172.124 200.547 172.119 200.281 172.046 200.051C171.975 199.816 171.855 199.626 171.686 199.48C171.517 199.335 171.321 199.239 171.1 199.193C170.879 199.147 170.662 199.157 170.449 199.222C170.241 199.289 170.06 199.417 169.905 199.605C169.752 199.788 169.643 200.03 169.58 200.332C169.487 200.779 169.528 201.149 169.703 201.443C169.884 201.732 170.148 201.913 170.494 201.986ZM178.138 199.952L177.272 204.107L176.413 203.928L176.515 203.438C176.343 203.58 176.137 203.679 175.895 203.733C175.659 203.783 175.417 203.783 175.171 203.732C174.844 203.664 174.564 203.534 174.331 203.344C174.103 203.155 173.942 202.911 173.846 202.614C173.756 202.317 173.75 201.98 173.829 201.603L174.338 199.16L175.19 199.338L174.708 201.652C174.63 202.024 174.663 202.33 174.807 202.57C174.953 202.805 175.186 202.956 175.508 203.023C175.829 203.09 176.104 203.045 176.33 202.888C176.563 202.726 176.719 202.46 176.796 202.088L177.279 199.773L178.138 199.952ZM181.533 200.589C181.86 200.658 182.138 200.786 182.366 200.975C182.599 201.166 182.76 201.409 182.851 201.706C182.941 202.003 182.947 202.34 182.868 202.717L182.357 205.167L181.505 204.989L181.989 202.667C182.067 202.295 182.033 201.992 181.888 201.757C181.744 201.517 181.511 201.364 181.189 201.297C180.868 201.23 180.59 201.277 180.357 201.438C180.13 201.595 179.978 201.86 179.901 202.232L179.417 204.554L178.557 204.375L179.423 200.22L180.283 200.4L180.184 200.875C180.36 200.733 180.566 200.637 180.802 200.587C181.043 200.537 181.287 200.538 181.533 200.589ZM185.327 202.183L184.848 204.483C184.815 204.638 184.827 204.759 184.882 204.844C184.944 204.925 185.063 204.984 185.239 205.02L185.767 205.131L185.617 205.847L184.939 205.705C184.552 205.625 184.274 205.472 184.106 205.248C183.937 205.024 183.896 204.709 183.98 204.302L184.46 202.002L183.97 201.9L184.116 201.199L184.606 201.301L184.822 200.268L185.689 200.449L185.473 201.482L186.484 201.692L186.337 202.394L185.327 202.183Z" fill="white"/>
<g filter="url(#filter7_b_714_11699)">
<rect x="102.695" y="204.497" width="19.6982" height="19.6982" rx="9.84911" transform="rotate(11.7775 102.695 204.497)" fill="white" fill-opacity="0.14"/>
<g clip-path="url(#clip6_714_11699)">
<path d="M114.438 215.65C114.434 215.804 114.414 215.978 114.378 216.152C114.333 216.366 114.266 216.569 114.18 216.761L114.187 216.742C113.543 218.27 112.364 218.854 110.65 218.497L110.413 218.448C110.412 218.447 110.41 218.447 110.409 218.447C110.319 218.428 110.23 218.445 110.157 218.487L110.157 218.487C110.079 218.531 110.016 218.6 109.982 218.686L109.981 218.689L109.938 218.786L109.254 220.586L109.227 220.664C109.191 220.753 109.127 220.823 109.048 220.865L109.047 220.865C108.973 220.908 108.883 220.924 108.791 220.905C108.791 220.905 108.791 220.905 108.79 220.905L107.441 220.624C107.438 220.623 107.435 220.623 107.431 220.622C107.363 220.608 107.31 220.564 107.281 220.507L107.28 220.506C107.256 220.459 107.247 220.402 107.259 220.345C107.262 220.33 107.267 220.316 107.273 220.302L107.272 220.303C107.346 220.109 107.456 219.818 107.603 219.429C107.749 219.041 107.86 218.749 107.934 218.555C108.008 218.361 108.119 218.071 108.267 217.686C108.415 217.3 108.526 217.01 108.6 216.816C108.628 216.706 108.737 216.636 108.849 216.659C108.858 216.661 108.866 216.663 108.874 216.666L108.873 216.666L109.577 216.813C109.622 216.823 109.675 216.835 109.728 216.846C110.124 216.929 110.519 216.967 110.907 216.965L110.87 216.964C111.496 216.968 112.075 216.804 112.577 216.509L112.574 216.511C113.021 216.231 113.4 215.846 113.672 215.383L113.684 215.361C113.798 215.177 113.913 214.95 114.011 214.713L114.021 214.685C114.025 214.67 114.033 214.657 114.043 214.647C114.048 214.644 114.053 214.643 114.059 214.644C114.061 214.645 114.062 214.645 114.064 214.646C114.075 214.654 114.084 214.662 114.092 214.672C114.324 214.936 114.453 215.28 114.438 215.642L114.438 215.65ZM113.829 213.939C113.723 214.396 113.542 214.812 113.302 215.181L113.317 215.157C112.902 215.899 112.176 216.393 111.358 216.511L111.339 216.513C110.905 216.571 110.421 216.556 109.936 216.455L109.936 216.455C109.935 216.459 109.773 216.427 109.45 216.359L108.967 216.253C108.95 216.247 108.929 216.242 108.908 216.237C108.609 216.175 108.316 216.35 108.225 216.634L108.224 216.637C108.211 216.664 107.861 217.582 107.173 219.392C107.165 219.422 107.136 219.441 107.105 219.435C107.103 219.434 107.099 219.433 107.097 219.432L105.511 219.102C105.367 219.071 105.275 218.931 105.305 218.788C105.308 218.775 105.311 218.762 105.316 218.751L105.316 218.752L108.214 211.099C108.253 210.999 108.325 210.92 108.414 210.873L108.415 210.873C108.501 210.824 108.605 210.806 108.71 210.828L108.711 210.828L111.928 211.499C112.116 211.546 112.291 211.609 112.456 211.686L112.438 211.678C112.659 211.771 112.847 211.873 113.024 211.989L113.001 211.975C113.337 212.181 113.589 212.473 113.74 212.814L113.743 212.82C113.875 213.143 113.916 213.515 113.838 213.89C113.834 213.907 113.83 213.923 113.826 213.94L113.827 213.938L113.829 213.939Z" fill="white"/>
</g>
</g>
<path d="M130.781 219.639C130.725 219.905 130.61 220.143 130.435 220.353C130.26 220.564 130.019 220.715 129.711 220.808C129.404 220.896 129.034 220.895 128.602 220.805L127.652 220.607L127.209 222.733L126.349 222.554L127.442 217.314L129.251 217.691C129.653 217.775 129.978 217.916 130.225 218.115C130.478 218.309 130.648 218.539 130.735 218.803C130.826 219.069 130.841 219.347 130.781 219.639ZM128.748 220.104C129.075 220.172 129.334 220.15 129.525 220.038C129.717 219.921 129.842 219.726 129.898 219.455C130.018 218.882 129.753 218.528 129.105 218.393L128.155 218.194L127.798 219.906L128.748 220.104ZM131.134 221.365C131.221 220.948 131.384 220.596 131.622 220.31C131.865 220.025 132.153 219.825 132.486 219.711C132.826 219.593 133.176 219.572 133.538 219.647C133.865 219.715 134.135 219.84 134.349 220.021C134.569 220.198 134.732 220.397 134.838 220.619L134.964 220.015L135.831 220.196L134.965 224.351L134.098 224.17L134.227 223.552C134.04 223.717 133.808 223.839 133.529 223.917C133.25 223.996 132.95 224.001 132.629 223.934C132.272 223.86 131.964 223.701 131.705 223.458C131.447 223.211 131.264 222.905 131.157 222.542C131.055 222.174 131.047 221.782 131.134 221.365ZM134.532 222.089C134.591 221.802 134.583 221.541 134.506 221.305C134.435 221.069 134.315 220.877 134.147 220.726C133.979 220.576 133.785 220.478 133.563 220.431C133.342 220.385 133.125 220.398 132.911 220.468C132.698 220.534 132.509 220.66 132.344 220.846C132.186 221.028 132.076 221.262 132.017 221.549C131.957 221.835 131.962 222.099 132.033 222.339C132.108 222.58 132.23 222.778 132.397 222.934C132.57 223.085 132.764 223.184 132.98 223.229C133.201 223.275 133.419 223.262 133.633 223.192C133.847 223.121 134.034 222.992 134.194 222.805C134.359 222.614 134.472 222.375 134.532 222.089ZM140.851 221.243L137.029 226.819L136.139 226.633L137.405 224.789L136.621 220.361L137.578 220.56L138.087 223.971L139.961 221.057L140.851 221.243ZM145.215 222.648C145.16 222.915 145.045 223.153 144.87 223.363C144.695 223.573 144.453 223.725 144.145 223.818C143.839 223.906 143.469 223.905 143.037 223.815L142.087 223.617L141.643 225.743L140.784 225.564L141.876 220.324L143.686 220.701C144.088 220.785 144.413 220.926 144.66 221.124C144.913 221.319 145.083 221.548 145.169 221.813C145.261 222.078 145.276 222.357 145.215 222.648ZM143.183 223.114C143.51 223.182 143.769 223.16 143.96 223.048C144.152 222.93 144.277 222.736 144.333 222.465C144.453 221.892 144.188 221.537 143.54 221.402L142.59 221.204L142.233 222.916L143.183 223.114ZM145.569 224.374C145.656 223.957 145.819 223.606 146.057 223.32C146.3 223.035 146.588 222.835 146.921 222.721C147.26 222.603 147.611 222.581 147.973 222.657C148.3 222.725 148.57 222.85 148.784 223.031C149.004 223.208 149.167 223.407 149.273 223.628L149.399 223.025L150.266 223.206L149.4 227.36L148.533 227.179L148.662 226.561C148.475 226.727 148.242 226.849 147.964 226.927C147.685 227.005 147.385 227.011 147.063 226.944C146.706 226.87 146.399 226.711 146.14 226.468C145.882 226.22 145.699 225.915 145.591 225.551C145.49 225.184 145.482 224.792 145.569 224.374ZM148.967 225.099C149.026 224.812 149.018 224.551 148.941 224.314C148.87 224.079 148.75 223.886 148.582 223.736C148.414 223.585 148.219 223.487 147.998 223.441C147.777 223.395 147.559 223.407 147.345 223.478C147.132 223.544 146.944 223.67 146.779 223.856C146.62 224.038 146.511 224.272 146.451 224.558C146.392 224.845 146.397 225.108 146.468 225.348C146.543 225.59 146.664 225.788 146.831 225.944C147.004 226.095 147.199 226.193 147.415 226.238C147.636 226.284 147.854 226.272 148.068 226.201C148.282 226.131 148.469 226.002 148.628 225.815C148.794 225.624 148.907 225.385 148.967 225.099ZM152.702 222.227L151.539 227.806L150.679 227.627L151.843 222.048L152.702 222.227Z" fill="white"/>
<g filter="url(#filter8_b_714_11699)">
<rect x="96.8872" y="232.351" width="19.6982" height="19.6982" rx="9.84911" transform="rotate(11.7775 96.8872 232.351)" fill="white" fill-opacity="0.14"/>
<g clip-path="url(#clip7_714_11699)">
<path fill-rule="evenodd" clip-rule="evenodd" d="M107.365 242.715C107.008 241.677 106.123 240.904 104.977 240.665C103.242 240.303 101.61 241.357 101.246 243.103C100.882 244.85 101.929 246.601 103.664 246.963C104.81 247.202 105.953 246.74 106.694 245.931L108.267 246.259C107.258 247.846 105.321 248.719 103.382 248.315C100.876 247.792 99.2164 245.312 99.7424 242.79C100.268 240.267 102.78 238.657 105.287 239.179C107.226 239.583 108.647 241.185 108.938 243.043L107.365 242.715L107.365 242.715ZM109.496 244.263L107.676 245.061L105.688 244.646C105.332 245.195 104.664 245.498 103.985 245.357C103.103 245.173 102.537 244.308 102.721 243.425C102.905 242.542 103.77 241.975 104.652 242.159C105.341 242.303 105.837 242.861 105.934 243.52L109.496 244.263Z" fill="white"/>
</g>
</g>
<path d="M120.804 247.717C120.91 247.204 121.125 246.769 121.446 246.411C121.772 246.054 122.162 245.805 122.616 245.664C123.077 245.519 123.551 245.497 124.038 245.599C124.596 245.715 125.063 245.956 125.437 246.323C125.818 246.686 126.054 247.139 126.145 247.682L125.112 247.467C125.034 247.162 124.889 246.917 124.676 246.731C124.463 246.545 124.198 246.419 123.881 246.353C123.534 246.28 123.209 246.294 122.905 246.393C122.601 246.492 122.341 246.671 122.124 246.93C121.913 247.19 121.766 247.514 121.686 247.901C121.605 248.288 121.61 248.643 121.7 248.966C121.795 249.29 121.961 249.561 122.199 249.778C122.438 249.991 122.731 250.133 123.078 250.205C123.394 250.271 123.688 250.262 123.957 250.176C124.227 250.091 124.458 249.924 124.652 249.676L125.684 249.891C125.384 250.353 124.986 250.674 124.492 250.854C124.003 251.036 123.48 251.068 122.922 250.952C122.43 250.849 122.003 250.642 121.643 250.331C121.284 250.015 121.027 249.628 120.87 249.171C120.719 248.714 120.697 248.23 120.804 247.717ZM128.124 248.283C128.293 248.099 128.493 247.97 128.724 247.897C128.96 247.821 129.221 247.812 129.508 247.872L129.322 248.762L129.104 248.716C128.767 248.646 128.493 248.678 128.281 248.812C128.075 248.947 127.927 249.226 127.839 249.648L127.383 251.835L126.524 251.655L127.39 247.501L128.25 247.68L128.124 248.283ZM134.174 248.916L130.352 254.491L129.463 254.306L130.728 252.461L129.944 248.034L130.902 248.233L131.41 251.644L133.284 248.73L134.174 248.916ZM135.706 249.872C135.891 249.712 136.123 249.592 136.402 249.514C136.681 249.436 136.978 249.429 137.295 249.495C137.657 249.571 137.967 249.73 138.226 249.973C138.491 250.212 138.675 250.51 138.779 250.867C138.883 251.224 138.891 251.612 138.804 252.029C138.717 252.446 138.554 252.803 138.314 253.099C138.075 253.39 137.785 253.597 137.445 253.72C137.11 253.839 136.762 253.861 136.4 253.786C136.084 253.72 135.815 253.598 135.595 253.421C135.376 253.239 135.209 253.036 135.093 252.813L134.555 255.391L133.696 255.212L134.974 249.082L135.833 249.262L135.706 249.872ZM137.93 251.846C137.99 251.56 137.981 251.301 137.903 251.07C137.831 250.835 137.708 250.644 137.534 250.497C137.366 250.347 137.172 250.249 136.951 250.203C136.735 250.158 136.517 250.17 136.298 250.24C136.084 250.31 135.895 250.439 135.73 250.625C135.57 250.812 135.461 251.048 135.401 251.335C135.341 251.621 135.346 251.885 135.417 252.125C135.494 252.361 135.616 252.555 135.784 252.705C135.957 252.857 136.151 252.955 136.368 253C136.589 253.046 136.806 253.034 137.02 252.963C137.241 252.888 137.431 252.755 137.592 252.563C137.757 252.372 137.87 252.133 137.93 251.846ZM141.091 251.089L140.611 253.389C140.579 253.545 140.591 253.665 140.646 253.75C140.708 253.831 140.827 253.89 141.003 253.927L141.531 254.037L141.381 254.753L140.703 254.612C140.316 254.531 140.038 254.379 139.87 254.155C139.701 253.931 139.659 253.615 139.744 253.208L140.224 250.909L139.734 250.806L139.88 250.105L140.37 250.207L140.585 249.175L141.452 249.355L141.237 250.388L142.247 250.599L142.101 251.3L141.091 251.089ZM144.112 255.393C143.72 255.312 143.384 255.15 143.104 254.908C142.825 254.661 142.629 254.358 142.515 253.998C142.402 253.634 142.39 253.238 142.479 252.811C142.567 252.389 142.738 252.033 142.992 251.746C143.246 251.458 143.553 251.259 143.911 251.15C144.269 251.041 144.647 251.028 145.044 251.111C145.441 251.194 145.782 251.357 146.067 251.6C146.352 251.843 146.554 252.147 146.672 252.513C146.79 252.878 146.805 253.272 146.716 253.694C146.628 254.116 146.455 254.471 146.196 254.758C145.937 255.045 145.622 255.244 145.253 255.356C144.889 255.464 144.509 255.476 144.112 255.393ZM144.268 254.647C144.489 254.693 144.706 254.683 144.919 254.618C145.137 254.553 145.328 254.428 145.493 254.242C145.658 254.056 145.771 253.812 145.834 253.51C145.897 253.209 145.892 252.943 145.82 252.713C145.748 252.477 145.628 252.287 145.459 252.142C145.29 251.996 145.095 251.901 144.874 251.855C144.652 251.808 144.435 251.818 144.222 251.884C144.014 251.951 143.833 252.078 143.678 252.266C143.525 252.449 143.417 252.692 143.354 252.993C143.26 253.44 143.301 253.811 143.476 254.104C143.657 254.394 143.921 254.575 144.268 254.647Z" fill="white"/>
</g>
<rect x="130.326" y="12.998" width="189.322" height="304.775" rx="16.4152" transform="rotate(11.7775 130.326 12.998)" stroke="url(#paint5_linear_714_11699)" stroke-width="1.09434"/>
</g>
<g filter="url(#filter9_b_714_11699)">
<rect x="256.891" y="9.63379" width="71.1324" height="71.1324" rx="35.5662" transform="rotate(-7.78399 256.891 9.63379)" fill="url(#paint6_linear_714_11699)"/>
<rect x="256.891" y="9.63379" width="71.1324" height="71.1324" rx="35.5662" transform="rotate(-7.78399 256.891 9.63379)" stroke="#FF6E75" stroke-width="1.09434" stroke-miterlimit="10"/>
<path d="M289.891 36.0522L283.837 45.4558L296.7 43.6975L297.604 39.5295L292.092 40.2829L294.928 35.9281L294.925 35.8227L292.219 32.3534L302.071 31.0066L297.306 53.0639L302.532 52.3496L308.291 25.7613L284.466 29.0182L289.889 36.0525L289.891 36.0522Z" fill="white"/>
</g>
<g filter="url(#filter10_b_714_11699)">
<rect x="0.411621" y="136.02" width="71.1324" height="71.1324" rx="35.5662" transform="rotate(-8.54897 0.411621 136.02)" fill="url(#paint7_linear_714_11699)"/>
<rect x="0.411621" y="136.02" width="71.1324" height="71.1324" rx="35.5662" transform="rotate(-8.54897 0.411621 136.02)" stroke="#FF6E75" stroke-width="1.09434" stroke-miterlimit="10"/>
<g clip-path="url(#clip8_714_11699)">
<path d="M51.0077 159.408L54.0389 158.385L55.8353 170.335L52.7207 170.803L51.0077 159.408ZM55.5542 158.724L57.2663 170.113L60.3808 169.645L58.5854 157.702L55.5542 158.724ZM48.292 171.462L51.4066 170.994L50.0933 162.258L46.9787 162.726L48.292 171.462ZM26.5829 167.054C26.183 167.087 25.2634 167.164 25.1404 166.346C24.9916 165.356 26.3048 165.159 26.7931 165.085C27.6575 164.955 28.818 165.044 29.6521 165.162C29.6521 165.162 30.1246 165.253 30.5246 165.354L30.5586 165.356L30.1519 162.651L30.1037 162.644C29.1105 162.456 27.9675 162.304 25.9285 162.611C22.418 163.138 21.4849 165.371 21.7478 167.119C21.8996 168.129 22.6922 170.439 26.7524 170.112C27.0985 170.08 28.0105 169.997 28.1385 170.848C28.2436 171.548 27.567 172.075 26.3199 172.262C24.954 172.467 23.5816 172.316 22.727 172.107L23.1466 174.898C24.3952 175.035 25.7783 174.989 27.3686 174.749C30.7999 174.234 32.0468 172.069 31.7581 170.149C31.4308 167.971 29.5028 166.817 26.5829 167.054ZM45.2046 162.864C42.3414 163.389 41.0776 164.902 41.4634 167.469L42.2024 172.385L45.3434 171.912L44.7403 167.9C44.5092 166.363 44.6079 165.673 46.4269 165.339L46.042 162.779C45.7163 162.767 45.2046 162.864 45.2046 162.864ZM36.7761 164.253C36.7359 164.434 36.4467 165.922 35.4584 167.562L34.52 161.319L31.4016 162.436L33.1018 173.746L36.3154 173.263L35.7897 169.766C36.9304 171.025 37.7077 173.054 37.7077 173.054L41.5548 172.475C40.934 170.949 38.8327 168.282 38.8327 168.282C40.0393 166.164 40.3956 164.046 40.4506 163.694L36.7751 164.246L36.7761 164.253ZM48.4034 161.655C49.248 161.528 49.8377 160.737 49.7108 159.893C49.5838 159.048 48.7934 158.458 47.9422 158.586C47.0975 158.713 46.5144 159.503 46.6424 160.354C46.7693 161.199 47.5588 161.782 48.4034 161.655Z" fill="white"/>
</g>
</g>
<defs>
<filter id="filter0_b_714_11699" x="163.013" y="130.707" width="242.36" height="218.152" filterUnits="userSpaceOnUse" color-interpolation-filters="sRGB">
<feFlood flood-opacity="0" result="BackgroundImageFix"/>
<feGaussianBlur in="BackgroundImageFix" stdDeviation="19.6237"/>
<feComposite in2="SourceAlpha" operator="in" result="effect1_backgroundBlur_714_11699"/>
<feBlend mode="normal" in="SourceGraphic" in2="effect1_backgroundBlur_714_11699" result="shape"/>
</filter>
<filter id="filter1_b_714_11699" x="252.857" y="163.494" width="154.82" height="130.867" filterUnits="userSpaceOnUse" color-interpolation-filters="sRGB">
<feFlood flood-opacity="0" result="BackgroundImageFix"/>
<feGaussianBlur in="BackgroundImageFix" stdDeviation="19.6237"/>
<feComposite in2="SourceAlpha" operator="in" result="effect1_backgroundBlur_714_11699"/>
<feBlend mode="normal" in="SourceGraphic" in2="effect1_backgroundBlur_714_11699" result="shape"/>
</filter>
<filter id="filter2_b_714_11699" x="18.8717" y="-36.2475" width="346.035" height="435.493" filterUnits="userSpaceOnUse" color-interpolation-filters="sRGB">
<feFlood flood-opacity="0" result="BackgroundImageFix"/>
<feGaussianBlur in="BackgroundImageFix" stdDeviation="24.6228"/>
<feComposite in2="SourceAlpha" operator="in" result="effect1_backgroundBlur_714_11699"/>
<feBlend mode="normal" in="SourceGraphic" in2="effect1_backgroundBlur_714_11699" result="shape"/>
</filter>
<filter id="filter3_b_714_11699" x="65.0787" y="244.407" width="204.615" height="103.871" filterUnits="userSpaceOnUse" color-interpolation-filters="sRGB">
<feFlood flood-opacity="0" result="BackgroundImageFix"/>
<feGaussianBlur in="BackgroundImageFix" stdDeviation="9.23798"/>
<feComposite in2="SourceAlpha" operator="in" result="effect1_backgroundBlur_714_11699"/>
<feBlend mode="normal" in="SourceGraphic" in2="effect1_backgroundBlur_714_11699" result="shape"/>
</filter>
<filter id="filter4_b_714_11699" x="120.714" y="12.5452" width="53.9878" height="53.9875" filterUnits="userSpaceOnUse" color-interpolation-filters="sRGB">
<feFlood flood-opacity="0" result="BackgroundImageFix"/>
<feGaussianBlur in="BackgroundImageFix" stdDeviation="7.34716"/>
<feComposite in2="SourceAlpha" operator="in" result="effect1_backgroundBlur_714_11699"/>
<feBlend mode="normal" in="SourceGraphic" in2="effect1_backgroundBlur_714_11699" result="shape"/>
</filter>
<filter id="filter5_b_714_11699" x="105.28" y="36.9939" width="90.4122" height="90.4119" filterUnits="userSpaceOnUse" color-interpolation-filters="sRGB">
<feFlood flood-opacity="0" result="BackgroundImageFix"/>
<feGaussianBlur in="BackgroundImageFix" stdDeviation="15.1965"/>
<feComposite in2="SourceAlpha" operator="in" result="effect1_backgroundBlur_714_11699"/>
<feBlend mode="normal" in="SourceGraphic" in2="effect1_backgroundBlur_714_11699" result="shape"/>
</filter>
<filter id="filter6_b_714_11699" x="80.5742" y="152.735" width="71.1196" height="71.1196" filterUnits="userSpaceOnUse" color-interpolation-filters="sRGB">
<feFlood flood-opacity="0" result="BackgroundImageFix"/>
<feGaussianBlur in="BackgroundImageFix" stdDeviation="11.9539"/>
<feComposite in2="SourceAlpha" operator="in" result="effect1_backgroundBlur_714_11699"/>
<feBlend mode="normal" in="SourceGraphic" in2="effect1_backgroundBlur_714_11699" result="shape"/>
</filter>
<filter id="filter7_b_714_11699" x="74.7666" y="180.589" width="71.1196" height="71.1196" filterUnits="userSpaceOnUse" color-interpolation-filters="sRGB">
<feFlood flood-opacity="0" result="BackgroundImageFix"/>
<feGaussianBlur in="BackgroundImageFix" stdDeviation="11.9539"/>
<feComposite in2="SourceAlpha" operator="in" result="effect1_backgroundBlur_714_11699"/>
<feBlend mode="normal" in="SourceGraphic" in2="effect1_backgroundBlur_714_11699" result="shape"/>
</filter>
<filter id="filter8_b_714_11699" x="68.959" y="208.443" width="71.1196" height="71.1196" filterUnits="userSpaceOnUse" color-interpolation-filters="sRGB">
<feFlood flood-opacity="0" result="BackgroundImageFix"/>
<feGaussianBlur in="BackgroundImageFix" stdDeviation="11.9539"/>
<feComposite in2="SourceAlpha" operator="in" result="effect1_backgroundBlur_714_11699"/>
<feBlend mode="normal" in="SourceGraphic" in2="effect1_backgroundBlur_714_11699" result="shape"/>
</filter>
<filter id="filter9_b_714_11699" x="240.475" y="-16.4154" width="112.941" height="112.941" filterUnits="userSpaceOnUse" color-interpolation-filters="sRGB">
<feFlood flood-opacity="0" result="BackgroundImageFix"/>
<feGaussianBlur in="BackgroundImageFix" stdDeviation="8.20759"/>
<feComposite in2="SourceAlpha" operator="in" result="effect1_backgroundBlur_714_11699"/>
<feBlend mode="normal" in="SourceGraphic" in2="effect1_backgroundBlur_714_11699" result="shape"/>
</filter>
<filter id="filter10_b_714_11699" x="-16.0036" y="109.031" width="113.746" height="113.747" filterUnits="userSpaceOnUse" color-interpolation-filters="sRGB">
<feFlood flood-opacity="0" result="BackgroundImageFix"/>
<feGaussianBlur in="BackgroundImageFix" stdDeviation="8.20759"/>
<feComposite in2="SourceAlpha" operator="in" result="effect1_backgroundBlur_714_11699"/>
<feBlend mode="normal" in="SourceGraphic" in2="effect1_backgroundBlur_714_11699" result="shape"/>
</filter>
<linearGradient id="paint0_linear_714_11699" x1="224.581" y1="300.827" x2="351.782" y2="172.681" gradientUnits="userSpaceOnUse">
<stop stop-color="#FF6E75"/>
<stop offset="1" stop-color="#FBBE7E"/>
</linearGradient>
<linearGradient id="paint1_linear_714_11699" x1="298.692" y1="254.012" x2="345.649" y2="191.165" gradientUnits="userSpaceOnUse">
<stop stop-color="#FF6E75"/>
<stop offset="1" stop-color="#FBBE7E"/>
</linearGradient>
<radialGradient id="paint2_radial_714_11699" cx="0" cy="0" r="1" gradientUnits="userSpaceOnUse" gradientTransform="translate(373.172 201.909) rotate(164.906) scale(233.391 150.897)">
<stop stop-color="#935E5D"/>
<stop offset="0.679114" stop-color="#161635"/>
</radialGradient>
<linearGradient id="paint3_linear_714_11699" x1="90.5215" y1="279.949" x2="279.93" y2="242.679" gradientUnits="userSpaceOnUse">
<stop stop-color="#FF6E75"/>
<stop offset="1" stop-color="#FBBE7E"/>
</linearGradient>
<linearGradient id="paint4_linear_714_11699" x1="165.698" y1="54.6003" x2="153.305" y2="92.4287" gradientUnits="userSpaceOnUse">
<stop stop-color="#FBBE7E"/>
<stop offset="1" stop-color="#FF6E75"/>
</linearGradient>
<linearGradient id="paint5_linear_714_11699" x1="310.168" y1="-4.81045" x2="87.0915" y2="198.316" gradientUnits="userSpaceOnUse">
<stop stop-color="#FBBE7E"/>
<stop offset="1" stop-color="#FF6E75"/>
</linearGradient>
<linearGradient id="paint6_linear_714_11699" x1="271.292" y1="34.2512" x2="317.243" y2="106.287" gradientUnits="userSpaceOnUse">
<stop stop-color="#000223" stop-opacity="0.58"/>
<stop offset="1" stop-color="#FF6E75" stop-opacity="0.71"/>
</linearGradient>
<linearGradient id="paint7_linear_714_11699" x1="14.8132" y1="160.637" x2="60.764" y2="232.673" gradientUnits="userSpaceOnUse">
<stop stop-color="#000223" stop-opacity="0.58"/>
<stop offset="1" stop-color="#FF6E75" stop-opacity="0.71"/>
</linearGradient>
<clipPath id="clip0_714_11699">
<rect width="21.9936" height="35.889" fill="white" transform="translate(83.6528 102.183) rotate(15.3977)"/>
</clipPath>
<clipPath id="clip1_714_11699">
<rect x="130.326" y="12.998" width="189.322" height="304.775" rx="16.4152" transform="rotate(11.7775 130.326 12.998)" fill="white"/>
</clipPath>
<clipPath id="clip2_714_11699">
<rect x="90.5215" y="262.883" width="164.152" height="34.1321" rx="9.23798" transform="rotate(11.7775 90.5215 262.883)" fill="white"/>
</clipPath>
<clipPath id="clip3_714_11699">
<rect x="133.631" y="56.1208" width="164.152" height="94.1137" rx="10.9434" transform="rotate(11.7775 133.631 56.1208)" fill="white"/>
</clipPath>
<clipPath id="clip4_714_11699">
<rect width="15.5001" height="15.5001" fill="white" transform="translate(144.51 72.897) rotate(11.7775)"/>
</clipPath>
<clipPath id="clip5_714_11699">
<rect width="9.8491" height="9.8491" fill="white" transform="translate(112.31 182.513) rotate(11.7775)"/>
</clipPath>
<clipPath id="clip6_714_11699">
<rect width="9.8491" height="9.8491" fill="white" transform="translate(106.502 210.367) rotate(11.7775)"/>
</clipPath>
<clipPath id="clip7_714_11699">
<rect width="9.8491" height="9.33233" fill="white" transform="translate(100.694 238.221) rotate(11.7775)"/>
</clipPath>
<clipPath id="clip8_714_11699">
<rect width="37.9017" height="13.6793" fill="white" transform="translate(20.9556 162.258) rotate(-8.54897)"/>
</clipPath>
</defs>
</svg>
