<svg width="332" height="350" viewBox="0 0 332 350" fill="none" xmlns="http://www.w3.org/2000/svg">
<path fill-rule="evenodd" clip-rule="evenodd" d="M133.368 192.159L37.7227 169.132C33.0935 168.018 28.4374 170.867 27.3229 175.496L4.03356 272.231C2.91907 276.861 5.76828 281.517 10.3975 282.631L18.6917 284.628L17.9672 287.637C17.4879 289.628 18.7132 291.631 20.7041 292.11L26.1159 293.413C28.1067 293.892 30.1091 292.667 30.5884 290.676L31.3129 287.667L85.1262 300.622L84.4016 303.632C83.9223 305.623 85.1477 307.625 87.1385 308.104L92.5504 309.407C94.5412 309.887 96.5436 308.661 97.0229 306.67L97.7474 303.661L106.043 305.658C110.672 306.773 115.328 303.923 116.442 299.294L139.732 202.559C140.846 197.93 137.997 193.274 133.368 192.159Z" fill="url(#paint0_linear_714_11374)"/>
<path fill-rule="evenodd" clip-rule="evenodd" d="M47.596 189.055C44.4005 188.286 41.1516 190.274 40.3822 193.47L23.842 262.172C23.0727 265.367 25.0608 268.616 28.2563 269.385L96.1686 285.736C99.3641 286.505 102.613 284.517 103.382 281.321L104.712 275.8C103.505 275.067 102.854 273.614 103.202 272.169L105.305 263.433C105.653 261.988 106.894 260.99 108.302 260.887L115.002 233.057C113.795 232.325 113.145 230.872 113.493 229.427L115.596 220.691C115.944 219.246 117.185 218.248 118.592 218.145L119.923 212.619C120.692 209.424 118.704 206.175 115.508 205.405L47.596 189.055ZM120.533 218.601L121.861 213.086C122.888 208.82 120.241 204.494 115.975 203.467L48.0625 187.117C43.7967 186.09 39.4712 188.737 38.4442 193.003L21.904 261.705C20.877 265.971 23.5239 270.296 27.7897 271.323L95.7021 287.674C99.9679 288.701 104.293 286.054 105.32 281.788L106.647 276.277C108.07 276.188 109.329 275.186 109.68 273.728L111.783 264.993C112.134 263.535 111.469 262.069 110.242 261.343L116.937 233.535C118.36 233.447 119.619 232.444 119.97 230.986L122.074 222.251C122.424 220.793 121.759 219.327 120.533 218.601ZM119.148 220.168C118.431 219.995 117.707 220.437 117.534 221.158L115.431 229.893C115.257 230.614 115.7 231.337 116.418 231.51C117.135 231.683 117.859 231.24 118.032 230.52L120.136 221.784C120.309 221.063 119.866 220.34 119.148 220.168ZM108.858 262.91C108.14 262.737 107.417 263.179 107.243 263.9L105.14 272.635C104.967 273.356 105.41 274.079 106.127 274.252C106.845 274.424 107.568 273.982 107.742 273.262L109.845 264.526C110.019 263.805 109.575 263.082 108.858 262.91Z" fill="white"/>
<path d="M48.6308 237.943C52.2432 238.813 55.8766 236.589 56.7463 232.977C57.616 229.365 55.3926 225.731 51.7803 224.862C48.1679 223.992 44.5345 226.215 43.6648 229.828C42.7951 233.44 45.0185 237.073 48.6308 237.943Z" fill="white"/>
<path d="M53.6273 233.158C54.0718 231.312 52.9365 229.455 51.0915 229.011C49.2465 228.567 47.3905 229.704 46.946 231.55L43.1947 247.131C42.7502 248.978 43.8855 250.834 45.7305 251.279C47.5755 251.723 49.4315 250.586 49.876 248.74L53.6273 233.158Z" fill="white"/>
<path d="M249.09 220.1C265.142 226.397 283.254 218.502 289.546 202.466C295.837 186.43 287.925 168.325 271.873 162.027C255.821 155.729 237.708 163.624 231.417 179.661C225.125 195.697 233.038 213.802 249.09 220.1Z" fill="#FBBE7E" stroke="#FBBE7E" stroke-width="1.16698" stroke-miterlimit="10"/>
<g clip-path="url(#clip0_714_11374)">
<rect width="19.3068" height="31.4741" transform="translate(256.704 173.105) rotate(21.4214)" fill="#FBBE7E"/>
<path d="M268.183 182.408C267.621 181.829 266.955 181.32 266.195 180.883L266.799 179.343C266.994 178.847 266.746 178.29 266.249 178.095L264.993 177.602C264.497 177.408 263.937 177.647 263.742 178.143L263.146 179.662C262.232 179.437 261.336 179.344 260.458 179.383C259.11 179.44 257.912 179.798 256.872 180.457C255.826 181.12 255.059 182.076 254.574 183.312C253.985 184.812 254.017 186.23 254.679 187.551C255.331 188.853 256.424 190.069 257.949 191.197L258.47 191.582L255.878 198.189C255.582 198.007 255.308 197.806 255.056 197.589C254.492 197.099 254.101 196.539 253.874 195.904C253.708 195.434 253.664 194.934 253.746 194.4C253.816 193.951 253.537 193.53 253.129 193.37L251.375 192.682C250.814 192.462 250.193 192.8 250.073 193.388C249.866 194.38 249.879 195.345 250.111 196.273C250.414 197.48 251.055 198.568 252.034 199.538C252.746 200.243 253.586 200.842 254.631 201.367L254.073 202.79C253.878 203.286 254.126 203.842 254.622 204.037L255.878 204.53C256.375 204.725 256.935 204.485 257.129 203.989L257.71 202.509C258.689 202.748 259.617 202.844 260.496 202.797L260.496 202.797C261.894 202.72 263.104 202.336 264.109 201.636C265.113 200.936 265.855 199.973 266.332 198.759C266.708 197.799 266.844 196.886 266.73 196.03C266.619 195.183 266.34 194.405 265.903 193.689L265.903 193.688C265.469 192.983 264.948 192.346 264.34 191.779C263.738 191.218 263.13 190.723 262.516 190.291L262.506 190.284L264.945 184.068C265.344 184.372 265.673 184.715 265.936 185.094C266.386 185.745 266.567 186.438 266.484 187.183C266.436 187.615 266.694 188.019 267.093 188.176L267.105 188.18L268.779 188.837C269.334 189.055 269.958 188.728 270.08 188.144L270.08 188.143C270.258 187.274 270.237 186.41 270.014 185.552L270.014 185.552C269.714 184.4 269.1 183.353 268.183 182.408ZM261.92 182.787L259.773 188.259C259.7 188.197 259.627 188.135 259.553 188.07C259.179 187.744 258.852 187.391 258.568 187.011C258.292 186.641 258.11 186.243 258.022 185.819L258.022 185.819L258.021 185.817C257.932 185.409 257.977 184.974 258.16 184.507C258.378 183.953 258.728 183.527 259.221 183.22C259.716 182.913 260.311 182.744 261.018 182.725C261.307 182.717 261.608 182.737 261.92 182.787ZM258.98 199.272L261.189 193.642C261.448 193.863 261.688 194.083 261.911 194.302C262.391 194.781 262.723 195.269 262.909 195.77L262.909 195.77C263.088 196.248 263.072 196.774 262.844 197.355C262.592 197.995 262.186 198.475 261.625 198.798C261.053 199.124 260.381 199.296 259.597 199.302C259.394 199.304 259.189 199.294 258.98 199.272Z" fill="#000223" stroke="#000223" stroke-width="0.388993"/>
</g>
<path d="M216.167 69.7281C231.81 62.475 238.617 43.926 231.371 28.2978C224.125 12.6696 205.57 5.8802 189.926 13.1333C174.283 20.3863 167.476 38.9353 174.722 54.5635C181.968 70.1917 200.523 76.9811 216.167 69.7281Z" fill="#FBBE7E" stroke="#FBBE7E" stroke-width="1.16698" stroke-miterlimit="10"/>
<g clip-path="url(#clip1_714_11374)">
<rect width="19.3068" height="31.4741" transform="translate(187.454 31.7534) rotate(-24.8748)" fill="#FBBE7E"/>
<path d="M202.111 29.8816C201.304 29.8877 200.475 30.0177 199.634 30.2653L198.938 28.7643C198.714 28.2808 198.141 28.0752 197.657 28.2996L196.433 28.8673C195.949 29.0916 195.735 29.6621 195.959 30.1455L196.646 31.6256C195.852 32.1309 195.165 32.7146 194.586 33.3763C193.696 34.3901 193.128 35.5038 192.885 36.7105C192.642 37.9245 192.803 39.14 193.361 40.3446C194.039 41.8065 195.086 42.7632 196.498 43.1978C197.89 43.6258 199.524 43.6753 201.393 43.3523L202.032 43.2424L205.017 49.6812C204.681 49.7688 204.347 49.8283 204.016 49.8604C203.272 49.9295 202.596 49.8254 201.981 49.5507C201.527 49.3458 201.134 49.033 200.805 48.6043C200.529 48.2428 200.031 48.1545 199.634 48.3386L197.925 49.1311C197.379 49.3845 197.193 50.0669 197.535 50.5601C198.109 51.3953 198.816 52.0527 199.648 52.526C200.729 53.1413 201.959 53.429 203.336 53.3914C204.338 53.3641 205.352 53.1708 206.453 52.7784L207.096 54.1647C207.32 54.6481 207.893 54.8537 208.377 54.6294L209.602 54.0617C210.085 53.8373 210.299 53.2669 210.075 52.7835L209.406 51.3415C210.255 50.7986 210.966 50.194 211.539 49.5263L211.539 49.5262C212.449 48.4628 213.008 47.3223 213.196 46.1122C213.384 44.9026 213.201 43.7006 212.652 42.5173C212.218 41.5819 211.652 40.8526 210.955 40.3438C210.265 39.8394 209.51 39.5025 208.69 39.3241L208.69 39.3239C207.88 39.1503 207.06 39.0873 206.23 39.1348C205.409 39.1819 204.631 39.2794 203.894 39.4249L203.882 39.4271L201.073 33.3691C201.569 33.2913 202.044 33.2896 202.5 33.3618C203.281 33.4864 203.908 33.8343 204.389 34.4094C204.667 34.7423 205.138 34.8347 205.527 34.6544L205.538 34.6493L207.17 33.8928C207.711 33.6418 207.906 32.9649 207.568 32.4733L207.568 32.4728C207.063 31.7438 206.423 31.1619 205.648 30.7302L205.648 30.7302C204.608 30.151 203.428 29.8717 202.111 29.8816ZM198.058 34.6713L200.53 40.0037C200.435 40.0142 200.339 40.024 200.241 40.0332C199.747 40.077 199.266 40.0696 198.795 40.0125C198.337 39.9569 197.923 39.8132 197.556 39.5841L197.556 39.5841L197.554 39.5832C197.198 39.3656 196.914 39.033 196.703 38.578C196.453 38.0378 196.387 37.4897 196.506 36.9222C196.625 36.3513 196.915 35.8049 197.389 35.28C197.583 35.0655 197.806 34.8625 198.058 34.6713ZM207.944 48.1868L205.4 42.7002C205.738 42.6653 206.063 42.6433 206.376 42.6339C207.054 42.6175 207.636 42.715 208.126 42.9265L208.126 42.9268C208.595 43.1272 208.964 43.5026 209.227 44.0687C209.516 44.693 209.582 45.3187 209.428 45.9474C209.269 46.5857 208.929 47.1904 208.391 47.7616C208.252 47.9091 208.103 48.0508 207.944 48.1868Z" fill="#000223" stroke="#000223" stroke-width="0.388993"/>
</g>
<g filter="url(#filter0_b_714_11374)">
<g clip-path="url(#clip2_714_11374)">
<rect x="56.85" y="75.3374" width="172.427" height="277.577" rx="14.9503" transform="rotate(-8.30997 56.85 75.3374)" fill="url(#paint1_radial_714_11374)"/>
<g filter="url(#filter1_bf_714_11374)">
<rect x="106.997" y="266.947" width="129.071" height="29.9006" rx="8.41359" transform="rotate(-8.30997 106.997 266.947)" fill="white" fill-opacity="0.06"/>
</g>
<g filter="url(#filter2_b_714_11374)">
<g clip-path="url(#clip3_714_11374)">
<rect x="100.836" y="301.59" width="149.781" height="30.9602" rx="8.41359" transform="rotate(-8.30997 100.836 301.59)" fill="url(#paint2_linear_714_11374)"/>
<path d="M145.289 306.458L146.553 315.105L144.818 315.359L143.997 309.734L142.501 315.697L141.188 315.889L138.037 310.604L138.859 316.229L137.124 316.482L135.861 307.835L137.831 307.547L141.521 313.575L143.332 306.743L145.289 306.458ZM147.564 311.427C147.463 310.733 147.509 310.098 147.704 309.521C147.906 308.943 148.221 308.476 148.65 308.118C149.087 307.759 149.598 307.536 150.185 307.451C150.697 307.376 151.158 307.414 151.568 307.565C151.986 307.715 152.334 307.93 152.611 308.21L152.468 307.231L154.215 306.976L155.218 313.84L153.471 314.095L153.324 313.091C153.148 313.446 152.878 313.76 152.513 314.032C152.155 314.295 151.72 314.464 151.208 314.539C150.629 314.624 150.079 314.552 149.557 314.325C149.042 314.096 148.606 313.734 148.246 313.238C147.894 312.733 147.667 312.129 147.564 311.427ZM152.97 310.663C152.908 310.242 152.773 309.894 152.564 309.621C152.355 309.34 152.098 309.141 151.794 309.025C151.489 308.901 151.176 308.862 150.853 308.909C150.531 308.956 150.245 309.078 149.996 309.275C149.746 309.472 149.557 309.736 149.428 310.067C149.306 310.388 149.276 310.755 149.336 311.168C149.396 311.581 149.532 311.933 149.743 312.222C149.961 312.503 150.218 312.705 150.515 312.831C150.82 312.955 151.13 312.994 151.443 312.948C151.765 312.901 152.055 312.779 152.313 312.581C152.57 312.375 152.759 312.111 152.881 311.789C153.002 311.46 153.031 311.084 152.97 310.663ZM159.802 313.284C159.241 313.366 158.722 313.34 158.247 313.207C157.771 313.066 157.376 312.841 157.061 312.533C156.754 312.223 156.558 311.86 156.471 311.442L158.218 311.187C158.29 311.446 158.45 311.647 158.698 311.787C158.955 311.927 159.252 311.972 159.591 311.923C159.921 311.875 160.168 311.771 160.33 311.612C160.501 311.452 160.571 311.269 160.541 311.063C160.508 310.84 160.369 310.691 160.122 310.618C159.882 310.535 159.504 310.463 158.989 310.404C158.459 310.355 158.019 310.288 157.67 310.204C157.328 310.119 157.018 309.958 156.738 309.72C156.467 309.481 156.298 309.131 156.231 308.668C156.175 308.288 156.232 307.926 156.401 307.58C156.578 307.234 156.855 306.94 157.234 306.7C157.62 306.457 158.09 306.296 158.643 306.215C159.461 306.096 160.144 306.207 160.691 306.549C161.238 306.882 161.586 307.392 161.737 308.079L160.077 308.321C160.013 308.052 159.866 307.855 159.636 307.728C159.414 307.592 159.133 307.548 158.795 307.598C158.481 307.644 158.246 307.737 158.089 307.878C157.941 308.018 157.882 308.191 157.912 308.397C157.946 308.629 158.087 308.789 158.337 308.879C158.585 308.961 158.962 309.028 159.467 309.081C159.981 309.133 160.408 309.201 160.75 309.286C161.091 309.371 161.398 309.537 161.67 309.784C161.949 310.022 162.126 310.367 162.201 310.82C162.259 311.217 162.199 311.588 162.022 311.935C161.853 312.28 161.576 312.573 161.189 312.816C160.81 313.048 160.348 313.204 159.802 313.284ZM166.801 312.262C166.24 312.344 165.721 312.318 165.246 312.185C164.77 312.044 164.375 311.819 164.06 311.51C163.753 311.201 163.556 310.837 163.47 310.42L165.217 310.165C165.289 310.424 165.449 310.624 165.697 310.765C165.954 310.905 166.251 310.95 166.59 310.9C166.92 310.852 167.167 310.749 167.329 310.59C167.5 310.43 167.57 310.247 167.54 310.04C167.507 309.817 167.367 309.669 167.121 309.596C166.881 309.513 166.503 309.441 165.988 309.381C165.458 309.332 165.018 309.266 164.669 309.182C164.327 309.097 164.017 308.935 163.737 308.698C163.466 308.459 163.297 308.108 163.229 307.646C163.174 307.266 163.231 306.903 163.4 306.558C163.577 306.212 163.854 305.918 164.233 305.677C164.619 305.435 165.089 305.274 165.642 305.193C166.46 305.074 167.143 305.185 167.69 305.527C168.237 305.86 168.585 306.37 168.736 307.057L167.076 307.299C167.012 307.03 166.865 306.832 166.635 306.706C166.413 306.569 166.132 306.526 165.794 306.575C165.48 306.621 165.245 306.715 165.088 306.856C164.94 306.995 164.881 307.169 164.911 307.375C164.945 307.606 165.086 307.767 165.336 307.857C165.584 307.939 165.96 308.006 166.466 308.059C166.98 308.11 167.407 308.179 167.748 308.264C168.09 308.349 168.397 308.515 168.669 308.762C168.948 309 169.125 309.345 169.2 309.798C169.258 310.194 169.198 310.566 169.021 310.912C168.852 311.258 168.575 311.551 168.188 311.793C167.809 312.026 167.346 312.182 166.801 312.262ZM179.791 304.151C179.859 304.614 179.811 305.064 179.647 305.501C179.491 305.937 179.196 306.313 178.761 306.63C178.335 306.945 177.767 307.155 177.056 307.259L175.607 307.47L176.092 310.791L174.357 311.044L173.094 302.396L176.278 301.931C176.947 301.834 177.534 301.866 178.039 302.028C178.543 302.191 178.941 302.458 179.231 302.829C179.53 303.198 179.716 303.639 179.791 304.151ZM176.778 305.869C177.257 305.799 177.596 305.64 177.796 305.392C177.995 305.135 178.065 304.808 178.007 304.412C177.884 303.569 177.352 303.217 176.41 303.354L175.035 303.555L175.402 306.07L176.778 305.869ZM181.192 306.515C181.091 305.822 181.137 305.186 181.331 304.61C181.533 304.032 181.849 303.564 182.278 303.206C182.714 302.847 183.226 302.625 183.812 302.539C184.324 302.464 184.786 302.502 185.196 302.653C185.614 302.803 185.962 303.018 186.239 303.298L186.096 302.319L187.843 302.064L188.845 308.928L187.098 309.183L186.952 308.179C186.776 308.534 186.505 308.848 186.14 309.12C185.782 309.384 185.347 309.553 184.835 309.627C184.257 309.712 183.707 309.64 183.184 309.413C182.67 309.184 182.233 308.822 181.874 308.326C181.522 307.821 181.294 307.217 181.192 306.515ZM186.597 305.751C186.536 305.33 186.401 304.983 186.192 304.709C185.982 304.428 185.725 304.229 185.422 304.113C185.117 303.989 184.803 303.951 184.481 303.998C184.159 304.045 183.873 304.167 183.623 304.363C183.374 304.56 183.184 304.824 183.056 305.155C182.934 305.476 182.903 305.844 182.964 306.257C183.024 306.67 183.16 307.021 183.371 307.311C183.589 307.591 183.846 307.794 184.143 307.919C184.448 308.043 184.757 308.082 185.071 308.037C185.393 307.99 185.683 307.867 185.941 307.669C186.198 307.463 186.387 307.199 186.509 306.878C186.629 306.548 186.659 306.172 186.597 305.751ZM196.351 300.821L193.578 311.552L191.732 311.821L192.719 308.185L188.992 301.896L190.937 301.612L193.409 306.148L194.505 301.091L196.351 300.821ZM201.6 307.179C200.939 307.275 200.324 307.218 199.753 307.006C199.181 306.786 198.703 306.429 198.319 305.937C197.943 305.444 197.704 304.846 197.601 304.144C197.499 303.442 197.561 302.8 197.788 302.219C198.024 301.636 198.389 301.161 198.883 300.793C199.377 300.417 199.954 300.181 200.615 300.085C201.275 299.988 201.896 300.05 202.476 300.268C203.055 300.479 203.537 300.831 203.921 301.323C204.313 301.814 204.561 302.41 204.663 303.112C204.766 303.814 204.695 304.457 204.451 305.041C204.216 305.624 203.847 306.104 203.346 306.481C202.851 306.848 202.269 307.081 201.6 307.179ZM201.379 305.667C201.693 305.621 201.976 305.504 202.227 305.316C202.484 305.118 202.674 304.854 202.794 304.524C202.915 304.194 202.943 303.811 202.879 303.373C202.784 302.72 202.537 302.246 202.14 301.95C201.749 301.644 201.306 301.528 200.811 301.6C200.315 301.672 199.924 301.911 199.637 302.315C199.357 302.711 199.265 303.234 199.361 303.887C199.456 304.539 199.691 305.02 200.065 305.328C200.446 305.626 200.884 305.74 201.379 305.667ZM212.162 298.512L213.164 305.376L211.417 305.631L211.291 304.764C211.111 305.094 210.852 305.372 210.514 305.598C210.183 305.815 209.807 305.955 209.386 306.016C208.849 306.095 208.358 306.053 207.912 305.89C207.465 305.719 207.09 305.432 206.787 305.029C206.49 304.617 206.297 304.105 206.208 303.494L205.62 299.468L207.355 299.214L207.907 302.993C207.986 303.538 208.184 303.939 208.5 304.197C208.815 304.446 209.208 304.536 209.678 304.468C210.157 304.398 210.512 304.198 210.742 303.869C210.972 303.532 211.046 303.091 210.967 302.546L210.415 298.767L212.162 298.512ZM216.348 299.356L216.833 302.676C216.867 302.907 216.945 303.069 217.069 303.161C217.199 303.243 217.396 303.265 217.66 303.226L218.465 303.108L218.679 304.57L217.589 304.73C216.127 304.943 215.292 304.339 215.085 302.919L214.601 299.611L213.784 299.73L213.576 298.306L214.393 298.186L214.145 296.489L215.892 296.234L216.14 297.931L217.676 297.707L217.885 299.131L216.348 299.356Z" fill="white"/>
</g>
</g>
<g filter="url(#filter3_b_714_11374)">
<g clip-path="url(#clip4_714_11374)">
<rect x="73.1725" y="111.229" width="149.503" height="85.7151" rx="9.96687" transform="rotate(-8.30997 73.1725 111.229)" fill="white" fill-opacity="0.1"/>
<g filter="url(#filter4_b_714_11374)">
<rect x="83.428" y="122.826" width="22.807" height="22.807" rx="11.4035" transform="rotate(-8.30997 83.428 122.826)" fill="url(#paint3_linear_714_11374)"/>
<g clip-path="url(#clip5_714_11374)">
<path d="M92.4221 131.443C91.313 130.836 90.6205 129.707 90.3891 128.71C90.3533 128.552 90.1996 128.479 90.0596 128.5C89.9569 128.515 89.8614 128.579 89.8207 128.692C89.083 130.758 89.8725 133.334 91.1778 134.219C91.3372 133.417 91.6683 132.593 92.1471 131.846C92.2351 131.708 92.327 131.576 92.4225 131.446L92.4221 131.443ZM101.554 126.978C101.482 126.882 101.372 126.848 101.27 126.863C101.126 126.883 101.003 126.994 101.011 127.159C101.074 128.18 100.734 129.463 99.845 130.362C99.9736 130.459 100.1 130.56 100.223 130.666C100.896 131.246 101.449 131.94 101.831 132.663C102.828 131.442 102.849 128.75 101.554 126.978ZM97.7397 130.093L98.3303 134.137L101.436 133.683C100.911 132.176 99.4538 130.621 97.7397 130.093ZM94.9567 134.629L94.3661 130.586C92.8742 131.579 91.9257 133.486 91.8507 135.083L94.9567 134.629ZM101.656 134.385L91.8405 135.818C91.6631 135.844 91.5395 135.999 91.5637 136.165L91.7562 137.482C91.7804 137.648 91.9431 137.761 92.1205 137.735L101.933 136.302C102.111 136.276 102.234 136.121 102.21 135.955L102.017 134.638C101.993 134.472 101.831 134.359 101.653 134.385L101.656 134.385ZM96.9302 129.926C96.6235 129.894 96.3095 129.898 95.9951 129.944C95.6808 129.99 95.3818 130.075 95.094 130.195L95.7249 134.514L97.558 134.246L96.9271 129.927L96.9302 129.926Z" fill="white"/>
</g>
</g>
<g filter="url(#filter5_b_714_11374)">
<rect x="103.33" y="131.502" width="11.4619" height="11.4619" rx="5.73095" transform="rotate(-8.30997 103.33 131.502)" fill="white"/>
</g>
<path d="M125.216 125.457C124.996 125.164 124.722 124.957 124.394 124.835C124.066 124.713 123.699 124.681 123.294 124.74C122.846 124.806 122.463 124.965 122.145 125.218C121.828 125.472 121.599 125.801 121.459 126.205C121.318 126.61 121.284 127.058 121.356 127.55C121.43 128.056 121.592 128.483 121.842 128.83C122.099 129.177 122.42 129.426 122.804 129.576C123.188 129.727 123.615 129.768 124.085 129.699C124.664 129.615 125.115 129.394 125.44 129.036C125.763 128.671 125.943 128.206 125.978 127.639L123.374 128.019L123.205 126.859L127.306 126.26L127.499 127.583C127.475 128.126 127.329 128.646 127.062 129.143C126.795 129.64 126.417 130.064 125.929 130.416C125.448 130.76 124.881 130.979 124.231 131.074C123.5 131.181 122.815 131.115 122.174 130.876C121.54 130.629 121.01 130.237 120.584 129.701C120.166 129.164 119.902 128.523 119.794 127.778C119.685 127.033 119.754 126.343 120.001 125.709C120.254 125.066 120.65 124.539 121.188 124.128C121.733 123.709 122.367 123.447 123.09 123.341C123.943 123.216 124.715 123.318 125.406 123.645C126.095 123.966 126.614 124.484 126.963 125.202L125.216 125.457ZM134.057 123.434L134.935 129.444L133.405 129.668L133.294 128.908C133.137 129.197 132.91 129.441 132.614 129.639C132.324 129.829 131.995 129.951 131.626 130.005C131.156 130.074 130.726 130.037 130.336 129.894C129.945 129.745 129.616 129.494 129.35 129.141C129.091 128.78 128.922 128.332 128.844 127.797L128.329 124.271L129.848 124.049L130.331 127.358C130.401 127.835 130.574 128.187 130.851 128.412C131.126 128.63 131.47 128.709 131.882 128.649C132.302 128.588 132.613 128.413 132.814 128.125C133.015 127.83 133.08 127.444 133.011 126.967L132.527 123.658L134.057 123.434ZM136.438 122.355C136.17 122.394 135.934 122.344 135.729 122.204C135.53 122.056 135.412 121.855 135.375 121.602C135.338 121.349 135.394 121.126 135.544 120.935C135.699 120.735 135.911 120.615 136.178 120.576C136.446 120.537 136.679 120.592 136.878 120.74C137.083 120.88 137.204 121.076 137.241 121.329C137.278 121.583 137.219 121.809 137.063 122.009C136.914 122.201 136.706 122.316 136.438 122.355ZM137.291 122.962L138.169 128.972L136.65 129.194L135.772 123.184L137.291 122.962ZM140.233 120.471L141.405 128.499L139.887 128.721L138.714 120.693L140.233 120.471ZM142.29 125.279C142.202 124.671 142.242 124.115 142.412 123.61C142.589 123.104 142.869 122.694 143.252 122.379C143.634 122.065 144.082 121.87 144.596 121.795C144.986 121.738 145.371 121.771 145.751 121.892C146.13 122.007 146.445 122.19 146.696 122.441L146.279 119.588L147.819 119.363L148.992 127.391L147.451 127.616L147.321 126.727C147.177 127.051 146.948 127.328 146.634 127.558C146.321 127.789 145.94 127.937 145.491 128.002C144.985 128.076 144.503 128.014 144.046 127.814C143.588 127.615 143.202 127.299 142.888 126.865C142.579 126.422 142.38 125.893 142.29 125.279ZM147.023 124.61C146.969 124.241 146.851 123.937 146.669 123.697C146.485 123.451 146.26 123.277 145.994 123.175C145.727 123.067 145.452 123.033 145.17 123.074C144.888 123.115 144.638 123.222 144.419 123.394C144.201 123.567 144.035 123.798 143.922 124.087C143.816 124.369 143.789 124.69 143.842 125.052C143.894 125.414 144.013 125.721 144.198 125.975C144.389 126.22 144.614 126.398 144.874 126.508C145.141 126.617 145.412 126.651 145.687 126.611C145.969 126.57 146.223 126.462 146.449 126.289C146.673 126.108 146.839 125.877 146.946 125.596C147.051 125.307 147.077 124.978 147.023 124.61ZM162.51 117.683L161.5 125.564L159.71 125.826L157.502 120.641L156.803 126.25L155.025 126.521L151.878 119.236L153.506 118.998L155.699 124.683L156.38 118.578L158.073 118.331L160.381 123.966L160.872 117.922L162.51 117.683ZM163.992 122.109C163.903 121.501 163.944 120.945 164.114 120.44C164.291 119.934 164.567 119.525 164.942 119.211C165.325 118.897 165.773 118.702 166.286 118.627C166.735 118.562 167.139 118.595 167.498 118.727C167.864 118.858 168.169 119.047 168.411 119.292L168.286 118.435L169.816 118.211L170.693 124.221L169.164 124.445L169.035 123.566C168.881 123.877 168.645 124.151 168.325 124.39C168.011 124.621 167.63 124.768 167.182 124.834C166.676 124.908 166.194 124.845 165.736 124.646C165.286 124.446 164.904 124.129 164.589 123.695C164.281 123.252 164.082 122.724 163.992 122.109ZM168.725 121.44C168.671 121.071 168.553 120.767 168.37 120.528C168.186 120.281 167.961 120.107 167.696 120.006C167.428 119.897 167.154 119.863 166.872 119.904C166.59 119.946 166.34 120.052 166.121 120.225C165.902 120.397 165.737 120.628 165.624 120.918C165.517 121.199 165.49 121.521 165.543 121.882C165.596 122.244 165.715 122.552 165.9 122.805C166.091 123.051 166.316 123.228 166.576 123.338C166.843 123.447 167.114 123.481 167.388 123.441C167.671 123.4 167.924 123.293 168.15 123.119C168.375 122.939 168.541 122.708 168.647 122.426C168.753 122.137 168.779 121.809 168.725 121.44ZM172.74 115.723L173.913 123.751L172.394 123.973L171.221 115.945L172.74 115.723ZM175.976 115.251L177.149 123.278L175.63 123.5L174.458 115.472L175.976 115.251ZM183.995 119.076C184.027 119.293 184.041 119.491 184.038 119.669L179.644 120.31C179.744 120.739 179.945 121.057 180.249 121.263C180.552 121.47 180.899 121.545 181.29 121.488C181.854 121.406 182.22 121.105 182.388 120.585L184.026 120.346C183.937 120.95 183.674 121.476 183.237 121.924C182.799 122.365 182.222 122.637 181.506 122.742C180.927 122.826 180.388 122.776 179.888 122.59C179.395 122.396 178.983 122.084 178.654 121.651C178.333 121.218 178.127 120.694 178.037 120.08C177.946 119.458 177.993 118.893 178.177 118.386C178.362 117.879 178.663 117.466 179.082 117.146C179.501 116.826 180.007 116.623 180.6 116.536C181.171 116.453 181.699 116.501 182.183 116.682C182.675 116.861 183.077 117.161 183.389 117.58C183.708 117.992 183.91 118.491 183.995 119.076ZM182.359 118.872C182.295 118.483 182.108 118.192 181.8 118.001C181.49 117.802 181.136 117.732 180.738 117.79C180.362 117.845 180.061 118.008 179.834 118.277C179.614 118.538 179.505 118.875 179.506 119.289L182.359 118.872ZM186.852 116.997L187.276 119.905C187.306 120.107 187.374 120.248 187.482 120.329C187.596 120.401 187.769 120.42 188 120.386L188.705 120.283L188.892 121.563L187.938 121.703C186.658 121.89 185.927 121.361 185.745 120.117L185.322 117.221L184.606 117.325L184.424 116.078L185.14 115.973L184.923 114.487L186.452 114.263L186.669 115.75L188.015 115.553L188.197 116.801L186.852 116.997Z" fill="white"/>
<path d="M93.2088 159.213C93.0234 158.914 92.774 158.695 92.4608 158.556C92.1515 158.412 91.8048 158.369 91.4207 158.425C91.0598 158.477 90.748 158.608 90.4855 158.816C90.2229 159.025 90.031 159.296 89.9097 159.631C89.7877 159.96 89.7565 160.329 89.8159 160.736C89.8754 161.143 90.0111 161.49 90.223 161.775C90.4348 162.061 90.6964 162.266 91.0076 162.391C91.3188 162.516 91.6549 162.552 92.0158 162.499C92.3536 162.45 92.6462 162.334 92.8937 162.151C93.145 161.963 93.3321 161.723 93.4549 161.431C93.5816 161.134 93.6301 160.803 93.6005 160.439L91.5599 160.737L91.5021 160.341L94.0564 159.968L94.1081 160.322C94.1471 160.751 94.0879 161.154 93.9304 161.532C93.7721 161.905 93.5317 162.216 93.2091 162.466C92.8911 162.716 92.5147 162.873 92.0797 162.936C91.6308 163.002 91.2084 162.957 90.8125 162.802C90.4158 162.643 90.0837 162.391 89.8161 162.048C89.5524 161.699 89.3858 161.286 89.3162 160.809C89.2466 160.332 89.2885 159.892 89.442 159.486C89.5994 159.076 89.8457 158.74 90.1809 158.478C90.5153 158.212 90.907 158.046 91.3558 157.98C91.8741 157.905 92.3465 157.968 92.773 158.17C93.1996 158.373 93.5346 158.692 93.778 159.13L93.2088 159.213ZM98.1909 158.123L98.7444 161.913L98.2585 161.984L98.1612 161.318C98.0846 161.57 97.9398 161.775 97.7267 161.934C97.5135 162.093 97.2635 162.193 96.9766 162.235C96.5232 162.301 96.1327 162.217 95.8053 161.981C95.4772 161.741 95.2742 161.354 95.1965 160.822L94.8731 158.608L95.352 158.538L95.6673 160.697C95.7275 161.109 95.8752 161.408 96.1106 161.596C96.3506 161.783 96.6487 161.851 97.005 161.799C97.3706 161.745 97.6452 161.587 97.8289 161.324C98.0126 161.061 98.0717 160.705 98.0061 160.256L97.705 158.194L98.1909 158.123ZM99.5774 157.191C99.4803 157.205 99.3919 157.182 99.3124 157.123C99.2328 157.064 99.1856 156.983 99.1707 156.881C99.1559 156.78 99.1784 156.691 99.2384 156.616C99.2976 156.537 99.3758 156.49 99.473 156.476C99.5702 156.462 99.6586 156.484 99.7381 156.543C99.817 156.598 99.8638 156.676 99.8787 156.778C99.8936 156.88 99.8714 156.971 99.8121 157.05C99.7528 157.13 99.6746 157.177 99.5774 157.191ZM99.9248 157.87L100.478 161.66L99.9925 161.731L99.4389 157.941L99.9248 157.87ZM101.453 156.272L102.203 161.408L101.717 161.479L100.967 156.343L101.453 156.272ZM102.942 159.358C102.886 158.969 102.915 158.617 103.029 158.303C103.143 157.984 103.326 157.726 103.576 157.528C103.83 157.326 104.13 157.199 104.477 157.149C104.81 157.1 105.123 157.137 105.415 157.26C105.707 157.382 105.934 157.564 106.097 157.805L105.781 155.64L106.267 155.569L107.017 160.705L106.531 160.776L106.407 159.929C106.33 160.21 106.172 160.455 105.933 160.665C105.694 160.87 105.396 160.998 105.04 161.05C104.693 161.101 104.369 161.066 104.067 160.944C103.771 160.822 103.522 160.625 103.322 160.351C103.126 160.078 102.999 159.746 102.942 159.358ZM106.254 158.881C106.21 158.576 106.108 158.316 105.949 158.103C105.791 157.89 105.593 157.737 105.358 157.644C105.126 157.55 104.881 157.522 104.622 157.56C104.354 157.599 104.122 157.694 103.927 157.846C103.731 157.997 103.588 158.198 103.497 158.447C103.41 158.691 103.389 158.971 103.435 159.286C103.481 159.596 103.581 159.86 103.735 160.078C103.894 160.291 104.089 160.445 104.32 160.539C104.551 160.628 104.8 160.653 105.068 160.614C105.327 160.576 105.554 160.479 105.749 160.323C105.948 160.166 106.093 159.963 106.184 159.713C106.276 159.464 106.299 159.186 106.254 158.881ZM112.212 157.387C112.493 157.398 112.744 157.503 112.967 157.702C113.19 157.901 113.323 158.151 113.367 158.452C113.403 158.697 113.373 158.928 113.277 159.145C113.185 159.357 113.03 159.538 112.811 159.688C112.591 159.834 112.317 159.931 111.988 159.979L110.308 160.224L109.6 155.372L111.231 155.134C111.721 155.062 112.11 155.121 112.398 155.311C112.69 155.5 112.863 155.775 112.916 156.136C112.959 156.437 112.914 156.694 112.78 156.907C112.645 157.116 112.456 157.276 112.212 157.387ZM110.399 157.446L111.53 157.281C111.859 157.233 112.1 157.12 112.253 156.941C112.411 156.758 112.47 156.529 112.43 156.256C112.391 155.988 112.27 155.791 112.067 155.664C111.869 155.537 111.598 155.499 111.256 155.549L110.145 155.711L110.399 157.446ZM111.894 159.574C112.245 159.523 112.506 159.4 112.676 159.205C112.851 159.009 112.917 158.766 112.874 158.474C112.832 158.183 112.694 157.966 112.461 157.826C112.231 157.679 111.943 157.632 111.596 157.682L110.458 157.849L110.734 159.744L111.894 159.574ZM114.089 157.73C114.032 157.341 114.059 156.99 114.169 156.676C114.283 156.357 114.465 156.098 114.715 155.901C114.969 155.699 115.27 155.572 115.617 155.521C115.978 155.469 116.3 155.507 116.583 155.635C116.871 155.764 117.092 155.949 117.246 156.191L117.124 155.358L117.61 155.287L118.163 159.077L117.677 159.148L117.555 158.308C117.472 158.585 117.312 158.828 117.073 159.038C116.838 159.242 116.54 159.371 116.179 159.423C115.837 159.473 115.515 159.438 115.214 159.316C114.917 159.194 114.669 158.996 114.468 158.723C114.272 158.449 114.146 158.118 114.089 157.73ZM117.401 157.253C117.356 156.947 117.254 156.688 117.096 156.475C116.937 156.262 116.74 156.109 116.504 156.016C116.273 155.922 116.028 155.894 115.769 155.932C115.5 155.971 115.268 156.066 115.073 156.218C114.878 156.369 114.735 156.569 114.644 156.819C114.556 157.063 114.536 157.343 114.582 157.658C114.627 157.968 114.727 158.232 114.882 158.45C115.04 158.663 115.235 158.817 115.467 158.911C115.697 159 115.946 159.025 116.215 158.986C116.474 158.948 116.701 158.851 116.895 158.695C117.095 158.538 117.24 158.335 117.331 158.085C117.422 157.836 117.445 157.558 117.401 157.253ZM119.147 153.687L119.897 158.824L119.411 158.895L118.661 153.758L119.147 153.687ZM120.636 156.773C120.58 156.384 120.606 156.033 120.716 155.719C120.83 155.4 121.013 155.142 121.263 154.945C121.517 154.742 121.817 154.616 122.164 154.565C122.525 154.512 122.847 154.55 123.131 154.679C123.419 154.807 123.64 154.992 123.793 155.235L123.671 154.402L124.157 154.331L124.711 158.12L124.225 158.191L124.102 157.352C124.02 157.628 123.859 157.871 123.621 158.081C123.386 158.286 123.088 158.414 122.727 158.467C122.384 158.517 122.063 158.481 121.761 158.36C121.465 158.238 121.216 158.04 121.015 157.767C120.82 157.493 120.693 157.162 120.636 156.773ZM123.948 156.297C123.904 155.991 123.802 155.732 123.643 155.519C123.484 155.306 123.287 155.153 123.052 155.059C122.82 154.965 122.575 154.937 122.316 154.975C122.048 155.015 121.816 155.11 121.621 155.261C121.425 155.413 121.282 155.613 121.191 155.863C121.104 156.107 121.083 156.387 121.129 156.701C121.174 157.011 121.275 157.275 121.429 157.494C121.588 157.707 121.783 157.86 122.014 157.954C122.244 158.044 122.494 158.069 122.762 158.029C123.021 157.992 123.248 157.895 123.443 157.739C123.642 157.582 123.787 157.379 123.878 157.129C123.97 156.879 123.993 156.602 123.948 156.297ZM127.172 153.819C127.626 153.753 128.016 153.84 128.344 154.081C128.672 154.316 128.874 154.7 128.952 155.232L129.277 157.454L128.798 157.524L128.481 155.358C128.421 154.946 128.271 154.647 128.031 154.46C127.796 154.272 127.5 154.204 127.144 154.256C126.778 154.309 126.503 154.468 126.32 154.731C126.136 154.994 126.077 155.35 126.143 155.799L126.445 157.867L125.959 157.938L125.405 154.148L125.891 154.077L125.985 154.723C126.072 154.474 126.22 154.273 126.429 154.119C126.637 153.961 126.885 153.861 127.172 153.819ZM129.991 155.414C129.934 155.021 129.962 154.667 130.077 154.352C130.191 154.033 130.375 153.775 130.63 153.577C130.884 153.374 131.189 153.247 131.546 153.195C132.013 153.127 132.414 153.186 132.748 153.374C133.088 153.56 133.33 153.846 133.476 154.231L132.956 154.307C132.851 154.044 132.679 153.852 132.439 153.731C132.203 153.604 131.926 153.565 131.606 153.611C131.352 153.648 131.131 153.74 130.945 153.885C130.758 154.031 130.621 154.228 130.535 154.477C130.452 154.72 130.435 155.009 130.484 155.342C130.533 155.675 130.632 155.949 130.781 156.163C130.935 156.377 131.123 156.527 131.343 156.613C131.564 156.699 131.801 156.723 132.056 156.686C132.375 156.639 132.63 156.524 132.82 156.34C133.015 156.151 133.124 155.913 133.148 155.626L133.669 155.55C133.638 155.952 133.487 156.293 133.216 156.573C132.945 156.854 132.578 157.028 132.115 157.096C131.759 157.148 131.431 157.115 131.13 156.999C130.829 156.877 130.578 156.682 130.378 156.414C130.178 156.14 130.049 155.807 129.991 155.414ZM138.009 154.044C138.034 154.211 138.048 154.339 138.051 154.428L134.907 154.887C134.963 155.172 135.068 155.407 135.223 155.593C135.377 155.778 135.564 155.909 135.783 155.986C136.002 156.058 136.231 156.076 136.472 156.041C136.787 155.995 137.039 155.88 137.23 155.696C137.425 155.512 137.538 155.285 137.57 155.016L138.083 154.941C138.045 155.325 137.89 155.657 137.619 155.937C137.352 156.213 136.99 156.384 136.532 156.451C136.175 156.503 135.845 156.471 135.539 156.354C135.233 156.234 134.978 156.039 134.774 155.772C134.573 155.498 134.444 155.165 134.387 154.772C134.329 154.379 134.358 154.022 134.472 153.703C134.586 153.384 134.772 153.125 135.032 152.927C135.291 152.728 135.601 152.602 135.962 152.55C136.323 152.497 136.649 152.53 136.94 152.648C137.236 152.765 137.476 152.948 137.658 153.195C137.845 153.437 137.962 153.72 138.009 154.044ZM137.514 154.102C137.478 153.819 137.385 153.587 137.235 153.406C137.091 153.224 136.909 153.097 136.691 153.025C136.472 152.953 136.243 152.934 136.002 152.969C135.641 153.022 135.35 153.183 135.13 153.451C134.909 153.72 134.815 154.067 134.849 154.492L137.514 154.102Z" fill="white"/>
<path d="M109.329 136.252L108.397 136.388L108.537 137.345L107.886 137.44L107.746 136.483L106.814 136.619L106.726 136.017L107.658 135.881L107.519 134.925L108.169 134.83L108.309 135.786L109.241 135.65L109.329 136.252ZM109.928 134.945C109.897 134.614 109.975 134.344 110.162 134.136C110.353 133.923 110.624 133.791 110.976 133.74C111.216 133.705 111.427 133.718 111.611 133.778C111.794 133.835 111.939 133.93 112.045 134.062C112.155 134.19 112.223 134.345 112.249 134.526C112.279 134.733 112.251 134.917 112.163 135.077C112.079 135.234 111.966 135.348 111.825 135.419L111.828 135.438C112.028 135.47 112.191 135.553 112.318 135.689C112.449 135.825 112.531 136.011 112.566 136.247C112.595 136.445 112.574 136.627 112.505 136.795C112.439 136.963 112.323 137.104 112.159 137.218C111.997 137.329 111.793 137.403 111.546 137.439C111.175 137.493 110.859 137.444 110.598 137.29C110.337 137.137 110.174 136.879 110.107 136.516L110.778 136.418C110.808 136.578 110.881 136.7 110.997 136.784C111.116 136.864 111.266 136.89 111.447 136.864C111.615 136.84 111.736 136.775 111.812 136.67C111.89 136.561 111.918 136.433 111.896 136.285C111.868 136.087 111.785 135.955 111.647 135.888C111.51 135.821 111.31 135.806 111.047 135.845L110.904 135.866L110.821 135.299L110.964 135.278C111.431 135.209 111.641 135.019 111.596 134.707C111.575 134.566 111.516 134.462 111.419 134.395C111.325 134.328 111.2 134.306 111.042 134.33C110.887 134.352 110.774 134.412 110.701 134.51C110.63 134.604 110.598 134.717 110.604 134.847L109.928 134.945Z" fill="#000223"/>
<path d="M100.362 178.357C100.439 178.885 100.375 179.403 100.169 179.91C99.9713 180.406 99.6308 180.844 99.1472 181.226C98.6722 181.596 98.0829 181.859 97.3794 182.013L97.5596 183.248L96.5845 183.39L96.4021 182.141C95.373 182.198 94.5109 182.012 93.8156 181.585C93.1189 181.147 92.6951 180.483 92.5443 179.592L94.8296 179.258C94.9973 179.981 95.4377 180.368 96.1506 180.419L95.7256 177.509C94.9676 177.433 94.3518 177.336 93.8781 177.219C93.4045 177.101 92.9756 176.863 92.5912 176.504C92.2068 176.145 91.9635 175.616 91.8611 174.915C91.732 174.031 91.9416 173.264 92.4897 172.613C93.048 171.961 93.824 171.521 94.8176 171.293L94.6374 170.059L95.6125 169.917L95.7927 171.151C96.7796 171.089 97.5997 171.271 98.2528 171.694C98.9161 172.116 99.3485 172.768 99.5502 173.652L97.2496 173.988C97.1761 173.698 97.0324 173.459 96.8184 173.273C96.6131 173.074 96.3565 172.951 96.0486 172.903L96.4692 175.782C97.2592 175.864 97.8859 175.964 98.3493 176.083C98.8214 176.191 99.2497 176.424 99.634 176.783C100.017 177.131 100.26 177.656 100.362 178.357ZM94.0699 174.483C94.1188 174.818 94.2605 175.078 94.4948 175.261C94.7276 175.435 95.0466 175.559 95.4519 175.635L95.0669 172.999C94.7086 173.104 94.4392 173.283 94.2585 173.538C94.0779 173.792 94.015 174.107 94.0699 174.483ZM97.1301 180.307C97.5057 180.18 97.7823 179.978 97.96 179.704C98.1479 179.427 98.2166 179.116 98.1661 178.771C98.1172 178.436 97.9712 178.182 97.7282 178.01C97.4853 177.838 97.1561 177.715 96.7407 177.641L97.1301 180.307ZM107.793 171.887C107.629 171.476 107.405 171.182 107.12 171.006C106.845 170.828 106.474 170.773 106.006 170.841C105.306 170.944 104.829 171.304 104.577 171.922C104.334 172.528 104.3 173.466 104.475 174.737C104.659 174.295 104.969 173.929 105.403 173.637C105.836 173.335 106.327 173.144 106.876 173.064C107.536 172.968 108.141 173.024 108.69 173.235C109.24 173.445 109.696 173.804 110.061 174.31C110.424 174.807 110.661 175.436 110.772 176.198C110.878 176.919 110.825 177.586 110.613 178.198C110.41 178.798 110.053 179.296 109.54 179.693C109.027 180.089 108.385 180.344 107.613 180.456C106.557 180.611 105.69 180.499 105.012 180.121C104.345 179.741 103.828 179.152 103.463 178.355C103.106 177.546 102.838 176.527 102.658 175.298C102.387 173.44 102.502 171.991 103.004 170.953C103.505 169.905 104.445 169.28 105.827 169.078C106.893 168.922 107.763 169.091 108.437 169.584C109.111 170.077 109.556 170.748 109.774 171.598L107.793 171.887ZM106.644 174.887C106.106 174.966 105.677 175.189 105.357 175.558C105.037 175.926 104.921 176.41 105.009 177.009C105.096 177.608 105.333 178.056 105.719 178.352C106.114 178.647 106.622 178.75 107.242 178.659C107.79 178.579 108.197 178.348 108.463 177.967C108.739 177.584 108.836 177.109 108.753 176.54C108.667 175.951 108.441 175.507 108.076 175.207C107.721 174.906 107.243 174.8 106.644 174.887ZM119.414 169.241L114.477 169.962L114.858 172.567C115.033 172.272 115.306 172.014 115.679 171.794C116.05 171.563 116.458 171.415 116.905 171.35C117.718 171.231 118.409 171.312 118.979 171.592C119.549 171.872 119.992 172.274 120.307 172.798C120.621 173.313 120.823 173.885 120.915 174.514C121.086 175.683 120.888 176.671 120.322 177.48C119.765 178.287 118.872 178.781 117.643 178.96C116.486 179.129 115.519 178.975 114.744 178.497C113.969 178.019 113.467 177.319 113.239 176.398L115.311 176.096C115.462 176.488 115.712 176.784 116.063 176.982C116.424 177.178 116.853 177.24 117.35 177.167C117.95 177.079 118.374 176.826 118.624 176.405C118.874 175.985 118.954 175.465 118.863 174.845C118.771 174.216 118.544 173.761 118.182 173.482C117.828 173.192 117.351 173.09 116.752 173.178C116.326 173.24 115.986 173.398 115.732 173.653C115.479 173.908 115.318 174.222 115.248 174.595L113.206 174.894L112.254 168.373L119.14 167.367L119.414 169.241ZM125.659 175.502L124.501 180.044L123.13 180.244L123.495 175.818L125.659 175.502ZM127.177 175.358L126.932 173.682L130.872 165.825L133.356 165.462L134.37 172.409L135.711 172.213L135.983 174.072L134.642 174.268L134.958 176.431L132.825 176.743L132.509 174.579L127.177 175.358ZM131.694 168.039L129.251 173.157L132.375 172.701L131.694 168.039ZM144.074 165.639L139.137 166.36L139.518 168.965C139.693 168.67 139.966 168.412 140.339 168.192C140.71 167.961 141.118 167.814 141.565 167.748C142.378 167.63 143.069 167.71 143.639 167.99C144.209 168.27 144.652 168.672 144.967 169.196C145.28 169.711 145.483 170.283 145.575 170.913C145.746 172.081 145.548 173.069 144.981 173.878C144.425 174.685 143.532 175.179 142.303 175.358C141.146 175.528 140.179 175.373 139.404 174.895C138.628 174.417 138.127 173.717 137.899 172.796L139.971 172.494C140.122 172.887 140.372 173.182 140.723 173.38C141.084 173.576 141.513 173.638 142.01 173.565C142.61 173.478 143.034 173.224 143.284 172.803C143.534 172.383 143.613 171.863 143.523 171.243C143.431 170.614 143.204 170.159 142.841 169.88C142.488 169.59 142.011 169.488 141.412 169.576C140.986 169.638 140.646 169.797 140.392 170.051C140.139 170.306 139.978 170.62 139.908 170.994L137.866 171.292L136.914 164.771L143.8 163.765L144.074 165.639ZM152.613 165.341C152.449 164.929 152.224 164.635 151.939 164.459C151.664 164.281 151.293 164.227 150.826 164.295C150.125 164.397 149.649 164.757 149.397 165.375C149.153 165.981 149.119 166.92 149.294 168.191C149.479 167.749 149.788 167.382 150.223 167.091C150.656 166.789 151.147 166.598 151.695 166.518C152.355 166.421 152.96 166.478 153.51 166.688C154.059 166.899 154.516 167.257 154.88 167.764C155.243 168.261 155.481 168.89 155.592 169.652C155.697 170.373 155.644 171.039 155.433 171.651C155.23 172.251 154.872 172.75 154.359 173.146C153.847 173.543 153.205 173.797 152.433 173.91C151.376 174.064 150.509 173.952 149.832 173.574C149.164 173.194 148.648 172.606 148.282 171.809C147.926 171 147.657 169.981 147.478 168.752C147.206 166.893 147.322 165.445 147.824 164.407C148.324 163.359 149.265 162.734 150.646 162.532C151.713 162.376 152.583 162.545 153.256 163.037C153.93 163.53 154.376 164.202 154.593 165.052L152.613 165.341ZM151.464 168.341C150.925 168.42 150.496 168.643 150.177 169.011C149.857 169.38 149.741 169.863 149.828 170.463C149.916 171.062 150.153 171.51 150.538 171.806C150.934 172.101 151.442 172.203 152.061 172.113C152.61 172.032 153.017 171.802 153.283 171.421C153.559 171.038 153.655 170.562 153.572 169.994C153.486 169.404 153.26 168.96 152.895 168.661C152.54 168.36 152.063 168.253 151.464 168.341ZM159.325 172.981C158.939 173.038 158.602 172.967 158.314 172.771C158.034 172.563 157.869 172.281 157.817 171.925C157.765 171.57 157.844 171.258 158.053 170.988C158.272 170.708 158.574 170.539 158.96 170.483C159.336 170.428 159.663 170.504 159.943 170.712C160.22 170.91 160.385 171.187 160.437 171.543C160.489 171.898 160.411 172.216 160.203 172.495C159.993 172.764 159.701 172.926 159.325 172.981ZM161.551 166.727C161.294 164.97 161.408 163.548 161.892 162.461C162.387 161.372 163.371 160.72 164.843 160.505C166.316 160.29 167.44 160.634 168.215 161.537C169 162.439 169.521 163.769 169.778 165.526C170.036 167.293 169.919 168.726 169.426 169.825C168.943 170.923 167.965 171.579 166.492 171.794C165.02 172.009 163.89 171.661 163.103 170.749C162.326 169.835 161.809 168.495 161.551 166.727ZM167.676 165.833C167.566 165.081 167.423 164.459 167.247 163.966C167.08 163.461 166.826 163.068 166.484 162.786C166.152 162.502 165.701 162.402 165.133 162.485C164.564 162.568 164.156 162.794 163.909 163.162C163.672 163.529 163.541 163.978 163.515 164.511C163.497 165.032 163.544 165.669 163.653 166.42C163.766 167.192 163.907 167.836 164.075 168.35C164.242 168.855 164.497 169.248 164.839 169.53C165.18 169.802 165.634 169.897 166.203 169.814C166.772 169.731 167.18 169.51 167.429 169.152C167.676 168.784 167.808 168.334 167.823 167.803C167.838 167.262 167.788 166.605 167.676 165.833ZM178.22 160.418L175.554 170.502L173.391 170.818L176.123 160.973L170.912 161.735L170.645 159.906L177.989 158.834L178.22 160.418Z" fill="white"/>
</g>
</g>
<g filter="url(#filter6_bf_714_11374)">
<rect x="99.6388" y="257.949" width="140.533" height="30.8973" rx="8.41359" transform="rotate(-8.30997 99.6388 257.949)" fill="white" fill-opacity="0.04"/>
</g>
<g clip-path="url(#clip6_714_11374)">
<rect x="86.7134" y="203.934" width="149.503" height="34.8841" rx="9.96687" transform="rotate(-8.30997 86.7134 203.934)" fill="white" fill-opacity="0.08"/>
<g filter="url(#filter7_b_714_11374)">
<rect x="96.7416" y="210.527" width="18.9371" height="18.9371" rx="9.46853" transform="rotate(-8.30997 96.7416 210.527)" fill="white"/>
<g clip-path="url(#clip7_714_11374)">
<path d="M104.209 217.683C103.288 217.179 102.713 216.242 102.521 215.414C102.491 215.283 102.364 215.222 102.248 215.239C102.162 215.252 102.083 215.305 102.049 215.399C101.437 217.114 102.092 219.253 103.176 219.988C103.308 219.322 103.583 218.638 103.981 218.018C104.054 217.903 104.13 217.794 104.21 217.686L104.209 217.683ZM111.791 213.976C111.732 213.896 111.641 213.867 111.555 213.88C111.437 213.897 111.334 213.989 111.341 214.126C111.393 214.974 111.111 216.039 110.373 216.786C110.479 216.866 110.584 216.95 110.687 217.038C111.245 217.519 111.704 218.096 112.021 218.696C112.85 217.682 112.866 215.447 111.791 213.976ZM108.624 216.562L109.115 219.92L111.694 219.543C111.258 218.292 110.048 217.001 108.624 216.562ZM106.314 220.329L105.823 216.972C104.585 217.796 103.797 219.379 103.735 220.705L106.314 220.329ZM111.876 220.125L103.726 221.316C103.579 221.337 103.476 221.466 103.496 221.603L103.656 222.698C103.676 222.835 103.811 222.929 103.959 222.907L112.106 221.717C112.254 221.696 112.356 221.567 112.336 221.43L112.176 220.336C112.156 220.198 112.021 220.104 111.874 220.126L111.876 220.125ZM107.952 216.424C107.698 216.397 107.437 216.4 107.176 216.439C106.915 216.477 106.667 216.547 106.428 216.646L106.952 220.233L108.474 220.011L107.95 216.424L107.952 216.424Z" fill="#000223"/>
</g>
</g>
<path d="M127.087 212.895L127.723 217.245C127.811 217.848 127.705 218.344 127.405 218.732C127.104 219.115 126.661 219.349 126.075 219.434C125.484 219.521 124.979 219.419 124.562 219.13C124.151 218.839 123.901 218.386 123.811 217.771L125.053 217.589C125.098 217.855 125.191 218.053 125.331 218.183C125.476 218.313 125.665 218.361 125.896 218.327C126.12 218.295 126.282 218.199 126.379 218.039C126.477 217.88 126.508 217.676 126.471 217.427L125.836 213.078L127.087 212.895ZM133.816 215.62C133.842 215.798 133.853 215.959 133.85 216.105L130.256 216.63C130.337 216.981 130.502 217.241 130.75 217.41C130.999 217.579 131.283 217.64 131.602 217.594C132.064 217.526 132.363 217.28 132.501 216.855L133.841 216.659C133.768 217.153 133.553 217.584 133.195 217.95C132.837 218.311 132.365 218.534 131.779 218.619C131.306 218.689 130.865 218.647 130.456 218.495C130.052 218.337 129.715 218.081 129.446 217.727C129.183 217.373 129.014 216.944 128.941 216.441C128.867 215.932 128.905 215.47 129.056 215.056C129.207 214.641 129.453 214.303 129.796 214.041C130.138 213.779 130.552 213.613 131.038 213.542C131.505 213.474 131.937 213.514 132.333 213.661C132.735 213.808 133.064 214.053 133.32 214.397C133.581 214.733 133.746 215.141 133.816 215.62ZM132.477 215.453C132.424 215.135 132.272 214.897 132.019 214.741C131.766 214.578 131.477 214.521 131.151 214.568C130.843 214.613 130.597 214.746 130.412 214.966C130.231 215.18 130.142 215.456 130.143 215.794L132.477 215.453ZM137.991 217.63L136.756 216.252L136.083 217.909L134.751 218.104L135.998 215.401L134.015 213.189L135.418 212.984L136.643 214.355L137.326 212.705L138.658 212.511L137.4 215.197L139.394 217.426L137.991 217.63ZM142.441 217.062C141.968 217.131 141.527 217.09 141.118 216.938C140.708 216.78 140.365 216.525 140.09 216.173C139.821 215.819 139.65 215.391 139.576 214.888C139.503 214.385 139.547 213.925 139.71 213.508C139.879 213.091 140.14 212.751 140.495 212.487C140.848 212.218 141.262 212.049 141.735 211.98C142.209 211.911 142.653 211.954 143.069 212.111C143.484 212.262 143.829 212.514 144.104 212.867C144.385 213.218 144.562 213.646 144.636 214.149C144.709 214.652 144.659 215.112 144.484 215.531C144.315 215.948 144.051 216.292 143.692 216.562C143.337 216.825 142.921 216.992 142.441 217.062ZM142.283 215.979C142.508 215.946 142.71 215.862 142.89 215.727C143.075 215.586 143.21 215.397 143.297 215.16C143.383 214.924 143.403 214.649 143.357 214.336C143.289 213.868 143.113 213.528 142.828 213.316C142.548 213.097 142.231 213.013 141.876 213.065C141.521 213.117 141.24 213.288 141.035 213.578C140.834 213.861 140.768 214.236 140.837 214.704C140.905 215.171 141.073 215.515 141.341 215.736C141.614 215.95 141.928 216.031 142.283 215.979ZM148.08 211.062C148.666 210.977 149.167 211.094 149.582 211.414C149.996 211.728 150.252 212.216 150.349 212.879L150.77 215.764L149.528 215.945L149.131 213.229C149.074 212.839 148.933 212.554 148.707 212.376C148.481 212.191 148.199 212.124 147.862 212.173C147.518 212.223 147.262 212.369 147.092 212.612C146.927 212.847 146.873 213.16 146.93 213.551L147.326 216.267L146.084 216.448L145.366 211.531L146.608 211.35L146.698 211.962C146.832 211.725 147.018 211.528 147.255 211.373C147.497 211.211 147.772 211.107 148.08 211.062Z" fill="white"/>
<path d="M202.503 206.221C202.565 206.65 202.513 207.071 202.346 207.484C202.185 207.887 201.908 208.244 201.515 208.554C201.129 208.855 200.649 209.069 200.077 209.194L200.224 210.198L199.431 210.314L199.283 209.298C198.446 209.344 197.745 209.193 197.179 208.846C196.613 208.49 196.268 207.95 196.146 207.225L198.004 206.954C198.14 207.541 198.498 207.856 199.078 207.898L198.733 205.531C198.116 205.47 197.615 205.391 197.23 205.295C196.845 205.2 196.496 205.006 196.184 204.714C195.871 204.422 195.673 203.992 195.59 203.422C195.485 202.703 195.655 202.079 196.101 201.55C196.555 201.02 197.186 200.662 197.994 200.477L197.848 199.473L198.641 199.357L198.787 200.361C199.59 200.311 200.256 200.458 200.788 200.802C201.327 201.145 201.679 201.676 201.843 202.395L199.972 202.668C199.912 202.432 199.795 202.238 199.621 202.086C199.454 201.925 199.246 201.825 198.995 201.786L199.337 204.127C199.98 204.194 200.489 204.275 200.866 204.372C201.25 204.459 201.598 204.649 201.911 204.941C202.222 205.224 202.419 205.651 202.503 206.221ZM197.386 203.071C197.426 203.343 197.541 203.554 197.732 203.704C197.921 203.845 198.18 203.946 198.51 204.008L198.197 201.864C197.906 201.949 197.686 202.095 197.54 202.302C197.393 202.509 197.341 202.765 197.386 203.071ZM199.875 207.807C200.18 207.703 200.405 207.539 200.55 207.316C200.702 207.091 200.758 206.838 200.717 206.557C200.677 206.285 200.559 206.079 200.361 205.939C200.163 205.799 199.896 205.699 199.558 205.639L199.875 207.807ZM208.546 200.96C208.412 200.625 208.23 200.386 207.998 200.243C207.774 200.098 207.473 200.054 207.093 200.109C206.523 200.193 206.135 200.485 205.93 200.988C205.732 201.481 205.705 202.244 205.847 203.277C205.997 202.918 206.249 202.62 206.602 202.383C206.955 202.137 207.354 201.982 207.8 201.917C208.337 201.838 208.828 201.885 209.275 202.056C209.722 202.226 210.093 202.518 210.39 202.93C210.685 203.334 210.878 203.846 210.968 204.465C211.054 205.052 211.011 205.594 210.839 206.091C210.674 206.579 210.383 206.985 209.966 207.307C209.549 207.629 209.027 207.836 208.399 207.928C207.54 208.054 206.835 207.963 206.284 207.655C205.741 207.346 205.321 206.868 205.024 206.219C204.734 205.562 204.516 204.733 204.37 203.734C204.149 202.222 204.243 201.044 204.651 200.2C205.058 199.348 205.823 198.84 206.947 198.675C207.814 198.549 208.521 198.686 209.069 199.087C209.617 199.488 209.979 200.034 210.156 200.725L208.546 200.96ZM207.611 203.399C207.174 203.463 206.825 203.645 206.565 203.945C206.305 204.244 206.21 204.637 206.282 205.125C206.353 205.612 206.545 205.976 206.859 206.217C207.181 206.457 207.593 206.54 208.097 206.467C208.543 206.401 208.874 206.214 209.091 205.904C209.315 205.593 209.394 205.206 209.326 204.743C209.256 204.264 209.073 203.903 208.775 203.66C208.487 203.415 208.099 203.328 207.611 203.399ZM217.995 198.808L213.981 199.394L214.291 201.513C214.433 201.273 214.655 201.063 214.958 200.884C215.26 200.696 215.592 200.576 215.956 200.523C216.616 200.426 217.179 200.492 217.642 200.72C218.105 200.947 218.465 201.274 218.722 201.701C218.977 202.119 219.142 202.584 219.217 203.096C219.355 204.046 219.194 204.85 218.734 205.508C218.281 206.164 217.555 206.566 216.556 206.711C215.614 206.849 214.828 206.723 214.198 206.335C213.567 205.946 213.16 205.377 212.974 204.628L214.659 204.382C214.782 204.701 214.986 204.942 215.271 205.102C215.564 205.262 215.913 205.312 216.318 205.253C216.805 205.182 217.15 204.976 217.353 204.634C217.556 204.292 217.621 203.869 217.548 203.365C217.473 202.853 217.288 202.484 216.993 202.257C216.706 202.02 216.318 201.938 215.831 202.009C215.484 202.06 215.208 202.189 215.002 202.396C214.796 202.603 214.664 202.858 214.608 203.162L212.947 203.405L212.173 198.102L217.773 197.284L217.995 198.808ZM220.915 204.278L220.716 202.915L223.92 196.525L225.939 196.23L226.765 201.88L227.855 201.721L228.076 203.232L226.985 203.391L227.242 205.151L225.508 205.404L225.251 203.645L220.915 204.278ZM224.588 198.326L222.602 202.488L225.142 202.117L224.588 198.326Z" fill="white"/>
</g>
<g filter="url(#filter8_b_714_11374)">
<g clip-path="url(#clip8_714_11374)">
<rect x="92.5168" y="245.391" width="150.001" height="34.3474" rx="9.96687" transform="rotate(-8.30997 92.5168 245.391)" fill="white" fill-opacity="0.08"/>
<g filter="url(#filter9_b_714_11374)">
<rect x="102.474" y="251.492" width="18.9371" height="18.9371" rx="9.46853" transform="rotate(-8.30997 102.474 251.492)" fill="white"/>
<g clip-path="url(#clip9_714_11374)">
<path d="M109.941 258.648C109.02 258.144 108.445 257.206 108.253 256.379C108.223 256.247 108.096 256.187 107.979 256.204C107.894 256.216 107.815 256.27 107.781 256.364C107.169 258.079 107.824 260.218 108.908 260.952C109.04 260.287 109.315 259.603 109.713 258.982C109.786 258.868 109.862 258.758 109.941 258.65L109.941 258.648ZM117.523 254.941C117.464 254.861 117.373 254.832 117.287 254.844C117.168 254.862 117.066 254.953 117.073 255.09C117.125 255.939 116.843 257.004 116.105 257.75C116.211 257.831 116.316 257.914 116.419 258.003C116.977 258.484 117.436 259.06 117.753 259.66C118.582 258.646 118.598 256.412 117.523 254.941ZM114.356 257.527L114.847 260.884L117.426 260.507C116.99 259.256 115.78 257.965 114.356 257.527ZM112.046 261.293L111.555 257.936C110.317 258.761 109.529 260.344 109.467 261.67L112.046 261.293ZM117.608 261.09L109.458 262.28C109.311 262.302 109.208 262.43 109.228 262.568L109.388 263.662C109.408 263.8 109.543 263.894 109.691 263.872L117.838 262.682C117.986 262.66 118.088 262.532 118.068 262.394L117.908 261.3C117.888 261.163 117.753 261.069 117.606 261.09L117.608 261.09ZM113.684 257.388C113.43 257.361 113.169 257.365 112.908 257.403C112.647 257.441 112.399 257.512 112.16 257.611L112.684 261.198L114.206 260.975L113.682 257.389L113.684 257.388Z" fill="#000223"/>
</g>
</g>
<path d="M137.734 253.141L136.909 259.59L135.444 259.804L133.637 255.562L133.065 260.151L131.611 260.373L129.036 254.412L130.367 254.218L132.162 258.869L132.719 253.874L134.104 253.672L135.992 258.282L136.394 253.337L137.734 253.141ZM143.825 255.96C143.851 256.137 143.862 256.299 143.859 256.444L140.264 256.969C140.346 257.32 140.511 257.58 140.759 257.749C141.007 257.918 141.291 257.98 141.611 257.933C142.072 257.865 142.372 257.619 142.509 257.194L143.85 256.999C143.777 257.493 143.562 257.923 143.204 258.289C142.846 258.65 142.374 258.873 141.788 258.959C141.315 259.028 140.873 258.986 140.464 258.835C140.06 258.676 139.724 258.42 139.455 258.067C139.191 257.712 139.023 257.283 138.95 256.781C138.875 256.272 138.914 255.81 139.064 255.395C139.215 254.98 139.462 254.642 139.805 254.38C140.147 254.119 140.561 253.952 141.046 253.882C141.514 253.813 141.946 253.853 142.342 254.001C142.744 254.147 143.073 254.392 143.329 254.736C143.589 255.072 143.755 255.48 143.825 255.96ZM142.486 255.793C142.433 255.474 142.281 255.236 142.028 255.08C141.775 254.917 141.485 254.86 141.16 254.907C140.852 254.952 140.606 255.085 140.42 255.306C140.24 255.519 140.15 255.795 140.151 256.134L142.486 255.793ZM147.177 258.171C146.775 258.23 146.404 258.212 146.063 258.117C145.722 258.015 145.439 257.854 145.213 257.633C144.993 257.412 144.853 257.151 144.791 256.852L146.042 256.669C146.094 256.855 146.208 256.999 146.386 257.099C146.57 257.2 146.783 257.232 147.026 257.196C147.263 257.162 147.439 257.088 147.555 256.974C147.678 256.859 147.728 256.728 147.706 256.58C147.683 256.42 147.583 256.314 147.406 256.262C147.234 256.202 146.964 256.151 146.595 256.108C146.215 256.073 145.9 256.025 145.649 255.965C145.405 255.904 145.182 255.789 144.982 255.618C144.788 255.447 144.667 255.196 144.618 254.865C144.579 254.592 144.619 254.333 144.74 254.085C144.867 253.837 145.066 253.627 145.337 253.454C145.614 253.281 145.951 253.165 146.347 253.107C146.933 253.022 147.422 253.101 147.814 253.346C148.206 253.585 148.455 253.951 148.564 254.443L147.374 254.616C147.328 254.424 147.223 254.282 147.058 254.191C146.899 254.093 146.698 254.062 146.455 254.098C146.231 254.131 146.062 254.198 145.95 254.299C145.844 254.399 145.801 254.523 145.823 254.671C145.847 254.836 145.949 254.951 146.127 255.016C146.305 255.075 146.575 255.123 146.937 255.161C147.305 255.197 147.611 255.246 147.856 255.307C148.1 255.368 148.32 255.487 148.515 255.664C148.716 255.835 148.842 256.082 148.896 256.407C148.937 256.691 148.895 256.957 148.768 257.205C148.647 257.452 148.448 257.663 148.171 257.836C147.899 258.003 147.568 258.114 147.177 258.171ZM150.926 253.245C151.053 252.997 151.245 252.779 151.501 252.59C151.763 252.395 152.074 252.271 152.435 252.218C152.855 252.157 153.249 252.205 153.617 252.363C153.99 252.52 154.303 252.776 154.554 253.132C154.811 253.482 154.976 253.908 155.049 254.411C155.123 254.914 155.087 255.375 154.943 255.795C154.804 256.208 154.578 256.547 154.266 256.81C153.96 257.072 153.597 257.234 153.177 257.295C152.816 257.348 152.485 257.321 152.186 257.213C151.892 257.105 151.643 256.951 151.438 256.751L151.883 259.796L150.64 259.977L149.58 252.717L150.823 252.535L150.926 253.245ZM153.78 254.596C153.737 254.3 153.637 254.055 153.482 253.86C153.332 253.658 153.148 253.516 152.93 253.433C152.718 253.349 152.497 253.324 152.266 253.358C152.041 253.391 151.837 253.481 151.653 253.629C151.474 253.77 151.339 253.959 151.246 254.196C151.16 254.432 151.138 254.698 151.182 254.994C151.225 255.29 151.322 255.538 151.472 255.74C151.628 255.941 151.813 256.086 152.025 256.176C152.243 256.259 152.464 256.284 152.689 256.251C152.92 256.218 153.124 256.127 153.302 255.981C153.486 255.833 153.621 255.641 153.707 255.405C153.8 255.167 153.824 254.898 153.78 254.596ZM160.688 253.497C160.714 253.674 160.725 253.836 160.722 253.981L157.127 254.506C157.209 254.857 157.374 255.117 157.622 255.286C157.87 255.455 158.154 255.517 158.474 255.47C158.935 255.402 159.235 255.156 159.372 254.731L160.713 254.535C160.64 255.03 160.425 255.46 160.067 255.826C159.709 256.187 159.237 256.41 158.651 256.496C158.178 256.565 157.736 256.523 157.327 256.372C156.923 256.213 156.587 255.957 156.318 255.603C156.054 255.249 155.886 254.82 155.813 254.317C155.738 253.809 155.777 253.347 155.928 252.932C156.078 252.517 156.325 252.179 156.668 251.917C157.01 251.656 157.424 251.489 157.909 251.419C158.377 251.35 158.809 251.39 159.205 251.537C159.607 251.684 159.936 251.929 160.192 252.273C160.452 252.609 160.618 253.017 160.688 253.497ZM159.349 253.33C159.296 253.011 159.144 252.773 158.891 252.617C158.638 252.454 158.348 252.397 158.023 252.444C157.715 252.489 157.469 252.622 157.283 252.843C157.103 253.056 157.013 253.332 157.014 253.671L159.349 253.33ZM162.783 251.568C162.905 251.284 163.082 251.05 163.315 250.865C163.553 250.679 163.839 250.562 164.17 250.513L164.36 251.818L164.032 251.866C163.642 251.923 163.359 252.058 163.185 252.271C163.016 252.483 162.965 252.816 163.032 253.272L163.39 255.722L162.147 255.903L161.429 250.986L162.671 250.805L162.783 251.568Z" fill="white"/>
<path d="M208.722 247.074C208.784 247.504 208.732 247.925 208.565 248.337C208.404 248.74 208.127 249.097 207.734 249.408C207.348 249.709 206.868 249.922 206.296 250.048L206.443 251.051L205.65 251.167L205.502 250.151C204.665 250.198 203.964 250.047 203.398 249.699C202.832 249.343 202.487 248.803 202.365 248.079L204.223 247.807C204.359 248.395 204.717 248.709 205.297 248.751L204.951 246.385C204.335 246.323 203.834 246.244 203.449 246.149C203.064 246.053 202.715 245.86 202.403 245.568C202.09 245.276 201.892 244.845 201.809 244.275C201.704 243.557 201.874 242.933 202.32 242.404C202.774 241.874 203.405 241.516 204.213 241.33L204.067 240.327L204.86 240.211L205.006 241.214C205.809 241.165 206.475 241.312 207.007 241.656C207.546 241.999 207.898 242.53 208.062 243.248L206.191 243.521C206.131 243.285 206.014 243.092 205.84 242.94C205.673 242.779 205.465 242.678 205.214 242.639L205.556 244.981C206.199 245.047 206.708 245.129 207.085 245.225C207.469 245.313 207.817 245.502 208.13 245.794C208.441 246.078 208.638 246.504 208.722 247.074ZM203.605 243.924C203.645 244.197 203.76 244.408 203.951 244.557C204.14 244.698 204.399 244.8 204.729 244.861L204.416 242.718C204.125 242.802 203.905 242.948 203.759 243.155C203.612 243.362 203.56 243.619 203.605 243.924ZM206.094 248.66C206.399 248.557 206.624 248.393 206.769 248.169C206.921 247.945 206.977 247.692 206.936 247.411C206.896 247.138 206.778 246.932 206.58 246.792C206.382 246.653 206.115 246.552 205.777 246.492L206.094 248.66ZM211.331 247.237C212.027 246.461 212.579 245.819 212.985 245.313C213.391 244.798 213.716 244.278 213.96 243.753C214.204 243.228 214.292 242.735 214.224 242.272C214.163 241.851 214.015 241.535 213.782 241.324C213.549 241.114 213.226 241.039 212.813 241.099C212.4 241.159 212.102 241.346 211.92 241.66C211.737 241.965 211.677 242.357 211.738 242.838L210.053 243.084C209.942 242.088 210.125 241.293 210.604 240.7C211.09 240.106 211.763 239.746 212.622 239.621C213.564 239.483 214.323 239.63 214.901 240.06C215.477 240.482 215.825 241.102 215.944 241.92C216.038 242.564 215.955 243.204 215.694 243.842C215.432 244.479 215.111 245.049 214.729 245.552C214.345 246.046 213.839 246.652 213.21 247.368L216.865 246.834L217.074 248.271L210.954 249.165L210.766 247.877L211.331 247.237ZM222.127 240.738C221.993 240.403 221.811 240.164 221.579 240.021C221.355 239.877 221.054 239.832 220.674 239.888C220.104 239.971 219.716 240.264 219.511 240.766C219.313 241.259 219.286 242.022 219.428 243.056C219.578 242.696 219.83 242.398 220.183 242.161C220.535 241.915 220.935 241.76 221.381 241.695C221.917 241.617 222.409 241.663 222.856 241.834C223.303 242.005 223.674 242.296 223.971 242.709C224.266 243.113 224.459 243.624 224.549 244.244C224.635 244.83 224.592 245.372 224.42 245.87C224.255 246.358 223.964 246.763 223.547 247.085C223.13 247.408 222.608 247.615 221.98 247.706C221.121 247.832 220.416 247.741 219.865 247.433C219.322 247.124 218.902 246.646 218.605 245.998C218.315 245.34 218.097 244.511 217.951 243.512C217.73 242 217.824 240.823 218.232 239.978C218.639 239.126 219.404 238.618 220.528 238.454C221.395 238.327 222.102 238.464 222.65 238.865C223.198 239.266 223.56 239.812 223.737 240.503L222.127 240.738ZM221.192 243.178C220.754 243.242 220.406 243.423 220.146 243.723C219.886 244.022 219.791 244.416 219.863 244.903C219.934 245.39 220.126 245.754 220.44 245.995C220.762 246.235 221.174 246.318 221.678 246.245C222.124 246.18 222.455 245.992 222.672 245.682C222.896 245.371 222.975 244.984 222.907 244.522C222.837 244.042 222.653 243.681 222.356 243.438C222.068 243.193 221.68 243.106 221.192 243.178ZM227.419 242.002C226.53 241.694 226.02 241.089 225.889 240.189C225.823 239.743 225.876 239.322 226.046 238.926C226.223 238.52 226.523 238.177 226.946 237.896C227.376 237.605 227.921 237.412 228.582 237.315C229.242 237.219 229.816 237.249 230.303 237.405C230.797 237.553 231.183 237.796 231.46 238.135C231.744 238.465 231.919 238.852 231.984 239.298C232.05 239.753 231.997 240.17 231.825 240.549C231.652 240.92 231.393 241.228 231.049 241.472C231.532 241.604 231.929 241.841 232.241 242.184C232.553 242.526 232.746 242.958 232.822 243.478C232.904 244.04 232.832 244.552 232.604 245.016C232.384 245.47 232.042 245.845 231.579 246.14C231.116 246.435 230.575 246.628 229.955 246.719C229.336 246.809 228.762 246.779 228.234 246.628C227.714 246.477 227.279 246.215 226.93 245.845C226.587 245.464 226.375 244.993 226.293 244.432C226.217 243.911 226.279 243.443 226.48 243.025C226.679 242.6 226.992 242.259 227.419 242.002ZM230.335 239.792C230.276 239.388 230.106 239.092 229.826 238.905C229.554 238.717 229.207 238.654 228.786 238.715C228.373 238.776 228.059 238.935 227.844 239.195C227.637 239.453 227.564 239.788 227.624 240.201C227.678 240.573 227.845 240.852 228.126 241.039C228.414 241.224 228.757 241.288 229.153 241.23C229.55 241.172 229.86 241.013 230.083 240.753C230.306 240.484 230.39 240.164 230.335 239.792ZM229.338 242.494C228.867 242.563 228.501 242.739 228.238 243.022C227.984 243.303 227.89 243.667 227.955 244.113C228.015 244.526 228.205 244.844 228.525 245.068C228.851 245.281 229.258 245.353 229.745 245.282C230.233 245.21 230.597 245.022 230.839 244.717C231.082 244.411 231.173 244.056 231.114 243.652C231.05 243.214 230.856 242.896 230.532 242.699C230.207 242.494 229.809 242.425 229.338 242.494Z" fill="white"/>
</g>
</g>
<g filter="url(#filter10_b_714_11374)">
<rect x="69.2831" y="84.6011" width="18.9371" height="18.9371" rx="9.46853" transform="rotate(-8.30997 69.2831 84.6011)" fill="white" fill-opacity="0.1"/>
<path d="M76.2696 92.8826C76.1463 93.0482 76.1805 93.2823 76.346 93.4057L79.0434 95.4155C79.2089 95.5388 79.4431 95.5046 79.5664 95.3391C79.6898 95.1736 79.6556 94.9394 79.49 94.8161L77.0924 93.0296L78.8789 90.6319C79.0022 90.4664 78.968 90.2322 78.8025 90.1089C78.637 89.9855 78.4028 90.0197 78.2795 90.1853L76.2696 92.8826ZM84.02 92.3954C84.2243 92.3656 84.3657 92.1758 84.3358 91.9716C84.306 91.7673 84.1162 91.6259 83.912 91.6558L84.02 92.3954ZM76.6234 93.4758L84.02 92.3954L83.912 91.6558L76.5153 92.7361L76.6234 93.4758Z" fill="white"/>
</g>
</g>
<rect x="56.85" y="75.3374" width="172.427" height="277.577" rx="14.9503" transform="rotate(-8.30997 56.85 75.3374)" stroke="url(#paint4_linear_714_11374)" stroke-width="0.996687"/>
</g>
<g filter="url(#filter11_b_714_11374)">
<rect x="257.4" y="139.771" width="60.1592" height="60.1592" rx="30.0796" transform="rotate(-14.9888 257.4 139.771)" fill="url(#paint5_linear_714_11374)"/>
<rect x="257.4" y="139.771" width="60.1592" height="60.1592" rx="30.0796" transform="rotate(-14.9888 257.4 139.771)" stroke="#FF6E75" stroke-width="0.910372" stroke-miterlimit="10"/>
<g clip-path="url(#clip10_714_11374)">
<path d="M285.57 159.771C283.113 158.777 281.396 156.596 280.671 154.577C280.558 154.256 280.221 154.143 279.934 154.219C279.724 154.276 279.541 154.433 279.484 154.678C278.452 159.158 280.723 164.328 283.656 165.851C283.792 164.144 284.281 162.348 285.095 160.676C285.245 160.368 285.404 160.071 285.571 159.777L285.57 159.771ZM303.49 148.251C303.318 148.067 303.081 148.022 302.87 148.079C302.577 148.157 302.347 148.416 302.404 148.758C302.785 150.869 302.389 153.622 300.758 155.711C301.049 155.882 301.336 156.06 301.619 156.252C303.161 157.294 304.481 158.605 305.452 160.016C307.231 157.231 306.617 151.623 303.49 148.251ZM296.31 155.665L298.525 163.937L304.88 162.236C303.419 159.227 300.007 156.346 296.31 155.665ZM291.622 165.785L289.407 157.513C286.544 159.944 285.034 164.143 285.267 167.486L291.622 165.785ZM305.509 163.642L285.425 169.02C285.062 169.117 284.843 169.469 284.934 169.808L285.655 172.504C285.746 172.843 286.113 173.039 286.475 172.942L306.553 167.566C306.916 167.469 307.135 167.117 307.044 166.777L306.322 164.082C306.232 163.742 305.865 163.547 305.503 163.644L305.509 163.642ZM294.584 155.514C293.938 155.522 293.285 155.607 292.642 155.779C291.999 155.951 291.397 156.202 290.827 156.52L293.194 165.358L296.944 164.354L294.578 155.516L294.584 155.514Z" fill="white"/>
</g>
</g>
<defs>
<filter id="filter0_b_714_11374" x="11.999" y="5.56582" width="300.436" height="389.286" filterUnits="userSpaceOnUse" color-interpolation-filters="sRGB">
<feFlood flood-opacity="0" result="BackgroundImageFix"/>
<feGaussianBlur in="BackgroundImageFix" stdDeviation="22.4255"/>
<feComposite in2="SourceAlpha" operator="in" result="effect1_backgroundBlur_714_11374"/>
<feBlend mode="normal" in="SourceGraphic" in2="effect1_backgroundBlur_714_11374" result="shape"/>
</filter>
<filter id="filter1_bf_714_11374" x="90.1694" y="231.466" width="165.692" height="81.8956" filterUnits="userSpaceOnUse" color-interpolation-filters="sRGB">
<feFlood flood-opacity="0" result="BackgroundImageFix"/>
<feGaussianBlur in="BackgroundImageFix" stdDeviation="8.41359"/>
<feComposite in2="SourceAlpha" operator="in" result="effect1_backgroundBlur_714_11374"/>
<feBlend mode="normal" in="SourceGraphic" in2="effect1_backgroundBlur_714_11374" result="shape"/>
<feGaussianBlur stdDeviation="0.498344" result="effect2_foregroundBlur_714_11374"/>
</filter>
<filter id="filter2_b_714_11374" x="84.0092" y="263.115" width="186.338" height="85.9373" filterUnits="userSpaceOnUse" color-interpolation-filters="sRGB">
<feFlood flood-opacity="0" result="BackgroundImageFix"/>
<feGaussianBlur in="BackgroundImageFix" stdDeviation="8.41359"/>
<feComposite in2="SourceAlpha" operator="in" result="effect1_backgroundBlur_714_11374"/>
<feBlend mode="normal" in="SourceGraphic" in2="effect1_backgroundBlur_714_11374" result="shape"/>
</filter>
<filter id="filter3_b_714_11374" x="53.2387" y="69.6881" width="200.189" height="146.29" filterUnits="userSpaceOnUse" color-interpolation-filters="sRGB">
<feFlood flood-opacity="0" result="BackgroundImageFix"/>
<feGaussianBlur in="BackgroundImageFix" stdDeviation="9.96687"/>
<feComposite in2="SourceAlpha" operator="in" result="effect1_backgroundBlur_714_11374"/>
<feBlend mode="normal" in="SourceGraphic" in2="effect1_backgroundBlur_714_11374" result="shape"/>
</filter>
<filter id="filter4_b_714_11374" x="55.7471" y="91.8487" width="81.2255" height="81.2255" filterUnits="userSpaceOnUse" color-interpolation-filters="sRGB">
<feFlood flood-opacity="0" result="BackgroundImageFix"/>
<feGaussianBlur in="BackgroundImageFix" stdDeviation="13.8404"/>
<feComposite in2="SourceAlpha" operator="in" result="effect1_backgroundBlur_714_11374"/>
<feBlend mode="normal" in="SourceGraphic" in2="effect1_backgroundBlur_714_11374" result="shape"/>
</filter>
<filter id="filter5_b_714_11374" x="89.4183" y="115.935" width="40.8208" height="40.8207" filterUnits="userSpaceOnUse" color-interpolation-filters="sRGB">
<feFlood flood-opacity="0" result="BackgroundImageFix"/>
<feGaussianBlur in="BackgroundImageFix" stdDeviation="6.95565"/>
<feComposite in2="SourceAlpha" operator="in" result="effect1_backgroundBlur_714_11374"/>
<feBlend mode="normal" in="SourceGraphic" in2="effect1_backgroundBlur_714_11374" result="shape"/>
</filter>
<filter id="filter6_bf_714_11374" x="82.8116" y="220.811" width="177.177" height="84.5384" filterUnits="userSpaceOnUse" color-interpolation-filters="sRGB">
<feFlood flood-opacity="0" result="BackgroundImageFix"/>
<feGaussianBlur in="BackgroundImageFix" stdDeviation="8.41359"/>
<feComposite in2="SourceAlpha" operator="in" result="effect1_backgroundBlur_714_11374"/>
<feBlend mode="normal" in="SourceGraphic" in2="effect1_backgroundBlur_714_11374" result="shape"/>
<feGaussianBlur stdDeviation="0.498344" result="effect2_foregroundBlur_714_11374"/>
</filter>
<filter id="filter7_b_714_11374" x="73.7577" y="184.806" width="67.443" height="67.4431" filterUnits="userSpaceOnUse" color-interpolation-filters="sRGB">
<feFlood flood-opacity="0" result="BackgroundImageFix"/>
<feGaussianBlur in="BackgroundImageFix" stdDeviation="11.4919"/>
<feComposite in2="SourceAlpha" operator="in" result="effect1_backgroundBlur_714_11374"/>
<feBlend mode="normal" in="SourceGraphic" in2="effect1_backgroundBlur_714_11374" result="shape"/>
</filter>
<filter id="filter8_b_714_11374" x="62.6162" y="193.811" width="213.192" height="115.467" filterUnits="userSpaceOnUse" color-interpolation-filters="sRGB">
<feFlood flood-opacity="0" result="BackgroundImageFix"/>
<feGaussianBlur in="BackgroundImageFix" stdDeviation="14.9503"/>
<feComposite in2="SourceAlpha" operator="in" result="effect1_backgroundBlur_714_11374"/>
<feBlend mode="normal" in="SourceGraphic" in2="effect1_backgroundBlur_714_11374" result="shape"/>
</filter>
<filter id="filter9_b_714_11374" x="79.4896" y="225.771" width="67.443" height="67.4431" filterUnits="userSpaceOnUse" color-interpolation-filters="sRGB">
<feFlood flood-opacity="0" result="BackgroundImageFix"/>
<feGaussianBlur in="BackgroundImageFix" stdDeviation="11.4919"/>
<feComposite in2="SourceAlpha" operator="in" result="effect1_backgroundBlur_714_11374"/>
<feBlend mode="normal" in="SourceGraphic" in2="effect1_backgroundBlur_714_11374" result="shape"/>
</filter>
<filter id="filter10_b_714_11374" x="55.9001" y="68.481" width="48.2413" height="48.2414" filterUnits="userSpaceOnUse" color-interpolation-filters="sRGB">
<feFlood flood-opacity="0" result="BackgroundImageFix"/>
<feGaussianBlur in="BackgroundImageFix" stdDeviation="6.69151"/>
<feComposite in2="SourceAlpha" operator="in" result="effect1_backgroundBlur_714_11374"/>
<feBlend mode="normal" in="SourceGraphic" in2="effect1_backgroundBlur_714_11374" result="shape"/>
</filter>
<filter id="filter11_b_714_11374" x="243.745" y="110.557" width="100.982" height="100.983" filterUnits="userSpaceOnUse" color-interpolation-filters="sRGB">
<feFlood flood-opacity="0" result="BackgroundImageFix"/>
<feGaussianBlur in="BackgroundImageFix" stdDeviation="6.82779"/>
<feComposite in2="SourceAlpha" operator="in" result="effect1_backgroundBlur_714_11374"/>
<feBlend mode="normal" in="SourceGraphic" in2="effect1_backgroundBlur_714_11374" result="shape"/>
</filter>
<linearGradient id="paint0_linear_714_11374" x1="125.286" y1="291.166" x2="28.5749" y2="108.888" gradientUnits="userSpaceOnUse">
<stop stop-color="#FF6E75"/>
<stop offset="1" stop-color="#FBBE7E"/>
</linearGradient>
<radialGradient id="paint1_radial_714_11374" cx="0" cy="0" r="1" gradientUnits="userSpaceOnUse" gradientTransform="translate(35.0066 225.924) rotate(16.8009) scale(213.338 162.658)">
<stop stop-color="#935E5D"/>
<stop offset="0.483484" stop-color="#161635"/>
</radialGradient>
<linearGradient id="paint2_linear_714_11374" x1="100.836" y1="317.07" x2="273.587" y2="282.876" gradientUnits="userSpaceOnUse">
<stop stop-color="#FF6E75"/>
<stop offset="1" stop-color="#FBBE7E"/>
</linearGradient>
<linearGradient id="paint3_linear_714_11374" x1="106.119" y1="111.18" x2="94.8315" y2="145.633" gradientUnits="userSpaceOnUse">
<stop stop-color="#FBBE7E"/>
<stop offset="1" stop-color="#FF6E75"/>
</linearGradient>
<linearGradient id="paint4_linear_714_11374" x1="220.644" y1="59.1181" x2="17.4739" y2="244.118" gradientUnits="userSpaceOnUse">
<stop stop-color="#FBBE7E"/>
<stop offset="1" stop-color="#FF6E75"/>
</linearGradient>
<linearGradient id="paint5_linear_714_11374" x1="269.58" y1="160.591" x2="308.442" y2="221.514" gradientUnits="userSpaceOnUse">
<stop stop-color="#000223" stop-opacity="0.58"/>
<stop offset="1" stop-color="#FF6E75" stop-opacity="0.71"/>
</linearGradient>
<clipPath id="clip0_714_11374">
<rect width="19.3068" height="31.4741" fill="white" transform="translate(256.704 173.105) rotate(21.4214)"/>
</clipPath>
<clipPath id="clip1_714_11374">
<rect width="19.3068" height="31.4741" fill="white" transform="translate(187.454 31.7534) rotate(-24.8748)"/>
</clipPath>
<clipPath id="clip2_714_11374">
<rect x="56.85" y="75.3374" width="172.427" height="277.577" rx="14.9503" transform="rotate(-8.30997 56.85 75.3374)" fill="white"/>
</clipPath>
<clipPath id="clip3_714_11374">
<rect x="100.836" y="301.59" width="149.781" height="30.9602" rx="8.41359" transform="rotate(-8.30997 100.836 301.59)" fill="white"/>
</clipPath>
<clipPath id="clip4_714_11374">
<rect x="73.1725" y="111.229" width="149.503" height="85.7151" rx="9.96687" transform="rotate(-8.30997 73.1725 111.229)" fill="white"/>
</clipPath>
<clipPath id="clip5_714_11374">
<rect width="14.1169" height="14.1169" fill="white" transform="translate(88.3384 126.373) rotate(-8.30997)"/>
</clipPath>
<clipPath id="clip6_714_11374">
<rect x="86.7134" y="203.934" width="149.503" height="34.8841" rx="9.96687" transform="rotate(-8.30997 86.7134 203.934)" fill="white"/>
</clipPath>
<clipPath id="clip7_714_11374">
<rect width="11.7215" height="11.7215" fill="white" transform="translate(100.818 213.473) rotate(-8.30997)"/>
</clipPath>
<clipPath id="clip8_714_11374">
<rect x="92.5168" y="245.391" width="150.001" height="34.3474" rx="9.96687" transform="rotate(-8.30997 92.5168 245.391)" fill="white"/>
</clipPath>
<clipPath id="clip9_714_11374">
<rect width="11.7215" height="11.7215" fill="white" transform="translate(106.55 254.438) rotate(-8.30997)"/>
</clipPath>
<clipPath id="clip10_714_11374">
<rect width="27.3112" height="27.3112" fill="white" transform="translate(277.294 151.262) rotate(-14.9888)"/>
</clipPath>
</defs>
</svg>
