<svg width="348" height="351" viewBox="0 0 348 351" fill="none" xmlns="http://www.w3.org/2000/svg">
<path d="M254.883 154.445C273.201 159.49 292.14 148.73 297.185 130.412C302.23 112.094 291.47 93.1547 273.152 88.1099C254.834 83.065 235.894 93.8251 230.849 112.143C225.804 130.461 236.565 149.401 254.883 154.445Z" fill="#FBBE7E" stroke="#FBBE7E" stroke-width="1.2394" stroke-miterlimit="10"/>
<g clip-path="url(#clip0_714_11602)">
<rect width="21.2741" height="34.7149" transform="translate(257.805 102.021) rotate(15.3977)" fill="#FBBE7E"/>
<path d="M269.095 109.454L269.039 109.655C269.897 110.037 270.662 110.505 271.322 111.056C272.411 111.966 273.181 113.013 273.628 114.203C273.96 115.087 274.078 116 273.987 116.941C273.934 117.46 273.42 117.807 272.911 117.667L271 117.14L270.987 117.137C270.621 117.036 270.36 116.704 270.362 116.327M269.095 109.454C269.98 109.845 270.771 110.327 271.454 110.898C272.568 111.827 273.36 112.903 273.821 114.13L273.821 114.13C274.164 115.045 274.287 115.989 274.192 116.961L274.192 116.962C274.127 117.611 273.486 118.039 272.856 117.866L270.945 117.34L270.932 117.336C270.48 117.211 270.152 116.801 270.156 116.326M269.095 109.454C269.031 109.426 268.968 109.398 268.903 109.371L261.261 121.711C259.461 120.651 258.123 119.445 257.26 118.095C256.383 116.724 256.185 115.175 256.656 113.464C257.045 112.053 257.775 110.917 258.843 110.07C259.905 109.228 261.175 108.696 262.645 108.478C263.604 108.333 264.599 108.332 265.628 108.473L266.108 106.731C266.263 106.169 266.844 105.844 267.407 105.998L268.841 106.393C269.403 106.548 269.736 107.126 269.581 107.688L269.095 109.454ZM270.156 116.326L270.362 116.327M270.156 116.326C270.156 116.326 270.156 116.326 270.156 116.326L270.362 116.327M270.156 116.326C270.161 115.497 269.881 114.755 269.312 114.092C268.978 113.704 268.574 113.365 268.097 113.075L266.138 120.192L266.154 120.202C266.877 120.604 267.6 121.076 268.324 121.622C269.055 122.173 269.699 122.81 270.255 123.533L270.256 123.533C270.817 124.267 271.211 125.087 271.431 126.002C271.655 126.926 271.611 127.942 271.309 129.038C270.928 130.423 270.226 131.564 269.207 132.447C268.188 133.33 266.908 133.892 265.386 134.138L265.386 134.138C264.427 134.292 263.397 134.293 262.295 134.144L261.828 135.841C261.673 136.403 261.091 136.729 260.529 136.574L259.095 136.179C258.532 136.024 258.199 135.447 258.354 134.885L258.804 133.253C257.596 132.798 256.605 132.238 255.742 131.546C254.559 130.596 253.731 129.479 253.261 128.192C252.9 127.202 252.774 126.146 252.886 125.035C252.95 124.382 253.587 123.942 254.223 124.118L256.224 124.669C256.686 124.796 257.038 125.222 257.013 125.719C256.984 126.316 257.091 126.86 257.328 127.357C257.65 128.028 258.145 128.599 258.821 129.072C259.125 129.282 259.45 129.472 259.799 129.639L261.882 122.077L261.261 121.711L270.362 116.327M263.309 130.463L265.086 124.012C265.398 124.226 265.691 124.441 265.963 124.658C266.545 125.128 266.966 125.626 267.227 126.154L267.228 126.155C267.48 126.66 267.523 127.241 267.34 127.906C267.138 128.64 266.746 129.215 266.167 129.635C265.577 130.06 264.859 130.327 263.999 130.424C263.774 130.45 263.544 130.463 263.309 130.463ZM264.649 112.027L262.923 118.297C262.832 118.236 262.741 118.174 262.65 118.11C262.203 117.794 261.803 117.445 261.448 117.061C261.101 116.686 260.855 116.27 260.709 115.814L260.709 115.814L260.709 115.812C260.564 115.373 260.562 114.889 260.71 114.355C260.884 113.72 261.22 113.21 261.726 112.816C262.235 112.42 262.869 112.166 263.643 112.062C263.962 112.02 264.298 112.007 264.649 112.027Z" fill="#000223" stroke="#000223" stroke-width="0.413134"/>
</g>
<g filter="url(#filter0_b_714_11602)">
<rect x="65.7671" y="0.643066" width="68.8053" height="68.8053" rx="34.4026" transform="rotate(8.51988 65.7671 0.643066)" fill="url(#paint0_linear_714_11602)"/>
<rect x="65.7671" y="0.643066" width="68.8053" height="68.8053" rx="34.4026" transform="rotate(8.51988 65.7671 0.643066)" stroke="#FF6E75" stroke-width="1.05854" stroke-miterlimit="10"/>
<path d="M92.6874 47.0171C92.7482 47.0864 92.8139 47.1564 92.8786 47.2251C91.3233 47.9541 89.5435 48.2465 87.7207 47.9734C82.7975 47.2371 79.4058 42.6501 80.1431 37.7283C80.8802 32.8077 85.4674 29.4148 90.3892 30.1521C92.2133 30.4253 93.829 31.2276 95.099 32.3786C95.0177 32.4291 94.9371 32.4748 94.8737 32.5292C92.4906 34.0359 90.8871 36.4974 90.471 39.2755C90.055 42.0524 90.8619 44.875 92.6874 47.0171ZM101.406 31.8024C99.5791 31.5288 97.8016 31.8227 96.2501 32.5511C96.313 32.6231 96.3767 32.6904 96.4214 32.761C98.2583 34.9 99.0701 37.7232 98.654 40.5013C98.2381 43.2771 96.6398 45.7368 94.2663 47.2536C94.1878 47.3021 94.1044 47.3498 94.0225 47.3965C95.2959 48.5492 96.9094 49.3499 98.7347 49.6234C103.658 50.3621 108.245 46.9703 108.982 42.0485C109.719 37.1291 106.327 32.5397 101.406 31.8024ZM95.6112 32.8878C95.4823 32.9606 95.3571 33.034 95.2332 33.115C93.1092 34.4664 91.563 36.6932 91.1607 39.3788C90.7582 42.0656 91.5842 44.6465 93.2189 46.561C93.3126 46.6734 93.4127 46.7842 93.5135 46.8902C93.6422 46.8186 93.768 46.7416 93.8918 46.6618C96.0145 45.3102 97.5617 43.0848 97.9642 40.398C98.3665 37.7124 97.5407 35.1303 95.9061 33.2158C95.8123 33.1035 95.713 32.9952 95.6112 32.8878Z" fill="white"/>
</g>
<path d="M144.91 217.399C144.249 214.703 141.529 213.05 138.829 213.71L129.088 216.092C124.543 217.204 120.882 220.495 119.302 224.903L116.58 232.466L20.7087 213.363C17.3295 212.689 13.8861 213.585 11.2616 215.814C8.63708 218.043 7.2049 221.304 7.32879 224.745L8.72663 263.745C8.88551 268.229 11.694 272.172 15.8782 273.789L91.0948 302.867C89.5334 305.368 86.5232 306.743 83.5489 306.151L18.053 293.1C17.6741 293.024 17.2963 292.998 16.9216 293.009C16.7876 292.977 16.661 292.936 16.526 292.909C11.0291 291.814 5.68185 295.384 4.58653 300.881C3.4912 306.378 7.06152 311.725 12.5584 312.82C18.0554 313.916 23.4026 310.345 24.4979 304.848C24.5114 304.781 24.5144 304.711 24.5279 304.644L68.1814 313.342C68.168 313.41 68.1442 313.475 68.1307 313.543C67.0354 319.04 70.6057 324.387 76.1026 325.482C81.5995 326.577 86.9468 323.007 88.0421 317.51C88.1424 317.007 88.193 316.509 88.2165 316.012C94.0471 314.864 99.1199 310.748 101.222 304.912L128.763 228.31C129.201 227.091 130.219 226.177 131.479 225.867L141.22 223.485C143.915 222.824 145.569 220.104 144.909 217.404L144.91 217.399Z" fill="url(#paint1_linear_714_11602)"/>
<g filter="url(#filter1_b_714_11602)">
<g clip-path="url(#clip1_714_11602)">
<rect x="42.7725" y="65.884" width="183.128" height="294.804" rx="15.8781" transform="rotate(-15 42.7725 65.884)" fill="url(#paint2_radial_714_11602)"/>
<rect x="90.1831" y="197.837" width="158.781" height="37.049" rx="10.5854" transform="rotate(-15 90.1831 197.837)" fill="white" fill-opacity="0.08"/>
<path d="M215.16 182.947L215.564 184.455L210.145 185.907L209.741 184.399L215.16 182.947ZM224.524 183.383C224.642 183.826 224.639 184.275 224.514 184.728C224.395 185.171 224.149 185.58 223.774 185.954C223.406 186.318 222.929 186.601 222.344 186.803L222.621 187.838L221.803 188.057L221.523 187.009C220.65 187.161 219.895 187.089 219.259 186.794C218.621 186.49 218.193 185.966 217.975 185.22L219.892 184.707C220.107 185.306 220.522 185.593 221.136 185.565L220.481 183.124C219.827 183.135 219.292 183.114 218.876 183.061C218.46 183.008 218.07 182.848 217.706 182.58C217.342 182.312 217.081 181.885 216.923 181.297C216.725 180.555 216.827 179.88 217.229 179.269C217.641 178.657 218.259 178.204 219.084 177.909L218.807 176.874L219.625 176.655L219.902 177.69C220.738 177.539 221.456 177.612 222.056 177.908C222.665 178.201 223.099 178.715 223.36 179.449L221.43 179.966C221.338 179.726 221.191 179.537 220.99 179.399C220.795 179.25 220.564 179.17 220.296 179.16L220.943 181.576C221.626 181.566 222.171 181.589 222.578 181.644C222.992 181.689 223.381 181.845 223.745 182.113C224.106 182.372 224.366 182.795 224.524 183.383ZM218.765 180.707C218.841 180.988 218.988 181.196 219.206 181.329C219.422 181.454 219.707 181.528 220.06 181.552L219.468 179.341C219.172 179.466 218.96 179.646 218.832 179.881C218.703 180.117 218.681 180.392 218.765 180.707ZM221.96 185.372C222.268 185.225 222.484 185.026 222.608 184.773C222.741 184.519 222.768 184.246 222.691 183.957C222.615 183.675 222.466 183.474 222.241 183.351C222.016 183.229 221.723 183.157 221.361 183.135L221.96 185.372ZM224.989 177.793L224.547 176.144L227.627 175.319L230.124 184.636L228.283 185.129L226.228 177.461L224.989 177.793ZM236.327 174.645L232.186 175.755L232.772 177.94C232.891 177.671 233.099 177.423 233.395 177.198C233.688 176.964 234.023 176.797 234.397 176.697C235.079 176.514 235.677 176.514 236.192 176.695C236.706 176.877 237.124 177.176 237.446 177.592C237.765 178 237.995 178.468 238.137 178.996C238.399 179.976 238.329 180.839 237.927 181.586C237.533 182.331 236.82 182.842 235.789 183.118C234.818 183.378 233.978 183.343 233.268 183.013C232.558 182.682 232.06 182.136 231.774 181.372L233.512 180.906C233.68 181.227 233.923 181.454 234.242 181.587C234.57 181.719 234.942 181.729 235.36 181.617C235.862 181.482 236.199 181.223 236.37 180.839C236.542 180.455 236.558 180.004 236.418 179.484C236.277 178.956 236.037 178.59 235.7 178.389C235.369 178.176 234.952 178.137 234.45 178.272C234.092 178.368 233.818 178.537 233.627 178.78C233.436 179.023 233.33 179.307 233.307 179.632L231.595 180.091L230.129 174.621L235.906 173.073L236.327 174.645Z" fill="white"/>
<rect x="101.167" y="202.017" width="23.2879" height="23.2879" rx="5.29272" transform="rotate(-15 101.167 202.017)" fill="white" fill-opacity="0.1"/>
<g clip-path="url(#clip2_714_11602)">
<path d="M119.798 215.392L119.536 215.462C119.049 215.593 118.55 215.296 118.432 214.806L117.178 208.807L118.512 208.45L120.426 214.272C120.569 214.755 120.285 215.262 119.798 215.392Z" fill="white"/>
<path d="M114.841 216.719L114.578 216.79C114.092 216.92 113.593 216.623 113.475 216.133L112.221 210.134L113.555 209.777L115.468 215.599C115.611 216.082 115.327 216.589 114.841 216.719Z" fill="white"/>
<path d="M114.576 207.984C113.684 205.5 112.384 205.203 111.928 205.179C111.838 205.175 111.748 205.186 111.661 205.211L111.543 205.243C111.456 205.266 111.371 205.302 111.296 205.352C110.917 205.603 109.95 206.518 110.439 209.111C110.843 211.249 112.263 211.198 113.157 210.93C114.063 210.706 115.314 210.031 114.576 207.984Z" fill="white"/>
<path d="M118.301 203.432L119.288 207.114C119.543 208.064 118.975 209.048 118.026 209.302C117.078 209.556 116.093 208.989 115.838 208.039L114.852 204.356L115.536 204.173L116.386 207.346C116.436 207.535 116.63 207.645 116.817 207.595C117.006 207.544 117.116 207.35 117.066 207.164L116.216 203.991L116.935 203.798L117.785 206.971C117.836 207.159 118.03 207.272 118.219 207.221C118.408 207.171 118.52 206.976 118.469 206.788L117.619 203.615L118.3 203.432L118.301 203.432Z" fill="white"/>
</g>
<rect x="129.047" y="195.642" width="57.6654" height="4.58702" rx="1.31058" transform="rotate(-15 129.047 195.642)" fill="white" fill-opacity="0.1"/>
<rect x="131.421" y="204.503" width="30.1433" height="4.58702" rx="1.31058" transform="rotate(-15 131.421 204.503)" fill="white" fill-opacity="0.1"/>
<g clip-path="url(#clip3_714_11602)">
<rect x="101.005" y="238.225" width="158.781" height="37.049" rx="10.5854" transform="rotate(-15 101.005 238.225)" fill="white" fill-opacity="0.08"/>
<path d="M223.616 223.969L224.02 225.477L218.601 226.929L218.197 225.421L223.616 223.969ZM232.98 224.405C233.099 224.848 233.095 225.297 232.97 225.75C232.852 226.193 232.605 226.602 232.23 226.976C231.862 227.339 231.385 227.622 230.8 227.825L231.078 228.86L230.26 229.079L229.979 228.031C229.106 228.183 228.352 228.111 227.716 227.816C227.077 227.512 226.649 226.987 226.431 226.242L228.348 225.728C228.564 226.328 228.978 226.614 229.592 226.587L228.938 224.146C228.283 224.157 227.748 224.136 227.332 224.083C226.916 224.03 226.526 223.87 226.162 223.602C225.798 223.334 225.537 222.906 225.38 222.318C225.181 221.577 225.283 220.901 225.686 220.291C226.097 219.679 226.715 219.225 227.541 218.931L227.263 217.896L228.081 217.677L228.359 218.712C229.195 218.561 229.913 218.633 230.513 218.929C231.121 219.223 231.555 219.737 231.816 220.47L229.886 220.988C229.794 220.747 229.648 220.558 229.446 220.42C229.251 220.272 229.02 220.192 228.752 220.182L229.4 222.597C230.082 222.588 230.627 222.611 231.035 222.666C231.448 222.711 231.837 222.867 232.201 223.134C232.563 223.394 232.822 223.817 232.98 224.405ZM227.222 221.729C227.297 222.01 227.444 222.217 227.662 222.351C227.878 222.475 228.163 222.55 228.517 222.574L227.924 220.363C227.629 220.487 227.417 220.668 227.288 220.903C227.159 221.138 227.137 221.414 227.222 221.729ZM230.417 226.393C230.725 226.247 230.941 226.047 231.065 225.795C231.197 225.54 231.225 225.268 231.147 224.978C231.072 224.697 230.922 224.495 230.697 224.373C230.473 224.25 230.179 224.178 229.817 224.157L230.417 226.393ZM235.738 224.255C236.374 223.354 236.874 222.613 237.238 222.031C237.601 221.441 237.878 220.855 238.069 220.274C238.26 219.694 238.292 219.164 238.164 218.687C238.048 218.253 237.854 217.939 237.583 217.747C237.313 217.555 236.964 217.516 236.538 217.63C236.112 217.744 235.823 217.977 235.671 218.328C235.516 218.671 235.501 219.091 235.624 219.587L233.886 220.053C233.646 219.021 233.741 218.165 234.17 217.483C234.608 216.8 235.27 216.339 236.156 216.102C237.128 215.842 237.943 215.902 238.602 216.282C239.259 216.654 239.7 217.262 239.926 218.106C240.104 218.77 240.095 219.453 239.9 220.154C239.704 220.855 239.436 221.493 239.097 222.067C238.756 222.634 238.299 223.332 237.727 224.161L241.497 223.15L241.894 224.633L235.581 226.325L235.224 224.996L235.738 224.255ZM247.492 214.941L243.351 216.051L243.937 218.236C244.056 217.967 244.264 217.72 244.56 217.494C244.853 217.26 245.187 217.093 245.562 216.993C246.244 216.81 246.842 216.81 247.357 216.991C247.871 217.173 248.289 217.472 248.611 217.888C248.93 218.296 249.16 218.764 249.302 219.292C249.564 220.272 249.494 221.135 249.092 221.883C248.698 222.627 247.985 223.138 246.954 223.414C245.983 223.674 245.142 223.639 244.433 223.309C243.723 222.979 243.225 222.432 242.938 221.668L244.677 221.203C244.845 221.523 245.088 221.75 245.407 221.884C245.735 222.015 246.107 222.025 246.525 221.913C247.027 221.778 247.364 221.519 247.535 221.135C247.706 220.751 247.722 220.3 247.583 219.78C247.442 219.252 247.202 218.887 246.865 218.685C246.534 218.472 246.117 218.433 245.615 218.568C245.257 218.664 244.982 218.833 244.792 219.076C244.601 219.319 244.495 219.603 244.472 219.929L242.76 220.387L241.294 214.917L247.071 213.369L247.492 214.941Z" fill="white"/>
<rect x="112.637" y="242.78" width="23.2879" height="23.2879" rx="5.29272" transform="rotate(-15 112.637 242.78)" fill="white" fill-opacity="0.1"/>
<g clip-path="url(#clip4_714_11602)">
<path d="M123.082 255.378C123.401 256.102 124.196 256.485 124.958 256.281L130.862 254.699C131.624 254.495 132.124 253.765 132.037 252.979L131.817 248.906L121.234 251.741L123.081 255.379L123.082 255.378ZM128.791 251.492C128.738 251.293 128.858 251.09 129.054 251.038C129.25 250.985 129.455 251.101 129.509 251.3L130.005 253.153C130.058 253.35 129.938 253.555 129.743 253.607C129.547 253.66 129.34 253.54 129.288 253.345L128.791 251.492ZM126.613 252.076C126.56 251.877 126.676 251.675 126.875 251.621C127.075 251.568 127.277 251.685 127.33 251.884L127.827 253.736C127.879 253.934 127.76 254.139 127.564 254.191C127.368 254.243 127.162 254.124 127.109 253.928L126.613 252.076ZM124.435 252.66C124.381 252.46 124.498 252.258 124.697 252.205C124.896 252.152 125.098 252.268 125.152 252.468L125.648 254.32C125.701 254.517 125.581 254.722 125.386 254.775C125.19 254.827 124.983 254.708 124.931 254.512L124.435 252.66Z" fill="white"/>
<path d="M131.317 246.886L129.582 247.351L127.368 245.298C127.185 245.128 126.899 245.141 126.73 245.322C126.56 245.505 126.573 245.791 126.754 245.96L128.551 247.627L123.532 248.972L124.255 246.629C124.329 246.39 124.195 246.139 123.956 246.065C123.717 245.991 123.466 246.125 123.392 246.364L122.501 249.248L120.766 249.713C120.495 249.785 120.333 250.066 120.406 250.337L120.505 250.707C120.578 250.978 120.858 251.14 121.129 251.067L131.678 248.241C131.949 248.168 132.111 247.888 132.038 247.616L131.939 247.247C131.867 246.975 131.586 246.813 131.315 246.886L131.317 246.886Z" fill="white"/>
</g>
<rect x="140.518" y="236.405" width="57.6654" height="4.58702" rx="1.31058" transform="rotate(-15 140.518 236.405)" fill="white" fill-opacity="0.1"/>
<rect x="142.892" y="245.265" width="30.1433" height="4.58702" rx="1.31058" transform="rotate(-15 142.892 245.265)" fill="white" fill-opacity="0.1"/>
</g>
<g filter="url(#filter2_bf_714_11602)">
<rect x="129.512" y="299.627" width="137.081" height="31.7563" rx="8.93575" transform="rotate(-15 129.512 299.627)" fill="white" fill-opacity="0.06"/>
</g>
<g filter="url(#filter3_bf_714_11602)">
<rect x="120.638" y="291.046" width="149.255" height="32.8148" rx="8.93575" transform="rotate(-15 120.638 291.046)" fill="white" fill-opacity="0.04"/>
</g>
<g filter="url(#filter4_b_714_11602)">
<g clip-path="url(#clip5_714_11602)">
<rect x="111.572" y="278.681" width="159.311" height="36.479" rx="10.5854" transform="rotate(-15 111.572 278.681)" fill="white" fill-opacity="0.08"/>
<path d="M236.887 263.152L237.291 264.661L231.872 266.113L231.468 264.605L236.887 263.152ZM246.25 263.589C246.369 264.032 246.366 264.48 246.241 264.934C246.122 265.377 245.875 265.785 245.501 266.159C245.132 266.523 244.656 266.806 244.071 267.008L244.348 268.044L243.53 268.263L243.249 267.215C242.377 267.366 241.622 267.295 240.986 266.999C240.348 266.695 239.919 266.171 239.701 265.426L241.619 264.912C241.834 265.512 242.249 265.798 242.862 265.77L242.208 263.329C241.554 263.34 241.018 263.319 240.602 263.266C240.186 263.214 239.796 263.053 239.432 262.785C239.068 262.518 238.808 262.09 238.65 261.502C238.451 260.761 238.553 260.085 238.956 259.475C239.367 258.862 239.986 258.409 240.811 258.115L240.533 257.079L241.351 256.86L241.629 257.896C242.465 257.745 243.183 257.817 243.783 258.113C244.391 258.406 244.826 258.92 245.086 259.654L243.156 260.171C243.065 259.931 242.918 259.742 242.717 259.604C242.522 259.455 242.29 259.376 242.023 259.365L242.67 261.781C243.352 261.772 243.897 261.795 244.305 261.85C244.719 261.894 245.107 262.05 245.471 262.318C245.833 262.577 246.093 263.001 246.25 263.589ZM240.492 260.912C240.567 261.194 240.714 261.401 240.933 261.534C241.149 261.659 241.433 261.733 241.787 261.757L241.194 259.546C240.899 259.671 240.687 259.851 240.558 260.086C240.43 260.322 240.408 260.597 240.492 260.912ZM243.687 265.577C243.995 265.43 244.211 265.231 244.335 264.979C244.468 264.724 244.495 264.452 244.418 264.162C244.342 263.881 244.192 263.679 243.968 263.557C243.743 263.434 243.45 263.362 243.088 263.34L243.687 265.577ZM246.715 257.998L246.273 256.35L249.354 255.524L251.85 264.842L250.01 265.335L247.955 257.666L246.715 257.998ZM252.593 259.519C252.198 258.045 252.153 256.82 252.457 255.843C252.77 254.865 253.544 254.21 254.78 253.879C256.015 253.548 257.009 253.729 257.761 254.422C258.522 255.113 259.099 256.196 259.494 257.67C259.892 259.153 259.935 260.388 259.624 261.375C259.322 262.36 258.553 263.018 257.318 263.349C256.082 263.68 255.083 263.496 254.32 262.796C253.566 262.094 252.99 261.002 252.593 259.519ZM257.731 258.143C257.562 257.512 257.378 256.995 257.178 256.592C256.985 256.178 256.728 255.868 256.408 255.661C256.097 255.453 255.702 255.412 255.225 255.54C254.748 255.668 254.422 255.901 254.248 256.24C254.083 256.577 254.016 256.974 254.047 257.431C254.084 257.878 254.188 258.416 254.356 259.047C254.53 259.694 254.714 260.229 254.91 260.652C255.103 261.066 255.36 261.376 255.68 261.583C255.998 261.781 256.395 261.816 256.872 261.688C257.349 261.56 257.676 261.331 257.853 261C258.027 260.662 258.094 260.265 258.054 259.809C258.012 259.346 257.904 258.79 257.731 258.143Z" fill="white"/>
<rect x="122.163" y="282.418" width="23.2879" height="23.2879" rx="5.29272" transform="rotate(-15 122.163 282.418)" fill="white" fill-opacity="0.1"/>
<g clip-path="url(#clip6_714_11602)">
<path d="M139.54 284.08L139.532 284.083C139.469 283.846 139.19 283.741 138.986 283.88C136.946 285.268 134.903 286.654 132.862 288.041C132.737 288.126 132.679 288.281 132.717 288.429C132.958 289.338 133.2 290.247 133.444 291.158C133.705 292.133 133.965 293.103 134.227 294.074C134.101 294.078 133.975 294.093 133.848 294.127C132.993 294.356 132.485 295.235 132.714 296.091C132.944 296.946 133.823 297.454 134.679 297.225C135.534 296.996 136.005 296.177 135.832 295.348L135.836 295.347L135.813 295.261L134.572 290.629C134.533 290.485 134.587 290.334 134.708 290.246L138.661 287.404C138.865 287.259 139.15 287.36 139.214 287.602L140.141 291.061C140.015 291.063 139.889 291.08 139.761 291.115C138.905 291.344 138.397 292.223 138.627 293.079C138.856 293.934 139.735 294.442 140.591 294.213C141.446 293.984 141.954 293.104 141.725 292.249C141.716 292.217 141.706 292.188 141.696 292.159L141.7 292.158L139.536 284.082L139.54 284.08Z" fill="white"/>
</g>
<rect x="150.043" y="276.043" width="57.6654" height="4.58702" rx="1.31058" transform="rotate(-15 150.043 276.043)" fill="white" fill-opacity="0.1"/>
<rect x="152.417" y="284.904" width="30.1433" height="4.58702" rx="1.31058" transform="rotate(-15 152.417 284.904)" fill="white" fill-opacity="0.1"/>
</g>
</g>
<g filter="url(#filter5_f_714_11602)">
<path d="M217.834 107.768C208.565 96.2997 191.806 94.4737 180.403 103.69C168.999 112.906 167.269 129.675 176.538 141.143C185.807 152.612 202.565 154.438 213.969 145.222C225.372 136.006 227.103 119.237 217.834 107.768Z" fill="url(#paint3_linear_714_11602)"/>
</g>
<g filter="url(#filter6_b_714_11602)">
<rect x="57.0327" y="74.1174" width="20.1123" height="20.1123" rx="10.0562" transform="rotate(-15 57.0327 74.1174)" fill="white" fill-opacity="0.1"/>
<path d="M65.4262 81.9885C65.3166 82.1784 65.3817 82.4212 65.5715 82.5308L68.6655 84.3171C68.8554 84.4267 69.0981 84.3616 69.2077 84.1718C69.3174 83.9819 69.2523 83.7391 69.0624 83.6295L66.3123 82.0417L67.9001 79.2915C68.0097 79.1017 67.9446 78.8589 67.7548 78.7493C67.5649 78.6397 67.3222 78.7047 67.2125 78.8946L65.4262 81.9885ZM73.5413 80.5157C73.7531 80.4589 73.8787 80.2413 73.822 80.0295C73.7653 79.8177 73.5476 79.6921 73.3358 79.7488L73.5413 80.5157ZM65.8728 82.5704L73.5413 80.5157L73.3358 79.7488L65.6673 81.8036L65.8728 82.5704Z" fill="white"/>
</g>
<g clip-path="url(#clip7_714_11602)">
<rect x="64.9414" y="101.587" width="158.781" height="91.0347" rx="10.5854" transform="rotate(-15 64.9414 101.587)" fill="white" fill-opacity="0.14"/>
<g filter="url(#filter7_b_714_11602)">
<rect x="75.9609" y="107.95" width="24.2224" height="24.2224" rx="12.1112" transform="rotate(-15 75.9609 107.95)" fill="url(#paint4_linear_714_11602)"/>
<g clip-path="url(#clip8_714_11602)">
<path d="M86.5137 115.927C85.2687 115.424 84.3986 114.319 84.0311 113.296C83.9737 113.133 83.8027 113.076 83.6575 113.115C83.551 113.143 83.4583 113.223 83.4293 113.347C82.9067 115.617 84.0582 118.237 85.5446 119.009C85.6136 118.143 85.8608 117.233 86.2735 116.386C86.3493 116.23 86.4299 116.079 86.5145 115.93L86.5137 115.927ZM95.5934 110.088C95.5062 109.995 95.386 109.972 95.2796 110C95.1311 110.04 95.0142 110.172 95.0433 110.345C95.2366 111.415 95.0363 112.81 94.2099 113.868C94.3576 113.955 94.5028 114.045 94.6464 114.142C95.4276 114.67 96.0967 115.334 96.5891 116.049C97.4904 114.638 97.1786 111.796 95.5934 110.088ZM91.9559 113.845L93.079 118.037L96.2991 117.174C95.5587 115.65 93.8292 114.19 91.9559 113.845ZM89.5814 118.974L88.4583 114.782C87.0075 116.015 86.2428 118.143 86.3613 119.837L89.5814 118.974ZM96.6181 117.887L86.4415 120.614C86.2576 120.663 86.1464 120.842 86.1924 121.014L86.5585 122.38C86.6045 122.552 86.7901 122.65 86.974 122.601L97.1474 119.875C97.3313 119.826 97.4426 119.647 97.3965 119.476L97.0305 118.11C96.9844 117.938 96.7988 117.839 96.6149 117.888L96.6181 117.887ZM91.0813 113.769C90.7538 113.773 90.423 113.816 90.0972 113.904C89.7713 113.991 89.4664 114.118 89.1777 114.279L90.3776 118.758L92.278 118.248L91.0781 113.77L91.0813 113.769Z" fill="white"/>
</g>
</g>
<path d="M98.8979 172.432C98.9828 172.748 98.986 173.066 98.9076 173.384C98.8348 173.7 98.66 173.986 98.3831 174.242C98.1119 174.497 97.7331 174.689 97.2468 174.82L96.2543 175.086L96.8634 177.359L95.6759 177.677L94.0894 171.756L96.2694 171.172C96.7275 171.049 97.1389 171.024 97.5036 171.096C97.8684 171.168 98.1671 171.321 98.3997 171.556C98.6379 171.789 98.804 172.081 98.8979 172.432ZM96.939 173.875C97.267 173.787 97.4905 173.648 97.6094 173.459C97.7269 173.264 97.7492 173.03 97.6765 172.759C97.5219 172.182 97.1223 171.98 96.4776 172.153L95.5361 172.405L95.9975 174.127L96.939 173.875ZM101.13 171.961C101.216 171.671 101.362 171.423 101.567 171.216C101.778 171.008 102.042 170.862 102.358 170.777L102.693 172.024L102.379 172.108C102.005 172.208 101.746 172.372 101.601 172.598C101.461 172.824 101.45 173.154 101.566 173.589L102.194 175.931L101.006 176.249L99.7471 171.55L100.935 171.231L101.13 171.961ZM106.712 174.802C106.26 174.923 105.826 174.933 105.411 174.832C104.995 174.725 104.633 174.516 104.325 174.205C104.023 173.892 103.808 173.495 103.679 173.014C103.55 172.534 103.541 172.082 103.652 171.658C103.768 171.233 103.984 170.872 104.298 170.576C104.611 170.273 104.994 170.062 105.446 169.941C105.899 169.819 106.336 169.811 106.758 169.916C107.179 170.016 107.543 170.221 107.851 170.533C108.164 170.843 108.385 171.238 108.514 171.719C108.643 172.199 108.646 172.653 108.524 173.08C108.408 173.505 108.19 173.869 107.871 174.173C107.557 174.469 107.171 174.679 106.712 174.802ZM106.435 173.767C106.65 173.709 106.837 173.605 106.997 173.453C107.16 173.294 107.27 173.095 107.327 172.855C107.384 172.615 107.373 172.346 107.292 172.046C107.173 171.599 106.962 171.289 106.661 171.115C106.364 170.934 106.046 170.889 105.707 170.98C105.367 171.071 105.114 171.269 104.948 171.574C104.785 171.872 104.764 172.245 104.883 172.692C105.003 173.138 105.206 173.454 105.491 173.638C105.781 173.815 106.096 173.858 106.435 173.767ZM112.852 169.293L113.12 170.294L109.524 171.257L109.256 170.256L112.852 169.293ZM118.521 167.174C118.606 167.49 118.609 167.808 118.531 168.126C118.458 168.442 118.283 168.728 118.006 168.984C117.735 169.239 117.356 169.431 116.87 169.562L115.878 169.828L116.487 172.101L115.299 172.419L113.713 166.498L115.893 165.914C116.351 165.791 116.762 165.766 117.127 165.838C117.492 165.91 117.79 166.063 118.023 166.298C118.261 166.531 118.427 166.823 118.521 167.174ZM116.562 168.617C116.89 168.529 117.114 168.39 117.233 168.201C117.35 168.006 117.372 167.772 117.3 167.501C117.145 166.924 116.746 166.722 116.101 166.895L115.159 167.147L115.621 168.869L116.562 168.617ZM120.135 164.396L121.817 170.673L120.63 170.991L118.948 164.714L120.135 164.396ZM122.221 168.028C122.093 167.553 122.074 167.107 122.162 166.689C122.256 166.27 122.437 165.918 122.706 165.634C122.981 165.348 123.32 165.151 123.721 165.044C124.072 164.95 124.396 164.939 124.694 165.01C124.998 165.081 125.257 165.202 125.473 165.374L125.294 164.704L126.49 164.384L127.749 169.083L126.553 169.404L126.369 168.716C126.275 168.978 126.112 169.219 125.88 169.438C125.653 169.651 125.363 169.804 125.013 169.898C124.617 170.004 124.228 169.999 123.845 169.884C123.468 169.766 123.134 169.55 122.844 169.234C122.557 168.911 122.349 168.509 122.221 168.028ZM125.923 167.054C125.846 166.766 125.724 166.535 125.556 166.361C125.387 166.182 125.192 166.065 124.971 166.009C124.748 165.948 124.527 165.946 124.306 166.005C124.085 166.065 123.896 166.173 123.738 166.33C123.581 166.488 123.47 166.687 123.408 166.928C123.349 167.162 123.358 167.42 123.433 167.703C123.509 167.986 123.632 168.219 123.803 168.404C123.978 168.581 124.174 168.702 124.391 168.765C124.613 168.826 124.832 168.828 125.047 168.771C125.267 168.712 125.46 168.603 125.623 168.444C125.785 168.279 125.895 168.08 125.954 167.846C126.011 167.606 126.001 167.342 125.923 167.054ZM132.315 162.823L131.26 170.524L129.996 170.863L130.387 168.249L127.276 164.173L128.608 163.816L130.701 166.774L131.051 163.162L132.315 162.823ZM138.096 163.683C138.141 163.853 138.171 164.009 138.184 164.15L134.749 165.071C134.868 165.403 135.058 165.637 135.319 165.773C135.58 165.909 135.863 165.936 136.168 165.854C136.609 165.736 136.872 165.463 136.957 165.034L138.238 164.691C138.224 165.179 138.064 165.622 137.758 166.019C137.451 166.411 137.017 166.682 136.457 166.832C136.005 166.953 135.571 166.963 135.156 166.862C134.745 166.754 134.389 166.543 134.087 166.23C133.79 165.916 133.578 165.518 133.449 165.037C133.319 164.551 133.303 164.098 133.403 163.677C133.502 163.256 133.703 162.899 134.007 162.606C134.31 162.313 134.693 162.104 135.157 161.98C135.604 161.86 136.028 161.849 136.43 161.948C136.838 162.044 137.186 162.245 137.474 162.55C137.766 162.847 137.973 163.225 138.096 163.683ZM136.775 163.674C136.687 163.37 136.512 163.156 136.248 163.033C135.984 162.904 135.696 162.881 135.385 162.964C135.091 163.043 134.866 163.2 134.711 163.436C134.56 163.664 134.504 163.943 134.544 164.271L136.775 163.674ZM139.913 161.569C139.999 161.279 140.144 161.031 140.35 160.825C140.561 160.617 140.824 160.47 141.141 160.385L141.475 161.632L141.161 161.716C140.788 161.816 140.529 161.98 140.384 162.207C140.244 162.432 140.232 162.762 140.349 163.198L140.976 165.539L139.789 165.857L138.53 161.158L139.717 160.84L139.913 161.569Z" fill="white"/>
<path d="M208.978 142.836L208.731 141.913L210.456 141.451L211.854 146.669L210.823 146.945L209.672 142.65L208.978 142.836ZM212.672 145.36L212.461 144.573L213.903 140.596L215.07 140.283L215.945 143.547L216.574 143.378L216.808 144.252L216.179 144.42L216.451 145.437L215.449 145.705L215.177 144.689L212.672 145.36ZM214.42 141.608L213.54 144.192L215.007 143.798L214.42 141.608ZM218.844 137.531L219.075 146.122L218.094 146.385L217.864 137.794L218.844 137.531ZM221.498 142.872C221.854 142.368 222.134 141.953 222.338 141.627C222.541 141.297 222.696 140.969 222.803 140.643C222.91 140.318 222.928 140.022 222.856 139.754C222.791 139.511 222.683 139.336 222.531 139.228C222.379 139.12 222.184 139.098 221.946 139.162C221.707 139.226 221.545 139.357 221.46 139.553C221.373 139.745 221.365 139.98 221.434 140.258L220.461 140.519C220.326 139.941 220.379 139.462 220.62 139.08C220.865 138.698 221.236 138.44 221.732 138.307C222.276 138.161 222.732 138.195 223.101 138.408C223.469 138.616 223.716 138.956 223.843 139.429C223.943 139.801 223.938 140.183 223.828 140.576C223.718 140.968 223.569 141.325 223.379 141.647C223.188 141.964 222.932 142.355 222.611 142.82L224.723 142.254L224.945 143.084L221.409 144.031L221.21 143.287L221.498 142.872ZM225.872 139.951C225.328 139.831 224.987 139.511 224.847 138.991C224.778 138.733 224.78 138.482 224.853 138.238C224.929 137.987 225.081 137.765 225.31 137.57C225.543 137.37 225.85 137.218 226.232 137.116C226.614 137.014 226.953 136.992 227.25 137.051C227.551 137.103 227.794 137.219 227.98 137.4C228.17 137.574 228.3 137.79 228.369 138.047C228.439 138.31 228.437 138.558 228.361 138.793C228.285 139.023 228.154 139.222 227.969 139.389C228.262 139.434 228.512 139.546 228.719 139.726C228.925 139.905 229.069 140.146 229.15 140.446C229.237 140.771 229.229 141.077 229.127 141.365C229.029 141.647 228.854 141.891 228.602 142.096C228.35 142.302 228.046 142.453 227.688 142.549C227.33 142.645 226.99 142.666 226.67 142.614C226.354 142.561 226.08 142.437 225.849 142.243C225.622 142.044 225.465 141.781 225.378 141.457C225.297 141.156 225.301 140.876 225.39 140.617C225.478 140.353 225.639 140.131 225.872 139.951ZM227.434 138.451C227.371 138.217 227.251 138.055 227.073 137.965C226.9 137.873 226.692 137.86 226.449 137.925C226.21 137.989 226.037 138.104 225.928 138.272C225.824 138.438 225.804 138.64 225.868 138.878C225.926 139.093 226.043 139.246 226.221 139.336C226.403 139.425 226.609 139.439 226.838 139.378C227.067 139.317 227.238 139.202 227.352 139.033C227.464 138.86 227.491 138.666 227.434 138.451ZM227.034 140.108C226.762 140.181 226.558 140.309 226.424 140.494C226.294 140.677 226.263 140.897 226.332 141.155C226.396 141.394 226.53 141.568 226.733 141.677C226.94 141.78 227.184 141.794 227.465 141.718C227.747 141.643 227.948 141.507 228.069 141.311C228.191 141.115 228.22 140.9 228.158 140.666C228.09 140.413 227.954 140.24 227.75 140.146C227.544 140.048 227.306 140.035 227.034 140.108Z" fill="white"/>
<path d="M204.743 81.5484C203.919 81.476 203.089 81.5514 202.291 81.771C199.707 82.4634 198.23 84.2542 198.718 86.1264C199.07 87.5036 200.59 87.9254 201.707 88.1179C202.852 88.3165 203.272 88.5223 203.382 88.9447C203.548 89.5877 202.818 90.0948 202.067 90.296C201.035 90.5725 200.433 90.5798 199.469 90.4521L199.107 90.388L199.317 92.6376C200.015 92.7309 201.208 92.652 202.382 92.358C205.13 91.6219 206.579 89.847 206.067 87.8531C205.796 86.7504 204.863 86.1123 203.184 85.8282C202.156 85.6277 201.513 85.4815 201.392 85.0309C201.285 84.632 201.654 84.0762 202.663 83.8057C203.33 83.6094 204.032 83.5566 204.721 83.6506L204.992 83.6939L204.802 81.517L204.743 81.5484ZM211.387 79.5206L209.368 80.0616C208.74 80.2299 208.313 80.5295 208.206 81.2265L206.68 91.0629L209.427 90.3267L209.59 88.7373L212.943 87.8421C213.113 88.1584 213.651 89.195 213.651 89.195L216.073 88.5459L211.387 79.5206ZM194.177 84.0454L196.796 83.3439L197.729 93.3797L195.114 94.0804L194.177 84.0422L194.177 84.0454ZM188.949 91.1158L189.577 92.3755L190.383 85.1488L193.156 84.4057L191.602 95.089L188.836 95.8303L184.401 88.3251C184.329 88.2011 184.212 88.1093 184.074 88.0681C183.146 87.8655 182.197 87.7774 181.248 87.8058L181.23 87.5944L185.443 86.4653C186.021 86.3347 186.53 86.3907 186.847 86.9601L188.948 91.121L188.949 91.1158ZM209.815 86.5737L210.139 83.6098C210.134 83.6423 210.205 82.9982 210.241 82.6026L210.643 83.3831L211.99 85.9891L209.813 86.5725L209.815 86.5737Z" fill="white"/>
<g opacity="0.1">
<path d="M187.926 97.2077C187.12 95.5341 185.435 92.9661 181.643 90.7975C181.476 90.7017 181.26 90.741 181.135 90.8886C180.076 92.1494 178.021 94.2301 174.823 95.5525C172.464 96.5271 170.348 96.7331 168.922 96.7432L169.977 94.2845C170.235 93.685 169.956 92.9896 169.357 92.7339L166.876 91.6708C166.277 91.4126 165.581 91.6915 165.326 92.2905L164.13 95.0796C163.207 94.6506 162.287 94.2211 161.364 93.7921C161.316 93.7682 161.26 93.756 161.208 93.7532C157.125 93.5997 156.085 93.9815 155.996 94.4095C155.842 95.1479 158.579 95.7735 160.098 98.4611C160.818 99.738 161.019 101.049 161.062 102.021C161.065 102.08 161.054 102.138 161.031 102.192C160.634 103.162 160.235 104.133 159.838 105.101L139.883 151.667C139.009 151.619 138.157 152.111 137.792 152.965C137.323 154.054 137.831 155.316 138.92 155.785L142.219 157.199C143.309 157.668 144.571 157.161 145.039 156.071C145.405 155.22 145.173 154.264 144.535 153.664L164.094 108.008C164.147 107.99 164.199 107.967 164.243 107.928C165.028 107.229 167.329 105.408 169.781 106.005C171.236 106.358 172.118 107.398 172.5 107.873C175.732 111.915 175.526 124.35 175.384 128.136C175.371 128.492 175.791 128.686 176.058 128.446C187.428 118.258 191.866 105.38 187.925 97.2028L187.926 97.2077Z" fill="white"/>
<path d="M181.272 141.309C180.529 140.754 179.545 140.752 178.812 141.231L138.248 110.883C137.417 110.242 136.588 109.6 135.76 108.958C135.712 108.921 135.676 108.877 135.648 108.826C135.199 107.962 134.717 106.726 134.703 105.26C134.671 102.174 136.731 100.263 136.229 99.7007C135.938 99.3745 134.844 99.5645 131.387 101.738C131.341 101.767 131.301 101.805 131.271 101.85C130.686 102.683 130.104 103.515 129.52 104.348L127.09 102.53C126.566 102.14 125.827 102.246 125.437 102.769L123.82 104.93C123.43 105.454 123.535 106.193 124.058 106.583L126.201 108.185C124.963 108.891 123.025 109.772 120.495 110.104C117.065 110.558 114.243 109.784 112.697 109.221C112.514 109.153 112.311 109.229 112.212 109.396C110.008 113.174 109.835 116.24 109.972 118.093C110.648 127.145 120.932 136.078 135.871 139.217C136.219 139.292 136.488 138.911 136.299 138.611C134.285 135.401 127.889 124.734 128.665 119.622C128.757 119.02 129.003 117.677 130.086 116.643C131.911 114.901 134.814 115.327 135.846 115.54C135.904 115.552 135.96 115.546 136.015 115.535L175.782 145.288C175.53 146.127 175.807 147.071 176.55 147.625C177.5 148.334 178.846 148.14 179.556 147.192L181.705 144.317C182.415 143.367 182.221 142.021 181.272 141.311L181.272 141.309Z" fill="white"/>
</g>
</g>
</g>
<rect x="42.7725" y="65.884" width="183.128" height="294.804" rx="15.8781" transform="rotate(-15 42.7725 65.884)" stroke="url(#paint5_linear_714_11602)" stroke-width="1.05854"/>
</g>
<g filter="url(#filter8_b_714_11602)">
<rect x="279.336" y="116.024" width="68.8053" height="68.8053" rx="34.4026" transform="rotate(5.63985 279.336 116.024)" fill="url(#paint6_linear_714_11602)"/>
<rect x="279.336" y="116.024" width="68.8053" height="68.8053" rx="34.4026" transform="rotate(5.63985 279.336 116.024)" stroke="#FF6E75" stroke-width="1.05854" stroke-miterlimit="10"/>
<path d="M293.003 146.301L286.631 157.358L292.891 157.976L293.849 156.207L295.623 156.383L296.217 158.304L303.108 158.985L303.247 157.577L303.722 159.045L307.287 159.398L308.043 158.02L307.901 159.458L322.232 160.873L324.152 159.248L325.607 161.207L332.966 161.948L328.29 155.661L334.11 150.361L326.864 149.645L324.993 151.242L323.587 149.322L307.996 147.782L306.363 150.637L305.287 147.514L299.04 146.898L298.906 148.258L298.345 146.829L293.003 146.301ZM294.052 148.064L297.104 148.366L299.797 156.556L300.572 148.708L303.915 149.038L306.039 154.93L309.064 149.547L312.39 149.875L311.57 158.179L309.546 157.98L310.172 151.471L306.579 157.687L304.768 157.508L302.444 150.708L301.801 157.215L297.637 156.804L297.032 154.864L292.767 154.443L291.796 156.225L289.565 156.005L294.052 148.064ZM314.242 150.058L322.471 150.871L324.72 153.838L327.587 151.376L330.104 151.625L325.867 155.421L329.284 159.924L326.653 159.664L324.408 156.665L321.524 159.158L313.422 158.357L314.242 150.058ZM295.398 149.616L293.665 152.794L296.474 153.071L295.398 149.616ZM316.104 151.978L315.954 153.494L320.444 153.937L320.277 155.627L315.788 155.184L315.624 156.839L320.66 157.336L323.241 155.129L321.239 152.484L316.104 151.977L316.104 151.978Z" fill="white"/>
</g>
<defs>
<filter id="filter0_b_714_11602" x="39.6951" y="-15.2351" width="109.996" height="109.996" filterUnits="userSpaceOnUse" color-interpolation-filters="sRGB">
<feFlood flood-opacity="0" result="BackgroundImageFix"/>
<feGaussianBlur in="BackgroundImageFix" stdDeviation="7.93907"/>
<feComposite in2="SourceAlpha" operator="in" result="effect1_backgroundBlur_714_11602"/>
<feBlend mode="normal" in="SourceGraphic" in2="effect1_backgroundBlur_714_11602" result="shape"/>
</filter>
<filter id="filter1_b_714_11602" x="-10.1547" y="-34.4401" width="359.043" height="438.01" filterUnits="userSpaceOnUse" color-interpolation-filters="sRGB">
<feFlood flood-opacity="0" result="BackgroundImageFix"/>
<feGaussianBlur in="BackgroundImageFix" stdDeviation="26.4636"/>
<feComposite in2="SourceAlpha" operator="in" result="effect1_backgroundBlur_714_11602"/>
<feBlend mode="normal" in="SourceGraphic" in2="effect1_backgroundBlur_714_11602" result="shape"/>
</filter>
<filter id="filter2_bf_714_11602" x="111.641" y="246.276" width="176.372" height="101.897" filterUnits="userSpaceOnUse" color-interpolation-filters="sRGB">
<feFlood flood-opacity="0" result="BackgroundImageFix"/>
<feGaussianBlur in="BackgroundImageFix" stdDeviation="8.93575"/>
<feComposite in2="SourceAlpha" operator="in" result="effect1_backgroundBlur_714_11602"/>
<feBlend mode="normal" in="SourceGraphic" in2="effect1_backgroundBlur_714_11602" result="shape"/>
<feGaussianBlur stdDeviation="0.529271" result="effect2_foregroundBlur_714_11602"/>
</filter>
<filter id="filter3_bf_714_11602" x="102.766" y="234.545" width="188.405" height="106.07" filterUnits="userSpaceOnUse" color-interpolation-filters="sRGB">
<feFlood flood-opacity="0" result="BackgroundImageFix"/>
<feGaussianBlur in="BackgroundImageFix" stdDeviation="8.93575"/>
<feComposite in2="SourceAlpha" operator="in" result="effect1_backgroundBlur_714_11602"/>
<feBlend mode="normal" in="SourceGraphic" in2="effect1_backgroundBlur_714_11602" result="shape"/>
<feGaussianBlur stdDeviation="0.529271" result="effect2_foregroundBlur_714_11602"/>
</filter>
<filter id="filter4_b_714_11602" x="79.8155" y="205.692" width="226.836" height="139.981" filterUnits="userSpaceOnUse" color-interpolation-filters="sRGB">
<feFlood flood-opacity="0" result="BackgroundImageFix"/>
<feGaussianBlur in="BackgroundImageFix" stdDeviation="15.8781"/>
<feComposite in2="SourceAlpha" operator="in" result="effect1_backgroundBlur_714_11602"/>
<feBlend mode="normal" in="SourceGraphic" in2="effect1_backgroundBlur_714_11602" result="shape"/>
</filter>
<filter id="filter5_f_714_11602" x="122.942" y="50.1803" width="148.487" height="148.551" filterUnits="userSpaceOnUse" color-interpolation-filters="sRGB">
<feFlood flood-opacity="0" result="BackgroundImageFix"/>
<feBlend mode="normal" in="SourceGraphic" in2="BackgroundImageFix" result="shape"/>
<feGaussianBlur stdDeviation="23.8172" result="effect1_foregroundBlur_714_11602"/>
</filter>
<filter id="filter6_b_714_11602" x="42.8191" y="54.6983" width="53.0595" height="53.0598" filterUnits="userSpaceOnUse" color-interpolation-filters="sRGB">
<feFlood flood-opacity="0" result="BackgroundImageFix"/>
<feGaussianBlur in="BackgroundImageFix" stdDeviation="7.1068"/>
<feComposite in2="SourceAlpha" operator="in" result="effect1_backgroundBlur_714_11602"/>
<feBlend mode="normal" in="SourceGraphic" in2="effect1_backgroundBlur_714_11602" result="shape"/>
</filter>
<filter id="filter7_b_714_11602" x="46.5622" y="72.2817" width="88.464" height="88.4638" filterUnits="userSpaceOnUse" color-interpolation-filters="sRGB">
<feFlood flood-opacity="0" result="BackgroundImageFix"/>
<feGaussianBlur in="BackgroundImageFix" stdDeviation="14.6994"/>
<feComposite in2="SourceAlpha" operator="in" result="effect1_backgroundBlur_714_11602"/>
<feBlend mode="normal" in="SourceGraphic" in2="effect1_backgroundBlur_714_11602" result="shape"/>
</filter>
<filter id="filter8_b_714_11602" x="256.697" y="100.146" width="106.99" height="106.99" filterUnits="userSpaceOnUse" color-interpolation-filters="sRGB">
<feFlood flood-opacity="0" result="BackgroundImageFix"/>
<feGaussianBlur in="BackgroundImageFix" stdDeviation="7.93907"/>
<feComposite in2="SourceAlpha" operator="in" result="effect1_backgroundBlur_714_11602"/>
<feBlend mode="normal" in="SourceGraphic" in2="effect1_backgroundBlur_714_11602" result="shape"/>
</filter>
<linearGradient id="paint0_linear_714_11602" x1="79.6976" y1="24.4551" x2="124.145" y2="94.134" gradientUnits="userSpaceOnUse">
<stop stop-color="#000223" stop-opacity="0.58"/>
<stop offset="1" stop-color="#FF6E75" stop-opacity="0.71"/>
</linearGradient>
<linearGradient id="paint1_linear_714_11602" x1="33.683" y1="300.582" x2="130.431" y2="207.933" gradientUnits="userSpaceOnUse">
<stop stop-color="#FF6E75"/>
<stop offset="1" stop-color="#FBBE7E"/>
</linearGradient>
<radialGradient id="paint2_radial_714_11602" cx="0" cy="0" r="1" gradientUnits="userSpaceOnUse" gradientTransform="translate(-11.2604 268.416) rotate(5.87222) scale(211.174 136.533)">
<stop stop-color="#935E5D"/>
<stop offset="0.652108" stop-color="#161635"/>
</radialGradient>
<linearGradient id="paint3_linear_714_11602" x1="232.812" y1="140.167" x2="158.353" y2="98.4751" gradientUnits="userSpaceOnUse">
<stop stop-color="#FF6E75"/>
<stop offset="1" stop-color="#FBBE7E"/>
</linearGradient>
<linearGradient id="paint4_linear_714_11602" x1="100.06" y1="95.5814" x2="88.0722" y2="132.172" gradientUnits="userSpaceOnUse">
<stop stop-color="#FBBE7E"/>
<stop offset="1" stop-color="#FF6E75"/>
</linearGradient>
<linearGradient id="paint5_linear_714_11602" x1="216.731" y1="48.6581" x2="0.952687" y2="245.139" gradientUnits="userSpaceOnUse">
<stop stop-color="#FBBE7E"/>
<stop offset="1" stop-color="#FF6E75"/>
</linearGradient>
<linearGradient id="paint6_linear_714_11602" x1="293.267" y1="139.836" x2="337.714" y2="209.515" gradientUnits="userSpaceOnUse">
<stop stop-color="#000223" stop-opacity="0.58"/>
<stop offset="1" stop-color="#FF6E75" stop-opacity="0.71"/>
</linearGradient>
<clipPath id="clip0_714_11602">
<rect width="21.2741" height="34.7149" fill="white" transform="translate(257.805 102.021) rotate(15.3977)"/>
</clipPath>
<clipPath id="clip1_714_11602">
<rect x="42.7725" y="65.884" width="183.128" height="294.804" rx="15.8781" transform="rotate(-15 42.7725 65.884)" fill="white"/>
</clipPath>
<clipPath id="clip2_714_11602">
<rect width="12.7025" height="12.7025" fill="white" transform="translate(107.648 205.76) rotate(-15)"/>
</clipPath>
<clipPath id="clip3_714_11602">
<rect x="101.005" y="238.225" width="158.781" height="37.049" rx="10.5854" transform="rotate(-15 101.005 238.225)" fill="white"/>
</clipPath>
<clipPath id="clip4_714_11602">
<rect width="12.7025" height="12.7025" fill="white" transform="translate(118.982 246.011) rotate(-15)"/>
</clipPath>
<clipPath id="clip5_714_11602">
<rect x="111.572" y="278.681" width="159.311" height="36.479" rx="10.5854" transform="rotate(-15 111.572 278.681)" fill="white"/>
</clipPath>
<clipPath id="clip6_714_11602">
<rect width="12.7025" height="12.7025" fill="white" transform="translate(128.645 286.161) rotate(-15)"/>
</clipPath>
<clipPath id="clip7_714_11602">
<rect x="64.9414" y="101.587" width="158.781" height="91.0347" rx="10.5854" transform="rotate(-15 64.9414 101.587)" fill="white"/>
</clipPath>
<clipPath id="clip8_714_11602">
<rect width="14.993" height="14.993" fill="white" transform="translate(81.5791 111.084) rotate(-15)"/>
</clipPath>
</defs>
</svg>
