<svg width="159" height="47" viewBox="0 0 159 47" fill="none" xmlns="http://www.w3.org/2000/svg">
<g opacity="0.5" clip-path="url(#clip0_401_2502)">
<path d="M24.8447 0.345215H25.2802C26.052 0.443341 26.831 0.498667 27.5997 0.632285C31.2141 1.20851 34.6834 2.67101 37.6169 4.86005C40.1202 6.72862 42.259 9.09095 43.8443 11.7831C45.5883 14.7468 46.6274 18.1164 46.8729 21.5446C47.347 27.8246 45.156 34.2613 40.9045 38.915C38.42 41.6594 35.2442 43.7628 31.7582 45.004C33.3623 44.1908 34.6333 42.8557 35.6964 41.4297C36.5256 40.271 37.289 39.0225 37.6389 37.6268C35.8812 39.3586 33.5513 40.4004 31.1734 40.9599C28.5469 41.5602 25.723 41.6207 23.1675 40.6812C24.2996 40.6249 25.4045 40.2793 26.3903 39.7261C27.8628 38.8899 29.1965 37.6936 29.9275 36.1424C26.8572 37.1049 23.3733 37.0621 20.4878 35.5442C18.891 34.7091 17.5219 33.3708 16.8263 31.6923C16.0775 29.9166 16.0807 27.905 16.5339 26.0542C16.818 27.1242 17.2336 28.1702 17.8665 29.0846C18.7228 30.3519 20.023 31.3175 21.5018 31.7257C23.508 32.2946 25.6666 31.9658 27.5767 31.2058C30.3212 30.0951 32.7253 28.1023 34.2396 25.5511C34.9769 24.3234 35.4176 22.9434 35.7037 21.5477C36.1068 19.58 36.1235 17.5371 35.7685 15.56C35.1983 12.3458 33.7038 9.35297 31.7499 6.75994C29.8398 4.24833 27.512 2.03841 24.8447 0.345215Z" fill="white"/>
<path d="M5.09319 10.0951C7.7458 6.2703 11.6182 3.32026 15.9992 1.75024C14.3825 2.61146 13.0907 3.96643 12.0244 5.43414C11.2328 6.55737 10.5102 7.7662 10.1718 9.11073C11.9952 7.31732 14.4254 6.26195 16.8963 5.71912C19.4455 5.17943 22.1754 5.14081 24.6442 6.05943C23.5915 6.10641 22.5618 6.41018 21.6323 6.89872C20.0721 7.73384 18.6507 8.96876 17.8894 10.592C20.7822 9.69218 24.0259 9.67235 26.8143 10.9417C28.5531 11.7257 30.0872 13.0671 30.8872 14.8208C31.73 16.6414 31.7477 18.75 31.2778 20.6729C30.9687 19.533 30.5186 18.416 29.8105 17.4619C28.927 16.2374 27.6111 15.3334 26.1449 14.9649C24.1565 14.4575 22.0396 14.7989 20.1629 15.5609C17.4727 16.6675 15.1167 18.6216 13.6129 21.1176C12.8181 22.4214 12.3576 23.8975 12.0693 25.3881C11.7007 27.3131 11.7038 29.3059 12.0537 31.2329C12.6354 34.446 14.1382 37.4357 16.0994 40.0256C17.998 42.5111 20.3071 44.7002 22.9503 46.3808H22.4636C20.1076 46.1825 17.7662 45.7127 15.5616 44.8453C8.96558 42.3003 3.6635 36.5724 1.74506 29.7579C1.22602 27.9718 0.971207 26.121 0.873039 24.267V23.0446C0.980606 18.44 2.44476 13.8688 5.09319 10.0951Z" fill="white"/>
<path d="M98.3084 3.89661C100.91 3.43103 103.701 3.77447 106.019 5.08247C105.655 6.02615 105.267 6.95835 104.888 7.89576C102.959 6.84247 100.598 6.22866 98.4599 6.99488C97.5931 7.31014 97.1022 8.53045 97.7246 9.28101C98.1894 9.74345 98.8442 9.94701 99.4624 10.1172C100.579 10.3771 101.682 10.6903 102.791 10.9815C104.005 11.3135 105.237 11.8626 106.012 12.896C106.82 14.0109 106.872 15.5329 106.411 16.797C106.012 17.9213 105.096 18.7982 104.044 19.3253C102.604 20.0655 100.943 20.1876 99.3507 20.1563C97.2714 20.0853 95.1786 19.5153 93.4491 18.3389C93.8658 17.414 94.2815 16.4901 94.7003 15.5663C96.4819 16.7605 98.6687 17.3827 100.814 17.1687C101.44 17.0998 102.109 16.9651 102.586 16.5214C103.048 16.1122 103.193 15.3481 102.825 14.8335C102.481 14.3867 101.95 14.1393 101.429 13.9629C99.6849 13.4065 97.8479 13.1403 96.1644 12.3991C95.2485 11.9471 94.4016 11.2289 94.0392 10.2508C93.5818 8.93548 93.7144 7.40096 94.4809 6.22658C95.3269 4.92171 96.8161 4.18263 98.3084 3.89661Z" fill="white"/>
<path d="M57.9561 3.97488C60.4385 3.97488 62.9198 3.96757 65.4022 3.97696C67.3102 3.98636 69.2464 4.49265 70.8233 5.58769C71.852 6.29649 72.6906 7.27775 73.2201 8.40933C74.1976 10.4835 74.2341 12.9628 73.384 15.085C72.9245 16.2615 72.1277 17.297 71.1251 18.0622C69.5618 19.2596 67.5869 19.8629 65.6278 19.8953C63.0702 19.8995 60.5137 19.8974 57.9561 19.8953C57.9529 14.5881 57.954 9.28098 57.9561 3.97488ZM61.6447 6.99799C61.6405 10.2894 61.6415 13.5818 61.6447 16.8732C63.5119 16.7824 65.4513 17.1425 67.2548 16.4953C68.4934 16.0705 69.497 15.061 69.9294 13.8271C70.5142 12.2331 70.3346 10.3405 69.3456 8.94381C68.6532 7.95733 67.5232 7.34352 66.3525 7.12952C64.7986 6.8341 63.2122 7.0721 61.6447 6.99799Z" fill="white"/>
<path d="M76.6249 12.5608C76.6322 9.69846 76.6249 6.83611 76.6291 3.9748C77.8583 3.97375 79.0864 3.97167 80.3156 3.9748C80.3292 7.0428 80.2916 10.1108 80.3344 13.1788C80.3553 14.2102 80.6069 15.301 81.316 16.085C81.9343 16.7761 82.9003 16.9994 83.7922 17.037C84.8469 17.061 86.0041 16.7124 86.6463 15.8261C87.2385 15.0067 87.3836 13.9638 87.4076 12.9784C87.4358 9.97718 87.4087 6.97599 87.4202 3.9748C88.6337 3.97271 89.8462 3.97375 91.0597 3.9748C91.0545 7.07516 91.0743 10.1766 91.0503 13.2769C91.0054 15.0004 90.5292 16.7969 89.3324 18.0872C88.2003 19.3524 86.5106 19.9923 84.8449 20.1228C83.1133 20.2658 81.2847 20.0852 79.7506 19.2094C78.464 18.4953 77.5021 17.2562 77.0604 15.8595C76.7053 14.7989 76.6239 13.6715 76.6249 12.5608Z" fill="white"/>
<path d="M107.205 3.96958C111.833 3.9675 116.461 3.9675 121.09 3.96958C121.093 4.96963 121.09 5.96968 121.091 6.97077C119.392 6.97913 117.694 6.97182 115.995 6.97495C115.989 11.2831 115.995 15.5912 115.992 19.8983C114.762 19.9004 113.533 19.9015 112.304 19.8983C112.3 15.5902 112.306 11.2821 112.301 6.97495C110.6 6.96764 108.898 6.98956 107.198 6.96242C107.205 5.96446 107.203 4.96754 107.205 3.96958Z" fill="white"/>
<path d="M101.738 27.3299C102.466 27.3278 103.193 27.3309 103.922 27.3289C103.926 28.2099 103.922 29.092 103.926 29.973C105.078 29.9751 106.23 29.972 107.383 29.9741C107.384 30.5722 107.384 31.1704 107.383 31.7685C106.23 31.7706 105.078 31.7675 103.926 31.7696C103.925 33.9263 103.92 36.084 103.925 38.2407C103.926 38.7344 104.004 39.2543 104.298 39.6656C104.593 40.0831 105.114 40.2742 105.608 40.3149C106.291 40.3692 106.955 40.1259 107.544 39.7992C107.765 40.3191 107.992 40.8379 108.217 41.3567C107.013 42.1772 105.421 42.4016 104.039 41.9392C103.506 41.7565 102.986 41.4851 102.611 41.055C102.008 40.3744 101.746 39.4495 101.744 38.5528C101.723 36.2928 101.744 34.0317 101.737 31.7706C101.055 31.7675 100.372 31.7696 99.69 31.7675C99.6869 31.1704 99.6869 30.5722 99.69 29.9751C100.372 29.972 101.054 29.9741 101.737 29.973C101.738 29.092 101.736 28.2109 101.738 27.3299Z" fill="white"/>
<path d="M72.3223 31.8761C74.3242 29.5138 78.1893 29.2027 80.6226 31.0702C82.3301 32.3709 83.0559 34.6445 82.8481 36.7292C79.5731 36.724 76.297 36.7167 73.022 36.7334C73.2068 37.7146 73.6569 38.6927 74.4631 39.316C76.3513 40.743 79.2848 40.5404 80.9255 38.818C81.3244 39.2888 81.7275 39.7554 82.1265 40.2262C79.713 42.789 75.2548 42.7952 72.6836 40.4653C70.3756 38.2731 70.2733 34.2729 72.3223 31.8761ZM74.154 32.7812C73.494 33.396 73.1985 34.2844 73.0334 35.1466C75.6265 35.155 78.2196 35.155 80.8127 35.1466C80.6519 34.347 80.3856 33.5317 79.806 32.9346C78.4003 31.3396 75.6474 31.279 74.154 32.7812Z" fill="white"/>
<path d="M88.0092 31.7571C88.899 30.6245 90.3057 29.9668 91.7323 29.8844C93.2309 29.7434 94.8747 30.0754 95.9754 31.1652C96.9842 32.1173 97.3518 33.5516 97.3696 34.8982C97.3821 37.2741 97.3706 39.65 97.3738 42.0248C96.6459 42.0269 95.919 42.029 95.1911 42.0269C95.1817 39.8254 95.1974 37.6238 95.1859 35.4222C95.1775 34.4671 95.0376 33.419 94.3442 32.7008C93.7834 32.0953 92.9479 31.8427 92.1427 31.8208C91.0681 31.7613 89.9183 32.0557 89.1496 32.8438C88.4123 33.561 88.1345 34.6205 88.1126 35.6216C88.1011 37.7564 88.1147 39.8911 88.1074 42.0259C87.3805 42.028 86.6526 42.0269 85.9258 42.0269C85.9206 38.009 85.9206 33.9921 85.9258 29.9741C86.6223 29.9741 87.3189 29.9731 88.0165 29.9752C88.0176 30.5692 88.0197 31.1631 88.0092 31.7571Z" fill="white"/>
<path d="M128.33 31.9597C129.222 30.4534 131.061 29.8197 132.738 29.8385C132.743 30.54 132.74 31.2415 132.741 31.9441C131.757 31.9305 130.696 32.0182 129.884 32.632C128.897 33.3231 128.471 34.5684 128.447 35.7324C128.425 37.8306 128.448 39.9288 128.436 42.027C127.708 42.0281 126.981 42.0281 126.254 42.027C126.252 38.0101 126.252 33.9922 126.254 29.9753C126.951 29.9732 127.649 29.9742 128.346 29.9742C128.349 30.6361 128.35 31.2979 128.33 31.9597Z" fill="white"/>
<path d="M136.913 30.7976C138.89 29.545 141.588 29.5429 143.567 30.7924C144.707 31.5075 145.531 32.6714 145.915 33.9544C146.188 34.8469 146.268 35.7916 146.206 36.7207C142.925 36.7332 139.645 36.7113 136.365 36.7322C136.554 37.75 137.032 38.7646 137.892 39.3805C139.789 40.747 142.651 40.4954 144.285 38.8231C144.673 39.2949 145.068 39.7605 145.466 40.225C144.339 41.462 142.676 42.127 141.015 42.1552C139.142 42.2418 137.16 41.6677 135.842 40.2835C134.199 38.5746 133.807 35.9044 134.602 33.7122C135.023 32.5201 135.839 31.4689 136.913 30.7976ZM137.419 32.8562C136.809 33.4669 136.531 34.3176 136.374 35.1465C138.968 35.1538 141.562 35.1548 144.156 35.1454C143.987 34.2623 143.649 33.3666 142.966 32.7508C141.492 31.2987 138.837 31.3509 137.419 32.8562Z" fill="white"/>
<path d="M149.757 30.6839C152.164 29.353 155.179 29.7131 157.559 30.924C157.253 31.5023 156.942 32.0786 156.631 32.6548C155.122 31.7717 153.255 31.4815 151.56 31.9303C150.934 32.1235 150.301 32.6287 150.291 33.3365C150.227 33.9555 150.732 34.4722 151.284 34.6601C153.003 35.2624 154.909 35.2311 156.548 36.0788C157.977 36.8147 158.31 38.8158 157.54 40.1416C157.162 40.7951 156.534 41.2721 155.857 41.5853C154.845 42.0457 153.717 42.1699 152.617 42.1647C150.912 42.1511 149.182 41.7325 147.74 40.8024C148.024 40.2084 148.326 39.6228 148.64 39.0445C150.307 40.0957 152.375 40.5226 154.313 40.1343C154.9 40.0017 155.539 39.6645 155.7 39.0372C155.887 38.4776 155.608 37.796 155.054 37.5715C153.51 36.8982 151.76 36.9984 150.2 36.3784C149.594 36.132 148.993 35.7854 148.623 35.2301C147.627 33.7686 148.165 31.4909 149.757 30.6839Z" fill="white"/>
<path d="M57.4875 29.975C58.2457 29.9719 59.0038 29.9719 59.7631 29.975C61.1437 33.1944 62.518 36.4169 63.9018 39.6352C65.3168 36.4158 66.7204 33.1923 68.1365 29.974C68.8477 29.9729 69.56 29.9719 70.2722 29.975C68.5177 33.9929 66.7559 38.0088 64.9962 42.0257C64.2527 42.0278 63.5091 42.0267 62.7666 42.0278C61.0016 38.0119 59.244 33.994 57.4875 29.975Z" fill="white"/>
<path d="M110.734 29.975C111.461 29.9719 112.189 29.9719 112.918 29.975C112.93 32.0325 112.902 34.09 112.924 36.1475C112.93 36.8741 112.899 37.6247 113.17 38.3147C113.43 39.0517 113.985 39.7187 114.745 39.9661C116.018 40.3972 117.544 40.2855 118.617 39.4243C119.392 38.8105 119.777 37.8282 119.869 36.8647C119.941 36.0734 119.894 35.278 119.907 34.4846C119.906 32.9814 119.903 31.4782 119.908 29.975C120.635 29.9719 121.363 29.9729 122.091 29.975C122.093 33.9909 122.093 38.0078 122.092 42.0247C121.402 42.0278 120.713 42.0288 120.023 42.0267C120.02 41.4317 120.016 40.8367 120.03 40.2427C118.158 42.6541 114.172 42.8285 112.008 40.724C111.079 39.7678 110.755 38.3867 110.735 37.0891C110.727 34.7174 110.732 32.3467 110.734 29.975Z" fill="white"/>
</g>
<defs>
<clipPath id="clip0_401_2502">
<rect width="157.172" height="46.0357" fill="white" transform="translate(0.873047 0.345215)"/>
</clipPath>
</defs>
</svg>
