<svg width="73" height="51" viewBox="0 0 73 51" fill="none" xmlns="http://www.w3.org/2000/svg">
<g opacity="0.5" clip-path="url(#clip0_401_2518)">
<path d="M50.4941 0.137652C53.984 0.114906 57.4771 0.127904 60.967 0.131153C60.9605 1.87609 60.9735 3.62428 60.9572 5.36922C64.8988 6.03535 68.6811 7.63082 71.8233 10.1134C70.0101 12.6642 68.1774 15.1987 66.3578 17.743C62.9036 15.2442 58.6306 13.639 54.3284 13.9574C52.8954 14.0289 51.2025 14.9713 51.3519 16.6155C51.4689 18.4676 53.542 19.0265 55.001 19.4977C59.7517 20.7552 64.8793 21.4051 68.9638 24.3653C71.2384 25.9543 72.6876 28.5928 72.8468 31.3613V33.3695C72.7299 36.5702 71.2091 39.7026 68.6811 41.688C66.4845 43.4882 63.716 44.3948 60.9605 44.8984C60.9605 46.8351 60.9865 48.7717 60.9442 50.7084H50.5916C50.3933 48.658 50.5688 46.5914 50.5006 44.5345C46.0911 43.6376 41.8896 41.6685 38.4745 38.731C40.5281 36.3654 42.5427 33.9609 44.5606 31.566C47.914 34.1981 51.9986 36.0015 56.2878 36.2127C57.8215 36.268 59.4787 36.294 60.8435 35.4849C62.114 34.7797 62.3317 32.7521 61.1684 31.852C60.0376 30.9714 58.6014 30.6432 57.2626 30.2273C53.1391 29.0997 48.7816 28.4336 45.0805 26.1688C42.8807 24.8527 41.1357 22.6984 40.6256 20.1541C40.0082 16.9632 40.4404 13.457 42.3348 10.7535C44.2097 7.98825 47.3031 6.28881 50.4973 5.53494C50.5136 3.73476 50.5136 1.93783 50.4941 0.137652Z" fill="white"/>
<path d="M0.384506 5.35627C3.94587 5.36277 7.51049 5.34977 11.0719 5.36277C11.0426 10.7796 11.0784 16.1931 11.0556 21.6066C15.7283 16.2158 20.3847 10.812 25.0151 5.38551C29.2784 5.33027 33.5416 5.35627 37.8016 5.37577C32.7292 10.9713 27.7544 16.6578 22.695 22.2695C27.9104 29.8699 33.1029 37.4833 38.3442 45.0642C34.0063 45.0804 29.665 45.0934 25.3271 45.0577C22.0549 40.1641 18.7437 35.2964 15.4521 30.4158C13.9833 32.0665 12.4918 33.701 11.0524 35.3744C11.0784 38.6076 11.0459 41.8375 11.0686 45.0707C7.50724 45.0837 3.94587 45.0739 0.384506 45.0772V5.35627Z" fill="white"/>
</g>
<defs>
<clipPath id="clip0_401_2518">
<rect width="72.4621" height="50.691" fill="white" transform="translate(0.384552 0.017334)"/>
</clipPath>
</defs>
</svg>
