<svg width="161" height="67" viewBox="0 0 161 67" fill="none" xmlns="http://www.w3.org/2000/svg">
<g opacity="0.5" clip-path="url(#clip0_401_2522)">
<path d="M43.1683 10.3424C44.6625 9.83782 46.033 9.033 47.464 8.37891C47.5627 8.46948 47.6507 8.57218 47.7414 8.6724C46.4545 10.0312 45.1775 11.3981 43.888 12.7541C43.7465 12.9023 43.6147 13.0653 43.5626 13.267C41.7636 18.8295 39.9633 24.392 38.1574 29.9531C37.9391 30.4755 38.2028 31.0377 38.3428 31.5491C38.9305 32.7995 39.885 33.8277 40.6485 34.9714C41.1635 34.6299 41.6606 34.2597 42.1702 33.9088C43.542 28.9811 44.8877 24.0465 46.2708 19.1216C45.5662 18.3196 44.8714 17.5092 44.1641 16.7098C44.3084 16.5481 44.4251 16.2819 44.6914 16.3409C46.011 16.3874 47.3335 16.5754 48.6492 16.5891C49.2218 16.2503 49.8825 16.2354 50.5292 16.2696C51.0402 18.9432 51.5138 21.6237 51.9766 24.3057C53.2346 22.4301 54.4361 20.5174 55.6815 18.6321C55.8146 18.4127 55.9905 18.1975 56.0152 17.9315C56.1086 17.0649 56.1702 16.1957 56.2652 15.3291C56.2748 15.155 56.3763 15.0083 56.4505 14.8574C57.512 15.1288 58.5228 15.573 59.3701 16.2793C59.3715 16.3918 59.3755 16.6166 59.3771 16.7292C59.097 17.1145 58.6809 17.4504 58.6479 17.959C57.78 22.3903 56.9341 26.8259 56.069 31.2584C55.9387 31.6903 56.2021 32.1002 56.3409 32.4965C56.5895 33.1958 57.2129 33.6386 57.6481 34.2131C58.0889 34.7821 58.6315 35.2771 59.0076 35.8941C58.943 36.0697 58.814 36.2068 58.7041 36.3547C56.0497 36.3109 53.3951 36.2464 50.7391 36.2203C50.8024 36.0079 50.8476 35.7857 50.9781 35.6034C51.6208 34.6478 52.3184 33.7251 52.9006 32.7311C53.3468 31.7509 53.7355 30.7431 54.1598 29.7533C54.4274 29.0772 54.7805 28.4247 54.9013 27.7007C55.268 25.8649 55.6511 24.0329 56.0136 22.197C55.1113 23.4681 54.1953 24.7293 53.3591 26.0442C52.2716 28.0145 51.0947 29.934 49.9616 31.8767C49.8146 31.8767 49.6677 31.8781 49.5223 31.8794C49.2957 30.2327 49.0787 28.5848 48.8535 26.9367C48.686 25.752 48.5735 24.558 48.296 23.391C47.5669 26.9078 46.6055 30.3712 45.7746 33.8634C45.6826 34.5599 45.9271 35.2689 45.728 35.9584C44.0636 36.4808 42.4047 37.0319 40.7088 37.4446C39.9452 37.6406 39.1557 37.5186 38.3797 37.5365C38.0639 37.1718 37.7743 36.7865 37.531 36.3698C35.1828 36.3424 32.8358 36.2835 30.4876 36.2381C30.596 35.9529 30.7086 35.6623 30.9175 35.4346C31.8142 34.3665 32.7055 33.2957 33.5719 32.203C34.0594 31.6024 34.3671 30.8854 34.7585 30.2246C35.5151 28.8315 36.3184 27.4633 37.0505 26.0592C37.8992 23.5831 38.7273 21.1001 39.5663 18.6212C38.2136 20.1801 36.8638 21.7431 35.5865 23.3666C33.8657 25.8427 32.0269 28.2381 30.2651 30.6867C30.0727 30.684 29.8805 30.6825 29.6884 30.6825C29.7104 27.9416 29.709 25.2022 29.7419 22.4629C29.7653 21.6677 29.7077 20.8739 29.6403 20.0814C28.0789 24.5032 26.2263 28.8124 24.5316 33.1835C24.213 34.1322 24.4726 35.1386 24.5839 36.0998C22.9195 38.0468 21.2098 39.9567 19.5907 41.9419C19.3901 42.1997 19.1457 42.419 18.8821 42.6096C16.2523 44.588 13.6897 46.6556 11.2207 48.8315C7.66802 51.978 4.1538 55.1671 0.630119 58.3469C0.481771 58.2591 0.333553 58.1728 0.183899 58.0905C0.411936 57.4229 0.889745 56.8853 1.26332 56.2985C2.0625 55.0645 3.09937 54.0142 4.03737 52.8886C5.05642 51.6711 6.1769 50.5372 7.08879 49.2347C10.8982 44.0588 14.8325 38.9763 18.8782 33.9842C19.1871 33.5879 19.8162 33.5195 19.9933 33.0163C22.6176 26.978 25.2377 20.937 27.8608 14.8974C27.1468 13.9268 26.4134 12.9711 25.6896 12.0059C25.8682 11.7796 26.0947 11.4807 26.4244 11.552C27.8952 11.6575 29.3674 11.748 30.8365 11.8742C31.3844 11.9852 31.8115 11.5247 32.3402 11.4849C32.7755 11.4575 33.2136 11.4779 33.6502 11.474C33.8576 14.7304 33.9962 17.9895 34.1212 21.2484C36.1275 18.7681 38.1229 16.2755 40.1044 13.7759C40.493 12.5954 40.6482 11.3408 40.9929 10.1439C41.0697 10.0218 41.1548 9.90402 41.2455 9.79162C41.8841 9.9699 42.5104 10.2799 43.1681 10.3428L43.1683 10.3424Z" fill="white"/>
<path d="M121.759 11.1062C122.245 10.9965 122.745 11.0913 123.236 11.1227C125.664 11.2789 128.094 11.4462 130.523 11.6053C130.713 11.6161 130.932 11.6244 131.064 11.7876C133.676 14.4352 136.373 16.9979 139.133 19.4891C138.905 21.9009 138.643 24.31 138.406 26.7216C138.342 26.9396 138.56 27.0823 138.667 27.2426C140.659 29.5872 142.63 31.9509 144.577 34.3338C147.907 38.4867 151.132 42.7248 154.288 47.0109C154.905 47.887 155.661 48.6549 156.349 49.4748C157.28 50.5483 158.214 51.6206 159.127 52.7091C159.797 53.614 160.455 54.5355 161.001 55.5211C160.83 55.6117 160.659 55.7035 160.492 55.7939C156.766 52.4212 153.043 49.044 149.271 45.7219C146.984 43.7352 144.617 41.843 142.197 40.0223C141.792 39.7439 141.511 39.3394 141.203 38.968C138.971 36.2671 136.679 33.6179 134.392 30.9663C133.22 29.4663 131.957 28.0308 130.886 26.4582C131.513 24.5374 132.149 22.6178 132.725 20.6804C131.15 19.2297 129.614 17.7244 127.922 16.4135C126.445 16.0242 124.945 15.706 123.476 15.281C121.876 14.8435 120.298 14.3323 118.712 13.8537C118.113 14.1251 117.512 14.3885 116.916 14.6626C116.761 14.5735 116.607 14.4843 116.454 14.3939C116.57 13.6356 116.618 12.8541 116.869 12.1234C117.053 12.0343 117.255 11.9959 117.457 11.9561C118.893 11.6847 120.324 11.3898 121.759 11.106L121.759 11.1062Z" fill="white"/>
<path d="M70.8297 16.4466C72.6712 15.7131 74.5129 14.9808 76.3598 14.2639C76.824 14.9276 77.3802 15.5487 77.6741 16.3151C78.531 18.5155 79.3879 20.7163 80.2489 22.9155C80.7337 24.0153 81.3268 25.0737 81.6909 26.2254C81.9051 27.0493 82.1359 27.8679 82.3774 28.6837C82.4901 28.5096 82.6425 28.3327 82.5931 28.1079C82.4145 25.5413 82.2223 22.9759 82.0328 20.4106C82.0247 20.0089 81.8007 19.6632 81.6387 19.3097C81.3311 18.694 81.0715 18.0525 80.7201 17.4601C80.0788 17.0268 79.3264 16.7801 78.6589 16.3906C78.6203 16.2508 78.597 16.1082 78.5916 15.9628C80.1119 15.908 81.6307 15.8586 83.1523 15.8299C83.3774 15.8299 83.6028 15.7929 83.8142 15.7092C84.7864 15.3473 85.767 15.0085 86.7405 14.6466C86.8202 14.7618 86.9024 14.877 86.9835 14.9921C86.1155 15.9312 85.2738 16.8952 84.4114 17.8398C84.5294 21.713 84.6627 25.5863 84.8 29.4611C84.87 32.3856 85.0458 35.3075 85.0266 38.2332C85.0196 39.8373 85.0472 41.4415 85.0308 43.0457C84.7356 42.8537 84.3469 42.7261 84.2261 42.3603C83.2991 40.2611 82.3954 38.1511 81.4837 36.045C81.3533 35.7023 81.0567 35.4747 80.8065 35.2237C79.7203 34.1639 78.6422 33.0958 77.5561 32.036C77.1797 31.7029 77.1674 31.1639 77.0164 30.717C76.684 29.6023 76.5714 28.4327 76.1856 27.3346C75.6377 26.3378 75.0156 25.3808 74.4347 24.4032C74.23 26.8658 74.0475 29.3309 73.8373 31.7935C73.8303 31.9895 73.7783 32.2089 73.9019 32.3844C74.5362 33.4977 75.2436 34.5741 75.7996 35.7298C75.9067 35.9 75.7242 36.059 75.6693 36.2124C74.4924 36.2344 73.3223 36.3729 72.1483 36.4318C71.6113 36.4826 71.0635 36.4676 70.5417 36.6169C70.0253 36.2206 69.5062 35.8299 68.9898 35.4364C68.3897 36.1754 67.7964 36.9269 67.1249 37.6027C66.7417 37.6726 66.3476 37.6247 65.9617 37.6274C65.9095 37.5424 65.8067 37.3696 65.7543 37.2846C66.4408 36.2563 67.0686 35.1745 67.8774 34.2368C68.4432 34.0571 69.064 34.0873 69.6448 33.942C70.2791 33.0221 70.9328 32.1143 71.5714 31.1985C71.6825 31.0599 71.6909 30.8789 71.7073 30.7102C72.0232 27.2317 72.35 23.7535 72.663 20.2748C72.6301 19.5987 72.5257 18.9079 72.3156 18.2634C71.8446 17.752 71.3104 17.3035 70.8092 16.8223C70.8146 16.729 70.8242 16.5399 70.8297 16.4466V16.4466Z" fill="white"/>
<path d="M93.4567 14.8931C94.2092 15.2894 94.9604 15.6923 95.6951 16.1188C99.4399 16.1338 103.186 16.075 106.932 16.0585C107.228 15.7513 107.512 15.4359 107.81 15.1302C107.907 15.1755 108.104 15.2687 108.201 15.3138C108.153 15.5661 108.105 15.8184 108.06 16.072C111.06 16.1173 114.064 16.12 117.064 16.1927C117.307 16.1997 117.552 16.2351 117.796 16.2723C118.263 18.5127 118.829 20.7352 119.235 22.9866C118.823 23.0208 118.643 22.6274 118.409 22.3709C117.813 21.6688 117.255 20.9271 116.607 20.2717C115.477 19.907 114.377 19.4532 113.343 18.8663C112.5 19.7739 111.92 20.8981 111.522 22.0568C111.596 23.532 111.728 25.0047 111.817 26.4785C112.415 27.1242 113.129 27.6946 113.499 28.5132C113.976 29.2976 114.292 30.223 115.033 30.8099C115.738 31.446 116.435 32.089 117.136 32.7307C118.674 32.222 120.193 31.6572 121.732 31.1553C122.004 31.0676 122.438 31.4556 122.178 31.7216C121.731 32.3961 121.293 33.0831 120.783 33.7139C120.042 34.3953 119.141 34.8848 118.384 35.5455C118.094 36.2489 117.924 36.9947 117.649 37.7037C117.423 37.5995 117.202 37.4856 117.003 37.3403C116.045 36.6535 115.077 35.9788 114.144 35.2603C112.998 34.4048 112.041 33.3353 110.973 32.3934C110.154 31.6079 109.271 30.8935 108.458 30.1051C108.331 29.6692 108.754 29.3234 108.907 28.9465C108.711 27.9374 108.572 26.92 108.399 25.9083C108.332 25.4023 108.056 24.965 107.855 24.5071C107.209 23.1016 106.545 21.7046 105.922 20.2883C105.607 19.4601 104.781 19.0199 104.201 18.3962C103.987 19.0131 103.527 19.5972 103.652 20.2829C103.731 21.1097 103.764 21.942 103.856 22.7687C104.457 25.962 105.073 29.1539 105.675 32.3485C105.753 32.8997 106.152 33.3233 106.449 33.7715C107.534 34.1046 108.613 34.4612 109.704 34.782C109.963 35.4277 110.202 36.0803 110.449 36.7317C110.393 36.8264 110.28 37.0141 110.224 37.1088C109.768 36.7988 109.359 36.3985 108.847 36.1833C106.416 36.1448 103.983 36.1819 101.551 36.1656C100.806 36.1533 100.072 36.2878 99.3342 36.3701C99.0829 36.4564 98.9181 36.2138 98.811 36.0313C99.3945 34.9055 100.133 33.8624 100.725 32.7393C100.627 31.2353 100.348 29.7422 100.208 28.2394C99.7942 24.9104 99.3713 21.5814 98.9675 18.251C98.7367 18.2812 98.5089 18.3128 98.281 18.3457C98.0639 18.8721 97.8621 19.4068 97.5944 19.9101C97.3472 20.3817 96.6743 20.5366 96.5837 21.1029C96.3063 22.3945 96.0042 23.6819 95.6883 24.9667C96.3655 25.8388 96.9023 26.8095 97.5314 27.7171C97.6811 27.9831 97.9941 28.2627 97.7744 28.5865C97.5271 28.5549 97.1207 28.4521 97.0534 28.7975C96.8323 29.5228 97.1096 30.277 97.2539 30.9926C97.2073 31.0679 97.1139 31.2216 97.0658 31.2983C96.8544 31.2969 96.6469 31.2983 96.4395 31.301C96.1634 31.8221 95.8655 32.332 95.6169 32.867C95.3615 33.4058 95.5523 34.0434 95.312 34.585C94.6818 34.9019 94.0529 35.2307 93.5061 35.6832C91.9763 36.8596 90.4383 38.0277 88.8974 39.1918C88.6708 39.4358 88.4609 39.1342 88.3 38.9862C87.325 37.9482 86.3431 36.9159 85.3956 35.8532C85.1554 35.6599 85.3269 35.387 85.397 35.1567C85.9545 33.6308 86.4997 32.1006 87.0504 30.5733C87.1382 30.4197 87.1755 30.0974 87.4555 30.2606C87.623 30.3305 87.5571 30.5458 87.6052 30.6842C87.7602 31.9909 87.8853 33.3016 88.0666 34.6027C88.3342 35.0306 88.7149 35.3747 89.054 35.7462C89.3532 35.7435 89.6541 35.7435 89.9549 35.742C90.6086 34.0527 91.335 32.3911 91.9681 30.695C91.8774 30.0162 91.8816 29.2869 91.6632 28.6439C89.5594 26.7134 87.3539 24.8924 85.2006 23.0155C85.0331 22.8934 85.0606 22.6043 85.2639 22.5357C85.5276 22.3123 86.0233 22.3095 86.0823 21.9076C86.4626 20.4008 86.8279 18.8898 87.2057 17.3817C87.4048 16.6387 88.1162 16.2259 88.7136 15.8243C89.2437 15.4322 89.8987 15.2621 90.5318 15.1222C91.5027 15.2524 92.4667 15.4376 93.4348 15.5981C93.3387 15.3596 93.3305 15.1183 93.4568 14.8934L93.4567 14.8931ZM90.6498 18.8377C90.2488 19.7618 90.404 20.7874 90.3244 21.765C91.8253 22.6672 93.3193 23.579 94.819 24.4852C94.7119 23.3952 94.5484 22.3135 94.4387 21.2248C94.4085 20.4172 93.6504 19.9113 93.4335 19.1696C93.2838 18.6745 93.2111 18.1577 93.027 17.6737C92.6165 17.3598 92.1041 17.1897 91.6564 16.9279C91.0674 17.4105 90.875 18.1469 90.6498 18.8377Z" fill="white"/>
<path d="M64.7366 16.4081C65.4025 16.1325 66.0783 15.8829 66.7497 15.6226C68.1847 16.7291 69.6227 17.8327 71.059 18.9392C70.8763 19.4835 70.5785 19.9949 70.4767 20.5639C70.2816 24.1013 70.1513 27.6428 69.9411 31.1788C69.2928 31.3804 68.6077 31.4764 67.9855 31.7478C67.2535 32.3319 66.545 32.9447 65.846 33.5658C65.1649 34.2665 64.7076 35.1618 63.9989 35.8363C63.3452 36.201 62.6696 36.5342 61.9885 36.8441C60.7813 35.7376 59.6896 34.4969 58.4592 33.411C57.9332 32.9558 57.2836 32.668 56.7756 32.1908C56.6521 32.088 56.6301 31.8904 56.7413 31.7713C57.1547 31.3106 57.6545 30.9377 58.0817 30.4907C58.2094 30.3728 58.1957 30.1823 58.2301 30.0272C58.6489 26.9162 59.0815 23.8093 59.5004 20.6999C59.5443 20.4406 59.547 20.1432 59.7628 19.9568C60.3712 19.7072 61.1127 19.8101 61.6483 19.3837C62.5601 18.7037 63.4829 18.0414 64.3935 17.3599C64.4884 17.035 64.6009 16.7182 64.7368 16.4085L64.7366 16.4081ZM65.7253 19.0571C65.2255 19.5234 64.6857 19.9786 64.3617 20.5913C63.8839 21.4331 63.3923 22.2668 62.9075 23.1044C62.7276 23.3622 62.7563 23.6843 62.7316 23.9819C62.6438 25.3503 62.5627 26.7185 62.457 28.0855C62.3678 29.1371 62.1535 30.1723 62.0162 31.2171C62.435 31.6585 62.8483 32.1055 63.2672 32.5484C64.4015 31.3459 65.0744 29.8267 65.9107 28.4229C66.1043 28.0609 66.3955 27.7181 66.3858 27.2836C66.4833 24.7759 66.6248 22.268 66.6975 19.759C66.3706 19.53 66.092 19.2188 65.7253 19.057L65.7253 19.0571Z" fill="white"/>
<path d="M118.755 17.2774C118.813 17.1951 118.928 17.0292 118.986 16.947C121.896 17.0609 124.809 17.1033 127.718 17.1924C128.02 17.7984 127.4 18.4126 127.677 19.0132C129.173 23.2333 130.661 27.4576 132.151 31.6807C132.322 32.0467 132.326 32.554 132.721 32.7652C134.278 33.7236 135.844 34.6683 137.399 35.6322C137.475 35.8418 137.555 36.0517 137.635 36.2628C136.873 36.389 136.098 36.3711 135.328 36.3929C132.658 36.4382 129.99 36.5519 127.32 36.5712C126.695 37.5666 126.194 38.6458 125.457 39.5683C125.274 39.4051 125.079 39.2544 124.928 39.0623C125.139 37.0975 125.596 35.1546 125.799 33.1914C124.556 29.0165 123.256 24.8565 122.002 20.6844C121.919 20.2415 121.517 19.9893 121.226 19.6863C120.403 18.8828 119.555 18.1042 118.755 17.2772L118.755 17.2774Z" fill="white"/>
<path d="M112.664 23.3911C115.977 23.6872 119.283 24.0644 122.595 24.3741C122.643 24.5223 122.693 24.6702 122.744 24.8197C121.473 25.5217 120.206 26.2278 118.937 26.9298C118.287 27.2767 117.669 27.7029 116.943 27.8758C116.453 27.9883 115.945 28.2857 115.442 28.0706C114.588 27.7813 113.677 27.6263 112.872 27.2179C112.62 26.7324 112.603 26.1429 112.499 25.6069C112.492 24.8651 112.618 24.1303 112.664 23.3912L112.664 23.3911Z" fill="white"/>
</g>
<defs>
<clipPath id="clip0_401_2522">
<rect width="160.814" height="66.7259" fill="white" transform="translate(0.185852)"/>
</clipPath>
</defs>
</svg>
