<svg width="323" height="78" viewBox="0 0 323 78" fill="none" xmlns="http://www.w3.org/2000/svg">
<path d="M317 11.3333C319.946 11.3333 322.333 8.94552 322.333 6C322.333 3.05448 319.946 0.666664 317 0.666664C314.054 0.666664 311.667 3.05448 311.667 6C311.667 8.94552 314.054 11.3333 317 11.3333ZM3.86654e-06 6L3.50405e-06 10.5L2 10.5L2 6L3.86654e-06 6ZM2.77908e-06 19.5L2.41659e-06 24L2 24L2 19.5L2.77908e-06 19.5ZM2.41659e-06 24C2.24992e-06 26.0691 0.202846 28.0917 0.590036 30.0489L2.55201 29.6608C2.18997 27.8307 2 25.9381 2 24L2.41659e-06 24ZM5.22207 41.2248C7.48503 44.6049 10.3951 47.515 13.7752 49.7779L14.8879 48.116C11.7249 45.9985 9.00153 43.2751 6.88401 40.1121L5.22207 41.2248ZM24.9511 54.41C26.9083 54.7972 28.9309 55 31 55L31 53C29.0619 53 27.1693 52.81 25.3392 52.448L24.9511 54.41ZM31 55L35.9231 55L35.9231 53L31 53L31 55ZM45.7692 55L55.6154 55L55.6154 53L45.7692 53L45.7692 55ZM65.4615 55L75.3077 55L75.3077 53L65.4615 53L65.4615 55ZM85.1539 55L95 55L95 53L85.1539 53L85.1539 55ZM104.846 55L114.692 55L114.692 53L104.846 53L104.846 55ZM124.538 55L134.385 55L134.385 53L124.538 53L124.538 55ZM144.231 55L154.077 55L154.077 53L144.231 53L144.231 55ZM163.923 55L173.769 55L173.769 53L163.923 53L163.923 55ZM183.615 55L193.462 55L193.462 53L183.615 53L183.615 55ZM203.308 55L213.154 55L213.154 53L203.308 53L203.308 55ZM223 55L232.846 55L232.846 53L223 53L223 55ZM242.692 55L252.539 55L252.539 53L242.692 53L242.692 55ZM262.385 55L272.231 55L272.231 53L262.385 53L262.385 55ZM282.077 55L287 55L287 53L282.077 53L282.077 55ZM287 55C289.069 55 291.092 54.7972 293.049 54.41L292.661 52.448C290.831 52.81 288.938 53 287 53L287 55ZM304.225 49.7779C307.605 47.515 310.515 44.605 312.778 41.2248L311.116 40.1122C308.998 43.2751 306.275 45.9985 303.112 48.116L304.225 49.7779ZM317.41 30.0489C317.797 28.0918 318 26.0691 318 24L316 24C316 25.9381 315.81 27.8308 315.448 29.6608L317.41 30.0489ZM318 24L318 19.5L316 19.5L316 24L318 24ZM318 10.5L318 6L316 6L316 10.5L318 10.5Z" fill="white" fill-opacity="0.5"/>
<rect x="135" y="30" width="48" height="48" rx="24" fill="#818293"/>
<path fill-rule="evenodd" clip-rule="evenodd" d="M153.116 45.0931H164.074C164.49 45.0931 164.828 45.4315 164.828 45.8489V46.34C164.828 46.7574 164.49 47.0958 164.074 47.0958H153.116C152.699 47.0958 152.361 46.7574 152.361 46.34V45.8489C152.361 45.4315 152.699 45.0931 153.116 45.0931ZM153.116 61.746H164.074C164.49 61.746 164.828 62.0844 164.828 62.5018V62.9928C164.828 63.4102 164.49 63.7486 164.074 63.7486H153.116C152.699 63.7486 152.361 63.4102 152.361 62.9928V62.5018C152.361 62.0844 152.699 61.746 153.116 61.746ZM164.357 48.1083V48.8485C164.357 51.5036 162.543 53.7549 160.095 54.4203C162.543 55.0857 164.357 57.3369 164.357 59.9921V60.7322H152.832V59.9921C152.832 57.3369 154.646 55.0857 157.094 54.4203C154.646 53.7549 152.832 51.5036 152.832 48.8485V48.1083H164.357Z" fill="black"/>
</svg>
