<svg width="323" height="78" viewBox="0 0 323 78" fill="none" xmlns="http://www.w3.org/2000/svg">
<path d="M317 11.3333C319.946 11.3333 322.333 8.94552 322.333 6C322.333 3.05448 319.946 0.666666 317 0.666666C314.054 0.666665 311.667 3.05448 311.667 6C311.667 8.94552 314.054 11.3333 317 11.3333ZM1 24L2 24L2 24L1 24ZM31 55L287 55L287 53L31 53L31 55ZM318 24L318 6L316 6L316 24L318 24ZM2 24L2 6L3.86654e-06 6L2.41659e-06 24L2 24ZM287 55C304.121 55 318 41.1208 318 24L316 24C316 40.0163 303.016 53 287 53L287 55ZM31 53C14.9837 53 2 40.0163 2 24L2.41659e-06 24C1.54136e-07 41.1208 13.8792 55 31 55L31 53Z" fill="#FBBE7E"/>
<rect x="135" y="30" width="48" height="48" rx="24" fill="#FBBE7E"/>
<path d="M149.906 54.1363L155.872 59.6885L167.618 48.228" stroke="#000223" stroke-width="2.4" stroke-miterlimit="10"/>
</svg>
