<svg width="70" height="254" viewBox="0 0 70 254" fill="none" xmlns="http://www.w3.org/2000/svg">
<path d="M58.6667 248C58.6667 250.946 61.0545 253.333 64 253.333C66.9455 253.333 69.3334 250.946 69.3334 248C69.3334 245.054 66.9455 242.667 64 242.667C61.0545 242.667 58.6667 245.054 58.6667 248ZM64 -1.11273e-06L61.5 -1.01338e-06L61.5 2L64 2L64 -1.11273e-06ZM56.5 -8.74287e-07L54 -8.34544e-07L54 2L56.5 2L56.5 -8.74287e-07ZM54 -8.34544e-07C51.9309 -7.7287e-07 49.9083 0.202844 47.9511 0.590033L48.3392 2.55201C50.1693 2.18997 52.062 2 54 2L54 -8.34544e-07ZM36.7752 5.22207C33.3951 7.48503 30.485 10.3951 28.2221 13.7752L29.884 14.8879C32.0015 11.7249 34.7249 9.00153 37.8879 6.88401L36.7752 5.22207ZM23.59 24.9511C23.2028 26.9083 23 28.9309 23 31L25 31C25 29.0619 25.19 27.1693 25.552 25.3392L23.59 24.9511ZM23 31L23 36.1945L25 36.1945L25 31L23 31ZM23 46.5833L23 56.9722L25 56.9722L25 46.5833L23 46.5833ZM23 67.3611L23 77.75L25 77.75L25 67.3611L23 67.3611ZM23 88.1389L23 98.5278L25 98.5278L25 88.1389L23 88.1389ZM23 108.917L23 119.306L25 119.306L25 108.917L23 108.917ZM23 129.694L23 140.083L25 140.083L25 129.694L23 129.694ZM23 150.472L23 160.861L25 160.861L25 150.472L23 150.472ZM23 171.25L23 181.639L25 181.639L25 171.25L23 171.25ZM23 192.028L23 202.417L25 202.417L25 192.028L23 192.028ZM23 212.806L23 218L25 218L25 212.806L23 212.806ZM23 218C23 220.069 23.2029 222.092 23.5901 224.049L25.552 223.661C25.19 221.831 25 219.938 25 218L23 218ZM28.2221 235.225C30.4851 238.605 33.3951 241.515 36.7752 243.778L37.8879 242.116C34.725 239.998 32.0016 237.275 29.884 234.112L28.2221 235.225ZM47.9511 248.41C49.9083 248.797 51.931 249 54 249L54 247C52.062 247 50.1693 246.81 48.3392 246.448L47.9511 248.41ZM54 249L56.5 249L56.5 247L54 247L54 249ZM61.5 249L64 249L64 247L61.5 247L61.5 249Z" fill="white" fill-opacity="0.5"/>
<rect width="48" height="48" rx="24" transform="matrix(-1 0 0 1 48 100)" fill="#818293"/>
<path fill-rule="evenodd" clip-rule="evenodd" d="M29.884 115.093H18.9263C18.5095 115.093 18.1717 115.432 18.1717 115.849V116.34C18.1717 116.758 18.5095 117.096 18.9263 117.096H29.884C30.3008 117.096 30.6387 116.758 30.6387 116.34V115.849C30.6387 115.432 30.3008 115.093 29.884 115.093ZM29.884 131.746H18.9263C18.5095 131.746 18.1717 132.084 18.1717 132.502V132.993C18.1717 133.41 18.5095 133.749 18.9263 133.749H29.884C30.3008 133.749 30.6387 133.41 30.6387 132.993V132.502C30.6387 132.084 30.3008 131.746 29.884 131.746ZM18.6427 118.108V118.849C18.6427 121.504 20.457 123.755 22.9053 124.42C20.457 125.086 18.6427 127.337 18.6427 129.992V130.732H30.1681V129.992C30.1681 127.337 28.3538 125.086 25.9055 124.42C28.3538 123.755 30.1681 121.504 30.1681 118.849V118.108H18.6427Z" fill="black"/>
</svg>
