<svg width="70" height="254" viewBox="0 0 70 254" fill="none" xmlns="http://www.w3.org/2000/svg">
<path d="M58.6667 248C58.6667 250.946 61.0545 253.333 64 253.333C66.9455 253.333 69.3333 250.946 69.3333 248C69.3333 245.054 66.9455 242.667 64 242.667C61.0545 242.667 58.6667 245.054 58.6667 248ZM54 1L54 1.81862e-06L54 1.81862e-06L54 1ZM23 31L23 218L25 218L25 31L23 31ZM54 249L64 249L64 247L54 247L54 249ZM54 2L64 2L64 4.81267e-06L54 1.81862e-06L54 2ZM23 218C23 235.121 36.8792 249 54 249L54 247C37.9837 247 25 234.016 25 218L23 218ZM25 31C25 14.9837 37.9838 2 54 2L54 1.81862e-06C36.8792 7.80746e-07 23 13.8792 23 31L25 31Z" fill="#FBBE7E"/>
<rect x="0.5" y="101" width="48" height="48" rx="24" fill="#FBBE7E"/>
<path d="M15.4063 125.136L21.3722 130.688L33.1179 119.228" stroke="#000223" stroke-width="2.4" stroke-miterlimit="10"/>
</svg>
