<svg width="70" height="254" viewBox="0 0 70 254" fill="none" xmlns="http://www.w3.org/2000/svg">
<path d="M11.3333 248C11.3333 250.946 8.94549 253.333 5.99997 253.333C3.05445 253.333 0.666636 250.946 0.666637 248C0.666637 245.054 3.05445 242.667 5.99997 242.667C8.94549 242.667 11.3333 245.054 11.3333 248ZM6 -1.11273e-06L8.5 -1.01338e-06L8.5 2L6 2L6 -1.11273e-06ZM13.5 -8.74287e-07L16 -8.34544e-07L16 2L13.5 2L13.5 -8.74287e-07ZM16 -8.34544e-07C18.0691 -7.7287e-07 20.0917 0.202844 22.0489 0.590033L21.6608 2.55201C19.8307 2.18997 17.938 2 16 2L16 -8.34544e-07ZM33.2248 5.22207C36.6049 7.48503 39.515 10.3951 41.7779 13.7752L40.116 14.8879C37.9985 11.7249 35.2751 9.00153 32.1121 6.88401L33.2248 5.22207ZM46.41 24.9511C46.7972 26.9083 47 28.9309 47 31L45 31C45 29.0619 44.81 27.1693 44.448 25.3392L46.41 24.9511ZM47 31L47 36.1945L45 36.1945L45 31L47 31ZM47 46.5833L47 56.9722L45 56.9722L45 46.5833L47 46.5833ZM47 67.3611L47 77.75L45 77.75L45 67.3611L47 67.3611ZM47 88.1389L47 98.5278L45 98.5278L45 88.1389L47 88.1389ZM47 108.917L47 119.306L45 119.306L45 108.917L47 108.917ZM47 129.694L47 140.083L45 140.083L45 129.694L47 129.694ZM47 150.472L47 160.861L45 160.861L45 150.472L47 150.472ZM47 171.25L47 181.639L45 181.639L45 171.25L47 171.25ZM47 192.028L47 202.417L45 202.417L45 192.028L47 192.028ZM47 212.806L47 218L45 218L45 212.806L47 212.806ZM47 218C47 220.069 46.7971 222.092 46.4099 224.049L44.448 223.661C44.81 221.831 45 219.938 45 218L47 218ZM41.7779 235.225C39.5149 238.605 36.6049 241.515 33.2248 243.778L32.1121 242.116C35.275 239.998 37.9984 237.275 40.116 234.112L41.7779 235.225ZM22.0489 248.41C20.0917 248.797 18.069 249 16 249L16 247C17.938 247 19.8307 246.81 21.6608 246.448L22.0489 248.41ZM16 249L13.5 249L13.5 247L16 247L16 249ZM8.49997 249L5.99997 249L5.99997 247L8.49997 247L8.49997 249Z" fill="white" fill-opacity="0.5"/>
<rect x="22" y="100" width="48" height="48" rx="24" fill="#818293"/>
<path fill-rule="evenodd" clip-rule="evenodd" d="M40.116 115.093H51.0737C51.4905 115.093 51.8283 115.432 51.8283 115.849V116.34C51.8283 116.758 51.4905 117.096 51.0737 117.096H40.116C39.6992 117.096 39.3613 116.758 39.3613 116.34V115.849C39.3613 115.432 39.6992 115.093 40.116 115.093ZM40.116 131.746H51.0737C51.4905 131.746 51.8283 132.084 51.8283 132.502V132.993C51.8283 133.41 51.4905 133.749 51.0737 133.749H40.116C39.6992 133.749 39.3613 133.41 39.3613 132.993V132.502C39.3613 132.084 39.6992 131.746 40.116 131.746ZM51.3573 118.108V118.849C51.3573 121.504 49.543 123.755 47.0947 124.42C49.543 125.086 51.3573 127.337 51.3573 129.992V130.732H39.8319V129.992C39.8319 127.337 41.6462 125.086 44.0945 124.42C41.6462 123.755 39.8319 121.504 39.8319 118.849V118.108H51.3573Z" fill="black"/>
</svg>
