<svg width="70" height="254" viewBox="0 0 70 254" fill="none" xmlns="http://www.w3.org/2000/svg">
<path d="M11.3333 248C11.3333 250.946 8.94552 253.333 6 253.333C3.05448 253.333 0.666668 250.946 0.666668 248C0.666668 245.054 3.05448 242.667 6 242.667C8.94552 242.667 11.3333 245.054 11.3333 248ZM16 1L16 1.81862e-06L16 1.81862e-06L16 1ZM47 31L47 218L45 218L45 31L47 31ZM16 249L6 249L6 247L16 247L16 249ZM16 2L5.99999 2L5.99999 4.81267e-06L16 1.81862e-06L16 2ZM47 218C47 235.121 33.1208 249 16 249L16 247C32.0163 247 45 234.016 45 218L47 218ZM45 31C45 14.9837 32.0162 2 16 2L16 1.81862e-06C33.1208 7.80746e-07 47 13.8792 47 31L45 31Z" fill="#FBBE7E"/>
<rect x="21.5" y="101" width="48" height="48" rx="24" fill="#FBBE7E"/>
<path d="M36.4062 125.136L42.3722 130.688L54.1179 119.228" stroke="#000223" stroke-width="2.4" stroke-miterlimit="10"/>
</svg>
