<svg width="323" height="78" viewBox="0 0 323 78" fill="none" xmlns="http://www.w3.org/2000/svg">
<path d="M317 66.6667C319.946 66.6667 322.333 69.0545 322.333 72C322.333 74.9455 319.946 77.3333 317 77.3333C314.054 77.3333 311.667 74.9455 311.667 72C311.667 69.0545 314.054 66.6667 317 66.6667ZM3.85149e-06 72L3.47737e-06 67.5L2 67.5L2 72L3.85149e-06 72ZM2.78875e-06 58.5L2.41463e-06 54L2 54L2 58.5L2.78875e-06 58.5ZM2.41463e-06 54C2.26043e-06 51.9309 0.202846 49.9083 0.590036 47.9511L2.55201 48.3392C2.18997 50.1693 2 52.0619 2 54L2.41463e-06 54ZM5.22207 36.7752C7.48503 33.3951 10.3951 30.485 13.7752 28.2221L14.8879 29.884C11.7249 32.0015 9.00153 34.7249 6.88401 37.8879L5.22207 36.7752ZM24.9511 23.59C26.9083 23.2028 28.9309 23 31 23L31 25C29.0619 25 27.1693 25.19 25.3392 25.552L24.9511 23.59ZM31 23L35.9231 23L35.9231 25L31 25L31 23ZM45.7692 23L55.6154 23L55.6154 25L45.7692 25L45.7692 23ZM65.4615 23L75.3077 23L75.3077 25L65.4615 25L65.4615 23ZM85.1538 23L95 23L95 25L85.1538 25L85.1538 23ZM104.846 23L114.692 23L114.692 25L104.846 25L104.846 23ZM124.538 23L134.385 23L134.385 25L124.538 25L124.538 23ZM144.231 23L154.077 23L154.077 25L144.231 25L144.231 23ZM163.923 23L173.769 23L173.769 25L163.923 25L163.923 23ZM183.615 23L193.462 23L193.462 25L183.615 25L183.615 23ZM203.308 23L213.154 23L213.154 25L203.308 25L203.308 23ZM223 23L232.846 23L232.846 25L223 25L223 23ZM242.692 23L252.539 23L252.539 25L242.692 25L242.692 23ZM262.385 23L272.231 23L272.231 25L262.385 25L262.385 23ZM282.077 23L287 23L287 25L282.077 25L282.077 23ZM287 23C289.069 23 291.092 23.2028 293.049 23.59L292.661 25.552C290.831 25.19 288.938 25 287 25L287 23ZM304.225 28.2221C307.605 30.485 310.515 33.395 312.778 36.7752L311.116 37.8878C308.998 34.7249 306.275 32.0015 303.112 29.884L304.225 28.2221ZM317.41 47.9511C317.797 49.9082 318 51.9309 318 54L316 54C316 52.0619 315.81 50.1692 315.448 48.3392L317.41 47.9511ZM318 54L318 58.5L316 58.5L316 54L318 54ZM318 67.5L318 72L316 72L316 67.5L318 67.5Z" fill="white" fill-opacity="0.5"/>
<rect x="135" width="48" height="48" rx="24" fill="#818293"/>
<path fill-rule="evenodd" clip-rule="evenodd" d="M153.116 15.0931H164.074C164.49 15.0931 164.828 15.4315 164.828 15.8489V16.34C164.828 16.7574 164.49 17.0958 164.074 17.0958H153.116C152.699 17.0958 152.361 16.7574 152.361 16.34V15.8489C152.361 15.4315 152.699 15.0931 153.116 15.0931ZM153.116 31.746H164.074C164.49 31.746 164.828 32.0844 164.828 32.5018V32.9928C164.828 33.4102 164.49 33.7486 164.074 33.7486H153.116C152.699 33.7486 152.361 33.4102 152.361 32.9928V32.5018C152.361 32.0844 152.699 31.746 153.116 31.746ZM164.357 18.1083V18.8485C164.357 21.5036 162.543 23.7549 160.095 24.4203C162.543 25.0857 164.357 27.3369 164.357 29.9921V30.7322H152.832V29.9921C152.832 27.3369 154.646 25.0857 157.094 24.4203C154.646 23.7549 152.832 21.5036 152.832 18.8485V18.1083H164.357Z" fill="black"/>
</svg>
