<svg width="323" height="78" viewBox="0 0 323 78" fill="none" xmlns="http://www.w3.org/2000/svg">
<path d="M317 66.6667C319.946 66.6667 322.333 69.0545 322.333 72C322.333 74.9455 319.946 77.3333 317 77.3333C314.054 77.3333 311.667 74.9455 311.667 72C311.667 69.0545 314.054 66.6667 317 66.6667ZM1 54L2 54L1 54ZM31 23L287 23L287 25L31 25L31 23ZM318 54L318 72L316 72L316 54L318 54ZM2 54L2 72L3.85149e-06 72L2.41463e-06 54L2 54ZM287 23C304.121 23 318 36.8792 318 54L316 54C316 37.9837 303.016 25 287 25L287 23ZM31 25C14.9837 25 2 37.9837 2 54L2.41463e-06 54C9.857e-08 36.8792 13.8792 23 31 23L31 25Z" fill="#FBBE7E"/>
<rect x="135" width="48" height="48" rx="24" fill="#FBBE7E"/>
<path d="M149.906 24.1363L155.872 29.6885L167.618 18.228" stroke="#000223" stroke-width="2.4" stroke-miterlimit="10"/>
</svg>
