<svg width="139" height="36" viewBox="0 0 139 36" fill="none" xmlns="http://www.w3.org/2000/svg">
<g clip-path="url(#clip0_2118_4318)">
<path d="M29.5322 15.5317C29.6544 15.5317 29.7755 15.5264 29.8945 15.5159C32.0184 15.3327 33.6854 13.5509 33.6854 11.3785V4.81393C33.6854 2.52043 31.8257 0.660782 29.5322 0.660782H22.9666C20.7952 0.660782 19.0124 2.32773 18.8292 4.45169C18.8187 4.57068 18.8134 4.69178 18.8134 4.81393V8.53218V11.7408H14.9193V4.81393C14.9193 4.69178 14.914 4.57068 14.9035 4.45169C14.7203 2.32773 12.9375 0.660782 10.7662 0.660782H4.20052C1.90701 0.660782 0.0473633 2.52043 0.0473633 4.81393V11.3785C0.0473633 13.5509 1.71431 15.3327 3.83827 15.5159C3.95726 15.5264 4.07836 15.5317 4.20052 15.5317H11.1284V19.4268H4.20052C4.07836 19.4268 3.95726 19.4321 3.83827 19.4426C1.71431 19.6259 0.0473633 21.4086 0.0473633 23.58V30.1456C0.0473633 32.4391 1.90701 34.2988 4.20052 34.2988H10.7662C12.9375 34.2988 14.7203 32.6318 14.9035 30.5079C14.914 30.3889 14.9193 30.2678 14.9193 30.1456V23.2177H18.8134V30.1456C18.8134 30.2678 18.8187 30.3889 18.8292 30.5079C19.0124 32.6318 20.7952 34.2988 22.9666 34.2988H29.5322C31.8257 34.2988 33.6854 32.4391 33.6854 30.1456V23.58C33.6854 21.4086 32.0184 19.6259 29.8945 19.4426C29.7755 19.4321 29.6544 19.4268 29.5322 19.4268H22.6043V15.5317H29.5322ZM22.6043 8.53218V4.81393C22.6043 4.61386 22.7675 4.45169 22.9666 4.45169H29.5322C29.7323 4.45169 29.8945 4.61386 29.8945 4.81393V11.3785C29.8945 11.5786 29.7323 11.7408 29.5322 11.7408H22.6043V8.53218ZM4.20052 11.7408C4.00044 11.7408 3.83827 11.5786 3.83827 11.3785V4.81393C3.83827 4.61386 4.00044 4.45169 4.20052 4.45169H10.7662C10.9652 4.45169 11.1284 4.61386 11.1284 4.81393V11.7408H4.20052ZM11.1284 30.1456C11.1284 30.3447 10.9652 30.5079 10.7662 30.5079H4.20052C4.00044 30.5079 3.83827 30.3447 3.83827 30.1456V23.58C3.83827 23.3799 4.00044 23.2177 4.20052 23.2177H11.1284V30.1456ZM29.5322 23.2177C29.7323 23.2177 29.8945 23.3799 29.8945 23.58V30.1456C29.8945 30.3447 29.7323 30.5079 29.5322 30.5079H22.9666C22.7675 30.5079 22.6043 30.3447 22.6043 30.1456V23.2177H29.5322ZM18.8134 19.4268H14.9193V15.5317H18.8134V19.4268Z" fill="url(#paint0_linear_2118_4318)"/>
<path d="M14.9194 23.2177V30.1456C14.9194 30.2677 14.9141 30.3888 14.9036 30.5078H10.7662C10.9652 30.5078 11.1284 30.3446 11.1284 30.1456V23.2177H14.9194Z" fill="url(#paint1_linear_2118_4318)"/>
<path d="M14.9194 7.67168H11.1285V19.4267H14.9194V7.67168Z" fill="url(#paint2_linear_2118_4318)"/>
<path d="M22.9666 30.5078H18.8292C18.8187 30.3888 18.8134 30.2677 18.8134 30.1456V15.5316H22.6043V30.1456C22.6043 30.3446 22.7675 30.5078 22.9666 30.5078Z" fill="url(#paint3_linear_2118_4318)"/>
<path d="M29.8945 11.3786V15.5159C29.7755 15.5265 29.6544 15.5317 29.5323 15.5317H14.9194V11.7408H29.5323C29.7324 11.7408 29.8945 11.5786 29.8945 11.3786Z" fill="url(#paint4_linear_2118_4318)"/>
<path d="M29.8944 19.4425V23.5798C29.8944 23.3798 29.7323 23.2176 29.5322 23.2176H22.6043V19.4267H29.5322C29.6543 19.4267 29.7754 19.432 29.8944 19.4425Z" fill="url(#paint5_linear_2118_4318)"/>
<path d="M18.8134 19.4267H9.24765V23.2176H18.8134V19.4267Z" fill="url(#paint6_linear_2118_4318)"/>
<path d="M26.2489 0.660553H22.9666C20.7952 0.660553 19.0124 2.3275 18.8292 4.45146C18.8187 4.57046 18.8134 4.69155 18.8134 4.8137V8.53196V11.7405H22.6043V8.53196V4.8137C22.6043 4.61363 22.7675 4.45146 22.9666 4.45146H26.2489V0.660553Z" fill="url(#paint7_linear_2118_4318)"/>
<path d="M3.83827 11.3784V4.82964H0.0473633V11.3774C0.0473633 13.5498 1.71431 15.3315 3.83827 15.5147C3.95726 15.5253 4.07836 15.5305 4.20051 15.5305H11.1284V11.7396H4.20051C4.00044 11.7407 3.83827 11.5785 3.83827 11.3784Z" fill="url(#paint8_linear_2118_4318)"/>
<path d="M49.4292 31.9125C50.9982 31.8567 52.106 31.5313 52.7515 30.9353C53.3602 30.3646 53.6645 29.4474 53.6645 28.1837V9.3724H57.4754V28.1827C57.4754 28.9661 57.3817 29.7011 57.1953 30.3877C56.9552 31.2723 56.5656 32.0399 56.0264 32.6918C54.6764 34.344 52.4777 35.2106 49.4303 35.2917V31.9125H49.4292ZM57.4744 6.4018H53.6634V3.33958H57.4744V6.4018Z" fill="white"/>
<path d="M64.5539 9.42622C66.2619 9.02712 68.1636 8.82704 70.2613 8.82704C73.2287 8.82704 75.4222 9.68105 76.8417 11.3891C77.3808 12.0261 77.7704 12.7812 78.0105 13.6552C78.2022 14.3218 78.2991 15.0399 78.2991 15.8076V24.4172C76.4468 25.8524 74.0564 26.5695 71.1269 26.5695C68.8218 26.5695 66.8979 26.0209 65.3552 24.9247C64.6297 24.414 64.0716 23.818 63.682 23.1356C63.2871 22.449 63.0901 21.5087 63.0901 20.3167C63.0901 19.1246 63.2871 18.1874 63.682 17.5051C64.0716 16.828 64.6297 16.2298 65.3552 15.7086C66.8979 14.6219 68.8218 14.0796 71.1269 14.0796H74.2165C73.949 13.4172 73.4878 12.9349 72.8317 12.6316C72.1115 12.3031 71.2543 12.1388 70.2623 12.1388C68.17 12.1388 66.2682 12.3937 64.5549 12.9044V9.42622H64.5539ZM66.9 20.1956C66.9 21.3929 67.3139 22.2163 68.1405 22.666C68.8608 23.0556 69.8559 23.2493 71.1258 23.2493C72.161 23.2493 73.2814 23.0145 74.4881 22.5449V17.3987H71.1258C69.7327 17.3987 68.7354 17.5377 68.1321 17.8157C67.3107 18.2053 66.9 18.9983 66.9 20.1956Z" fill="white"/>
<path d="M100.347 9.35773L93.1426 26.2052H89.4528L82.248 9.35773H86.5623L91.3009 20.9832L96.0322 9.35773H100.347Z" fill="white"/>
<path d="M112.59 8.82704C114.575 8.82704 116.163 9.37988 117.353 10.4866C118.303 11.3764 118.988 12.5232 119.41 13.9279C119.832 15.3327 119.929 17.1765 119.699 19.4605H108.067C108.116 20.0566 108.358 20.6505 108.796 21.2412C109.676 22.4238 111.109 23.0145 113.094 23.0145C114.391 23.0145 115.674 22.7797 116.944 22.31C117.579 22.0773 118.084 21.8425 118.457 21.6056V25.3954C116.659 26.1736 114.703 26.5622 112.59 26.5622C111.432 26.5622 110.343 26.3653 109.323 25.9714C108.33 25.5923 107.461 25.049 106.714 24.3424C105.145 22.8618 104.361 20.6273 104.361 17.6388C104.361 14.6503 105.084 12.4358 106.53 10.9963C107.981 9.55153 109.852 8.82915 112.141 8.82915H112.59V8.82704ZM116.001 15.7844C116.001 14.7988 115.667 13.9574 115 13.2603C114.334 12.5632 113.53 12.2146 112.591 12.2146H112.142C110.968 12.2146 110.013 12.5685 109.277 13.2761C108.541 13.9785 108.127 14.9283 108.037 16.1256H116.002V15.7844H116.001Z" fill="white"/>
<path d="M128.188 21.7035C130.018 22.567 131.459 22.9998 132.51 22.9998C133.989 22.9998 134.728 22.5701 134.728 21.7109C134.728 21.2612 134.458 20.8263 133.919 20.4072C133.498 20.0787 132.71 19.629 131.558 19.0583C131.195 18.8761 130.7 18.636 130.073 18.338C129.446 18.04 129.048 17.8504 128.876 17.7694C128.022 17.345 127.406 16.9659 127.027 16.6321C126.114 15.8139 125.658 14.8462 125.658 13.7289C125.658 12.441 126.152 11.3396 127.139 10.4245C128.286 9.34828 129.873 8.81018 131.902 8.81018C133.695 8.81018 135.56 9.26509 137.497 10.1749L135.64 13.1613C135.4 13.0044 135.064 12.8454 134.631 12.6843C133.766 12.3715 132.857 12.2146 131.902 12.2146C130.536 12.2146 129.852 12.6422 129.852 13.4951C129.852 13.8942 130.242 14.3165 131.021 14.7609C131.614 15.0947 132.742 15.6001 134.408 16.2762C135.923 16.8975 137.047 17.6156 137.777 18.4286C138.567 19.3078 138.962 20.3661 138.962 21.6045C138.962 22.9945 138.338 24.1686 137.089 25.129C135.845 26.0894 134.186 26.5685 132.11 26.5685C130.029 26.5685 127.958 25.8714 125.898 24.4772L128.188 21.7035Z" fill="white"/>
</g>
<defs>
<linearGradient id="paint0_linear_2118_4318" x1="3.58686" y1="0.640238" x2="28.8596" y2="32.6882" gradientUnits="userSpaceOnUse">
<stop stop-color="#E6D78C"/>
<stop offset="0.2732" stop-color="#EAA881"/>
<stop offset="0.5153" stop-color="#EB7072"/>
<stop offset="0.7559" stop-color="#EC718C"/>
<stop offset="1" stop-color="#CA7AFF"/>
</linearGradient>
<linearGradient id="paint1_linear_2118_4318" x1="12.8425" y1="23.2173" x2="12.8425" y2="29.8352" gradientUnits="userSpaceOnUse">
<stop stop-color="#673D5A"/>
<stop offset="1" stop-color="#673D5A" stop-opacity="0"/>
</linearGradient>
<linearGradient id="paint2_linear_2118_4318" x1="13.0236" y1="19.4262" x2="13.0236" y2="10.9017" gradientUnits="userSpaceOnUse">
<stop stop-color="#673D5A"/>
<stop offset="1" stop-color="#673D5A" stop-opacity="0"/>
</linearGradient>
<linearGradient id="paint3_linear_2118_4318" x1="20.8897" y1="15.5312" x2="20.8897" y2="21.5225" gradientUnits="userSpaceOnUse">
<stop stop-color="#673D5A"/>
<stop offset="1" stop-color="#673D5A" stop-opacity="0"/>
</linearGradient>
<linearGradient id="paint4_linear_2118_4318" x1="14.9191" y1="13.4547" x2="21.0688" y2="13.4547" gradientUnits="userSpaceOnUse">
<stop stop-color="#673D5A"/>
<stop offset="1" stop-color="#673D5A" stop-opacity="0"/>
</linearGradient>
<linearGradient id="paint5_linear_2118_4318" x1="22.604" y1="21.5029" x2="29.1872" y2="21.5029" gradientUnits="userSpaceOnUse">
<stop stop-color="#673D5A"/>
<stop offset="1" stop-color="#673D5A" stop-opacity="0"/>
</linearGradient>
<linearGradient id="paint6_linear_2118_4318" x1="18.8131" y1="21.3217" x2="13.4293" y2="21.3217" gradientUnits="userSpaceOnUse">
<stop stop-color="#673D5A"/>
<stop offset="1" stop-color="#673D5A" stop-opacity="0"/>
</linearGradient>
<linearGradient id="paint7_linear_2118_4318" x1="22.5311" y1="11.9008" x2="22.5311" y2="4.93429" gradientUnits="userSpaceOnUse">
<stop stop-color="#673D5A"/>
<stop offset="1" stop-color="#673D5A" stop-opacity="0"/>
</linearGradient>
<linearGradient id="paint8_linear_2118_4318" x1="11.1281" y1="10.1806" x2="4.6673" y2="10.1806" gradientUnits="userSpaceOnUse">
<stop stop-color="#673D5A"/>
<stop offset="1" stop-color="#673D5A" stop-opacity="0"/>
</linearGradient>
<clipPath id="clip0_2118_4318">
<rect width="139" height="34.6447" fill="white" transform="translate(0 0.677643)"/>
</clipPath>
</defs>
</svg>
