<svg xmlns="http://www.w3.org/2000/svg" display="none">
  <symbol id="icon-players" viewBox="0 0 32 32">
    <title>PRO Players icon</title>
    <path d="M7.50557 12.7101C5.25168 10.9842 4.08611 8.22556 3.89653 5.91334C3.86845 5.54685 3.55248 5.33362 3.23651 5.33362C3.0048 5.33362 2.7731 5.4469 2.64671 5.68678C0.350686 10.078 1.26348 16.1151 3.86142 18.5273C4.47229 16.7814 5.46934 15.0423 6.76832 13.523C7.00705 13.2431 7.2528 12.9766 7.50557 12.7167V12.7101ZM29.1177 5.68678C28.9913 5.4469 28.7596 5.33362 28.5279 5.33362C28.2049 5.33362 27.8959 5.54019 27.8608 5.91334C27.6713 8.22556 26.5057 10.9909 24.2518 12.7167C24.5046 12.9766 24.7503 13.2431 24.989 13.523C26.288 15.0423 27.2851 16.7814 27.8959 18.5273C30.4939 16.1151 31.4067 10.0847 29.1177 5.68678ZM19.6878 11.424V20.6862H26.6953C26.0212 17.1346 23.3039 13.1698 19.6878 11.424ZM12.0766 20.6862V11.424C8.46049 13.1632 5.7502 17.1279 5.06912 20.6862H12.0766ZM26.9551 22.3321H4.80932C4.4091 22.3321 4.08611 22.6386 4.08611 23.0184V26.037C4.08611 26.4168 4.4091 26.7233 4.80932 26.7233H26.948C27.3483 26.7233 27.6713 26.4168 27.6713 26.037V23.0184C27.6713 22.6386 27.3483 22.3321 26.948 22.3321H26.9551ZM17.9535 10.7843C17.2865 10.6111 16.5914 10.5178 15.8822 10.5178C15.173 10.5178 14.4849 10.6111 13.8109 10.7843V20.6796H17.9465V10.7843H17.9535Z" fill="currentColor"
    />
  </symbol>

  <symbol id="icon-swords" viewBox="0 0 32 32">
    <title>Swords icon</title>
    <path d="M11.922 25.0883L6.78667 19.9529C6.53207 19.6983 6.11929 19.6983 5.8647 19.9529L5.14864 20.669C4.89405 20.9236 4.89405 21.3364 5.14864 21.5909L10.284 26.7263C10.5386 26.9809 10.9514 26.9809 11.2059 26.7263L11.922 26.0102C12.1766 25.7556 12.1766 25.3429 11.922 25.0883Z" fill="currentColor"/>
    <path d="M8.79236 24.874L7.00144 23.0831C6.83426 22.9159 6.5632 22.9159 6.39602 23.0831L3.64933 25.8298C3.48215 25.997 3.48215 26.268 3.64933 26.4352L5.44025 28.2261C5.60743 28.3933 5.87849 28.3933 6.04567 28.2261L8.79236 25.4794C8.95954 25.3123 8.95954 25.0412 8.79236 24.874Z" fill="currentColor"/>
    <path d="M3.74544 25.2204L6.65424 28.1292C6.84862 28.3236 6.84862 28.6386 6.65423 28.833L6.17481 29.3124C5.43955 30.0477 4.24637 30.0469 3.51187 29.3124L2.56225 28.3628C1.82698 27.6275 1.82775 26.4343 2.56225 25.6998L3.04167 25.2204C3.23605 25.026 3.55106 25.026 3.74544 25.2204Z" fill="currentColor"/>
    <path d="M10.4382 16.9342L15.1885 21.2163C14.2085 22.1007 13.2273 22.9852 12.2473 23.8696C10.8337 22.456 9.42008 21.0424 8.00757 19.6288L10.4382 16.9342Z" fill="currentColor"/>
    <path d="M30.2342 1.64099L27.8927 9.47607C27.8178 9.72706 27.6743 9.95306 27.4798 10.1291C25.8783 11.5731 24.2778 13.0171 22.6762 14.4611C22.3307 14.773 21.9852 15.0837 21.6397 15.3956L16.735 9.95741L16.7024 9.98674L17.6716 8.91215L21.7461 4.3943C21.9211 4.19981 22.1471 4.05747 22.3991 3.9825L30.2342 1.64099Z" fill="currentColor"/>
    <path d="M25.215 19.9518L20.0796 25.0871C19.825 25.3417 19.825 25.7545 20.0796 26.0091L20.7957 26.7251C21.0503 26.9797 21.4631 26.9797 21.7177 26.7251L26.853 21.5898C27.1076 21.3352 27.1076 20.9224 26.853 20.6678L26.1369 19.9518C25.8823 19.6972 25.4696 19.6972 25.215 19.9518Z" fill="currentColor"/>
    <path d="M24.9987 23.0842L23.2077 24.8751C23.0406 25.0423 23.0406 25.3134 23.2077 25.4806L25.9544 28.2273C26.1216 28.3944 26.3927 28.3944 26.5599 28.2273L28.3508 26.4363C28.5179 26.2692 28.5179 25.9981 28.3508 25.8309L25.6041 23.0842C25.4369 22.917 25.1658 22.917 24.9987 23.0842Z" fill="currentColor"/>
    <path d="M25.3455 28.132L28.2543 25.2232C28.4487 25.0288 28.7637 25.0288 28.9581 25.2232L29.4375 25.7026C30.1728 26.4379 30.172 27.6311 29.4375 28.3656L28.4879 29.3152C27.7526 30.0505 26.5595 30.0497 25.825 29.3152L25.3455 28.8358C25.1512 28.6414 25.1512 28.3264 25.3455 28.132Z" fill="currentColor"/>
    <path d="M4.10713 9.47607C4.1821 9.72706 4.32553 9.95306 4.52002 10.1291L9.03679 14.2036L14.5858 19.2083L19.7534 23.8685C20.2521 23.3686 20.7508 22.8688 21.2485 22.3679C21.6701 21.9464 22.0916 21.5248 22.5143 21.1021C23.0076 20.611 23.4998 20.1188 23.9931 19.6277C22.3622 17.8197 20.7313 16.0106 19.0993 14.2025C17.5944 12.5347 16.0896 10.8658 14.5858 9.19792C13.1418 7.59635 11.6977 5.99587 10.2537 4.3943C10.0777 4.19981 9.8517 4.05638 9.6007 3.98141L1.76562 1.64099L4.10713 9.47607Z" fill="currentColor"/>
  </symbol>

  <symbol id="icon-shops" viewBox="0 0 32 32">
    <title>Online Shops icon</title>
    <g>
      <path d="M4.58599 20.8533C5.61166 20.8533 6.58792 20.5301 7.39724 19.9666V30.7682H4.72756C3.47752 30.7682 2.46387 29.7545 2.46387 28.5045V20.3725C3.11159 20.6824 3.83276 20.8533 4.58599 20.8533Z" fill="currentColor"/>
      <path d="M18.2681 28.1101V30.7677H13.4482V28.1101C13.4482 26.7812 14.5287 25.6995 15.8575 25.6995C17.1863 25.6995 18.2681 26.7812 18.2681 28.1101Z" fill="currentColor"/>
      <path d="M22.4708 19.9342V30.7679H20.1377V28.1102C20.1377 25.7504 18.2172 23.8299 15.8573 23.8299C13.4975 23.8299 11.5784 25.7504 11.5784 28.1102V30.7679H9.2666V19.9489C10.0799 20.5232 11.0642 20.853 12.1006 20.853C13.5696 20.853 14.9372 20.1906 15.8587 19.1062C16.7802 20.1906 18.1464 20.853 19.6155 20.853C20.6598 20.853 21.6535 20.5178 22.4708 19.9342Z" fill="currentColor"/>
      <path d="M29.2528 20.3743V28.5049C29.2528 29.7549 28.2405 30.7686 26.9905 30.7686H24.3408V19.9817C25.1461 20.5359 26.1144 20.8538 27.1307 20.8538C27.8853 20.8538 28.6064 20.6828 29.2528 20.3743Z" fill="currentColor"/>
      <path d="M29.8369 14.5512L21.4472 9.87162C19.6216 8.78185 17.7973 7.69207 15.973 6.60229C14.9513 7.18191 13.931 7.76018 12.9093 8.33979L1.87932 14.5446C1.73242 14.6274 1.6416 14.7823 1.6416 14.9519V16.7629C1.81255 17.3532 2.14642 17.8633 2.58848 18.2439C3.12936 18.7114 3.83184 18.9878 4.5864 18.9878C5.86849 18.9878 7.02504 18.1732 7.46576 16.9605C7.49781 16.8737 7.54188 16.7922 7.59664 16.7201H7.61267C7.6327 16.6854 7.6554 16.6533 7.68211 16.6226C7.70749 16.5892 7.73687 16.5585 7.76759 16.5291L14.2181 10.5047C15.3091 10.4987 16.3938 10.4916 17.4807 10.4873L24.0114 16.5973C24.0261 16.6106 24.0394 16.624 24.0501 16.6387C24.0755 16.6654 24.0982 16.6921 24.1196 16.7215C24.1743 16.7936 24.2184 16.875 24.2504 16.9618C24.2571 16.9752 24.2611 16.9899 24.2665 17.0046C24.2678 17.0073 24.2691 17.0113 24.2705 17.0139C24.2865 17.0553 24.3025 17.0954 24.3199 17.1355C24.3333 17.1648 24.3453 17.1942 24.36 17.2223C24.376 17.2583 24.3933 17.2931 24.412 17.3278C24.4294 17.3625 24.4481 17.3972 24.4681 17.4306C24.4868 17.4653 24.5069 17.4987 24.5269 17.5308C24.5483 17.5642 24.5683 17.5962 24.591 17.6296C24.6337 17.6937 24.6791 17.7551 24.7272 17.8166C24.7392 17.8313 24.7499 17.846 24.7633 17.8606C24.7753 17.8753 24.7873 17.89 24.7993 17.9047C24.8247 17.9341 24.8501 17.9635 24.8755 17.9915C24.9022 18.0196 24.9276 18.0476 24.9543 18.0743C24.9823 18.1024 25.009 18.1291 25.0371 18.1545C25.0651 18.1812 25.0932 18.2065 25.1225 18.2319C25.1506 18.2573 25.18 18.2813 25.2093 18.3054C25.2387 18.3294 25.2694 18.3534 25.3002 18.3761C25.3335 18.4015 25.3683 18.4256 25.403 18.4496C25.431 18.4696 25.4591 18.4883 25.4871 18.5057C25.5512 18.5471 25.618 18.5858 25.6848 18.6219C25.7182 18.6406 25.7516 18.6579 25.7863 18.6753C25.8344 18.6993 25.8824 18.7207 25.9319 18.7421C25.9345 18.7434 25.9385 18.7448 25.9385 18.7448C25.9893 18.7661 26.04 18.7862 26.0908 18.8048C26.1322 18.8209 26.1709 18.8329 26.215 18.8476C26.2884 18.8716 26.3632 18.8917 26.438 18.909C26.4687 18.9157 26.5008 18.9237 26.5328 18.9304C26.5729 18.9371 26.6116 18.9451 26.6517 18.9518C26.6918 18.9571 26.7332 18.9638 26.7732 18.9678C26.7986 18.9705 26.8226 18.9731 26.848 18.9758C26.8547 18.9758 26.86 18.9771 26.8667 18.9771C26.8881 18.9785 26.9094 18.9811 26.9308 18.9825C26.9388 18.9825 26.9455 18.9838 26.9535 18.9838C27.0123 18.9878 27.071 18.9892 27.1298 18.9892C27.8857 18.9892 28.5868 18.714 29.1277 18.2453C29.5725 17.862 29.9077 17.3465 30.0746 16.7482V14.9613C30.0746 14.7916 29.9825 14.6354 29.8356 14.5539L29.8369 14.5512Z" fill="currentColor"/>
      <path d="M16.7939 12.4033V17.1043C17.2721 18.2368 18.3872 18.986 19.6159 18.986C20.6976 18.986 21.6913 18.4051 22.2375 17.4956L21.4068 16.7184L16.7939 12.4033Z" fill="currentColor"/>
      <path d="M21.1381 5.09143H15.0495C14.9841 5.09143 14.9307 5.03801 14.9307 4.97257V1.34933C14.9307 1.28389 14.9841 1.23047 15.0495 1.23047H21.1154C21.2116 1.23047 21.2677 1.33865 21.2129 1.41744C20.863 1.91826 20.5131 2.41774 20.1632 2.91855C20.1365 2.95595 20.1351 3.0067 20.1578 3.04676C20.5184 3.66911 20.879 4.29279 21.2396 4.91514C21.285 4.99394 21.2289 5.09276 21.1368 5.09276L21.1381 5.09143Z" fill="currentColor"/>
      <path d="M14.967 16.7162V12.4011L10.3541 16.7162L9.52344 17.4934C10.0697 18.4029 11.0633 18.9839 12.145 18.9839C13.3737 18.9839 14.4889 18.2346 14.967 17.1021V16.7162Z" fill="currentColor"/>
      <path d="M15.8587 8.47301C15.3418 8.47301 14.9238 8.055 14.9238 7.53816V4.31157C14.9238 3.79472 15.3418 3.37671 15.8587 3.37671C16.3755 3.37671 16.7935 3.79472 16.7935 4.31157V7.53816C16.7935 8.055 16.3755 8.47301 15.8587 8.47301Z" fill="currentColor"/>
    </g>
  </symbol>

  <symbol id="icon-skull" viewBox="0 0 32 32">
    <title>Skull icon</title>
    <path d="M28.9581 14.2793C28.9581 7.07209 23.1177 1.23083 15.9146 1.23083C8.71144 1.23083 2.87109 7.07209 2.87109 14.2793C2.87109 16.5927 3.34395 17.766 3.34395 17.766C4.08114 19.5718 4.8927 20.4063 4.53142 21.4148C4.32554 21.9888 4.22326 22.143 3.93503 23.1369C3.91643 23.1993 3.80486 23.6272 3.80486 24.0976C3.80486 26.0987 5.42799 27.7224 7.42835 27.7224C7.58907 27.7224 8.0088 27.7371 8.50158 27.5617C9.60669 27.167 9.66513 26.5824 10.4369 26.3538C10.5272 26.3272 10.6109 26.31 10.6905 26.3007C10.7609 26.3139 10.8898 26.3498 10.9987 26.4455C11.1661 26.5917 11.2139 26.8215 11.2232 27.0235C11.2232 27.4314 11.2258 27.838 11.2258 28.246H11.2351V30.1993C11.2351 30.5142 11.4902 30.7693 11.805 30.7693H13.3657C13.6805 30.7693 13.9355 30.5142 13.9355 30.1993V28.2473C14.1453 28.2473 14.3565 28.2473 14.5664 28.2473V30.1979C14.5664 30.5128 14.8214 30.768 15.1362 30.768H16.6969C17.0117 30.768 17.2668 30.5128 17.2668 30.1979V28.2486C17.4766 28.2486 17.6878 28.2486 17.8977 28.2486V30.1979C17.8977 30.5128 18.1527 30.768 18.4675 30.768H20.0282C20.343 30.768 20.598 30.5128 20.598 30.1979V27.1617C20.602 27.1152 20.606 27.0647 20.6113 27.0222C20.6365 26.795 20.6711 26.5903 20.8358 26.4442C20.9381 26.3525 21.0549 26.3166 21.1466 26.2993C21.225 26.3086 21.3073 26.3259 21.3976 26.3525C22.1694 26.581 22.2278 27.167 23.3329 27.5603C23.8244 27.7357 24.2441 27.7211 24.4061 27.7211C26.4065 27.7211 28.0296 26.0974 28.0296 24.0962C28.0296 23.6245 27.9181 23.198 27.8995 23.1355C27.6099 22.1416 27.5076 21.9875 27.3031 21.4135C26.9418 20.4063 27.7534 19.5705 28.4905 17.7647C28.4905 17.7647 28.9634 16.5914 28.9634 14.278L28.9581 14.2793ZM15.9172 21.3816C16.8218 21.3816 17.563 23.7189 17.1831 24.2291C17.1618 24.257 17.1313 24.2783 17.122 24.2876C16.8311 24.5281 16.5269 24.4045 15.8973 24.4072C15.2916 24.4072 14.9928 24.5214 14.7099 24.2862C14.7032 24.2809 14.6674 24.2557 14.6488 24.2304C14.2689 23.7215 15.01 21.3829 15.9146 21.3829L15.9172 21.3816ZM7.73119 19.0841C7.69134 18.8888 7.50273 17.9268 8.08052 17.2013C8.59323 16.5595 9.44199 16.5621 10.8393 16.5462C12.2273 16.5302 13.0216 16.5209 13.5529 17.1149C14.1972 17.8351 13.9793 18.9154 13.9474 19.0841C13.6911 20.3677 12.4359 21.6247 10.8393 21.6247C9.24275 21.6247 7.9902 20.3903 7.73119 19.0841ZM24.0993 19.0841C23.843 20.3677 22.5878 21.6247 20.9912 21.6247C19.3946 21.6247 18.1421 20.3903 17.8831 19.0841C17.8432 18.8888 17.6546 17.9268 18.2324 17.2013C18.7451 16.5595 19.5939 16.5621 20.9912 16.5462C22.3792 16.5302 23.1735 16.5209 23.7048 17.1149C24.349 17.8351 24.1312 18.9154 24.0993 19.0841Z" fill="currentColor"/>
  </symbol>

  <symbol id="prev-arrow" viewBox="0 0 36 36">
    <title>Previous slide</title>
    <path d="M3 18L33 18M16.858 2.837L3 18l13.858 15.163" fill="none" stroke="currentColor" stroke-width="2.857"/>
  </symbol>

  <symbol id="next-arrow" viewBox="0 0 36 36">
    <title>Next slide</title>
    <path d="M3 18h30M19.142 2.837l13.858 15.163-13.858 15.163" fill="none" stroke="currentColor" stroke-width="2.857"/>
  </symbol>

  <symbol id="submit-arrow" viewBox="0 0 16 16">
    <title>Sign up for exclusive news</title>
    <path d="M5 5l10 10M15 5v10H5" stroke="currentColor" stroke-width="2"/>
  </symbol>

  <symbol id="submit-checked" viewBox="0 0 16 17">
    <title>Sign up for exclusive news</title>
    <path d="M3 8L7 12L14 5" stroke="#51C216" stroke-width="2"/>
  </symbol>

  <symbol id="icon-crown" viewBox="0 0 32 32">
    <title>Crown icon</title>
    <path d="M26.9057 22.5861H5.09C4.77076 22.5861 4.51196 22.8449 4.51196 23.1641V26.2001C4.51196 26.5194 4.77076 26.7782 5.09 26.7782H26.9057C27.2249 26.7782 27.4837 26.5194 27.4837 26.2001V23.1641C27.4837 22.8449 27.2249 22.5861 26.9057 22.5861Z" fill="currentColor"/>
    <path d="M15.7585 5.46357C14.3969 7.55963 13.034 9.65568 11.6724 11.7517C11.6008 11.8618 11.6141 12.0063 11.7029 12.1031L13.144 13.641C13.2395 13.7431 13.2647 13.8915 13.209 14.0201C13.1533 14.1448 13.091 14.2853 13.0738 14.3237C12.6906 15.1882 12.4984 15.6217 12.4878 15.6416C12.3101 15.9611 11.8633 16.7963 10.9645 17.0615C10.4805 17.2047 9.93167 17.1941 9.37087 16.974C8.79151 16.7473 8.33279 16.2753 8.12464 15.6893C7.8396 14.8845 7.97085 14.109 8.36593 13.523C8.51044 13.3095 8.42692 13.0192 8.18828 12.9211C6.19828 12.1084 4.20962 11.2957 2.21962 10.483L1.58855 10.2284C1.38704 10.1475 1.18154 10.3345 1.2412 10.5426C2.388 14.5014 3.43271 16.5365 4.57818 20.311C4.68292 20.657 5.00243 20.8956 5.36437 20.8956H26.6351C26.9971 20.8956 27.3153 20.6583 27.4213 20.311C28.5668 16.5378 29.6115 14.5014 30.7583 10.5426C30.8193 10.3345 30.6125 10.1475 30.411 10.2284L29.7799 10.483C27.7899 11.2957 25.8012 12.1084 23.8112 12.9211C23.5726 13.0179 23.4891 13.3095 23.6336 13.523C23.9147 13.9406 24.0631 14.4563 24.0207 15.0105C23.9345 16.1281 23.0357 17.0403 21.9194 17.145C20.8031 17.2497 19.8684 16.5882 19.5117 15.6416C19.3407 15.2571 19.1697 14.8726 19 14.4881C18.9456 14.3675 18.8581 14.1686 18.7905 14.0175C18.7348 13.8915 18.76 13.7431 18.8542 13.6423C19.3354 13.1292 19.8153 12.6161 20.2966 12.1031C20.3868 12.0076 20.3987 11.8618 20.3271 11.7517C18.9655 9.65568 17.6026 7.55963 16.2411 5.46357C16.1284 5.28989 15.8751 5.28989 15.7624 5.46357H15.7585Z" fill="currentColor"/>
  </symbol>

  <symbol id="icon-gamepad" viewBox="0 0 32 32">
    <title>Gamepad icon</title>
    <path d="M28.4694 9.15134C28.2251 8.78255 27.1823 7.20277 25.5261 6.5502C24.5345 6.16048 23.531 6.15394 23.531 6.15394C23.3353 6.15264 22.8914 6.16179 22.3398 6.2808C21.8486 6.38542 21.381 6.55412 20.9463 6.77775C20.4984 6.98045 20.0781 7.23546 19.6972 7.53364H12.3014C11.9192 7.23546 11.5003 6.98045 11.0524 6.77775C10.6176 6.55412 10.1501 6.38542 9.65886 6.2808C9.10723 6.16179 8.6633 6.15394 8.4676 6.15394C8.4676 6.15394 7.46548 6.16048 6.47517 6.5502C4.81897 7.20277 3.77481 8.78255 3.53052 9.15134C0.880066 13.1662 -0.0445708 24.0886 3.85887 25.6566C4.00728 25.7155 4.3225 25.8266 4.82947 25.8449C8.39011 25.977 10.9105 21.2076 11.4215 20.2006H20.5811C21.0907 21.2076 23.6112 25.9757 27.1718 25.8449C27.6788 25.8266 27.994 25.7155 28.1424 25.6566C32.0458 24.0886 31.1238 13.1662 28.4708 9.15134H28.4694ZM11.9783 14.0986C11.9783 14.4386 11.6999 14.7172 11.3571 14.7172H9.7902V16.2407C9.7902 16.5821 9.51307 16.8593 9.16896 16.8593H8.48205C8.13925 16.8593 7.86081 16.5834 7.86081 16.2407V14.7172H6.43183C6.09034 14.7172 5.8119 14.4399 5.8119 14.0986V13.4133C5.8119 13.0733 6.08903 12.7961 6.43183 12.7961H7.86081V11.3392C7.86081 10.9979 8.13794 10.7207 8.48205 10.7207H9.16896C9.51176 10.7207 9.7902 10.9966 9.7902 11.3392V12.7961H11.3571C11.6986 12.7961 11.9783 13.072 11.9783 13.4133V14.0986ZM21.9353 14.0986C21.9353 14.4399 21.6581 14.7172 21.314 14.7172H20.6297C20.2882 14.7172 20.0085 14.4412 20.0085 14.0986V13.4173C20.0085 13.0772 20.2869 12.7987 20.6297 12.7987H21.314C21.6568 12.7987 21.9353 13.0759 21.9353 13.4173V14.0986ZM23.9776 16.2342C23.9776 16.5755 23.7005 16.8528 23.3564 16.8528H22.6721C22.3306 16.8528 22.0508 16.5768 22.0508 16.2342V15.5528C22.0508 15.2115 22.3293 14.9343 22.6721 14.9343H23.3564C23.6992 14.9343 23.9776 15.2102 23.9776 15.5528V16.2342ZM23.9776 12.0271C23.9776 12.3684 23.7005 12.6457 23.3564 12.6457H22.6721C22.3306 12.6457 22.0508 12.3697 22.0508 12.0271V11.3458C22.0508 11.0057 22.3293 10.7272 22.6721 10.7272H23.3564C23.6992 10.7272 23.9776 11.0044 23.9776 11.3458V12.0271ZM26.1867 14.0986C26.1867 14.4399 25.9083 14.7172 25.5655 14.7172H24.8812C24.5384 14.7172 24.26 14.4412 24.26 14.0986V13.4173C24.26 13.0772 24.5371 12.7987 24.8812 12.7987H25.5655C25.907 12.7987 26.1867 13.0759 26.1867 13.4173V14.0986Z" fill="currentColor"/>
  </symbol>

  <symbol id="icon-headphones" viewBox="0 0 32 32">
    <title>Headphones icon</title>
    <path d="M13.2402 9.80356C11.6779 10.2783 10.2852 11.1463 9.1792 12.2917V25.4638C10.9046 27.2484 13.3218 28.3583 15.998 28.3583C18.6742 28.3583 21.0966 27.2484 22.8194 25.4625V12.2904C21.094 10.5058 18.6755 9.39587 15.998 9.39587C15.0393 9.39587 14.1121 9.53922 13.2402 9.80356Z" fill="currentColor" />
    <path d="M27.7026 13.7226C26.8333 8.05056 21.9214 3.69232 16.0101 3.69232C10.0987 3.69232 5.19335 8.0453 4.32013 13.7121C2.49608 14.555 1.23096 16.4001 1.23096 18.5424V19.2118C1.23096 22.1484 3.61129 24.5301 6.54922 24.5301H7.01608V13.3267C8.00372 9.27755 11.661 6.26071 16.0114 6.26071C20.3617 6.26071 23.9611 9.22758 24.9843 13.2294V24.5288H25.4512C28.3891 24.5288 30.7694 22.1471 30.7694 19.2105V18.5411C30.7694 16.4093 29.5148 14.5708 27.7039 13.7226H27.7026Z" fill="currentColor" />
  </symbol>

  <symbol id="icon-robot" viewBox="0 0 32 32">
    <title>Robot icon</title>
    <path d="M3.65192 15.1987H4.58759V25.0161H3.65192C2.31581 25.0161 1.23096 23.9312 1.23096 22.5951V17.621C1.23096 16.2836 2.31581 15.1987 3.65192 15.1987Z" fill="currentColor"/>
    <path d="M28.3486 25.0176H27.4129V15.2003H28.3486C29.6847 15.2003 30.7695 16.2851 30.7695 17.6213V22.5954C30.7695 23.9315 29.6847 25.0163 28.3486 25.0163V25.0176Z" fill="currentColor"/>
    <path d="M18.0408 6.55297C18.0408 5.42886 17.126 4.51282 16.0006 4.51282C14.8752 4.51282 13.9604 5.42755 13.9604 6.55297C13.9604 7.37348 14.4486 8.08145 15.15 8.40468V10.7681H16.8512V8.40468C17.5513 8.08145 18.0408 7.37348 18.0408 6.55297Z" fill="currentColor"/>
    <path d="M22.4271 12.5978H9.57632C7.84238 12.5978 6.42383 14.0163 6.42383 15.749V24.471C6.42383 26.2036 7.84238 27.6222 9.57632 27.6222H22.4271C24.1597 27.6222 25.5783 26.2036 25.5783 24.471V15.749C25.5783 14.0163 24.1597 12.5978 22.4271 12.5978ZM12.8047 19.12C12.8047 19.4668 12.522 19.7508 12.1753 19.7508H11.5916C11.2448 19.7508 10.9608 19.4668 10.9608 19.12V16.7566C10.9608 16.4098 11.2448 16.1272 11.5916 16.1272H12.1753C12.522 16.1272 12.8047 16.4098 12.8047 16.7566V19.12ZM18.7786 23.4633C18.7786 23.8101 18.4946 24.0928 18.1478 24.0928H13.8542C13.5074 24.0928 13.2235 23.8101 13.2235 23.4633V22.8797C13.2235 22.5329 13.5074 22.2489 13.8542 22.2489H18.1478C18.4946 22.2489 18.7786 22.5329 18.7786 22.8797V23.4633ZM21.0425 19.12C21.0425 19.4668 20.7586 19.7508 20.4118 19.7508H19.8281C19.4813 19.7508 19.1974 19.4668 19.1974 19.12V16.7566C19.1974 16.4098 19.4813 16.1272 19.8281 16.1272H20.4118C20.7586 16.1272 21.0425 16.4098 21.0425 16.7566V19.12Z" fill="currentColor"/>
  </symbol>

  <symbol id="icon-pouch" viewBox="0 0 32 32">
    <title>Pouch of money</title>
    <path d="M15.2888 17.2436C15.0266 17.3562 14.8233 17.5091 14.6801 17.7032C14.5358 17.8974 14.4642 18.118 14.4642 18.365C14.4642 18.5718 14.5127 18.7499 14.612 18.9004C14.7102 19.0509 14.8395 19.1762 15 19.2761C15.1617 19.3772 15.3349 19.4611 15.5197 19.5278C15.5902 19.553 15.6595 19.576 15.7276 19.5978V17.1173C15.5682 17.1448 15.4227 17.1874 15.2888 17.2436ZM15.2888 17.2436C15.0266 17.3562 14.8233 17.5091 14.6801 17.7032C14.5358 17.8974 14.4642 18.118 14.4642 18.365C14.4642 18.5718 14.5127 18.7499 14.612 18.9004C14.7102 19.0509 14.8395 19.1762 15 19.2761C15.1617 19.3772 15.3349 19.4611 15.5197 19.5278C15.5902 19.553 15.6595 19.576 15.7276 19.5978V17.1173C15.5682 17.1448 15.4227 17.1874 15.2888 17.2436ZM25.4032 18.3846C24.6271 16.4991 22.9999 13.2947 19.5942 10.1673C18.8158 10.4856 17.3629 10.9578 15.5186 10.836C14.1581 10.7464 13.0841 10.3672 12.3969 10.0593C10.4082 11.9424 8.07074 14.7585 6.58671 18.6431C5.17429 22.3404 4.97565 25.8619 5.89263 27.6152C6.08665 27.9863 6.69642 29.1283 7.97373 29.9866C9.64831 31.1126 10.9302 30.7185 15.4747 30.6335C21.0355 30.5301 22.6835 31.054 24.6225 29.5557C25.5938 28.8055 26.0985 27.9656 26.2705 27.6577C27.9705 24.6164 26.475 20.9869 25.4032 18.3846ZM19.0444 23.6754C18.7892 24.058 18.4196 24.3602 17.9369 24.582C17.6182 24.7279 17.2555 24.8255 16.849 24.8738V25.5586C16.849 25.724 16.715 25.8573 16.5499 25.8573H16.0267C15.8616 25.8573 15.7276 25.724 15.7276 25.5586V24.8945C15.2622 24.8566 14.8487 24.7601 14.485 24.6026C14.0068 24.3958 13.6315 24.1017 13.3613 23.7203C13.1534 23.4273 13.0159 23.0918 12.9513 22.7138C12.9201 22.5299 13.0598 22.3611 13.2469 22.3611H13.9768C14.1154 22.3611 14.2413 22.453 14.2713 22.5874C14.3198 22.8034 14.4122 22.9895 14.5473 23.1469C14.7286 23.3549 14.9608 23.5089 15.2437 23.61C15.3973 23.664 15.5578 23.703 15.7276 23.7271V20.8226L15.4262 20.741C14.7252 20.5515 14.1697 20.2723 13.7608 19.9035C13.352 19.5358 13.1476 19.0475 13.1476 18.4409C13.1476 17.9388 13.2839 17.501 13.5576 17.1265C13.8313 16.7531 14.202 16.4612 14.6697 16.2533C14.9931 16.1085 15.3453 16.0143 15.7276 15.9695V15.2686C15.7276 15.1043 15.8616 14.971 16.0267 14.971H16.5499C16.715 14.971 16.849 15.1043 16.849 15.2686V15.9787C17.2024 16.0258 17.5269 16.1165 17.8214 16.251C18.2764 16.4578 18.6344 16.7416 18.8966 17.1035C19.0918 17.3723 19.2177 17.6711 19.2743 17.9997C19.3054 18.1812 19.1622 18.3478 18.9774 18.3478H18.2799C18.1459 18.3478 18.027 18.2593 17.9923 18.1306C17.9126 17.8308 17.7371 17.5906 17.4692 17.4091C17.2879 17.2873 17.0811 17.1988 16.849 17.1448V19.8966L16.9091 19.9127C17.1885 19.9804 17.4749 20.0724 17.7683 20.1884C18.0616 20.3056 18.3342 20.4584 18.5848 20.648C18.8354 20.8376 19.0387 21.0731 19.1934 21.3534C19.3493 21.6349 19.4267 21.9704 19.4267 22.3611C19.4267 22.8551 19.2985 23.2928 19.0444 23.6754ZM17.304 21.3075C17.162 21.2466 17.0107 21.1891 16.849 21.1363V23.6869C16.9633 23.6605 17.0719 23.626 17.1758 23.5847C17.468 23.4663 17.6978 23.302 17.8665 23.0906C18.0351 22.8804 18.1194 22.6322 18.1194 22.3484C18.1194 22.0911 18.0455 21.8796 17.8988 21.7153C17.7521 21.551 17.5535 21.4155 17.304 21.3075ZM14.6801 17.7032C14.5358 17.8974 14.4642 18.118 14.4642 18.365C14.4642 18.5718 14.5127 18.7499 14.612 18.9004C14.7102 19.0509 14.8395 19.1762 15 19.2761C15.1617 19.3772 15.3349 19.4611 15.5197 19.5278C15.5902 19.553 15.6595 19.576 15.7276 19.5978V17.1173C15.5682 17.1448 15.4227 17.1874 15.2888 17.2436C15.0266 17.3562 14.8233 17.5091 14.6801 17.7032ZM15.2888 17.2436C15.0266 17.3562 14.8233 17.5091 14.6801 17.7032C14.5358 17.8974 14.4642 18.118 14.4642 18.365C14.4642 18.5718 14.5127 18.7499 14.612 18.9004C14.7102 19.0509 14.8395 19.1762 15 19.2761C15.1617 19.3772 15.3349 19.4611 15.5197 19.5278C15.5902 19.553 15.6595 19.576 15.7276 19.5978V17.1173C15.5682 17.1448 15.4227 17.1874 15.2888 17.2436ZM15.2888 17.2436C15.0266 17.3562 14.8233 17.5091 14.6801 17.7032C14.5358 17.8974 14.4642 18.118 14.4642 18.365C14.4642 18.5718 14.5127 18.7499 14.612 18.9004C14.7102 19.0509 14.8395 19.1762 15 19.2761C15.1617 19.3772 15.3349 19.4611 15.5197 19.5278C15.5902 19.553 15.6595 19.576 15.7276 19.5978V17.1173C15.5682 17.1448 15.4227 17.1874 15.2888 17.2436Z" fill="currentColor"/>
    <path d="M9.35662 2.0952C8.55052 3.28436 9.80587 5.85455 12.3697 8.50058C13.058 8.80849 14.1321 9.18764 15.4914 9.27726C17.3369 9.39905 18.7886 8.92683 19.5669 8.60857C22.5985 4.6539 22.8306 3.15913 22.3629 2.56972C21.9033 1.9895 20.9875 2.56053 18.5472 2.35372C15.7073 2.11359 15.1807 1.18754 12.6076 1.23235C11.3245 1.25532 9.90751 1.2829 9.35547 2.0952H9.35662Z" fill="currentColor"/>
  </symbol>

  <symbol id="icon-handshake" viewBox="0 0 30 20">
    <title>Handshake</title>
      <g clip-path="url(#clip0_1353_16046)">
        <path d="M29.0282 11.5708L28.0606 11.8827C27.9531 11.9173 27.8429 11.9332 27.7354 11.9332C27.2854 11.9332 26.8673 11.6451 26.7212 11.1925L24.2629 3.53477C24.0837 2.97328 24.3917 2.3733 24.9532 2.1941L25.9208 1.88349C26.0283 1.84898 26.1385 1.83173 26.246 1.83173C26.696 1.83173 27.1142 2.11977 27.2602 2.57241L29.7172 10.2315C29.8977 10.7916 29.5884 11.3929 29.0282 11.5708Z" fill="currentColor"/>
        <path d="M13.7915 3.27853C13.2379 3.27455 12.6844 3.27189 12.1309 3.26791C11.9411 3.46835 11.8402 3.59445 11.8402 3.59445C11.4154 4.12541 10.5778 5.1767 10.7637 6.09393C10.7902 6.22932 10.8778 6.5625 11.1699 6.80276C11.4128 7.00319 11.7061 7.05894 11.9557 7.05894C12.1866 7.05894 12.3804 7.01116 12.4641 6.98859C12.8357 6.88373 12.8848 6.73373 13.5392 6.23463C14.0941 5.8112 14.6025 5.43554 15.2595 5.22449C15.4932 5.15015 15.8409 5.06918 16.2962 5.06918C16.3241 5.06918 16.3533 5.06918 16.3825 5.06918C15.683 4.33248 14.8029 3.71259 13.7901 3.2772L13.7915 3.27853ZM23.0646 13.4849L22.9 13.3216L17.6011 8.07174L15.902 6.38994C15.8171 6.40587 15.7334 6.42578 15.6538 6.45233C15.2131 6.59436 14.8401 6.86249 14.3211 7.25938C14.126 7.40805 13.9959 7.51955 13.8791 7.61778C13.6083 7.84874 13.3282 8.08635 12.8105 8.23103C12.618 8.28545 12.3127 8.34917 11.9557 8.34917C11.3424 8.34917 10.7889 8.15935 10.3509 7.79963C9.91945 7.44389 9.61813 6.93151 9.50132 6.35277C9.25575 5.13953 9.92476 4.00461 10.4703 3.25995C9.25708 3.25331 8.04252 3.24535 6.83061 3.23871L4.60059 10.5367C5.51383 11.5309 6.53327 12.5623 7.66686 13.6043C8.36507 14.2481 9.05266 14.8454 9.72565 15.4029C11.0716 16.5896 12.4163 17.7763 13.7636 18.9617C13.8671 19.0652 13.9839 19.1435 14.11 19.1966C14.2919 19.2922 14.491 19.34 14.6888 19.34C15.0392 19.34 15.3857 19.1953 15.6352 18.9139C16.0188 18.4785 16.0454 17.8546 15.7427 17.3927L16.0679 17.7099C16.3254 17.9621 16.6599 18.0882 16.9931 18.0882C17.094 18.0882 17.1936 18.075 17.2931 18.0524C17.5108 18.0126 17.7192 17.9077 17.8865 17.7405C17.8931 17.7352 17.8971 17.7285 17.9024 17.7232C17.9143 17.7113 17.9263 17.702 17.9382 17.69C18.4201 17.1989 18.4387 16.4264 18.0019 15.9113L18.6683 16.5631C18.9245 16.8153 19.259 16.9414 19.5922 16.9414C19.8603 16.9414 20.1271 16.8591 20.3541 16.6985C20.439 16.6507 20.5173 16.5923 20.589 16.5193C20.8107 16.2976 20.9195 16.0096 20.9195 15.7202C20.9195 15.6843 20.9195 15.6485 20.9142 15.6127C20.9116 15.2728 20.7788 14.9317 20.516 14.6742L21.0297 15.1574C21.2872 15.4096 21.6217 15.5357 21.9549 15.5357C22.2881 15.5357 22.6412 15.4029 22.9 15.1375C23.3434 14.6861 23.3951 13.9946 23.0606 13.4862L23.0646 13.4849Z" fill="currentColor"/>
        <path d="M25.387 11.3079C25.2875 11.4857 25.0631 11.8335 24.6384 12.099C24.3079 12.3061 23.9933 12.3777 23.8048 12.4069C21.3345 9.96055 18.8669 7.5155 16.3979 5.06911H16.382C16.3528 5.06911 16.3236 5.06911 16.2957 5.06911C15.8417 5.06911 15.494 5.15008 15.259 5.22442C14.602 5.43547 14.0936 5.81112 13.5387 6.23456C12.8843 6.73366 12.8365 6.88498 12.4635 6.98852C12.3799 7.01109 12.1861 7.05887 11.9551 7.05887C11.7056 7.05887 11.4122 7.00312 11.1693 6.80269C10.8773 6.56243 10.7897 6.22925 10.7631 6.09386C10.576 5.17663 11.4149 4.12666 11.8397 3.59438C11.8397 3.59438 11.9405 3.46828 12.1304 3.26784C12.5803 2.79396 13.5361 1.90594 14.8475 1.30064C15.2033 1.13737 15.5285 1.02189 15.9333 0.984725C16.0196 0.97676 16.1046 0.972778 16.1882 0.972778C16.7855 0.972778 17.2687 1.15861 17.5541 1.29401C19.3739 2.14752 21.1938 2.99971 23.0136 3.85189L25.3884 11.3065L25.387 11.3079Z" fill="currentColor"/>
        <path d="M5.63702 2.7366L3.28753 10.4288C3.14683 10.8868 2.72472 11.1828 2.2681 11.1828C2.16456 11.1828 2.06102 11.1669 1.95616 11.1363L0.984507 10.839C0.421693 10.6664 0.105774 10.0704 0.277007 9.50763L2.62782 1.81805C2.76852 1.35877 3.19063 1.06409 3.64593 1.06409C3.75079 1.06409 3.85433 1.07869 3.95919 1.11055L4.93084 1.40788C5.49366 1.57912 5.80958 2.17511 5.63702 2.73793V2.7366Z" fill="currentColor"/>
      </g>
      <defs>
        <clipPath id="clip0_1353_16046">
          <rect width="29.5385" height="18.3631" fill="currentColor" transform="translate(0.230469 0.974365)"/>
        </clipPath>
      </defs>
  </symbol>

  <symbol id="linkedin-icon" viewBox="0 0 24 24">
    <title>LinkedIn icon</title>
    <path d="M4.49537 3C3.10934 3 2.20312 3.87085 2.20312 5.01547C2.20312 6.13481 3.08234 7.0305 4.44218 7.0305H4.46849C5.88162 7.0305 6.76107 6.13481 6.76107 5.01547C6.73465 3.87085 5.88162 3 4.49537 3Z" fill="currentColor"/>
    <path d="M2.44531 8.62207H6.49726V20.2863H2.44531V8.62207Z" fill="currentColor"/>
    <path d="M16.4381 8.34863C14.2522 8.34863 12.7864 10.314 12.7864 10.314V8.6224H8.73438V20.2867H12.7862V13.7729C12.7862 13.4242 12.8126 13.076 12.9197 12.8267C13.2126 12.1303 13.8792 11.4089 14.9986 11.4089C16.4648 11.4089 17.0512 12.4786 17.0512 14.0467V20.2867H21.1028V13.5986C21.1028 10.0158 19.1037 8.34863 16.4381 8.34863Z" fill="currentColor"/>
  </symbol>

  <symbol id="x-icon" viewBox="0 0 24 24">
    <title>X icon</title>
    <path d="M15.6009 4.5H18.0544L12.6943 10.8538L19 19.5H14.0627L10.1957 14.2562L5.77087 19.5H3.31595L9.04904 12.7038L3 4.5H8.06262L11.5581 9.29308L15.6009 4.5ZM14.7399 17.9769H16.0993L7.32392 5.94308H5.86506L14.7399 17.9769Z" fill="currentColor"/>
  </symbol>

  <symbol id="lastDeal" viewBox="0 0 24 24">
    <title>Last deal icon</title>
    <path d="M0.923828 7.67308V20.4128C0.923828 21.5387 1.84514 22.461 2.97205 22.461H20.9018C22.0278 22.461 22.9501 21.5387 22.9501 20.4128V7.67308H0.923828ZM7.67161 18.6837C7.67161 19.0117 7.40334 19.28 7.07535 19.28H5.50296C5.17497 19.28 4.9067 19.0117 4.9067 18.6837V17.1104C4.9067 16.7834 5.17497 16.5151 5.50296 16.5151H7.07535C7.40334 16.5151 7.67161 16.7834 7.67161 17.1104V18.6837ZM7.67161 13.0237C7.67161 13.3507 7.40334 13.619 7.07535 13.619H5.50296C5.17497 13.619 4.9067 13.3507 4.9067 13.0237V11.4503C4.9067 11.1224 5.17497 10.8541 5.50296 10.8541H7.07535C7.40334 10.8541 7.67161 11.1224 7.67161 11.4503V13.0237ZM13.3189 18.6837C13.3189 19.0117 13.0516 19.28 12.7236 19.28H11.1503C10.8223 19.28 10.554 19.0117 10.554 18.6837V17.1104C10.554 16.7834 10.8223 16.5151 11.1503 16.5151H12.7236C13.0516 16.5151 13.3189 16.7834 13.3189 17.1104V18.6837ZM13.3189 13.0237C13.3189 13.3507 13.0516 13.619 12.7236 13.619H11.1503C10.8223 13.619 10.554 13.3507 10.554 13.0237V11.4503C10.554 11.1224 10.8223 10.8541 11.1503 10.8541H12.7236C13.0516 10.8541 13.3189 11.1224 13.3189 11.4503V13.0237ZM18.9672 18.6837C18.9672 19.0117 18.6989 19.28 18.3709 19.28H16.7985C16.4705 19.28 16.2023 19.0117 16.2023 18.6837V17.1104C16.2023 16.7834 16.4705 16.5151 16.7985 16.5151H18.3709C18.6989 16.5151 18.9672 16.7834 18.9672 17.1104V18.6837ZM18.9672 13.0237C18.9672 13.3507 18.6989 13.619 18.3709 13.619H16.7985C16.4705 13.619 16.2023 13.3507 16.2023 13.0237V11.4503C16.2023 11.1224 16.4705 10.8541 16.7985 10.8541H18.3709C18.6989 10.8541 18.9672 11.1224 18.9672 11.4503V13.0237Z" fill="currentColor"/>
    <path d="M22.9512 6.31612L0.924942 6.31612V3.89389C0.924942 2.76306 1.84233 1.84566 2.97317 1.84566L20.903 1.84566C22.0338 1.84566 22.9512 2.76306 22.9512 3.89389V6.31612Z" fill="currentColor"/>
  </symbol>

  <symbol id="mostDeals" viewBox="0 0 24 24">
    <title>Most deals icon</title>
    <path d="M5.02307 20.5891H1.7674C1.30679 20.5891 0.933594 20.219 0.933594 19.7635V16.7087C0.975824 16.7087 1.01904 16.7068 1.06127 16.7068C3.2327 16.7068 5.00343 18.4444 5.02307 20.5891Z" fill="currentColor"/>
    <path d="M10.1367 10.3846V11.6337C10.1367 12.6352 10.9597 13.4491 11.9723 13.4491H12.0174C13.03 13.4491 13.853 12.6342 13.853 11.6337V10.3846H10.1367ZM12.5998 12.0116C12.5998 12.199 12.4466 12.3506 12.2561 12.3506H11.7336C11.5441 12.3506 11.3909 12.199 11.3909 12.0116V11.4948C11.3909 11.3064 11.5441 11.1549 11.7336 11.1549H12.2561C12.4466 11.1549 12.5998 11.3064 12.5998 11.4948V12.0116Z" fill="currentColor"/>
    <path d="M23.0673 10.3846V15.3354C20.1544 15.3636 17.7915 17.7064 17.7718 20.5903H6.40102C6.38236 17.688 3.98996 15.3345 1.0515 15.3345C1.00927 15.3345 0.966059 15.3345 0.923828 15.3364V10.3846H8.74825V11.6337C8.74825 13.3928 10.1949 14.8235 11.9725 14.8235H12.0177C13.7963 14.8235 15.2429 13.3928 15.2429 11.6337V10.3846H23.0673Z" fill="currentColor"/>
    <path d="M23.0787 16.7092V19.7649C23.0787 20.2205 22.7045 20.5906 22.2439 20.5906H19.1719C19.1915 18.4643 20.9318 16.7373 23.0787 16.7092Z" fill="currentColor"/>
    <path d="M6.58271 3.69232H17.4094C20.5325 3.69232 23.0673 6.20027 23.0673 9.28906H0.923828C0.923828 6.20027 3.45962 3.69232 6.58271 3.69232Z" fill="currentColor"/>
  </symbol>

  <symbol id="name" viewBox="0 0 20 20">
    <title>Name icon</title>
    <g clip-path="url(#clip0_68_358)">
      <path d="M13.2824 6.46607L12.9401 7.26519L13.6248 7.26522L13.2824 6.46607Z" fill="currentColor"/>
      <path fill-rule="evenodd" clip-rule="evenodd" d="M2.8893 0.15387H17.1116C18.6215 0.155177 19.8453 1.37891 19.8466 2.88887V17.1112C19.8453 18.6211 18.6215 19.8448 17.1116 19.8462H2.8893C1.37937 19.8448 0.155643 18.6211 0.154297 17.1112V2.88887C0.155605 1.37895 1.37934 0.155216 2.8893 0.15387ZM6.71844 13.6028L7.97263 12.3485C8.18463 12.1438 8.52071 12.1438 8.73271 12.3485C8.94998 12.5583 8.95598 12.9046 8.74606 13.122L6.55875 15.3094L6.55752 15.3106C6.34356 15.5239 5.99713 15.5233 5.78394 15.3094L3.5966 13.122C3.39198 12.91 3.39198 12.574 3.5966 12.362C3.80648 12.1447 4.15279 12.1387 4.37002 12.3485L5.6244 13.6028V5.07711C5.6244 4.77499 5.86929 4.53007 6.1714 4.53007C6.4734 4.53007 6.71844 4.77499 6.71844 5.07711V13.6028ZM13.0131 4.62757C13.291 4.47869 13.6369 4.58342 13.7857 4.86134L15.4268 8.69038C15.5459 8.9683 15.4174 9.29015 15.1394 9.40946C14.8615 9.52857 14.5395 9.39999 14.4204 9.12203L14.0936 8.35911H12.4714L12.1447 9.12203C12.0255 9.39999 11.7036 9.52857 11.4256 9.40946C11.1477 9.29015 11.0191 8.96834 11.1382 8.69038L12.7793 4.86138C12.8324 4.76205 12.9137 4.68069 13.0131 4.62757ZM12.962 14.3762H14.9235C15.2256 14.3762 15.4706 14.6213 15.4706 14.9233C15.4706 15.2254 15.2256 15.4703 14.9235 15.4703H11.6415C11.4965 15.4702 11.3574 15.4126 11.2548 15.3101C11.0413 15.0966 11.0412 14.7503 11.2548 14.5365L13.6031 12.1883H11.6415C11.3394 12.1883 11.0945 11.9434 11.0945 11.6413C11.0945 11.3391 11.3394 11.0942 11.6415 11.0942H14.9235C15.0685 11.0943 15.2076 11.1519 15.3101 11.2544C15.5237 11.468 15.5237 11.8143 15.3102 12.028L12.962 14.3762Z" fill="currentColor"/>
    </g>
    <defs>
      <clipPath id="clip0_68_358">
        <rect width="19.6923" height="19.6923" fill="white" transform="translate(0.154297 0.15387)"/>
      </clipPath>
    </defs>
  </symbol>

  <symbol id="explore-ecosystem" viewBox="0 0 18 20">
    <title>Explore Ecosystem icon</title>
    <path d="M3.88596 5.84194C3.88473 6.02127 3.86037 6.19969 3.81348 6.37278L7.69777 8.65603C8.07455 8.28655 8.58137 8.07984 9.10908 8.08042C9.63735 8.08019 10.1447 8.28681 10.5225 8.65603L14.4047 6.37278C14.3578 6.19969 14.3334 6.02127 14.3322 5.84194C14.3322 5.66253 14.3566 5.48395 14.4047 5.3111L10.5204 3.02572C10.1437 3.39559 9.637 3.60302 9.10908 3.60346C8.58142 3.60381 8.07468 3.39714 7.69777 3.02785L3.81348 5.3111C3.86037 5.48419 3.88473 5.66261 3.88596 5.84194Z" fill="currentColor"/>
    <path d="M14.3322 14.3703C14.3325 13.9262 14.4787 13.4945 14.7483 13.1416C15.018 12.7888 15.3961 12.5343 15.8246 12.4174V7.79338C15.494 7.70255 15.1918 7.52946 14.9462 7.29026L11.0619 9.57351C11.1088 9.7466 11.1332 9.92503 11.1344 10.1044C11.1337 10.5481 10.9873 10.9793 10.7177 11.3317C10.4481 11.6841 10.0702 11.9383 9.64209 12.055V16.4659C9.98799 16.561 10.3027 16.7455 10.5545 17.001L14.3919 14.8542C14.3526 14.6959 14.3326 14.5334 14.3322 14.3703Z" fill="currentColor"/>
    <path d="M7.66571 17.0031C7.91675 16.7477 8.23077 16.5631 8.57603 16.468V12.0572C8.14794 11.9404 7.77005 11.6863 7.50044 11.3338C7.23083 10.9814 7.08441 10.5502 7.08371 10.1065C7.08387 9.92708 7.10825 9.74852 7.15619 9.57564L3.27189 7.29026C3.02705 7.53044 2.7246 7.70369 2.39355 7.79338V12.4174C2.82163 12.535 3.19938 12.7896 3.46892 13.1423C3.73846 13.495 3.88492 13.9263 3.88588 14.3703C3.88504 14.5342 3.86428 14.6974 3.82405 14.8563L7.66571 17.0031Z" fill="currentColor"/>
    <path d="M9.1094 11.1715C9.69811 11.1715 10.1753 10.6942 10.1753 10.1055C10.1753 9.51684 9.69811 9.0396 9.1094 9.0396C8.5207 9.0396 8.04346 9.51684 8.04346 10.1055C8.04346 10.6942 8.5207 11.1715 9.1094 11.1715Z" fill="currentColor"/>
    <path d="M1.86087 6.90789C2.44957 6.90789 2.92681 6.43065 2.92681 5.84194C2.92681 5.25324 2.44957 4.776 1.86087 4.776C1.27216 4.776 0.794922 5.25324 0.794922 5.84194C0.794922 6.43065 1.27216 6.90789 1.86087 6.90789Z" fill="currentColor"/>
    <path d="M1.86087 15.4351C2.44957 15.4351 2.92681 14.9578 2.92681 14.3691C2.92681 13.7804 2.44957 13.3032 1.86087 13.3032C1.27216 13.3032 0.794922 13.7804 0.794922 14.3691C0.794922 14.9578 1.27216 15.4351 1.86087 15.4351Z" fill="currentColor"/>
    <path d="M16.3574 6.90789C16.9462 6.90789 17.4234 6.43065 17.4234 5.84194C17.4234 5.25324 16.9462 4.776 16.3574 4.776C15.7687 4.776 15.2915 5.25324 15.2915 5.84194C15.2915 6.43065 15.7687 6.90789 16.3574 6.90789Z" fill="currentColor"/>
    <path d="M16.3574 15.4351C16.9462 15.4351 17.4234 14.9578 17.4234 14.3691C17.4234 13.7804 16.9462 13.3032 16.3574 13.3032C15.7687 13.3032 15.2915 13.7804 15.2915 14.3691C15.2915 14.9578 15.7687 15.4351 16.3574 15.4351Z" fill="currentColor"/>
    <path d="M9.1094 19.4868C9.69811 19.4868 10.1753 19.0095 10.1753 18.4208C10.1753 17.8321 9.69811 17.3549 9.1094 17.3549C8.5207 17.3549 8.04346 17.8321 8.04346 18.4208C8.04346 19.0095 8.5207 19.4868 9.1094 19.4868Z" fill="currentColor"/>
    <path d="M9.1094 2.6443C9.69811 2.6443 10.1753 2.16706 10.1753 1.57836C10.1753 0.989652 9.69811 0.512413 9.1094 0.512413C8.5207 0.512413 8.04346 0.989652 8.04346 1.57836C8.04346 2.16706 8.5207 2.6443 9.1094 2.6443Z" fill="currentColor"/>
  </symbol>

  <symbol id="icon-token" viewBox="0 0 20 20">
    <title>Token icon</title>
    <path d="M19.231 8.37203C19.231 10.0683 18.6751 11.6364 17.7366 12.9026C17.4392 13.3035 17.1037 13.6746 16.735 14.0098C16.9479 13.2478 17.0573 12.4525 17.0573 11.6414C17.0573 6.80722 13.1406 2.874 8.32686 2.874C7.59042 2.874 6.86806 2.96467 6.17139 3.1427C6.44973 2.84737 6.75292 2.57451 7.07599 2.3266C8.34923 1.34912 9.93808 0.769287 11.6603 0.769287C15.8346 0.769287 19.231 4.18008 19.231 8.37203Z" fill="currentColor"/>
    <path fill-rule="evenodd" clip-rule="evenodd" d="M7.13403 10.4263H7.34938V9.55489V9.13996C7.34938 9.10281 7.31907 9.07269 7.28211 9.07269H6.06285C6.02569 9.07269 5.99558 9.10281 5.99558 9.13996V10.359C5.99558 10.3962 6.02569 10.4263 6.06285 10.4263H7.13403ZM9.4805 13.6448V12.5576H9.52965H10.767C10.8042 12.5576 10.8343 12.5877 10.8343 12.6249V13.8442C10.8343 13.8811 10.8042 13.9114 10.767 13.9114H9.54777C9.51081 13.9114 9.4805 13.8811 9.4805 13.8442V13.6448ZM3.7496 5.60731C5.02118 4.63149 6.60672 4.05249 8.32563 4.05249C12.4924 4.05249 15.8831 7.45663 15.8831 11.6419C15.8831 13.334 15.328 14.8996 14.3911 16.1633C13.0127 18.0234 10.8075 19.2305 8.32563 19.2305C4.15882 19.2305 0.769043 15.8264 0.769043 11.6419C0.769043 9.18282 1.93956 6.99326 3.7496 5.60731ZM10.8343 11.1274C10.8122 11.1293 10.7897 11.1303 10.767 11.1303H9.4805V11.8536H10.767C10.7897 11.8536 10.8122 11.8546 10.8343 11.8566C11.2287 11.8906 11.5383 12.2217 11.5383 12.6249V13.8442C11.5383 14.2701 11.1929 14.6154 10.767 14.6154H9.54777C9.14454 14.6154 8.81347 14.3058 8.77945 13.9114C8.77749 13.8893 8.77652 13.8668 8.77652 13.8442V12.5576H8.05337V13.8442C8.05337 13.8668 8.05239 13.8893 8.05043 13.9114C8.01641 14.3058 7.68534 14.6154 7.28211 14.6154H6.06285C5.63694 14.6154 5.29159 14.2701 5.29159 13.8442V12.6249C5.29159 12.2217 5.60115 11.8906 5.99558 11.8566C6.01767 11.8546 6.04016 11.8536 6.06285 11.8536H7.34938V11.1303H6.06285C6.04016 11.1303 6.01767 11.1293 5.99558 11.1274C5.60115 11.0933 5.29159 10.7625 5.29159 10.359V9.13996C5.29159 8.71405 5.63694 8.36871 6.06285 8.36871H7.28211C7.68534 8.36871 8.01641 8.67827 8.05043 9.07269C8.05239 9.09479 8.05337 9.11728 8.05337 9.13996V10.4263H8.77652V9.83046V9.13996C8.77652 9.11728 8.77749 9.09479 8.77945 9.07269C8.81347 8.67827 9.14454 8.36871 9.54777 8.36871H10.767C11.1929 8.36871 11.5383 8.71405 11.5383 9.13996V10.359C11.5383 10.7625 11.2287 11.0933 10.8343 11.1274ZM9.4805 9.13996V9.83046V10.4263H10.767C10.8042 10.4263 10.8343 10.3962 10.8343 10.359V9.13996C10.8343 9.10281 10.8042 9.07269 10.767 9.07269H9.54777C9.51081 9.07269 9.4805 9.10281 9.4805 9.13996ZM7.28211 13.9114C7.31907 13.9114 7.34938 13.8811 7.34938 13.8442V12.5576H6.06285C6.02569 12.5576 5.99558 12.5877 5.99558 12.6249V13.8442C5.99558 13.8811 6.02569 13.9114 6.06285 13.9114H7.28211ZM8.05337 11.8536H8.77652V11.1303H8.05337V11.8536Z" fill="currentColor"/>
  </symbol>

  <symbol id="accordion-arrow" viewBox="0 0 14 8">
    <title>Accordion arrow</title>
    <path d="M12.4406 1.27603L6.9962 6.72048L1.55176 1.27603" stroke="white" stroke-width="1.86667" stroke-linecap="round" stroke-linejoin="round"/>
  </symbol>
</svg>
