<svg width="642" height="642" viewBox="0 0 642 642" fill="none" xmlns="http://www.w3.org/2000/svg">
<g filter="url(#filter0_f_2039_6987)">
<circle cx="320.997" cy="320.858" r="223.134" fill="url(#paint0_radial_2039_6987)"/>
</g>
<path d="M530.616 133.015C542.894 133.015 552.847 123.062 552.847 110.785C552.847 98.5069 542.894 88.554 530.616 88.554C518.339 88.554 508.386 98.5069 508.386 110.785C508.386 123.062 518.339 133.015 530.616 133.015Z" fill="url(#paint1_linear_2039_6987)"/>
<path d="M532.741 129.719L511.678 108.656L441.387 178.947L462.45 200.01L532.741 129.719Z" fill="url(#paint2_radial_2039_6987)" stroke="#FF6E75" stroke-width="1.17626" stroke-miterlimit="10"/>
<g filter="url(#filter1_i_2039_6987)">
<path d="M467.96 209.206L450.079 191.325L132.584 508.819L186.047 491.119L467.96 209.206Z" fill="url(#paint3_linear_2039_6987)"/>
</g>
<path d="M432.192 173.442L150.284 455.355L132.186 508.951L132.584 508.818L450.078 191.323L432.192 173.442Z" fill="url(#paint4_linear_2039_6987)"/>
<path d="M550.195 127.034L514.37 91.2095L500.592 104.987L536.417 140.812L550.195 127.034Z" fill="url(#paint5_linear_2039_6987)"/>
<path d="M509.846 232.718L483.94 245.703C475.709 227.667 463.462 209.855 447.498 193.897C431.529 177.927 413.722 165.681 395.692 157.455L408.682 131.554C429.782 139.584 450.94 153.158 469.591 171.81C488.242 190.461 501.816 211.618 509.851 232.718H509.846Z" fill="url(#paint6_linear_2039_6987)"/>
<g filter="url(#filter2_d_2039_6987)">
<path d="M111.538 133.015C99.2604 133.015 89.3074 123.062 89.3074 110.785C89.3074 98.5069 99.2604 88.554 111.538 88.554C123.816 88.554 133.769 98.5069 133.769 110.785C133.769 123.062 123.816 133.015 111.538 133.015Z" fill="url(#paint7_linear_2039_6987)"/>
<path d="M109.413 129.719L130.477 108.656L200.767 178.947L179.704 200.01L109.413 129.719Z" fill="url(#paint8_radial_2039_6987)" stroke="#FF6E75" stroke-width="1.17626" stroke-miterlimit="10"/>
<path d="M174.19 209.206L192.071 191.325L509.566 508.819L456.103 491.119L174.19 209.206Z" fill="url(#paint9_linear_2039_6987)"/>
<path d="M209.957 173.442L491.865 455.355L509.964 508.951L509.566 508.818L192.071 191.323L209.957 173.442Z" fill="url(#paint10_linear_2039_6987)"/>
<path d="M91.9593 127.034L127.784 91.2095L141.562 104.987L105.737 140.812L91.9593 127.034Z" fill="url(#paint11_linear_2039_6987)"/>
<path d="M132.308 232.718L158.214 245.703C166.445 227.668 178.692 209.855 194.656 193.897C210.625 177.928 228.432 165.681 246.461 157.455L233.471 131.555C212.372 139.584 191.214 153.158 172.563 171.81C153.912 190.461 140.338 211.619 132.303 232.718H132.308Z" fill="url(#paint12_linear_2039_6987)"/>
</g>
<g filter="url(#filter3_d_2039_6987)">
<path d="M530.52 132.404C542.798 132.404 552.751 122.451 552.751 110.173C552.751 97.8956 542.798 87.9426 530.52 87.9426C518.243 87.9426 508.29 97.8956 508.29 110.173C508.29 122.451 518.243 132.404 530.52 132.404Z" fill="url(#paint13_linear_2039_6987)"/>
<path d="M532.646 129.108L511.583 108.045L441.292 178.335L462.355 199.398L532.646 129.108Z" fill="url(#paint14_radial_2039_6987)" stroke="#FF6E75" stroke-width="1.17626" stroke-miterlimit="10"/>
<path d="M467.872 208.594L449.991 190.713L132.496 508.208L185.959 490.507L467.872 208.594Z" fill="url(#paint15_linear_2039_6987)"/>
<path d="M432.104 172.831L150.197 454.744L132.098 508.339L132.496 508.207L449.991 190.712L432.104 172.831Z" fill="url(#paint16_linear_2039_6987)"/>
<path d="M550.099 126.423L514.274 90.5981L500.496 104.376L536.321 140.201L550.099 126.423Z" fill="url(#paint17_linear_2039_6987)"/>
<path d="M509.75 232.107L483.844 245.091C475.612 227.056 463.366 209.244 447.402 193.285C431.433 177.316 413.626 165.07 395.596 156.843L408.586 130.943C429.686 138.973 450.843 152.547 469.495 171.198C488.146 189.849 501.72 211.007 509.755 232.107H509.75Z" fill="url(#paint18_linear_2039_6987)"/>
</g>
<path d="M482.527 325.874C482.527 330.457 482.334 334.988 481.96 339.478C475.431 417.827 412.964 480.299 334.615 486.823C330.125 487.197 325.599 487.39 321.011 487.39C316.423 487.39 311.897 487.197 307.407 486.823C229.058 480.294 166.586 417.827 160.062 339.478C159.688 334.988 159.495 330.462 159.495 325.874C159.495 321.286 159.688 316.76 160.062 312.271C166.591 233.921 229.058 171.449 307.407 164.925C311.897 164.551 316.423 164.358 321.011 164.358C325.599 164.358 330.125 164.551 334.615 164.925C412.964 171.454 475.436 233.921 481.96 312.271C482.334 316.76 482.527 321.286 482.527 325.874Z" fill="url(#paint19_radial_2039_6987)" stroke="#FF6E75" stroke-width="1.17626" stroke-miterlimit="10"/>
<path d="M321.007 456.152C392.957 456.152 451.284 397.825 451.284 325.875C451.284 253.925 392.957 195.598 321.007 195.598C249.057 195.598 190.729 253.925 190.729 325.875C190.729 397.825 249.057 456.152 321.007 456.152Z" fill="url(#paint20_radial_2039_6987)" stroke="#FF6E75" stroke-width="1.17626" stroke-miterlimit="10"/>
<path opacity="0.1" d="M321 423.56C375.02 423.56 418.812 379.905 418.812 326.054C418.812 272.203 375.02 228.547 321 228.547C266.98 228.547 223.188 272.203 223.188 326.054C223.188 379.905 266.98 423.56 321 423.56Z" stroke="#FBBE7E" stroke-width="1.17626" stroke-miterlimit="10"/>
<path opacity="0.1" d="M321 473.078C402.368 473.078 468.33 407.253 468.33 326.054C468.33 244.855 402.368 179.03 321 179.03C239.632 179.03 173.671 244.855 173.671 326.054C173.671 407.253 239.632 473.078 321 473.078Z" stroke="#FBBE7E" stroke-width="1.17626" stroke-miterlimit="10"/>
<path d="M334.516 164.925V486.823C330.026 487.197 325.5 487.39 320.912 487.39C316.324 487.39 311.798 487.197 307.309 486.823V164.925C311.798 164.551 316.324 164.358 320.912 164.358C325.5 164.358 330.026 164.551 334.516 164.925Z" fill="url(#paint21_linear_2039_6987)" stroke="#FF6E75" stroke-width="1.17626" stroke-miterlimit="10"/>
<path d="M482.639 325.903C482.639 330.486 482.447 335.017 482.072 339.506H160.174C159.8 335.017 159.607 330.491 159.607 325.903C159.607 321.314 159.8 316.789 160.174 312.299H482.072C482.447 316.789 482.639 321.314 482.639 325.903Z" fill="url(#paint22_linear_2039_6987)" stroke="#FF6E75" stroke-width="1.17626" stroke-miterlimit="10"/>
<path d="M321.006 388.67C355.687 388.67 383.801 360.556 383.801 325.875C383.801 291.194 355.687 263.08 321.006 263.08C286.326 263.08 258.211 291.194 258.211 325.875C258.211 360.556 286.326 388.67 321.006 388.67Z" fill="url(#paint23_linear_2039_6987)"/>
<path d="M321.079 362.527C341.159 362.527 357.437 346.249 357.437 326.168C357.437 306.088 341.159 289.81 321.079 289.81C300.999 289.81 284.721 306.088 284.721 326.168C284.721 346.249 300.999 362.527 321.079 362.527Z" fill="url(#paint24_radial_2039_6987)"/>
<path d="M320.768 185.852C323.948 185.852 326.526 183.273 326.526 180.093C326.526 176.912 323.948 174.334 320.768 174.334C317.587 174.334 315.009 176.912 315.009 180.093C315.009 183.273 317.587 185.852 320.768 185.852Z" fill="url(#paint25_radial_2039_6987)"/>
<path d="M320.768 234.576C323.948 234.576 326.526 231.998 326.526 228.817C326.526 225.637 323.948 223.059 320.768 223.059C317.587 223.059 315.009 225.637 315.009 228.817C315.009 231.998 317.587 234.576 320.768 234.576Z" fill="url(#paint26_radial_2039_6987)"/>
<path d="M320.768 283.68C323.948 283.68 326.526 281.102 326.526 277.922C326.526 274.741 323.948 272.163 320.768 272.163C317.587 272.163 315.009 274.741 315.009 277.922C315.009 281.102 317.587 283.68 320.768 283.68Z" fill="url(#paint27_radial_2039_6987)"/>
<path d="M320.768 380.301C323.948 380.301 326.526 377.723 326.526 374.542C326.526 371.362 323.948 368.783 320.768 368.783C317.587 368.783 315.009 371.362 315.009 374.542C315.009 377.723 317.587 380.301 320.768 380.301Z" fill="url(#paint28_radial_2039_6987)"/>
<path d="M320.768 429.796C323.948 429.796 326.526 427.217 326.526 424.037C326.526 420.856 323.948 418.278 320.768 418.278C317.587 418.278 315.009 420.856 315.009 424.037C315.009 427.217 317.587 429.796 320.768 429.796Z" fill="url(#paint29_radial_2039_6987)"/>
<path d="M320.768 478.3C323.948 478.3 326.526 475.722 326.526 472.541C326.526 469.361 323.948 466.783 320.768 466.783C317.587 466.783 315.009 469.361 315.009 472.541C315.009 475.722 317.587 478.3 320.768 478.3Z" fill="url(#paint30_radial_2039_6987)"/>
<path d="M174.712 332.186C177.892 332.186 180.471 329.608 180.471 326.428C180.471 323.247 177.892 320.669 174.712 320.669C171.531 320.669 168.953 323.247 168.953 326.428C168.953 329.608 171.531 332.186 174.712 332.186Z" fill="url(#paint31_radial_2039_6987)"/>
<path d="M223.159 332.186C226.34 332.186 228.918 329.608 228.918 326.428C228.918 323.247 226.34 320.669 223.159 320.669C219.979 320.669 217.4 323.247 217.4 326.428C217.4 329.608 219.979 332.186 223.159 332.186Z" fill="url(#paint32_radial_2039_6987)"/>
<path d="M272.263 332.186C275.443 332.186 278.021 329.608 278.021 326.428C278.021 323.247 275.443 320.669 272.263 320.669C269.082 320.669 266.504 323.247 266.504 326.428C266.504 329.608 269.082 332.186 272.263 332.186Z" fill="url(#paint33_radial_2039_6987)"/>
<path d="M370.814 332.186C373.994 332.186 376.573 329.608 376.573 326.428C376.573 323.247 373.994 320.669 370.814 320.669C367.633 320.669 365.055 323.247 365.055 326.428C365.055 329.608 367.633 332.186 370.814 332.186Z" fill="url(#paint34_radial_2039_6987)"/>
<path d="M420.173 332.186C423.354 332.186 425.932 329.608 425.932 326.428C425.932 323.247 423.354 320.669 420.173 320.669C416.993 320.669 414.415 323.247 414.415 326.428C414.415 329.608 416.993 332.186 420.173 332.186Z" fill="url(#paint35_radial_2039_6987)"/>
<path d="M468.678 332.186C471.858 332.186 474.436 329.608 474.436 326.428C474.436 323.247 471.858 320.669 468.678 320.669C465.497 320.669 462.919 323.247 462.919 326.428C462.919 329.608 465.497 332.186 468.678 332.186Z" fill="url(#paint36_radial_2039_6987)"/>
<defs>
<filter id="filter0_f_2039_6987" x="0.251045" y="0.111763" width="641.492" height="641.492" filterUnits="userSpaceOnUse" color-interpolation-filters="sRGB">
<feFlood flood-opacity="0" result="BackgroundImageFix"/>
<feBlend mode="normal" in="SourceGraphic" in2="BackgroundImageFix" result="shape"/>
<feGaussianBlur stdDeviation="48.8061" result="effect1_foregroundBlur_2039_6987"/>
</filter>
<filter id="filter1_i_2039_6987" x="129.528" y="191.325" width="338.433" height="327.276" filterUnits="userSpaceOnUse" color-interpolation-filters="sRGB">
<feFlood flood-opacity="0" result="BackgroundImageFix"/>
<feBlend mode="normal" in="SourceGraphic" in2="BackgroundImageFix" result="shape"/>
<feColorMatrix in="SourceAlpha" type="matrix" values="0 0 0 0 0 0 0 0 0 0 0 0 0 0 0 0 0 0 127 0" result="hardAlpha"/>
<feOffset dx="-3.05663" dy="9.7812"/>
<feGaussianBlur stdDeviation="5.77702"/>
<feComposite in2="hardAlpha" operator="arithmetic" k2="-1" k3="1"/>
<feColorMatrix type="matrix" values="0 0 0 0 0.430489 0 0 0 0 0 0 0 0 0 0.0207574 0 0 0 0.2 0"/>
<feBlend mode="normal" in2="shape" result="effect1_innerShadow_2039_6987"/>
</filter>
<filter id="filter2_d_2039_6987" x="64.8546" y="64.1009" width="469.562" height="469.303" filterUnits="userSpaceOnUse" color-interpolation-filters="sRGB">
<feFlood flood-opacity="0" result="BackgroundImageFix"/>
<feColorMatrix in="SourceAlpha" type="matrix" values="0 0 0 0 0 0 0 0 0 0 0 0 0 0 0 0 0 0 127 0" result="hardAlpha"/>
<feOffset/>
<feGaussianBlur stdDeviation="12.2265"/>
<feComposite in2="hardAlpha" operator="out"/>
<feColorMatrix type="matrix" values="0 0 0 0 0.984314 0 0 0 0 0.745098 0 0 0 0 0.494118 0 0 0 0.5 0"/>
<feBlend mode="normal" in2="BackgroundImageFix" result="effect1_dropShadow_2039_6987"/>
<feBlend mode="normal" in="SourceGraphic" in2="effect1_dropShadow_2039_6987" result="shape"/>
</filter>
<filter id="filter3_d_2039_6987" x="107.645" y="63.4896" width="469.559" height="469.303" filterUnits="userSpaceOnUse" color-interpolation-filters="sRGB">
<feFlood flood-opacity="0" result="BackgroundImageFix"/>
<feColorMatrix in="SourceAlpha" type="matrix" values="0 0 0 0 0 0 0 0 0 0 0 0 0 0 0 0 0 0 127 0" result="hardAlpha"/>
<feOffset/>
<feGaussianBlur stdDeviation="12.2265"/>
<feComposite in2="hardAlpha" operator="out"/>
<feColorMatrix type="matrix" values="0 0 0 0 0.984314 0 0 0 0 0.745098 0 0 0 0 0.494118 0 0 0 0.5 0"/>
<feBlend mode="normal" in2="BackgroundImageFix" result="effect1_dropShadow_2039_6987"/>
<feBlend mode="normal" in="SourceGraphic" in2="effect1_dropShadow_2039_6987" result="shape"/>
</filter>
<radialGradient id="paint0_radial_2039_6987" cx="0" cy="0" r="1" gradientUnits="userSpaceOnUse" gradientTransform="translate(320.997 320.858) rotate(90) scale(223.134)">
<stop stop-color="#FF6E75"/>
<stop offset="0.88" stop-color="#FF6E75" stop-opacity="0.15"/>
</radialGradient>
<linearGradient id="paint1_linear_2039_6987" x1="580.036" y1="133.117" x2="508.205" y2="105.093" gradientUnits="userSpaceOnUse">
<stop stop-color="#FF6E75"/>
<stop offset="1" stop-color="#FBBE7E"/>
</linearGradient>
<radialGradient id="paint2_radial_2039_6987" cx="0" cy="0" r="1" gradientUnits="userSpaceOnUse" gradientTransform="translate(465.881 108.728) rotate(99.2428) scale(92.451 80.4923)">
<stop offset="0.018039" stop-color="#FF6E75"/>
<stop offset="1" stop-color="#000223"/>
</radialGradient>
<linearGradient id="paint3_linear_2039_6987" x1="449.987" y1="447.402" x2="-214.274" y2="454.038" gradientUnits="userSpaceOnUse">
<stop stop-color="#FF6E75"/>
<stop offset="1" stop-color="#FBBE7E"/>
</linearGradient>
<linearGradient id="paint4_linear_2039_6987" x1="629.564" y1="-0.244521" x2="69.0214" y2="469.78" gradientUnits="userSpaceOnUse">
<stop stop-color="#FF6E75"/>
<stop offset="0.990502" stop-color="#FBBE7E"/>
</linearGradient>
<linearGradient id="paint5_linear_2039_6987" x1="535.572" y1="131.041" x2="525.798" y2="35.9915" gradientUnits="userSpaceOnUse">
<stop stop-color="#FF6E75"/>
<stop offset="1" stop-color="#FBBE7E"/>
</linearGradient>
<linearGradient id="paint6_linear_2039_6987" x1="579.663" y1="245.963" x2="395.232" y2="174.004" gradientUnits="userSpaceOnUse">
<stop stop-color="#FF6E75"/>
<stop offset="1" stop-color="#FBBE7E"/>
</linearGradient>
<linearGradient id="paint7_linear_2039_6987" x1="62.118" y1="133.117" x2="133.95" y2="105.093" gradientUnits="userSpaceOnUse">
<stop stop-color="#FF6E75"/>
<stop offset="1" stop-color="#FBBE7E"/>
</linearGradient>
<radialGradient id="paint8_radial_2039_6987" cx="0" cy="0" r="1" gradientUnits="userSpaceOnUse" gradientTransform="translate(176.273 108.728) rotate(80.7572) scale(92.451 80.4923)">
<stop offset="0.018039" stop-color="#FF6E75"/>
<stop offset="1" stop-color="#000223"/>
</radialGradient>
<linearGradient id="paint9_linear_2039_6987" x1="243.052" y1="460.24" x2="741.585" y2="694.444" gradientUnits="userSpaceOnUse">
<stop stop-color="#FF6E75"/>
<stop offset="1" stop-color="#FBBE7E"/>
</linearGradient>
<linearGradient id="paint10_linear_2039_6987" x1="12.5853" y1="-0.244521" x2="573.128" y2="469.78" gradientUnits="userSpaceOnUse">
<stop stop-color="#FF6E75"/>
<stop offset="0.990502" stop-color="#FBBE7E"/>
</linearGradient>
<linearGradient id="paint11_linear_2039_6987" x1="109.784" y1="132.875" x2="123.861" y2="43.1596" gradientUnits="userSpaceOnUse">
<stop stop-color="#FF6E75"/>
<stop offset="1" stop-color="#FBBE7E"/>
</linearGradient>
<linearGradient id="paint12_linear_2039_6987" x1="62.4909" y1="245.963" x2="246.922" y2="174.004" gradientUnits="userSpaceOnUse">
<stop stop-color="#FF6E75"/>
<stop offset="1" stop-color="#FBBE7E"/>
</linearGradient>
<linearGradient id="paint13_linear_2039_6987" x1="579.94" y1="132.505" x2="508.108" y2="104.482" gradientUnits="userSpaceOnUse">
<stop stop-color="#FF6E75"/>
<stop offset="1" stop-color="#FBBE7E"/>
</linearGradient>
<radialGradient id="paint14_radial_2039_6987" cx="0" cy="0" r="1" gradientUnits="userSpaceOnUse" gradientTransform="translate(465.786 108.116) rotate(99.2428) scale(92.451 80.4923)">
<stop offset="0.018039" stop-color="#FF6E75"/>
<stop offset="1" stop-color="#000223"/>
</radialGradient>
<linearGradient id="paint15_linear_2039_6987" x1="399.01" y1="459.628" x2="-99.5226" y2="693.833" gradientUnits="userSpaceOnUse">
<stop stop-color="#FF6E75"/>
<stop offset="1" stop-color="#FBBE7E"/>
</linearGradient>
<linearGradient id="paint16_linear_2039_6987" x1="629.476" y1="-0.855849" x2="68.9336" y2="469.168" gradientUnits="userSpaceOnUse">
<stop stop-color="#FF6E75"/>
<stop offset="0.990502" stop-color="#FBBE7E"/>
</linearGradient>
<linearGradient id="paint17_linear_2039_6987" x1="532.274" y1="132.264" x2="518.197" y2="42.5483" gradientUnits="userSpaceOnUse">
<stop stop-color="#FF6E75"/>
<stop offset="1" stop-color="#FBBE7E"/>
</linearGradient>
<linearGradient id="paint18_linear_2039_6987" x1="579.567" y1="245.352" x2="395.135" y2="173.393" gradientUnits="userSpaceOnUse">
<stop stop-color="#FF6E75"/>
<stop offset="1" stop-color="#FBBE7E"/>
</linearGradient>
<radialGradient id="paint19_radial_2039_6987" cx="0" cy="0" r="1" gradientUnits="userSpaceOnUse" gradientTransform="translate(284.538 300.195) rotate(62.6867) scale(240.135 188.4)">
<stop offset="0.018039" stop-color="#FF6E75"/>
<stop offset="1" stop-color="#000223"/>
</radialGradient>
<radialGradient id="paint20_radial_2039_6987" cx="0" cy="0" r="1" gradientUnits="userSpaceOnUse" gradientTransform="translate(291.588 305.162) rotate(62.6867) scale(193.69 151.961)">
<stop offset="0.018039" stop-color="#FF6E75"/>
<stop offset="1" stop-color="#000223"/>
</radialGradient>
<linearGradient id="paint21_linear_2039_6987" x1="308.219" y1="-288.93" x2="402.744" y2="-281.902" gradientUnits="userSpaceOnUse">
<stop offset="0.018039" stop-color="#FF6E75"/>
<stop offset="1" stop-color="#000223"/>
</linearGradient>
<linearGradient id="paint22_linear_2039_6987" x1="170.417" y1="274.121" x2="180.597" y2="380.817" gradientUnits="userSpaceOnUse">
<stop offset="0.018039" stop-color="#FF6E75"/>
<stop offset="1" stop-color="#000223"/>
</linearGradient>
<linearGradient id="paint23_linear_2039_6987" x1="460.604" y1="388.957" x2="257.7" y2="309.798" gradientUnits="userSpaceOnUse">
<stop stop-color="#FF6E75"/>
<stop offset="1" stop-color="#FBBE7E"/>
</linearGradient>
<radialGradient id="paint24_radial_2039_6987" cx="0" cy="0" r="1" gradientUnits="userSpaceOnUse" gradientTransform="translate(314.578 316.884) rotate(55.7706) scale(49.4254 53.5797)">
<stop offset="0.104609" stop-color="#FBBE7E"/>
<stop offset="0.913879" stop-color="#FF6E75"/>
</radialGradient>
<radialGradient id="paint25_radial_2039_6987" cx="0" cy="0" r="1" gradientUnits="userSpaceOnUse" gradientTransform="translate(319.355 178.446) rotate(59.0362) scale(8.72935 8.72935)">
<stop stop-color="#FFEAD4"/>
<stop offset="1" stop-color="#FBBE7E"/>
</radialGradient>
<radialGradient id="paint26_radial_2039_6987" cx="0" cy="0" r="1" gradientUnits="userSpaceOnUse" gradientTransform="translate(319.355 227.171) rotate(59.0362) scale(8.72935 8.72935)">
<stop stop-color="#FFEAD4"/>
<stop offset="1" stop-color="#FBBE7E"/>
</radialGradient>
<radialGradient id="paint27_radial_2039_6987" cx="0" cy="0" r="1" gradientUnits="userSpaceOnUse" gradientTransform="translate(319.355 276.275) rotate(59.0363) scale(8.72935 8.72935)">
<stop stop-color="#FFEAD4"/>
<stop offset="1" stop-color="#FBBE7E"/>
</radialGradient>
<radialGradient id="paint28_radial_2039_6987" cx="0" cy="0" r="1" gradientUnits="userSpaceOnUse" gradientTransform="translate(319.355 372.896) rotate(59.0363) scale(8.72935 8.72935)">
<stop stop-color="#FFEAD4"/>
<stop offset="1" stop-color="#FBBE7E"/>
</radialGradient>
<radialGradient id="paint29_radial_2039_6987" cx="0" cy="0" r="1" gradientUnits="userSpaceOnUse" gradientTransform="translate(319.355 422.39) rotate(59.0363) scale(8.72935 8.72935)">
<stop stop-color="#FFEAD4"/>
<stop offset="1" stop-color="#FBBE7E"/>
</radialGradient>
<radialGradient id="paint30_radial_2039_6987" cx="0" cy="0" r="1" gradientUnits="userSpaceOnUse" gradientTransform="translate(319.355 470.895) rotate(59.0363) scale(8.72935 8.72935)">
<stop stop-color="#FFEAD4"/>
<stop offset="1" stop-color="#FBBE7E"/>
</radialGradient>
<radialGradient id="paint31_radial_2039_6987" cx="0" cy="0" r="1" gradientUnits="userSpaceOnUse" gradientTransform="translate(173.299 324.781) rotate(59.0362) scale(8.72934 8.72935)">
<stop stop-color="#FFEAD4"/>
<stop offset="1" stop-color="#FBBE7E"/>
</radialGradient>
<radialGradient id="paint32_radial_2039_6987" cx="0" cy="0" r="1" gradientUnits="userSpaceOnUse" gradientTransform="translate(221.747 324.781) rotate(59.0362) scale(8.72934 8.72935)">
<stop stop-color="#FFEAD4"/>
<stop offset="1" stop-color="#FBBE7E"/>
</radialGradient>
<radialGradient id="paint33_radial_2039_6987" cx="0" cy="0" r="1" gradientUnits="userSpaceOnUse" gradientTransform="translate(270.85 324.781) rotate(59.0362) scale(8.72934 8.72935)">
<stop stop-color="#FFEAD4"/>
<stop offset="1" stop-color="#FBBE7E"/>
</radialGradient>
<radialGradient id="paint34_radial_2039_6987" cx="0" cy="0" r="1" gradientUnits="userSpaceOnUse" gradientTransform="translate(369.401 324.781) rotate(59.0362) scale(8.72934 8.72935)">
<stop stop-color="#FFEAD4"/>
<stop offset="1" stop-color="#FBBE7E"/>
</radialGradient>
<radialGradient id="paint35_radial_2039_6987" cx="0" cy="0" r="1" gradientUnits="userSpaceOnUse" gradientTransform="translate(418.761 324.781) rotate(59.0362) scale(8.72934 8.72935)">
<stop stop-color="#FFEAD4"/>
<stop offset="1" stop-color="#FBBE7E"/>
</radialGradient>
<radialGradient id="paint36_radial_2039_6987" cx="0" cy="0" r="1" gradientUnits="userSpaceOnUse" gradientTransform="translate(467.265 324.781) rotate(59.0363) scale(8.72934 8.72933)">
<stop stop-color="#FFEAD4"/>
<stop offset="1" stop-color="#FBBE7E"/>
</radialGradient>
</defs>
</svg>
