<svg width="336" height="307" viewBox="0 0 336 307" fill="none" xmlns="http://www.w3.org/2000/svg">
<g filter="url(#filter0_f_2127_9228)">
<circle cx="153.5" cy="153.5" r="104.5" fill="url(#paint0_radial_2127_9228)"/>
</g>
<path d="M231.151 244.652L232.181 245.815L216.322 243.087L215.292 241.925L231.151 244.652Z" fill="url(#paint1_linear_2127_9228)"/>
<path d="M244.774 248.55C244.908 248.417 245.041 248.288 245.17 248.157C245.303 248.028 245.437 247.895 245.567 247.765C245.688 247.645 245.808 247.529 245.924 247.412C246.066 247.269 246.211 247.13 246.35 246.995C246.458 246.892 246.561 246.788 246.663 246.687C246.802 246.552 246.937 246.419 247.071 246.286C247.179 246.179 247.287 246.076 247.39 245.972C247.523 245.843 247.652 245.713 247.784 245.587C247.879 245.494 247.975 245.4 248.07 245.306C248.202 245.181 248.33 245.054 248.456 244.932C248.551 244.842 248.646 244.748 248.737 244.657C248.863 244.534 248.983 244.418 249.105 244.298C249.193 244.215 249.282 244.128 249.369 244.044C249.49 243.928 249.608 243.816 249.723 243.703C249.806 243.622 249.894 243.539 249.975 243.462C250.1 243.343 250.22 243.227 250.339 243.115C250.409 243.047 250.484 242.977 250.554 242.909C250.742 242.729 250.924 242.556 251.106 242.382C251.287 242.213 251.463 242.046 251.633 241.882C251.695 241.825 251.752 241.77 251.814 241.712C251.925 241.611 252.032 241.508 252.14 241.405C252.208 241.341 252.277 241.277 252.345 241.213C252.444 241.121 252.539 241.031 252.637 240.942C252.704 240.882 252.767 240.821 252.834 240.761C252.926 240.679 253.015 240.591 253.107 240.509C253.174 240.449 253.237 240.388 253.305 240.328C253.391 240.248 253.478 240.169 253.563 240.093C253.619 240.042 253.673 239.996 253.728 239.945C253.876 239.812 254.016 239.685 254.157 239.559C254.188 239.53 254.218 239.505 254.249 239.477C254.414 239.328 254.577 239.187 254.736 239.045C254.777 239.011 254.815 238.976 254.852 238.941C254.979 238.831 255.1 238.724 255.22 238.621C255.262 238.587 255.304 238.549 255.342 238.514C255.493 238.383 255.642 238.259 255.786 238.133C255.804 238.118 255.821 238.106 255.839 238.09C255.97 237.982 256.096 237.873 256.222 237.767C256.263 237.733 256.299 237.702 256.341 237.668C256.458 237.573 256.572 237.476 256.688 237.385C256.713 237.363 256.741 237.342 256.764 237.323C256.9 237.213 257.035 237.106 257.168 237.002C257.203 236.975 257.232 236.95 257.267 236.923C257.372 236.841 257.477 236.758 257.581 236.676C257.61 236.655 257.638 236.634 257.663 236.612C258.004 236.349 258.341 236.097 258.672 235.851L257.642 234.689C257.307 234.933 256.97 235.185 256.629 235.448C256.622 235.455 256.617 235.458 256.611 235.464C256.587 235.482 256.565 235.497 256.546 235.516C256.443 235.595 256.342 235.678 256.237 235.76C256.202 235.788 256.167 235.815 256.134 235.839C256.001 235.942 255.87 236.05 255.734 236.161C255.71 236.183 255.681 236.204 255.657 236.226C255.544 236.319 255.428 236.41 255.314 236.506C255.273 236.54 255.232 236.574 255.19 236.608C255.065 236.714 254.936 236.818 254.809 236.928C254.791 236.943 254.774 236.955 254.756 236.971C254.611 237.096 254.463 237.22 254.312 237.352C254.27 237.386 254.228 237.423 254.186 237.457C254.066 237.56 253.944 237.671 253.817 237.781C253.779 237.816 253.739 237.846 253.702 237.881C253.543 238.023 253.38 238.164 253.215 238.313C253.185 238.337 253.158 238.367 253.128 238.392C252.988 238.519 252.842 238.648 252.698 238.782C252.674 238.804 252.649 238.826 252.623 238.852C252.594 238.877 252.563 238.906 252.537 238.932C252.452 239.008 252.365 239.087 252.277 239.17C252.214 239.232 252.148 239.288 252.085 239.349C251.992 239.435 251.899 239.521 251.806 239.607C251.744 239.665 251.682 239.722 251.62 239.779C251.52 239.872 251.42 239.968 251.316 240.06C251.253 240.121 251.191 240.178 251.124 240.238C251.013 240.34 250.904 240.447 250.792 240.552C250.735 240.607 250.674 240.661 250.616 240.719C250.267 241.045 249.908 241.389 249.531 241.749C249.469 241.806 249.405 241.871 249.342 241.933C249.215 242.055 249.083 242.18 248.952 242.305C248.875 242.38 248.794 242.457 248.718 242.531C248.593 242.65 248.471 242.769 248.345 242.892C248.262 242.973 248.179 243.054 248.097 243.134C247.97 243.257 247.845 243.375 247.717 243.502C247.628 243.589 247.532 243.683 247.438 243.773C247.31 243.899 247.179 244.025 247.044 244.157C246.955 244.245 246.861 244.335 246.77 244.426C246.637 244.555 246.504 244.684 246.37 244.817C246.263 244.92 246.16 245.024 246.053 245.127C245.918 245.26 245.78 245.392 245.644 245.529C245.541 245.633 245.435 245.732 245.332 245.836C245.193 245.972 245.051 246.115 244.906 246.253C244.786 246.369 244.67 246.486 244.548 246.606C244.419 246.737 244.286 246.866 244.152 246.999C244.019 247.128 243.89 247.258 243.755 247.391C243.563 247.582 243.365 247.777 243.168 247.971C243.098 248.039 243.032 248.108 242.959 248.174C242.671 248.459 242.378 248.748 242.081 249.047C239.037 252.059 235.122 255.976 230.57 260.599L231.6 261.762C236.154 257.135 240.067 253.222 243.111 250.21C243.412 249.911 243.701 249.622 243.989 249.337C244.06 249.265 244.128 249.201 244.198 249.133C244.396 248.939 244.594 248.741 244.785 248.553L244.774 248.55Z" fill="url(#paint2_linear_2127_9228)"/>
<mask id="mask0_2127_9228" style="mask-type:luminance" maskUnits="userSpaceOnUse" x="257" y="234" width="11" height="6">
<path d="M266.323 238.465L267.353 239.628C266.375 239.333 265.409 238.999 264.448 238.627C262.418 237.84 260.491 236.91 258.68 235.853L257.649 234.691C259.46 235.751 261.383 236.68 263.418 237.465C264.379 237.836 265.346 238.166 266.323 238.465Z" fill="white"/>
</mask>
<g mask="url(#mask0_2127_9228)">
<path d="M266.323 238.465L267.353 239.628C266.375 239.333 265.409 238.999 264.448 238.627C262.418 237.84 260.491 236.91 258.68 235.853L257.649 234.691C259.46 235.751 261.383 236.68 263.418 237.465C264.379 237.836 265.346 238.166 266.323 238.465Z" fill="url(#paint3_linear_2127_9228)"/>
</g>
<path d="M323.996 208.909C324.095 208.609 324.193 208.309 324.284 208.007C324.343 207.827 324.399 207.643 324.454 207.462C324.554 207.119 324.649 206.775 324.741 206.43C324.778 206.291 324.819 206.153 324.855 206.018C324.978 205.536 325.098 205.053 325.205 204.57C325.225 204.482 325.242 204.392 325.262 204.304C325.348 203.909 325.429 203.517 325.503 203.123C325.533 202.951 325.564 202.78 325.594 202.608C325.648 202.298 325.704 201.984 325.749 201.675C325.778 201.482 325.806 201.292 325.831 201.097C325.871 200.804 325.91 200.515 325.945 200.224C325.967 200.024 325.99 199.824 326.012 199.624C326.041 199.34 326.069 199.056 326.094 198.771C326.112 198.569 326.126 198.371 326.139 198.172C326.16 197.886 326.175 197.601 326.191 197.317C326.199 197.121 326.211 196.927 326.219 196.731C326.23 196.436 326.236 196.141 326.241 195.849C326.245 195.664 326.248 195.484 326.249 195.299C326.249 194.971 326.245 194.641 326.237 194.31C326.232 194.166 326.233 194.02 326.228 193.876C326.214 193.405 326.193 192.932 326.161 192.464C326.158 192.407 326.15 192.352 326.147 192.295C326.119 191.88 326.085 191.472 326.043 191.061C326.026 190.9 326.005 190.742 325.988 190.581C325.955 190.276 325.922 189.968 325.879 189.664C325.856 189.484 325.826 189.301 325.799 189.12C325.771 188.929 325.746 188.74 325.717 188.553C325.705 188.472 325.688 188.393 325.672 188.31C325.627 188.053 325.581 187.797 325.532 187.539C325.487 187.308 325.447 187.075 325.397 186.847C325.342 186.591 325.288 186.336 325.23 186.08C325.179 185.851 325.129 185.623 325.073 185.398C325.01 185.144 324.943 184.889 324.878 184.639C324.817 184.416 324.762 184.19 324.697 183.966C324.625 183.714 324.547 183.464 324.47 183.21C324.418 183.042 324.374 182.872 324.322 182.703C324.302 182.645 324.279 182.582 324.26 182.523C324.218 182.389 324.17 182.257 324.124 182.121C324.026 181.829 323.927 181.538 323.819 181.248C323.767 181.105 323.714 180.963 323.662 180.82C323.549 180.52 323.433 180.227 323.315 179.93C323.268 179.81 323.221 179.691 323.172 179.576C323.008 179.181 322.839 178.789 322.665 178.399C322.659 178.389 322.657 178.384 322.652 178.374C322.407 177.831 322.142 177.295 321.876 176.763C321.799 176.617 321.722 176.471 321.649 176.326C321.43 175.913 321.206 175.503 320.976 175.1C320.928 175.01 320.879 174.921 320.831 174.832C320.803 174.784 320.775 174.74 320.746 174.696C320.464 174.215 320.171 173.739 319.868 173.268C319.857 173.247 319.842 173.229 319.827 173.207C319.535 172.757 319.234 172.317 318.924 171.883C318.888 171.833 318.857 171.783 318.824 171.738C318.754 171.637 318.677 171.543 318.601 171.445C318.383 171.149 318.164 170.857 317.939 170.567C317.818 170.411 317.695 170.258 317.573 170.106C317.341 169.814 317.102 169.528 316.858 169.245C316.777 169.15 316.701 169.051 316.621 168.956C316.538 168.864 316.458 168.768 316.379 168.678L315.349 167.515C315.514 167.699 315.67 167.893 315.833 168.08C316.077 168.363 316.314 168.652 316.548 168.94C316.67 169.093 316.792 169.249 316.914 169.402C317.139 169.691 317.362 169.985 317.576 170.28C317.683 170.427 317.792 170.57 317.897 170.722C318.208 171.156 318.508 171.596 318.801 172.046C318.815 172.068 318.827 172.085 318.842 172.107C319.146 172.573 319.434 173.052 319.72 173.535C319.797 173.668 319.873 173.805 319.95 173.938C320.184 174.343 320.408 174.753 320.622 175.165C320.7 175.311 320.777 175.457 320.85 175.602C321.121 176.131 321.38 176.67 321.629 177.213C321.81 177.61 321.981 178.011 322.15 178.416C322.198 178.531 322.246 178.65 322.293 178.769C322.412 179.063 322.526 179.36 322.639 179.66C322.692 179.803 322.744 179.945 322.797 180.088C322.901 180.376 323.003 180.669 323.102 180.961C323.148 181.096 323.191 181.227 323.237 181.363C323.31 181.59 323.381 181.821 323.448 182.05C323.526 182.3 323.604 182.55 323.671 182.805C323.732 183.028 323.792 183.251 323.852 183.477C323.919 183.733 323.988 183.984 324.047 184.237C324.103 184.462 324.153 184.69 324.203 184.918C324.262 185.175 324.317 185.426 324.37 185.685C324.416 185.916 324.461 186.147 324.506 186.377C324.555 186.635 324.6 186.892 324.646 187.148C324.691 187.418 324.732 187.686 324.773 187.959C324.799 188.14 324.83 188.323 324.852 188.507C324.891 188.809 324.928 189.115 324.962 189.42C324.979 189.58 325 189.738 325.016 189.899C325.055 190.309 325.089 190.717 325.117 191.132C325.12 191.189 325.126 191.248 325.129 191.305C325.161 191.773 325.179 192.245 325.197 192.717C325.201 192.861 325.199 193.012 325.204 193.155C325.209 193.481 325.217 193.812 325.214 194.139C325.214 194.32 325.206 194.503 325.207 194.685C325.202 194.977 325.196 195.272 325.185 195.567C325.177 195.763 325.169 195.959 325.155 196.157C325.14 196.441 325.124 196.726 325.105 197.008C325.09 197.211 325.073 197.408 325.058 197.61C325.035 197.892 325.007 198.176 324.978 198.46C324.956 198.66 324.937 198.861 324.911 199.06C324.876 199.351 324.837 199.64 324.798 199.93C324.769 200.123 324.745 200.314 324.716 200.507C324.67 200.82 324.616 201.13 324.561 201.441C324.531 201.612 324.504 201.785 324.47 201.955C324.398 202.345 324.317 202.738 324.232 203.128C324.21 203.221 324.194 203.31 324.176 203.404C324.069 203.887 323.951 204.366 323.826 204.852C323.789 204.991 323.748 205.128 323.711 205.267C323.619 205.613 323.525 205.953 323.424 206.3C323.369 206.48 323.313 206.665 323.257 206.849C323.163 207.147 323.069 207.448 322.97 207.748C322.906 207.943 322.837 208.14 322.768 208.338C322.678 208.598 322.584 208.86 322.49 209.119C322.351 209.505 322.198 209.891 322.045 210.277C321.974 210.456 321.906 210.637 321.835 210.812C321.604 211.371 321.364 211.931 321.109 212.486C320.931 212.868 320.75 213.249 320.567 213.625C320.504 213.751 320.442 213.873 320.38 213.995C320.255 214.244 320.13 214.496 320.001 214.743C319.92 214.898 319.835 215.051 319.754 215.206C319.64 215.423 319.521 215.639 319.404 215.851C319.318 216.008 319.223 216.167 319.133 216.323C319.014 216.526 318.899 216.734 318.776 216.936C318.681 217.094 318.586 217.253 318.487 217.41C318.366 217.608 318.245 217.806 318.12 218.002C318.02 218.16 317.917 218.316 317.818 218.473C317.713 218.637 317.603 218.8 317.496 218.968C317.155 219.482 316.808 219.985 316.446 220.484C316.382 220.575 316.313 220.665 316.25 220.752C315.889 221.246 315.518 221.733 315.141 222.21C315.121 222.233 315.104 222.258 315.083 222.281C314.718 222.736 314.347 223.184 313.969 223.625C313.884 223.727 313.795 223.827 313.706 223.927C313.325 224.363 312.943 224.791 312.547 225.209C312.505 225.256 312.462 225.297 312.421 225.34C312.065 225.716 311.708 226.082 311.343 226.442C311.248 226.535 311.158 226.627 311.062 226.72C310.663 227.108 310.26 227.493 309.848 227.867C309.786 227.925 309.725 227.978 309.659 228.034C309.286 228.369 308.911 228.695 308.529 229.019C308.433 229.1 308.342 229.182 308.243 229.258C307.816 229.614 307.387 229.961 306.947 230.3C306.867 230.36 306.787 230.42 306.705 230.484C306.291 230.801 305.873 231.113 305.446 231.413C305.367 231.47 305.293 231.527 305.215 231.579C304.748 231.91 304.276 232.23 303.799 232.539C303.699 232.606 303.597 232.667 303.498 232.734C302.978 233.068 302.451 233.396 301.921 233.71C301.873 233.738 301.825 233.765 301.777 233.792C301.26 234.093 300.74 234.389 300.212 234.669C300.138 234.709 300.064 234.75 299.992 234.786C299.375 235.115 298.75 235.428 298.121 235.726C298.039 235.764 297.956 235.806 297.875 235.844C297.252 236.136 296.627 236.41 295.996 236.674C295.897 236.715 295.801 236.757 295.701 236.797C295.152 237.023 294.598 237.238 294.04 237.439C293.938 237.475 293.835 237.51 293.732 237.55C293.149 237.76 292.566 237.957 291.978 238.144L293.008 239.307C293.596 239.12 294.179 238.923 294.762 238.712C294.864 238.677 294.967 238.641 295.07 238.602C295.63 238.397 296.179 238.184 296.731 237.96C296.777 237.94 296.825 237.926 296.87 237.906C296.924 237.885 296.976 237.859 297.027 237.837C297.657 237.573 298.287 237.297 298.905 237.007C298.986 236.969 299.069 236.927 299.151 236.889C299.78 236.59 300.405 236.278 301.022 235.949C301.043 235.939 301.069 235.926 301.089 235.915C301.141 235.889 301.19 235.858 301.243 235.827C301.767 235.546 302.291 235.252 302.809 234.951C302.857 234.924 302.905 234.896 302.952 234.869C303.483 234.555 304.009 234.227 304.529 233.893C304.583 233.859 304.642 233.826 304.697 233.788C304.741 233.759 304.786 233.727 304.83 233.698C305.309 233.384 305.78 233.068 306.246 232.738C306.325 232.682 306.4 232.624 306.478 232.572C306.902 232.267 307.322 231.96 307.738 231.639C307.791 231.596 307.847 231.558 307.904 231.516C307.928 231.494 307.955 231.477 307.98 231.455C308.419 231.116 308.848 230.769 309.276 230.413C309.372 230.332 309.467 230.251 309.562 230.174C309.944 229.85 310.319 229.524 310.692 229.189C310.736 229.148 310.788 229.108 310.832 229.067C310.85 229.051 310.864 229.034 310.881 229.022C311.293 228.648 311.694 228.266 312.095 227.875C312.19 227.781 312.281 227.69 312.376 227.596C312.742 227.233 313.103 226.868 313.455 226.491C313.488 226.459 313.52 226.426 313.552 226.394C313.56 226.383 313.572 226.374 313.579 226.364C313.972 225.944 314.359 225.514 314.74 225.078C314.829 224.978 314.914 224.876 315.004 224.772C315.382 224.331 315.757 223.884 316.119 223.428C316.121 223.42 316.126 223.418 316.133 223.411C316.147 223.394 316.162 223.374 316.173 223.355C316.554 222.876 316.922 222.388 317.283 221.894C317.347 221.803 317.414 221.717 317.479 221.625C317.836 221.13 318.187 220.623 318.529 220.109C318.556 220.067 318.592 220.022 318.619 219.979C318.698 219.858 318.772 219.736 318.85 219.619C318.953 219.463 319.052 219.305 319.152 219.144C319.277 218.948 319.397 218.754 319.514 218.555C319.609 218.396 319.708 218.239 319.804 218.08C319.922 217.877 320.042 217.67 320.16 217.467C320.25 217.311 320.34 217.155 320.432 216.995C320.55 216.779 320.667 216.568 320.781 216.35C320.862 216.196 320.947 216.042 321.028 215.887C321.043 215.858 321.059 215.833 321.073 215.803C321.188 215.586 321.296 215.362 321.406 215.144C321.469 215.018 321.535 214.897 321.594 214.769C321.778 214.394 321.959 214.013 322.136 213.631C322.392 213.075 322.632 212.515 322.863 211.956C322.934 211.777 323.006 211.598 323.074 211.417C323.227 211.031 323.378 210.649 323.518 210.263C323.547 210.174 323.587 210.092 323.616 210.002C323.678 209.828 323.735 209.653 323.797 209.479C323.861 209.284 323.934 209.087 323.998 208.893L323.996 208.909Z" fill="url(#paint4_linear_2127_9228)"/>
<path d="M278.726 261.738L279.756 262.9L266.127 272.855L265.097 271.692L278.726 261.738Z" fill="url(#paint5_linear_2127_9228)"/>
<path d="M290.213 272.01L291.243 273.173L279.755 262.901L278.725 261.738L290.213 272.01Z" fill="url(#paint6_linear_2127_9228)"/>
<mask id="mask1_2127_9228" style="mask-type:luminance" maskUnits="userSpaceOnUse" x="290" y="238" width="4" height="36">
<path d="M291.971 238.156L293.001 239.318C292.655 241.963 292.347 244.69 292.088 247.493C291.216 256.912 291.039 265.527 291.243 273.166L290.212 272.003C290.009 264.364 290.185 255.749 291.058 246.33C291.316 243.531 291.624 240.805 291.971 238.156Z" fill="white"/>
</mask>
<g mask="url(#mask1_2127_9228)">
<path d="M291.971 238.154L293.001 239.316C292.655 241.961 292.347 244.688 292.088 247.491C291.216 256.91 291.039 265.525 291.243 273.164L290.212 272.001C290.009 264.362 290.185 255.747 291.058 246.328C291.316 243.529 291.624 240.803 291.971 238.154Z" fill="url(#paint7_linear_2127_9228)"/>
</g>
<path d="M291.971 238.164C291.626 240.809 291.318 243.536 291.058 246.339C290.186 255.758 290.009 264.373 290.213 272.012L278.725 261.74L265.097 271.695C264.625 264.714 264.535 256.543 265.313 247.413C265.571 244.324 265.916 241.338 266.322 238.471C265.344 238.176 264.379 237.842 263.417 237.47C261.387 236.683 259.461 235.753 257.649 234.696C254.373 237.088 251.043 240.143 242.068 249.048C239.025 252.06 235.11 255.977 230.558 260.6L231.155 244.655L215.295 241.927C222.003 236.432 227.042 231.601 230.387 228.222C234.827 223.73 237.724 220.351 241.874 216.965C237.272 206.522 237.145 193.926 242.575 182.079C252.741 159.876 278.567 148.692 300.25 157.091C321.937 165.49 331.269 190.29 321.095 212.487C315.273 225.189 304.333 234.278 291.966 238.167L291.971 238.164Z" fill="url(#paint8_linear_2127_9228)"/>
<path d="M311.786 170.821L309.722 168.494C306.194 164.513 301.675 161.299 296.309 159.222C295.876 159.054 295.435 158.897 295.001 158.746C294.912 158.716 294.818 158.686 294.729 158.656C294.3 158.515 293.875 158.376 293.445 158.252C293.371 158.228 293.295 158.211 293.221 158.187C292.822 158.073 292.422 157.964 292.019 157.862C291.956 157.845 291.892 157.829 291.832 157.813C291.397 157.705 290.962 157.61 290.526 157.518C290.429 157.499 290.335 157.482 290.239 157.459C289.798 157.37 289.354 157.289 288.911 157.217C288.878 157.211 288.845 157.208 288.816 157.203C288.393 157.138 287.967 157.08 287.54 157.026C287.453 157.015 287.362 157.003 287.274 156.995C286.837 156.947 286.398 156.902 285.957 156.865C285.873 156.859 285.788 156.853 285.704 156.847C285.286 156.818 284.871 156.794 284.454 156.773C284.408 156.771 284.361 156.769 284.314 156.766C283.871 156.75 283.424 156.742 282.983 156.744C282.885 156.742 282.789 156.745 282.69 156.743C282.249 156.745 281.806 156.755 281.363 156.773C281.31 156.778 281.253 156.78 281.201 156.781C280.789 156.801 280.379 156.826 279.968 156.855C279.888 156.863 279.805 156.866 279.724 156.874C279.285 156.911 278.852 156.955 278.412 157.005C278.323 157.014 278.228 157.027 278.137 157.04C277.706 157.093 277.277 157.15 276.849 157.217C276.827 157.219 276.804 157.224 276.781 157.225C276.339 157.296 275.895 157.375 275.457 157.46C275.361 157.476 275.268 157.497 275.176 157.514C274.742 157.6 274.31 157.692 273.884 157.794C273.814 157.81 273.748 157.827 273.678 157.843C273.28 157.937 272.883 158.04 272.491 158.144C272.443 158.158 272.392 158.168 272.345 158.182C272.32 158.191 272.297 158.197 272.268 158.205C271.903 158.305 271.539 158.414 271.175 158.524C271.098 158.546 271.021 158.572 270.939 158.597C270.65 158.688 270.356 158.782 270.069 158.882C269.957 158.918 269.85 158.956 269.738 158.993C269.451 159.093 269.162 159.197 268.877 159.302C268.8 159.328 268.721 159.359 268.647 159.386C268.292 159.52 267.935 159.662 267.585 159.806C267.56 159.815 267.536 159.825 267.511 159.834C267.481 159.846 267.456 159.859 267.426 159.87C266.841 160.114 266.261 160.369 265.683 160.641C265.621 160.673 265.555 160.703 265.494 160.73C264.931 160.999 264.374 161.278 263.82 161.571C263.788 161.59 263.753 161.605 263.716 161.623C263.685 161.639 263.657 161.66 263.626 161.675C263.148 161.933 262.674 162.196 262.208 162.471C262.138 162.513 262.069 162.55 262 162.592C261.533 162.871 261.072 163.156 260.617 163.451C260.583 163.474 260.547 163.493 260.51 163.515C260.472 163.537 260.437 163.565 260.403 163.588C259.979 163.868 259.558 164.152 259.143 164.444C259.076 164.491 259.012 164.539 258.945 164.586C258.522 164.887 258.102 165.194 257.691 165.513C257.678 165.526 257.663 165.533 257.646 165.545C257.612 165.569 257.581 165.597 257.551 165.622C257.157 165.929 256.764 166.245 256.378 166.567C256.353 166.589 256.33 166.607 256.302 166.628C255.909 166.957 255.527 167.293 255.147 167.635C255.109 167.67 255.069 167.7 255.032 167.735C255.007 167.757 254.987 167.781 254.962 167.803C254.599 168.133 254.243 168.469 253.891 168.816C253.827 168.881 253.758 168.945 253.694 169.01C253.341 169.36 252.991 169.716 252.648 170.078C252.634 170.095 252.617 170.107 252.603 170.124C252.575 170.158 252.547 170.188 252.515 170.22C252.15 170.61 251.791 171.006 251.441 171.414C251.44 171.417 251.434 171.424 251.429 171.427C251.075 171.833 250.736 172.248 250.398 172.673C250.37 172.707 250.34 172.744 250.311 172.778C250.297 172.795 250.282 172.816 250.272 172.834C249.927 173.265 249.596 173.709 249.267 174.158C249.221 174.22 249.173 174.287 249.127 174.349C248.808 174.793 248.497 175.243 248.191 175.7C248.165 175.739 248.136 175.777 248.11 175.816C248.075 175.869 248.039 175.926 248.004 175.98C247.898 176.148 247.787 176.314 247.684 176.483C247.604 176.608 247.523 176.737 247.443 176.862C247.335 177.033 247.231 177.206 247.13 177.381C247.054 177.507 246.978 177.633 246.906 177.761C246.798 177.945 246.694 178.131 246.59 178.317C246.524 178.438 246.456 178.554 246.39 178.675C246.272 178.891 246.157 179.108 246.043 179.325C245.998 179.41 245.953 179.494 245.908 179.579C245.904 179.59 245.902 179.598 245.894 179.608C245.788 179.811 245.688 180.012 245.587 180.216C245.535 180.32 245.48 180.422 245.432 180.528C245.283 180.837 245.134 181.146 244.992 181.462C244.765 181.958 244.552 182.449 244.349 182.948C244.283 183.108 244.222 183.269 244.157 183.429C244.023 183.769 243.89 184.11 243.766 184.449C243.74 184.527 243.707 184.602 243.678 184.675C243.622 184.833 243.574 184.994 243.513 185.152C243.457 185.323 243.392 185.496 243.335 185.667C243.247 185.936 243.159 186.205 243.078 186.477C243.026 186.637 242.975 186.792 242.93 186.955C242.836 187.269 242.749 187.586 242.667 187.9C242.638 188.016 242.602 188.125 242.573 188.241C242.462 188.67 242.36 189.099 242.262 189.529C242.239 189.625 242.224 189.724 242.201 189.82C242.132 190.151 242.061 190.486 241.999 190.819C241.969 190.974 241.944 191.13 241.919 191.285C241.872 191.559 241.825 191.833 241.783 192.108C241.756 192.281 241.735 192.451 241.709 192.624C241.671 192.883 241.638 193.14 241.606 193.397C241.586 193.576 241.567 193.752 241.547 193.931C241.52 194.185 241.498 194.437 241.475 194.689C241.461 194.865 241.445 195.045 241.434 195.223C241.414 195.48 241.4 195.734 241.389 195.99C241.38 196.164 241.372 196.334 241.366 196.509C241.357 196.774 241.351 197.039 241.346 197.305C241.346 197.465 241.341 197.623 241.341 197.783C241.341 198.085 241.345 198.389 241.354 198.689C241.358 198.807 241.358 198.928 241.361 199.05C241.374 199.469 241.392 199.889 241.422 200.309C241.429 200.393 241.437 200.474 241.44 200.557C241.464 200.893 241.493 201.226 241.525 201.56C241.542 201.708 241.558 201.856 241.574 202.004C241.603 202.272 241.632 202.537 241.67 202.804C241.693 202.971 241.717 203.134 241.741 203.298C241.766 203.457 241.787 203.619 241.811 203.782C241.824 203.86 241.839 203.934 241.852 204.012C241.892 204.245 241.934 204.471 241.976 204.7C242.016 204.907 242.053 205.11 242.093 205.317C242.139 205.544 242.19 205.772 242.244 206.001C242.289 206.206 242.335 206.407 242.385 206.609C242.441 206.834 242.5 207.061 242.56 207.288C242.611 207.486 242.665 207.689 242.722 207.885C242.787 208.109 242.855 208.334 242.924 208.56C242.97 208.709 243.008 208.855 243.055 209C243.066 209.034 243.08 209.069 243.093 209.108C243.278 209.678 243.477 210.24 243.686 210.8C243.734 210.919 243.781 211.039 243.824 211.156C244.035 211.696 244.257 212.231 244.494 212.758C244.506 212.788 244.519 212.813 244.531 212.843C244.536 212.854 244.539 212.859 244.544 212.869C244.764 213.356 244.997 213.83 245.238 214.306C245.304 214.435 245.374 214.562 245.44 214.691C245.633 215.061 245.834 215.425 246.043 215.787C246.086 215.866 246.129 215.945 246.172 216.024C246.197 216.067 246.223 216.106 246.248 216.148C246.5 216.576 246.758 217.002 247.031 217.42C247.039 217.435 247.048 217.447 247.061 217.46C247.321 217.865 247.597 218.261 247.875 218.651C247.903 218.695 247.932 218.739 247.962 218.779C248.024 218.868 248.095 218.952 248.157 219.041C248.35 219.307 248.549 219.567 248.749 219.827C248.855 219.965 248.966 220.101 249.073 220.235C249.281 220.494 249.495 220.75 249.709 221.006C249.781 221.09 249.848 221.176 249.919 221.26C249.991 221.344 250.064 221.424 250.136 221.508L252.2 223.835C252.051 223.669 251.913 223.499 251.769 223.331C251.554 223.079 251.34 222.823 251.132 222.565C251.021 222.429 250.915 222.291 250.805 222.151C250.606 221.891 250.406 221.631 250.213 221.365C250.118 221.235 250.022 221.104 249.927 220.973C249.65 220.58 249.375 220.183 249.113 219.782C249.106 219.767 249.093 219.754 249.085 219.739C248.816 219.322 248.554 218.895 248.302 218.467C248.233 218.349 248.165 218.228 248.097 218.106C247.891 217.745 247.687 217.38 247.497 217.012C247.428 216.881 247.361 216.755 247.296 216.626C247.054 216.154 246.822 215.676 246.602 215.189C246.583 215.153 246.57 215.114 246.556 215.079C246.319 214.552 246.097 214.018 245.886 213.478C245.838 213.359 245.791 213.24 245.748 213.122C245.538 212.565 245.338 212.003 245.154 211.433C245.097 211.25 245.04 211.068 244.984 210.885C244.915 210.66 244.846 210.438 244.785 210.215C244.729 210.016 244.678 209.818 244.624 209.614C244.564 209.388 244.504 209.165 244.449 208.935C244.399 208.733 244.353 208.532 244.308 208.328C244.258 208.1 244.207 207.872 244.157 207.644C244.116 207.44 244.076 207.233 244.04 207.027C243.999 206.797 243.953 206.567 243.916 206.338C243.877 206.101 243.84 205.86 243.805 205.624C243.781 205.461 243.757 205.298 243.733 205.134C243.695 204.867 243.667 204.599 243.638 204.33C243.622 204.183 243.604 204.039 243.588 203.891C243.556 203.556 243.528 203.219 243.506 202.88C243.501 202.8 243.493 202.72 243.485 202.64C243.459 202.221 243.436 201.803 243.424 201.38C243.42 201.259 243.421 201.138 243.418 201.016C243.413 200.716 243.409 200.413 243.409 200.111C243.409 199.951 243.414 199.793 243.414 199.633C243.419 199.367 243.425 199.101 243.434 198.837C243.438 198.666 243.448 198.492 243.457 198.318C243.472 198.064 243.486 197.809 243.502 197.551C243.513 197.373 243.527 197.197 243.543 197.016C243.566 196.765 243.589 196.509 243.615 196.259C243.635 196.079 243.654 195.904 243.674 195.725C243.706 195.468 243.739 195.211 243.775 194.955C243.798 194.782 243.824 194.609 243.851 194.436C243.893 194.161 243.94 193.887 243.987 193.613C244.012 193.458 244.037 193.302 244.068 193.143C244.13 192.81 244.2 192.479 244.271 192.144C244.29 192.046 244.309 191.949 244.332 191.853C244.43 191.423 244.531 190.994 244.642 190.565C244.67 190.453 244.703 190.339 244.737 190.224C244.822 189.911 244.909 189.594 244.999 189.279C245.047 189.122 245.099 188.962 245.148 188.801C245.232 188.531 245.316 188.26 245.405 187.991C245.461 187.82 245.522 187.646 245.583 187.476C245.661 187.238 245.745 187.007 245.835 186.773C245.96 186.43 246.092 186.093 246.226 185.753C246.291 185.593 246.349 185.43 246.418 185.272C246.625 184.774 246.834 184.282 247.061 183.786C247.204 183.47 247.353 183.161 247.502 182.852C247.553 182.748 247.603 182.648 247.655 182.544C247.756 182.339 247.858 182.135 247.963 181.932C248.011 181.84 248.063 181.745 248.111 181.653C248.225 181.436 248.34 181.219 248.458 181.003C248.523 180.886 248.592 180.766 248.656 180.649C248.761 180.463 248.866 180.273 248.974 180.088C249.046 179.961 249.121 179.839 249.197 179.713C249.302 179.536 249.407 179.363 249.516 179.187C249.592 179.061 249.672 178.936 249.753 178.807C249.86 178.639 249.967 178.472 250.078 178.305C250.138 178.213 250.199 178.12 250.264 178.025C250.57 177.569 250.882 177.118 251.201 176.671C251.248 176.608 251.294 176.546 251.342 176.479C251.67 176.03 252.004 175.592 252.346 175.155C252.39 175.101 252.432 175.05 252.476 174.995C252.813 174.575 253.157 174.157 253.511 173.75C253.512 173.747 253.519 173.74 253.524 173.737C253.877 173.331 254.236 172.935 254.601 172.546C254.646 172.5 254.689 172.449 254.734 172.404C255.078 172.041 255.427 171.686 255.78 171.335C255.845 171.27 255.909 171.205 255.976 171.145C256.326 170.802 256.684 170.462 257.047 170.132C257.108 170.079 257.17 170.021 257.23 169.968C257.61 169.626 257.993 169.29 258.385 168.961C258.409 168.943 258.433 168.921 258.456 168.902C258.843 168.58 259.236 168.264 259.635 167.955C259.682 167.919 259.728 167.882 259.773 167.849C260.184 167.531 260.604 167.224 261.027 166.923C261.094 166.876 261.158 166.827 261.225 166.78C261.64 166.489 262.062 166.204 262.486 165.925C262.557 165.879 262.628 165.833 262.699 165.788C263.154 165.493 263.619 165.209 264.086 164.93C264.156 164.889 264.224 164.851 264.294 164.809C264.764 164.536 265.236 164.267 265.717 164.011C265.781 163.976 265.843 163.944 265.91 163.91C266.464 163.617 267.022 163.338 267.585 163.07C267.647 163.038 267.711 163.012 267.774 162.981C268.35 162.712 268.931 162.454 269.52 162.211C269.574 162.19 269.625 162.168 269.68 162.143C270.034 162 270.387 161.857 270.746 161.724C270.82 161.697 270.899 161.667 270.976 161.64C271.263 161.531 271.551 161.427 271.843 161.329C271.954 161.292 272.062 161.254 272.173 161.217C272.464 161.118 272.755 161.024 273.043 160.933C273.121 160.907 273.198 160.884 273.279 160.859C273.643 160.75 274.007 160.64 274.372 160.54C274.444 160.52 274.519 160.502 274.59 160.482C274.984 160.374 275.379 160.275 275.778 160.177C275.848 160.161 275.914 160.144 275.984 160.128C276.414 160.027 276.846 159.936 277.276 159.848C277.373 159.828 277.465 159.811 277.561 159.795C278.003 159.711 278.444 159.632 278.886 159.561C278.904 159.558 278.926 159.557 278.945 159.55C279.377 159.485 279.807 159.423 280.239 159.37C280.329 159.361 280.419 159.347 280.509 159.338C280.944 159.287 281.381 159.244 281.821 159.207C281.905 159.2 281.984 159.196 282.069 159.189C282.481 159.156 282.891 159.131 283.302 159.115C283.359 159.112 283.412 159.108 283.468 159.109C283.91 159.09 284.352 159.084 284.795 159.078C284.891 159.075 284.989 159.077 285.084 159.078C285.529 159.077 285.971 159.084 286.419 159.102C286.465 159.104 286.512 159.107 286.559 159.109C286.977 159.125 287.392 159.149 287.808 159.182C287.893 159.188 287.977 159.194 288.061 159.201C288.499 159.236 288.939 159.277 289.379 159.331C289.465 159.342 289.556 159.354 289.645 159.362C290.072 159.416 290.493 159.472 290.92 159.539C290.953 159.545 290.983 159.546 291.015 159.553C291.458 159.625 291.902 159.706 292.343 159.794C292.441 159.813 292.534 159.831 292.63 159.854C293.066 159.945 293.501 160.041 293.937 160.149C294 160.165 294.064 160.182 294.127 160.199C294.53 160.3 294.931 160.406 295.329 160.524C295.403 160.548 295.479 160.565 295.553 160.589C295.982 160.717 296.413 160.85 296.837 160.993C296.927 161.022 297.02 161.053 297.11 161.082C297.548 161.235 297.984 161.391 298.418 161.555C300.428 162.336 302.323 163.273 304.088 164.353C304.677 164.714 305.25 165.088 305.812 165.48C306.37 165.87 306.919 166.275 307.45 166.695C309.045 167.953 310.507 169.339 311.83 170.831L311.786 170.821Z" fill="#704B48"/>
<path d="M298.336 154.807C320.023 163.207 329.354 188.011 319.18 210.207C309.007 232.404 283.185 243.589 261.498 235.189C239.812 226.789 230.48 201.99 240.653 179.793C250.826 157.596 276.65 146.407 298.336 154.807Z" fill="url(#paint9_linear_2127_9228)" stroke="#FBBE7E" stroke-width="0.739539" stroke-miterlimit="10"/>
<path d="M323.107 207.793C323.206 207.492 323.304 207.192 323.394 206.894C323.452 206.714 323.509 206.53 323.56 206.348C323.659 206.005 323.755 205.661 323.847 205.315C323.884 205.177 323.925 205.039 323.962 204.9C324.085 204.418 324.205 203.935 324.312 203.452C324.332 203.364 324.35 203.27 324.366 203.181C324.451 202.79 324.534 202.394 324.606 202.003C324.636 201.832 324.667 201.66 324.697 201.489C324.751 201.179 324.807 200.864 324.853 200.552C324.882 200.358 324.91 200.169 324.935 199.974C324.975 199.681 325.014 199.391 325.049 199.101C325.072 198.901 325.094 198.701 325.115 198.505C325.144 198.221 325.172 197.936 325.197 197.651C325.214 197.454 325.229 197.251 325.242 197.053C325.263 196.766 325.278 196.482 325.294 196.198C325.302 196.002 325.314 195.807 325.322 195.611C325.333 195.317 325.339 195.021 325.345 194.725C325.348 194.545 325.353 194.361 325.352 194.179C325.352 193.851 325.348 193.522 325.342 193.196C325.339 193.048 325.34 192.902 325.335 192.758C325.321 192.287 325.3 191.813 325.268 191.345C325.265 191.288 325.257 191.234 325.254 191.177C325.225 190.766 325.192 190.353 325.153 189.944C325.137 189.783 325.116 189.625 325.099 189.464C325.065 189.159 325.032 188.855 324.99 188.547C324.964 188.362 324.938 188.181 324.911 187.999C324.883 187.809 324.859 187.619 324.829 187.433C324.817 187.351 324.8 187.272 324.784 187.189C324.74 186.928 324.693 186.676 324.644 186.418C324.599 186.187 324.559 185.954 324.513 185.727C324.458 185.472 324.404 185.217 324.346 184.96C324.295 184.732 324.245 184.504 324.189 184.278C324.126 184.024 324.059 183.769 323.994 183.519C323.933 183.296 323.878 183.071 323.813 182.847C323.741 182.594 323.663 182.344 323.586 182.09C323.534 181.922 323.49 181.752 323.438 181.584C323.418 181.526 323.398 181.467 323.38 181.405C323.338 181.27 323.29 181.138 323.244 181.002C323.146 180.711 323.047 180.42 322.942 180.135C322.889 179.992 322.838 179.846 322.786 179.703C322.673 179.403 322.557 179.11 322.439 178.813C322.392 178.693 322.347 178.58 322.3 178.46C322.136 178.066 321.967 177.673 321.792 177.284C321.791 177.275 321.785 177.268 321.783 177.259C321.538 176.717 321.274 176.181 321.004 175.648C320.927 175.502 320.85 175.355 320.776 175.21C320.558 174.798 320.334 174.387 320.104 173.984C320.055 173.895 320.007 173.805 319.959 173.716C319.931 173.668 319.902 173.624 319.874 173.58C319.591 173.099 319.299 172.623 318.995 172.152C318.981 172.13 318.965 172.112 318.955 172.091C318.665 171.647 318.361 171.206 318.051 170.767C318.015 170.721 317.985 170.668 317.952 170.622C317.881 170.522 317.805 170.427 317.729 170.329C317.511 170.033 317.292 169.741 317.067 169.451C316.946 169.295 316.823 169.142 316.7 168.99C316.467 168.702 316.23 168.412 315.986 168.129C315.905 168.034 315.829 167.936 315.748 167.84C315.666 167.748 315.585 167.653 315.507 167.562L313.443 165.236C313.607 165.419 313.764 165.613 313.927 165.8C314.171 166.083 314.408 166.373 314.642 166.661C314.764 166.813 314.886 166.97 315.008 167.122C315.233 167.412 315.456 167.705 315.673 168.005C315.78 168.152 315.888 168.296 315.991 168.442C316.302 168.876 316.602 169.316 316.895 169.766C316.909 169.788 316.925 169.806 316.935 169.827C317.24 170.294 317.527 170.772 317.814 171.255C317.891 171.388 317.967 171.525 318.044 171.658C318.274 172.062 318.498 172.472 318.716 172.885C318.793 173.031 318.87 173.177 318.944 173.322C319.215 173.852 319.474 174.39 319.723 174.934C319.904 175.33 320.074 175.731 320.24 176.135C320.287 176.254 320.334 176.373 320.381 176.492C320.501 176.786 320.615 177.083 320.725 177.378C320.778 177.521 320.83 177.663 320.882 177.809C320.985 178.098 321.088 178.391 321.187 178.682C321.233 178.818 321.276 178.949 321.322 179.085C321.394 179.312 321.462 179.541 321.533 179.771C321.61 180.021 321.687 180.275 321.759 180.528C321.82 180.751 321.881 180.974 321.941 181.196C322.009 181.452 322.077 181.703 322.137 181.956C322.192 182.181 322.243 182.409 322.293 182.637C322.351 182.894 322.407 183.145 322.46 183.404C322.505 183.635 322.551 183.866 322.596 184.096C322.645 184.354 322.69 184.611 322.735 184.868C322.781 185.137 322.822 185.405 322.862 185.678C322.889 185.859 322.916 186.041 322.941 186.226C322.98 186.528 323.018 186.834 323.052 187.139C323.068 187.299 323.09 187.458 323.105 187.622C323.143 188.032 323.177 188.44 323.205 188.855C323.208 188.912 323.215 188.971 323.218 189.028C323.25 189.496 323.267 189.968 323.285 190.44C323.288 190.588 323.288 190.734 323.291 190.882C323.297 191.208 323.302 191.533 323.302 191.862C323.303 192.043 323.299 192.227 323.294 192.412C323.289 192.703 323.283 192.999 323.272 193.294C323.264 193.49 323.256 193.686 323.244 193.88C323.228 194.164 323.213 194.448 323.192 194.735C323.179 194.934 323.16 195.135 323.146 195.337C323.121 195.623 323.094 195.903 323.064 196.191C323.042 196.391 323.023 196.592 322.997 196.791C322.962 197.082 322.923 197.371 322.884 197.66C322.855 197.854 322.831 198.045 322.802 198.238C322.756 198.551 322.701 198.861 322.647 199.171C322.617 199.343 322.59 199.515 322.556 199.685C322.483 200.08 322.402 200.472 322.316 200.863C322.296 200.951 322.28 201.041 322.262 201.134C322.155 201.617 322.035 202.1 321.912 202.582C321.875 202.721 321.834 202.859 321.797 202.998C321.705 203.343 321.611 203.684 321.51 204.03C321.455 204.211 321.399 204.395 321.34 204.575C321.245 204.876 321.152 205.174 321.054 205.474C320.99 205.669 320.92 205.866 320.853 206.06C320.762 206.323 320.668 206.582 320.573 206.844C320.434 207.23 320.283 207.612 320.13 207.998C320.058 208.178 319.99 208.358 319.915 208.536C319.684 209.095 319.444 209.655 319.188 210.21C319.025 210.563 318.862 210.915 318.692 211.261C318.634 211.384 318.57 211.501 318.508 211.623C318.395 211.85 318.284 212.072 318.17 212.298C318.113 212.409 318.055 212.519 317.993 212.628C317.866 212.872 317.74 213.111 317.606 213.348C317.531 213.483 317.454 213.613 317.381 213.744C317.26 213.955 317.143 214.167 317.023 214.374C316.942 214.515 316.857 214.656 316.772 214.796C316.655 214.995 316.535 215.189 316.414 215.387C316.324 215.53 316.234 215.673 316.144 215.816C316.025 216.006 315.904 216.191 315.782 216.38C315.712 216.486 315.639 216.592 315.568 216.702C315.227 217.216 314.875 217.722 314.517 218.222C314.462 218.295 314.408 218.368 314.354 218.441C313.987 218.942 313.613 219.437 313.229 219.923C313.177 219.989 313.127 220.05 313.076 220.111C312.701 220.584 312.317 221.045 311.926 221.499C311.913 221.512 311.899 221.529 311.886 221.542C311.496 221.993 311.096 222.435 310.691 222.868C310.644 222.918 310.602 222.968 310.555 223.018C310.171 223.427 309.775 223.828 309.379 224.22C309.308 224.292 309.233 224.363 309.162 224.434C308.768 224.819 308.367 225.201 307.96 225.572C307.891 225.636 307.819 225.699 307.747 225.761C307.323 226.145 306.894 226.518 306.459 226.884C306.424 226.911 306.389 226.939 306.358 226.967C305.925 227.326 305.489 227.68 305.045 228.022C304.998 228.058 304.95 228.099 304.904 228.135C304.441 228.493 303.969 228.839 303.491 229.178C303.417 229.232 303.345 229.281 303.271 229.335C302.806 229.661 302.334 229.981 301.859 230.296C301.778 230.347 301.699 230.403 301.617 230.454C301.108 230.783 300.588 231.105 300.068 231.413C299.988 231.46 299.913 231.505 299.832 231.552C299.308 231.859 298.779 232.156 298.245 232.443C298.171 232.483 298.099 232.52 298.026 232.556C297.405 232.884 296.78 233.196 296.151 233.495C296.08 233.528 296.009 233.561 295.936 233.597C295.293 233.9 294.642 234.187 293.983 234.458C293.923 234.482 293.862 234.51 293.803 234.533C293.408 234.697 293.008 234.851 292.608 235.004C292.524 235.037 292.441 235.066 292.353 235.098C292.033 235.217 291.709 235.335 291.384 235.445C291.257 235.489 291.135 235.531 291.01 235.572C290.689 235.683 290.366 235.784 290.042 235.889C289.952 235.916 289.863 235.947 289.773 235.974C289.365 236.099 288.958 236.22 288.546 236.331C288.466 236.352 288.385 236.373 288.309 236.395C287.863 236.517 287.42 236.63 286.975 236.739C286.896 236.756 286.819 236.778 286.74 236.796C286.258 236.909 285.771 237.013 285.286 237.108C285.18 237.13 285.074 237.151 284.972 237.17C284.475 237.265 283.978 237.357 283.478 237.435C283.46 237.437 283.442 237.44 283.424 237.443C282.936 237.52 282.449 237.585 281.963 237.645C281.859 237.659 281.755 237.672 281.653 237.682C281.164 237.737 280.673 237.787 280.18 237.829C280.087 237.837 279.999 237.842 279.905 237.851C279.445 237.885 278.982 237.915 278.522 237.936C278.461 237.938 278.394 237.942 278.332 237.947C277.834 237.965 277.339 237.975 276.841 237.98C276.733 237.979 276.62 237.981 276.512 237.98C276.012 237.98 275.514 237.972 275.01 237.954C274.96 237.95 274.913 237.948 274.861 237.948C274.393 237.928 273.922 237.903 273.451 237.865C273.353 237.859 273.256 237.853 273.16 237.843C272.668 237.802 272.175 237.753 271.683 237.699C271.583 237.688 271.485 237.673 271.385 237.662C270.907 237.604 270.432 237.539 269.957 237.461C269.921 237.453 269.883 237.449 269.841 237.444C269.342 237.362 268.844 237.273 268.346 237.174C268.237 237.151 268.132 237.129 268.023 237.107C267.529 237.005 267.038 236.896 266.551 236.775C266.484 236.757 266.412 236.738 266.345 236.72C265.89 236.605 265.442 236.484 264.989 236.353C264.907 236.326 264.819 236.305 264.736 236.282C264.251 236.141 263.771 235.987 263.293 235.826C263.191 235.793 263.086 235.758 262.985 235.725C262.492 235.555 262.001 235.381 261.511 235.19C255.468 232.848 250.382 229.231 246.407 224.754L248.471 227.081C252.441 231.561 257.526 235.177 263.575 237.516C264.065 237.707 264.556 237.881 265.049 238.052C265.15 238.085 265.255 238.119 265.355 238.157C265.835 238.314 266.314 238.471 266.799 238.613C266.884 238.641 266.969 238.66 267.056 238.684C267.505 238.815 267.957 238.937 268.408 239.05C268.479 239.07 268.547 239.087 268.619 239.103C269.106 239.224 269.597 239.333 270.091 239.434C270.2 239.457 270.305 239.479 270.414 239.502C270.912 239.601 271.408 239.694 271.906 239.771C271.942 239.779 271.98 239.782 272.021 239.787C272.497 239.862 272.973 239.927 273.449 239.988C273.549 240 273.647 240.015 273.747 240.026C274.238 240.083 274.731 240.133 275.224 240.169C275.321 240.176 275.418 240.185 275.515 240.191C275.983 240.224 276.453 240.253 276.921 240.273C276.972 240.277 277.022 240.281 277.07 240.279C277.57 240.296 278.072 240.306 278.573 240.306C278.68 240.307 278.788 240.307 278.897 240.304C279.395 240.299 279.894 240.291 280.388 240.271C280.453 240.271 280.516 240.266 280.582 240.261C281.042 240.24 281.504 240.214 281.965 240.176C282.055 240.166 282.147 240.162 282.235 240.157C282.728 240.115 283.219 240.065 283.708 240.01C283.812 239.996 283.914 239.987 284.018 239.973C284.508 239.914 284.997 239.845 285.483 239.772C285.501 239.769 285.519 239.767 285.533 239.763C286.033 239.685 286.53 239.593 287.028 239.498C287.134 239.476 287.239 239.459 287.341 239.436C287.826 239.341 288.313 239.237 288.795 239.124C288.874 239.106 288.951 239.084 289.03 239.067C289.479 238.96 289.922 238.846 290.368 238.725C290.42 238.711 290.472 238.698 290.523 238.685C290.552 238.677 290.577 238.668 290.6 238.663C291.009 238.546 291.419 238.43 291.827 238.305C291.917 238.279 292.005 238.247 292.096 238.221C292.418 238.12 292.742 238.014 293.067 237.905C293.193 237.865 293.315 237.822 293.438 237.776C293.764 237.663 294.087 237.549 294.408 237.426C294.492 237.393 294.579 237.365 294.663 237.332C295.062 237.183 295.459 237.024 295.858 236.861C295.884 236.848 295.912 236.84 295.942 236.828C295.977 236.814 296.008 236.798 296.038 236.786C296.693 236.514 297.344 236.227 297.991 235.925C298.062 235.892 298.134 235.86 298.206 235.823C298.835 235.524 299.461 235.208 300.081 234.884C300.119 234.862 300.159 234.845 300.195 234.827C300.231 234.808 300.264 234.789 300.296 234.769C300.83 234.483 301.36 234.186 301.889 233.876C301.969 233.829 302.044 233.784 302.124 233.737C302.645 233.425 303.164 233.107 303.674 232.778C303.712 232.752 303.754 232.731 303.793 232.705C303.831 232.679 303.872 232.649 303.914 232.624C304.391 232.314 304.863 231.994 305.33 231.664C305.403 231.614 305.476 231.561 305.55 231.507C306.024 231.167 306.496 230.821 306.964 230.46C306.977 230.447 306.993 230.44 307.004 230.43C307.038 230.407 307.069 230.378 307.104 230.351C307.544 230.008 307.984 229.655 308.417 229.297C308.452 229.269 308.487 229.242 308.523 229.211C308.958 228.844 309.387 228.471 309.811 228.088C309.853 228.05 309.896 228.012 309.937 227.978C309.967 227.953 309.994 227.924 310.02 227.897C310.427 227.526 310.827 227.148 311.221 226.763C311.296 226.693 311.367 226.621 311.439 226.546C311.837 226.15 312.231 225.752 312.615 225.343C312.63 225.326 312.646 225.314 312.661 225.298C312.693 225.265 312.721 225.231 312.755 225.195C313.16 224.762 313.56 224.319 313.95 223.869C313.964 223.852 313.977 223.839 313.991 223.822C314.382 223.367 314.766 222.906 315.142 222.434C315.177 222.393 315.211 222.353 315.242 222.311C315.258 222.29 315.275 222.266 315.295 222.242C315.68 221.755 316.053 221.261 316.421 220.76C316.475 220.687 316.529 220.614 316.583 220.541C316.941 220.041 317.293 219.535 317.635 219.021C317.662 218.978 317.693 218.937 317.724 218.895C317.766 218.831 317.805 218.766 317.847 218.702C317.97 218.514 318.091 218.329 318.209 218.139C318.299 217.996 318.389 217.853 318.48 217.71C318.599 217.516 318.715 217.321 318.836 217.123C318.921 216.983 319.006 216.842 319.088 216.696C319.208 216.49 319.329 216.279 319.446 216.067C319.521 215.932 319.598 215.802 319.672 215.666C319.802 215.428 319.932 215.19 320.06 214.947C320.114 214.848 320.166 214.754 320.215 214.657C320.219 214.646 320.228 214.631 320.236 214.621C320.352 214.4 320.465 214.174 320.573 213.95C320.634 213.828 320.695 213.709 320.756 213.587C320.926 213.241 321.093 212.89 321.252 212.537C321.508 211.982 321.748 211.422 321.979 210.863C322.054 210.685 322.122 210.504 322.194 210.325C322.347 209.939 322.498 209.557 322.638 209.171C322.667 209.081 322.707 208.999 322.736 208.91C322.798 208.736 322.855 208.56 322.917 208.386C322.981 208.191 323.054 207.995 323.118 207.8L323.107 207.793Z" fill="url(#paint10_linear_2127_9228)"/>
<path d="M289.5 173.779L291.565 176.106L291.883 191.868L289.818 189.542L289.5 173.779Z" fill="url(#paint11_linear_2127_9228)"/>
<path d="M274.167 207.242L276.231 209.569L260.263 211.499L258.199 209.172L274.167 207.242Z" fill="url(#paint12_linear_2127_9228)"/>
<path d="M303.164 197.222L305.228 199.548L290.128 205.873L288.067 203.548L303.164 197.222Z" fill="url(#paint13_linear_2127_9228)"/>
<path d="M289.501 173.784L289.819 189.547L303.164 197.225L288.068 203.551L283.82 219.097L274.168 207.243L258.2 209.173L267.338 195.525L261.713 181.173L277.01 184.587L289.501 173.784Z" fill="url(#paint14_linear_2127_9228)"/>
<path d="M288.067 203.547L290.127 205.872L285.883 221.419L283.819 219.093L288.067 203.547Z" fill="url(#paint15_linear_2127_9228)"/>
<g clip-path="url(#clip0_2127_9228)">
<path d="M124.283 56.4376C124.283 56.4376 122.134 58.0424 121.06 58.8448C137.355 74.2691 174.137 108.991 174.137 108.991L171.595 101.453L124.283 56.4376Z" fill="url(#paint16_linear_2127_9228)"/>
<path d="M196.387 45.1816C187.322 64.9261 171.594 101.451 171.594 101.451L174.136 108.989C174.136 108.989 192.828 68.0626 202.224 47.3604C200.278 46.6342 198.334 45.91 196.387 45.1838L196.387 45.1816Z" fill="url(#paint17_linear_2127_9228)"/>
<path d="M46.9063 89.9502L48.4404 88.752L102.85 125.448L101.893 126.723L46.9063 89.9502Z" fill="#2D2D2D"/>
<path d="M48.3616 86.5341C46.8586 87.7102 45.3533 88.8866 43.85 90.0605C63.3359 103.093 82.8217 116.126 102.307 129.156C103.343 127.775 104.38 126.395 105.416 125.014L48.3616 86.5341Z" fill="url(#paint18_linear_2127_9228)"/>
<path d="M23.0165 118.227L24.052 117.14L56.9208 145.04L56.0244 146.452L23.0165 118.227Z" fill="#2D2D2D"/>
<path d="M23.9205 114.677C22.7518 115.905 21.5831 117.133 20.4144 118.361C32.4196 128.626 44.4252 138.893 56.4304 149.158C57.3778 147.667 58.3226 146.174 59.2678 144.683C47.4839 134.681 35.7022 124.679 23.918 114.675L23.9205 114.677Z" fill="url(#paint19_linear_2127_9228)"/>
<path d="M224.131 98.4634L235.971 60.8875L237.126 61.4012C235.393 68.3309 233.521 75.31 231.557 82.1654C229.799 88.3029 227.924 94.4846 225.974 100.588L224.131 98.4634Z" fill="#2D2D2D"/>
<path d="M234.868 58.4329C230.619 71.9161 226.372 85.399 222.122 98.8821C223.65 100.643 225.178 102.406 226.706 104.166C228.955 97.2563 231.156 90.0856 233.285 82.66C235.469 75.0374 237.445 67.602 239.232 60.3738C237.778 59.7269 236.323 59.0799 234.868 58.4329Z" fill="url(#paint20_linear_2127_9228)"/>
<path d="M243.618 162.477C244.669 168.651 245.843 174.679 247.124 180.55L78.0435 221.27C75.5377 213.92 72.6133 206.179 69.1722 198.145C69.0581 197.872 68.9368 197.596 68.8179 197.322C67.9041 195.205 66.9555 193.062 65.9684 190.902C64.9127 188.595 63.8163 186.271 62.6715 183.921C62.5167 183.595 62.3546 183.265 62.1947 182.936C49.0691 156.176 33.9952 134.76 20.4135 118.363C32.0139 128.274 43.6206 138.181 55.2252 148.088C51.4318 128.746 47.6406 109.404 43.8517 90.0608C63.3376 103.111 82.8239 116.164 102.314 129.214C108.558 105.735 114.804 82.2536 121.048 58.7701C138.755 75.4953 156.456 92.2192 174.158 108.943C183.512 88.3839 192.864 67.8297 202.218 47.2752C210.313 65.9427 218.413 84.614 226.511 103.286C230.766 88.9273 235.013 74.5654 239.263 60.2076C237.314 84.1427 237.198 110.52 240.293 138.702C240.576 141.294 240.884 143.907 241.226 146.532C241.508 148.692 241.803 150.86 242.126 153.042C242.122 153.051 242.123 153.056 242.128 153.058C242.203 153.574 242.277 154.094 242.357 154.61C242.363 154.657 242.368 154.701 242.379 154.747C242.763 157.312 243.175 159.892 243.616 162.479L243.618 162.477Z" fill="url(#paint21_linear_2127_9228)"/>
<path d="M241.36 148.655C240.631 148.521 239.403 148.303 237.883 148.079C232.931 147.347 224.188 146.431 212.14 147.524C184.349 150.044 150.458 158.749 150.458 158.749C128.183 164.44 107.066 171.44 91.0022 178.467C77.6514 184.302 71.2624 188.581 68.2729 191.094C67.6834 191.591 67.2283 192.018 66.8733 192.373C66.7584 192.099 66.6362 191.821 66.5165 191.545C65.5959 189.411 64.6402 187.253 63.6458 185.077C62.5823 182.753 61.4779 180.411 60.3246 178.044C68.8764 171.498 81.0081 166.256 85.8955 164.146C102.548 156.95 124.138 149.812 146.7 144.052C172.456 137.472 197.224 133.186 216.456 131.985C225.769 131.401 233.436 131.57 239.259 132.493C239.544 135.104 239.855 137.737 240.2 140.381C240.484 142.557 240.78 144.741 241.106 146.939C241.103 146.949 241.103 146.953 241.108 146.955C241.192 147.522 241.276 148.09 241.36 148.655Z" fill="url(#paint22_linear_2127_9228)"/>
<path fill-rule="evenodd" clip-rule="evenodd" d="M71.8186 218.102C71.8306 218.162 71.8442 218.222 71.8595 218.282C71.8903 218.403 71.9276 218.521 71.9714 218.637L77.1436 236.773L254.603 192.857L248.984 173.752C248.973 173.516 248.939 173.284 248.882 173.058C246.507 163.762 204.954 166.35 156.07 178.838C107.849 191.158 70.5077 208.509 71.785 217.9L71.7627 217.906L71.8186 218.102Z" fill="url(#paint23_linear_2127_9228)"/>
<path d="M121.281 239.235C108.894 240.826 98.3929 241.356 90.9108 240.763C82.8913 240.129 80.3545 238.345 80.1337 237.488C80.0525 237.17 80.2157 236.634 80.5828 236.012C81.7597 234.022 86.6908 228.445 107.014 219.665C122.122 213.137 141.794 206.642 162.407 201.377C179.435 197.027 196.189 193.731 210.854 191.847C223.241 190.255 233.743 189.726 241.225 190.319C249.244 190.953 251.781 192.737 252.002 193.594C252.083 193.911 251.92 194.447 251.553 195.069C250.376 197.06 245.445 202.636 225.121 211.416C210.014 217.945 190.342 224.44 169.729 229.704C152.7 234.055 135.947 237.351 121.281 239.235Z" fill="url(#paint24_linear_2127_9228)"/>
<path d="M211.207 194.569C221.921 193.193 231.306 192.615 238.351 192.898C244.224 193.135 247.202 193.911 248.61 194.46C246.98 196.404 241.8 201.021 225.948 208.055C210.705 214.821 190.497 221.564 169.047 227.044C152.123 231.368 135.484 234.643 120.93 236.513C110.214 237.889 100.826 238.468 93.7838 238.184C87.9078 237.947 84.9322 237.172 83.5227 236.623C85.1525 234.678 90.3326 230.062 106.184 223.027C121.427 216.262 141.636 209.519 163.085 204.038C180.007 199.714 196.646 196.442 211.205 194.569M210.501 189.125C196.214 190.961 179.448 194.19 161.725 198.719C112.797 211.219 75.0778 228.884 77.4742 238.174C79.004 244.1 96.4761 245.189 121.629 241.958C135.916 240.122 152.682 236.893 170.405 232.364C219.333 219.864 257.052 202.199 254.656 192.906C253.126 186.98 235.654 185.891 210.501 189.123L210.501 189.125Z" fill="url(#paint25_linear_2127_9228)"/>
<path d="M191.895 128.886L174.975 120.926L178.126 120.323L195.074 128.297L191.895 128.886Z" fill="url(#paint26_linear_2127_9228)"/>
<path d="M197.663 152.119L191.896 128.885L195.075 128.295L200.851 151.574L197.663 152.119Z" fill="url(#paint27_linear_2127_9228)"/>
<path d="M163.783 136.259L169.575 159.575L172.724 159.041L166.921 135.681L163.783 136.259Z" fill="url(#paint28_linear_2127_9228)"/>
<path d="M169.576 159.576L163.784 136.26L174.975 120.924L191.895 128.884L197.662 152.119L186.532 167.475L169.576 159.576Z" fill="url(#paint29_linear_2127_9228)"/>
<path d="M169.576 159.575L186.532 167.474L189.704 166.954L172.725 159.042L169.576 159.575Z" fill="url(#paint30_linear_2127_9228)"/>
<path d="M200.85 151.572L196.868 149.462L190.278 158.551L189.705 166.955L200.85 151.572Z" fill="url(#paint31_linear_2127_9228)"/>
<path d="M174.974 120.924L163.783 136.26L166.921 135.683L178.126 120.321L174.974 120.924Z" fill="url(#paint32_linear_2127_9228)"/>
<path d="M192.665 132.532L195.074 128.294L178.126 120.321L182.649 127.826L192.665 132.532Z" fill="url(#paint33_linear_2127_9228)"/>
<path d="M192.666 132.531L196.867 149.461L200.85 151.572L195.074 128.293L192.666 132.531Z" fill="url(#paint34_linear_2127_9228)"/>
<path d="M190.276 158.55L196.866 149.461L192.665 132.531L182.649 127.825L176.038 136.902L180.251 153.867L190.276 158.55Z" fill="url(#paint35_linear_2127_9228)"/>
<path d="M182.65 127.829L178.127 120.323L166.923 135.685L176.04 136.906L182.65 127.829Z" fill="url(#paint36_linear_2127_9228)"/>
<path d="M176.039 136.903L166.921 135.682L172.724 159.042L180.251 153.867L176.039 136.903Z" fill="url(#paint37_linear_2127_9228)"/>
<path d="M190.277 158.55L180.251 153.867L172.724 159.041L189.704 166.954L190.277 158.55Z" fill="url(#paint38_linear_2127_9228)"/>
</g>
<path d="M308.5 100C304.459 98.7888 300.043 97.709 296 96.5L299.333 87.5104L307.469 88.8593C307.813 92.5521 308.156 96.3072 308.5 100Z" fill="url(#paint39_linear_2127_9228)"/>
<path d="M303.133 82.0844L290.73 73.8921L282.731 72.5192L287.133 79.3371L299.537 87.5295L307.536 88.9024L303.133 82.0844Z" fill="url(#paint40_linear_2127_9228)"/>
<path d="M277.153 107.936L296.508 96.3893L280.173 85.6003L277.153 107.936Z" fill="url(#paint41_linear_2127_9228)"/>
<path d="M280.172 85.6028L287.129 79.3361L299.54 87.5334L296.507 96.3918L280.172 85.6028Z" fill="url(#paint42_linear_2127_9228)"/>
<path d="M272.202 75.9603C274.818 79.1462 277.557 82.4132 280.172 85.6013L287.133 79.3374L282.73 72.519C279.246 73.681 275.685 74.7947 272.202 75.9603Z" fill="url(#paint43_linear_2127_9228)"/>
<path d="M277.152 107.938L280.191 85.5708L272.188 75.9846C273.843 86.6356 275.497 97.2866 277.152 107.938Z" fill="url(#paint44_linear_2127_9228)"/>
<path d="M277.151 107.937L296.528 96.3638L308.488 99.9599C298.042 102.618 287.597 105.277 277.152 107.935L277.151 107.937Z" fill="url(#paint45_linear_2127_9228)"/>
<defs>
<filter id="filter0_f_2127_9228" x="0.825764" y="0.825764" width="305.348" height="305.348" filterUnits="userSpaceOnUse" color-interpolation-filters="sRGB">
<feFlood flood-opacity="0" result="BackgroundImageFix"/>
<feBlend mode="normal" in="SourceGraphic" in2="BackgroundImageFix" result="shape"/>
<feGaussianBlur stdDeviation="24.0871" result="effect1_foregroundBlur_2127_9228"/>
</filter>
<radialGradient id="paint0_radial_2127_9228" cx="0" cy="0" r="1" gradientUnits="userSpaceOnUse" gradientTransform="translate(159.077 153.384) rotate(-151.989) scale(124.492)">
<stop offset="0.237875" stop-color="#FBBE7E" stop-opacity="0.6"/>
<stop offset="0.813562" stop-color="#FBBE7E" stop-opacity="0.1"/>
</radialGradient>
<linearGradient id="paint1_linear_2127_9228" x1="226.873" y1="246.837" x2="233.037" y2="234.199" gradientUnits="userSpaceOnUse">
<stop stop-color="#FF6E75"/>
<stop offset="1" stop-color="#FBBE7E"/>
</linearGradient>
<linearGradient id="paint2_linear_2127_9228" x1="242.51" y1="268.431" x2="278.59" y2="227.274" gradientUnits="userSpaceOnUse">
<stop stop-color="#FF6E75"/>
<stop offset="1" stop-color="#FBBE7E"/>
</linearGradient>
<linearGradient id="paint3_linear_2127_9228" x1="264.505" y1="238.858" x2="270.881" y2="225.332" gradientUnits="userSpaceOnUse">
<stop stop-color="#FF6E75"/>
<stop offset="1" stop-color="#FBBE7E"/>
</linearGradient>
<linearGradient id="paint4_linear_2127_9228" x1="277.557" y1="254.725" x2="325.026" y2="253.167" gradientUnits="userSpaceOnUse">
<stop stop-color="#FF6E75"/>
<stop offset="1" stop-color="#FBBE7E"/>
</linearGradient>
<linearGradient id="paint5_linear_2127_9228" x1="272.18" y1="276.164" x2="289.734" y2="257.048" gradientUnits="userSpaceOnUse">
<stop stop-color="#FF6E75"/>
<stop offset="1" stop-color="#FBBE7E"/>
</linearGradient>
<linearGradient id="paint6_linear_2127_9228" x1="282.363" y1="267.666" x2="282.673" y2="257.511" gradientUnits="userSpaceOnUse">
<stop stop-color="#FF6E75"/>
<stop offset="1" stop-color="#FBBE7E"/>
</linearGradient>
<linearGradient id="paint7_linear_2127_9228" x1="281.341" y1="270.956" x2="342.564" y2="253.284" gradientUnits="userSpaceOnUse">
<stop stop-color="#FF6E75"/>
<stop offset="1" stop-color="#FBBE7E"/>
</linearGradient>
<linearGradient id="paint8_linear_2127_9228" x1="264.219" y1="299.657" x2="263.711" y2="216.929" gradientUnits="userSpaceOnUse">
<stop stop-color="#FF6E75"/>
<stop offset="1" stop-color="#FBBE7E"/>
</linearGradient>
<linearGradient id="paint9_linear_2127_9228" x1="248.329" y1="126.092" x2="304.338" y2="254.606" gradientUnits="userSpaceOnUse">
<stop stop-color="#000223"/>
<stop offset="1" stop-color="#FF6E75"/>
</linearGradient>
<linearGradient id="paint10_linear_2127_9228" x1="288.645" y1="253.492" x2="324.373" y2="212.481" gradientUnits="userSpaceOnUse">
<stop stop-color="#FF6E75"/>
<stop offset="1" stop-color="#FBBE7E"/>
</linearGradient>
<linearGradient id="paint11_linear_2127_9228" x1="289.382" y1="192.548" x2="301.99" y2="177.538" gradientUnits="userSpaceOnUse">
<stop stop-color="#FF6E75"/>
<stop offset="1" stop-color="#FBBE7E"/>
</linearGradient>
<linearGradient id="paint12_linear_2127_9228" x1="269.391" y1="215.259" x2="281.552" y2="203.443" gradientUnits="userSpaceOnUse">
<stop stop-color="#FF6E75"/>
<stop offset="1" stop-color="#FBBE7E"/>
</linearGradient>
<linearGradient id="paint13_linear_2127_9228" x1="287.82" y1="213.119" x2="312.934" y2="193.126" gradientUnits="userSpaceOnUse">
<stop stop-color="#FF6E75"/>
<stop offset="1" stop-color="#FBBE7E"/>
</linearGradient>
<linearGradient id="paint14_linear_2127_9228" x1="309.108" y1="251.069" x2="284.93" y2="190.766" gradientUnits="userSpaceOnUse">
<stop stop-color="#FF6E75"/>
<stop offset="1" stop-color="#FBBE7E"/>
</linearGradient>
<linearGradient id="paint15_linear_2127_9228" x1="284.496" y1="222.576" x2="298.185" y2="221.19" gradientUnits="userSpaceOnUse">
<stop stop-color="#FF6E75"/>
<stop offset="1" stop-color="#FBBE7E"/>
</linearGradient>
<linearGradient id="paint16_linear_2127_9228" x1="179.429" y1="128.758" x2="179.189" y2="25.8611" gradientUnits="userSpaceOnUse">
<stop stop-color="#FF6E75"/>
<stop offset="1" stop-color="#FBBE7E"/>
</linearGradient>
<linearGradient id="paint17_linear_2127_9228" x1="190.067" y1="91.4272" x2="220.68" y2="25.9906" gradientUnits="userSpaceOnUse">
<stop stop-color="#FF6E75"/>
<stop offset="1" stop-color="#FBBE7E"/>
</linearGradient>
<linearGradient id="paint18_linear_2127_9228" x1="79.4695" y1="119.193" x2="93.6027" y2="55.8452" gradientUnits="userSpaceOnUse">
<stop stop-color="#FF6E75"/>
<stop offset="1" stop-color="#FBBE7E"/>
</linearGradient>
<linearGradient id="paint19_linear_2127_9228" x1="43.1093" y1="140.808" x2="57.5383" y2="93.9492" gradientUnits="userSpaceOnUse">
<stop stop-color="#FF6E75"/>
<stop offset="1" stop-color="#FBBE7E"/>
</linearGradient>
<linearGradient id="paint20_linear_2127_9228" x1="233.514" y1="91.662" x2="259.318" y2="51.717" gradientUnits="userSpaceOnUse">
<stop stop-color="#FF6E75"/>
<stop offset="1" stop-color="#FBBE7E"/>
</linearGradient>
<linearGradient id="paint21_linear_2127_9228" x1="197.783" y1="219.591" x2="208.925" y2="113.309" gradientUnits="userSpaceOnUse">
<stop stop-color="#FF6E75"/>
<stop offset="1" stop-color="#FBBE7E"/>
</linearGradient>
<linearGradient id="paint22_linear_2127_9228" x1="105.897" y1="199.153" x2="119.12" y2="91.1329" gradientUnits="userSpaceOnUse">
<stop offset="0.04" stop-color="#FE8478"/>
<stop offset="0.664207" stop-color="#FBBE7E"/>
<stop offset="1" stop-color="#FE8478"/>
</linearGradient>
<linearGradient id="paint23_linear_2127_9228" x1="31.6452" y1="312.896" x2="21.6117" y2="185.543" gradientUnits="userSpaceOnUse">
<stop stop-color="#FF6E75"/>
<stop offset="1" stop-color="#FBBE7E"/>
</linearGradient>
<linearGradient id="paint24_linear_2127_9228" x1="95.5455" y1="256.317" x2="43.1937" y2="153.657" gradientUnits="userSpaceOnUse">
<stop stop-color="#E56167"/>
<stop offset="1" stop-color="#FBBE7E"/>
</linearGradient>
<linearGradient id="paint25_linear_2127_9228" x1="86.4154" y1="274.007" x2="100.057" y2="126.872" gradientUnits="userSpaceOnUse">
<stop stop-color="#FF6E75"/>
<stop offset="1" stop-color="#FBBE7E"/>
</linearGradient>
<linearGradient id="paint26_linear_2127_9228" x1="186.573" y1="127.001" x2="187.421" y2="112.03" gradientUnits="userSpaceOnUse">
<stop stop-color="#FF6E75"/>
<stop offset="1" stop-color="#FBBE7E"/>
</linearGradient>
<linearGradient id="paint27_linear_2127_9228" x1="197.71" y1="145.823" x2="209.098" y2="137.768" gradientUnits="userSpaceOnUse">
<stop stop-color="#FF6E75"/>
<stop offset="1" stop-color="#FBBE7E"/>
</linearGradient>
<linearGradient id="paint28_linear_2127_9228" x1="169.592" y1="153.265" x2="180.954" y2="145.297" gradientUnits="userSpaceOnUse">
<stop stop-color="#FF6E75"/>
<stop offset="1" stop-color="#FBBE7E"/>
</linearGradient>
<linearGradient id="paint29_linear_2127_9228" x1="184.617" y1="155.152" x2="206.19" y2="103.289" gradientUnits="userSpaceOnUse">
<stop stop-color="#FF6E75"/>
<stop offset="1" stop-color="#FBBE7E"/>
</linearGradient>
<linearGradient id="paint30_linear_2127_9228" x1="171.763" y1="162.892" x2="184.394" y2="116.047" gradientUnits="userSpaceOnUse">
<stop stop-color="#FF6E75"/>
<stop offset="1" stop-color="#FBBE7E"/>
</linearGradient>
<linearGradient id="paint31_linear_2127_9228" x1="195.862" y1="164.15" x2="202.352" y2="132.771" gradientUnits="userSpaceOnUse">
<stop stop-color="#FF6E75"/>
<stop offset="1" stop-color="#FBBE7E"/>
</linearGradient>
<linearGradient id="paint32_linear_2127_9228" x1="165.312" y1="139.784" x2="180.927" y2="97.6448" gradientUnits="userSpaceOnUse">
<stop offset="0.0966596" stop-color="#FF6E75"/>
<stop offset="1" stop-color="#FBBE7E"/>
</linearGradient>
<linearGradient id="paint33_linear_2127_9228" x1="188.279" y1="139.009" x2="192.227" y2="110.64" gradientUnits="userSpaceOnUse">
<stop stop-color="#FF6E75"/>
<stop offset="1" stop-color="#FBBE7E"/>
</linearGradient>
<linearGradient id="paint34_linear_2127_9228" x1="198.461" y1="157.285" x2="214.368" y2="146.523" gradientUnits="userSpaceOnUse">
<stop stop-color="#FF6E75"/>
<stop offset="1" stop-color="#FBBE7E"/>
</linearGradient>
<linearGradient id="paint35_linear_2127_9228" x1="180.627" y1="158.182" x2="198.871" y2="133.834" gradientUnits="userSpaceOnUse">
<stop stop-color="#FF6E75"/>
<stop offset="0.893026" stop-color="#FBBE7E"/>
</linearGradient>
<linearGradient id="paint36_linear_2127_9228" x1="174.481" y1="143.395" x2="179.567" y2="112.243" gradientUnits="userSpaceOnUse">
<stop stop-color="#FF6E75"/>
<stop offset="1" stop-color="#FBBE7E"/>
</linearGradient>
<linearGradient id="paint37_linear_2127_9228" x1="161.903" y1="160.675" x2="191.882" y2="157.505" gradientUnits="userSpaceOnUse">
<stop stop-color="#FF6E75"/>
<stop offset="1" stop-color="#FBBE7E"/>
</linearGradient>
<linearGradient id="paint38_linear_2127_9228" x1="179.808" y1="167.178" x2="192.553" y2="145.595" gradientUnits="userSpaceOnUse">
<stop stop-color="#FF6E75"/>
<stop offset="1" stop-color="#FBBE7E"/>
</linearGradient>
<linearGradient id="paint39_linear_2127_9228" x1="301" y1="97" x2="296.393" y2="81.9933" gradientUnits="userSpaceOnUse">
<stop stop-color="#FF6E75"/>
<stop offset="1" stop-color="#FBBE7E"/>
</linearGradient>
<linearGradient id="paint40_linear_2127_9228" x1="293.5" y1="132.5" x2="267.512" y2="109.474" gradientUnits="userSpaceOnUse">
<stop stop-color="#FF6E75"/>
<stop offset="1" stop-color="#FBBE7E"/>
</linearGradient>
<linearGradient id="paint41_linear_2127_9228" x1="279.877" y1="111.845" x2="297.394" y2="86.2696" gradientUnits="userSpaceOnUse">
<stop stop-color="#FF6E75"/>
<stop offset="1" stop-color="#FBBE7E"/>
</linearGradient>
<linearGradient id="paint42_linear_2127_9228" x1="291" y1="101" x2="276.987" y2="84.917" gradientUnits="userSpaceOnUse">
<stop stop-color="#FF6E75"/>
<stop offset="1" stop-color="#FBBE7E"/>
</linearGradient>
<linearGradient id="paint43_linear_2127_9228" x1="280" y1="99.5" x2="278.684" y2="71.1306" gradientUnits="userSpaceOnUse">
<stop stop-color="#FF6E75"/>
<stop offset="1" stop-color="#FBBE7E"/>
</linearGradient>
<linearGradient id="paint44_linear_2127_9228" x1="269.5" y1="112.5" x2="281.937" y2="84.6416" gradientUnits="userSpaceOnUse">
<stop stop-color="#FF6E75"/>
<stop offset="1" stop-color="#FBBE7E"/>
</linearGradient>
<linearGradient id="paint45_linear_2127_9228" x1="289.5" y1="107" x2="284.139" y2="75.2234" gradientUnits="userSpaceOnUse">
<stop stop-color="#FF6E75"/>
<stop offset="1" stop-color="#FBBE7E"/>
</linearGradient>
<clipPath id="clip0_2127_9228">
<rect width="228.546" height="189.435" fill="white" transform="translate(14.0215 68.6128) rotate(-7.32094)"/>
</clipPath>
</defs>
</svg>
