<svg width="160" height="24" viewBox="0 0 160 24" fill="none" xmlns="http://www.w3.org/2000/svg">
<g clip-path="url(#clip0_2135_2538)">
<path fill-rule="evenodd" clip-rule="evenodd" d="M88.3412 21.6553C86.5349 20.8211 85.1777 19.5952 84.2695 17.9565C83.3525 16.3279 82.8935 14.3063 82.8935 11.9097C82.8935 9.51296 83.3426 7.56538 84.2508 5.94662C85.1589 4.33559 86.4974 3.11959 88.2861 2.30524C90.0737 1.4909 92.2828 1.08704 94.9222 1.08704C97.5628 1.08704 99.7531 1.49862 101.551 2.3229C103.348 3.14607 104.695 4.36428 105.614 5.99186C106.53 7.61172 106.99 9.61448 106.99 11.9924C106.99 14.3703 106.54 16.3731 105.632 17.993C104.724 19.6128 103.386 20.8399 101.597 21.663C99.8094 22.4862 97.6091 22.8989 94.9873 22.8989C92.3677 22.8989 90.1487 22.4862 88.3512 21.6531H88.3423L88.3412 21.6553ZM98.4521 17.3386C99.3198 16.9658 100.02 16.2862 100.417 15.4296C100.83 14.5579 101.045 13.417 101.045 12.0034C101.045 10.5899 100.839 9.44786 100.417 8.57724C100.02 7.72032 99.32 7.04021 98.4521 6.66717C97.5528 6.26441 96.3832 6.05917 94.9321 6.05917C93.4811 6.05917 92.3114 6.26441 91.4221 6.66717C90.5604 7.04576 89.8653 7.72402 89.4657 8.57614C89.053 9.44786 88.8378 10.5899 88.8378 12.0034C88.8378 13.4159 89.053 14.5303 89.4745 15.4021C89.896 16.2716 90.5514 16.9083 91.4408 17.3298C92.3291 17.7414 93.491 17.9565 94.9222 17.9565C96.3545 17.9565 97.5528 17.7513 98.4422 17.3485L98.4521 17.3386ZM59.4375 1.38717H59.4287L59.4375 1.37835V1.38717ZM59.4375 1.38717H73.1048C74.5934 1.38717 75.8943 1.62993 77 2.10773C78.1035 2.58552 78.9465 3.27848 79.5357 4.18662C80.1261 5.09476 80.4163 6.17062 80.4163 7.41641C80.4163 8.32455 80.2662 9.1102 79.9661 9.79434C79.6819 10.4572 79.2145 11.0253 78.6188 11.4319C78.0196 11.8434 77.299 12.1248 76.456 12.2561V12.5651C77.4204 12.7703 78.1785 13.0793 78.7313 13.4821C79.283 13.8848 79.6946 14.4465 79.9473 15.1483C80.2011 15.8501 80.3313 16.7681 80.3313 17.8815C80.3313 18.996 80.3501 19.8192 80.3876 20.3996C80.4251 20.98 80.5189 21.7204 80.669 22.6098H75.1175C74.9906 21.9824 74.9059 21.3472 74.8637 20.7085C74.8195 19.7577 74.8011 18.8058 74.8086 17.8539C74.8086 17.1896 74.7148 16.6644 74.5283 16.2716C74.348 15.8802 74.0222 15.5746 73.6201 15.4197C73.2075 15.252 72.637 15.167 71.9252 15.167H64.989V22.6098H59.4375V1.38607V1.38717ZM64.9879 10.7201H71.7288C72.413 10.7201 72.9459 10.6363 73.3575 10.4774C73.7603 10.3185 74.0593 10.0559 74.2469 9.70055C74.4345 9.34414 74.5283 8.85751 74.5283 8.25834C74.5283 7.65917 74.4345 7.17255 74.2469 6.81724C74.0558 6.45795 73.7392 6.18147 73.3575 6.04041C72.9548 5.88041 72.4119 5.79655 71.7288 5.79655H64.989L64.9879 10.7201ZM49.6919 1.38717H55.4122V22.6175H49.6897V1.38828L49.6919 1.38717ZM32.3457 1.38717H38.8152L47.709 22.6175H41.5959L40.2386 19.0799H30.7512L29.341 22.6186H23.3691L32.3457 1.38717ZM35.7631 7.41531L38.5857 14.7742H32.4671L35.3978 7.41531H35.7631ZM116.302 1.38717H109.786V22.6175H115.31V8.91379H115.674L124.277 22.6186H130.792V1.38828H125.269V15.0092H124.904L116.302 1.38717ZM136.173 17.9985H137.541V21.8925H140.377V23.0721H136.173V17.9985ZM145.206 17.9985H143.663L141.519 23.0721H142.941L143.277 22.2291H145.548L145.872 23.0721H147.332L145.206 17.9985ZM145.152 21.1996L144.477 19.4396H144.392L143.689 21.1996H145.152ZM148.485 17.9985H151.527C151.921 17.9985 152.239 18.0448 152.501 18.1386C152.763 18.2324 152.959 18.3725 153.1 18.5502C153.231 18.7378 153.297 18.9618 153.297 19.2343C153.297 19.5234 153.231 19.7585 153.09 19.945C152.949 20.1348 152.742 20.2651 152.51 20.3102V20.3852C152.838 20.4514 153.09 20.5816 153.259 20.788C153.427 20.9943 153.512 21.2746 153.512 21.6112C153.512 21.9201 153.446 22.1827 153.306 22.3979C153.161 22.6203 152.952 22.7935 152.706 22.8945C152.409 23.0135 152.091 23.0706 151.771 23.0622H148.476V17.9885L148.485 17.9985ZM151.639 19.9924C151.729 19.9638 151.805 19.9039 151.855 19.8236C151.904 19.7284 151.927 19.6217 151.921 19.5146C151.927 19.4075 151.904 19.3008 151.855 19.2056C151.808 19.1235 151.73 19.0629 151.639 19.0368C151.513 18.9961 151.38 18.9774 151.247 18.9816H149.814V20.0299H151.247C151.415 20.0299 151.546 20.0112 151.639 19.9825V19.9924ZM151.827 22.0051C151.922 21.9723 152.002 21.9055 152.051 21.8175C152.105 21.7072 152.131 21.585 152.126 21.4622C152.133 21.3399 152.111 21.2176 152.061 21.1058C152.012 21.0176 151.931 20.9508 151.836 20.9182C151.703 20.8768 151.564 20.8582 151.424 20.863H149.823V22.0702H151.424C151.602 22.0702 151.742 22.0514 151.846 22.015L151.827 22.0051ZM154.945 22.3692C155.123 22.623 155.403 22.8194 155.787 22.9507V22.9596C156.171 23.0909 156.668 23.156 157.238 23.156C157.81 23.156 158.297 23.0898 158.671 22.9684C159.055 22.847 159.336 22.6594 159.522 22.4167C159.71 22.1739 159.804 21.865 159.804 21.4898C159.804 21.2095 159.756 20.9756 159.654 20.7692C159.553 20.5649 159.393 20.3955 159.195 20.2826C158.989 20.1513 158.727 20.0674 158.418 20.0112L157.098 19.7861C156.937 19.7569 156.778 19.7193 156.62 19.6735C156.527 19.6499 156.441 19.6054 156.368 19.5433C156.32 19.4923 156.293 19.4254 156.293 19.3557C156.293 19.2719 156.33 19.1968 156.405 19.1306C156.504 19.0642 156.616 19.0198 156.733 19.0004C156.909 18.9673 157.088 18.9514 157.267 18.953C157.45 18.9512 157.633 18.9735 157.81 19.0192C157.95 19.0567 158.053 19.1218 158.119 19.2156C158.194 19.3193 158.236 19.443 158.24 19.5709H159.616C159.626 19.2156 159.541 18.9154 159.364 18.6727C159.186 18.4299 158.923 18.2423 158.568 18.121C158.213 17.9985 157.762 17.9334 157.248 17.9334C156.733 17.9334 156.311 17.9885 155.956 18.1099C155.601 18.2324 155.338 18.4012 155.161 18.6352C154.973 18.8592 154.889 19.1494 154.889 19.487C154.889 19.7397 154.935 19.9549 155.039 20.1425C155.142 20.3301 155.292 20.479 155.497 20.6004C155.703 20.7218 155.956 20.8156 156.274 20.8818L157.754 21.1808C157.922 21.2183 158.053 21.2559 158.146 21.2934C158.225 21.3193 158.293 21.3681 158.343 21.4335C158.389 21.51 158.407 21.5998 158.395 21.6882C158.384 21.7766 158.342 21.8584 158.278 21.9201C158.175 22.0097 158.048 22.0655 157.913 22.0801C157.699 22.1134 157.483 22.1289 157.267 22.1265C156.996 22.1265 156.78 22.1077 156.62 22.0603C156.48 22.0273 156.357 21.9445 156.274 21.8274C156.189 21.6887 156.141 21.5308 156.134 21.3684H154.683C154.674 21.7712 154.768 22.1176 154.945 22.3703V22.3692Z" fill="url(#paint0_linear_2135_2538)"/>
<path fill-rule="evenodd" clip-rule="evenodd" d="M16.1995 1.32971L20.0682 4.60143L11.9137 14.2445L11.906 14.2378V14.2434H6.36005V22.5556H0.638672V1.38047H6.36005V9.17523H9.56336L16.1995 1.32971ZM15.2053 22.5667H20.2723V14.2445H15.2064L15.2053 22.5667Z" fill="url(#paint1_linear_2135_2538)"/>
</g>
<defs>
<linearGradient id="paint0_linear_2135_2538" x1="106.523" y1="23.0745" x2="107.82" y2="-3.54927" gradientUnits="userSpaceOnUse">
<stop stop-color="#FF6E75"/>
<stop offset="1" stop-color="#FBBE7E"/>
</linearGradient>
<linearGradient id="paint1_linear_2135_2538" x1="12.6049" y1="22.4883" x2="20.1704" y2="-0.727152" gradientUnits="userSpaceOnUse">
<stop stop-color="#FF6E75"/>
<stop offset="1" stop-color="#FBBE7E"/>
</linearGradient>
<clipPath id="clip0_2135_2538">
<rect width="160" height="23.1724" fill="white" transform="translate(0 0.413818)"/>
</clipPath>
</defs>
</svg>
