<svg width="248" height="248" viewBox="0 0 248 248" fill="none" xmlns="http://www.w3.org/2000/svg">
<path d="M76.2432 78.4342C79.7164 78 82.7555 78 86.2288 78C87.0971 78 87.9654 78.4342 88.8338 78.4342C90.1362 78.4342 91.8729 78.4342 93.1753 78.4342C96.6486 78.8683 99.6877 78.4342 103.161 78.8683C104.898 78.8683 107.068 78.8683 108.805 78.8683C107.937 79.7366 107.068 80.605 105.766 81.4733C104.029 83.2099 102.293 84.9465 101.424 87.1173C101.424 87.9856 101.424 89.2881 101.424 90.1564C96.6486 90.1564 91.8729 90.1564 87.5313 90.1564C87.5313 88.854 87.5313 87.1173 86.663 85.8148C86.2288 85.3807 85.3605 84.5124 84.4922 83.6441C81.8872 81.9074 78.8481 80.1708 76.2432 78.4342Z" fill="#E9444A"/>
<path d="M157.865 108.826C162.641 98.4058 166.982 88.4202 171.758 78.4346C170.456 83.2103 169.587 87.5519 168.285 92.3276C167.851 93.6301 168.719 94.9326 168.285 96.6692C167.417 99.7083 166.548 103.182 165.68 106.221C165.246 107.523 164.812 108.391 164.812 109.694C164.812 110.996 165.68 111.431 165.68 112.733C164.812 115.772 163.943 118.377 163.075 120.982C161.773 125.324 160.47 129.665 159.168 134.007C159.168 134.875 158.299 135.309 157.865 136.178C157.431 137.046 157.431 137.914 156.997 138.783C155.694 140.519 154.392 142.69 153.958 144.861C153.524 146.163 153.089 147.032 152.655 148.334C152.221 150.939 151.353 153.544 150.919 156.583C150.919 157.451 150.484 157.886 150.484 158.754C149.616 160.056 148.748 160.925 147.879 162.227C147.011 163.964 146.577 166.135 145.275 167.871C144.406 166.569 144.406 165.266 143.972 163.964C142.235 158.754 140.933 153.544 139.196 148.334C140.499 147.032 142.235 146.597 143.538 145.295C148.314 141.822 151.353 136.612 153.524 131.402C155.26 127.494 155.694 123.153 156.997 118.811C157.431 117.509 157.865 116.64 158.733 115.772C158.299 114.47 157.865 113.167 157.431 111.865C157.431 110.128 157.865 109.26 157.865 108.826Z" fill="#E9444A"/>
<path d="M115.752 78.8687C117.055 78.8687 118.791 78.8687 120.094 78.4346C122.699 78.4346 125.738 78.4346 128.343 78.4346C129.645 78.4346 130.948 78.8687 132.25 78.8687C133.987 78.8687 135.724 78.4346 137.46 78.4346C139.197 78.4346 140.933 78.4346 142.236 78.8687C140.933 80.6054 138.763 81.9078 137.46 83.6445C136.592 84.9469 136.158 86.2494 134.855 87.1177C134.421 87.5519 133.987 87.9861 133.553 88.4202C133.553 88.8544 133.553 89.7227 133.119 90.1568C129.645 90.1568 126.172 90.1568 122.699 90.1568C121.831 90.1568 120.962 90.1568 120.528 90.1568C120.528 89.2885 120.094 88.4202 119.226 87.9861C117.055 85.8153 114.45 83.6445 112.713 81.0395C112.279 80.1712 111.411 79.737 110.977 78.8687C112.713 78.8687 114.45 78.4346 115.752 78.8687Z" fill="#E9444A"/>
<path d="M84.0576 94.9322C84.4918 94.9322 84.9259 94.498 85.3601 94.498C93.1749 94.498 101.424 94.498 109.239 94.498C111.41 94.498 114.015 94.498 116.185 94.498C117.488 94.498 119.224 94.498 120.527 94.498C126.605 94.498 132.683 94.498 138.762 94.498C142.235 94.9322 145.708 94.498 149.181 94.9322C150.484 94.9322 151.786 94.9322 153.089 95.3664V95.8005C152.22 97.103 150.484 97.9713 149.616 99.2738C149.181 101.01 149.616 102.313 150.05 104.05C150.918 107.089 152.22 110.128 153.089 112.733C153.089 113.167 153.523 113.601 153.523 114.035C153.523 114.469 153.089 114.903 153.089 115.338C151.786 119.245 151.352 123.587 150.05 127.494C148.313 131.836 146.142 135.743 143.103 139.216C140.064 142.255 136.157 144.426 132.249 146.163C128.342 147.465 124.434 148.334 120.527 148.768C118.356 148.768 116.185 149.202 114.015 149.202C112.712 149.202 110.975 149.636 109.673 149.636C108.37 149.636 107.068 149.636 106.2 149.636C105.331 149.636 105.331 148.768 104.463 148.768C103.595 149.202 103.161 149.636 102.292 150.07C101.424 150.07 100.99 150.07 100.121 150.07C97.0824 150.07 93.6091 150.07 90.57 150.07C89.2675 150.07 88.3992 150.07 87.0967 149.636C88.3992 148.334 90.1358 147.031 91.8725 146.597C94.4774 145.729 97.0824 144.86 100.121 144.426C100.99 144.426 101.424 143.992 101.858 143.124C102.292 141.387 100.99 139.651 100.99 137.914C100.99 134.875 100.99 131.836 100.99 129.231C100.99 128.362 101.858 127.494 102.292 126.626C102.292 125.757 100.99 124.889 100.99 124.021C100.99 120.982 100.99 117.943 100.99 114.903C100.99 113.601 101.424 112.299 102.292 111.43C103.161 110.562 104.029 109.259 104.897 108.391V107.957C103.161 107.089 100.99 107.523 99.2532 106.654C96.6482 104.918 94.0433 103.181 91.4383 101.879C89.2675 100.576 87.5309 99.2738 85.3601 97.5372C84.9259 96.2347 84.4918 95.3664 84.0576 94.9322ZM110.107 100.142C110.975 101.445 111.844 101.879 112.712 103.181C114.449 104.918 116.619 106.22 117.054 108.391C115.317 108.391 113.58 108.391 111.844 108.391C111.844 110.996 111.844 114.035 112.278 116.64C112.278 118.377 112.278 120.113 112.712 121.85C112.712 122.718 113.58 123.152 114.015 123.587C114.883 124.455 115.317 124.889 115.751 125.757C115.317 126.626 114.449 127.494 113.58 127.928C113.146 128.362 112.278 128.797 112.278 129.665C112.278 132.27 112.278 134.441 112.278 137.046C112.278 138.348 112.278 140.085 112.278 141.387C115.317 141.387 118.356 141.387 121.395 141.387C123.566 141.387 125.303 141.387 127.473 140.519C130.513 139.651 133.117 137.914 134.854 135.309C136.157 132.704 137.025 130.099 137.459 127.494C137.893 125.757 137.459 124.021 137.893 122.718C138.327 121.85 138.762 120.548 138.762 119.679C138.762 117.508 138.762 114.903 138.327 112.733C137.893 111.43 137.893 109.694 137.459 108.391C137.025 107.523 136.591 106.654 136.157 105.786C136.157 105.352 136.591 104.918 137.025 104.484C137.459 104.05 137.893 103.615 137.893 102.747C136.591 101.879 135.288 101.879 133.986 101.879C130.947 101.445 127.908 101.01 124.868 101.01C123.132 100.576 121.395 101.01 119.659 100.576C118.356 100.576 117.488 100.576 116.185 100.576C114.015 100.142 112.278 100.142 110.107 100.142Z" fill="#E9444A"/>
<path d="M88.3994 103.181C89.7019 103.615 90.5702 104.918 91.8727 105.352C93.1752 106.22 94.4777 107.089 95.7801 107.957C96.6484 108.391 97.5168 108.825 97.9509 109.694C97.9509 110.562 97.5168 110.996 97.5168 111.864C97.5168 112.733 97.0826 113.167 97.0826 114.035C97.0826 117.074 97.0826 120.113 97.0826 122.718C97.0826 123.587 97.5168 124.889 97.0826 125.757C97.0826 126.626 96.6484 127.494 96.6484 127.928C96.6484 130.967 96.6484 133.572 96.6484 136.611C96.6484 137.914 96.6484 138.782 97.0826 140.085C95.7801 140.519 94.4777 140.953 93.6093 140.953C93.6093 140.519 93.6093 140.085 93.6093 139.216C93.1752 136.177 92.741 133.138 92.3069 129.665C91.8727 127.06 91.8727 124.889 91.4385 122.284C90.5702 118.811 90.1361 115.338 89.2678 111.864C88.8336 110.996 89.2678 109.694 89.2678 108.825C89.2678 107.957 88.3994 107.523 88.8336 106.654C87.9653 105.786 87.9653 104.484 88.3994 103.181Z" fill="#E9444A"/>
<path d="M125.302 104.917C126.604 104.917 127.907 104.917 129.643 105.352C130.512 106.22 131.814 107.088 132.682 107.957C133.551 108.391 133.985 109.259 133.985 110.127C134.419 111.864 134.853 114.035 134.853 115.771C134.853 117.508 134.853 118.811 134.419 120.547C133.551 123.152 133.985 126.191 132.682 129.23C131.38 127.06 130.512 124.455 129.643 121.85C129.209 119.679 128.341 117.942 127.907 115.771C127.473 111.864 126.604 108.391 125.302 104.917Z" fill="#E9444A"/>
<path d="M94.9111 153.543C97.0819 153.543 98.8186 153.543 100.989 153.543C100.555 156.148 100.121 158.753 99.6869 161.358C99.2527 164.397 98.3844 167.436 97.9502 170.909H97.5161C97.0819 169.173 97.0819 167.436 96.6478 165.265C95.7795 162.226 95.7794 159.187 95.7794 156.148C94.9111 155.28 94.9111 154.411 94.9111 153.543Z" fill="#E9444A"/>
</svg>
