<svg width="248" height="248" viewBox="0 0 248 248" fill="none" xmlns="http://www.w3.org/2000/svg">
<path d="M172.652 75.4014C173.13 76.8356 173.608 78.2698 174.086 79.704C174.564 84.4847 173.608 88.3092 171.696 92.6118C170.74 94.046 169.784 95.4802 168.827 97.3924C168.349 98.3486 167.871 98.8266 167.871 99.7827C167.393 100.739 168.349 101.695 169.306 101.217C170.262 101.217 170.74 100.739 171.696 100.261C172.174 100.261 172.652 99.7827 173.13 99.7827C171.696 102.651 170.74 105.998 167.871 108.388C166.437 109.344 165.481 110.3 164.047 111.256C161.657 112.212 160.222 114.125 158.788 116.037V116.515C159.266 116.515 159.266 116.037 159.744 116.037C161.178 115.081 162.135 114.603 164.047 114.125C165.481 113.647 166.915 113.169 168.827 112.691C171.218 112.212 174.086 111.256 175.52 108.866C175.52 109.344 175.52 109.344 175.52 109.822C174.564 113.169 172.652 115.559 170.262 117.471C168.349 118.905 166.437 119.862 164.525 120.818C164.047 121.296 163.569 121.296 162.613 121.774C161.657 122.252 162.135 123.208 163.091 123.686C164.047 124.164 165.003 124.164 165.959 124.164C165.481 124.164 165.003 124.642 165.003 125.12C163.091 126.554 160.222 127.032 157.832 127.989C155.442 128.945 153.051 129.901 150.661 130.857C150.183 130.857 149.705 131.335 149.227 131.813C149.227 131.813 149.227 131.813 149.227 132.291H149.705C149.227 132.291 150.661 132.291 151.617 132.291C154.007 132.769 156.398 132.291 158.788 131.335C158.788 131.813 158.788 131.813 158.31 132.291C154.964 137.072 150.661 139.94 144.924 140.418C142.534 140.418 140.622 140.418 138.231 139.94C137.753 139.94 136.797 139.94 136.319 139.94C135.841 139.94 135.363 140.418 135.841 140.896C137.275 141.374 138.709 141.853 139.187 143.765C136.319 143.765 133.451 144.243 131.06 142.809C129.626 144.243 129.626 149.502 132.016 150.458C133.451 149.502 132.973 148.067 133.451 146.633C133.929 147.589 133.929 148.545 134.407 149.023C134.885 149.98 134.885 150.936 134.885 151.892C134.885 152.848 134.407 153.326 133.929 154.282C133.929 154.76 133.451 155.238 133.929 155.716C134.885 155.716 135.363 155.716 136.319 154.282C136.319 157.151 133.451 159.541 131.538 159.541C131.538 158.585 132.016 158.107 131.538 157.151C130.582 157.151 130.104 158.585 129.148 159.063C130.104 156.673 130.104 153.804 129.148 151.414C128.192 152.37 128.67 154.282 127.714 155.238C127.236 154.76 127.236 154.76 127.236 154.282C127.236 153.804 127.236 153.326 127.236 152.848C127.236 152.37 126.758 150.936 126.28 149.98C124.845 148.545 124.367 147.111 124.367 145.199C124.367 144.721 124.367 144.243 124.845 143.765C124.845 143.287 124.845 143.287 124.845 142.809H124.367C123.411 144.243 122.933 145.199 122.455 147.111C122.455 147.589 122.455 147.589 122.455 148.067C123.889 149.98 123.889 152.37 122.933 154.282C122.933 154.282 122.933 154.76 122.455 154.76C122.455 153.326 121.977 152.37 121.499 151.414C121.499 150.936 121.499 150.458 121.021 150.458C121.021 149.98 121.021 149.98 121.021 149.502C119.587 150.458 119.109 152.37 120.065 153.804C120.543 154.76 120.543 156.194 120.065 157.151C120.065 157.629 119.587 157.629 119.587 158.107C119.109 157.629 119.109 157.151 119.109 156.673C119.109 156.194 119.109 155.716 119.109 155.238C118.153 155.716 117.674 156.673 117.196 157.151C116.718 158.107 116.718 159.063 117.196 160.019C114.328 160.975 110.982 157.629 110.982 155.716C111.46 156.194 111.938 157.151 112.894 156.673C113.372 155.716 113.372 154.76 112.894 154.282C112.416 153.804 112.416 152.848 111.938 152.37C111.46 151.414 111.46 150.458 112.416 149.98C112.894 149.502 113.372 148.545 113.85 148.067C113.85 148.545 113.85 149.023 113.85 149.023C113.372 149.98 113.85 150.458 114.328 150.936C114.806 151.414 114.806 151.892 115.284 152.37C115.762 151.892 115.762 151.892 116.24 151.414C117.196 150.458 117.196 149.502 117.196 148.545C117.196 147.111 117.196 145.199 116.718 143.765C116.718 143.287 116.24 143.287 116.24 142.809C115.762 142.809 115.762 143.287 115.284 143.287C113.372 144.243 110.982 145.199 108.591 144.721C107.635 144.721 106.679 144.721 106.201 145.199C106.201 144.721 106.679 144.243 106.679 144.243C107.157 143.287 107.635 142.331 109.069 142.331C109.547 142.331 110.025 141.853 110.025 141.374C109.547 140.418 108.591 140.418 107.635 140.418C105.723 140.418 103.811 140.896 102.376 140.896C99.0299 141.374 96.1615 139.94 93.2931 138.028C91.3809 137.072 89.9467 135.638 88.9906 133.725C88.5125 133.247 88.5125 132.769 88.5125 132.291C88.5125 131.813 89.4686 132.291 90.9028 132.291C91.3809 132.291 91.859 132.291 92.337 132.291C94.7273 132.291 97.1177 131.813 99.508 132.769C99.508 132.769 99.9861 132.769 100.464 132.769C99.9861 132.291 99.9861 132.291 99.9861 131.813C97.1177 129.901 94.2493 127.989 90.4248 127.511C87.5564 127.032 85.6441 126.076 83.2538 124.642C84.688 124.642 86.1222 124.642 87.0783 123.208C87.0783 122.252 86.6002 122.252 86.1222 121.774C84.2099 120.818 82.7757 119.861 80.8634 118.905C77.9951 116.993 75.6047 115.081 74.1705 112.212C73.6925 111.256 73.2144 110.3 73.2144 109.344C73.6925 109.822 74.1705 110.778 75.1267 111.256C76.5609 112.212 77.995 112.691 79.4292 113.169C79.9073 113.169 81.8196 113.647 83.7318 114.125C85.166 114.603 86.1222 115.081 87.5564 115.559C88.0344 115.559 88.0344 115.559 88.5125 116.037C88.0344 115.559 88.0344 115.081 87.5564 115.081C85.166 112.212 82.2976 109.822 78.9512 107.91C76.0828 105.52 74.6486 102.173 74.1705 98.8266C74.6486 99.3047 75.1267 99.7827 75.6047 99.7827C76.0828 100.261 76.5609 100.739 77.517 100.739C78.4731 101.217 78.9512 100.739 79.4292 99.7827C79.4292 99.3047 79.4292 98.3486 79.4292 97.8705C78.9512 96.9144 78.4731 95.9582 77.517 95.0021C75.1267 92.6118 74.1705 90.2214 73.6925 87.8311C72.7363 85.9188 72.7363 83.5285 72.7363 81.6163C72.7363 79.704 73.2144 77.3137 73.6925 75.4014L74.1705 74.9233C74.1705 75.8795 74.1705 76.3575 74.1705 77.3137C74.6486 78.7479 75.6047 80.1821 76.5609 81.6163C79.4292 84.4847 81.8196 87.353 84.688 90.2214C90.4248 96.4363 96.1615 103.129 102.376 109.344C107.635 115.081 112.894 120.818 118.631 127.032C119.109 127.511 119.109 127.511 119.587 127.989C119.587 127.511 120.065 127.511 120.065 127.032C120.543 125.12 121.021 123.208 121.499 121.774C121.977 119.383 121.499 117.949 119.109 117.471C119.109 117.471 119.109 117.471 118.631 117.471C119.109 116.515 120.065 116.037 121.021 116.515C121.499 116.515 121.977 116.993 122.455 117.471C122.933 117.949 123.411 117.949 124.367 117.949C125.324 117.949 126.28 118.427 126.758 118.905C127.714 119.861 128.67 121.296 129.626 122.73C129.148 122.73 128.67 122.252 128.67 122.252C128.192 122.252 127.236 122.73 127.236 123.208C127.714 125.12 128.192 127.032 128.67 128.945C129.148 128.945 129.148 128.467 129.626 128.467C131.538 126.554 133.451 124.164 135.363 122.252C138.231 119.383 140.622 116.037 143.49 113.169C146.836 109.822 149.705 105.998 153.051 102.651C155.92 99.3047 158.788 96.4363 161.657 93.0898C164.047 90.2214 166.437 87.8311 168.827 84.9627C170.74 83.0505 172.174 80.1821 172.652 77.7917C172.174 77.3137 172.174 76.3575 172.652 75.4014Z" fill="#FF6A14"/>
<path d="M83.2552 132.769C85.1675 134.203 87.5578 136.115 89.4701 137.549C90.9043 147.11 95.2069 154.76 102.856 160.496C109.549 165.755 117.198 168.145 125.325 167.667C141.579 166.711 155.921 154.76 158.312 136.593C160.224 135.159 162.136 133.247 164.526 131.812C164.526 138.027 163.57 143.286 161.18 148.545C158.79 153.803 155.443 158.584 151.619 162.409C137.755 175.316 117.676 176.272 103.334 167.667C89.4701 159.54 82.7772 145.198 83.2552 132.769Z" fill="#FF6A14"/>
<path d="M150.182 101.218C148.748 102.652 147.792 104.086 146.358 105.998C139.665 100.74 132.494 97.8712 124.367 97.8712C116.24 97.8712 108.591 100.74 101.898 105.52C100.464 104.086 99.5074 102.652 98.0732 100.74C104.766 95.4809 112.415 92.1345 121.02 91.6564C132.016 91.1783 141.577 94.5248 150.182 101.218Z" fill="#FF6A14"/>
</svg>
