<svg width="248" height="248" viewBox="0 0 248 248" fill="none" xmlns="http://www.w3.org/2000/svg">
<path d="M83.1698 102.375L70.751 80.833H95.8934L83.1698 102.375Z" fill="#95C832"/>
<path d="M96.8846 86.8254L85.5323 106.319L93.456 119.821L97.875 112.312H118.446L126.446 98.4308H106.027L108.237 94.5623H128.808L136.808 80.833H119.513H105.57C101.379 81.8255 99.4648 83.123 96.8846 86.8254Z" fill="#95C832"/>
<path d="M108.465 145.612C109.379 148.797 124.236 172.767 124.236 172.767L154.94 119.973L139.169 119.897L124.236 145.46L121.95 141.515L149.454 94.6382H153.95L141.226 116.18H157.226L177.797 80.833H146.102C142.41 81.7409 140.697 82.9134 138.255 86.1427L120.884 115.725L113.493 128.469C113.493 128.469 109.074 136.205 108.541 137.191C108.008 138.177 107.55 142.425 108.465 145.612Z" fill="#95C832"/>
</svg>
