<svg width="248" height="248" viewBox="0 0 248 248" fill="none" xmlns="http://www.w3.org/2000/svg">
<path d="M100.978 173.377C100.978 168.585 100.978 164.272 100.978 159.96C91.8739 160.918 83.7278 162.355 74.6233 163.314C74.6233 162.355 74.6233 161.876 74.6233 160.918C75.5817 146.542 76.0608 132.646 76.54 118.75C76.54 114.437 77.0192 110.125 77.0192 105.812C76.54 100.062 75.5817 93.8323 75.1025 88.0821C75.1025 87.1237 75.1025 85.6861 75.1025 84.2486C83.7278 84.2486 92.3531 84.2486 101.458 84.2486C101.458 80.8943 101.458 78.4984 101.458 75.6233C116.312 75.6233 131.167 75.6233 146.022 75.6233C146.022 78.4984 145.542 81.3735 145.542 84.2486C154.647 84.2486 163.272 84.2486 172.377 84.2486C171.898 88.0821 171.898 91.9155 170.939 95.2698C169.502 103.416 169.981 111.562 170.46 119.708C170.939 129.771 171.418 139.834 171.898 150.376C171.898 153.251 172.377 155.647 172.377 158.522C158.001 157.564 143.626 157.084 129.25 156.126C129.25 159.96 129.25 163.793 129.25 168.106C119.667 170.022 110.562 171.46 100.978 173.377ZM124.938 98.6241C129.729 98.6241 134.521 98.6241 139.313 98.6241C139.792 91.9155 140.271 85.6861 141.23 79.4568C128.771 79.4568 117.271 79.4568 105.291 79.4568C105.291 109.166 105.291 138.396 105.291 168.106C112 167.147 118.229 165.71 124.938 164.751C124.938 163.793 124.938 162.835 124.938 162.356C124.938 153.73 124.938 145.105 124.458 136.48C124.458 135.042 124.458 133.604 124.938 132.167C129.25 132.167 133.084 132.167 137.396 132.167C137.396 125.938 137.396 119.708 137.396 113.479C133.563 113 129.25 113.958 125.417 113C124.938 108.208 124.938 103.416 124.938 98.6241Z" fill="#F6FF1A"/>
</svg>
