<svg width="248" height="248" viewBox="0 0 248 248" fill="none" xmlns="http://www.w3.org/2000/svg">
<path d="M164.583 107.126H174.053V141.887H163.065V109.833L164.583 107.126ZM190.948 107.126V141.861H200.475L201.939 139.215V107.126H190.948ZM177.005 141.887H187.994V107.126H177.005V141.887Z" fill="#D80000"/>
<path fill-rule="evenodd" clip-rule="evenodd" d="M97.0722 133.982L108.121 123.18V107.113H95.5001L77.598 125.391L59.6776 107.132H47.0615V141.891H58.1013L58.1131 123.134H59.8766L77.5873 140.431L95.3023 123.11H97.0657L97.0722 133.982ZM147.082 107.143L147.07 125.901H145.307L127.588 108.575L97.0593 138.35V141.884H109.678L127.6 123.62L145.504 141.904H158.126V107.143H147.082Z" fill="#D80000"/>
</svg>
