<svg width="248" height="248" viewBox="0 0 248 248" fill="none" xmlns="http://www.w3.org/2000/svg">
<path d="M123.927 164.512C146.645 164.512 165.062 146.205 165.062 123.622C165.062 101.039 146.645 82.7321 123.927 82.7321C101.209 82.7321 82.792 101.039 82.792 123.622C82.792 146.205 101.209 164.512 123.927 164.512Z" fill="#1A1C39"/>
<path d="M175.419 123.622C175.419 113.327 172.187 103.177 166.408 94.561V82.0506C166.408 81.7099 166.066 81.3691 165.723 81.3691H153.138C135.631 69.3699 112.517 69.3699 95.0102 81.3691H82.4494C82.278 81.3691 82.1066 81.3691 81.9352 81.5395C81.7638 81.7099 81.7638 81.8803 81.7638 82.0506V94.3906C69.5213 111.964 69.5213 135.11 81.7638 152.683V165.023C81.7638 165.364 82.1066 165.705 82.4494 165.705H95.0347C112.713 177.704 135.827 177.534 153.505 165.534H165.919C166.262 165.534 166.604 165.194 166.604 164.682V152.342C172.358 144.067 175.419 133.942 175.419 123.622ZM79.3887 123.622C79.3887 99.1124 99.2706 79.349 123.927 79.349C148.583 79.349 168.465 99.1124 168.465 123.622C168.465 148.132 148.583 167.895 123.927 167.895C99.2706 167.895 79.3887 148.132 79.3887 123.622Z" fill="#F4BF2A"/>
<path d="M94.3485 99.6236H111.17C110.827 101.473 110.656 103.348 110.656 105.368C111.341 112.791 116.263 133.406 116.263 133.406L124.245 101.327L132.423 132.749C132.423 132.749 137.344 105.027 137.344 103.177C137.173 101.814 136.487 100.475 135.312 99.6236H153.161C150.786 101.814 149.072 104.516 148.069 107.729C146.551 113.813 141.09 144.554 141.09 146.428C141.262 148.448 141.947 150.322 143.123 152.002H126.473C126.816 150.493 126.987 148.959 126.987 147.45C126.987 144.578 124.441 131.24 124.441 131.24C124.441 131.24 121.037 145.089 121.037 147.621C121.037 149.13 121.38 150.663 122.066 152.002H105.244C105.244 152.002 108.476 149.641 108.476 147.45C108.134 141.195 99.2945 108.58 98.6089 106.049C98.0702 103.518 96.5522 101.157 94.3485 99.6236Z" fill="#F4BF2A"/>
</svg>
