<svg width="356" height="877" viewBox="0 0 356 877" fill="none" xmlns="http://www.w3.org/2000/svg">
<g clip-path="url(#clip0_2272_8536)">
<g filter="url(#filter0_b_2272_8536)">
<rect x="279.864" y="227.459" width="67.9156" height="67.9156" rx="33.9578" transform="rotate(30 279.864 227.459)" fill="#FBBE7E"/>
<path fill-rule="evenodd" clip-rule="evenodd" d="M298.882 258.927C298.731 259.037 298.601 259.18 298.501 259.352L297.674 260.785C293.903 258.97 289.065 259.444 286.75 263.453C284.248 267.787 286.44 271.142 289.752 274.507L285.381 282.078C284.051 281.178 283.031 279.888 282.461 278.385C282.277 277.748 281.863 277.202 281.3 276.852C280.804 276.566 280.215 276.488 279.661 276.636C279.108 276.784 278.636 277.146 278.35 277.642C278.175 278.004 278.085 278.401 278.085 278.803C278.086 279.205 278.178 279.601 278.353 279.962C279.404 282.303 281.164 284.253 283.384 285.536L282.581 286.927C282.199 287.589 282.425 288.436 283.088 288.818C283.75 289.2 284.596 288.974 284.979 288.311L285.79 286.906C289.454 288.737 294.112 287.998 296.649 283.603C299.178 279.223 296.745 275.6 294.048 272.602L298.097 265.589C298.951 266.184 299.658 266.97 300.16 267.887C300.433 268.447 300.838 268.933 301.34 269.303C301.576 269.442 301.837 269.531 302.107 269.566C302.378 269.602 302.654 269.582 302.917 269.509C303.18 269.435 303.425 269.31 303.639 269.139C303.852 268.969 304.03 268.758 304.16 268.517C304.336 268.172 304.422 267.786 304.409 267.398C304.395 267.01 304.283 266.631 304.082 266.299C303.127 264.589 301.758 263.15 300.106 262.11L300.899 260.736C301.281 260.074 301.055 259.228 300.392 258.845C300.335 258.812 300.276 258.784 300.216 258.759C300.205 258.753 300.193 258.746 300.182 258.74C300.053 258.664 299.91 258.617 299.761 258.601C299.613 258.585 299.462 258.601 299.321 258.648C299.179 258.694 299.048 258.77 298.938 258.871C298.919 258.889 298.9 258.908 298.882 258.927ZM287.809 283.409L291.727 276.624C292.939 278.132 293.561 279.677 292.501 281.512C292.279 281.971 291.967 282.38 291.583 282.715C291.199 283.05 290.751 283.303 290.266 283.459C289.781 283.616 289.269 283.672 288.762 283.625C288.436 283.595 288.115 283.522 287.809 283.409ZM295.717 264.175L292.039 270.545C290.649 269.049 289.915 267.441 290.975 265.605C291.202 265.197 291.508 264.837 291.874 264.547C292.24 264.257 292.66 264.041 293.109 263.913C293.559 263.785 294.029 263.747 294.493 263.801C294.921 263.851 295.335 263.977 295.717 264.175Z" fill="#000223"/>
</g>
</g>
<rect x="6" width="343" height="264" rx="16" fill="#000223"/>
<rect x="6" width="343" height="264" rx="16" fill="url(#paint0_radial_2272_8536)"/>
<rect x="6.5" y="0.5" width="342" height="263" rx="15.5" stroke="white" stroke-opacity="0.15"/>
<rect x="6" y="637" width="343" height="240" rx="16" fill="white" fill-opacity="0.1"/>
<rect x="6" y="637" width="343" height="240" rx="16" fill="#000223"/>
<rect x="6" y="637" width="343" height="240" rx="16" fill="url(#paint1_radial_2272_8536)" fill-opacity="0.52"/>
<rect x="6.5" y="637.5" width="342" height="239" rx="15.5" stroke="white" stroke-opacity="0.15"/>
<g filter="url(#filter1_f_2272_8536)">
<circle cx="177.972" cy="447.302" r="115.972" fill="url(#paint2_radial_2272_8536)"/>
</g>
<g filter="url(#filter2_b_2272_8536)">
<path d="M178.151 581L83.8779 543.911V533.754L178.151 570.842V581Z" fill="url(#paint3_linear_2272_8536)"/>
</g>
<g filter="url(#filter3_b_2272_8536)">
<path d="M178.21 570.866L83.8779 533.754L178.121 496.673L272.453 533.785L178.21 570.866Z" fill="url(#paint4_linear_2272_8536)" fill-opacity="0.5"/>
</g>
<g filter="url(#filter4_b_2272_8536)">
<path d="M178.15 581L272.419 543.911V533.754L178.15 570.842V581Z" fill="url(#paint5_linear_2272_8536)"/>
</g>
<path d="M178.109 570.81L83.8779 533.737V368.697L178.109 405.769V570.81Z" fill="url(#paint6_linear_2272_8536)"/>
<path d="M178.109 570.81L272.336 533.737V368.697L178.109 405.769V570.81Z" fill="url(#paint7_linear_2272_8536)"/>
<path d="M84.2656 368.891L84.2656 534.62" stroke="url(#paint8_linear_2272_8536)" stroke-width="0.863333"/>
<path d="M272.066 369.278L272.066 535.007" stroke="url(#paint9_linear_2272_8536)" stroke-width="0.863333"/>
<g filter="url(#filter5_b_2272_8536)">
<path d="M178.151 406.328L83.8779 369.239V359.082L178.151 396.17V406.328Z" fill="url(#paint10_linear_2272_8536)"/>
</g>
<path d="M178.21 396.193L83.8779 359.081L178.121 322L272.453 359.112L178.21 396.193Z" fill="url(#paint11_linear_2272_8536)"/>
<g filter="url(#filter6_b_2272_8536)">
<path d="M178.15 406.328L272.419 369.239V359.082L178.15 396.17V406.328Z" fill="url(#paint12_linear_2272_8536)"/>
</g>
<g filter="url(#filter7_f_2272_8536)">
<path fill-rule="evenodd" clip-rule="evenodd" d="M190.607 416.603L178.002 412.524C177.755 412.444 177.49 412.58 177.41 412.827L177.139 413.663C177.059 413.91 177.195 414.176 177.442 414.256L177.903 414.405L177.353 416.414L176.801 416.235C176.554 416.155 176.289 416.291 176.209 416.538L175.938 417.374C175.858 417.621 175.994 417.887 176.241 417.967L176.872 418.171L175.67 422.56C170.8 422.146 161.883 422.331 153.185 427.791C146.927 431.722 143.359 436.763 141.569 439.776C145.661 437.989 153.241 435.38 162.731 436.218C166.057 436.51 168.989 437.173 171.46 437.938L170.063 443.041L169.738 442.935C169.519 442.865 169.284 442.985 169.214 443.203L168.91 444.142C168.839 444.361 168.959 444.596 169.178 444.667L169.582 444.798L169.146 446.391L168.67 446.237C168.451 446.166 168.216 446.286 168.145 446.505L167.842 447.444C167.771 447.663 167.891 447.898 168.11 447.968L168.576 448.119L151.768 500.063C150.938 500.333 150.266 500.991 149.987 501.854L139.569 534.053C139.261 535.003 139.486 536.036 140.149 536.778C140.945 537.667 142.212 538.737 144.062 539.308C145.815 539.852 147.382 539.727 148.504 539.478C149.472 539.265 150.253 538.557 150.558 537.614L150.561 537.615L160.981 505.414C161.26 504.549 161.098 503.627 160.586 502.92L177.395 450.973L177.853 451.121C178.072 451.192 178.306 451.072 178.377 450.853L178.681 449.914C178.752 449.695 178.632 449.46 178.413 449.39L177.93 449.233L177.932 449.22L178.508 447.686L178.921 447.819C179.14 447.89 179.375 447.77 179.445 447.551L179.749 446.612C179.82 446.394 179.7 446.159 179.481 446.088L179.148 445.98L180.889 441.343C184.67 444.138 191.312 450.312 193.535 460.6C196.383 473.774 189.843 483.76 188.697 485.449C189.085 487.54 190.538 493.762 196.111 497.987C197.961 499.39 199.823 500.231 201.353 500.749C212.411 488.741 231.458 464.099 228.706 434.354C228.488 431.989 228.131 429.557 227.6 427.057C220.994 428.78 209.649 430.689 196.533 427.411C193.095 426.553 190.011 425.456 187.293 424.283L188.211 421.84L188.845 422.045C189.093 422.125 189.358 421.99 189.438 421.742L189.708 420.906C189.788 420.659 189.653 420.394 189.406 420.314L188.851 420.134L189.583 418.184L190.047 418.334C190.294 418.414 190.559 418.278 190.639 418.031L190.91 417.195C190.99 416.948 190.854 416.683 190.607 416.603Z" fill="#FBBE7E"/>
</g>
<g filter="url(#filter8_b_2272_8536)">
<path d="M141.569 439.775C143.359 436.762 146.928 431.721 153.186 427.79C164.074 420.955 175.305 422.386 178.511 422.911C176.899 428.172 175.285 433.427 173.672 438.688C170.812 437.63 167.114 436.602 162.732 436.217C153.242 435.379 145.661 437.988 141.569 439.775Z" fill="#FBBE7E"/>
<g filter="url(#filter9_b_2272_8536)">
<path d="M151.061 434.09C152.997 432.007 154.47 430.926 157.644 429.297C163.664 426.206 170.185 426.516 172.143 426.787C171.564 429.222 170.421 431.315 169.841 433.75C168.051 433.233 165.981 432.784 163.452 432.588C158.593 432.211 153.381 433.292 151.061 434.09Z" fill="white" fill-opacity="0.2"/>
</g>
<path d="M184.453 422.965C187.797 424.617 191.835 426.236 196.535 427.409C209.651 430.686 220.996 428.778 227.602 427.054C228.133 429.554 228.49 431.987 228.708 434.351C231.46 464.096 212.413 488.739 201.355 500.746C199.825 500.228 197.963 499.387 196.113 497.984C190.54 493.759 189.087 487.537 188.699 485.446C189.845 483.758 196.385 473.771 193.537 460.598C190.627 447.13 180.145 440.713 178.42 439.696C180.431 434.121 182.445 428.546 184.455 422.97L184.453 422.965Z" fill="#FBBE7E"/>
<g filter="url(#filter10_b_2272_8536)">
<path d="M189.65 430.121C192.703 431.758 197.195 433.706 202.894 434.696C211.326 436.163 218.29 434.815 222.239 433.726C222.427 436.583 222.456 439.571 222.279 442.676C221 465.015 209.653 482.022 201.438 491.832C200.843 491.721 198.629 490.788 196.947 488.734C195.241 486.657 195.223 484.818 195.234 484.219C196.554 482.08 202.467 471.993 199.697 458.905C197.222 447.228 188.91 440.333 186.686 438.59C187.46 436.653 188.622 432.975 189.662 430.121L189.65 430.121Z" fill="white" fill-opacity="0.2"/>
</g>
<g filter="url(#filter11_b_2272_8536)">
<path fill-rule="evenodd" clip-rule="evenodd" d="M169.125 446.467L178.325 412.859L188.431 416.131L190.144 416.687L177.932 449.217C177.917 449.324 177.893 449.431 177.858 449.537L151.018 532.487C150.697 533.479 149.632 534.024 148.639 533.703L143.415 532.012C142.422 531.691 141.878 530.626 142.199 529.633L169.04 446.684C169.064 446.609 169.092 446.536 169.125 446.467Z" fill="url(#paint13_linear_2272_8536)"/>
</g>
<path d="M150.56 537.612C150.255 538.555 149.474 539.263 148.506 539.475C147.384 539.725 145.817 539.849 144.064 539.306C142.214 538.735 140.947 537.665 140.151 536.776C139.488 536.033 139.263 535 139.571 534.05L149.989 501.852C150.355 500.718 151.4 499.94 152.589 499.926C153.778 499.912 155.215 500.058 156.798 500.617C158.108 501.078 159.163 501.705 159.981 502.306C160.948 503.019 161.352 504.266 160.983 505.411L150.563 537.613L150.56 537.612Z" fill="url(#paint14_radial_2272_8536)"/>
<path d="M190.608 416.6L178.003 412.522C177.756 412.442 177.491 412.577 177.411 412.824L177.14 413.661C177.06 413.908 177.196 414.173 177.443 414.253L190.047 418.332C190.295 418.412 190.56 418.276 190.64 418.029L190.91 417.193C190.99 416.945 190.855 416.68 190.608 416.6Z" fill="url(#paint15_linear_2272_8536)"/>
<path d="M179.483 446.087L169.74 442.934C169.521 442.863 169.286 442.983 169.216 443.202L168.912 444.141C168.841 444.36 168.961 444.595 169.18 444.665L178.923 447.818C179.142 447.889 179.376 447.769 179.447 447.55L179.751 446.611C179.822 446.392 179.702 446.157 179.483 446.087Z" fill="url(#paint16_linear_2272_8536)"/>
<path d="M178.415 449.388L168.672 446.235C168.453 446.165 168.218 446.285 168.147 446.503L167.843 447.442C167.773 447.661 167.893 447.896 168.111 447.967L177.855 451.119C178.073 451.19 178.308 451.07 178.379 450.851L178.683 449.912C178.754 449.694 178.634 449.459 178.415 449.388Z" fill="url(#paint17_linear_2272_8536)"/>
<path d="M189.407 420.311L176.802 416.233C176.555 416.153 176.29 416.288 176.21 416.535L175.939 417.372C175.859 417.619 175.995 417.884 176.242 417.964L188.846 422.043C189.093 422.123 189.359 421.987 189.439 421.74L189.709 420.904C189.789 420.656 189.654 420.391 189.407 420.311Z" fill="url(#paint18_linear_2272_8536)"/>
</g>
<path d="M177.973 406.063L177.973 572.18" stroke="url(#paint19_linear_2272_8536)" stroke-width="0.863333"/>
<g filter="url(#filter12_b_2272_8536)">
<path d="M178.457 380.543L133.829 362.985V355.079L178.457 372.636V380.543Z" fill="url(#paint20_linear_2272_8536)"/>
</g>
<g filter="url(#filter13_b_2272_8536)">
<path d="M178.485 372.647L133.829 355.079L178.443 337.525L223.098 355.094L178.485 372.647Z" fill="url(#paint21_linear_2272_8536)"/>
</g>
<g filter="url(#filter14_b_2272_8536)">
<path d="M178.457 380.544L223.083 362.986V355.08L178.457 372.637V380.544Z" fill="url(#paint22_linear_2272_8536)"/>
</g>
<g filter="url(#filter15_b_2272_8536)">
<rect x="34" y="567.244" width="71.4348" height="71.4348" rx="35.7174" transform="rotate(15 34 567.244)" fill="url(#paint23_linear_2272_8536)"/>
<rect x="34" y="567.244" width="71.4348" height="71.4348" rx="35.7174" transform="rotate(15 34 567.244)" stroke="#FF6E75" stroke-width="1.081" stroke-miterlimit="10"/>
<g clip-path="url(#clip1_2272_8536)">
<path d="M59.8039 597.166L58.249 601.115C57.9361 601.025 57.6061 600.942 57.2587 600.872C54.562 600.328 52.3033 600.836 51.072 601.219C51.6811 600.412 52.866 599.078 54.7869 598.149C56.626 597.261 58.4155 597.094 59.8039 597.166Z" fill="white"/>
<path d="M66.5275 596.424L66.4236 596.652C66.3932 596.721 66.2996 596.745 66.2141 596.706L66.0561 596.637L65.3284 598.023L65.3208 598.019L62.7577 602.933C62.7577 602.933 62.7569 602.932 62.7556 602.931L61.6286 605.079C61.6225 605.106 61.6159 605.135 61.6026 605.162L55.5888 618.441C55.7496 618.676 55.7906 618.949 55.6857 619.18L51.6763 628.032C51.5589 628.292 51.2796 628.453 50.9414 628.46C50.5488 628.467 50.0016 628.41 49.3992 628.147C48.7648 627.871 48.3369 627.482 48.0705 627.172C47.8502 626.916 47.7847 626.599 47.9025 626.339L51.9115 617.487C52.0196 617.245 52.2681 617.093 52.5672 617.065L58.5734 603.802C58.5805 603.786 58.5927 603.772 58.6024 603.757L58.8896 603.01L58.9022 603.016L61.1615 597.1C61.1615 597.1 61.1657 597.101 61.1683 597.102L62.0432 594.835L61.8852 594.765C61.7997 594.726 61.7561 594.641 61.7865 594.572L61.8904 594.343C61.9208 594.274 62.0157 594.251 62.1003 594.288L66.43 596.231C66.5142 596.269 66.5592 596.355 66.5275 596.424Z" fill="white"/>
<path d="M66.6233 620.476C66.1995 620.278 65.6934 619.977 65.206 619.515C63.7402 618.126 63.5227 616.293 63.4767 615.68C63.8594 615.232 66.0543 612.574 65.6558 608.702C65.4462 606.661 64.599 605.095 63.7649 604.009L66.4021 598.79C66.7727 598.959 67.1624 599.121 67.5725 599.273C71.2328 600.631 74.5494 600.445 76.5003 600.161C76.5721 600.895 76.5984 601.605 76.586 602.289C76.4296 610.914 70.179 617.381 66.6233 620.476Z" fill="white"/>
</g>
</g>
<path d="M175 264.244V280.077C175 292.872 164.628 303.244 151.833 303.244L57.1668 303.244C44.3721 303.244 34 313.616 34 326.41L34 418.577C34 431.372 44.3721 441.744 57.1668 441.744H84" stroke="#FBBE7E" stroke-width="1.54445"/>
<rect x="13" y="354.244" width="44.0169" height="44.0169" rx="22.0085" fill="#FBBE7E"/>
<g clip-path="url(#clip2_2272_8536)">
<path d="M47.2748 379.618L46.4281 379.891C46.3341 379.921 46.2377 379.935 46.1436 379.935C45.7498 379.935 45.384 379.683 45.2562 379.287L43.1052 372.587C42.9484 372.095 43.2178 371.57 43.7091 371.414L44.5558 371.142C44.6499 371.112 44.7463 371.096 44.8404 371.096C45.2341 371.096 45.6 371.348 45.7278 371.745L47.8776 378.446C48.0356 378.936 47.765 379.462 47.2748 379.618Z" fill="black"/>
<path d="M33.9424 372.362C33.4581 372.359 32.9737 372.356 32.4894 372.353C32.3233 372.528 32.235 372.639 32.235 372.639C31.8634 373.103 31.1305 374.023 31.2931 374.826C31.3163 374.944 31.393 375.236 31.6485 375.446C31.861 375.621 32.1177 375.67 32.3361 375.67C32.5382 375.67 32.7078 375.628 32.7809 375.609C33.1061 375.517 33.1491 375.386 33.7217 374.949C34.2072 374.578 34.6521 374.25 35.227 374.065C35.4314 374 35.7357 373.929 36.1341 373.929C36.1585 373.929 36.184 373.929 36.2096 373.929C35.5975 373.284 34.8274 372.742 33.9412 372.361L33.9424 372.362ZM42.0564 381.293L41.9124 381.15L37.2758 376.556L35.7891 375.085C35.7148 375.099 35.6416 375.116 35.5719 375.139C35.1863 375.264 34.86 375.498 34.4058 375.845C34.2351 375.976 34.1213 376.073 34.0191 376.159C33.7821 376.361 33.537 376.569 33.0841 376.696C32.9157 376.743 32.6485 376.799 32.3361 376.799C31.7995 376.799 31.3152 376.633 30.9319 376.318C30.5544 376.007 30.2907 375.559 30.1885 375.052C29.9737 373.991 30.559 372.998 31.0364 372.346C29.9748 372.34 28.9121 372.333 27.8517 372.327L25.9004 378.713C26.6995 379.583 27.5915 380.486 28.5834 381.397C29.1943 381.961 29.796 382.483 30.3848 382.971C31.5625 384.009 32.7391 385.048 33.918 386.085C34.0086 386.176 34.1108 386.244 34.2212 386.291C34.3803 386.374 34.5545 386.416 34.7276 386.416C35.0342 386.416 35.3373 386.289 35.5557 386.043C35.8913 385.662 35.9146 385.116 35.6498 384.712L35.9343 384.99C36.1596 385.21 36.4523 385.321 36.7439 385.321C36.8321 385.321 36.9192 385.309 37.0064 385.289C37.1968 385.255 37.3792 385.163 37.5255 385.016C37.5313 385.012 37.5348 385.006 37.5395 385.001C37.5499 384.991 37.5604 384.983 37.5708 384.972C37.9924 384.543 38.0087 383.867 37.6266 383.416L38.2096 383.986C38.4338 384.207 38.7265 384.317 39.018 384.317C39.2526 384.317 39.4861 384.245 39.6847 384.105C39.759 384.063 39.8276 384.012 39.8903 383.948C40.0842 383.754 40.1795 383.502 40.1795 383.249C40.1795 383.217 40.1795 383.186 40.1748 383.155C40.1725 382.857 40.0564 382.559 39.8264 382.333L40.2759 382.756C40.5012 382.977 40.7939 383.087 41.0854 383.087C41.377 383.087 41.6859 382.971 41.9124 382.739C42.3003 382.344 42.3456 381.739 42.0529 381.294L42.0564 381.293Z" fill="black"/>
<path d="M44.0889 379.388C44.0018 379.543 43.8055 379.848 43.4338 380.08C43.1446 380.261 42.8694 380.324 42.7044 380.349C40.5429 378.209 38.3838 376.069 36.2234 373.929H36.2095C36.1839 373.929 36.1584 373.929 36.134 373.929C35.7368 373.929 35.4325 374 35.2269 374.065C34.652 374.249 34.2071 374.578 33.7216 374.949C33.149 375.385 33.1072 375.518 32.7808 375.608C32.7077 375.628 32.5381 375.67 32.336 375.67C32.1176 375.67 31.861 375.621 31.6484 375.446C31.3929 375.235 31.3162 374.944 31.293 374.825C31.1292 374.023 31.8633 373.104 32.2349 372.638C32.2349 372.638 32.3232 372.528 32.4893 372.353C32.883 371.938 33.7193 371.161 34.8668 370.631C35.1781 370.489 35.4627 370.387 35.8169 370.355C35.8924 370.348 35.9667 370.344 36.0399 370.344C36.5626 370.344 36.9854 370.507 37.2351 370.626C38.8274 371.372 40.4198 372.118 42.0122 372.864L44.0901 379.387L44.0889 379.388Z" fill="black"/>
<path d="M26.8079 371.888L24.7521 378.619C24.629 379.02 24.2596 379.279 23.8601 379.279C23.7695 379.279 23.6789 379.265 23.5871 379.238L22.7369 378.978C22.2445 378.827 21.968 378.305 22.1179 377.813L24.1748 371.085C24.2979 370.683 24.6673 370.425 25.0657 370.425C25.1574 370.425 25.248 370.438 25.3398 370.465L26.19 370.726C26.6824 370.875 26.9589 371.397 26.8079 371.889V371.888Z" fill="black"/>
</g>
<path d="M170.881 637.244C170.881 634.969 172.725 633.125 175 633.125C177.275 633.125 179.119 634.969 179.119 637.244C179.119 639.518 177.275 641.362 175 641.362C172.725 641.362 170.881 639.518 170.881 637.244ZM174.228 637.244L174.228 621.41L175.772 621.41L175.772 637.244L174.228 637.244ZM198.167 597.471L292.833 597.471L292.833 599.016L198.167 599.016L198.167 597.471ZM315.228 575.077L315.228 465.41L316.772 465.41L316.772 575.077L315.228 575.077ZM292.833 443.016L272.5 443.016L272.5 441.471L292.833 441.471L292.833 443.016ZM315.228 465.41C315.228 453.042 305.201 443.016 292.833 443.016L292.833 441.471C306.054 441.471 316.772 452.189 316.772 465.41L315.228 465.41ZM292.833 597.471C305.201 597.471 315.228 587.445 315.228 575.077L316.772 575.077C316.772 588.298 306.054 599.016 292.833 599.016L292.833 597.471ZM174.228 621.41C174.228 608.189 184.946 597.471 198.167 597.471L198.167 599.016C185.799 599.016 175.772 609.042 175.772 621.41L174.228 621.41Z" fill="url(#paint24_linear_2272_8536)"/>
<rect width="44.0169" height="44.0169" rx="22.0085" transform="matrix(-1 8.74228e-08 8.74228e-08 1 338.017 502.244)" fill="url(#paint25_linear_2272_8536)"/>
<path d="M315.391 535.665L314.992 535.566C304.526 531.302 305.424 517.816 305.424 517.618L305.523 516.726H306.42C311.005 516.726 314.793 513.949 314.793 513.949L315.391 513.552L315.99 513.949C315.99 513.949 319.777 516.726 324.363 516.726H325.26L325.359 517.618C325.359 517.717 326.29 531.401 315.824 535.566L315.392 535.665H315.391ZM307.417 518.709C307.417 521.486 308.015 530.311 315.391 533.582C322.767 530.409 323.364 521.584 323.364 518.709C319.677 518.412 316.587 516.726 315.391 515.932C314.195 516.726 311.105 518.411 307.417 518.709Z" fill="white"/>
<path d="M315.39 532.003C308.512 529.1 309.137 519.666 309.137 519.666C312.576 519.666 315.39 517.489 315.39 517.489C315.39 517.489 318.204 519.666 321.643 519.666C321.643 519.666 322.268 529.101 315.39 532.003Z" fill="white"/>
<defs>
<filter id="filter0_b_2272_8536" x="230.49" y="212.043" width="123.607" height="123.607" filterUnits="userSpaceOnUse" color-interpolation-filters="sRGB">
<feFlood flood-opacity="0" result="BackgroundImageFix"/>
<feGaussianBlur in="BackgroundImageFix" stdDeviation="7.70811"/>
<feComposite in2="SourceAlpha" operator="in" result="effect1_backgroundBlur_2272_8536"/>
<feBlend mode="normal" in="SourceGraphic" in2="effect1_backgroundBlur_2272_8536" result="shape"/>
</filter>
<filter id="filter1_f_2272_8536" x="0.171597" y="269.501" width="355.6" height="355.601" filterUnits="userSpaceOnUse" color-interpolation-filters="sRGB">
<feFlood flood-opacity="0" result="BackgroundImageFix"/>
<feBlend mode="normal" in="SourceGraphic" in2="BackgroundImageFix" result="shape"/>
<feGaussianBlur stdDeviation="30.9142" result="effect1_foregroundBlur_2272_8536"/>
</filter>
<filter id="filter2_b_2272_8536" x="76.7486" y="526.624" width="108.531" height="61.5047" filterUnits="userSpaceOnUse" color-interpolation-filters="sRGB">
<feFlood flood-opacity="0" result="BackgroundImageFix"/>
<feGaussianBlur in="BackgroundImageFix" stdDeviation="3.56466"/>
<feComposite in2="SourceAlpha" operator="in" result="effect1_backgroundBlur_2272_8536"/>
<feBlend mode="normal" in="SourceGraphic" in2="effect1_backgroundBlur_2272_8536" result="shape"/>
</filter>
<filter id="filter3_b_2272_8536" x="76.7264" y="489.521" width="202.878" height="88.496" filterUnits="userSpaceOnUse" color-interpolation-filters="sRGB">
<feFlood flood-opacity="0" result="BackgroundImageFix"/>
<feGaussianBlur in="BackgroundImageFix" stdDeviation="3.57578"/>
<feComposite in2="SourceAlpha" operator="in" result="effect1_backgroundBlur_2272_8536"/>
<feBlend mode="normal" in="SourceGraphic" in2="effect1_backgroundBlur_2272_8536" result="shape"/>
</filter>
<filter id="filter4_b_2272_8536" x="171.021" y="526.624" width="108.527" height="61.5047" filterUnits="userSpaceOnUse" color-interpolation-filters="sRGB">
<feFlood flood-opacity="0" result="BackgroundImageFix"/>
<feGaussianBlur in="BackgroundImageFix" stdDeviation="3.56466"/>
<feComposite in2="SourceAlpha" operator="in" result="effect1_backgroundBlur_2272_8536"/>
<feBlend mode="normal" in="SourceGraphic" in2="effect1_backgroundBlur_2272_8536" result="shape"/>
</filter>
<filter id="filter5_b_2272_8536" x="76.7486" y="351.952" width="108.531" height="61.5047" filterUnits="userSpaceOnUse" color-interpolation-filters="sRGB">
<feFlood flood-opacity="0" result="BackgroundImageFix"/>
<feGaussianBlur in="BackgroundImageFix" stdDeviation="3.56466"/>
<feComposite in2="SourceAlpha" operator="in" result="effect1_backgroundBlur_2272_8536"/>
<feBlend mode="normal" in="SourceGraphic" in2="effect1_backgroundBlur_2272_8536" result="shape"/>
</filter>
<filter id="filter6_b_2272_8536" x="171.021" y="351.952" width="108.527" height="61.5047" filterUnits="userSpaceOnUse" color-interpolation-filters="sRGB">
<feFlood flood-opacity="0" result="BackgroundImageFix"/>
<feGaussianBlur in="BackgroundImageFix" stdDeviation="3.56466"/>
<feComposite in2="SourceAlpha" operator="in" result="effect1_backgroundBlur_2272_8536"/>
<feBlend mode="normal" in="SourceGraphic" in2="effect1_backgroundBlur_2272_8536" result="shape"/>
</filter>
<filter id="filter7_f_2272_8536" x="127.867" y="400.934" width="112.675" height="150.323" filterUnits="userSpaceOnUse" color-interpolation-filters="sRGB">
<feFlood flood-opacity="0" result="BackgroundImageFix"/>
<feBlend mode="normal" in="SourceGraphic" in2="BackgroundImageFix" result="shape"/>
<feGaussianBlur stdDeviation="5.78345" result="effect1_foregroundBlur_2272_8536"/>
</filter>
<filter id="filter8_b_2272_8536" x="132.34" y="405.403" width="103.732" height="141.381" filterUnits="userSpaceOnUse" color-interpolation-filters="sRGB">
<feFlood flood-opacity="0" result="BackgroundImageFix"/>
<feGaussianBlur in="BackgroundImageFix" stdDeviation="3.54785"/>
<feComposite in2="SourceAlpha" operator="in" result="effect1_backgroundBlur_2272_8536"/>
<feBlend mode="normal" in="SourceGraphic" in2="effect1_backgroundBlur_2272_8536" result="shape"/>
</filter>
<filter id="filter9_b_2272_8536" x="143.966" y="419.529" width="35.2734" height="21.656" filterUnits="userSpaceOnUse" color-interpolation-filters="sRGB">
<feFlood flood-opacity="0" result="BackgroundImageFix"/>
<feGaussianBlur in="BackgroundImageFix" stdDeviation="3.54785"/>
<feComposite in2="SourceAlpha" operator="in" result="effect1_backgroundBlur_2272_8536"/>
<feBlend mode="normal" in="SourceGraphic" in2="effect1_backgroundBlur_2272_8536" result="shape"/>
</filter>
<filter id="filter10_b_2272_8536" x="179.59" y="423.025" width="49.9033" height="75.9031" filterUnits="userSpaceOnUse" color-interpolation-filters="sRGB">
<feFlood flood-opacity="0" result="BackgroundImageFix"/>
<feGaussianBlur in="BackgroundImageFix" stdDeviation="3.54785"/>
<feComposite in2="SourceAlpha" operator="in" result="effect1_backgroundBlur_2272_8536"/>
<feBlend mode="normal" in="SourceGraphic" in2="effect1_backgroundBlur_2272_8536" result="shape"/>
</filter>
<filter id="filter11_b_2272_8536" x="135.012" y="405.764" width="62.2285" height="135.127" filterUnits="userSpaceOnUse" color-interpolation-filters="sRGB">
<feFlood flood-opacity="0" result="BackgroundImageFix"/>
<feGaussianBlur in="BackgroundImageFix" stdDeviation="3.54785"/>
<feComposite in2="SourceAlpha" operator="in" result="effect1_backgroundBlur_2272_8536"/>
<feBlend mode="normal" in="SourceGraphic" in2="effect1_backgroundBlur_2272_8536" result="shape"/>
</filter>
<filter id="filter12_b_2272_8536" x="126.7" y="347.95" width="58.8866" height="39.722" filterUnits="userSpaceOnUse" color-interpolation-filters="sRGB">
<feFlood flood-opacity="0" result="BackgroundImageFix"/>
<feGaussianBlur in="BackgroundImageFix" stdDeviation="3.56466"/>
<feComposite in2="SourceAlpha" operator="in" result="effect1_backgroundBlur_2272_8536"/>
<feBlend mode="normal" in="SourceGraphic" in2="effect1_backgroundBlur_2272_8536" result="shape"/>
</filter>
<filter id="filter13_b_2272_8536" x="126.7" y="330.396" width="103.528" height="49.3807" filterUnits="userSpaceOnUse" color-interpolation-filters="sRGB">
<feFlood flood-opacity="0" result="BackgroundImageFix"/>
<feGaussianBlur in="BackgroundImageFix" stdDeviation="3.56466"/>
<feComposite in2="SourceAlpha" operator="in" result="effect1_backgroundBlur_2272_8536"/>
<feBlend mode="normal" in="SourceGraphic" in2="effect1_backgroundBlur_2272_8536" result="shape"/>
</filter>
<filter id="filter14_b_2272_8536" x="171.328" y="347.951" width="58.8846" height="39.722" filterUnits="userSpaceOnUse" color-interpolation-filters="sRGB">
<feFlood flood-opacity="0" result="BackgroundImageFix"/>
<feGaussianBlur in="BackgroundImageFix" stdDeviation="3.56466"/>
<feComposite in2="SourceAlpha" operator="in" result="effect1_backgroundBlur_2272_8536"/>
<feBlend mode="normal" in="SourceGraphic" in2="effect1_backgroundBlur_2272_8536" result="shape"/>
</filter>
<filter id="filter15_b_2272_8536" x="-0.703335" y="551.029" width="119.919" height="119.92" filterUnits="userSpaceOnUse" color-interpolation-filters="sRGB">
<feFlood flood-opacity="0" result="BackgroundImageFix"/>
<feGaussianBlur in="BackgroundImageFix" stdDeviation="8.10753"/>
<feComposite in2="SourceAlpha" operator="in" result="effect1_backgroundBlur_2272_8536"/>
<feBlend mode="normal" in="SourceGraphic" in2="effect1_backgroundBlur_2272_8536" result="shape"/>
</filter>
<radialGradient id="paint0_radial_2272_8536" cx="0" cy="0" r="1" gradientUnits="userSpaceOnUse" gradientTransform="translate(299 335) rotate(-96.5992) scale(317.604 190.691)">
<stop offset="0.169542" stop-color="#935E5D"/>
<stop offset="0.431941" stop-color="#161635"/>
</radialGradient>
<radialGradient id="paint1_radial_2272_8536" cx="0" cy="0" r="1" gradientUnits="userSpaceOnUse" gradientTransform="translate(25.5 487.556) rotate(73.4208) scale(457.347 358.557)">
<stop offset="0.169542" stop-color="#C94C49"/>
<stop offset="0.798534" stop-color="#161635"/>
</radialGradient>
<radialGradient id="paint2_radial_2272_8536" cx="0" cy="0" r="1" gradientUnits="userSpaceOnUse" gradientTransform="translate(177.972 447.302) rotate(89.873) scale(72.3423)">
<stop stop-color="#FBBE7E"/>
<stop offset="0.88" stop-color="#FBBE7E" stop-opacity="0.15"/>
</radialGradient>
<linearGradient id="paint3_linear_2272_8536" x1="111.787" y1="583.911" x2="168.087" y2="489.833" gradientUnits="userSpaceOnUse">
<stop stop-color="#FF6E75"/>
<stop offset="1" stop-color="#FBBE7E"/>
</linearGradient>
<linearGradient id="paint4_linear_2272_8536" x1="96.7723" y1="600.018" x2="137.809" y2="493.299" gradientUnits="userSpaceOnUse">
<stop stop-color="#FF6E75"/>
<stop offset="1" stop-color="#FBBE7E"/>
</linearGradient>
<linearGradient id="paint5_linear_2272_8536" x1="178.1" y1="631.48" x2="208.938" y2="520.663" gradientUnits="userSpaceOnUse">
<stop stop-color="#FF6E75"/>
<stop offset="1" stop-color="#FBBE7E"/>
</linearGradient>
<linearGradient id="paint6_linear_2272_8536" x1="97.2098" y1="368.697" x2="265.867" y2="431.938" gradientUnits="userSpaceOnUse">
<stop stop-color="#FBBE7E" stop-opacity="0.1"/>
<stop offset="1" stop-color="white" stop-opacity="0.4"/>
</linearGradient>
<linearGradient id="paint7_linear_2272_8536" x1="191.441" y1="368.697" x2="360.092" y2="431.933" gradientUnits="userSpaceOnUse">
<stop stop-color="#FBBE7E" stop-opacity="0.1"/>
<stop offset="1" stop-color="white" stop-opacity="0.4"/>
</linearGradient>
<linearGradient id="paint8_linear_2272_8536" x1="84.8751" y1="534.008" x2="90.9948" y2="534.189" gradientUnits="userSpaceOnUse">
<stop stop-color="#FF6E75"/>
<stop offset="1" stop-color="#FBBE7E"/>
</linearGradient>
<linearGradient id="paint9_linear_2272_8536" x1="91.0665" y1="554.174" x2="96.0494" y2="557.313" gradientUnits="userSpaceOnUse">
<stop stop-color="#FF6E75"/>
<stop offset="1" stop-color="#FBBE7E"/>
</linearGradient>
<linearGradient id="paint10_linear_2272_8536" x1="111.787" y1="409.239" x2="243.341" y2="289.959" gradientUnits="userSpaceOnUse">
<stop stop-color="#FF6E75"/>
<stop offset="1" stop-color="#FBBE7E"/>
</linearGradient>
<linearGradient id="paint11_linear_2272_8536" x1="111.37" y1="468.018" x2="112.123" y2="327.908" gradientUnits="userSpaceOnUse">
<stop stop-color="#FF6E75"/>
<stop offset="1" stop-color="#FBBE7E"/>
</linearGradient>
<linearGradient id="paint12_linear_2272_8536" x1="117.685" y1="517.509" x2="196.437" y2="249.304" gradientUnits="userSpaceOnUse">
<stop offset="0.133479" stop-color="#FF6E75"/>
<stop offset="1" stop-color="#FBBE7E"/>
</linearGradient>
<linearGradient id="paint13_linear_2272_8536" x1="142.234" y1="539.709" x2="166.503" y2="545.013" gradientUnits="userSpaceOnUse">
<stop stop-color="#FF6E75"/>
<stop offset="1" stop-color="#FBBE7E"/>
</linearGradient>
<radialGradient id="paint14_radial_2272_8536" cx="0" cy="0" r="1" gradientUnits="userSpaceOnUse" gradientTransform="translate(140.994 541.203) rotate(-87.7543) scale(9.88166 10.7281)">
<stop stop-color="#FF6E75"/>
<stop offset="1" stop-color="#FBBE7E"/>
</radialGradient>
<linearGradient id="paint15_linear_2272_8536" x1="180.957" y1="415.508" x2="182.021" y2="413.071" gradientUnits="userSpaceOnUse">
<stop stop-color="#FF6E75"/>
<stop offset="1" stop-color="#FBBE7E"/>
</linearGradient>
<linearGradient id="paint16_linear_2272_8536" x1="171.868" y1="445.653" x2="172.995" y2="443.253" gradientUnits="userSpaceOnUse">
<stop stop-color="#FF6E75"/>
<stop offset="1" stop-color="#FBBE7E"/>
</linearGradient>
<linearGradient id="paint17_linear_2272_8536" x1="170.8" y1="448.955" x2="171.927" y2="446.555" gradientUnits="userSpaceOnUse">
<stop stop-color="#FF6E75"/>
<stop offset="1" stop-color="#FBBE7E"/>
</linearGradient>
<linearGradient id="paint18_linear_2272_8536" x1="179.756" y1="419.219" x2="180.82" y2="416.782" gradientUnits="userSpaceOnUse">
<stop stop-color="#FF6E75"/>
<stop offset="1" stop-color="#FBBE7E"/>
</linearGradient>
<linearGradient id="paint19_linear_2272_8536" x1="179.973" y1="594.058" x2="184.821" y2="594.083" gradientUnits="userSpaceOnUse">
<stop stop-color="#FD8E79"/>
<stop offset="1" stop-color="#FBBE7E"/>
</linearGradient>
<linearGradient id="paint20_linear_2272_8536" x1="143.51" y1="381.28" x2="168.178" y2="343.683" gradientUnits="userSpaceOnUse">
<stop stop-color="#FF6E75"/>
<stop offset="1" stop-color="#FBBE7E"/>
</linearGradient>
<linearGradient id="paint21_linear_2272_8536" x1="136.54" y1="402.965" x2="136.362" y2="349.264" gradientUnits="userSpaceOnUse">
<stop stop-color="#FF6E75"/>
<stop offset="1" stop-color="#FBBE7E"/>
</linearGradient>
<linearGradient id="paint22_linear_2272_8536" x1="202.754" y1="393.672" x2="203.87" y2="340.346" gradientUnits="userSpaceOnUse">
<stop stop-color="#FF6E75"/>
<stop offset="1" stop-color="#FBBE7E"/>
</linearGradient>
<linearGradient id="paint23_linear_2272_8536" x1="48.4628" y1="591.966" x2="94.6089" y2="664.307" gradientUnits="userSpaceOnUse">
<stop stop-color="#000223"/>
<stop offset="1" stop-color="#FF6E75"/>
</linearGradient>
<linearGradient id="paint24_linear_2272_8536" x1="201.124" y1="637.244" x2="334.27" y2="475.842" gradientUnits="userSpaceOnUse">
<stop stop-color="#F56C8F"/>
<stop offset="1" stop-color="#EF7271"/>
</linearGradient>
<linearGradient id="paint25_linear_2272_8536" x1="8.15521" y1="-3.47623e-07" x2="35.0921" y2="45.1586" gradientUnits="userSpaceOnUse">
<stop stop-color="#F56C8F"/>
<stop offset="1" stop-color="#EF7271"/>
</linearGradient>
<clipPath id="clip0_2272_8536">
<rect width="105" height="106.75" fill="white" transform="translate(353 225.244) rotate(90)"/>
</clipPath>
<clipPath id="clip1_2272_8536">
<rect width="25.9346" height="36.6135" fill="white" transform="translate(55.168 590.674) rotate(23.8044)"/>
</clipPath>
<clipPath id="clip2_2272_8536">
<rect width="25.8462" height="16.0678" fill="white" transform="translate(22.0771 370.346)"/>
</clipPath>
</defs>
</svg>
