<svg width="1300" height="417" viewBox="0 0 1300 417" fill="none" xmlns="http://www.w3.org/2000/svg">
<g filter="url(#filter0_f_2272_8525)">
<circle cx="649.33" cy="204.815" r="129.405" fill="url(#paint0_radial_2272_8525)"/>
</g>
<g filter="url(#filter1_b_2272_8525)">
<path d="M649.53 354L544.337 312.615V301.281L649.53 342.666V354Z" fill="url(#paint1_linear_2272_8525)"/>
</g>
<g filter="url(#filter2_b_2272_8525)">
<path d="M649.596 342.692L544.337 301.281L649.497 259.905L754.756 301.315L649.596 342.692Z" fill="url(#paint2_linear_2272_8525)" fill-opacity="0.5"/>
</g>
<g filter="url(#filter3_b_2272_8525)">
<path d="M649.53 354L754.718 312.615V301.281L649.53 342.666V354Z" fill="url(#paint3_linear_2272_8525)"/>
</g>
<path d="M649.483 342.629L544.337 301.263V117.106L649.483 158.472V342.629Z" fill="url(#paint4_linear_2272_8525)"/>
<path d="M649.483 342.629L754.625 301.263V117.106L649.483 158.472V342.629Z" fill="url(#paint5_linear_2272_8525)"/>
<path d="M544.77 117.322L544.77 302.248" stroke="url(#paint6_linear_2272_8525)" stroke-width="0.963333"/>
<path d="M754.324 117.754L754.324 302.68" stroke="url(#paint7_linear_2272_8525)" stroke-width="0.963333"/>
<g filter="url(#filter4_b_2272_8525)">
<path d="M649.53 159.095L544.337 117.711V106.377L649.53 147.761V159.095Z" fill="url(#paint8_linear_2272_8525)"/>
</g>
<path d="M649.596 147.787L544.337 106.376L649.497 65L754.756 106.411L649.596 147.787Z" fill="url(#paint9_linear_2272_8525)"/>
<g filter="url(#filter5_b_2272_8525)">
<path d="M649.53 159.095L754.718 117.711V106.377L649.53 147.761V159.095Z" fill="url(#paint10_linear_2272_8525)"/>
</g>
<g filter="url(#filter6_f_2272_8525)">
<path fill-rule="evenodd" clip-rule="evenodd" d="M663.429 170.561L649.365 166.01C649.089 165.92 648.793 166.072 648.704 166.347L648.402 167.281C648.312 167.557 648.464 167.852 648.739 167.942L649.253 168.108L648.64 170.349L648.024 170.15C647.749 170.061 647.453 170.212 647.363 170.488L647.061 171.421C646.972 171.697 647.123 171.993 647.399 172.082L648.103 172.31L646.762 177.208C641.328 176.746 631.378 176.953 621.673 183.045C614.69 187.431 610.708 193.056 608.711 196.419C613.277 194.424 621.735 191.513 632.325 192.448C636.036 192.774 639.308 193.513 642.064 194.367L640.506 200.061L640.143 199.943C639.899 199.864 639.637 199.998 639.558 200.242L639.219 201.29C639.14 201.535 639.274 201.797 639.518 201.876L639.969 202.021L639.482 203.799L638.951 203.627C638.707 203.548 638.445 203.682 638.366 203.926L638.027 204.974C637.948 205.218 638.082 205.48 638.326 205.559L638.846 205.728L620.092 263.688C619.166 263.99 618.415 264.723 618.105 265.687L606.479 301.615C606.136 302.675 606.387 303.827 607.127 304.656C608.015 305.648 609.429 306.842 611.493 307.479C613.449 308.086 615.198 307.946 616.449 307.668C617.53 307.431 618.401 306.641 618.741 305.589L618.745 305.59L630.372 269.658C630.683 268.694 630.502 267.665 629.931 266.876L648.686 208.912L649.198 209.077C649.442 209.156 649.704 209.022 649.783 208.778L650.122 207.73C650.201 207.486 650.067 207.224 649.823 207.145L649.284 206.971L649.286 206.955L649.929 205.244L650.39 205.393C650.634 205.472 650.896 205.338 650.975 205.094L651.314 204.046C651.393 203.802 651.259 203.54 651.015 203.461L650.643 203.341L652.585 198.167C656.804 201.285 664.216 208.174 666.696 219.655C669.875 234.354 662.577 245.497 661.298 247.381C661.731 249.714 663.352 256.657 669.571 261.371C671.636 262.937 673.713 263.875 675.421 264.454C687.759 251.055 709.012 223.558 705.941 190.368C705.699 187.73 705.3 185.015 704.708 182.226C697.336 184.149 684.677 186.278 670.041 182.621C666.205 181.664 662.764 180.44 659.732 179.13L660.755 176.404L661.464 176.633C661.74 176.723 662.036 176.571 662.125 176.296L662.427 175.362C662.516 175.087 662.365 174.791 662.089 174.701L661.47 174.501L662.286 172.325L662.804 172.493C663.08 172.582 663.376 172.431 663.465 172.155L663.767 171.222C663.856 170.946 663.705 170.65 663.429 170.561Z" fill="#FBBE7E"/>
</g>
<g filter="url(#filter7_b_2272_8525)">
<path d="M608.712 196.417C610.709 193.055 614.69 187.43 621.674 183.044C633.823 175.417 646.355 177.014 649.933 177.599C648.134 183.469 646.332 189.334 644.533 195.204C641.342 194.023 637.215 192.877 632.325 192.447C621.736 191.511 613.277 194.423 608.712 196.417Z" fill="#FBBE7E"/>
<g filter="url(#filter8_b_2272_8525)">
<path d="M619.303 190.073C621.463 187.749 623.107 186.543 626.648 184.725C633.365 181.276 640.641 181.622 642.827 181.924C642.18 184.641 640.905 186.977 640.258 189.694C638.26 189.118 635.95 188.616 633.129 188.397C627.706 187.977 621.891 189.182 619.303 190.073Z" fill="white" fill-opacity="0.2"/>
</g>
<path d="M656.562 177.66C660.294 179.503 664.799 181.31 670.043 182.618C684.678 186.276 697.338 184.146 704.709 182.223C705.301 185.012 705.7 187.727 705.943 190.365C709.013 223.555 687.761 251.052 675.422 264.451C673.714 263.873 671.637 262.934 669.573 261.369C663.354 256.654 661.733 249.712 661.3 247.379C662.579 245.494 669.877 234.351 666.698 219.652C663.451 204.624 651.755 197.463 649.83 196.329C652.074 190.108 654.321 183.887 656.565 177.666L656.562 177.66Z" fill="#FBBE7E"/>
<g filter="url(#filter9_b_2272_8525)">
<path d="M662.36 185.644C665.768 187.471 670.78 189.645 677.139 190.75C686.547 192.386 694.319 190.882 698.725 189.667C698.934 192.855 698.967 196.189 698.769 199.654C697.342 224.581 684.681 243.557 675.514 254.504C674.85 254.38 672.38 253.339 670.503 251.047C668.599 248.729 668.579 246.677 668.591 246.009C670.065 243.622 676.663 232.367 673.571 217.763C670.81 204.733 661.535 197.04 659.053 195.094C659.917 192.934 661.214 188.829 662.374 185.644L662.36 185.644Z" fill="white" fill-opacity="0.2"/>
</g>
<g filter="url(#filter10_b_2272_8525)">
<path fill-rule="evenodd" clip-rule="evenodd" d="M639.459 203.884L649.725 166.384L661.002 170.034L662.913 170.654L649.287 206.953C649.27 207.072 649.243 207.192 649.204 207.31L619.255 299.868C618.897 300.976 617.708 301.583 616.6 301.225L610.771 299.338C609.664 298.98 609.056 297.791 609.415 296.684L639.364 204.126C639.391 204.043 639.423 203.962 639.459 203.884Z" fill="url(#paint11_linear_2272_8525)"/>
</g>
<path d="M618.743 305.586C618.403 306.638 617.531 307.428 616.451 307.666C615.2 307.944 613.451 308.083 611.495 307.476C609.431 306.84 608.016 305.645 607.129 304.653C606.389 303.825 606.138 302.672 606.481 301.612L618.107 265.684C618.514 264.419 619.681 263.55 621.007 263.535C622.334 263.52 623.938 263.682 625.703 264.306C627.165 264.82 628.343 265.521 629.255 266.191C630.335 266.987 630.785 268.378 630.374 269.656L618.747 305.588L618.743 305.586Z" fill="url(#paint12_radial_2272_8525)"/>
<path d="M663.43 170.558L649.366 166.007C649.09 165.918 648.794 166.069 648.705 166.345L648.403 167.278C648.313 167.554 648.465 167.85 648.74 167.939L662.805 172.49C663.081 172.579 663.377 172.428 663.466 172.152L663.768 171.219C663.857 170.943 663.706 170.647 663.43 170.558Z" fill="url(#paint13_linear_2272_8525)"/>
<path d="M651.016 203.459L640.145 199.942C639.901 199.863 639.639 199.997 639.56 200.241L639.221 201.289C639.142 201.533 639.275 201.795 639.52 201.874L650.391 205.391C650.635 205.47 650.897 205.337 650.976 205.092L651.316 204.045C651.395 203.8 651.261 203.538 651.016 203.459Z" fill="url(#paint14_linear_2272_8525)"/>
<path d="M649.824 207.144L638.952 203.626C638.708 203.547 638.446 203.681 638.367 203.925L638.028 204.973C637.949 205.217 638.083 205.479 638.327 205.558L649.199 209.076C649.443 209.155 649.705 209.021 649.784 208.777L650.123 207.729C650.202 207.484 650.068 207.223 649.824 207.144Z" fill="url(#paint15_linear_2272_8525)"/>
<path d="M662.09 174.699L648.025 170.148C647.749 170.059 647.454 170.21 647.364 170.486L647.062 171.419C646.973 171.695 647.124 171.991 647.4 172.08L661.465 176.631C661.74 176.72 662.036 176.569 662.126 176.293L662.428 175.36C662.517 175.084 662.366 174.788 662.09 174.699Z" fill="url(#paint16_linear_2272_8525)"/>
</g>
<path d="M649.332 158.8L649.332 344.158" stroke="url(#paint17_linear_2272_8525)" stroke-width="0.963333"/>
<g filter="url(#filter11_b_2272_8525)">
<path d="M649.872 130.324L600.075 110.733V101.911L649.872 121.502V130.324Z" fill="url(#paint18_linear_2272_8525)"/>
</g>
<g filter="url(#filter12_b_2272_8525)">
<path d="M649.903 121.514L600.075 101.91L649.856 82.3232L699.684 101.927L649.903 121.514Z" fill="url(#paint19_linear_2272_8525)"/>
</g>
<g filter="url(#filter13_b_2272_8525)">
<path d="M649.872 130.325L699.666 110.734V101.912L649.872 121.503V130.325Z" fill="url(#paint20_linear_2272_8525)"/>
</g>
<g clip-path="url(#clip0_2272_8525)">
<g filter="url(#filter14_b_2272_8525)">
<rect x="425.809" y="110" width="77.6179" height="77.6179" rx="38.8089" transform="rotate(30 425.809 110)" fill="#FBBE7E"/>
<path fill-rule="evenodd" clip-rule="evenodd" d="M447.93 146.237C447.764 146.358 447.62 146.515 447.511 146.705L446.6 148.282C442.446 146.284 437.117 146.806 434.568 151.222C431.812 155.995 434.227 159.69 437.874 163.397L433.059 171.735C431.595 170.744 430.471 169.324 429.844 167.668C429.641 166.967 429.185 166.365 428.565 165.979C428.019 165.664 427.37 165.578 426.76 165.742C426.151 165.905 425.631 166.304 425.316 166.85C425.123 167.248 425.024 167.685 425.024 168.128C425.025 168.57 425.126 169.007 425.32 169.405C426.477 171.983 428.416 174.13 430.86 175.544L429.976 177.076C429.555 177.805 429.805 178.738 430.534 179.159C431.263 179.58 432.196 179.33 432.617 178.601L433.51 177.053C437.546 179.07 442.676 178.255 445.47 173.415C448.256 168.591 445.576 164.6 442.606 161.299L447.066 153.574C448.006 154.229 448.784 155.095 449.337 156.105C449.638 156.722 450.084 157.258 450.637 157.665C450.897 157.817 451.184 157.916 451.483 157.955C451.781 157.994 452.084 157.972 452.374 157.891C452.664 157.81 452.934 157.672 453.169 157.485C453.405 157.297 453.6 157.064 453.743 156.8C453.938 156.419 454.032 155.994 454.017 155.566C454.002 155.139 453.878 154.722 453.657 154.356C452.605 152.473 451.098 150.888 449.278 149.742L450.152 148.229C450.573 147.5 450.323 146.568 449.594 146.147C449.53 146.11 449.465 146.079 449.4 146.052C449.387 146.044 449.374 146.037 449.362 146.03C449.22 145.947 449.062 145.895 448.898 145.877C448.735 145.86 448.569 145.877 448.413 145.929C448.257 145.98 448.113 146.064 447.992 146.175C447.971 146.195 447.95 146.215 447.93 146.237ZM435.734 173.202L440.049 165.728C441.384 167.389 442.069 169.09 440.902 171.112C440.658 171.618 440.314 172.068 439.891 172.437C439.468 172.805 438.974 173.084 438.44 173.257C437.906 173.429 437.343 173.491 436.784 173.439C436.424 173.406 436.071 173.326 435.734 173.202ZM444.444 152.016L440.393 159.032C438.862 157.385 438.054 155.613 439.221 153.592C439.471 153.142 439.808 152.746 440.211 152.426C440.614 152.107 441.077 151.869 441.572 151.729C442.067 151.588 442.585 151.546 443.096 151.605C443.567 151.659 444.024 151.799 444.444 152.016Z" fill="#000223"/>
</g>
</g>
<rect y="91" width="421" height="237" rx="16" fill="#000223"/>
<rect y="91" width="421" height="237" rx="16" fill="url(#paint21_radial_2272_8525)"/>
<rect x="0.5" y="91.5" width="420" height="236" rx="15.5" stroke="white" stroke-opacity="0.15"/>
<rect x="879" y="91" width="421" height="237" rx="16" fill="white" fill-opacity="0.1"/>
<rect x="879" y="91" width="421" height="237" rx="16" fill="#000223"/>
<rect x="879" y="91" width="421" height="237" rx="16" fill="url(#paint22_radial_2272_8525)" fill-opacity="0.52"/>
<rect x="879.5" y="91.5" width="420" height="236" rx="15.5" stroke="white" stroke-opacity="0.15"/>
<path d="M189 328V370.833C189 383.628 199.372 394 212.167 394H625.833C638.628 394 649 383.628 649 370.833V354.5" stroke="#FBBE7E" stroke-width="1.54445"/>
<path d="M1090.88 91C1090.88 88.7254 1092.73 86.8815 1095 86.8815C1097.27 86.8815 1099.12 88.7254 1099.12 91C1099.12 93.2746 1097.27 95.1185 1095 95.1185C1092.73 95.1185 1090.88 93.2746 1090.88 91ZM649.228 99V45.1668H650.772V99H649.228ZM673.167 21.2278H1071.83V22.7722H673.167V21.2278ZM1095.77 45.1668V91H1094.23V45.1668H1095.77ZM1071.83 21.2278C1085.05 21.2278 1095.77 31.9456 1095.77 45.1668H1094.23C1094.23 32.7986 1084.2 22.7722 1071.83 22.7722V21.2278ZM649.228 45.1668C649.228 31.9456 659.946 21.2278 673.167 21.2278V22.7722C660.799 22.7722 650.772 32.7986 650.772 45.1668H649.228Z" fill="url(#paint23_linear_2272_8525)"/>
<rect x="397" y="372" width="44.0169" height="44.0169" rx="22.0085" fill="#FBBE7E"/>
<g clip-path="url(#clip1_2272_8525)">
<path d="M431.275 397.374L430.429 397.647C430.335 397.678 430.238 397.692 430.144 397.692C429.75 397.692 429.384 397.44 429.257 397.043L427.106 390.343C426.949 389.852 427.218 389.327 427.71 389.17L428.556 388.898C428.65 388.868 428.747 388.853 428.841 388.853C429.235 388.853 429.6 389.105 429.728 389.501L431.878 396.203C432.036 396.693 431.765 397.219 431.275 397.374Z" fill="black"/>
<path d="M417.943 390.119C417.459 390.115 416.974 390.113 416.49 390.109C416.324 390.285 416.236 390.395 416.236 390.395C415.864 390.86 415.131 391.779 415.294 392.582C415.317 392.701 415.393 392.992 415.649 393.202C415.862 393.378 416.118 393.426 416.337 393.426C416.539 393.426 416.708 393.385 416.781 393.365C417.107 393.273 417.15 393.142 417.722 392.705C418.208 392.335 418.653 392.006 419.227 391.821C419.432 391.756 419.736 391.685 420.135 391.685C420.159 391.685 420.185 391.685 420.21 391.685C419.598 391.041 418.828 390.498 417.942 390.117L417.943 390.119ZM426.057 399.049L425.913 398.906L421.276 394.313L419.79 392.841C419.715 392.855 419.642 392.872 419.572 392.896C419.187 393.02 418.86 393.255 418.406 393.602C418.236 393.732 418.122 393.829 418.02 393.915C417.783 394.118 417.538 394.325 417.085 394.452C416.916 394.5 416.649 394.555 416.337 394.555C415.8 394.555 415.316 394.389 414.932 394.075C414.555 393.763 414.291 393.315 414.189 392.809C413.974 391.747 414.56 390.754 415.037 390.102C413.975 390.097 412.913 390.09 411.852 390.084L409.901 396.469C410.7 397.339 411.592 398.242 412.584 399.154C413.195 399.717 413.796 400.24 414.385 400.727C415.563 401.766 416.74 402.804 417.918 403.841C418.009 403.932 418.111 404 418.222 404.047C418.381 404.131 418.555 404.172 418.728 404.172C419.035 404.172 419.338 404.046 419.556 403.8C419.892 403.419 419.915 402.873 419.65 402.468L419.935 402.746C420.16 402.967 420.453 403.077 420.744 403.077C420.833 403.077 420.92 403.065 421.007 403.046C421.197 403.011 421.38 402.919 421.526 402.773C421.532 402.768 421.535 402.762 421.54 402.758C421.55 402.747 421.561 402.739 421.571 402.729C421.993 402.299 422.009 401.623 421.627 401.172L422.21 401.743C422.434 401.963 422.727 402.074 423.019 402.074C423.253 402.074 423.487 402.002 423.685 401.861C423.76 401.819 423.828 401.768 423.891 401.704C424.085 401.51 424.18 401.258 424.18 401.005C424.18 400.974 424.18 400.942 424.175 400.911C424.173 400.614 424.057 400.315 423.827 400.09L424.276 400.513C424.502 400.733 424.794 400.844 425.086 400.844C425.377 400.844 425.686 400.727 425.913 400.495C426.301 400.1 426.346 399.495 426.053 399.05L426.057 399.049Z" fill="black"/>
<path d="M428.089 397.144C428.002 397.3 427.806 397.604 427.434 397.836C427.145 398.017 426.87 398.08 426.705 398.106C424.543 395.965 422.384 393.826 420.224 391.685H420.21C420.184 391.685 420.159 391.685 420.134 391.685C419.737 391.685 419.433 391.756 419.227 391.821C418.652 392.006 418.208 392.334 417.722 392.705C417.15 393.142 417.108 393.274 416.781 393.365C416.708 393.384 416.539 393.426 416.336 393.426C416.118 393.426 415.861 393.377 415.649 393.202C415.393 392.992 415.317 392.7 415.293 392.582C415.13 391.779 415.864 390.86 416.235 390.395C416.235 390.395 416.324 390.284 416.49 390.109C416.884 389.694 417.72 388.917 418.867 388.388C419.179 388.245 419.463 388.144 419.817 388.111C419.893 388.104 419.967 388.101 420.04 388.101C420.563 388.101 420.986 388.263 421.236 388.382C422.828 389.129 424.42 389.874 426.013 390.62L428.091 397.143L428.089 397.144Z" fill="black"/>
<path d="M410.808 389.645L408.752 396.375C408.629 396.776 408.26 397.035 407.86 397.035C407.769 397.035 407.679 397.021 407.587 396.994L406.737 396.734C406.244 396.583 405.968 396.062 406.118 395.569L408.175 388.841C408.298 388.439 408.667 388.181 409.066 388.181C409.157 388.181 409.248 388.194 409.34 388.222L410.19 388.482C410.682 388.632 410.959 389.153 410.808 389.646V389.645Z" fill="black"/>
</g>
<rect width="44.0169" height="44.0169" rx="22.0085" transform="matrix(-1 8.74228e-08 8.74228e-08 1 894 0)" fill="url(#paint24_linear_2272_8525)"/>
<path d="M871.374 33.4212L870.976 33.3221C860.51 29.0582 861.407 15.5728 861.407 15.3746L861.507 14.482H862.404C866.988 14.482 870.776 11.7052 870.776 11.7052L871.375 11.3088L871.973 11.7052C871.973 11.7052 875.76 14.482 880.346 14.482H881.243L881.343 15.3746C881.343 15.4737 882.274 29.1573 871.808 33.3221L871.376 33.4212H871.374ZM863.4 16.4654C863.4 19.2422 863.999 28.0673 871.374 31.3388C878.75 28.1656 879.348 19.3405 879.348 16.4654C875.66 16.1681 872.57 14.482 871.374 13.6885C870.178 14.482 867.088 16.1673 863.4 16.4654Z" fill="white"/>
<path d="M871.374 29.7595C864.496 26.8564 865.121 17.4224 865.121 17.4224C868.56 17.4224 871.374 15.2449 871.374 15.2449C871.374 15.2449 874.187 17.4224 877.627 17.4224C877.627 17.4224 878.252 26.8572 871.374 29.7595Z" fill="white"/>
<rect x="1203.31" y="292.847" width="89.2084" height="89.2084" rx="44.6042" transform="rotate(2.86968 1203.31 292.847)" fill="url(#paint25_linear_2272_8525)"/>
<rect x="1203.31" y="292.847" width="89.2084" height="89.2084" rx="44.6042" transform="rotate(2.86968 1203.31 292.847)" stroke="#FF6E75" stroke-width="1.34997" stroke-miterlimit="10"/>
<g clip-path="url(#clip2_2272_8525)">
<path d="M1245.84 323.306L1243.88 328.284C1243.48 328.17 1243.07 328.066 1242.63 327.978C1239.23 327.293 1236.38 327.933 1234.83 328.415C1235.6 327.398 1237.09 325.716 1239.51 324.546C1241.83 323.426 1244.09 323.215 1245.84 323.306Z" fill="white"/>
<path d="M1254.31 322.37L1254.18 322.659C1254.14 322.746 1254.02 322.776 1253.92 322.727L1253.72 322.639L1252.8 324.386L1252.79 324.382L1249.56 330.576C1249.56 330.576 1249.56 330.574 1249.56 330.573L1248.14 333.281C1248.13 333.315 1248.12 333.351 1248.1 333.385L1240.52 350.125C1240.73 350.42 1240.78 350.765 1240.64 351.056L1235.59 362.215C1235.44 362.542 1235.09 362.745 1234.66 362.754C1234.17 362.763 1233.48 362.692 1232.72 362.36C1231.92 362.012 1231.38 361.522 1231.05 361.131C1230.77 360.808 1230.69 360.408 1230.83 360.08L1235.89 348.922C1236.02 348.618 1236.34 348.425 1236.71 348.39L1244.28 331.672C1244.29 331.651 1244.31 331.634 1244.32 331.615L1244.68 330.673L1244.7 330.68L1247.55 323.224C1247.55 323.224 1247.55 323.224 1247.56 323.226L1248.66 320.368L1248.46 320.28C1248.35 320.231 1248.3 320.123 1248.34 320.036L1248.47 319.747C1248.5 319.661 1248.62 319.631 1248.73 319.678L1254.19 322.127C1254.29 322.175 1254.35 322.284 1254.31 322.37Z" fill="white"/>
<path d="M1254.43 352.69C1253.9 352.44 1253.26 352.061 1252.65 351.478C1250.8 349.727 1250.52 347.417 1250.47 346.645C1250.95 346.08 1253.72 342.729 1253.21 337.848C1252.95 335.276 1251.88 333.301 1250.83 331.932L1254.15 325.353C1254.62 325.567 1255.11 325.771 1255.63 325.962C1260.24 327.674 1264.42 327.44 1266.88 327.081C1266.97 328.006 1267.01 328.901 1266.99 329.764C1266.79 340.636 1258.91 348.789 1254.43 352.69Z" fill="white"/>
</g>
<defs>
<filter id="filter0_f_2272_8525" x="450.935" y="6.42017" width="396.79" height="396.79" filterUnits="userSpaceOnUse" color-interpolation-filters="sRGB">
<feFlood flood-opacity="0" result="BackgroundImageFix"/>
<feBlend mode="normal" in="SourceGraphic" in2="BackgroundImageFix" result="shape"/>
<feGaussianBlur stdDeviation="34.495" result="effect1_foregroundBlur_2272_8525"/>
</filter>
<filter id="filter1_b_2272_8525" x="536.382" y="293.326" width="121.103" height="68.6287" filterUnits="userSpaceOnUse" color-interpolation-filters="sRGB">
<feFlood flood-opacity="0" result="BackgroundImageFix"/>
<feGaussianBlur in="BackgroundImageFix" stdDeviation="3.97755"/>
<feComposite in2="SourceAlpha" operator="in" result="effect1_backgroundBlur_2272_8525"/>
<feBlend mode="normal" in="SourceGraphic" in2="effect1_backgroundBlur_2272_8525" result="shape"/>
</filter>
<filter id="filter2_b_2272_8525" x="536.357" y="251.925" width="226.378" height="98.7465" filterUnits="userSpaceOnUse" color-interpolation-filters="sRGB">
<feFlood flood-opacity="0" result="BackgroundImageFix"/>
<feGaussianBlur in="BackgroundImageFix" stdDeviation="3.98996"/>
<feComposite in2="SourceAlpha" operator="in" result="effect1_backgroundBlur_2272_8525"/>
<feBlend mode="normal" in="SourceGraphic" in2="effect1_backgroundBlur_2272_8525" result="shape"/>
</filter>
<filter id="filter3_b_2272_8525" x="641.575" y="293.326" width="121.098" height="68.6287" filterUnits="userSpaceOnUse" color-interpolation-filters="sRGB">
<feFlood flood-opacity="0" result="BackgroundImageFix"/>
<feGaussianBlur in="BackgroundImageFix" stdDeviation="3.97755"/>
<feComposite in2="SourceAlpha" operator="in" result="effect1_backgroundBlur_2272_8525"/>
<feBlend mode="normal" in="SourceGraphic" in2="effect1_backgroundBlur_2272_8525" result="shape"/>
</filter>
<filter id="filter4_b_2272_8525" x="536.382" y="98.4216" width="121.103" height="68.6287" filterUnits="userSpaceOnUse" color-interpolation-filters="sRGB">
<feFlood flood-opacity="0" result="BackgroundImageFix"/>
<feGaussianBlur in="BackgroundImageFix" stdDeviation="3.97755"/>
<feComposite in2="SourceAlpha" operator="in" result="effect1_backgroundBlur_2272_8525"/>
<feBlend mode="normal" in="SourceGraphic" in2="effect1_backgroundBlur_2272_8525" result="shape"/>
</filter>
<filter id="filter5_b_2272_8525" x="641.575" y="98.4216" width="121.098" height="68.6287" filterUnits="userSpaceOnUse" color-interpolation-filters="sRGB">
<feFlood flood-opacity="0" result="BackgroundImageFix"/>
<feGaussianBlur in="BackgroundImageFix" stdDeviation="3.97755"/>
<feComposite in2="SourceAlpha" operator="in" result="effect1_backgroundBlur_2272_8525"/>
<feBlend mode="normal" in="SourceGraphic" in2="effect1_backgroundBlur_2272_8525" result="shape"/>
</filter>
<filter id="filter6_f_2272_8525" x="593.421" y="153.077" width="125.726" height="167.735" filterUnits="userSpaceOnUse" color-interpolation-filters="sRGB">
<feFlood flood-opacity="0" result="BackgroundImageFix"/>
<feBlend mode="normal" in="SourceGraphic" in2="BackgroundImageFix" result="shape"/>
<feGaussianBlur stdDeviation="6.45335" result="effect1_foregroundBlur_2272_8525"/>
</filter>
<filter id="filter7_b_2272_8525" x="598.412" y="158.064" width="115.748" height="157.757" filterUnits="userSpaceOnUse" color-interpolation-filters="sRGB">
<feFlood flood-opacity="0" result="BackgroundImageFix"/>
<feGaussianBlur in="BackgroundImageFix" stdDeviation="3.9588"/>
<feComposite in2="SourceAlpha" operator="in" result="effect1_backgroundBlur_2272_8525"/>
<feBlend mode="normal" in="SourceGraphic" in2="effect1_backgroundBlur_2272_8525" result="shape"/>
</filter>
<filter id="filter8_b_2272_8525" x="611.385" y="173.826" width="39.3591" height="24.1643" filterUnits="userSpaceOnUse" color-interpolation-filters="sRGB">
<feFlood flood-opacity="0" result="BackgroundImageFix"/>
<feGaussianBlur in="BackgroundImageFix" stdDeviation="3.9588"/>
<feComposite in2="SourceAlpha" operator="in" result="effect1_backgroundBlur_2272_8525"/>
<feBlend mode="normal" in="SourceGraphic" in2="effect1_backgroundBlur_2272_8525" result="shape"/>
</filter>
<filter id="filter9_b_2272_8525" x="651.136" y="177.727" width="55.6828" height="84.6948" filterUnits="userSpaceOnUse" color-interpolation-filters="sRGB">
<feFlood flood-opacity="0" result="BackgroundImageFix"/>
<feGaussianBlur in="BackgroundImageFix" stdDeviation="3.9588"/>
<feComposite in2="SourceAlpha" operator="in" result="effect1_backgroundBlur_2272_8525"/>
<feBlend mode="normal" in="SourceGraphic" in2="effect1_backgroundBlur_2272_8525" result="shape"/>
</filter>
<filter id="filter10_b_2272_8525" x="601.394" y="158.466" width="69.4363" height="150.779" filterUnits="userSpaceOnUse" color-interpolation-filters="sRGB">
<feFlood flood-opacity="0" result="BackgroundImageFix"/>
<feGaussianBlur in="BackgroundImageFix" stdDeviation="3.9588"/>
<feComposite in2="SourceAlpha" operator="in" result="effect1_backgroundBlur_2272_8525"/>
<feBlend mode="normal" in="SourceGraphic" in2="effect1_backgroundBlur_2272_8525" result="shape"/>
</filter>
<filter id="filter11_b_2272_8525" x="592.12" y="93.9555" width="65.7071" height="44.323" filterUnits="userSpaceOnUse" color-interpolation-filters="sRGB">
<feFlood flood-opacity="0" result="BackgroundImageFix"/>
<feGaussianBlur in="BackgroundImageFix" stdDeviation="3.97755"/>
<feComposite in2="SourceAlpha" operator="in" result="effect1_backgroundBlur_2272_8525"/>
<feBlend mode="normal" in="SourceGraphic" in2="effect1_backgroundBlur_2272_8525" result="shape"/>
</filter>
<filter id="filter12_b_2272_8525" x="592.12" y="74.3681" width="115.52" height="55.1004" filterUnits="userSpaceOnUse" color-interpolation-filters="sRGB">
<feFlood flood-opacity="0" result="BackgroundImageFix"/>
<feGaussianBlur in="BackgroundImageFix" stdDeviation="3.97755"/>
<feComposite in2="SourceAlpha" operator="in" result="effect1_backgroundBlur_2272_8525"/>
<feBlend mode="normal" in="SourceGraphic" in2="effect1_backgroundBlur_2272_8525" result="shape"/>
</filter>
<filter id="filter13_b_2272_8525" x="641.916" y="93.9565" width="65.7046" height="44.323" filterUnits="userSpaceOnUse" color-interpolation-filters="sRGB">
<feFlood flood-opacity="0" result="BackgroundImageFix"/>
<feGaussianBlur in="BackgroundImageFix" stdDeviation="3.97755"/>
<feComposite in2="SourceAlpha" operator="in" result="effect1_backgroundBlur_2272_8525"/>
<feBlend mode="normal" in="SourceGraphic" in2="effect1_backgroundBlur_2272_8525" result="shape"/>
</filter>
<filter id="filter14_b_2272_8525" x="369.381" y="92.3815" width="141.265" height="141.265" filterUnits="userSpaceOnUse" color-interpolation-filters="sRGB">
<feFlood flood-opacity="0" result="BackgroundImageFix"/>
<feGaussianBlur in="BackgroundImageFix" stdDeviation="8.80927"/>
<feComposite in2="SourceAlpha" operator="in" result="effect1_backgroundBlur_2272_8525"/>
<feBlend mode="normal" in="SourceGraphic" in2="effect1_backgroundBlur_2272_8525" result="shape"/>
</filter>
<radialGradient id="paint0_radial_2272_8525" cx="0" cy="0" r="1" gradientUnits="userSpaceOnUse" gradientTransform="translate(649.33 204.815) rotate(89.873) scale(80.7217)">
<stop stop-color="#FBBE7E"/>
<stop offset="0.88" stop-color="#FBBE7E" stop-opacity="0.15"/>
</radialGradient>
<linearGradient id="paint1_linear_2272_8525" x1="575.479" y1="357.249" x2="638.301" y2="252.273" gradientUnits="userSpaceOnUse">
<stop stop-color="#FF6E75"/>
<stop offset="1" stop-color="#FBBE7E"/>
</linearGradient>
<linearGradient id="paint2_linear_2272_8525" x1="558.725" y1="375.221" x2="604.515" y2="256.141" gradientUnits="userSpaceOnUse">
<stop stop-color="#FF6E75"/>
<stop offset="1" stop-color="#FBBE7E"/>
</linearGradient>
<linearGradient id="paint3_linear_2272_8525" x1="649.473" y1="410.327" x2="683.884" y2="286.674" gradientUnits="userSpaceOnUse">
<stop stop-color="#FF6E75"/>
<stop offset="1" stop-color="#FBBE7E"/>
</linearGradient>
<linearGradient id="paint4_linear_2272_8525" x1="559.213" y1="117.106" x2="747.406" y2="187.672" gradientUnits="userSpaceOnUse">
<stop stop-color="#FBBE7E" stop-opacity="0.1"/>
<stop offset="1" stop-color="white" stop-opacity="0.4"/>
</linearGradient>
<linearGradient id="paint5_linear_2272_8525" x1="664.359" y1="117.106" x2="852.545" y2="187.666" gradientUnits="userSpaceOnUse">
<stop stop-color="#FBBE7E" stop-opacity="0.1"/>
<stop offset="1" stop-color="white" stop-opacity="0.4"/>
</linearGradient>
<linearGradient id="paint6_linear_2272_8525" x1="545.38" y1="301.565" x2="551.5" y2="301.727" gradientUnits="userSpaceOnUse">
<stop stop-color="#FF6E75"/>
<stop offset="1" stop-color="#FBBE7E"/>
</linearGradient>
<linearGradient id="paint7_linear_2272_8525" x1="573.324" y1="324.067" x2="578.602" y2="327.047" gradientUnits="userSpaceOnUse">
<stop stop-color="#FF6E75"/>
<stop offset="1" stop-color="#FBBE7E"/>
</linearGradient>
<linearGradient id="paint8_linear_2272_8525" x1="575.479" y1="162.344" x2="722.272" y2="29.2472" gradientUnits="userSpaceOnUse">
<stop stop-color="#FF6E75"/>
<stop offset="1" stop-color="#FBBE7E"/>
</linearGradient>
<linearGradient id="paint9_linear_2272_8525" x1="575.014" y1="227.931" x2="575.854" y2="71.5919" gradientUnits="userSpaceOnUse">
<stop stop-color="#FF6E75"/>
<stop offset="1" stop-color="#FBBE7E"/>
</linearGradient>
<linearGradient id="paint10_linear_2272_8525" x1="582.06" y1="283.155" x2="669.935" y2="-16.1164" gradientUnits="userSpaceOnUse">
<stop offset="0.133479" stop-color="#FF6E75"/>
<stop offset="1" stop-color="#FBBE7E"/>
</linearGradient>
<linearGradient id="paint11_linear_2272_8525" x1="609.453" y1="307.926" x2="636.533" y2="313.846" gradientUnits="userSpaceOnUse">
<stop stop-color="#FF6E75"/>
<stop offset="1" stop-color="#FBBE7E"/>
</linearGradient>
<radialGradient id="paint12_radial_2272_8525" cx="0" cy="0" r="1" gradientUnits="userSpaceOnUse" gradientTransform="translate(608.069 309.593) rotate(-87.7543) scale(11.0263 11.9708)">
<stop stop-color="#FF6E75"/>
<stop offset="1" stop-color="#FBBE7E"/>
</radialGradient>
<linearGradient id="paint13_linear_2272_8525" x1="652.662" y1="169.339" x2="653.849" y2="166.62" gradientUnits="userSpaceOnUse">
<stop stop-color="#FF6E75"/>
<stop offset="1" stop-color="#FBBE7E"/>
</linearGradient>
<linearGradient id="paint14_linear_2272_8525" x1="642.519" y1="202.976" x2="643.777" y2="200.298" gradientUnits="userSpaceOnUse">
<stop stop-color="#FF6E75"/>
<stop offset="1" stop-color="#FBBE7E"/>
</linearGradient>
<linearGradient id="paint15_linear_2272_8525" x1="641.327" y1="206.66" x2="642.584" y2="203.982" gradientUnits="userSpaceOnUse">
<stop stop-color="#FF6E75"/>
<stop offset="1" stop-color="#FBBE7E"/>
</linearGradient>
<linearGradient id="paint16_linear_2272_8525" x1="651.322" y1="173.48" x2="652.509" y2="170.761" gradientUnits="userSpaceOnUse">
<stop stop-color="#FF6E75"/>
<stop offset="1" stop-color="#FBBE7E"/>
</linearGradient>
<linearGradient id="paint17_linear_2272_8525" x1="651.332" y1="368.57" x2="656.18" y2="368.592" gradientUnits="userSpaceOnUse">
<stop stop-color="#FD8E79"/>
<stop offset="1" stop-color="#FBBE7E"/>
</linearGradient>
<linearGradient id="paint18_linear_2272_8525" x1="610.876" y1="131.146" x2="638.402" y2="89.1948" gradientUnits="userSpaceOnUse">
<stop stop-color="#FF6E75"/>
<stop offset="1" stop-color="#FBBE7E"/>
</linearGradient>
<linearGradient id="paint19_linear_2272_8525" x1="603.099" y1="155.343" x2="602.901" y2="95.4216" gradientUnits="userSpaceOnUse">
<stop stop-color="#FF6E75"/>
<stop offset="1" stop-color="#FBBE7E"/>
</linearGradient>
<linearGradient id="paint20_linear_2272_8525" x1="676.983" y1="144.973" x2="678.228" y2="85.4706" gradientUnits="userSpaceOnUse">
<stop stop-color="#FF6E75"/>
<stop offset="1" stop-color="#FBBE7E"/>
</linearGradient>
<radialGradient id="paint21_radial_2272_8525" cx="0" cy="0" r="1" gradientUnits="userSpaceOnUse" gradientTransform="translate(612 147) rotate(171.604) scale(600.541 285.357)">
<stop offset="0.169542" stop-color="#935E5D"/>
<stop offset="0.437603" stop-color="#161635"/>
</radialGradient>
<radialGradient id="paint22_radial_2272_8525" cx="0" cy="0" r="1" gradientUnits="userSpaceOnUse" gradientTransform="translate(1345 487) rotate(-125.742) scale(487.895 434.546)">
<stop offset="0.169542" stop-color="#C94C49"/>
<stop offset="0.798534" stop-color="#161635"/>
</radialGradient>
<linearGradient id="paint23_linear_2272_8525" x1="732.447" y1="99" x2="743.385" y2="-6.97575" gradientUnits="userSpaceOnUse">
<stop stop-color="#F56C8F"/>
<stop offset="1" stop-color="#EF7271"/>
</linearGradient>
<linearGradient id="paint24_linear_2272_8525" x1="8.15521" y1="-3.47623e-07" x2="35.0921" y2="45.1586" gradientUnits="userSpaceOnUse">
<stop stop-color="#F56C8F"/>
<stop offset="1" stop-color="#EF7271"/>
</linearGradient>
<linearGradient id="paint25_linear_2272_8525" x1="1221.37" y1="323.721" x2="1279" y2="414.062" gradientUnits="userSpaceOnUse">
<stop stop-color="#0F022F"/>
<stop offset="1" stop-color="#FF6E75"/>
</linearGradient>
<clipPath id="clip0_2272_8525">
<rect width="120" height="87" fill="white" transform="translate(509 106) rotate(90)"/>
</clipPath>
<clipPath id="clip1_2272_8525">
<rect width="25.8462" height="16.0678" fill="white" transform="translate(406.077 388.103)"/>
</clipPath>
<clipPath id="clip2_2272_8525">
<rect width="32.6923" height="46.1538" fill="white" transform="translate(1239.99 315.123) rotate(23.8044)"/>
</clipPath>
</defs>
</svg>
