<svg width="356" height="354" viewBox="0 0 356 354" fill="none" xmlns="http://www.w3.org/2000/svg">
<g opacity="0.4" filter="url(#filter0_f_1353_15822)">
<circle cx="177.971" cy="196.02" r="115.96" fill="url(#paint0_radial_1353_15822)"/>
</g>
<g filter="url(#filter1_f_1353_15822)">
<ellipse cx="174.177" cy="106.085" rx="118.194" ry="33.0541" stroke="url(#paint1_linear_1353_15822)" stroke-width="2.00328"/>
</g>
<g filter="url(#filter2_f_1353_15822)">
<ellipse cx="174.177" cy="137.136" rx="118.194" ry="33.0541" stroke="url(#paint2_linear_1353_15822)" stroke-width="2.00328"/>
</g>
<ellipse cx="171.326" cy="192.005" rx="76.7072" ry="21.6637" fill="url(#paint3_linear_1353_15822)"/>
<path d="M244.878 192.005C244.878 193.378 243.865 195.402 240.253 197.814C236.76 200.146 231.496 202.37 224.709 204.287C211.178 208.109 192.303 210.514 171.326 210.514C150.349 210.514 131.475 208.109 117.944 204.287C111.156 202.37 105.893 200.146 102.399 197.814C98.7879 195.402 97.7741 193.378 97.7741 192.005C97.7741 190.632 98.7879 188.608 102.399 186.196C105.893 183.863 111.156 181.639 117.944 179.723C131.475 175.901 150.349 173.496 171.326 173.496C192.303 173.496 211.178 175.901 224.709 179.723C231.496 181.639 236.76 183.863 240.253 186.196C243.865 188.608 244.878 190.632 244.878 192.005Z" stroke="url(#paint4_linear_1353_15822)" stroke-width="6.30996"/>
<g filter="url(#filter3_d_1353_15822)">
<path d="M237.844 71.2628L237.844 111.338C237.844 114.566 236.701 117.689 234.617 120.154L172.236 193.964" stroke="#FBBE7E" stroke-width="3.41467"/>
</g>
<g filter="url(#filter4_d_1353_15822)">
<path d="M184.256 120.844L160.647 86.7931C159.062 84.5073 158.213 81.7922 158.213 79.0107L158.213 39.2104" stroke="#FBBE7E" stroke-width="3.41467"/>
</g>
<circle cx="158.213" cy="35.2063" r="4.00656" stroke="url(#paint5_linear_1353_15822)" stroke-width="2.19227"/>
<g filter="url(#filter5_d_1353_15822)">
<path d="M172.487 177.685L115.249 138.51C111.529 135.964 109.305 131.747 109.305 127.239V110.403" stroke="#FBBE7E" stroke-width="3.41467"/>
</g>
<g filter="url(#filter6_d_1353_15822)">
<path d="M203.928 15.2656L203.928 89.1659C203.928 92.0503 203.015 94.8607 201.32 97.1943L174.478 134.139C172.783 136.472 171.87 139.281 171.869 142.165L171.858 207.376" stroke="#FBBE7E" stroke-width="3.41467"/>
</g>
<g filter="url(#filter7_f_1353_15822)">
<circle cx="158.213" cy="35.2063" r="4.00656" stroke="url(#paint6_linear_1353_15822)" stroke-width="2.19227"/>
</g>
<g filter="url(#filter8_f_1353_15822)">
<circle cx="204.288" cy="11.2595" r="4.00656" stroke="url(#paint7_linear_1353_15822)" stroke-width="2.19227"/>
</g>
<g filter="url(#filter9_df_1353_15822)">
<circle cx="203.756" cy="45.7208" r="2.5041" fill="#FBBE7E"/>
</g>
<g filter="url(#filter10_df_1353_15822)">
<circle cx="203.908" cy="30.6284" r="2.01872" fill="#FBBE7E"/>
</g>
<g filter="url(#filter11_df_1353_15822)">
<circle cx="136.645" cy="153.358" r="2.01872" fill="#FBBE7E"/>
</g>
<g filter="url(#filter12_df_1353_15822)">
<circle cx="221.816" cy="134.868" r="2.5041" fill="#FBBE7E"/>
</g>
<g filter="url(#filter13_df_1353_15822)">
<circle cx="166.728" cy="95.8023" r="2.5041" fill="#FBBE7E"/>
</g>
<g filter="url(#filter14_df_1353_15822)">
<circle cx="125.832" cy="145.96" r="2.5041" fill="#FBBE7E"/>
</g>
<g filter="url(#filter15_f_1353_15822)">
<circle cx="109.305" cy="106.394" r="4.00656" stroke="url(#paint8_linear_1353_15822)" stroke-width="2.19227"/>
</g>
<circle cx="109.305" cy="107.85" r="4.00656" stroke="url(#paint9_linear_1353_15822)" stroke-width="2.19227"/>
<g filter="url(#filter16_f_1353_15822)">
<circle cx="238.344" cy="67.2585" r="4.00656" stroke="url(#paint10_linear_1353_15822)" stroke-width="2.19227"/>
</g>
<circle cx="238.344" cy="67.2585" r="4.00656" stroke="url(#paint11_linear_1353_15822)" stroke-width="2.19227"/>
<circle cx="204.288" cy="11.2595" r="4.00656" stroke="url(#paint12_linear_1353_15822)" stroke-width="2.19227"/>
<g filter="url(#filter17_d_1353_15822)">
<path d="M318.672 124.439C318.822 124.26 318.97 124.083 319.118 123.906C319.149 123.87 319.181 123.831 319.212 123.794C319.225 123.779 319.235 123.766 319.248 123.751C319.543 123.386 319.83 123.021 320.111 122.651C320.129 122.63 320.147 122.608 320.165 122.583C320.46 122.191 320.745 121.799 321.023 121.405C321.023 121.405 321.023 121.405 321.025 121.403C321.034 121.392 321.043 121.381 321.05 121.369C321.19 121.167 321.328 120.967 321.464 120.766C321.51 120.698 321.556 120.63 321.599 120.56C321.698 120.412 321.797 120.263 321.893 120.113C321.942 120.037 321.992 119.961 322.041 119.884C322.136 119.736 322.228 119.586 322.319 119.439C322.363 119.369 322.406 119.299 322.446 119.23C322.568 119.027 322.688 118.827 322.804 118.627C322.813 118.613 322.823 118.596 322.832 118.581C322.959 118.364 323.081 118.148 323.202 117.93C323.24 117.862 323.276 117.797 323.31 117.731C323.394 117.577 323.479 117.424 323.559 117.271C323.6 117.196 323.639 117.119 323.68 117.039C323.759 116.889 323.835 116.74 323.91 116.59C323.945 116.517 323.983 116.446 324.019 116.373C324.11 116.189 324.198 116.006 324.284 115.824C324.299 115.793 324.314 115.762 324.327 115.733C324.331 115.728 324.333 115.722 324.334 115.716C324.442 115.487 324.547 115.256 324.651 115.028C324.679 114.963 324.707 114.899 324.737 114.832C324.812 114.66 324.886 114.488 324.959 114.318C324.989 114.247 325.019 114.177 325.048 114.106C325.132 113.905 325.212 113.705 325.289 113.504C325.3 113.473 325.313 113.444 325.326 113.411C325.416 113.182 325.499 112.951 325.583 112.724C325.589 112.703 325.599 112.682 325.606 112.662C325.615 112.633 325.624 112.604 325.634 112.576C325.744 112.264 325.851 111.954 325.949 111.644C325.954 111.629 325.958 111.611 325.963 111.596C326.059 111.289 326.152 110.981 326.241 110.674C326.247 110.653 326.255 110.631 326.261 110.606C326.264 110.594 326.267 110.586 326.27 110.573C326.338 110.326 326.406 110.078 326.466 109.832C326.48 109.77 326.495 109.713 326.51 109.652C326.563 109.44 326.612 109.228 326.657 109.016C326.665 108.986 326.674 108.953 326.679 108.921C326.682 108.908 326.683 108.894 326.687 108.88C326.736 108.66 326.78 108.441 326.821 108.221C326.831 108.175 326.838 108.126 326.846 108.077C326.877 107.905 326.908 107.733 326.936 107.563C326.942 107.53 326.949 107.5 326.954 107.467C326.956 107.447 326.958 107.427 326.962 107.405C327.024 107.016 327.076 106.63 327.116 106.245C327.118 106.225 327.122 106.207 327.123 106.189C327.123 106.175 327.125 106.165 327.125 106.151C327.164 105.772 327.196 105.396 327.215 105.023C327.215 105.015 327.216 105.009 327.216 105.001C327.216 105.001 327.217 104.995 327.217 104.991C327.236 104.622 327.248 104.258 327.248 103.894C327.248 103.894 327.248 103.894 327.247 103.89C327.247 103.886 327.248 103.88 327.246 103.875C327.247 103.541 327.239 103.209 327.224 102.881C327.224 102.881 327.223 102.873 327.225 102.87C327.209 102.552 327.188 102.241 327.156 101.928C327.155 101.917 327.156 101.902 327.153 101.889C327.152 101.885 327.152 101.877 327.151 101.873C327.122 101.588 327.087 101.306 327.047 101.026C327.043 101.004 327.041 100.981 327.039 100.957C327.038 100.945 327.034 100.931 327.033 100.919C326.992 100.653 326.945 100.39 326.892 100.129C326.886 100.106 326.884 100.082 326.879 100.057C326.876 100.039 326.87 100.02 326.867 100.002C326.814 99.749 326.752 99.499 326.689 99.2511C326.683 99.2316 326.679 99.21 326.673 99.1906C326.667 99.1672 326.659 99.1459 326.653 99.1225C326.586 98.875 326.514 98.6278 326.435 98.3853C326.43 98.3737 326.426 98.36 326.423 98.3464C326.415 98.3251 326.407 98.3038 326.4 98.2826C326.316 98.0325 326.228 97.7828 326.131 97.5398C326.128 97.538 326.128 97.5341 326.126 97.5283C326.123 97.5186 326.118 97.511 326.113 97.4995C326.01 97.2411 325.902 96.9891 325.787 96.7418C325.782 96.7342 325.779 96.7245 325.775 96.7169C325.772 96.7151 325.77 96.7133 325.77 96.7094C325.652 96.4603 325.527 96.2158 325.394 95.9761C325.385 95.9609 325.377 95.9436 325.368 95.9285C325.363 95.9169 325.354 95.9057 325.349 95.8942C325.313 95.8275 325.273 95.7651 325.236 95.7006C325.196 95.6303 325.158 95.5618 325.116 95.4936C325.078 95.429 325.037 95.3688 324.997 95.3025C324.962 95.2476 324.929 95.1907 324.892 95.134C324.884 95.1229 324.876 95.1095 324.867 95.0983C324.819 95.0248 324.767 94.9515 324.718 94.8779C324.679 94.8195 324.64 94.7611 324.599 94.7048C324.545 94.6298 324.49 94.5548 324.434 94.4819C324.4 94.435 324.366 94.3881 324.329 94.3394C324.323 94.334 324.32 94.3282 324.316 94.3206C324.224 94.203 324.131 94.0854 324.036 93.9721C324.025 93.9631 324.018 93.9497 324.009 93.9385C323.904 93.814 323.797 93.6917 323.689 93.5675C323.684 93.5639 323.68 93.5603 323.677 93.5546C323.615 93.4842 323.55 93.4181 323.484 93.3481C323.446 93.3095 323.413 93.2705 323.375 93.2319C323.27 93.1214 323.159 93.0135 323.049 92.9073L316.156 86.3095C316.268 86.4175 316.377 86.5236 316.482 86.6341C316.52 86.6727 316.553 86.7117 316.59 86.7503C316.659 86.8221 316.729 86.8958 316.795 86.9698C316.906 87.0918 317.013 87.2141 317.116 87.3407C317.126 87.3498 317.131 87.3613 317.14 87.3725C317.234 87.488 317.331 87.6052 317.421 87.725C317.459 87.7755 317.496 87.8282 317.536 87.8805C317.593 87.9573 317.649 88.0302 317.702 88.1074C317.743 88.1637 317.78 88.2203 317.817 88.2769C317.867 88.3523 317.92 88.4255 317.968 88.4991C318.012 88.5651 318.052 88.6314 318.095 88.6974C318.137 88.7616 318.176 88.824 318.216 88.8904C318.256 88.9567 318.296 89.0271 318.336 89.0934C318.376 89.1598 318.413 89.2243 318.451 89.2928C318.466 89.3195 318.48 89.3462 318.494 89.3729C318.627 89.6126 318.753 89.8571 318.869 90.1083C318.874 90.1199 318.879 90.1314 318.881 90.1411C318.999 90.3902 319.107 90.6422 319.21 90.9006C319.215 90.9121 319.22 90.9236 319.225 90.9391C319.321 91.1842 319.41 91.4318 319.493 91.684C319.504 91.719 319.514 91.75 319.527 91.7828C319.606 92.0253 319.678 92.2725 319.744 92.5221C319.756 92.565 319.765 92.6061 319.777 92.6489C319.841 92.8968 319.901 93.149 319.955 93.3997C319.965 93.4408 319.973 93.484 319.98 93.5272C320.033 93.788 320.08 94.0513 320.122 94.3171C320.127 94.3506 320.13 94.3863 320.137 94.4216C320.178 94.7014 320.215 94.9856 320.244 95.2705C320.247 95.2881 320.247 95.3061 320.249 95.3259C320.278 95.6367 320.302 95.95 320.318 96.2679C320.318 96.2679 320.319 96.2759 320.319 96.2798C320.334 96.6078 320.342 96.9445 320.341 97.2779C320.34 97.284 320.342 97.2897 320.341 97.2959C320.339 97.6573 320.329 98.0234 320.31 98.3924C320.308 98.4025 320.309 98.4144 320.308 98.4244C320.287 98.7956 320.257 99.1735 320.218 99.5521C320.215 99.5824 320.21 99.6148 320.209 99.6468C320.166 100.03 320.117 100.417 320.055 100.806C320.048 100.859 320.038 100.909 320.031 100.962C320.004 101.134 319.974 101.306 319.941 101.477C319.933 101.525 319.923 101.572 319.916 101.621C319.875 101.84 319.83 102.059 319.782 102.279C319.774 102.324 319.762 102.369 319.752 102.412C319.707 102.623 319.656 102.837 319.602 103.05C319.588 103.111 319.573 103.168 319.558 103.229C319.496 103.474 319.43 103.723 319.362 103.971C319.353 104.004 319.344 104.036 319.335 104.069C319.248 104.374 319.158 104.684 319.057 104.992C319.052 105.006 319.048 105.025 319.043 105.039C318.945 105.349 318.839 105.66 318.728 105.971C318.71 106.018 318.693 106.07 318.675 106.117C318.594 106.346 318.508 106.575 318.419 106.805C318.407 106.836 318.394 106.865 318.383 106.896C318.306 107.096 318.222 107.297 318.142 107.498C318.113 107.568 318.083 107.639 318.055 107.711C317.985 107.883 317.91 108.055 317.833 108.225C317.805 108.29 317.777 108.354 317.747 108.421C317.645 108.651 317.538 108.88 317.43 109.109C317.413 109.147 317.396 109.18 317.378 109.216C317.29 109.399 317.202 109.582 317.111 109.766C317.075 109.839 317.038 109.91 317.002 109.983C316.928 110.134 316.851 110.282 316.772 110.433C316.733 110.51 316.692 110.586 316.651 110.665C316.569 110.82 316.485 110.973 316.4 111.126C316.364 111.191 316.33 111.258 316.294 111.323C316.174 111.541 316.051 111.758 315.922 111.977C315.914 111.991 315.903 112.008 315.895 112.023C315.777 112.225 315.657 112.425 315.537 112.626C315.493 112.695 315.449 112.765 315.409 112.834C315.317 112.984 315.226 113.132 315.131 113.28C315.082 113.356 315.033 113.432 314.984 113.509C314.887 113.659 314.788 113.807 314.69 113.956C314.644 114.024 314.6 114.093 314.554 114.161C314.418 114.363 314.281 114.567 314.14 114.765C314.131 114.775 314.124 114.788 314.114 114.801C313.837 115.197 313.552 115.589 313.255 115.978C313.237 116 313.219 116.021 313.202 116.047C312.923 116.415 312.636 116.783 312.338 117.147C312.295 117.199 312.252 117.25 312.208 117.302C312.06 117.479 311.914 117.657 311.762 117.835C311.712 117.895 311.661 117.955 311.612 118.013C311.423 118.24 311.227 118.461 311.029 118.684C310.878 118.855 310.724 119.026 310.569 119.193C310.358 119.423 310.142 119.65 309.928 119.874C309.881 119.923 309.835 119.972 309.787 120.021C309.465 120.352 309.141 120.678 308.812 120.997C308.771 121.036 308.731 121.076 308.689 121.117C308.389 121.405 308.086 121.688 307.782 121.968C307.737 122.008 307.691 122.05 307.647 122.09C307.351 122.355 307.056 122.615 306.757 122.871C306.709 122.911 306.665 122.951 306.616 122.991C306.325 123.238 306.029 123.482 305.732 123.717C305.687 123.753 305.643 123.789 305.598 123.825C305.303 124.059 305.008 124.288 304.708 124.51C304.68 124.531 304.652 124.551 304.624 124.572C304.322 124.796 304.02 125.016 303.716 125.231C303.701 125.24 303.686 125.253 303.671 125.262C303.372 125.47 303.072 125.675 302.769 125.875C302.721 125.905 302.678 125.935 302.631 125.965C302.34 126.154 302.049 126.34 301.756 126.519C301.703 126.552 301.65 126.584 301.597 126.617C301.303 126.797 301.009 126.972 300.715 127.14C300.671 127.166 300.625 127.19 300.582 127.215C300.272 127.392 299.961 127.562 299.649 127.729C299.63 127.739 299.611 127.748 299.595 127.758C299.277 127.927 298.958 128.089 298.638 128.243C298.615 128.253 298.592 128.267 298.569 128.277C298.24 128.438 297.909 128.593 297.576 128.74C297.54 128.757 297.501 128.772 297.465 128.79C297.138 128.934 296.809 129.073 296.482 129.206C296.437 129.224 296.397 129.241 296.353 129.259C296 129.4 295.65 129.533 295.298 129.659C295.261 129.673 295.225 129.686 295.188 129.699C294.805 129.837 294.422 129.96 294.04 130.08C294.02 130.085 294.001 130.091 293.984 130.099C293.566 130.225 293.151 130.344 292.735 130.45C292.684 130.463 292.633 130.475 292.583 130.488C292.417 130.528 292.251 130.569 292.084 130.609C292.012 130.626 291.94 130.642 291.867 130.658C291.711 130.692 291.554 130.726 291.395 130.758C291.332 130.771 291.27 130.785 291.205 130.797C290.963 130.844 290.72 130.889 290.48 130.927C290.432 130.935 290.383 130.941 290.332 130.95C290.127 130.984 289.924 131.011 289.719 131.037C289.666 131.044 289.612 131.051 289.561 131.059C289.265 131.097 288.97 131.125 288.677 131.151C288.63 131.156 288.58 131.158 288.532 131.162C288.243 131.184 287.953 131.201 287.666 131.21C287.611 131.211 287.555 131.212 287.499 131.217C287.318 131.223 287.137 131.225 286.957 131.225C286.909 131.225 286.86 131.228 286.811 131.224C286.592 131.223 286.372 131.219 286.155 131.21C286.105 131.208 286.057 131.205 286.007 131.203C285.831 131.195 285.656 131.184 285.481 131.17C285.423 131.165 285.365 131.16 285.306 131.155C285.091 131.136 284.878 131.115 284.664 131.09C284.648 131.087 284.631 131.085 284.617 131.084C284.422 131.059 284.225 131.031 284.029 130.998C283.97 130.989 283.913 130.979 283.855 130.97C283.678 130.939 283.508 130.906 283.335 130.872C283.298 130.863 283.262 130.858 283.225 130.85C283.022 130.808 282.822 130.757 282.622 130.707C282.571 130.694 282.522 130.682 282.473 130.666C282.313 130.625 282.158 130.578 282 130.53C281.95 130.515 281.897 130.5 281.848 130.484C281.653 130.423 281.459 130.357 281.268 130.288C281.239 130.278 281.21 130.265 281.181 130.255C281.016 130.194 280.854 130.128 280.693 130.063C280.641 130.041 280.587 130.018 280.535 129.997C280.368 129.926 280.203 129.851 280.041 129.773C280.02 129.763 279.999 129.753 279.98 129.744C279.801 129.656 279.621 129.565 279.445 129.468C279.397 129.443 279.35 129.415 279.304 129.391C279.164 129.313 279.027 129.232 278.888 129.148C278.846 129.124 278.806 129.098 278.766 129.075C278.597 128.97 278.429 128.859 278.264 128.746C278.229 128.721 278.197 128.698 278.163 128.673C278.029 128.579 277.897 128.479 277.764 128.379C277.721 128.343 277.674 128.311 277.631 128.275C277.472 128.149 277.315 128.021 277.16 127.887C277.009 127.757 276.863 127.624 276.721 127.487L283.614 134.085C283.756 134.222 283.902 134.355 284.053 134.485C284.206 134.617 284.365 134.747 284.524 134.873C284.567 134.909 284.612 134.943 284.657 134.977C284.79 135.077 284.92 135.175 285.056 135.271C285.091 135.296 285.122 135.319 285.157 135.344C285.322 135.457 285.488 135.566 285.659 135.673C285.699 135.699 285.741 135.724 285.781 135.746C285.918 135.828 286.057 135.911 286.197 135.989C286.246 136.014 286.292 136.042 286.338 136.066C286.514 136.162 286.694 136.254 286.873 136.342C286.894 136.352 286.913 136.361 286.934 136.371C287.096 136.448 287.265 136.523 287.431 136.597C287.483 136.618 287.536 136.641 287.588 136.662C287.75 136.728 287.911 136.794 288.076 136.855C288.105 136.864 288.134 136.878 288.165 136.889C288.357 136.958 288.548 137.023 288.745 137.085C288.795 137.101 288.848 137.116 288.897 137.132C289.053 137.178 289.211 137.226 289.37 137.268C289.421 137.281 289.468 137.295 289.519 137.309C289.719 137.359 289.92 137.409 290.123 137.451C290.16 137.46 290.196 137.464 290.233 137.473C290.405 137.508 290.578 137.543 290.752 137.571C290.811 137.58 290.868 137.591 290.926 137.6C291.121 137.63 291.315 137.661 291.513 137.684C291.529 137.686 291.545 137.689 291.561 137.691C291.773 137.719 291.987 137.74 292.202 137.759C292.26 137.763 292.318 137.768 292.377 137.773C292.55 137.786 292.726 137.798 292.901 137.805C292.951 137.806 292.999 137.81 293.049 137.812C293.265 137.821 293.485 137.825 293.705 137.826C293.753 137.826 293.801 137.825 293.848 137.825C294.028 137.825 294.209 137.823 294.391 137.817C294.424 137.816 294.46 137.817 294.496 137.814C294.516 137.812 294.538 137.812 294.558 137.81C294.844 137.801 295.134 137.784 295.422 137.76C295.469 137.756 295.521 137.751 295.568 137.747C295.859 137.724 296.154 137.692 296.448 137.656C296.466 137.652 296.484 137.653 296.5 137.651C296.535 137.648 296.571 137.641 296.608 137.636C296.811 137.608 297.014 137.58 297.219 137.546C297.268 137.539 297.317 137.529 297.367 137.523C297.609 137.484 297.848 137.438 298.092 137.393C298.109 137.389 298.129 137.388 298.149 137.382C298.194 137.372 298.239 137.362 298.284 137.352C298.439 137.321 298.595 137.287 298.752 137.253C298.824 137.237 298.897 137.22 298.969 137.204C299.134 137.165 299.3 137.125 299.466 137.084C299.509 137.073 299.55 137.063 299.593 137.055C299.603 137.052 299.61 137.052 299.62 137.049C300.036 136.942 300.451 136.824 300.869 136.697C300.874 136.695 300.88 136.692 300.886 136.694C300.9 136.69 300.913 136.683 300.927 136.68C301.308 136.563 301.69 136.435 302.075 136.299C302.089 136.296 302.102 136.289 302.116 136.286C302.139 136.276 302.162 136.266 302.185 136.26C302.537 136.133 302.889 136.002 303.24 135.859C303.257 135.852 303.273 135.846 303.288 135.841C303.315 135.831 303.34 135.819 303.367 135.808C303.695 135.675 304.022 135.539 304.35 135.392C304.364 135.385 304.377 135.382 304.389 135.377C304.414 135.365 304.439 135.352 304.462 135.342C304.792 135.194 305.122 135.041 305.453 134.882C305.459 134.879 305.466 134.875 305.472 134.872C305.489 134.865 305.506 134.853 305.524 134.846C305.841 134.69 306.16 134.528 306.477 134.36C306.49 134.353 306.504 134.346 306.517 134.339C306.521 134.335 306.526 134.332 306.532 134.33C306.843 134.164 307.155 133.993 307.463 133.818C307.492 133.802 307.518 133.787 307.547 133.771C307.562 133.762 307.581 133.752 307.598 133.741C307.893 133.573 308.186 133.397 308.48 133.218C308.508 133.201 308.535 133.187 308.56 133.171C308.584 133.155 308.613 133.138 308.637 133.122C308.929 132.941 309.222 132.757 309.513 132.568C309.529 132.556 309.549 132.547 309.566 132.535C309.596 132.516 309.624 132.496 309.65 132.478C309.952 132.279 310.252 132.075 310.551 131.867C310.554 131.863 310.556 131.861 310.562 131.858C310.573 131.849 310.584 131.841 310.597 131.833C310.9 131.621 311.202 131.401 311.504 131.177C311.524 131.161 311.543 131.147 311.566 131.133C311.573 131.125 311.583 131.122 311.59 131.113C311.887 130.889 312.185 130.661 312.479 130.428C312.508 130.407 312.534 130.385 312.562 130.365C312.581 130.351 312.597 130.336 312.614 130.32C312.91 130.085 313.206 129.841 313.498 129.594C313.524 129.571 313.548 129.551 313.572 129.531C313.594 129.513 313.616 129.491 313.639 129.473C313.938 129.218 314.234 128.96 314.528 128.692C314.548 128.673 314.572 128.653 314.595 128.635C314.619 128.615 314.641 128.593 314.663 128.571C314.968 128.294 315.27 128.012 315.57 127.72C315.59 127.701 315.613 127.683 315.631 127.665C315.651 127.645 315.673 127.623 315.694 127.604C316.023 127.285 316.347 126.959 316.669 126.627C316.689 126.604 316.712 126.586 316.734 126.564C316.757 126.536 316.784 126.507 316.81 126.481C317.024 126.257 317.239 126.03 317.451 125.8C317.602 125.637 317.751 125.472 317.896 125.308C317.902 125.301 317.907 125.295 317.911 125.29C318.109 125.067 318.303 124.845 318.494 124.62C318.545 124.56 318.595 124.499 318.644 124.441L318.672 124.439Z" fill="url(#paint13_linear_1353_15822)"/>
<path d="M315.728 85.9206C323.532 92.7095 321.229 107.611 310.584 119.202C299.94 130.793 284.983 134.681 277.179 127.892C269.375 121.103 271.676 106.204 282.323 94.6144C292.967 83.0232 307.923 79.1317 315.728 85.9206Z" fill="url(#paint14_linear_1353_15822)" stroke="url(#paint15_linear_1353_15822)" stroke-width="0.904872" stroke-miterlimit="10"/>
<path opacity="0.3" d="M311.5 89.6252C317.525 94.8766 315.41 106.79 306.777 116.233C298.145 125.676 286.262 129.07 280.237 123.819C274.212 118.567 276.325 106.655 284.959 97.2138C293.592 87.7707 305.475 84.3738 311.5 89.6252Z" stroke="white" stroke-width="0.617216" stroke-miterlimit="10"/>
<path opacity="0.3" d="M298.807 112.363C298.5 113.111 297.983 113.881 297.26 114.669C296.347 115.662 295.362 116.395 294.304 116.866C293.249 117.336 292.185 117.508 291.116 117.382C290.41 117.297 289.735 117.065 289.086 116.683L287.82 118.062C287.516 118.394 287.087 118.504 286.862 118.308L286.149 117.689C285.924 117.493 285.988 117.066 286.292 116.734L287.52 115.396C286.945 114.76 286.58 114.088 286.372 113.334C286.103 112.349 286.14 111.312 286.477 110.223C286.734 109.386 287.173 108.542 287.786 107.706C288.081 107.297 288.585 107.125 288.84 107.346L289.832 108.21C290.02 108.375 290.024 108.708 289.815 109.014C289.48 109.511 289.261 109.995 289.155 110.468C289.015 111.103 289.047 111.687 289.246 112.228C289.356 112.518 289.499 112.788 289.683 113.038L295.065 107.18L294.807 106.664C294.203 105.45 293.968 104.229 294.093 103.002C294.219 101.776 294.843 100.549 295.967 99.326C296.894 98.3162 297.894 97.5952 298.96 97.1639C300.026 96.7327 301.07 96.5846 302.09 96.7203C302.795 96.8118 303.45 97.0375 304.048 97.3999L305.347 95.986C305.651 95.6538 306.08 95.5441 306.305 95.7398L307.019 96.3596C307.243 96.5553 307.179 96.9821 306.873 97.3125L305.562 98.7415C305.959 99.2574 306.233 99.8281 306.387 100.449C306.619 101.407 306.583 102.404 306.27 103.444C306.037 104.217 305.654 104.971 305.125 105.698C304.832 106.101 304.329 106.267 304.078 106.046L303.127 105.22C302.939 105.055 302.939 104.735 303.132 104.435C303.577 103.737 303.784 103.044 303.751 102.36C303.733 101.901 303.615 101.476 303.4 101.09L298.302 106.639L298.357 106.744C298.61 107.213 298.832 107.736 299.015 108.319C299.198 108.901 299.286 109.532 299.278 110.212C299.266 110.891 299.11 111.608 298.8 112.358L298.807 112.363ZM293.788 114.295C294.406 114.068 294.98 113.668 295.504 113.095C295.981 112.574 296.274 112.063 296.377 111.559C296.482 111.053 296.463 110.546 296.324 110.033C296.242 109.741 296.14 109.442 296.018 109.142L291.29 114.289C291.499 114.373 291.712 114.434 291.933 114.472C292.549 114.581 293.167 114.519 293.788 114.295ZM297.338 104.712L301.931 99.7123C301.664 99.5802 301.383 99.4952 301.098 99.4505C300.533 99.3665 299.974 99.4338 299.417 99.6526C298.861 99.8732 298.358 100.233 297.901 100.73C297.517 101.149 297.252 101.566 297.11 101.986C296.965 102.408 296.909 102.812 296.946 103.206C296.976 103.598 297.059 103.972 297.186 104.328C297.236 104.462 297.287 104.589 297.34 104.714" fill="white"/>
</g>
<path fill-rule="evenodd" clip-rule="evenodd" d="M171.393 232.732C143.575 232.732 119.219 228.619 105.782 222.465L117.007 307.454H117.031C117.904 318.909 141.908 328.089 171.392 328.089C200.876 328.089 224.88 318.909 225.753 307.454H225.778L237.004 222.465C223.567 228.619 199.21 232.732 171.393 232.732Z" fill="url(#paint16_linear_1353_15822)"/>
<path fill-rule="evenodd" clip-rule="evenodd" d="M171.39 213.484C213.731 213.484 248.054 203.803 248.054 191.861C248.054 191.641 248.043 191.421 248.019 191.203H248.054V211.517V212.171H248.02C246.794 223.811 212.955 233.14 171.391 233.14C129.826 233.14 95.9867 223.811 94.761 212.171H94.7266V211.517V191.922C94.8439 203.836 129.122 213.484 171.39 213.484ZM94.7266 191.799C94.7285 191.6 94.7401 191.401 94.761 191.203H94.7266V191.799Z" fill="url(#paint17_linear_1353_15822)"/>
<path opacity="0.4" fill-rule="evenodd" clip-rule="evenodd" d="M182.24 251.572H187.347V251.572H192.456C196.024 251.572 198.917 254.465 198.917 258.033V268.246C198.917 271.626 196.324 274.398 193.019 274.683C192.835 274.699 192.648 274.707 192.459 274.707L192.458 274.712H181.678V280.767H192.456C192.646 280.767 192.834 280.775 193.019 280.792C196.324 281.077 198.917 283.85 198.917 287.228V297.443C198.917 301.011 196.024 303.904 192.456 303.904H182.241C178.863 303.904 176.09 301.311 175.805 298.006C175.801 297.965 175.798 297.924 175.795 297.883H175.779V286.665H169.722V297.443C169.722 297.633 169.714 297.821 169.697 298.006C169.412 301.311 166.639 303.904 163.261 303.904H153.046C149.478 303.904 146.585 301.011 146.585 297.443V287.228C146.585 283.85 149.178 281.077 152.483 280.792C152.668 280.775 152.856 280.767 153.046 280.767H163.824V274.707L163.824 274.713H153.046C152.856 274.713 152.668 274.705 152.483 274.689C149.178 274.404 146.585 271.632 146.585 268.252V268.246V258.065V258.033C146.585 254.465 149.478 251.572 153.046 251.572H163.261C166.639 251.572 169.412 254.165 169.697 257.47C169.714 257.655 169.722 257.843 169.722 258.033V268.81H175.779V263.818V258.033C175.779 257.843 175.787 257.655 175.804 257.47C176.089 254.165 178.862 251.572 182.24 251.572ZM152.483 258.065L152.483 268.246C152.483 268.557 152.735 268.81 153.046 268.81H163.824V258.033C163.824 257.722 163.57 257.47 163.261 257.47H153.046C152.735 257.47 152.483 257.722 152.483 258.033L152.483 258.065ZM169.722 274.707H169.724V274.712H175.779V280.767H169.722V274.707ZM181.678 263.818V258.033C181.678 257.722 181.932 257.47 182.241 257.47H192.456C192.767 257.47 193.019 257.722 193.019 258.033V268.246C193.019 268.557 192.767 268.81 192.456 268.81H181.678V263.818ZM163.824 297.443C163.824 297.752 163.57 298.006 163.261 298.006H153.046C152.735 298.006 152.483 297.752 152.483 297.443V287.228C152.483 286.917 152.735 286.665 153.046 286.665H163.824V297.443ZM192.227 286.665C192.502 286.685 192.742 286.766 192.901 286.882C192.975 286.978 193.019 287.098 193.019 287.228V297.443C193.019 297.752 192.767 298.006 192.456 298.006H182.241C181.932 298.006 181.678 297.752 181.678 297.443V286.665H192.227Z" fill="white"/>
<g filter="url(#filter18_d_1353_15822)">
<path d="M256.347 324.408C256.62 324.408 256.89 324.408 257.16 324.408C257.216 324.408 257.275 324.408 257.331 324.408C257.354 324.408 257.374 324.408 257.397 324.408C257.947 324.398 258.49 324.382 259.033 324.355C259.066 324.355 259.099 324.355 259.135 324.352C259.708 324.322 260.274 324.283 260.837 324.237C260.837 324.237 260.837 324.237 260.84 324.237C260.857 324.237 260.873 324.237 260.889 324.233C261.176 324.207 261.459 324.181 261.742 324.151C261.837 324.141 261.933 324.131 262.028 324.118C262.236 324.095 262.443 324.072 262.65 324.046C262.756 324.033 262.861 324.019 262.966 324.006C263.171 323.98 263.375 323.95 263.575 323.921C263.671 323.908 263.766 323.894 263.858 323.878C264.132 323.835 264.402 323.792 264.668 323.746C264.688 323.743 264.711 323.74 264.731 323.736C265.02 323.687 265.307 323.634 265.593 323.578C265.682 323.562 265.768 323.546 265.853 323.526C266.054 323.486 266.255 323.447 266.452 323.404C266.551 323.384 266.65 323.361 266.752 323.338C266.946 323.295 267.137 323.253 267.328 323.206C267.42 323.183 267.512 323.164 267.604 323.141C267.838 323.085 268.068 323.025 268.295 322.966C268.335 322.956 268.374 322.946 268.411 322.937C268.417 322.937 268.424 322.933 268.43 322.93C268.717 322.854 269.003 322.775 269.286 322.696C269.365 322.673 269.444 322.65 269.527 322.627C269.737 322.565 269.948 322.502 270.155 322.44C270.241 322.413 270.326 322.387 270.412 322.361C270.656 322.285 270.896 322.206 271.133 322.124C271.169 322.11 271.205 322.101 271.245 322.087C271.518 321.995 271.788 321.896 272.054 321.801C272.077 321.791 272.104 321.785 272.127 321.775C272.16 321.761 272.193 321.748 272.226 321.735C272.588 321.6 272.946 321.462 273.299 321.317C273.315 321.311 273.335 321.301 273.351 321.294C273.7 321.149 274.046 321.001 274.388 320.85C274.411 320.84 274.438 320.83 274.464 320.817C274.477 320.81 274.487 320.807 274.5 320.8C274.773 320.675 275.046 320.55 275.313 320.419C275.379 320.386 275.441 320.356 275.507 320.323C275.738 320.211 275.965 320.096 276.189 319.977C276.222 319.961 276.258 319.945 276.291 319.925C276.304 319.918 276.317 319.908 276.333 319.902C276.567 319.78 276.798 319.655 277.025 319.527C277.074 319.5 277.123 319.471 277.173 319.441C277.351 319.339 277.528 319.237 277.703 319.135C277.736 319.115 277.769 319.099 277.802 319.079C277.821 319.066 277.841 319.053 277.864 319.039C278.259 318.802 278.644 318.559 279.019 318.305C279.039 318.292 279.059 318.282 279.075 318.269C279.089 318.259 279.098 318.253 279.112 318.243C279.48 317.993 279.842 317.739 280.191 317.476C280.198 317.469 280.204 317.466 280.211 317.459C280.211 317.459 280.218 317.456 280.221 317.453C280.566 317.193 280.902 316.929 281.228 316.656C281.228 316.656 281.228 316.656 281.231 316.653C281.235 316.65 281.241 316.646 281.245 316.64C281.544 316.39 281.837 316.133 282.12 315.873C282.12 315.873 282.127 315.866 282.13 315.866C282.403 315.613 282.666 315.359 282.923 315.096C282.933 315.086 282.946 315.076 282.956 315.063C282.959 315.06 282.966 315.053 282.969 315.05C283.203 314.81 283.43 314.566 283.651 314.319C283.667 314.3 283.687 314.28 283.707 314.26C283.716 314.25 283.726 314.237 283.736 314.227C283.944 313.99 284.144 313.75 284.339 313.506C284.355 313.483 284.375 313.463 284.395 313.44C284.408 313.424 284.421 313.404 284.434 313.388C284.622 313.151 284.799 312.907 284.974 312.664C284.987 312.644 285.003 312.624 285.017 312.604C285.033 312.581 285.046 312.558 285.063 312.535C285.234 312.288 285.402 312.038 285.56 311.785C285.566 311.772 285.576 311.758 285.586 311.745C285.599 311.722 285.612 311.699 285.626 311.676C285.787 311.413 285.945 311.146 286.09 310.876C286.09 310.873 286.093 310.87 286.096 310.863C286.103 310.853 286.106 310.843 286.113 310.83C286.267 310.544 286.412 310.257 286.547 309.968C286.551 309.958 286.557 309.948 286.56 309.938C286.56 309.935 286.56 309.932 286.564 309.928C286.699 309.635 286.824 309.339 286.939 309.04C286.946 309.02 286.955 309 286.962 308.98C286.969 308.967 286.972 308.951 286.978 308.938C287.011 308.855 287.038 308.773 287.067 308.691C287.1 308.602 287.133 308.516 287.163 308.427C287.192 308.345 287.215 308.263 287.245 308.177C287.268 308.105 287.294 308.032 287.317 307.957C287.321 307.94 287.327 307.924 287.331 307.907C287.36 307.809 287.387 307.706 287.416 307.608C287.439 307.529 287.462 307.45 287.482 307.371C287.508 307.265 287.535 307.16 287.558 307.055C287.574 306.989 287.591 306.923 287.607 306.854C287.607 306.844 287.61 306.838 287.614 306.828C287.65 306.656 287.686 306.485 287.716 306.314C287.716 306.298 287.722 306.281 287.726 306.265C287.759 306.077 287.788 305.89 287.818 305.699C287.818 305.692 287.818 305.685 287.821 305.679C287.838 305.57 287.847 305.462 287.861 305.35C287.867 305.287 287.877 305.228 287.884 305.165C287.903 304.988 287.917 304.807 287.93 304.629L288.667 293.484C288.654 293.665 288.641 293.842 288.621 294.02C288.614 294.083 288.604 294.142 288.598 294.204C288.585 294.32 288.572 294.438 288.555 294.553C288.529 294.744 288.499 294.932 288.463 295.12C288.463 295.136 288.456 295.149 288.453 295.166C288.42 295.337 288.387 295.511 288.348 295.682C288.331 295.755 288.312 295.827 288.295 295.903C288.269 296.012 288.246 296.117 288.216 296.222C288.196 296.301 288.173 296.377 288.15 296.453C288.121 296.555 288.094 296.657 288.065 296.755C288.038 296.844 288.009 296.93 287.982 297.019C287.956 297.104 287.93 297.187 287.9 297.272C287.87 297.358 287.838 297.447 287.808 297.532C287.778 297.618 287.749 297.7 287.716 297.786C287.703 297.819 287.689 297.852 287.676 297.884C287.561 298.184 287.436 298.48 287.298 298.773C287.291 298.786 287.285 298.8 287.278 298.809C287.143 299.102 286.998 299.389 286.843 299.675C286.837 299.688 286.83 299.701 286.82 299.718C286.672 299.988 286.518 300.254 286.353 300.518C286.33 300.554 286.31 300.587 286.29 300.623C286.132 300.876 285.965 301.127 285.79 301.374C285.761 301.416 285.731 301.456 285.701 301.499C285.527 301.742 285.346 301.986 285.161 302.223C285.132 302.262 285.099 302.302 285.066 302.341C284.872 302.585 284.671 302.825 284.464 303.062C284.437 303.092 284.408 303.121 284.381 303.154C284.161 303.401 283.934 303.648 283.7 303.888C283.687 303.905 283.67 303.918 283.654 303.934C283.397 304.194 283.134 304.451 282.861 304.705C282.861 304.705 282.854 304.711 282.851 304.714C282.568 304.974 282.271 305.235 281.972 305.485C281.965 305.488 281.962 305.495 281.955 305.498C281.63 305.768 281.294 306.034 280.948 306.294C280.938 306.301 280.929 306.311 280.919 306.317C280.57 306.577 280.208 306.834 279.839 307.084C279.809 307.104 279.776 307.124 279.747 307.147C279.372 307.397 278.986 307.644 278.592 307.881C278.539 307.914 278.486 307.943 278.434 307.976C278.259 308.082 278.081 308.184 277.904 308.283C277.854 308.312 277.805 308.338 277.755 308.368C277.528 308.496 277.298 308.622 277.064 308.743C277.018 308.77 276.969 308.793 276.923 308.816C276.699 308.934 276.468 309.049 276.238 309.161C276.172 309.194 276.11 309.224 276.044 309.257C275.777 309.385 275.504 309.514 275.231 309.639C275.195 309.655 275.158 309.672 275.122 309.688C274.783 309.839 274.438 309.991 274.085 310.132C274.069 310.139 274.049 310.149 274.033 310.155C273.68 310.3 273.322 310.438 272.96 310.573C272.904 310.593 272.844 310.616 272.788 310.636C272.522 310.735 272.252 310.83 271.979 310.922C271.943 310.936 271.906 310.945 271.87 310.959C271.633 311.041 271.39 311.117 271.149 311.196C271.064 311.222 270.978 311.248 270.893 311.278C270.685 311.344 270.474 311.406 270.264 311.465C270.185 311.488 270.106 311.512 270.024 311.535C269.74 311.617 269.454 311.693 269.168 311.768C269.122 311.781 269.079 311.791 269.033 311.801C268.802 311.86 268.572 311.92 268.338 311.976C268.246 311.999 268.154 312.018 268.062 312.041C267.871 312.088 267.68 312.13 267.486 312.173C267.387 312.196 267.288 312.216 267.186 312.239C266.985 312.282 266.785 312.321 266.584 312.361C266.498 312.377 266.413 312.397 266.327 312.413C266.041 312.469 265.754 312.522 265.461 312.571C265.442 312.575 265.419 312.578 265.399 312.581C265.129 312.627 264.859 312.67 264.589 312.713C264.494 312.726 264.398 312.739 264.306 312.756C264.102 312.785 263.901 312.815 263.697 312.841C263.592 312.854 263.486 312.868 263.381 312.881C263.174 312.907 262.966 312.93 262.759 312.953C262.664 312.963 262.568 312.976 262.473 312.986C262.19 313.016 261.903 313.045 261.62 313.068C261.604 313.068 261.587 313.072 261.568 313.072C261.005 313.121 260.439 313.161 259.866 313.187C259.833 313.187 259.8 313.187 259.764 313.19C259.224 313.217 258.678 313.236 258.128 313.243C258.049 313.243 257.97 313.243 257.891 313.243C257.621 313.243 257.351 313.246 257.078 313.243C256.986 313.243 256.893 313.243 256.805 313.243C256.459 313.243 256.113 313.233 255.764 313.223C255.498 313.217 255.228 313.207 254.961 313.194C254.596 313.177 254.231 313.154 253.869 313.131C253.79 313.124 253.711 313.121 253.632 313.115C253.092 313.075 252.555 313.029 252.022 312.973C251.956 312.966 251.89 312.96 251.821 312.953C251.337 312.901 250.857 312.841 250.376 312.779C250.307 312.769 250.235 312.759 250.166 312.749C249.705 312.683 249.25 312.614 248.796 312.539C248.724 312.525 248.655 312.515 248.582 312.502C248.141 312.427 247.7 312.344 247.266 312.255C247.2 312.242 247.134 312.229 247.068 312.216C246.637 312.127 246.209 312.035 245.784 311.933C245.745 311.923 245.705 311.913 245.666 311.903C245.238 311.801 244.813 311.696 244.392 311.584C244.372 311.577 244.349 311.574 244.33 311.567C243.918 311.456 243.51 311.34 243.102 311.219C243.039 311.199 242.98 311.182 242.917 311.163C242.529 311.044 242.144 310.922 241.762 310.794C241.693 310.771 241.624 310.748 241.555 310.725C241.173 310.596 240.794 310.465 240.422 310.327C240.367 310.307 240.311 310.284 240.255 310.264C239.863 310.119 239.478 309.968 239.093 309.813C239.07 309.803 239.047 309.793 239.027 309.787C238.635 309.629 238.25 309.464 237.872 309.293C237.845 309.28 237.816 309.27 237.789 309.257C237.398 309.082 237.009 308.901 236.627 308.714C236.585 308.694 236.542 308.671 236.499 308.651C236.124 308.467 235.752 308.276 235.386 308.082C235.337 308.055 235.291 308.032 235.242 308.006C234.85 307.795 234.468 307.581 234.09 307.361C234.05 307.338 234.011 307.315 233.971 307.292C233.56 307.051 233.161 306.801 232.766 306.548C232.747 306.535 232.727 306.522 232.707 306.512C232.279 306.232 231.861 305.949 231.453 305.656C231.404 305.62 231.354 305.583 231.305 305.547C231.144 305.429 230.982 305.31 230.821 305.192C230.752 305.139 230.683 305.086 230.614 305.034C230.465 304.919 230.317 304.803 230.169 304.685C230.11 304.639 230.051 304.593 229.992 304.543C229.768 304.362 229.544 304.178 229.33 303.99C229.287 303.954 229.244 303.915 229.198 303.875C229.014 303.717 228.836 303.556 228.658 303.391C228.612 303.348 228.566 303.306 228.52 303.266C228.263 303.029 228.017 302.786 227.773 302.542C227.733 302.503 227.694 302.46 227.654 302.42C227.418 302.177 227.184 301.93 226.96 301.68C226.917 301.63 226.874 301.581 226.828 301.535C226.687 301.377 226.549 301.216 226.414 301.054C226.377 301.011 226.338 300.969 226.305 300.923C226.14 300.725 225.979 300.524 225.824 300.323C225.788 300.277 225.755 300.231 225.719 300.185C225.594 300.021 225.472 299.856 225.354 299.688C225.314 299.632 225.275 299.576 225.235 299.52C225.09 299.313 224.949 299.106 224.811 298.895C224.801 298.878 224.791 298.862 224.781 298.849C224.656 298.655 224.534 298.457 224.416 298.256C224.379 298.197 224.346 298.138 224.31 298.079C224.205 297.898 224.106 297.72 224.007 297.539C223.988 297.499 223.965 297.463 223.945 297.424C223.83 297.21 223.724 296.992 223.619 296.775C223.593 296.719 223.566 296.667 223.543 296.611C223.461 296.436 223.385 296.262 223.31 296.084C223.287 296.028 223.26 295.969 223.237 295.913C223.145 295.692 223.059 295.468 222.977 295.245C222.964 295.212 222.954 295.175 222.941 295.143C222.872 294.948 222.809 294.754 222.747 294.56C222.727 294.497 222.707 294.432 222.688 294.369C222.625 294.165 222.569 293.961 222.516 293.757C222.51 293.73 222.503 293.704 222.497 293.681C222.441 293.454 222.388 293.224 222.342 292.993C222.329 292.931 222.319 292.868 222.306 292.809C222.269 292.625 222.24 292.44 222.21 292.253C222.2 292.197 222.194 292.141 222.184 292.088C222.151 291.858 222.125 291.624 222.102 291.39C222.098 291.341 222.095 291.295 222.092 291.245C222.075 291.054 222.065 290.86 222.056 290.666C222.056 290.6 222.049 290.534 222.049 290.469C222.042 290.232 222.039 289.995 222.042 289.754C222.046 289.521 222.056 289.29 222.072 289.06L221.335 300.205C221.318 300.435 221.308 300.666 221.305 300.9C221.302 301.137 221.305 301.377 221.312 301.614C221.312 301.68 221.315 301.745 221.318 301.811C221.328 302.005 221.338 302.196 221.354 302.391C221.358 302.44 221.361 302.486 221.364 302.535C221.387 302.769 221.414 303 221.447 303.233C221.453 303.289 221.463 303.345 221.473 303.398C221.503 303.582 221.532 303.77 221.568 303.954C221.582 304.017 221.591 304.079 221.605 304.138C221.651 304.369 221.703 304.599 221.759 304.826C221.766 304.853 221.772 304.876 221.779 304.902C221.832 305.106 221.891 305.314 221.95 305.518C221.97 305.58 221.99 305.646 222.009 305.709C222.072 305.903 222.135 306.097 222.204 306.291C222.217 306.324 222.227 306.36 222.24 306.396C222.322 306.62 222.408 306.841 222.5 307.065C222.523 307.121 222.549 307.18 222.572 307.236C222.648 307.41 222.724 307.588 222.806 307.762C222.832 307.818 222.855 307.871 222.882 307.927C222.987 308.144 223.092 308.362 223.208 308.575C223.227 308.615 223.25 308.651 223.27 308.691C223.369 308.872 223.468 309.053 223.573 309.23C223.609 309.29 223.642 309.349 223.678 309.408C223.797 309.606 223.915 309.803 224.044 309.997C224.054 310.014 224.063 310.03 224.073 310.047C224.208 310.257 224.35 310.465 224.495 310.672C224.534 310.728 224.574 310.784 224.613 310.84C224.732 311.005 224.853 311.173 224.978 311.334C225.015 311.38 225.048 311.426 225.084 311.472C225.238 311.673 225.4 311.874 225.564 312.071C225.601 312.114 225.637 312.157 225.673 312.199C225.808 312.361 225.946 312.522 226.088 312.68C226.114 312.71 226.14 312.743 226.17 312.772C226.186 312.789 226.203 312.808 226.219 312.825C226.443 313.075 226.677 313.322 226.914 313.562C226.953 313.602 226.996 313.644 227.036 313.684C227.276 313.928 227.526 314.168 227.78 314.405C227.796 314.418 227.809 314.434 227.822 314.448C227.852 314.477 227.885 314.504 227.918 314.533C228.096 314.694 228.273 314.856 228.458 315.014C228.5 315.053 228.547 315.089 228.589 315.129C228.807 315.317 229.027 315.498 229.251 315.682C229.267 315.695 229.284 315.712 229.304 315.725C229.346 315.758 229.389 315.791 229.432 315.823C229.577 315.939 229.725 316.054 229.873 316.169C229.942 316.222 230.011 316.274 230.08 316.327C230.238 316.446 230.4 316.564 230.561 316.683C230.604 316.712 230.643 316.742 230.683 316.775C230.693 316.781 230.699 316.788 230.709 316.795C231.117 317.087 231.535 317.371 231.963 317.65C231.97 317.654 231.976 317.657 231.98 317.663C231.993 317.673 232.009 317.68 232.022 317.69C232.414 317.943 232.816 318.19 233.227 318.434C233.24 318.444 233.257 318.45 233.27 318.46C233.296 318.473 233.323 318.486 233.346 318.503C233.724 318.723 234.106 318.941 234.498 319.148C234.517 319.158 234.534 319.168 234.55 319.178C234.58 319.194 234.61 319.207 234.639 319.224C235.005 319.418 235.373 319.609 235.752 319.793C235.768 319.8 235.781 319.81 235.795 319.816C235.824 319.829 235.854 319.843 235.88 319.856C236.262 320.04 236.647 320.221 237.039 320.399C237.045 320.402 237.055 320.405 237.062 320.409C237.082 320.419 237.105 320.425 237.124 320.435C237.503 320.603 237.888 320.767 238.276 320.925C238.293 320.932 238.309 320.939 238.326 320.945C238.332 320.945 238.339 320.948 238.346 320.952C238.727 321.106 239.116 321.258 239.504 321.403C239.54 321.416 239.573 321.429 239.609 321.442C239.629 321.449 239.652 321.459 239.675 321.465C240.047 321.603 240.426 321.735 240.808 321.864C240.844 321.877 240.877 321.89 240.91 321.9C240.943 321.91 240.979 321.923 241.012 321.933C241.393 322.058 241.779 322.183 242.167 322.301C242.19 322.308 242.213 322.318 242.236 322.324C242.276 322.338 242.315 322.347 242.351 322.357C242.756 322.479 243.164 322.594 243.576 322.706C243.582 322.706 243.586 322.706 243.592 322.709C243.609 322.713 243.625 322.716 243.642 322.723C244.06 322.835 244.484 322.94 244.912 323.042C244.942 323.048 244.968 323.055 244.998 323.065C245.011 323.065 245.021 323.072 245.034 323.072C245.459 323.17 245.886 323.266 246.318 323.355C246.357 323.364 246.397 323.371 246.436 323.381C246.463 323.388 246.489 323.391 246.515 323.394C246.95 323.483 247.391 323.565 247.832 323.641C247.871 323.648 247.908 323.654 247.944 323.661C247.977 323.667 248.013 323.671 248.046 323.677C248.5 323.753 248.954 323.825 249.415 323.888C249.448 323.891 249.484 323.898 249.517 323.904C249.553 323.911 249.59 323.914 249.626 323.917C250.103 323.983 250.584 324.043 251.071 324.092C251.104 324.095 251.137 324.102 251.166 324.105C251.199 324.108 251.235 324.112 251.268 324.115C251.801 324.171 252.338 324.217 252.878 324.256C252.914 324.256 252.947 324.263 252.983 324.266C253.026 324.266 253.072 324.27 253.115 324.273C253.477 324.296 253.842 324.319 254.208 324.335C254.468 324.349 254.728 324.359 254.984 324.365C254.994 324.365 255.004 324.365 255.011 324.365C255.36 324.375 255.705 324.382 256.051 324.385C256.143 324.385 256.235 324.385 256.324 324.385L256.347 324.408Z" fill="url(#paint18_linear_1353_15822)"/>
<path d="M288.693 292.804C288.469 304.911 273.367 314.048 254.964 313.212C236.561 312.376 221.828 301.879 222.052 289.773C222.276 277.667 237.374 268.529 255.777 269.368C274.18 270.205 288.917 280.698 288.693 292.804Z" fill="url(#paint19_linear_1353_15822)" stroke="url(#paint20_linear_1353_15822)" stroke-width="1.05925" stroke-miterlimit="10"/>
<path opacity="0.3" d="M282.189 291.801C282.007 301.155 269.728 308.215 254.765 307.569C239.802 306.923 227.823 298.812 228.005 289.458C228.187 280.104 240.463 273.044 255.426 273.693C270.39 274.339 282.371 282.447 282.189 291.801Z" stroke="white" stroke-width="0.722515" stroke-miterlimit="10"/>
<path opacity="0.3" d="M252.245 297.505C251.343 297.792 250.264 297.907 249.013 297.851C247.436 297.779 246.037 297.446 244.819 296.85C243.605 296.258 242.65 295.432 241.959 294.378C241.505 293.681 241.205 292.9 241.06 292.031L238.872 291.933C238.345 291.91 237.924 291.607 237.93 291.258L237.95 290.152C237.957 289.803 238.388 289.54 238.914 289.563L241.037 289.658C241.176 288.664 241.505 287.831 242.025 287.078C242.706 286.097 243.664 285.35 244.895 284.833C245.84 284.434 246.926 284.194 248.137 284.115C248.727 284.072 249.26 284.395 249.253 284.79L249.224 286.33C249.217 286.623 248.921 286.877 248.49 286.92C247.792 286.992 247.193 287.16 246.689 287.42C246.014 287.772 245.514 288.24 245.178 288.825C245 289.141 244.866 289.474 244.78 289.826L254.082 290.251L254.352 289.632C254.987 288.177 255.905 287.048 257.1 286.238C258.295 285.429 259.865 285.066 261.807 285.155C263.41 285.228 264.809 285.583 265.997 286.215C267.186 286.847 268.104 287.673 268.749 288.69C269.197 289.392 269.486 290.149 269.612 290.958L271.856 291.06C272.383 291.083 272.804 291.386 272.798 291.735L272.778 292.841C272.771 293.19 272.34 293.453 271.814 293.427L269.546 293.325C269.381 294.069 269.075 294.744 268.634 295.349C267.949 296.278 267.028 296.995 265.859 297.495C264.99 297.867 264.026 298.091 262.976 298.164C262.393 298.203 261.866 297.877 261.876 297.486L261.903 296.011C261.909 295.718 262.196 295.478 262.61 295.425C263.572 295.3 264.348 294.964 264.938 294.421C265.336 294.059 265.629 293.634 265.813 293.151L257.002 292.749L256.949 292.877C256.718 293.457 256.416 294.049 256.031 294.652C255.645 295.254 255.145 295.807 254.53 296.31C253.911 296.811 253.15 297.209 252.245 297.495L252.245 297.505ZM246.738 294.454C247.407 294.839 248.197 295.053 249.105 295.093C249.931 295.129 250.609 295.007 251.139 294.721C251.672 294.434 252.114 294.036 252.469 293.526C252.67 293.233 252.861 292.917 253.038 292.581L244.866 292.209C244.948 292.459 245.053 292.696 245.185 292.923C245.55 293.559 246.07 294.066 246.738 294.454ZM258.005 290.435L265.945 290.797C265.862 290.458 265.727 290.142 265.553 289.852C265.204 289.283 264.724 288.832 264.108 288.496C263.493 288.164 262.791 287.983 262.001 287.947C261.337 287.917 260.764 287.993 260.28 288.18C259.793 288.368 259.388 288.621 259.062 288.951C258.733 289.273 258.46 289.629 258.236 290.01C258.154 290.155 258.078 290.297 258.005 290.438" fill="white"/>
</g>
<g filter="url(#filter19_d_1353_15822)">
<path d="M281.202 306.4C281.475 306.4 281.745 306.4 282.015 306.4C282.071 306.4 282.13 306.4 282.186 306.4C282.209 306.4 282.229 306.4 282.252 306.4C282.801 306.39 283.344 306.374 283.888 306.348C283.92 306.348 283.953 306.348 283.99 306.344C284.562 306.315 285.128 306.275 285.691 306.229C285.691 306.229 285.691 306.229 285.695 306.229C285.711 306.229 285.727 306.229 285.744 306.226C286.03 306.2 286.313 306.173 286.596 306.144C286.692 306.134 286.787 306.124 286.883 306.111C287.09 306.088 287.298 306.065 287.505 306.038C287.61 306.025 287.716 306.012 287.821 305.999C288.025 305.972 288.229 305.943 288.43 305.913C288.525 305.9 288.621 305.887 288.713 305.87C288.986 305.828 289.256 305.785 289.523 305.739C289.542 305.735 289.565 305.732 289.585 305.729C289.875 305.679 290.161 305.627 290.448 305.571C290.536 305.554 290.622 305.538 290.708 305.518C290.908 305.479 291.109 305.439 291.307 305.396C291.405 305.377 291.504 305.354 291.606 305.331C291.8 305.288 291.991 305.245 292.182 305.199C292.274 305.176 292.367 305.156 292.459 305.133C292.692 305.077 292.923 305.018 293.15 304.959C293.189 304.949 293.229 304.939 293.265 304.929C293.272 304.929 293.278 304.926 293.285 304.922C293.571 304.847 293.858 304.768 294.141 304.689C294.22 304.666 294.299 304.643 294.381 304.62C294.592 304.557 294.802 304.495 295.01 304.432C295.095 304.406 295.181 304.379 295.266 304.353C295.51 304.277 295.75 304.198 295.987 304.116C296.024 304.103 296.06 304.093 296.099 304.08C296.372 303.988 296.642 303.889 296.909 303.793C296.932 303.784 296.958 303.777 296.981 303.767C297.014 303.754 297.047 303.741 297.08 303.728C297.442 303.593 297.801 303.454 298.153 303.31C298.17 303.303 298.189 303.293 298.206 303.287C298.555 303.142 298.9 302.994 299.243 302.842C299.266 302.832 299.292 302.822 299.318 302.809C299.332 302.803 299.341 302.799 299.355 302.793C299.628 302.668 299.901 302.543 300.168 302.411C300.233 302.378 300.296 302.348 300.362 302.315C300.592 302.204 300.819 302.088 301.043 301.97C301.076 301.953 301.112 301.937 301.145 301.917C301.158 301.911 301.172 301.901 301.188 301.894C301.422 301.772 301.652 301.647 301.879 301.519C301.929 301.493 301.978 301.463 302.027 301.433C302.205 301.331 302.383 301.229 302.557 301.127C302.59 301.107 302.623 301.091 302.656 301.071C302.676 301.058 302.696 301.045 302.719 301.032C303.114 300.795 303.499 300.551 303.874 300.298C303.894 300.285 303.913 300.275 303.93 300.262C303.943 300.252 303.953 300.245 303.966 300.235C304.335 299.985 304.697 299.732 305.046 299.468C305.052 299.462 305.059 299.458 305.065 299.452C305.065 299.452 305.072 299.449 305.075 299.445C305.421 299.185 305.757 298.922 306.083 298.649C306.083 298.649 306.083 298.649 306.086 298.645C306.089 298.642 306.096 298.639 306.099 298.632C306.399 298.382 306.691 298.125 306.975 297.865C306.975 297.865 306.981 297.859 306.984 297.859C307.258 297.605 307.521 297.352 307.778 297.088C307.788 297.079 307.801 297.069 307.811 297.056C307.814 297.052 307.82 297.046 307.824 297.042C308.057 296.802 308.285 296.559 308.505 296.312C308.522 296.292 308.541 296.272 308.561 296.252C308.571 296.243 308.581 296.229 308.591 296.22C308.798 295.983 308.999 295.742 309.193 295.499C309.21 295.476 309.229 295.456 309.249 295.433C309.262 295.416 309.275 295.397 309.289 295.38C309.476 295.143 309.654 294.9 309.828 294.656C309.842 294.636 309.858 294.617 309.871 294.597C309.888 294.574 309.901 294.551 309.917 294.528C310.088 294.281 310.256 294.031 310.414 293.777C310.421 293.764 310.431 293.751 310.441 293.738C310.454 293.715 310.467 293.692 310.48 293.669C310.641 293.405 310.799 293.139 310.944 292.869C310.944 292.865 310.947 292.862 310.951 292.856C310.957 292.846 310.961 292.836 310.967 292.823C311.122 292.536 311.267 292.25 311.402 291.96C311.405 291.95 311.412 291.94 311.415 291.931C311.415 291.927 311.415 291.924 311.418 291.921C311.553 291.628 311.678 291.332 311.793 291.032C311.8 291.012 311.81 290.993 311.816 290.973C311.823 290.96 311.826 290.943 311.833 290.93C311.866 290.848 311.892 290.765 311.922 290.683C311.955 290.594 311.988 290.509 312.017 290.42C312.047 290.337 312.07 290.255 312.1 290.17C312.123 290.097 312.149 290.025 312.172 289.949C312.175 289.933 312.182 289.916 312.185 289.9C312.215 289.801 312.241 289.699 312.271 289.6C312.294 289.521 312.317 289.442 312.337 289.363C312.363 289.258 312.389 289.153 312.412 289.047C312.429 288.981 312.445 288.916 312.462 288.846C312.462 288.837 312.465 288.83 312.468 288.82C312.504 288.649 312.541 288.478 312.57 288.307C312.57 288.29 312.577 288.274 312.58 288.257C312.613 288.07 312.643 287.882 312.672 287.691C312.672 287.684 312.672 287.678 312.676 287.671C312.692 287.563 312.702 287.454 312.715 287.342C312.722 287.28 312.732 287.22 312.738 287.158C312.758 286.98 312.771 286.799 312.784 286.621L313.521 275.476C313.508 275.657 313.495 275.835 313.475 276.013C313.469 276.075 313.459 276.134 313.452 276.197C313.439 276.312 313.426 276.431 313.41 276.546C313.383 276.737 313.354 276.924 313.317 277.112C313.317 277.128 313.311 277.142 313.308 277.158C313.275 277.329 313.242 277.504 313.202 277.675C313.186 277.747 313.166 277.82 313.15 277.895C313.123 278.004 313.1 278.109 313.071 278.215C313.051 278.294 313.028 278.369 313.005 278.445C312.975 278.547 312.949 278.649 312.919 278.748C312.893 278.837 312.863 278.922 312.837 279.011C312.811 279.097 312.784 279.179 312.755 279.265C312.725 279.35 312.692 279.439 312.662 279.525C312.633 279.61 312.603 279.693 312.57 279.778C312.557 279.811 312.544 279.844 312.531 279.877C312.416 280.176 312.29 280.473 312.152 280.766C312.146 280.779 312.139 280.792 312.132 280.802C311.997 281.095 311.853 281.381 311.698 281.667C311.691 281.681 311.685 281.694 311.675 281.71C311.527 281.98 311.372 282.247 311.208 282.51C311.184 282.546 311.165 282.579 311.145 282.615C310.987 282.869 310.819 283.119 310.645 283.366C310.615 283.409 310.585 283.448 310.556 283.491C310.381 283.735 310.2 283.978 310.016 284.215C309.986 284.255 309.953 284.294 309.921 284.334C309.726 284.577 309.526 284.818 309.318 285.055C309.292 285.084 309.262 285.114 309.236 285.147C309.015 285.394 308.788 285.64 308.555 285.881C308.541 285.897 308.525 285.91 308.508 285.927C308.252 286.187 307.988 286.444 307.715 286.697C307.715 286.697 307.709 286.704 307.705 286.707C307.422 286.967 307.126 287.227 306.826 287.477C306.82 287.48 306.817 287.487 306.81 287.49C306.484 287.76 306.148 288.027 305.803 288.287C305.793 288.293 305.783 288.303 305.773 288.31C305.424 288.57 305.062 288.827 304.693 289.077C304.664 289.097 304.631 289.116 304.601 289.139C304.226 289.39 303.841 289.636 303.446 289.873C303.393 289.906 303.341 289.936 303.288 289.969C303.114 290.074 302.936 290.176 302.758 290.275C302.709 290.305 302.659 290.331 302.61 290.361C302.383 290.489 302.152 290.614 301.919 290.736C301.873 290.762 301.823 290.785 301.777 290.808C301.553 290.927 301.323 291.042 301.093 291.154C301.027 291.187 300.964 291.216 300.898 291.249C300.632 291.378 300.359 291.506 300.085 291.631C300.049 291.648 300.013 291.664 299.977 291.68C299.638 291.832 299.292 291.983 298.94 292.125C298.923 292.131 298.904 292.141 298.887 292.148C298.535 292.293 298.176 292.431 297.814 292.566C297.758 292.586 297.699 292.609 297.643 292.628C297.376 292.727 297.106 292.823 296.833 292.915C296.797 292.928 296.761 292.938 296.725 292.951C296.488 293.033 296.244 293.109 296.004 293.188C295.918 293.214 295.833 293.241 295.747 293.27C295.54 293.336 295.329 293.399 295.118 293.458C295.039 293.481 294.96 293.504 294.878 293.527C294.595 293.609 294.309 293.685 294.022 293.761C293.976 293.774 293.933 293.784 293.887 293.794C293.657 293.853 293.426 293.912 293.193 293.968C293.101 293.991 293.008 294.011 292.916 294.034C292.725 294.08 292.534 294.123 292.34 294.166C292.241 294.189 292.143 294.208 292.041 294.231C291.84 294.274 291.639 294.314 291.438 294.353C291.353 294.37 291.267 294.389 291.182 294.406C290.895 294.462 290.609 294.514 290.316 294.564C290.296 294.567 290.273 294.57 290.253 294.574C289.983 294.62 289.714 294.663 289.444 294.705C289.348 294.719 289.253 294.732 289.161 294.748C288.957 294.778 288.756 294.807 288.552 294.834C288.446 294.847 288.341 294.86 288.236 294.873C288.028 294.9 287.821 294.923 287.614 294.946C287.518 294.956 287.423 294.969 287.327 294.979C287.044 295.008 286.758 295.038 286.475 295.061C286.458 295.061 286.442 295.064 286.422 295.064C285.859 295.114 285.293 295.153 284.72 295.179C284.687 295.179 284.654 295.179 284.618 295.183C284.078 295.209 283.532 295.229 282.982 295.235C282.903 295.235 282.824 295.235 282.745 295.235C282.475 295.235 282.206 295.239 281.932 295.235C281.84 295.235 281.748 295.235 281.659 295.235C281.313 295.235 280.968 295.225 280.619 295.216C280.352 295.209 280.082 295.199 279.816 295.186C279.45 295.17 279.085 295.146 278.723 295.123C278.644 295.117 278.565 295.114 278.486 295.107C277.946 295.067 277.41 295.021 276.876 294.965C276.811 294.959 276.745 294.952 276.676 294.946C276.192 294.893 275.711 294.834 275.231 294.771C275.162 294.761 275.089 294.751 275.02 294.742C274.559 294.676 274.105 294.607 273.651 294.531C273.578 294.518 273.509 294.508 273.437 294.495C272.996 294.419 272.555 294.337 272.12 294.248C272.054 294.235 271.988 294.222 271.923 294.208C271.491 294.119 271.064 294.027 270.639 293.925C270.599 293.915 270.56 293.906 270.52 293.896C270.093 293.794 269.668 293.688 269.247 293.576C269.227 293.57 269.204 293.567 269.184 293.56C268.773 293.448 268.364 293.333 267.956 293.211C267.894 293.191 267.835 293.175 267.772 293.155C267.384 293.037 266.998 292.915 266.617 292.786C266.548 292.763 266.478 292.74 266.409 292.717C266.027 292.589 265.649 292.457 265.277 292.319C265.221 292.299 265.165 292.276 265.109 292.256C264.717 292.112 264.332 291.96 263.947 291.806C263.924 291.796 263.901 291.786 263.881 291.779C263.49 291.621 263.105 291.457 262.726 291.285C262.7 291.272 262.67 291.262 262.644 291.249C262.252 291.075 261.864 290.894 261.482 290.706C261.439 290.686 261.396 290.663 261.353 290.644C260.978 290.459 260.606 290.268 260.241 290.074C260.192 290.048 260.145 290.025 260.096 289.998C259.704 289.788 259.323 289.574 258.944 289.353C258.905 289.33 258.865 289.307 258.825 289.284C258.414 289.044 258.016 288.794 257.621 288.54C257.601 288.527 257.581 288.514 257.562 288.504C257.134 288.224 256.716 287.941 256.307 287.648C256.258 287.612 256.209 287.576 256.159 287.54C255.998 287.421 255.837 287.303 255.675 287.184C255.606 287.131 255.537 287.079 255.468 287.026C255.32 286.911 255.172 286.796 255.024 286.677C254.964 286.631 254.905 286.585 254.846 286.536C254.622 286.355 254.398 286.17 254.184 285.983C254.142 285.947 254.099 285.907 254.053 285.868C253.868 285.71 253.691 285.548 253.513 285.384C253.467 285.341 253.421 285.298 253.375 285.259C253.118 285.022 252.871 284.778 252.627 284.534C252.588 284.495 252.548 284.452 252.509 284.413C252.272 284.169 252.038 283.922 251.814 283.672C251.772 283.623 251.729 283.573 251.683 283.527C251.541 283.369 251.403 283.208 251.268 283.047C251.232 283.004 251.192 282.961 251.159 282.915C250.995 282.718 250.834 282.517 250.679 282.316C250.643 282.27 250.61 282.224 250.574 282.178C250.448 282.013 250.327 281.849 250.208 281.681C250.169 281.625 250.129 281.569 250.09 281.513C249.945 281.305 249.803 281.098 249.665 280.887C249.655 280.871 249.645 280.854 249.635 280.841C249.51 280.647 249.389 280.45 249.27 280.249C249.234 280.19 249.201 280.13 249.165 280.071C249.059 279.89 248.961 279.712 248.862 279.531C248.842 279.492 248.819 279.456 248.799 279.416C248.684 279.202 248.579 278.985 248.474 278.768C248.447 278.712 248.421 278.659 248.398 278.603C248.316 278.429 248.24 278.254 248.164 278.076C248.141 278.02 248.115 277.961 248.092 277.905C248 277.685 247.914 277.461 247.832 277.237C247.819 277.204 247.809 277.168 247.795 277.135C247.726 276.941 247.664 276.747 247.601 276.552C247.582 276.49 247.562 276.424 247.542 276.361C247.479 276.157 247.424 275.953 247.371 275.749C247.364 275.723 247.358 275.697 247.351 275.674C247.295 275.446 247.242 275.216 247.196 274.986C247.183 274.923 247.173 274.861 247.16 274.801C247.124 274.617 247.094 274.433 247.065 274.245C247.055 274.189 247.048 274.133 247.038 274.08C247.005 273.85 246.979 273.616 246.956 273.383C246.953 273.333 246.95 273.287 246.946 273.238C246.93 273.047 246.92 272.853 246.91 272.658C246.91 272.593 246.903 272.527 246.903 272.461C246.897 272.224 246.894 271.987 246.897 271.747C246.9 271.513 246.91 271.283 246.926 271.052L246.189 282.197C246.173 282.428 246.163 282.658 246.16 282.892C246.156 283.129 246.16 283.369 246.166 283.606C246.166 283.672 246.169 283.738 246.173 283.804C246.183 283.998 246.192 284.189 246.209 284.383C246.212 284.432 246.216 284.478 246.219 284.528C246.242 284.762 246.268 284.992 246.301 285.226C246.308 285.282 246.318 285.338 246.327 285.39C246.357 285.575 246.387 285.762 246.423 285.947C246.436 286.009 246.446 286.072 246.459 286.131C246.505 286.361 246.558 286.592 246.614 286.819C246.62 286.845 246.627 286.868 246.634 286.894C246.686 287.099 246.745 287.306 246.805 287.51C246.824 287.573 246.844 287.638 246.864 287.701C246.926 287.895 246.989 288.089 247.058 288.284C247.071 288.316 247.081 288.353 247.094 288.389C247.177 288.613 247.262 288.833 247.354 289.057C247.377 289.113 247.404 289.172 247.427 289.228C247.503 289.403 247.578 289.58 247.661 289.755C247.687 289.811 247.71 289.863 247.736 289.919C247.842 290.137 247.947 290.354 248.062 290.568C248.082 290.607 248.105 290.644 248.125 290.683C248.223 290.864 248.322 291.045 248.427 291.223C248.464 291.282 248.497 291.341 248.533 291.401C248.651 291.598 248.77 291.796 248.898 291.99C248.908 292.006 248.918 292.023 248.928 292.039C249.063 292.25 249.204 292.457 249.349 292.665C249.389 292.721 249.428 292.777 249.468 292.832C249.586 292.997 249.708 293.165 249.833 293.326C249.869 293.372 249.902 293.418 249.938 293.464C250.093 293.665 250.254 293.866 250.419 294.064C250.455 294.106 250.491 294.149 250.527 294.192C250.662 294.353 250.801 294.514 250.942 294.672C250.969 294.702 250.995 294.735 251.024 294.765C251.041 294.781 251.057 294.801 251.074 294.817C251.298 295.067 251.531 295.314 251.768 295.555C251.808 295.594 251.851 295.637 251.89 295.676C252.13 295.92 252.381 296.16 252.634 296.397C252.651 296.41 252.664 296.427 252.677 296.44C252.706 296.47 252.739 296.496 252.772 296.526C252.95 296.687 253.128 296.848 253.312 297.006C253.355 297.046 253.401 297.082 253.444 297.121C253.661 297.309 253.882 297.49 254.105 297.674C254.122 297.688 254.138 297.704 254.158 297.717C254.201 297.75 254.244 297.783 254.286 297.816C254.431 297.931 254.579 298.046 254.728 298.162C254.797 298.214 254.866 298.267 254.935 298.32C255.093 298.438 255.254 298.557 255.415 298.675C255.458 298.705 255.498 298.734 255.537 298.767C255.547 298.774 255.554 298.78 255.564 298.787C255.972 299.08 256.39 299.363 256.818 299.643C256.824 299.646 256.831 299.649 256.834 299.656C256.847 299.666 256.864 299.672 256.877 299.682C257.269 299.936 257.67 300.183 258.082 300.426C258.095 300.436 258.111 300.443 258.124 300.452C258.151 300.466 258.177 300.479 258.2 300.495C258.579 300.716 258.96 300.933 259.352 301.14C259.372 301.15 259.388 301.16 259.405 301.17C259.434 301.186 259.464 301.2 259.494 301.216C259.859 301.41 260.228 301.601 260.606 301.786C260.623 301.792 260.636 301.802 260.649 301.809C260.679 301.822 260.708 301.835 260.735 301.848C261.116 302.032 261.502 302.213 261.893 302.391C261.9 302.394 261.91 302.398 261.916 302.401C261.936 302.411 261.959 302.418 261.979 302.427C262.357 302.595 262.742 302.76 263.131 302.918C263.147 302.924 263.164 302.931 263.18 302.938C263.187 302.938 263.193 302.941 263.2 302.944C263.582 303.099 263.97 303.25 264.359 303.395C264.395 303.408 264.428 303.421 264.464 303.435C264.484 303.441 264.507 303.451 264.53 303.458C264.902 303.596 265.28 303.728 265.662 303.856C265.698 303.869 265.731 303.882 265.764 303.892C265.797 303.902 265.833 303.915 265.866 303.925C266.248 304.05 266.633 304.175 267.022 304.294C267.045 304.3 267.068 304.31 267.091 304.317C267.13 304.33 267.17 304.34 267.206 304.35C267.611 304.471 268.019 304.587 268.43 304.699C268.437 304.699 268.44 304.699 268.447 304.702C268.463 304.705 268.48 304.708 268.496 304.715C268.914 304.827 269.339 304.932 269.767 305.034C269.796 305.041 269.823 305.048 269.852 305.057C269.865 305.057 269.875 305.064 269.888 305.064C270.313 305.163 270.741 305.258 271.172 305.347C271.212 305.357 271.251 305.363 271.291 305.373C271.317 305.38 271.343 305.383 271.37 305.387C271.804 305.475 272.245 305.558 272.686 305.633C272.726 305.64 272.762 305.647 272.798 305.653C272.831 305.66 272.867 305.663 272.9 305.67C273.354 305.745 273.809 305.818 274.27 305.88C274.302 305.884 274.339 305.89 274.372 305.897C274.408 305.903 274.444 305.907 274.48 305.91C274.957 305.976 275.438 306.035 275.925 306.084C275.958 306.088 275.991 306.094 276.021 306.098C276.054 306.101 276.09 306.104 276.123 306.107C276.656 306.163 277.192 306.209 277.732 306.249C277.768 306.249 277.801 306.256 277.838 306.259C277.88 306.259 277.926 306.262 277.969 306.265C278.331 306.288 278.697 306.311 279.062 306.328C279.322 306.341 279.582 306.351 279.839 306.358C279.849 306.358 279.859 306.358 279.865 306.358C280.214 306.367 280.56 306.374 280.905 306.377C280.998 306.377 281.09 306.377 281.179 306.377L281.202 306.4Z" fill="url(#paint21_linear_1353_15822)"/>
<path d="M313.547 274.797C313.323 286.903 298.222 296.041 279.819 295.205C261.415 294.368 246.682 283.872 246.906 271.765C247.13 259.659 262.228 250.522 280.632 251.361C299.035 252.197 313.771 262.69 313.547 274.797Z" fill="url(#paint22_linear_1353_15822)" stroke="url(#paint23_linear_1353_15822)" stroke-width="1.05925" stroke-miterlimit="10"/>
<path opacity="0.3" d="M307.045 273.793C306.863 283.147 294.584 290.207 279.621 289.561C264.657 288.915 252.678 280.805 252.86 271.451C253.042 262.097 265.318 255.037 280.282 255.685C295.245 256.331 307.227 264.439 307.045 273.793Z" stroke="white" stroke-width="0.722515" stroke-miterlimit="10"/>
<path opacity="0.3" d="M277.1 279.498C276.198 279.784 275.118 279.899 273.867 279.843C272.291 279.771 270.892 279.439 269.674 278.843C268.459 278.25 267.505 277.424 266.814 276.371C266.359 275.673 266.06 274.893 265.915 274.024L263.726 273.925C263.199 273.902 262.778 273.599 262.785 273.25L262.804 272.144C262.811 271.796 263.242 271.532 263.769 271.555L265.892 271.651C266.03 270.657 266.359 269.824 266.879 269.07C267.561 268.089 268.519 267.342 269.75 266.825C270.694 266.427 271.781 266.187 272.992 266.108C273.581 266.065 274.114 266.388 274.108 266.783L274.078 268.323C274.071 268.616 273.775 268.869 273.344 268.912C272.646 268.985 272.047 269.152 271.544 269.412C270.869 269.765 270.368 270.232 270.033 270.818C269.855 271.134 269.72 271.466 269.634 271.819L278.936 272.243L279.206 271.624C279.842 270.17 280.76 269.041 281.955 268.231C283.15 267.421 284.72 267.059 286.662 267.148C288.265 267.22 289.664 267.576 290.852 268.208C292.04 268.84 292.958 269.666 293.604 270.683C294.051 271.384 294.341 272.141 294.466 272.951L296.711 273.053C297.238 273.076 297.659 273.379 297.652 273.728L297.633 274.834C297.626 275.183 297.195 275.446 296.668 275.42L294.4 275.318C294.236 276.061 293.93 276.736 293.488 277.342C292.804 278.27 291.882 278.988 290.714 279.488C289.845 279.86 288.88 280.084 287.83 280.156C287.248 280.196 286.721 279.87 286.731 279.478L286.757 278.003C286.764 277.711 287.05 277.47 287.465 277.418C288.426 277.293 289.203 276.957 289.792 276.414C290.19 276.052 290.483 275.627 290.668 275.143L281.856 274.742L281.803 274.87C281.573 275.449 281.27 276.042 280.885 276.644C280.5 277.246 280 277.799 279.384 278.303C278.765 278.803 278.005 279.202 277.1 279.488L277.1 279.498ZM271.593 276.447C272.261 276.832 273.051 277.046 273.96 277.085C274.786 277.121 275.464 277 275.994 276.713C276.527 276.427 276.968 276.029 277.324 275.518C277.524 275.225 277.715 274.909 277.893 274.574L269.72 274.202C269.802 274.452 269.908 274.689 270.039 274.916C270.405 275.551 270.925 276.058 271.593 276.447ZM282.86 272.428L290.799 272.79C290.717 272.451 290.582 272.135 290.408 271.845C290.059 271.276 289.578 270.825 288.963 270.489C288.347 270.156 287.646 269.975 286.856 269.939C286.191 269.91 285.618 269.985 285.134 270.173C284.647 270.36 284.242 270.614 283.917 270.943C283.587 271.266 283.314 271.621 283.09 272.003C283.008 272.148 282.932 272.289 282.86 272.431" fill="white"/>
</g>
<g filter="url(#filter20_d_1353_15822)">
<path d="M82.9967 263.762C72.9347 275.074 52.748 275.65 37.9057 265.05C37.4944 264.756 37.0922 264.457 36.6968 264.15C36.5658 264.049 36.4417 263.945 36.3107 263.844C36.051 263.639 35.7889 263.431 35.536 263.219C35.3881 263.097 35.2448 262.971 35.0968 262.844C34.8723 262.65 34.6454 262.453 34.4256 262.258C34.2751 262.125 34.1291 261.987 33.9831 261.849C33.7773 261.654 33.5716 261.463 33.3681 261.266C33.2197 261.126 33.0782 260.983 32.9344 260.837C32.7379 260.642 32.5483 260.444 32.3587 260.247C32.2195 260.101 32.0826 259.954 31.9457 259.806C31.7606 259.603 31.5802 259.401 31.3998 259.198C31.27 259.052 31.1424 258.904 31.0148 258.756C30.8341 258.544 30.6604 258.33 30.4867 258.116C30.3685 257.972 30.2528 257.831 30.1393 257.687C29.9557 257.454 29.7815 257.221 29.6071 256.983C29.5104 256.855 29.4112 256.725 29.3168 256.595C29.0914 256.281 28.8753 255.968 28.6616 255.652C28.6228 255.597 28.584 255.542 28.5474 255.485C28.3018 255.112 28.063 254.736 27.8359 254.357C27.7651 254.24 27.7013 254.125 27.6352 254.008C27.4811 253.744 27.3246 253.478 27.1799 253.214C27.0988 253.065 27.0226 252.92 26.9463 252.77C26.8209 252.534 26.6955 252.297 26.5771 252.058C26.4981 251.897 26.4215 251.738 26.3472 251.577C26.2383 251.347 26.1294 251.116 26.0275 250.884C25.953 250.718 25.8832 250.552 25.8158 250.388C25.7187 250.16 25.6238 249.929 25.5336 249.699C25.4684 249.533 25.4033 249.367 25.3404 249.198C25.2524 248.965 25.1715 248.734 25.0929 248.501C25.037 248.334 24.979 248.17 24.9255 248.006C24.849 247.766 24.7748 247.523 24.7052 247.28C24.659 247.123 24.6127 246.966 24.5688 246.811C24.4964 246.547 24.4331 246.278 24.3675 246.012C24.3359 245.877 24.302 245.745 24.2703 245.611C24.1852 245.226 24.1072 244.844 24.0383 244.456C24.0356 244.44 24.0305 244.426 24.0301 244.412C23.9586 244.013 23.9011 243.614 23.8505 243.212C23.833 243.082 23.8225 242.954 23.8096 242.824C23.779 242.554 23.7506 242.282 23.7316 242.014C23.7204 241.858 23.7115 241.705 23.7049 241.549C23.6913 241.304 23.6776 241.06 23.671 240.818C23.6665 240.654 23.6644 240.489 23.6646 240.326C23.6629 240.093 23.6635 239.857 23.6688 239.626C23.6736 239.458 23.6807 239.292 23.6854 239.124C23.6955 238.893 23.7079 238.665 23.7249 238.436C23.7367 238.27 23.7485 238.104 23.765 237.938C23.789 237.706 23.8154 237.477 23.844 237.246C23.8693 237.061 23.8899 236.876 23.9152 236.691C23.927 236.612 23.9411 236.53 23.9529 236.45C24.0048 236.131 24.0637 235.81 24.1273 235.494C24.1296 235.492 24.1271 235.485 24.1316 235.48C24.1998 235.159 24.275 234.839 24.3573 234.522C24.3785 234.443 24.3973 234.365 24.4185 234.285C24.5031 233.971 24.5925 233.656 24.6913 233.345C24.6913 233.345 24.6958 233.34 24.6957 233.336C24.7967 233.023 24.9048 232.712 25.0176 232.401C25.0458 232.324 25.0764 232.248 25.1045 232.171C25.2244 231.862 25.3442 231.553 25.4758 231.251L21.5881 240.189C21.4542 240.493 21.332 240.8 21.2169 241.108C21.1887 241.186 21.1581 241.261 21.1299 241.339C21.0147 241.648 20.9066 241.958 20.808 242.274C20.808 242.274 20.8034 242.278 20.8036 242.283C20.7048 242.593 20.6155 242.908 20.5308 243.223C20.5096 243.303 20.4885 243.383 20.4696 243.46C20.3873 243.777 20.3121 244.096 20.2439 244.418C20.2417 244.42 20.2419 244.429 20.2421 244.434C20.1784 244.75 20.1218 245.069 20.0676 245.39C20.0535 245.472 20.0417 245.552 20.0299 245.631C20.0181 245.711 20.0039 245.788 19.992 245.868C19.9786 245.973 19.9698 246.078 19.9564 246.183C19.9277 246.415 19.9013 246.644 19.8773 246.876C19.8608 247.042 19.8491 247.207 19.8349 247.371C19.8178 247.6 19.8031 247.831 19.7931 248.062C19.786 248.228 19.7788 248.394 19.7741 248.562C19.7711 248.795 19.7681 249.028 19.7698 249.261C19.7696 249.425 19.7718 249.59 19.7762 249.753C19.7829 249.995 19.7965 250.24 19.8102 250.484C19.819 250.638 19.8256 250.794 19.8369 250.95C19.8582 251.22 19.8889 251.489 19.9173 251.761C19.9324 251.889 19.9406 252.02 19.9582 252.15C20.0086 252.547 20.0686 252.949 20.1378 253.35C20.1406 253.366 20.1456 253.38 20.1484 253.396C20.2171 253.779 20.2929 254.164 20.378 254.549C20.4072 254.681 20.4435 254.815 20.475 254.945C20.5383 255.214 20.6039 255.48 20.6764 255.744C20.7202 255.899 20.7665 256.056 20.8103 256.211C20.8799 256.454 20.9541 256.697 21.033 256.939C21.0865 257.104 21.1423 257.27 21.198 257.432C21.2766 257.665 21.3599 257.898 21.4455 258.129C21.5084 258.297 21.5735 258.464 21.6387 258.63C21.7289 258.86 21.8214 259.089 21.9186 259.317C21.9884 259.483 22.0582 259.649 22.1302 259.812C22.2322 260.045 22.341 260.275 22.4499 260.505C22.5265 260.664 22.6009 260.825 22.6799 260.986C22.7983 261.226 22.926 261.465 23.0491 261.704C23.1278 261.851 23.2017 261.998 23.285 262.145C23.4321 262.411 23.5864 262.68 23.7451 262.944C23.8135 263.058 23.8773 263.173 23.9457 263.288C24.1728 263.666 24.4116 264.042 24.6596 264.418C24.696 264.471 24.7324 264.523 24.7712 264.578C24.9851 264.899 25.2036 265.214 25.4313 265.53C25.446 265.553 25.4606 265.576 25.4775 265.596C25.5549 265.702 25.6395 265.809 25.7169 265.914C25.8936 266.149 26.0679 266.387 26.2514 266.62C26.3649 266.764 26.4807 266.905 26.5989 267.049C26.7726 267.263 26.9487 267.48 27.1293 267.692C27.2569 267.84 27.3845 267.988 27.5144 268.133C27.6925 268.338 27.8776 268.541 28.0626 268.743C28.1996 268.891 28.3341 269.037 28.4733 269.182C28.6629 269.38 28.8548 269.58 29.0489 269.773C29.1904 269.916 29.3365 270.059 29.4802 270.199C29.6814 270.394 29.8895 270.587 30.0953 270.782C30.2413 270.92 30.3873 271.058 30.5378 271.192C30.7577 271.391 30.9822 271.585 31.2089 271.777C31.3546 271.901 31.4979 272.028 31.6482 272.152C31.9011 272.364 32.1632 272.572 32.4229 272.777C32.5493 272.878 32.6756 272.98 32.8066 273.081C33.202 273.387 33.6042 273.687 34.0155 273.981C48.8578 284.581 69.0445 284.005 79.1065 272.693C79.9141 271.787 80.632 270.837 81.2603 269.853C81.8886 268.868 82.4297 267.851 82.8862 266.808L86.7739 257.87C85.8657 259.96 84.6094 261.939 82.9942 263.755L82.9967 263.762Z" fill="url(#paint24_linear_1353_15822)"/>
<path d="M29.2563 225.374C39.3183 214.062 59.5028 213.488 74.345 224.088C89.1872 234.688 93.0616 252.451 82.9996 263.763C72.9375 275.074 52.7508 275.65 37.9086 265.051C23.0664 254.451 19.1943 236.685 29.254 225.376L29.2563 225.374Z" fill="url(#paint25_linear_1353_15822)" stroke="url(#paint26_linear_1353_15822)" stroke-width="0.983443" stroke-miterlimit="10"/>
<path opacity="0.2" d="M34.1977 228.609C42.2083 219.593 58.4419 219.281 70.4607 227.91C82.4795 236.539 85.7281 250.843 77.7175 259.859C69.7068 268.875 53.4714 269.189 41.4526 260.56C29.4338 251.931 26.187 237.625 34.1959 228.611L34.1977 228.609Z" stroke="white" stroke-width="0.983443" stroke-miterlimit="10"/>
<path opacity="0.3" d="M63.8291 240.363C64.8234 240.574 65.8294 241.041 66.8399 241.762C68.1144 242.674 69.0223 243.733 69.5659 244.942C70.1047 246.147 70.2378 247.44 69.9601 248.797C69.7748 249.697 69.3913 250.596 68.8071 251.486L70.5715 252.749C70.9995 253.054 71.1042 253.562 70.8147 253.887L69.8962 254.919C69.6044 255.246 69.029 255.264 68.6034 254.961L66.889 253.737C65.9637 254.604 65.0058 255.213 63.9545 255.648C62.5803 256.212 61.1634 256.409 59.7016 256.237C58.579 256.109 57.4713 255.759 56.3832 255.187C55.8511 254.91 55.6672 254.323 55.9929 253.955L57.2756 252.514C57.5199 252.242 57.9793 252.159 58.3786 252.351C59.0233 252.653 59.6642 252.815 60.306 252.837C61.1623 252.863 61.9666 252.69 62.7258 252.314C63.1306 252.112 63.5157 251.869 63.8763 251.584L56.3742 246.223L55.6448 246.662C53.9244 247.698 52.2266 248.278 50.556 248.403C48.8878 248.53 47.2725 248.036 45.7055 246.915C44.412 245.99 43.5174 244.906 43.0294 243.682C42.5435 242.45 42.4413 241.182 42.7275 239.878C42.9221 238.977 43.2971 238.107 43.8479 237.276L42.0385 235.985C41.6105 235.679 41.5057 235.171 41.7953 234.846L42.7137 233.814C43.0055 233.487 43.5809 233.469 44.0065 233.772L45.8374 235.079C46.5808 234.466 47.3884 233.987 48.256 233.656C49.5873 233.142 50.9531 232.955 52.3491 233.106C53.3873 233.218 54.3795 233.522 55.3233 234.016C55.846 234.288 56.0252 234.876 55.6995 235.244L54.4756 236.618C54.2312 236.89 53.7949 236.963 53.4033 236.796C52.4879 236.401 51.5597 236.303 50.6207 236.499C49.9856 236.633 49.3954 236.877 48.8479 237.235L55.9504 242.308L56.0971 242.216C56.7639 241.789 57.5016 241.394 58.3217 241.031C59.1371 240.669 60.0091 240.409 60.94 240.265C61.871 240.121 62.8348 240.153 63.8315 240.366L63.8291 240.363ZM65.9905 246.182C65.7401 245.464 65.2475 244.839 64.5128 244.315C63.847 243.839 63.1734 243.592 62.4946 243.58C61.8112 243.568 61.1109 243.709 60.396 243.999C59.9879 244.166 59.5714 244.366 59.1484 244.587L65.7421 249.297C65.8744 249.018 65.9763 248.738 66.0502 248.454C66.2594 247.662 66.2364 246.905 65.9905 246.182ZM53.2072 243.968L46.8014 239.392C46.5968 239.756 46.4483 240.124 46.3627 240.492C46.1866 241.215 46.2286 241.9 46.4768 242.539C46.7252 243.182 47.1667 243.727 47.8063 244.183C48.339 244.565 48.884 244.8 49.4481 244.88C50.0099 244.963 50.5641 244.938 51.1061 244.807C51.6457 244.673 52.1628 244.487 52.6645 244.244C52.8509 244.153 53.0324 244.057 53.2095 243.966" fill="white"/>
</g>
<defs>
<filter id="filter0_f_1353_15822" x="20.7749" y="38.8243" width="314.392" height="314.392" filterUnits="userSpaceOnUse" color-interpolation-filters="sRGB">
<feFlood flood-opacity="0" result="BackgroundImageFix"/>
<feBlend mode="normal" in="SourceGraphic" in2="BackgroundImageFix" result="shape"/>
<feGaussianBlur stdDeviation="20.6179" result="effect1_foregroundBlur_1353_15822"/>
</filter>
<filter id="filter1_f_1353_15822" x="50.9749" y="68.0229" width="246.404" height="76.1246" filterUnits="userSpaceOnUse" color-interpolation-filters="sRGB">
<feFlood flood-opacity="0" result="BackgroundImageFix"/>
<feBlend mode="normal" in="SourceGraphic" in2="BackgroundImageFix" result="shape"/>
<feGaussianBlur stdDeviation="2.00328" result="effect1_foregroundBlur_1353_15822"/>
</filter>
<filter id="filter2_f_1353_15822" x="50.9749" y="99.0741" width="246.404" height="76.1246" filterUnits="userSpaceOnUse" color-interpolation-filters="sRGB">
<feFlood flood-opacity="0" result="BackgroundImageFix"/>
<feBlend mode="normal" in="SourceGraphic" in2="BackgroundImageFix" result="shape"/>
<feGaussianBlur stdDeviation="2.00328" result="effect1_foregroundBlur_1353_15822"/>
</filter>
<filter id="filter3_d_1353_15822" x="158.312" y="58.6421" width="93.8595" height="149.044" filterUnits="userSpaceOnUse" color-interpolation-filters="sRGB">
<feFlood flood-opacity="0" result="BackgroundImageFix"/>
<feColorMatrix in="SourceAlpha" type="matrix" values="0 0 0 0 0 0 0 0 0 0 0 0 0 0 0 0 0 0 127 0" result="hardAlpha"/>
<feOffset/>
<feGaussianBlur stdDeviation="6.31033"/>
<feComposite in2="hardAlpha" operator="out"/>
<feColorMatrix type="matrix" values="0 0 0 0 0.984314 0 0 0 0 0.745098 0 0 0 0 0.494118 0 0 0 1 0"/>
<feBlend mode="normal" in2="BackgroundImageFix" result="effect1_dropShadow_1353_15822"/>
<feBlend mode="normal" in="SourceGraphic" in2="effect1_dropShadow_1353_15822" result="shape"/>
</filter>
<filter id="filter4_d_1353_15822" x="143.885" y="26.5897" width="54.3937" height="107.848" filterUnits="userSpaceOnUse" color-interpolation-filters="sRGB">
<feFlood flood-opacity="0" result="BackgroundImageFix"/>
<feColorMatrix in="SourceAlpha" type="matrix" values="0 0 0 0 0 0 0 0 0 0 0 0 0 0 0 0 0 0 127 0" result="hardAlpha"/>
<feOffset/>
<feGaussianBlur stdDeviation="6.31033"/>
<feComposite in2="hardAlpha" operator="out"/>
<feColorMatrix type="matrix" values="0 0 0 0 0.984314 0 0 0 0 0.745098 0 0 0 0 0.494118 0 0 0 1 0"/>
<feBlend mode="normal" in2="BackgroundImageFix" result="effect1_dropShadow_1353_15822"/>
<feBlend mode="normal" in="SourceGraphic" in2="effect1_dropShadow_1353_15822" result="shape"/>
</filter>
<filter id="filter5_d_1353_15822" x="94.977" y="97.7819" width="91.0948" height="93.9323" filterUnits="userSpaceOnUse" color-interpolation-filters="sRGB">
<feFlood flood-opacity="0" result="BackgroundImageFix"/>
<feColorMatrix in="SourceAlpha" type="matrix" values="0 0 0 0 0 0 0 0 0 0 0 0 0 0 0 0 0 0 127 0" result="hardAlpha"/>
<feOffset/>
<feGaussianBlur stdDeviation="6.31033"/>
<feComposite in2="hardAlpha" operator="out"/>
<feColorMatrix type="matrix" values="0 0 0 0 0.984314 0 0 0 0 0.745098 0 0 0 0 0.494118 0 0 0 1 0"/>
<feBlend mode="normal" in2="BackgroundImageFix" result="effect1_dropShadow_1353_15822"/>
<feBlend mode="normal" in="SourceGraphic" in2="effect1_dropShadow_1353_15822" result="shape"/>
</filter>
<filter id="filter6_d_1353_15822" x="157.531" y="2.6449" width="60.7257" height="217.352" filterUnits="userSpaceOnUse" color-interpolation-filters="sRGB">
<feFlood flood-opacity="0" result="BackgroundImageFix"/>
<feColorMatrix in="SourceAlpha" type="matrix" values="0 0 0 0 0 0 0 0 0 0 0 0 0 0 0 0 0 0 127 0" result="hardAlpha"/>
<feOffset/>
<feGaussianBlur stdDeviation="6.31033"/>
<feComposite in2="hardAlpha" operator="out"/>
<feColorMatrix type="matrix" values="0 0 0 0 0.984314 0 0 0 0 0.745098 0 0 0 0 0.494118 0 0 0 1 0"/>
<feBlend mode="normal" in2="BackgroundImageFix" result="effect1_dropShadow_1353_15822"/>
<feBlend mode="normal" in="SourceGraphic" in2="effect1_dropShadow_1353_15822" result="shape"/>
</filter>
<filter id="filter7_f_1353_15822" x="149.033" y="26.0264" width="18.3595" height="18.3598" filterUnits="userSpaceOnUse" color-interpolation-filters="sRGB">
<feFlood flood-opacity="0" result="BackgroundImageFix"/>
<feBlend mode="normal" in="SourceGraphic" in2="BackgroundImageFix" result="shape"/>
<feGaussianBlur stdDeviation="2.0386" result="effect1_foregroundBlur_1353_15822"/>
</filter>
<filter id="filter8_f_1353_15822" x="194.817" y="1.78836" width="18.9419" height="18.9423" filterUnits="userSpaceOnUse" color-interpolation-filters="sRGB">
<feFlood flood-opacity="0" result="BackgroundImageFix"/>
<feBlend mode="normal" in="SourceGraphic" in2="BackgroundImageFix" result="shape"/>
<feGaussianBlur stdDeviation="2.18422" result="effect1_foregroundBlur_1353_15822"/>
</filter>
<filter id="filter9_df_1353_15822" x="194.641" y="36.6059" width="18.2295" height="18.2299" filterUnits="userSpaceOnUse" color-interpolation-filters="sRGB">
<feFlood flood-opacity="0" result="BackgroundImageFix"/>
<feColorMatrix in="SourceAlpha" type="matrix" values="0 0 0 0 0 0 0 0 0 0 0 0 0 0 0 0 0 0 127 0" result="hardAlpha"/>
<feOffset/>
<feGaussianBlur stdDeviation="3.30541"/>
<feComposite in2="hardAlpha" operator="out"/>
<feColorMatrix type="matrix" values="0 0 0 0 0.984314 0 0 0 0 0.745098 0 0 0 0 0.494118 0 0 0 1 0"/>
<feBlend mode="normal" in2="BackgroundImageFix" result="effect1_dropShadow_1353_15822"/>
<feBlend mode="normal" in="SourceGraphic" in2="effect1_dropShadow_1353_15822" result="shape"/>
<feGaussianBlur stdDeviation="2.00328" result="effect2_foregroundBlur_1353_15822"/>
</filter>
<filter id="filter10_df_1353_15822" x="196.56" y="23.2803" width="14.6959" height="14.6963" filterUnits="userSpaceOnUse" color-interpolation-filters="sRGB">
<feFlood flood-opacity="0" result="BackgroundImageFix"/>
<feColorMatrix in="SourceAlpha" type="matrix" values="0 0 0 0 0 0 0 0 0 0 0 0 0 0 0 0 0 0 127 0" result="hardAlpha"/>
<feOffset/>
<feGaussianBlur stdDeviation="2.66471"/>
<feComposite in2="hardAlpha" operator="out"/>
<feColorMatrix type="matrix" values="0 0 0 0 0.984314 0 0 0 0 0.745098 0 0 0 0 0.494118 0 0 0 1 0"/>
<feBlend mode="normal" in2="BackgroundImageFix" result="effect1_dropShadow_1353_15822"/>
<feBlend mode="normal" in="SourceGraphic" in2="effect1_dropShadow_1353_15822" result="shape"/>
<feGaussianBlur stdDeviation="1.61497" result="effect2_foregroundBlur_1353_15822"/>
</filter>
<filter id="filter11_df_1353_15822" x="129.297" y="146.01" width="14.6959" height="14.6962" filterUnits="userSpaceOnUse" color-interpolation-filters="sRGB">
<feFlood flood-opacity="0" result="BackgroundImageFix"/>
<feColorMatrix in="SourceAlpha" type="matrix" values="0 0 0 0 0 0 0 0 0 0 0 0 0 0 0 0 0 0 127 0" result="hardAlpha"/>
<feOffset/>
<feGaussianBlur stdDeviation="2.66471"/>
<feComposite in2="hardAlpha" operator="out"/>
<feColorMatrix type="matrix" values="0 0 0 0 0.984314 0 0 0 0 0.745098 0 0 0 0 0.494118 0 0 0 1 0"/>
<feBlend mode="normal" in2="BackgroundImageFix" result="effect1_dropShadow_1353_15822"/>
<feBlend mode="normal" in="SourceGraphic" in2="effect1_dropShadow_1353_15822" result="shape"/>
<feGaussianBlur stdDeviation="1.61497" result="effect2_foregroundBlur_1353_15822"/>
</filter>
<filter id="filter12_df_1353_15822" x="212.701" y="125.753" width="18.2295" height="18.2298" filterUnits="userSpaceOnUse" color-interpolation-filters="sRGB">
<feFlood flood-opacity="0" result="BackgroundImageFix"/>
<feColorMatrix in="SourceAlpha" type="matrix" values="0 0 0 0 0 0 0 0 0 0 0 0 0 0 0 0 0 0 127 0" result="hardAlpha"/>
<feOffset/>
<feGaussianBlur stdDeviation="3.30541"/>
<feComposite in2="hardAlpha" operator="out"/>
<feColorMatrix type="matrix" values="0 0 0 0 0.984314 0 0 0 0 0.745098 0 0 0 0 0.494118 0 0 0 1 0"/>
<feBlend mode="normal" in2="BackgroundImageFix" result="effect1_dropShadow_1353_15822"/>
<feBlend mode="normal" in="SourceGraphic" in2="effect1_dropShadow_1353_15822" result="shape"/>
<feGaussianBlur stdDeviation="2.00328" result="effect2_foregroundBlur_1353_15822"/>
</filter>
<filter id="filter13_df_1353_15822" x="157.613" y="86.6874" width="18.2295" height="18.2298" filterUnits="userSpaceOnUse" color-interpolation-filters="sRGB">
<feFlood flood-opacity="0" result="BackgroundImageFix"/>
<feColorMatrix in="SourceAlpha" type="matrix" values="0 0 0 0 0 0 0 0 0 0 0 0 0 0 0 0 0 0 127 0" result="hardAlpha"/>
<feOffset/>
<feGaussianBlur stdDeviation="3.30541"/>
<feComposite in2="hardAlpha" operator="out"/>
<feColorMatrix type="matrix" values="0 0 0 0 0.984314 0 0 0 0 0.745098 0 0 0 0 0.494118 0 0 0 1 0"/>
<feBlend mode="normal" in2="BackgroundImageFix" result="effect1_dropShadow_1353_15822"/>
<feBlend mode="normal" in="SourceGraphic" in2="effect1_dropShadow_1353_15822" result="shape"/>
<feGaussianBlur stdDeviation="2.00328" result="effect2_foregroundBlur_1353_15822"/>
</filter>
<filter id="filter14_df_1353_15822" x="116.717" y="136.845" width="18.2295" height="18.2298" filterUnits="userSpaceOnUse" color-interpolation-filters="sRGB">
<feFlood flood-opacity="0" result="BackgroundImageFix"/>
<feColorMatrix in="SourceAlpha" type="matrix" values="0 0 0 0 0 0 0 0 0 0 0 0 0 0 0 0 0 0 127 0" result="hardAlpha"/>
<feOffset/>
<feGaussianBlur stdDeviation="3.30541"/>
<feComposite in2="hardAlpha" operator="out"/>
<feColorMatrix type="matrix" values="0 0 0 0 0.984314 0 0 0 0 0.745098 0 0 0 0 0.494118 0 0 0 1 0"/>
<feBlend mode="normal" in2="BackgroundImageFix" result="effect1_dropShadow_1353_15822"/>
<feBlend mode="normal" in="SourceGraphic" in2="effect1_dropShadow_1353_15822" result="shape"/>
<feGaussianBlur stdDeviation="2.00328" result="effect2_foregroundBlur_1353_15822"/>
</filter>
<filter id="filter15_f_1353_15822" x="99.8347" y="96.9232" width="18.9419" height="18.9423" filterUnits="userSpaceOnUse" color-interpolation-filters="sRGB">
<feFlood flood-opacity="0" result="BackgroundImageFix"/>
<feBlend mode="normal" in="SourceGraphic" in2="BackgroundImageFix" result="shape"/>
<feGaussianBlur stdDeviation="2.18422" result="effect1_foregroundBlur_1353_15822"/>
</filter>
<filter id="filter16_f_1353_15822" x="228.874" y="57.7874" width="18.9419" height="18.9423" filterUnits="userSpaceOnUse" color-interpolation-filters="sRGB">
<feFlood flood-opacity="0" result="BackgroundImageFix"/>
<feBlend mode="normal" in="SourceGraphic" in2="BackgroundImageFix" result="shape"/>
<feGaussianBlur stdDeviation="2.18422" result="effect1_foregroundBlur_1353_15822"/>
</filter>
<filter id="filter17_d_1353_15822" x="254.002" y="64.0319" width="91.3433" height="91.8913" filterUnits="userSpaceOnUse" color-interpolation-filters="sRGB">
<feFlood flood-opacity="0" result="BackgroundImageFix"/>
<feColorMatrix in="SourceAlpha" type="matrix" values="0 0 0 0 0 0 0 0 0 0 0 0 0 0 0 0 0 0 127 0" result="hardAlpha"/>
<feOffset/>
<feGaussianBlur stdDeviation="9.04873"/>
<feComposite in2="hardAlpha" operator="out"/>
<feColorMatrix type="matrix" values="0 0 0 0 0.984314 0 0 0 0 0.745098 0 0 0 0 0.494118 0 0 0 0.3 0"/>
<feBlend mode="normal" in2="BackgroundImageFix" result="effect1_dropShadow_1353_15822"/>
<feBlend mode="normal" in="SourceGraphic" in2="effect1_dropShadow_1353_15822" result="shape"/>
</filter>
<filter id="filter18_d_1353_15822" x="200.119" y="247.6" width="110.291" height="97.9924" filterUnits="userSpaceOnUse" color-interpolation-filters="sRGB">
<feFlood flood-opacity="0" result="BackgroundImageFix"/>
<feColorMatrix in="SourceAlpha" type="matrix" values="0 0 0 0 0 0 0 0 0 0 0 0 0 0 0 0 0 0 127 0" result="hardAlpha"/>
<feOffset/>
<feGaussianBlur stdDeviation="10.5925"/>
<feComposite in2="hardAlpha" operator="out"/>
<feColorMatrix type="matrix" values="0 0 0 0 0.984314 0 0 0 0 0.745098 0 0 0 0 0.494118 0 0 0 0.3 0"/>
<feBlend mode="normal" in2="BackgroundImageFix" result="effect1_dropShadow_1353_15822"/>
<feBlend mode="normal" in="SourceGraphic" in2="effect1_dropShadow_1353_15822" result="shape"/>
</filter>
<filter id="filter19_d_1353_15822" x="224.973" y="229.593" width="110.291" height="97.9924" filterUnits="userSpaceOnUse" color-interpolation-filters="sRGB">
<feFlood flood-opacity="0" result="BackgroundImageFix"/>
<feColorMatrix in="SourceAlpha" type="matrix" values="0 0 0 0 0 0 0 0 0 0 0 0 0 0 0 0 0 0 127 0" result="hardAlpha"/>
<feOffset/>
<feGaussianBlur stdDeviation="10.5925"/>
<feComposite in2="hardAlpha" operator="out"/>
<feColorMatrix type="matrix" values="0 0 0 0 0.984314 0 0 0 0 0.745098 0 0 0 0 0.494118 0 0 0 0.3 0"/>
<feBlend mode="normal" in2="BackgroundImageFix" result="effect1_dropShadow_1353_15822"/>
<feBlend mode="normal" in="SourceGraphic" in2="effect1_dropShadow_1353_15822" result="shape"/>
</filter>
<filter id="filter20_d_1353_15822" x="0.100676" y="196.339" width="108.66" height="104.898" filterUnits="userSpaceOnUse" color-interpolation-filters="sRGB">
<feFlood flood-opacity="0" result="BackgroundImageFix"/>
<feColorMatrix in="SourceAlpha" type="matrix" values="0 0 0 0 0 0 0 0 0 0 0 0 0 0 0 0 0 0 127 0" result="hardAlpha"/>
<feOffset/>
<feGaussianBlur stdDeviation="9.83443"/>
<feComposite in2="hardAlpha" operator="out"/>
<feColorMatrix type="matrix" values="0 0 0 0 0.984314 0 0 0 0 0.745098 0 0 0 0 0.494118 0 0 0 0.3 0"/>
<feBlend mode="normal" in2="BackgroundImageFix" result="effect1_dropShadow_1353_15822"/>
<feBlend mode="normal" in="SourceGraphic" in2="effect1_dropShadow_1353_15822" result="shape"/>
</filter>
<radialGradient id="paint0_radial_1353_15822" cx="0" cy="0" r="1" gradientUnits="userSpaceOnUse" gradientTransform="translate(177.971 196.02) rotate(90) scale(124.015)">
<stop offset="0.249894" stop-color="#FBBE7E"/>
<stop offset="1" stop-color="#FBBE7E" stop-opacity="0.2"/>
</radialGradient>
<linearGradient id="paint1_linear_1353_15822" x1="190.574" y1="73.0311" x2="191.24" y2="151.956" gradientUnits="userSpaceOnUse">
<stop stop-color="#FBBE7E" stop-opacity="0"/>
<stop offset="1" stop-color="#FBBE7E"/>
</linearGradient>
<linearGradient id="paint2_linear_1353_15822" x1="190.574" y1="104.082" x2="191.24" y2="183.008" gradientUnits="userSpaceOnUse">
<stop stop-color="#FBBE7E" stop-opacity="0"/>
<stop offset="1" stop-color="#FBBE7E"/>
</linearGradient>
<linearGradient id="paint3_linear_1353_15822" x1="164.757" y1="170.341" x2="164.466" y2="213.714" gradientUnits="userSpaceOnUse">
<stop stop-color="#FCB17D"/>
<stop offset="0.995" stop-color="#FF6E75"/>
</linearGradient>
<linearGradient id="paint4_linear_1353_15822" x1="256.737" y1="192.183" x2="151.094" y2="268.79" gradientUnits="userSpaceOnUse">
<stop stop-color="#FF6E75"/>
<stop offset="1" stop-color="#FBBE7E"/>
</linearGradient>
<linearGradient id="paint5_linear_1353_15822" x1="151.597" y1="38.6961" x2="155.96" y2="5.15061" gradientUnits="userSpaceOnUse">
<stop offset="0.01" stop-color="#FBBE7E"/>
<stop offset="1" stop-color="#FBBE7E" stop-opacity="0"/>
</linearGradient>
<linearGradient id="paint6_linear_1353_15822" x1="151.597" y1="38.6961" x2="155.96" y2="5.15061" gradientUnits="userSpaceOnUse">
<stop offset="0.01" stop-color="#FBBE7E"/>
<stop offset="1" stop-color="#FBBE7E" stop-opacity="0"/>
</linearGradient>
<linearGradient id="paint7_linear_1353_15822" x1="197.672" y1="14.7492" x2="202.035" y2="-18.7962" gradientUnits="userSpaceOnUse">
<stop offset="0.01" stop-color="#FBBE7E"/>
<stop offset="1" stop-color="#FBBE7E" stop-opacity="0"/>
</linearGradient>
<linearGradient id="paint8_linear_1353_15822" x1="102.69" y1="109.884" x2="107.053" y2="76.3386" gradientUnits="userSpaceOnUse">
<stop offset="0.01" stop-color="#FBBE7E"/>
<stop offset="1" stop-color="#FBBE7E" stop-opacity="0"/>
</linearGradient>
<linearGradient id="paint9_linear_1353_15822" x1="102.69" y1="111.34" x2="107.053" y2="77.7947" gradientUnits="userSpaceOnUse">
<stop offset="0.01" stop-color="#FBBE7E"/>
<stop offset="1" stop-color="#FBBE7E" stop-opacity="0"/>
</linearGradient>
<linearGradient id="paint10_linear_1353_15822" x1="231.729" y1="70.7483" x2="236.092" y2="37.2028" gradientUnits="userSpaceOnUse">
<stop offset="0.01" stop-color="#FBBE7E"/>
<stop offset="1" stop-color="#FBBE7E" stop-opacity="0"/>
</linearGradient>
<linearGradient id="paint11_linear_1353_15822" x1="231.729" y1="70.7483" x2="236.092" y2="37.2028" gradientUnits="userSpaceOnUse">
<stop offset="0.01" stop-color="#FBBE7E"/>
<stop offset="1" stop-color="#FBBE7E" stop-opacity="0"/>
</linearGradient>
<linearGradient id="paint12_linear_1353_15822" x1="197.672" y1="14.7492" x2="202.035" y2="-18.7962" gradientUnits="userSpaceOnUse">
<stop offset="0.01" stop-color="#FBBE7E"/>
<stop offset="1" stop-color="#FBBE7E" stop-opacity="0"/>
</linearGradient>
<linearGradient id="paint13_linear_1353_15822" x1="290.543" y1="139.647" x2="347.187" y2="118.833" gradientUnits="userSpaceOnUse">
<stop stop-color="#FF6E75"/>
<stop offset="1" stop-color="#FBBE7E"/>
</linearGradient>
<linearGradient id="paint14_linear_1353_15822" x1="301.323" y1="75.5462" x2="312.791" y2="139.353" gradientUnits="userSpaceOnUse">
<stop stop-color="#000223"/>
<stop offset="1" stop-color="#FF6E75"/>
</linearGradient>
<linearGradient id="paint15_linear_1353_15822" x1="281.456" y1="131.205" x2="337.984" y2="104.261" gradientUnits="userSpaceOnUse">
<stop stop-color="#FF6E75"/>
<stop offset="1" stop-color="#FBBE7E"/>
</linearGradient>
<linearGradient id="paint16_linear_1353_15822" x1="96.0746" y1="344.836" x2="91.9914" y2="231.763" gradientUnits="userSpaceOnUse">
<stop stop-color="#FCB17D"/>
<stop offset="0.995" stop-color="#FF6E75"/>
</linearGradient>
<linearGradient id="paint17_linear_1353_15822" x1="173.736" y1="196.066" x2="175.306" y2="281.28" gradientUnits="userSpaceOnUse">
<stop stop-color="#FCB17D"/>
<stop offset="1" stop-color="#FF6E75"/>
</linearGradient>
<linearGradient id="paint18_linear_1353_15822" x1="221.552" y1="310.604" x2="282.816" y2="345.778" gradientUnits="userSpaceOnUse">
<stop stop-color="#FF6E75"/>
<stop offset="1" stop-color="#FBBE7E"/>
</linearGradient>
<linearGradient id="paint19_linear_1353_15822" x1="287.171" y1="272.08" x2="238.543" y2="330.342" gradientUnits="userSpaceOnUse">
<stop stop-color="#000223"/>
<stop offset="1" stop-color="#FF6E75"/>
</linearGradient>
<linearGradient id="paint20_linear_1353_15822" x1="222.295" y1="296.102" x2="288.971" y2="326.563" gradientUnits="userSpaceOnUse">
<stop stop-color="#FF6E75"/>
<stop offset="1" stop-color="#FBBE7E"/>
</linearGradient>
<linearGradient id="paint21_linear_1353_15822" x1="246.407" y1="292.596" x2="307.671" y2="327.771" gradientUnits="userSpaceOnUse">
<stop stop-color="#FF6E75"/>
<stop offset="1" stop-color="#FBBE7E"/>
</linearGradient>
<linearGradient id="paint22_linear_1353_15822" x1="312.026" y1="254.072" x2="263.397" y2="312.335" gradientUnits="userSpaceOnUse">
<stop stop-color="#000223"/>
<stop offset="1" stop-color="#FF6E75"/>
</linearGradient>
<linearGradient id="paint23_linear_1353_15822" x1="247.15" y1="278.094" x2="313.825" y2="308.556" gradientUnits="userSpaceOnUse">
<stop stop-color="#FF6E75"/>
<stop offset="1" stop-color="#FBBE7E"/>
</linearGradient>
<linearGradient id="paint24_linear_1353_15822" x1="97.9027" y1="279.936" x2="22.3511" y2="232.372" gradientUnits="userSpaceOnUse">
<stop stop-color="#FF6E75"/>
<stop offset="1" stop-color="#FBBE7E"/>
</linearGradient>
<linearGradient id="paint25_linear_1353_15822" x1="4.28822" y1="233.449" x2="102.136" y2="246.192" gradientUnits="userSpaceOnUse">
<stop stop-color="#000223"/>
<stop offset="1" stop-color="#FF6E75"/>
</linearGradient>
<linearGradient id="paint26_linear_1353_15822" x1="83.8922" y1="262.485" x2="50.0097" y2="196.048" gradientUnits="userSpaceOnUse">
<stop stop-color="#FF6E75"/>
<stop offset="1" stop-color="#FBBE7E"/>
</linearGradient>
</defs>
</svg>
