<svg width="464" height="466" viewBox="0 0 464 466" fill="none" xmlns="http://www.w3.org/2000/svg">
<rect opacity="0.1" width="123.078" height="123.078" rx="14.513" transform="matrix(1 0 0 -1 0 358.751)" fill="url(#paint0_linear_718_12020)"/>
<rect opacity="0.1" width="123.078" height="123.078" rx="14.513" transform="matrix(1 0 0 -1 165.643 466)" fill="url(#paint1_linear_718_12020)"/>
<rect opacity="0.1" width="123.078" height="123.078" rx="14.513" transform="matrix(1 0 0 -1 331.286 358.751)" fill="url(#paint2_linear_718_12020)"/>
<rect x="227.792" y="0.615356" width="66.6674" height="66.6674" rx="33.3337" fill="#FBBE7E"/>
<g clip-path="url(#clip0_718_12020)">
<rect x="174.391" y="334.175" width="122.988" height="122.988" rx="14.513" fill="#000223"/>
<rect opacity="0.3" x="206.789" y="407.11" width="57.2037" height="5.72037" rx="1.90679" fill="white"/>
<rect opacity="0.3" x="195.825" y="417.597" width="79.1318" height="5.72037" rx="1.90679" fill="white"/>
<path d="M194.369 391.608V396.238C194.369 396.746 194.501 397.135 194.766 397.407C195.03 397.671 195.402 397.803 195.88 397.803C196.366 397.803 196.741 397.671 197.006 397.407C197.27 397.135 197.402 396.746 197.402 396.238V391.608H198.914V396.228C198.914 396.863 198.774 397.403 198.496 397.846C198.224 398.282 197.856 398.611 197.392 398.832C196.934 399.054 196.423 399.164 195.859 399.164C195.302 399.164 194.794 399.054 194.337 398.832C193.887 398.611 193.529 398.282 193.265 397.846C193.001 397.403 192.868 396.863 192.868 396.228V391.608H194.369ZM203.868 393.066C204.576 393.066 205.147 393.291 205.583 393.741C206.019 394.184 206.237 394.806 206.237 395.606V399.089H204.736V395.81C204.736 395.338 204.619 394.977 204.383 394.727C204.147 394.47 203.825 394.341 203.418 394.341C203.004 394.341 202.675 394.47 202.432 394.727C202.196 394.977 202.078 395.338 202.078 395.81V399.089H200.578V393.151H202.078V393.891C202.278 393.634 202.532 393.434 202.839 393.291C203.154 393.141 203.497 393.066 203.868 393.066ZM211.394 399.089L209.379 396.56V399.089H207.878V391.158H209.379V395.67L211.372 393.151H213.323L210.708 396.131L213.345 399.089H211.394ZM217.642 393.066C218.35 393.066 218.922 393.291 219.357 393.741C219.793 394.184 220.011 394.806 220.011 395.606V399.089H218.511V395.81C218.511 395.338 218.393 394.977 218.157 394.727C217.921 394.47 217.6 394.341 217.192 394.341C216.778 394.341 216.449 394.47 216.206 394.727C215.97 394.977 215.853 395.338 215.853 395.81V399.089H214.352V393.151H215.853V393.891C216.053 393.634 216.306 393.434 216.614 393.291C216.928 393.141 217.271 393.066 217.642 393.066ZM224.289 399.186C223.718 399.186 223.203 399.061 222.746 398.811C222.288 398.553 221.928 398.193 221.663 397.728C221.406 397.264 221.277 396.728 221.277 396.12C221.277 395.513 221.41 394.977 221.674 394.513C221.945 394.048 222.313 393.691 222.778 393.441C223.242 393.184 223.76 393.055 224.332 393.055C224.904 393.055 225.422 393.184 225.886 393.441C226.351 393.691 226.715 394.048 226.98 394.513C227.251 394.977 227.387 395.513 227.387 396.12C227.387 396.728 227.247 397.264 226.969 397.728C226.697 398.193 226.326 398.553 225.854 398.811C225.39 399.061 224.868 399.186 224.289 399.186ZM224.289 397.878C224.561 397.878 224.814 397.814 225.05 397.685C225.293 397.549 225.486 397.349 225.629 397.085C225.772 396.821 225.843 396.499 225.843 396.12C225.843 395.556 225.693 395.124 225.393 394.823C225.1 394.516 224.739 394.363 224.311 394.363C223.882 394.363 223.521 394.516 223.228 394.823C222.942 395.124 222.799 395.556 222.799 396.12C222.799 396.685 222.939 397.121 223.217 397.428C223.503 397.728 223.86 397.878 224.289 397.878ZM236.934 393.151L235.197 399.089H233.579L232.496 394.941L231.414 399.089H229.784L228.037 393.151H229.559L230.61 397.674L231.746 393.151H233.332L234.447 397.664L235.497 393.151H236.934ZM241.25 393.066C241.958 393.066 242.529 393.291 242.965 393.741C243.401 394.184 243.619 394.806 243.619 395.606V399.089H242.118V395.81C242.118 395.338 242.001 394.977 241.765 394.727C241.529 394.47 241.207 394.341 240.8 394.341C240.386 394.341 240.057 394.47 239.814 394.727C239.578 394.977 239.46 395.338 239.46 395.81V399.089H237.96V393.151H239.46V393.891C239.66 393.634 239.914 393.434 240.221 393.291C240.536 393.141 240.879 393.066 241.25 393.066ZM247.643 396.12C247.643 395.506 247.768 394.97 248.018 394.513C248.268 394.048 248.615 393.691 249.058 393.441C249.501 393.184 250.008 393.055 250.58 393.055C251.316 393.055 251.923 393.241 252.402 393.612C252.888 393.977 253.213 394.491 253.377 395.156H251.759C251.673 394.898 251.526 394.698 251.319 394.555C251.119 394.405 250.869 394.33 250.569 394.33C250.14 394.33 249.801 394.488 249.551 394.802C249.301 395.109 249.176 395.549 249.176 396.12C249.176 396.685 249.301 397.124 249.551 397.439C249.801 397.746 250.14 397.9 250.569 397.9C251.176 397.9 251.573 397.628 251.759 397.085H253.377C253.213 397.728 252.888 398.239 252.402 398.618C251.916 398.996 251.308 399.186 250.58 399.186C250.008 399.186 249.501 399.061 249.058 398.811C248.615 398.553 248.268 398.196 248.018 397.739C247.768 397.274 247.643 396.735 247.643 396.12ZM256.191 391.158V399.089H254.691V391.158H256.191ZM258.649 392.444C258.385 392.444 258.163 392.362 257.985 392.197C257.813 392.026 257.727 391.815 257.727 391.565C257.727 391.315 257.813 391.108 257.985 390.943C258.163 390.772 258.385 390.686 258.649 390.686C258.914 390.686 259.132 390.772 259.303 390.943C259.482 391.108 259.571 391.315 259.571 391.565C259.571 391.815 259.482 392.026 259.303 392.197C259.132 392.362 258.914 392.444 258.649 392.444ZM259.389 393.151V399.089H257.888V393.151H259.389ZM266.606 395.992C266.606 396.206 266.591 396.399 266.563 396.571H262.222C262.258 396.999 262.408 397.335 262.672 397.578C262.936 397.821 263.261 397.942 263.647 397.942C264.205 397.942 264.601 397.703 264.837 397.224H266.456C266.284 397.796 265.955 398.268 265.469 398.639C264.984 399.004 264.387 399.186 263.679 399.186C263.108 399.186 262.593 399.061 262.136 398.811C261.686 398.553 261.332 398.193 261.075 397.728C260.825 397.264 260.7 396.728 260.7 396.12C260.7 395.506 260.825 394.966 261.075 394.502C261.325 394.037 261.675 393.68 262.125 393.43C262.576 393.18 263.094 393.055 263.679 393.055C264.244 393.055 264.748 393.176 265.191 393.419C265.641 393.662 265.987 394.009 266.23 394.459C266.481 394.902 266.606 395.413 266.606 395.992ZM265.051 395.563C265.044 395.177 264.905 394.87 264.633 394.641C264.362 394.405 264.03 394.288 263.637 394.288C263.265 394.288 262.951 394.402 262.693 394.63C262.443 394.852 262.29 395.163 262.233 395.563H265.051ZM271.206 393.066C271.913 393.066 272.485 393.291 272.921 393.741C273.357 394.184 273.574 394.806 273.574 395.606V399.089H272.074V395.81C272.074 395.338 271.956 394.977 271.72 394.727C271.484 394.47 271.163 394.341 270.756 394.341C270.341 394.341 270.012 394.47 269.769 394.727C269.534 394.977 269.416 395.338 269.416 395.81V399.089H267.915V393.151H269.416V393.891C269.616 393.634 269.87 393.434 270.177 393.291C270.491 393.141 270.834 393.066 271.206 393.066ZM276.963 394.384V397.256C276.963 397.457 277.009 397.603 277.102 397.696C277.202 397.782 277.367 397.825 277.595 397.825H278.292V399.089H277.349C276.084 399.089 275.452 398.475 275.452 397.246V394.384H274.744V393.151H275.452V391.683H276.963V393.151H278.292V394.384H276.963Z" fill="white"/>
<rect opacity="0.2" x="205.853" y="431.324" width="60.1393" height="15.0348" rx="3.81358" fill="white"/>
<path d="M215.067 435.43L215.929 437.214C215.978 437.319 216.076 437.387 216.188 437.406L218.117 437.692C218.398 437.733 218.51 438.088 218.309 438.288L216.911 439.677C216.831 439.758 216.795 439.872 216.813 439.986L217.144 441.947C217.193 442.234 216.898 442.453 216.643 442.316L214.915 441.392C214.817 441.338 214.697 441.338 214.594 441.392L212.866 442.316C212.616 442.453 212.321 442.234 212.366 441.947L212.696 439.986C212.714 439.872 212.678 439.758 212.598 439.677L211.2 438.288C210.995 438.084 211.111 437.733 211.392 437.692L213.321 437.406C213.433 437.387 213.531 437.319 213.58 437.214L214.442 435.43C214.567 435.171 214.933 435.171 215.058 435.43H215.067Z" fill="white"/>
<path d="M225.719 435.431L226.581 437.215C226.63 437.319 226.728 437.388 226.84 437.406L228.769 437.692C229.05 437.733 229.162 438.088 228.961 438.289L227.563 439.677C227.483 439.759 227.447 439.872 227.465 439.986L227.795 441.948C227.844 442.234 227.55 442.453 227.295 442.316L225.567 441.392C225.469 441.338 225.348 441.338 225.246 441.392L223.518 442.316C223.268 442.453 222.973 442.234 223.018 441.948L223.348 439.986C223.366 439.872 223.33 439.759 223.25 439.677L221.852 438.289C221.647 438.084 221.763 437.733 222.044 437.692L223.973 437.406C224.085 437.388 224.183 437.319 224.232 437.215L225.094 435.431C225.219 435.171 225.585 435.171 225.71 435.431H225.719Z" fill="white"/>
<path d="M236.37 435.431L237.232 437.215C237.281 437.319 237.38 437.388 237.491 437.406L239.42 437.692C239.701 437.733 239.813 438.088 239.612 438.289L238.215 439.677C238.134 439.759 238.098 439.872 238.116 439.986L238.447 441.948C238.496 442.234 238.201 442.453 237.947 442.316L236.219 441.392C236.12 441.338 236 441.338 235.897 441.392L234.169 442.316C233.919 442.453 233.624 442.234 233.669 441.948L233.999 439.986C234.017 439.872 233.982 439.759 233.901 439.677L232.504 438.289C232.298 438.084 232.414 437.733 232.696 437.692L234.625 437.406C234.736 437.388 234.834 437.319 234.884 437.215L235.745 435.431C235.87 435.171 236.236 435.171 236.362 435.431H236.37Z" fill="white"/>
<path d="M247.022 435.431L247.884 437.215C247.933 437.319 248.031 437.388 248.143 437.406L250.072 437.692C250.353 437.733 250.465 438.088 250.264 438.289L248.866 439.677C248.786 439.759 248.75 439.872 248.768 439.986L249.099 441.948C249.148 442.234 248.853 442.453 248.598 442.316L246.87 441.392C246.772 441.338 246.652 441.338 246.549 441.392L244.821 442.316C244.571 442.453 244.276 442.234 244.321 441.948L244.651 439.986C244.669 439.872 244.633 439.759 244.553 439.677L243.155 438.289C242.95 438.084 243.066 437.733 243.347 437.692L245.276 437.406C245.388 437.388 245.486 437.319 245.535 437.215L246.397 435.431C246.522 435.171 246.888 435.171 247.013 435.431H247.022Z" fill="white"/>
<path d="M257.674 435.431L258.536 437.215C258.585 437.319 258.683 437.388 258.795 437.406L260.724 437.692C261.005 437.733 261.117 438.088 260.916 438.289L259.518 439.677C259.438 439.759 259.402 439.872 259.42 439.986L259.75 441.948C259.8 442.234 259.505 442.453 259.25 442.316L257.522 441.392C257.424 441.338 257.304 441.338 257.201 441.392L255.473 442.316C255.223 442.453 254.928 442.234 254.973 441.948L255.303 439.986C255.321 439.872 255.285 439.759 255.205 439.677L253.807 438.289C253.602 438.084 253.718 437.733 253.999 437.692L255.928 437.406C256.04 437.388 256.138 437.319 256.187 437.215L257.049 435.431C257.174 435.171 257.54 435.171 257.665 435.431H257.674Z" fill="white"/>
<rect x="219.231" y="347.477" width="33.5392" height="33.5392" rx="16.7696" fill="white"/>
<path d="M233.894 359.761C232.776 360.1 231.781 360.721 230.99 361.54V370.959C232.223 372.235 233.952 373.028 235.866 373.028C237.779 373.028 239.511 372.235 240.743 370.958V361.539C239.509 360.263 237.78 359.469 235.866 359.469C235.18 359.469 234.517 359.572 233.894 359.761Z" fill="#000223"/>
<path d="M244.235 362.563C243.614 358.507 240.101 355.391 235.874 355.391C231.647 355.391 228.14 358.504 227.516 362.556C226.211 363.158 225.307 364.478 225.307 366.01V366.488C225.307 368.588 227.009 370.291 229.109 370.291H229.443V362.28C230.149 359.385 232.765 357.228 235.875 357.228C238.986 357.228 241.56 359.349 242.291 362.211V370.29H242.625C244.726 370.29 246.428 368.587 246.428 366.487V366.009C246.428 364.484 245.531 363.17 244.236 362.563H244.235Z" fill="#000223"/>
<circle opacity="0.3" cx="236.001" cy="364.245" r="19.6609" stroke="white" stroke-width="1.73479"/>
</g>
<rect x="174.391" y="334.175" width="122.988" height="122.988" rx="14.513" stroke="white" stroke-opacity="0.6" stroke-width="0.967535" stroke-dasharray="6.28 6.28"/>
<g clip-path="url(#clip1_718_12020)">
<rect x="8.74805" y="226.926" width="122.988" height="122.988" rx="14.513" fill="#000223"/>
<rect opacity="0.3" x="41.146" y="299.861" width="57.2037" height="5.72037" rx="1.90679" fill="white"/>
<rect opacity="0.3" x="30.1821" y="310.348" width="79.1318" height="5.72037" rx="1.90679" fill="white"/>
<path d="M37.033 284.359V285.57H35.0394V291.84H33.5388V285.57H31.5452V284.359H37.033ZM39.8428 286.824C40.0357 286.51 40.2858 286.263 40.593 286.085C40.9074 285.906 41.2647 285.817 41.6649 285.817V287.392H41.2683C40.7967 287.392 40.4394 287.503 40.1965 287.724C39.9607 287.946 39.8428 288.332 39.8428 288.882V291.84H38.3422V285.902H39.8428V286.824ZM48.4956 285.902V291.84H46.9843V291.09C46.7914 291.347 46.5377 291.551 46.2233 291.701C45.916 291.844 45.5802 291.915 45.2158 291.915C44.7513 291.915 44.3405 291.819 43.9832 291.626C43.6259 291.426 43.3437 291.136 43.1364 290.758C42.9364 290.372 42.8363 289.914 42.8363 289.386V285.902H44.3369V289.171C44.3369 289.643 44.4548 290.007 44.6906 290.265C44.9264 290.515 45.2479 290.64 45.6552 290.64C46.0697 290.64 46.3948 290.515 46.6306 290.265C46.8664 290.007 46.9843 289.643 46.9843 289.171V285.902H48.4956ZM52.4628 291.937C51.9769 291.937 51.541 291.851 51.1551 291.679C50.7693 291.501 50.462 291.261 50.2334 290.961C50.0118 290.661 49.8904 290.329 49.8689 289.965H51.3802C51.4088 290.193 51.5196 290.383 51.7125 290.533C51.9126 290.683 52.1591 290.758 52.452 290.758C52.7379 290.758 52.9594 290.701 53.1166 290.586C53.2809 290.472 53.3631 290.325 53.3631 290.147C53.3631 289.954 53.2631 289.811 53.063 289.718C52.8701 289.618 52.5592 289.511 52.1305 289.396C51.6875 289.289 51.3231 289.179 51.0372 289.064C50.7586 288.95 50.5156 288.775 50.3084 288.539C50.1083 288.303 50.0083 287.985 50.0083 287.585C50.0083 287.256 50.1012 286.956 50.287 286.685C50.4799 286.413 50.7514 286.199 51.1015 286.042C51.4588 285.884 51.8768 285.806 52.3556 285.806C53.063 285.806 53.6275 285.984 54.0491 286.342C54.4706 286.692 54.7029 287.167 54.7457 287.767H53.3095C53.2881 287.531 53.188 287.346 53.0094 287.21C52.8379 287.067 52.6057 286.996 52.3127 286.996C52.0412 286.996 51.8304 287.046 51.6803 287.146C51.5374 287.246 51.466 287.385 51.466 287.564C51.466 287.764 51.566 287.917 51.7661 288.025C51.9661 288.125 52.277 288.228 52.6986 288.335C53.1273 288.443 53.481 288.553 53.7597 288.668C54.0383 288.782 54.2777 288.961 54.4778 289.204C54.685 289.439 54.7922 289.754 54.7993 290.147C54.7993 290.49 54.7029 290.797 54.5099 291.068C54.3242 291.34 54.0526 291.554 53.6954 291.712C53.3452 291.862 52.9344 291.937 52.4628 291.937ZM57.9925 287.135V290.007C57.9925 290.207 58.039 290.354 58.1319 290.447C58.2319 290.533 58.3963 290.575 58.6249 290.575H59.3216V291.84H58.3784C57.1136 291.84 56.4813 291.226 56.4813 289.997V287.135H55.7739V285.902H56.4813V284.434H57.9925V285.902H59.3216V287.135H57.9925ZM66.1352 288.743C66.1352 288.957 66.1209 289.15 66.0923 289.321H61.7514C61.7871 289.75 61.9372 290.086 62.2015 290.329C62.4659 290.572 62.7911 290.693 63.1769 290.693C63.7343 290.693 64.1308 290.454 64.3666 289.975H65.9851C65.8136 290.547 65.4849 291.018 64.999 291.39C64.5131 291.754 63.9165 291.937 63.2091 291.937C62.6374 291.937 62.1229 291.812 61.6656 291.562C61.2155 291.304 60.8618 290.943 60.6045 290.479C60.3544 290.015 60.2294 289.479 60.2294 288.871C60.2294 288.257 60.3544 287.717 60.6045 287.253C60.8546 286.788 61.2048 286.431 61.6549 286.181C62.1051 285.931 62.6231 285.806 63.2091 285.806C63.7736 285.806 64.2773 285.927 64.7203 286.17C65.1705 286.413 65.5171 286.76 65.76 287.21C66.0101 287.653 66.1352 288.164 66.1352 288.743ZM64.581 288.314C64.5739 287.928 64.4345 287.621 64.163 287.392C63.8915 287.156 63.5592 287.038 63.1662 287.038C62.7946 287.038 62.4802 287.153 62.223 287.381C61.9729 287.603 61.8193 287.914 61.7621 288.314H64.581ZM67.0589 288.85C67.0589 288.25 67.1768 287.717 67.4126 287.253C67.6556 286.788 67.9843 286.431 68.3987 286.181C68.8132 285.931 69.274 285.806 69.7814 285.806C70.1672 285.806 70.5352 285.892 70.8853 286.063C71.2355 286.227 71.5142 286.449 71.7214 286.728V283.909H73.2434V291.84H71.7214V290.961C71.5356 291.254 71.2748 291.49 70.9389 291.669C70.6031 291.847 70.2137 291.937 69.7706 291.937C69.2705 291.937 68.8132 291.808 68.3987 291.551C67.9843 291.294 67.6556 290.933 67.4126 290.468C67.1768 289.997 67.0589 289.457 67.0589 288.85ZM71.7321 288.871C71.7321 288.507 71.6606 288.196 71.5177 287.939C71.3748 287.674 71.1819 287.474 70.9389 287.339C70.696 287.196 70.4352 287.124 70.1565 287.124C69.8778 287.124 69.6206 287.192 69.3848 287.328C69.149 287.464 68.9561 287.664 68.806 287.928C68.6631 288.185 68.5916 288.493 68.5916 288.85C68.5916 289.207 68.6631 289.521 68.806 289.793C68.9561 290.057 69.149 290.261 69.3848 290.404C69.6277 290.547 69.885 290.618 70.1565 290.618C70.4352 290.618 70.696 290.55 70.9389 290.415C71.1819 290.272 71.3748 290.072 71.5177 289.814C71.6606 289.55 71.7321 289.236 71.7321 288.871ZM77.3058 288.871C77.3058 288.257 77.4308 287.721 77.6809 287.264C77.931 286.799 78.2775 286.442 78.7206 286.192C79.1636 285.934 79.6709 285.806 80.2426 285.806C80.9785 285.806 81.5859 285.992 82.0647 286.363C82.5506 286.728 82.8757 287.242 83.04 287.907H81.4216C81.3358 287.649 81.1893 287.449 80.9821 287.306C80.782 287.156 80.532 287.081 80.2318 287.081C79.8031 287.081 79.4637 287.239 79.2136 287.553C78.9635 287.86 78.8385 288.3 78.8385 288.871C78.8385 289.436 78.9635 289.875 79.2136 290.19C79.4637 290.497 79.8031 290.65 80.2318 290.65C80.8392 290.65 81.2358 290.379 81.4216 289.836H83.04C82.8757 290.479 82.5506 290.99 82.0647 291.369C81.5788 291.747 80.9714 291.937 80.2426 291.937C79.6709 291.937 79.1636 291.812 78.7206 291.562C78.2775 291.304 77.931 290.947 77.6809 290.49C77.4308 290.025 77.3058 289.486 77.3058 288.871ZM85.8542 283.909V291.84H84.3537V283.909H85.8542ZM88.3121 285.195C88.0478 285.195 87.8263 285.113 87.6476 284.948C87.4761 284.777 87.3904 284.566 87.3904 284.316C87.3904 284.066 87.4761 283.859 87.6476 283.694C87.8263 283.523 88.0478 283.437 88.3121 283.437C88.5765 283.437 88.7945 283.523 88.966 283.694C89.1446 283.859 89.2339 284.066 89.2339 284.316C89.2339 284.566 89.1446 284.777 88.966 284.948C88.7945 285.113 88.5765 285.195 88.3121 285.195ZM89.0517 285.902V291.84H87.5512V285.902H89.0517ZM96.2685 288.743C96.2685 288.957 96.2542 289.15 96.2257 289.321H91.8848C91.9205 289.75 92.0705 290.086 92.3349 290.329C92.5993 290.572 92.9244 290.693 93.3103 290.693C93.8676 290.693 94.2642 290.454 94.5 289.975H96.1185C95.947 290.547 95.6183 291.018 95.1324 291.39C94.6465 291.754 94.0498 291.937 93.3424 291.937C92.7708 291.937 92.2563 291.812 91.799 291.562C91.3488 291.304 90.9951 290.943 90.7379 290.479C90.4878 290.015 90.3628 289.479 90.3628 288.871C90.3628 288.257 90.4878 287.717 90.7379 287.253C90.988 286.788 91.3381 286.431 91.7883 286.181C92.2385 285.931 92.7565 285.806 93.3424 285.806C93.9069 285.806 94.4107 285.927 94.8537 286.17C95.3039 286.413 95.6504 286.76 95.8934 287.21C96.1435 287.653 96.2685 288.164 96.2685 288.743ZM94.7144 288.314C94.7072 287.928 94.5679 287.621 94.2964 287.392C94.0248 287.156 93.6926 287.038 93.2996 287.038C92.928 287.038 92.6136 287.153 92.3564 287.381C92.1063 287.603 91.9526 287.914 91.8955 288.314H94.7144ZM100.869 285.817C101.576 285.817 102.148 286.042 102.584 286.492C103.019 286.935 103.237 287.556 103.237 288.357V291.84H101.737V288.56C101.737 288.089 101.619 287.728 101.383 287.478C101.147 287.221 100.826 287.092 100.419 287.092C100.004 287.092 99.6754 287.221 99.4324 287.478C99.1966 287.728 99.0787 288.089 99.0787 288.56V291.84H97.5782V285.902H99.0787V286.642C99.2788 286.385 99.5325 286.185 99.8397 286.042C100.154 285.892 100.497 285.817 100.869 285.817ZM106.626 287.135V290.007C106.626 290.207 106.672 290.354 106.765 290.447C106.865 290.533 107.03 290.575 107.258 290.575H107.955V291.84H107.012C105.747 291.84 105.115 291.226 105.115 289.997V287.135H104.407V285.902H105.115V284.434H106.626V285.902H107.955V287.135H106.626Z" fill="white"/>
<rect opacity="0.2" x="40.21" y="324.075" width="60.1393" height="15.0348" rx="3.81358" fill="white"/>
<path d="M49.4246 328.181L50.2864 329.965C50.3355 330.07 50.4338 330.138 50.5454 330.157L52.4743 330.443C52.7556 330.484 52.8673 330.839 52.6663 331.04L51.2687 332.428C51.1884 332.509 51.1526 332.623 51.1705 332.737L51.5009 334.699C51.5501 334.985 51.2553 335.204 51.0008 335.067L49.2728 334.143C49.1746 334.089 49.054 334.089 48.9513 334.143L47.2233 335.067C46.9733 335.204 46.6786 334.985 46.7232 334.699L47.0537 332.737C47.0715 332.623 47.0358 332.509 46.9554 332.428L45.5578 331.04C45.3524 330.835 45.4685 330.484 45.7499 330.443L47.6788 330.157C47.7904 330.138 47.8886 330.07 47.9377 329.965L48.7995 328.181C48.9245 327.922 49.2907 327.922 49.4157 328.181H49.4246Z" fill="white"/>
<path d="M60.0765 328.181L60.9383 329.965C60.9874 330.07 61.0856 330.138 61.1972 330.157L63.1262 330.443C63.4075 330.484 63.5191 330.839 63.3182 331.04L61.9206 332.428C61.8402 332.509 61.8045 332.623 61.8224 332.737L62.1528 334.699C62.2019 334.985 61.9072 335.204 61.6527 335.067L59.9247 334.143C59.8264 334.089 59.7059 334.089 59.6032 334.143L57.8752 335.067C57.6252 335.204 57.3304 334.985 57.3751 334.699L57.7055 332.737C57.7234 332.623 57.6876 332.509 57.6073 332.428L56.2097 331.04C56.0043 330.835 56.1204 330.484 56.4017 330.443L58.3306 330.157C58.4423 330.138 58.5405 330.07 58.5896 329.965L59.4514 328.181C59.5764 327.922 59.9425 327.922 60.0676 328.181H60.0765Z" fill="white"/>
<path d="M70.7278 328.181L71.5896 329.965C71.6387 330.07 71.737 330.138 71.8486 330.157L73.7775 330.443C74.0588 330.484 74.1705 330.839 73.9695 331.04L72.5719 332.428C72.4916 332.509 72.4559 332.623 72.4737 332.737L72.8041 334.699C72.8533 334.985 72.5586 335.204 72.304 335.067L70.576 334.143C70.4778 334.089 70.3572 334.089 70.2545 334.143L68.5265 335.067C68.2765 335.204 67.9818 334.985 68.0264 334.699L68.3569 332.737C68.3747 332.623 68.339 332.509 68.2586 332.428L66.8611 331.04C66.6557 330.835 66.7718 330.484 67.0531 330.443L68.982 330.157C69.0936 330.138 69.1919 330.07 69.241 329.965L70.1027 328.181C70.2278 327.922 70.5939 327.922 70.7189 328.181H70.7278Z" fill="white"/>
<path d="M81.3797 328.181L82.2415 329.965C82.2906 330.07 82.3888 330.138 82.5004 330.157L84.4294 330.443C84.7107 330.484 84.8223 330.839 84.6214 331.04L83.2238 332.428C83.1434 332.509 83.1077 332.623 83.1256 332.737L83.456 334.699C83.5051 334.985 83.2104 335.204 82.9559 335.067L81.2279 334.143C81.1297 334.089 81.0091 334.089 80.9064 334.143L79.1784 335.067C78.9283 335.204 78.6337 334.985 78.6783 334.699L79.0087 332.737C79.0266 332.623 78.9909 332.509 78.9105 332.428L77.5129 331.04C77.3075 330.835 77.4236 330.484 77.7049 330.443L79.6338 330.157C79.7455 330.138 79.8437 330.07 79.8928 329.965L80.7546 328.181C80.8796 327.922 81.2457 327.922 81.3708 328.181H81.3797Z" fill="white"/>
<path d="M92.0316 328.181L92.8933 329.965C92.9425 330.07 93.0407 330.138 93.1523 330.157L95.0813 330.443C95.3626 330.484 95.4742 330.839 95.2733 331.04L93.8757 332.428C93.7953 332.509 93.7596 332.623 93.7774 332.737L94.1078 334.699C94.157 334.985 93.8623 335.204 93.6078 335.067L91.8798 334.143C91.7815 334.089 91.661 334.089 91.5583 334.143L89.8303 335.067C89.5802 335.204 89.2855 334.985 89.3302 334.699L89.6606 332.737C89.6785 332.623 89.6427 332.509 89.5624 332.428L88.1648 331.04C87.9594 330.835 88.0755 330.484 88.3568 330.443L90.2857 330.157C90.3973 330.138 90.4956 330.07 90.5447 329.965L91.4065 328.181C91.5315 327.922 91.8976 327.922 92.0226 328.181H92.0316Z" fill="white"/>
<rect x="53.5889" y="240.228" width="33.5392" height="33.5392" rx="16.7696" fill="#FBBE7E"/>
<path d="M68.251 252.512C67.1338 252.851 66.138 253.472 65.3472 254.291V263.71C66.5809 264.986 68.3093 265.779 70.2229 265.779C72.1366 265.779 73.8687 264.986 75.1006 263.709V254.29C73.8668 253.014 72.1375 252.22 70.2229 252.22C69.5374 252.22 68.8745 252.323 68.251 252.512Z" fill="#000223"/>
<path d="M78.5925 255.314C77.971 251.258 74.4587 248.142 70.2318 248.142C66.0049 248.142 62.4974 251.255 61.873 255.307C60.5687 255.909 59.6641 257.229 59.6641 258.76V259.239C59.6641 261.339 61.3661 263.042 63.4669 263.042H63.8007V255.031C64.5069 252.136 67.122 249.978 70.2327 249.978C73.3435 249.978 75.9172 252.1 76.6488 254.961V263.041H76.9826C79.0834 263.041 80.7854 261.338 80.7854 259.238V258.76C80.7854 257.235 79.8883 255.921 78.5935 255.314H78.5925Z" fill="#000223"/>
<circle opacity="0.3" cx="70.3582" cy="256.996" r="19.6609" stroke="white" stroke-width="1.73479"/>
</g>
<rect x="8.74805" y="226.926" width="122.988" height="122.988" rx="14.513" stroke="#FBBE7E" stroke-opacity="0.6" stroke-width="0.967535"/>
<g clip-path="url(#clip2_718_12020)">
<rect x="340.031" y="226.926" width="122.988" height="122.988" rx="14.513" fill="#000223"/>
<rect opacity="0.3" x="372.429" y="299.861" width="57.2037" height="5.72037" rx="1.90679" fill="white"/>
<rect opacity="0.3" x="361.465" y="310.348" width="79.1318" height="5.72037" rx="1.90679" fill="white"/>
<path d="M378.674 288.003C379.096 288.082 379.442 288.292 379.714 288.635C379.985 288.978 380.121 289.371 380.121 289.814C380.121 290.215 380.021 290.568 379.821 290.876C379.628 291.176 379.346 291.411 378.974 291.583C378.603 291.754 378.163 291.84 377.656 291.84H374.43V284.359H377.516C378.024 284.359 378.46 284.441 378.824 284.605C379.196 284.77 379.474 284.998 379.66 285.291C379.853 285.584 379.949 285.917 379.949 286.288C379.949 286.724 379.832 287.088 379.596 287.381C379.367 287.674 379.06 287.882 378.674 288.003ZM375.93 287.446H377.302C377.659 287.446 377.934 287.367 378.127 287.21C378.32 287.046 378.417 286.813 378.417 286.513C378.417 286.213 378.32 285.981 378.127 285.817C377.934 285.652 377.659 285.57 377.302 285.57H375.93V287.446ZM377.441 290.618C377.806 290.618 378.088 290.533 378.288 290.361C378.495 290.19 378.599 289.947 378.599 289.632C378.599 289.311 378.492 289.061 378.277 288.882C378.063 288.696 377.774 288.603 377.409 288.603H375.93V290.618H377.441ZM381.831 290.147C382.517 289.575 383.064 289.1 383.471 288.721C383.879 288.335 384.218 287.935 384.489 287.521C384.761 287.106 384.897 286.699 384.897 286.299C384.897 285.934 384.811 285.649 384.64 285.441C384.468 285.234 384.204 285.131 383.846 285.131C383.489 285.131 383.214 285.252 383.021 285.495C382.828 285.731 382.728 286.056 382.721 286.47H381.263C381.292 285.613 381.546 284.963 382.024 284.52C382.51 284.077 383.125 283.855 383.868 283.855C384.682 283.855 385.308 284.073 385.744 284.509C386.179 284.938 386.397 285.506 386.397 286.213C386.397 286.77 386.247 287.303 385.947 287.81C385.647 288.317 385.304 288.76 384.918 289.139C384.532 289.511 384.029 289.961 383.407 290.49H386.569V291.733H381.274V290.618L381.831 290.147ZM392.145 288.003C392.566 288.082 392.913 288.292 393.184 288.635C393.456 288.978 393.592 289.371 393.592 289.814C393.592 290.215 393.492 290.568 393.292 290.876C393.099 291.176 392.816 291.411 392.445 291.583C392.073 291.754 391.634 291.84 391.126 291.84H387.9V284.359H390.987C391.494 284.359 391.93 284.441 392.295 284.605C392.666 284.77 392.945 284.998 393.131 285.291C393.324 285.584 393.42 285.917 393.42 286.288C393.42 286.724 393.302 287.088 393.066 287.381C392.838 287.674 392.531 287.882 392.145 288.003ZM389.401 287.446H390.773C391.13 287.446 391.405 287.367 391.598 287.21C391.791 287.046 391.887 286.813 391.887 286.513C391.887 286.213 391.791 285.981 391.598 285.817C391.405 285.652 391.13 285.57 390.773 285.57H389.401V287.446ZM390.912 290.618C391.276 290.618 391.559 290.533 391.759 290.361C391.966 290.19 392.07 289.947 392.07 289.632C392.07 289.311 391.962 289.061 391.748 288.882C391.534 288.696 391.244 288.603 390.88 288.603H389.401V290.618H390.912ZM397.384 288.871C397.384 288.257 397.509 287.721 397.76 287.264C398.01 286.799 398.356 286.442 398.799 286.192C399.242 285.934 399.75 285.806 400.321 285.806C401.057 285.806 401.665 285.992 402.143 286.363C402.629 286.728 402.954 287.242 403.119 287.907H401.5C401.414 287.649 401.268 287.449 401.061 287.306C400.861 287.156 400.611 287.081 400.31 287.081C399.882 287.081 399.542 287.239 399.292 287.553C399.042 287.86 398.917 288.3 398.917 288.871C398.917 289.436 399.042 289.875 399.292 290.19C399.542 290.497 399.882 290.65 400.31 290.65C400.918 290.65 401.314 290.379 401.5 289.836H403.119C402.954 290.479 402.629 290.99 402.143 291.369C401.657 291.747 401.05 291.937 400.321 291.937C399.75 291.937 399.242 291.812 398.799 291.562C398.356 291.304 398.01 290.947 397.76 290.49C397.509 290.025 397.384 289.486 397.384 288.871ZM405.933 283.909V291.84H404.432V283.909H405.933ZM408.391 285.195C408.126 285.195 407.905 285.113 407.726 284.948C407.555 284.777 407.469 284.566 407.469 284.316C407.469 284.066 407.555 283.859 407.726 283.694C407.905 283.523 408.126 283.437 408.391 283.437C408.655 283.437 408.873 283.523 409.045 283.694C409.223 283.859 409.313 284.066 409.313 284.316C409.313 284.566 409.223 284.777 409.045 284.948C408.873 285.113 408.655 285.195 408.391 285.195ZM409.13 285.902V291.84H407.63V285.902H409.13ZM416.347 288.743C416.347 288.957 416.333 289.15 416.304 289.321H411.963C411.999 289.75 412.149 290.086 412.414 290.329C412.678 290.572 413.003 290.693 413.389 290.693C413.946 290.693 414.343 290.454 414.579 289.975H416.197C416.026 290.547 415.697 291.018 415.211 291.39C414.725 291.754 414.128 291.937 413.421 291.937C412.849 291.937 412.335 291.812 411.878 291.562C411.427 291.304 411.074 290.943 410.817 290.479C410.566 290.015 410.441 289.479 410.441 288.871C410.441 288.257 410.566 287.717 410.817 287.253C411.067 286.788 411.417 286.431 411.867 286.181C412.317 285.931 412.835 285.806 413.421 285.806C413.986 285.806 414.489 285.927 414.932 286.17C415.383 286.413 415.729 286.76 415.972 287.21C416.222 287.653 416.347 288.164 416.347 288.743ZM414.793 288.314C414.786 287.928 414.647 287.621 414.375 287.392C414.103 287.156 413.771 287.038 413.378 287.038C413.007 287.038 412.692 287.153 412.435 287.381C412.185 287.603 412.031 287.914 411.974 288.314H414.793ZM420.947 285.817C421.655 285.817 422.226 286.042 422.662 286.492C423.098 286.935 423.316 287.556 423.316 288.357V291.84H421.815V288.56C421.815 288.089 421.698 287.728 421.462 287.478C421.226 287.221 420.904 287.092 420.497 287.092C420.083 287.092 419.754 287.221 419.511 287.478C419.275 287.728 419.157 288.089 419.157 288.56V291.84H417.657V285.902H419.157V286.642C419.357 286.385 419.611 286.185 419.918 286.042C420.233 285.892 420.576 285.817 420.947 285.817ZM426.704 287.135V290.007C426.704 290.207 426.751 290.354 426.844 290.447C426.944 290.533 427.108 290.575 427.337 290.575H428.034V291.84H427.09C425.826 291.84 425.193 291.226 425.193 289.997V287.135H424.486V285.902H425.193V284.434H426.704V285.902H428.034V287.135H426.704Z" fill="white"/>
<rect opacity="0.2" x="371.493" y="324.075" width="60.1393" height="15.0348" rx="3.81358" fill="white"/>
<path d="M380.708 328.181L381.57 329.965C381.619 330.07 381.717 330.138 381.829 330.157L383.758 330.443C384.039 330.484 384.15 330.839 383.95 331.04L382.552 332.428C382.472 332.509 382.436 332.623 382.454 332.737L382.784 334.699C382.833 334.985 382.539 335.204 382.284 335.067L380.556 334.143C380.458 334.089 380.337 334.089 380.235 334.143L378.507 335.067C378.256 335.204 377.962 334.985 378.006 334.699L378.337 332.737C378.355 332.623 378.319 332.509 378.239 332.428L376.841 331.04C376.636 330.835 376.752 330.484 377.033 330.443L378.962 330.157C379.074 330.138 379.172 330.07 379.221 329.965L380.083 328.181C380.208 327.922 380.574 327.922 380.699 328.181H380.708Z" fill="white"/>
<path d="M391.36 328.181L392.221 329.965C392.271 330.07 392.369 330.138 392.48 330.157L394.409 330.443C394.691 330.484 394.802 330.839 394.601 331.04L393.204 332.428C393.123 332.509 393.088 332.623 393.106 332.737L393.436 334.699C393.485 334.985 393.19 335.204 392.936 335.067L391.208 334.143C391.11 334.089 390.989 334.089 390.886 334.143L389.158 335.067C388.908 335.204 388.614 334.985 388.658 334.699L388.989 332.737C389.007 332.623 388.971 332.509 388.89 332.428L387.493 331.04C387.287 330.835 387.404 330.484 387.685 330.443L389.614 330.157C389.725 330.138 389.824 330.07 389.873 329.965L390.735 328.181C390.86 327.922 391.226 327.922 391.351 328.181H391.36Z" fill="white"/>
<path d="M402.011 328.181L402.873 329.965C402.922 330.07 403.02 330.138 403.132 330.157L405.061 330.443C405.342 330.484 405.454 330.839 405.253 331.04L403.855 332.428C403.775 332.509 403.739 332.623 403.757 332.737L404.087 334.699C404.136 334.985 403.842 335.204 403.587 335.067L401.859 334.143C401.761 334.089 401.64 334.089 401.538 334.143L399.81 335.067C399.56 335.204 399.265 334.985 399.31 334.699L399.64 332.737C399.658 332.623 399.622 332.509 399.542 332.428L398.144 331.04C397.939 330.835 398.055 330.484 398.336 330.443L400.265 330.157C400.377 330.138 400.475 330.07 400.524 329.965L401.386 328.181C401.511 327.922 401.877 327.922 402.002 328.181H402.011Z" fill="white"/>
<path d="M412.663 328.181L413.525 329.965C413.574 330.07 413.672 330.138 413.784 330.157L415.713 330.443C415.994 330.484 416.106 330.839 415.905 331.04L414.507 332.428C414.427 332.509 414.391 332.623 414.409 332.737L414.739 334.699C414.788 334.985 414.494 335.204 414.239 335.067L412.511 334.143C412.413 334.089 412.292 334.089 412.19 334.143L410.462 335.067C410.212 335.204 409.917 334.985 409.962 334.699L410.292 332.737C410.31 332.623 410.274 332.509 410.194 332.428L408.796 331.04C408.591 330.835 408.707 330.484 408.988 330.443L410.917 330.157C411.029 330.138 411.127 330.07 411.176 329.965L412.038 328.181C412.163 327.922 412.529 327.922 412.654 328.181H412.663Z" fill="white"/>
<path d="M423.315 328.181L424.177 329.965C424.226 330.07 424.324 330.138 424.436 330.157L426.364 330.443C426.646 330.484 426.757 330.839 426.556 331.04L425.159 332.428C425.079 332.509 425.043 332.623 425.061 332.737L425.391 334.699C425.44 334.985 425.145 335.204 424.891 335.067L423.163 334.143C423.065 334.089 422.944 334.089 422.841 334.143L421.113 335.067C420.863 335.204 420.569 334.985 420.613 334.699L420.944 332.737C420.962 332.623 420.926 332.509 420.846 332.428L419.448 331.04C419.243 330.835 419.359 330.484 419.64 330.443L421.569 330.157C421.681 330.138 421.779 330.07 421.828 329.965L422.69 328.181C422.815 327.922 423.181 327.922 423.306 328.181H423.315Z" fill="white"/>
<rect x="384.872" y="240.228" width="33.5392" height="33.5392" rx="16.7696" fill="white"/>
<g clip-path="url(#clip3_718_12020)">
<path d="M400.339 255.871C400.529 255.895 400.724 255.908 400.922 255.908C401.144 255.908 401.363 255.892 401.577 255.86C403.786 255.543 405.483 253.644 405.483 251.347C405.483 248.828 403.441 246.786 400.922 246.786C398.403 246.786 396.361 248.828 396.361 251.347C396.361 253.669 398.095 255.584 400.339 255.871Z" fill="#000223"/>
<path d="M409.501 262.343C409.497 259.241 406.959 256.806 405.839 255.868C405.638 255.7 405.351 255.689 405.136 255.841C404.695 256.153 403.946 256.605 402.957 256.897C402.97 256.921 402.981 256.944 402.992 256.969C403.269 257.571 403.244 258.258 402.916 259.011C402.895 259.06 402.872 259.108 402.848 259.155C402.547 259.882 402.248 260.609 401.948 261.336L401.721 260.384L401.58 259.793L401.433 259.177C401.553 259.065 401.676 258.921 401.778 258.743C401.812 258.685 401.843 258.623 401.872 258.558C401.974 258.323 402.151 257.864 401.958 257.444C401.898 257.315 401.814 257.218 401.718 257.146C401.468 256.956 401.141 256.932 400.987 256.932C400.949 256.932 400.922 256.934 400.908 256.935C400.805 256.94 400.476 256.956 400.222 257.148C400.128 257.219 400.044 257.316 399.985 257.444C399.804 257.846 399.976 258.289 400.094 258.556C400.118 258.609 400.143 258.66 400.171 258.709C400.272 258.896 400.396 259.047 400.517 259.169L400.369 259.794L400.226 260.392L399.998 261.346C399.689 260.582 399.379 259.818 399.069 259.053C399.022 258.935 398.973 258.817 398.925 258.699C398.925 258.698 398.924 258.696 398.924 258.695C398.923 258.691 398.921 258.687 398.92 258.683C398.781 258.276 398.65 257.632 398.947 256.975C398.958 256.952 398.97 256.927 398.984 256.9C398.009 256.613 397.271 256.168 396.814 255.842C396.601 255.689 396.313 255.701 396.112 255.869C394.991 256.808 392.454 259.242 392.451 262.343C392.45 263.08 392.448 264.302 393.37 265.208C394.276 266.101 395.523 266.143 395.913 266.141H406.039C406.43 266.143 407.676 266.101 408.582 265.208C409.504 264.302 409.502 263.08 409.501 262.343Z" fill="#000223"/>
</g>
<circle opacity="0.3" cx="401.641" cy="256.996" r="19.6609" stroke="white" stroke-width="1.73479"/>
</g>
<rect x="340.031" y="226.926" width="122.988" height="122.988" rx="14.513" stroke="white" stroke-opacity="0.6" stroke-width="0.967535"/>
<g filter="url(#filter0_b_718_12020)">
<g clip-path="url(#clip4_718_12020)">
<rect x="159.005" y="25.8979" width="153.589" height="153.589" rx="20.513" fill="url(#paint3_radial_718_12020)"/>
<rect opacity="0.3" x="200.287" y="116.98" width="71.4368" height="7.14368" rx="2.38123" fill="white"/>
<rect opacity="0.3" x="186.595" y="130.077" width="98.8209" height="7.14368" rx="2.38123" fill="white"/>
<path d="M206.231 100.526C206.231 101.026 206.111 101.494 205.87 101.932C205.638 102.369 205.267 102.721 204.759 102.989C204.259 103.257 203.625 103.391 202.858 103.391H201.292V106.978H199.418V97.635H202.858C203.581 97.635 204.197 97.7599 204.705 98.0098C205.214 98.2596 205.593 98.6032 205.843 99.0404C206.102 99.4777 206.231 99.9729 206.231 100.526ZM202.778 101.878C203.295 101.878 203.679 101.762 203.929 101.53C204.179 101.289 204.304 100.954 204.304 100.526C204.304 99.616 203.795 99.1609 202.778 99.1609H201.292V101.878H202.778ZM209.703 100.714C209.944 100.321 210.256 100.013 210.64 99.79C211.033 99.5669 211.479 99.4554 211.979 99.4554V101.423H211.483C210.894 101.423 210.448 101.561 210.145 101.838C209.85 102.115 209.703 102.596 209.703 103.283V106.978H207.829V99.5624H209.703V100.714ZM216.801 107.098C216.087 107.098 215.445 106.942 214.874 106.63C214.303 106.309 213.852 105.858 213.522 105.278C213.201 104.698 213.04 104.029 213.04 103.27C213.04 102.512 213.205 101.842 213.535 101.262C213.874 100.682 214.334 100.236 214.914 99.9238C215.494 99.6026 216.141 99.442 216.855 99.442C217.569 99.442 218.216 99.6026 218.796 99.9238C219.376 100.236 219.831 100.682 220.161 101.262C220.5 101.842 220.67 102.512 220.67 103.27C220.67 104.029 220.496 104.698 220.148 105.278C219.808 105.858 219.344 106.309 218.756 106.63C218.175 106.942 217.524 107.098 216.801 107.098ZM216.801 105.465C217.14 105.465 217.457 105.385 217.752 105.224C218.055 105.055 218.296 104.805 218.474 104.475C218.653 104.145 218.742 103.743 218.742 103.27C218.742 102.565 218.555 102.025 218.18 101.651C217.814 101.267 217.363 101.075 216.828 101.075C216.293 101.075 215.842 101.267 215.476 101.651C215.119 102.025 214.941 102.565 214.941 103.27C214.941 103.975 215.115 104.519 215.463 104.903C215.82 105.278 216.266 105.465 216.801 105.465ZM228.014 101.41V102.989H222.339V101.41H228.014ZM237.196 100.526C237.196 101.026 237.076 101.494 236.835 101.932C236.603 102.369 236.232 102.721 235.724 102.989C235.224 103.257 234.591 103.391 233.823 103.391H232.257V106.978H230.383V97.635H233.823C234.546 97.635 235.162 97.7599 235.67 98.0098C236.179 98.2596 236.558 98.6032 236.808 99.0404C237.067 99.4777 237.196 99.9729 237.196 100.526ZM233.743 101.878C234.26 101.878 234.644 101.762 234.894 101.53C235.144 101.289 235.269 100.954 235.269 100.526C235.269 99.616 234.76 99.1609 233.743 99.1609H232.257V101.878H233.743ZM240.668 97.0728V106.978H238.794V97.0728H240.668ZM242.306 103.243C242.306 102.494 242.453 101.829 242.747 101.249C243.051 100.669 243.457 100.223 243.965 99.9105C244.483 99.5981 245.058 99.442 245.692 99.442C246.245 99.442 246.727 99.5535 247.138 99.7766C247.557 99.9997 247.892 100.281 248.141 100.62V99.5624H250.029V106.978H248.141V105.894C247.901 106.242 247.566 106.532 247.138 106.764C246.718 106.987 246.232 107.098 245.679 107.098C245.054 107.098 244.483 106.938 243.965 106.616C243.457 106.295 243.051 105.845 242.747 105.264C242.453 104.676 242.306 104.002 242.306 103.243ZM248.141 103.27C248.141 102.815 248.052 102.427 247.874 102.106C247.695 101.775 247.454 101.526 247.151 101.356C246.848 101.178 246.522 101.088 246.174 101.088C245.826 101.088 245.505 101.173 245.21 101.343C244.916 101.512 244.675 101.762 244.487 102.092C244.309 102.413 244.22 102.797 244.22 103.243C244.22 103.69 244.309 104.082 244.487 104.421C244.675 104.751 244.916 105.006 245.21 105.184C245.514 105.363 245.835 105.452 246.174 105.452C246.522 105.452 246.848 105.367 247.151 105.198C247.454 105.019 247.695 104.769 247.874 104.448C248.052 104.118 248.141 103.725 248.141 103.27ZM259.221 99.5624L254.63 110.485H252.635L254.241 106.79L251.27 99.5624H253.371L255.286 104.742L257.226 99.5624H259.221ZM267.392 103.109C267.392 103.377 267.374 103.618 267.338 103.832H261.917C261.962 104.368 262.149 104.787 262.48 105.09C262.81 105.394 263.216 105.546 263.698 105.546C264.394 105.546 264.889 105.247 265.183 104.649H267.205C266.99 105.363 266.58 105.952 265.973 106.416C265.366 106.871 264.621 107.098 263.738 107.098C263.024 107.098 262.381 106.942 261.81 106.63C261.248 106.309 260.806 105.858 260.485 105.278C260.173 104.698 260.017 104.029 260.017 103.27C260.017 102.503 260.173 101.829 260.485 101.249C260.798 100.669 261.235 100.223 261.797 99.9105C262.359 99.5981 263.006 99.442 263.738 99.442C264.443 99.442 265.072 99.5937 265.625 99.8971C266.187 100.2 266.62 100.633 266.923 101.195C267.236 101.749 267.392 102.387 267.392 103.109ZM265.451 102.574C265.442 102.092 265.268 101.709 264.929 101.423C264.59 101.128 264.175 100.981 263.684 100.981C263.22 100.981 262.828 101.124 262.506 101.41C262.194 101.686 262.002 102.074 261.931 102.574H265.451ZM270.901 100.714C271.142 100.321 271.455 100.013 271.838 99.79C272.231 99.5669 272.677 99.4554 273.177 99.4554V101.423H272.682C272.093 101.423 271.646 101.561 271.343 101.838C271.049 102.115 270.901 102.596 270.901 103.283V106.978H269.027V99.5624H270.901V100.714Z" fill="white"/>
<rect opacity="0.2" x="198.295" y="147.218" width="75.1028" height="18.7757" rx="4.76245" fill="white"/>
<path d="M209.802 152.347L210.879 154.575C210.94 154.705 211.063 154.791 211.202 154.813L213.611 155.171C213.962 155.223 214.102 155.666 213.851 155.916L212.105 157.649C212.005 157.752 211.96 157.894 211.983 158.036L212.395 160.485C212.457 160.843 212.089 161.116 211.771 160.946L209.613 159.792C209.49 159.724 209.34 159.724 209.211 159.792L207.053 160.946C206.741 161.116 206.373 160.843 206.429 160.485L206.841 158.036C206.864 157.894 206.819 157.752 206.719 157.649L204.973 155.916C204.717 155.66 204.862 155.223 205.213 155.171L207.622 154.813C207.761 154.791 207.884 154.705 207.945 154.575L209.022 152.347C209.178 152.023 209.635 152.023 209.791 152.347H209.802Z" fill="white"/>
<path d="M223.105 152.347L224.181 154.575C224.242 154.705 224.365 154.791 224.504 154.813L226.913 155.171C227.264 155.223 227.404 155.666 227.153 155.916L225.408 157.649C225.307 157.752 225.263 157.894 225.285 158.036L225.697 160.485C225.759 160.843 225.391 161.116 225.073 160.946L222.915 159.792C222.792 159.724 222.642 159.724 222.514 159.792L220.356 160.946C220.043 161.116 219.675 160.843 219.731 160.485L220.144 158.036C220.166 157.894 220.121 157.752 220.021 157.649L218.276 155.916C218.019 155.66 218.164 155.223 218.515 155.171L220.924 154.813C221.064 154.791 221.186 154.705 221.248 154.575L222.324 152.347C222.48 152.023 222.937 152.023 223.093 152.347H223.105Z" fill="white"/>
<path d="M236.406 152.347L237.482 154.575C237.544 154.705 237.667 154.791 237.806 154.813L240.215 155.171C240.566 155.223 240.705 155.666 240.455 155.916L238.709 157.649C238.609 157.752 238.564 157.894 238.587 158.036L238.999 160.485C239.061 160.843 238.693 161.116 238.375 160.946L236.217 159.792C236.094 159.724 235.943 159.724 235.815 159.792L233.657 160.946C233.345 161.116 232.977 160.843 233.033 160.485L233.445 158.036C233.468 157.894 233.423 157.752 233.323 157.649L231.577 155.916C231.321 155.66 231.466 155.223 231.817 155.171L234.226 154.813C234.365 154.791 234.488 154.705 234.549 154.575L235.626 152.347C235.782 152.023 236.239 152.023 236.395 152.347H236.406Z" fill="white"/>
<path d="M249.708 152.347L250.784 154.575C250.846 154.705 250.968 154.791 251.108 154.813L253.517 155.171C253.868 155.223 254.007 155.666 253.756 155.916L252.011 157.649C251.911 157.752 251.866 157.894 251.888 158.036L252.301 160.485C252.362 160.843 251.994 161.116 251.676 160.946L249.518 159.792C249.396 159.724 249.245 159.724 249.117 159.792L246.959 160.946C246.647 161.116 246.279 160.843 246.335 160.485L246.747 158.036C246.769 157.894 246.725 157.752 246.624 157.649L244.879 155.916C244.623 155.66 244.768 155.223 245.119 155.171L247.528 154.813C247.667 154.791 247.79 154.705 247.851 154.575L248.927 152.347C249.084 152.023 249.541 152.023 249.697 152.347H249.708Z" fill="white"/>
<path d="M263.01 152.347L264.087 154.575C264.148 154.705 264.271 154.791 264.41 154.813L266.819 155.171C267.17 155.223 267.31 155.666 267.059 155.916L265.313 157.649C265.213 157.752 265.168 157.894 265.191 158.036L265.603 160.485C265.665 160.843 265.297 161.116 264.979 160.946L262.821 159.792C262.698 159.724 262.548 159.724 262.419 159.792L260.261 160.946C259.949 161.116 259.581 160.843 259.637 160.485L260.049 158.036C260.072 157.894 260.027 157.752 259.927 157.649L258.181 155.916C257.925 155.66 258.07 155.223 258.421 155.171L260.83 154.813C260.969 154.791 261.092 154.705 261.153 154.575L262.23 152.347C262.386 152.023 262.843 152.023 262.999 152.347H263.01Z" fill="white"/>
<rect x="215.002" y="42.5095" width="41.8842" height="41.8842" rx="20.9421" fill="url(#paint4_linear_718_12020)"/>
<path d="M228.412 60.67C226.369 59.1289 225.312 56.6655 225.14 54.6008C225.114 54.2735 224.828 54.0831 224.541 54.0831C224.331 54.0831 224.121 54.1843 224.007 54.3985C221.925 58.3197 222.752 63.7106 225.108 65.8645C225.662 64.3056 226.566 62.7526 227.744 61.3959C227.96 61.146 228.183 60.908 228.412 60.676V60.67ZM248.008 54.3985C247.893 54.1843 247.683 54.0831 247.473 54.0831C247.18 54.0831 246.9 54.2676 246.868 54.6008C246.696 56.6655 245.639 59.1348 243.596 60.676C243.825 60.908 244.048 61.146 244.264 61.3959C245.442 62.7526 246.346 64.3056 246.9 65.8645C249.256 63.7106 250.083 58.3256 248.008 54.3985ZM239.458 59.5216V67.7924H245.811C245.2 64.6209 242.736 61.0806 239.458 59.5216ZM232.557 67.7924V59.5216C229.278 61.0746 226.821 64.615 226.203 67.7924H232.557ZM246.047 69.2621H225.967C225.605 69.2621 225.312 69.5358 225.312 69.875V72.5704C225.312 72.9096 225.605 73.1833 225.967 73.1833H246.041C246.403 73.1833 246.696 72.9096 246.696 72.5704V69.875C246.696 69.5358 246.403 69.2621 246.041 69.2621H246.047ZM237.885 58.9504C237.28 58.7957 236.65 58.7124 236.007 58.7124C235.364 58.7124 234.74 58.7957 234.129 58.9504V67.7864H237.879V58.9504H237.885Z" fill="white"/>
<circle opacity="0.3" cx="235.944" cy="63.4498" r="24.5528" stroke="white" stroke-width="2.16643"/>
</g>
<rect x="159.005" y="25.8979" width="153.589" height="153.589" rx="20.513" stroke="url(#paint5_linear_718_12020)" stroke-width="0.967536"/>
</g>
<path d="M235.93 179.233L235.93 213.593" stroke="#FF6E75" stroke-width="0.967536" stroke-miterlimit="10" stroke-linecap="square"/>
<path d="M235.93 298.847L235.93 333.206" stroke="#FBBE7E" stroke-width="0.967536" stroke-miterlimit="10" stroke-linecap="square"/>
<path d="M53.3628 226.926L56.1558 222.088H50.5698L53.3628 226.926ZM53.8466 222.572V142.412H52.879V222.572H53.8466ZM111.415 84.8439H159.005V83.8763H111.415V84.8439ZM53.8466 142.412C53.8466 110.618 79.6208 84.8439 111.415 84.8439V83.8763C79.0864 83.8763 52.879 110.084 52.879 142.412H53.8466Z" fill="#FF6E75"/>
<path d="M157.979 122.822L153.142 120.028V125.615L157.979 122.822ZM89.7445 222.639V222.156H88.777V222.639H89.7445ZM88.777 217.145V217.629H89.7445V217.145H88.777ZM89.7445 211.65V211.167H88.777V211.65H89.7445ZM88.777 206.156V206.64H89.7445V206.156H88.777ZM89.7445 200.661V200.177H88.777V200.661H89.7445ZM88.777 195.167V195.65H89.7445V195.167H88.777ZM89.7445 189.672V189.188H88.777V189.672H89.7445ZM88.777 184.178V184.661H89.7445V184.178H88.777ZM89.7445 178.683V178.199H88.777V178.683H89.7445ZM88.777 173.188V173.672H89.7445V173.188H88.777ZM89.7445 167.694V167.21H88.777V167.694H89.7445ZM88.777 162.199V162.683H89.7445V162.199H88.777ZM89.7445 156.705V156.221H88.777V156.705H89.7445ZM88.777 151.21V151.694H89.7445V151.21H88.777ZM89.8639 145.995L89.9108 145.514L88.9478 145.42L88.901 145.902L89.8639 145.995ZM89.8955 140.877L89.7553 141.34L90.6812 141.62L90.8215 141.157L89.8955 140.877ZM92.7103 136.602L92.9387 136.175L92.0858 135.719L91.8574 136.145L92.7103 136.602ZM94.7065 131.889L94.3994 132.263L95.147 132.877L95.4541 132.503L94.7065 131.889ZM98.9422 129.015L99.316 128.708L98.7018 127.96L98.328 128.267L98.9422 129.015ZM102.584 125.418L102.158 125.647L102.615 126.5L103.041 126.271L102.584 125.418ZM107.597 124.382L108.06 124.242L107.779 123.316L107.316 123.456L107.597 124.382ZM112.341 122.462L111.859 122.509L111.953 123.472L112.435 123.425L112.341 122.462ZM117.594 123.305H118.078V122.338H117.594V123.305ZM122.979 122.338H122.495V123.305H122.979V122.338ZM128.364 123.305H128.848V122.338H128.364V123.305ZM133.748 122.338H133.265V123.305H133.748V122.338ZM139.133 123.305H139.617V122.338H139.133V123.305ZM144.518 122.338H144.034V123.305H144.518V122.338ZM149.902 123.305H150.386V122.338H149.902V123.305ZM155.287 122.338H154.803V123.305H155.287V122.338ZM89.7445 225.387V222.639H88.777V225.387H89.7445ZM89.7445 217.145V211.65H88.777V217.145H89.7445ZM89.7445 206.156V200.661H88.777V206.156H89.7445ZM89.7445 195.167V189.672H88.777V195.167H89.7445ZM89.7445 184.178V178.683H88.777V184.178H89.7445ZM89.7445 173.188V167.694H88.777V173.188H89.7445ZM89.7445 162.199V156.705H88.777V162.199H89.7445ZM89.7445 151.21V148.463H88.777V151.21H89.7445ZM89.7445 148.463C89.7445 147.63 89.7849 146.807 89.8639 145.995L88.901 145.902C88.8189 146.744 88.777 147.599 88.777 148.463H89.7445ZM90.8215 141.157C91.3035 139.567 91.9388 138.042 92.7103 136.602L91.8574 136.145C91.0561 137.641 90.3962 139.224 89.8955 140.877L90.8215 141.157ZM95.4541 132.503C96.5002 131.23 97.669 130.061 98.9422 129.015L98.328 128.267C97.0061 129.353 95.7927 130.567 94.7065 131.889L95.4541 132.503ZM103.041 126.271C104.482 125.5 106.006 124.864 107.597 124.382L107.316 123.456C105.663 123.957 104.08 124.617 102.584 125.418L103.041 126.271ZM112.435 123.425C113.246 123.346 114.069 123.305 114.902 123.305V122.338C114.038 122.338 113.184 122.38 112.341 122.462L112.435 123.425ZM114.902 123.305H117.594V122.338H114.902V123.305ZM122.979 123.305H128.364V122.338H122.979V123.305ZM133.748 123.305H139.133V122.338H133.748V123.305ZM144.518 123.305H149.902V122.338H144.518V123.305Z" fill="#FBBE7E"/>
<rect x="68.748" y="164.613" width="41.0261" height="41.0261" rx="20.513" fill="#FBBE7E"/>
<path d="M88.7582 186.002C88.5734 186.081 88.4301 186.189 88.3291 186.326C88.2273 186.463 88.1768 186.618 88.1768 186.793C88.1768 186.938 88.211 187.064 88.281 187.17C88.3502 187.276 88.4415 187.365 88.5546 187.435C88.6687 187.506 88.7908 187.565 88.9211 187.612C88.9708 187.63 89.0196 187.646 89.0677 187.662V185.913C88.9553 185.932 88.8527 185.962 88.7582 186.002ZM88.7582 186.002C88.5734 186.081 88.4301 186.189 88.3291 186.326C88.2273 186.463 88.1768 186.618 88.1768 186.793C88.1768 186.938 88.211 187.064 88.281 187.17C88.3502 187.276 88.4415 187.365 88.5546 187.435C88.6687 187.506 88.7908 187.565 88.9211 187.612C88.9708 187.63 89.0196 187.646 89.0677 187.662V185.913C88.9553 185.932 88.8527 185.962 88.7582 186.002ZM95.8903 186.806C95.3431 185.477 94.1956 183.217 91.7941 181.012C91.2453 181.236 90.2208 181.569 88.9203 181.484C87.961 181.42 87.2036 181.153 86.7191 180.936C85.3168 182.264 83.6686 184.249 82.6221 186.989C81.6262 189.596 81.4861 192.079 82.1327 193.315C82.2695 193.577 82.6995 194.382 83.6001 194.987C84.781 195.781 85.6849 195.503 88.8893 195.443C92.8104 195.371 93.9725 195.74 95.3398 194.684C96.0247 194.155 96.3805 193.562 96.5019 193.345C97.7006 191.201 96.646 188.641 95.8903 186.806ZM91.4065 190.537C91.2265 190.807 90.9659 191.02 90.6255 191.176C90.4008 191.279 90.1451 191.348 89.8584 191.382V191.865C89.8584 191.982 89.764 192.076 89.6475 192.076H89.2786C89.1622 192.076 89.0677 191.982 89.0677 191.865V191.397C88.7395 191.37 88.448 191.302 88.1914 191.191C87.8543 191.045 87.5896 190.838 87.3991 190.569C87.2525 190.362 87.1556 190.126 87.11 189.859C87.088 189.729 87.1865 189.61 87.3185 189.61H87.8331C87.9309 189.61 88.0196 189.675 88.0408 189.77C88.075 189.922 88.1401 190.053 88.2354 190.164C88.3633 190.311 88.527 190.42 88.7265 190.491C88.8348 190.529 88.948 190.557 89.0677 190.574V188.526L88.8551 188.468C88.3608 188.334 87.9691 188.137 87.6809 187.877C87.3926 187.618 87.2484 187.274 87.2484 186.846C87.2484 186.492 87.3445 186.183 87.5375 185.919C87.7305 185.656 87.9919 185.45 88.3217 185.303C88.5498 185.201 88.7981 185.135 89.0677 185.103V184.609C89.0677 184.493 89.1622 184.399 89.2786 184.399H89.6475C89.764 184.399 89.8584 184.493 89.8584 184.609V185.11C90.1076 185.143 90.3364 185.207 90.5441 185.302C90.865 185.448 91.1174 185.648 91.3023 185.903C91.4399 186.093 91.5287 186.303 91.5686 186.535C91.5905 186.663 91.4896 186.78 91.3593 186.78H90.8674C90.7729 186.78 90.6891 186.718 90.6646 186.627C90.6084 186.416 90.4847 186.247 90.2957 186.119C90.1679 186.033 90.0221 185.97 89.8584 185.932V187.873L89.9008 187.884C90.0978 187.932 90.2998 187.996 90.5066 188.078C90.7135 188.161 90.9057 188.269 91.0824 188.402C91.2591 188.536 91.4024 188.702 91.5116 188.9C91.6215 189.098 91.6761 189.335 91.6761 189.61C91.6761 189.959 91.5857 190.267 91.4065 190.537ZM90.1793 188.867C90.0791 188.824 89.9724 188.784 89.8584 188.747V190.545C89.939 190.527 90.0156 190.502 90.0889 190.473C90.2949 190.39 90.457 190.274 90.5759 190.125C90.6948 189.977 90.7542 189.802 90.7542 189.601C90.7542 189.42 90.7021 189.271 90.5987 189.155C90.4952 189.039 90.3552 188.944 90.1793 188.867ZM88.3291 186.326C88.2273 186.463 88.1768 186.618 88.1768 186.793C88.1768 186.938 88.211 187.064 88.281 187.17C88.3502 187.276 88.4415 187.365 88.5546 187.435C88.6687 187.506 88.7908 187.565 88.9211 187.612C88.9708 187.63 89.0196 187.646 89.0677 187.662V185.913C88.9553 185.932 88.8527 185.962 88.7582 186.002C88.5734 186.081 88.4301 186.189 88.3291 186.326ZM88.7582 186.002C88.5734 186.081 88.4301 186.189 88.3291 186.326C88.2273 186.463 88.1768 186.618 88.1768 186.793C88.1768 186.938 88.211 187.064 88.281 187.17C88.3502 187.276 88.4415 187.365 88.5546 187.435C88.6687 187.506 88.7908 187.565 88.9211 187.612C88.9708 187.63 89.0196 187.646 89.0677 187.662V185.913C88.9553 185.932 88.8527 185.962 88.7582 186.002ZM88.7582 186.002C88.5734 186.081 88.4301 186.189 88.3291 186.326C88.2273 186.463 88.1768 186.618 88.1768 186.793C88.1768 186.938 88.211 187.064 88.281 187.17C88.3502 187.276 88.4415 187.365 88.5546 187.435C88.6687 187.506 88.7908 187.565 88.9211 187.612C88.9708 187.63 89.0196 187.646 89.0677 187.662V185.913C88.9553 185.932 88.8527 185.962 88.7582 186.002Z" fill="#000223"/>
<path d="M84.5757 175.32C84.0073 176.158 84.8925 177.97 86.7003 179.836C87.1857 180.053 87.943 180.321 88.9015 180.384C90.2028 180.47 91.2265 180.137 91.7753 179.912C93.913 177.124 94.0767 176.07 93.7469 175.654C93.4228 175.245 92.777 175.648 91.0563 175.502C89.0538 175.332 88.6824 174.679 86.8681 174.711C85.9633 174.727 84.9641 174.747 84.5749 175.32H84.5757Z" fill="#000223"/>
<rect x="34.8724" y="119.622" width="40.0586" height="40.0586" rx="20.0293" fill="#000223"/>
<rect x="34.8724" y="119.622" width="40.0586" height="40.0586" rx="20.0293" stroke="#FF6E75" stroke-width="0.967536"/>
<path d="M52.1574 145.771L48.7009 142.315C48.5295 142.143 48.2517 142.143 48.0803 142.315L47.5984 142.797C47.427 142.968 47.427 143.246 47.5984 143.417L51.0549 146.874C51.2263 147.045 51.5041 147.045 51.6755 146.874L52.1574 146.392C52.3288 146.22 52.3288 145.943 52.1574 145.771Z" fill="#FF6E75"/>
<path d="M50.0508 145.627L48.8454 144.422C48.7328 144.309 48.5504 144.309 48.4379 144.422L46.5891 146.27C46.4766 146.383 46.4766 146.565 46.5891 146.678L47.7945 147.883C47.9071 147.996 48.0895 147.996 48.202 147.883L50.0508 146.035C50.1633 145.922 50.1633 145.74 50.0508 145.627Z" fill="#FF6E75"/>
<path d="M46.6534 145.859L48.6112 147.817C48.7421 147.948 48.7421 148.16 48.6112 148.291L48.2885 148.613C47.7936 149.108 46.9905 149.108 46.4961 148.613L45.857 147.974C45.3621 147.479 45.3626 146.676 45.857 146.182L46.1797 145.859C46.3105 145.728 46.5225 145.728 46.6534 145.859Z" fill="#FF6E75"/>
<path d="M51.1585 140.284L54.3559 143.166C53.6962 143.761 53.0358 144.356 52.3761 144.952C51.4247 144 50.4732 143.049 49.5225 142.097L51.1585 140.284Z" fill="#FF6E75"/>
<path d="M64.4831 129.989L62.907 135.263C62.8566 135.432 62.76 135.584 62.6291 135.702C61.5511 136.674 60.4739 137.646 59.3959 138.618C59.1633 138.828 58.9308 139.037 58.6982 139.247L55.3969 135.587L55.375 135.606L56.0274 134.883L58.7699 131.842C58.8876 131.711 59.0397 131.616 59.2094 131.565L64.4831 129.989Z" fill="#FF6E75"/>
<path d="M61.1052 142.314L57.6487 145.771C57.4773 145.942 57.4773 146.22 57.6487 146.391L58.1306 146.873C58.302 147.045 58.5798 147.045 58.7512 146.873L62.2077 143.417C62.3791 143.245 62.3791 142.968 62.2077 142.796L61.7257 142.314C61.5544 142.143 61.2765 142.143 61.1052 142.314Z" fill="#FF6E75"/>
<path d="M60.9585 144.422L59.7531 145.627C59.6405 145.739 59.6405 145.922 59.7531 146.034L61.6018 147.883C61.7143 147.996 61.8968 147.996 62.0093 147.883L63.2148 146.678C63.3273 146.565 63.3273 146.383 63.2148 146.27L61.366 144.422C61.2535 144.309 61.071 144.309 60.9585 144.422Z" fill="#FF6E75"/>
<path d="M61.1924 147.819L63.1503 145.862C63.2811 145.731 63.4931 145.731 63.624 145.862L63.9467 146.184C64.4416 146.679 64.441 147.482 63.9467 147.977L63.3075 148.616C62.8126 149.111 62.0095 149.11 61.5151 148.616L61.1924 148.293C61.0616 148.162 61.0616 147.95 61.1924 147.819Z" fill="#FF6E75"/>
<path d="M46.8973 135.263C46.9478 135.432 47.0443 135.584 47.1752 135.702L50.2154 138.445L53.9503 141.813L57.4286 144.95C57.7643 144.614 58.0999 144.277 58.4349 143.94C58.7186 143.656 59.0024 143.373 59.2869 143.088C59.6189 142.758 59.9502 142.426 60.2822 142.096C59.1845 140.879 58.0868 139.661 56.9883 138.444C55.9754 137.322 54.9625 136.198 53.9503 135.076C52.9784 133.998 52.0064 132.92 51.0345 131.842C50.916 131.711 50.7639 131.615 50.595 131.564L45.3213 129.989L46.8973 135.263Z" fill="#FF6E75"/>
<path d="M417.982 226.926L415.189 222.088H420.775L417.982 226.926ZM417.498 222.572V142.412H418.466V222.572H417.498ZM359.93 84.8439H312.34V83.8763H359.93V84.8439ZM417.498 142.412C417.498 110.618 391.724 84.8439 359.93 84.8439V83.8763C392.258 83.8763 418.466 110.084 418.466 142.412H417.498Z" fill="#FF6E75"/>
<path d="M313.366 122.822L318.203 120.028V125.615L313.366 122.822ZM381.601 222.639V222.156H382.568V222.639H381.601ZM382.568 217.145V217.629H381.601V217.145H382.568ZM381.601 211.65V211.167H382.568V211.65H381.601ZM382.568 206.156V206.64H381.601V206.156H382.568ZM381.601 200.661V200.177H382.568V200.661H381.601ZM382.568 195.167V195.65H381.601V195.167H382.568ZM381.601 189.672V189.188H382.568V189.672H381.601ZM382.568 184.178V184.661H381.601V184.178H382.568ZM381.601 178.683V178.199H382.568V178.683H381.601ZM382.568 173.188V173.672H381.601V173.188H382.568ZM381.601 167.694V167.21H382.568V167.694H381.601ZM382.568 162.199V162.683H381.601V162.199H382.568ZM381.601 156.705V156.221H382.568V156.705H381.601ZM382.568 151.21V151.694H381.601V151.21H382.568ZM381.481 145.995L381.434 145.514L382.397 145.42L382.444 145.902L381.481 145.995ZM381.45 140.877L381.59 141.34L380.664 141.62L380.524 141.157L381.45 140.877ZM378.635 136.602L378.406 136.175L379.259 135.719L379.488 136.145L378.635 136.602ZM376.639 131.889L376.946 132.263L376.198 132.877L375.891 132.503L376.639 131.889ZM372.403 129.015L372.029 128.708L372.643 127.96L373.017 128.267L372.403 129.015ZM368.761 125.418L369.187 125.647L368.731 126.5L368.304 126.271L368.761 125.418ZM363.749 124.382L363.286 124.242L363.566 123.316L364.029 123.456L363.749 124.382ZM359.004 122.462L359.486 122.509L359.392 123.472L358.911 123.425L359.004 122.462ZM353.751 123.305H353.267V122.338H353.751V123.305ZM348.366 122.338H348.85V123.305H348.366V122.338ZM342.981 123.305H342.498V122.338H342.981V123.305ZM337.597 122.338H338.081V123.305H337.597V122.338ZM332.212 123.305H331.728V122.338H332.212V123.305ZM326.827 122.338H327.311V123.305H326.827V122.338ZM321.443 123.305H320.959V122.338H321.443V123.305ZM316.058 122.338H316.542V123.305H316.058V122.338ZM381.601 225.387V222.639H382.568V225.387H381.601ZM381.601 217.145V211.65H382.568V217.145H381.601ZM381.601 206.156V200.661H382.568V206.156H381.601ZM381.601 195.167V189.672H382.568V195.167H381.601ZM381.601 184.178V178.683H382.568V184.178H381.601ZM381.601 173.188V167.694H382.568V173.188H381.601ZM381.601 162.199V156.705H382.568V162.199H381.601ZM381.601 151.21V148.463H382.568V151.21H381.601ZM381.601 148.463C381.601 147.63 381.56 146.807 381.481 145.995L382.444 145.902C382.526 146.744 382.568 147.599 382.568 148.463H381.601ZM380.524 141.157C380.042 139.567 379.406 138.042 378.635 136.602L379.488 136.145C380.289 137.641 380.949 139.224 381.45 140.877L380.524 141.157ZM375.891 132.503C374.845 131.23 373.676 130.061 372.403 129.015L373.017 128.267C374.339 129.353 375.553 130.567 376.639 131.889L375.891 132.503ZM368.304 126.271C366.864 125.5 365.339 124.864 363.749 124.382L364.029 123.456C365.682 123.957 367.265 124.617 368.761 125.418L368.304 126.271ZM358.911 123.425C358.099 123.346 357.276 123.305 356.443 123.305V122.338C357.307 122.338 358.162 122.38 359.004 122.462L358.911 123.425ZM356.443 123.305H353.751V122.338H356.443V123.305ZM348.366 123.305H342.981V122.338H348.366V123.305ZM337.597 123.305H332.212V122.338H337.597V123.305ZM326.827 123.305H321.443V122.338H326.827V123.305Z" fill="#FBBE7E"/>
<rect x="361.059" y="164.613" width="41.0261" height="41.0261" rx="20.513" fill="#FBBE7E"/>
<path d="M381.07 186.002C380.885 186.081 380.742 186.189 380.641 186.326C380.539 186.463 380.488 186.619 380.488 186.793C380.488 186.939 380.523 187.064 380.593 187.17C380.662 187.276 380.753 187.365 380.866 187.435C380.98 187.506 381.102 187.566 381.233 187.613C381.282 187.63 381.331 187.647 381.379 187.662V185.913C381.267 185.932 381.164 185.962 381.07 186.002ZM381.07 186.002C380.885 186.081 380.742 186.189 380.641 186.326C380.539 186.463 380.488 186.619 380.488 186.793C380.488 186.939 380.523 187.064 380.593 187.17C380.662 187.276 380.753 187.365 380.866 187.435C380.98 187.506 381.102 187.566 381.233 187.613C381.282 187.63 381.331 187.647 381.379 187.662V185.913C381.267 185.932 381.164 185.962 381.07 186.002ZM388.202 186.806C387.655 185.477 386.507 183.217 384.106 181.012C383.557 181.237 382.532 181.57 381.232 181.484C380.273 181.421 379.515 181.153 379.031 180.936C377.628 182.264 375.98 184.25 374.934 186.989C373.938 189.596 373.798 192.079 374.444 193.315C374.581 193.577 375.011 194.382 375.912 194.987C377.092 195.781 377.996 195.504 381.201 195.444C385.122 195.371 386.284 195.74 387.651 194.684C388.336 194.155 388.692 193.562 388.813 193.345C390.012 191.201 388.958 188.641 388.202 186.806ZM383.718 190.537C383.538 190.807 383.277 191.02 382.937 191.176C382.712 191.279 382.457 191.348 382.17 191.382V191.865C382.17 191.982 382.075 192.076 381.959 192.076H381.59C381.474 192.076 381.379 191.982 381.379 191.865V191.397C381.051 191.37 380.759 191.302 380.503 191.191C380.166 191.045 379.901 190.838 379.711 190.569C379.564 190.362 379.467 190.126 379.422 189.859C379.4 189.73 379.498 189.61 379.63 189.61H380.145C380.242 189.61 380.331 189.675 380.352 189.77C380.387 189.922 380.452 190.054 380.547 190.165C380.675 190.311 380.838 190.42 381.038 190.491C381.146 190.529 381.26 190.557 381.379 190.574V188.526L381.167 188.468C380.672 188.334 380.281 188.138 379.992 187.878C379.704 187.618 379.56 187.274 379.56 186.846C379.56 186.492 379.656 186.183 379.849 185.919C380.042 185.656 380.303 185.45 380.633 185.304C380.861 185.202 381.11 185.135 381.379 185.104V184.609C381.379 184.493 381.474 184.399 381.59 184.399H381.959C382.075 184.399 382.17 184.493 382.17 184.609V185.11C382.419 185.143 382.648 185.207 382.856 185.302C383.176 185.448 383.429 185.648 383.614 185.903C383.751 186.093 383.84 186.303 383.88 186.535C383.902 186.663 383.801 186.781 383.671 186.781H383.179C383.084 186.781 383.001 186.718 382.976 186.627C382.92 186.416 382.796 186.247 382.607 186.119C382.479 186.033 382.334 185.97 382.17 185.932V187.873L382.212 187.884C382.409 187.932 382.611 187.997 382.818 188.078C383.025 188.161 383.217 188.269 383.394 188.402C383.571 188.536 383.714 188.702 383.823 188.9C383.933 189.098 383.988 189.335 383.988 189.61C383.988 189.959 383.897 190.267 383.718 190.537ZM382.491 188.868C382.391 188.825 382.284 188.784 382.17 188.747V190.545C382.251 190.527 382.327 190.502 382.4 190.473C382.606 190.39 382.768 190.274 382.887 190.125C383.006 189.977 383.066 189.802 383.066 189.602C383.066 189.42 383.014 189.271 382.91 189.155C382.807 189.039 382.667 188.944 382.491 188.868ZM380.641 186.326C380.539 186.463 380.488 186.619 380.488 186.793C380.488 186.939 380.523 187.064 380.593 187.17C380.662 187.276 380.753 187.365 380.866 187.435C380.98 187.506 381.102 187.566 381.233 187.613C381.282 187.63 381.331 187.647 381.379 187.662V185.913C381.267 185.932 381.164 185.962 381.07 186.002C380.885 186.081 380.742 186.189 380.641 186.326ZM381.07 186.002C380.885 186.081 380.742 186.189 380.641 186.326C380.539 186.463 380.488 186.619 380.488 186.793C380.488 186.939 380.523 187.064 380.593 187.17C380.662 187.276 380.753 187.365 380.866 187.435C380.98 187.506 381.102 187.566 381.233 187.613C381.282 187.63 381.331 187.647 381.379 187.662V185.913C381.267 185.932 381.164 185.962 381.07 186.002ZM381.07 186.002C380.885 186.081 380.742 186.189 380.641 186.326C380.539 186.463 380.488 186.619 380.488 186.793C380.488 186.939 380.523 187.064 380.593 187.17C380.662 187.276 380.753 187.365 380.866 187.435C380.98 187.506 381.102 187.566 381.233 187.613C381.282 187.63 381.331 187.647 381.379 187.662V185.913C381.267 185.932 381.164 185.962 381.07 186.002Z" fill="#000223"/>
<path d="M376.887 175.32C376.319 176.158 377.204 177.97 379.012 179.836C379.497 180.053 380.255 180.321 381.213 180.384C382.514 180.47 383.538 180.137 384.087 179.912C386.225 177.124 386.388 176.07 386.058 175.654C385.734 175.245 385.089 175.648 383.368 175.502C381.365 175.332 380.994 174.679 379.18 174.711C378.275 174.727 377.276 174.747 376.886 175.32H376.887Z" fill="#000223"/>
<rect x="397.953" y="119.622" width="40.0586" height="40.0586" rx="20.0293" fill="#000223"/>
<rect x="397.953" y="119.622" width="40.0586" height="40.0586" rx="20.0293" stroke="#FF6E75" stroke-width="0.967536"/>
<path d="M415.237 145.771L411.78 142.314C411.609 142.143 411.331 142.143 411.16 142.314L410.678 142.796C410.507 142.968 410.507 143.246 410.678 143.417L414.134 146.873C414.306 147.045 414.584 147.045 414.755 146.873L415.237 146.392C415.408 146.22 415.408 145.942 415.237 145.771Z" fill="#FF6E75"/>
<path d="M413.13 145.627L411.925 144.421C411.812 144.309 411.63 144.309 411.517 144.421L409.669 146.27C409.556 146.383 409.556 146.565 409.669 146.678L410.874 147.883C410.987 147.996 411.169 147.996 411.282 147.883L413.13 146.034C413.243 145.922 413.243 145.739 413.13 145.627Z" fill="#FF6E75"/>
<path d="M409.733 145.859L411.691 147.817C411.822 147.947 411.822 148.159 411.691 148.29L411.368 148.613C410.873 149.108 410.07 149.107 409.576 148.613L408.937 147.974C408.442 147.479 408.442 146.676 408.937 146.181L409.259 145.859C409.39 145.728 409.602 145.728 409.733 145.859Z" fill="#FF6E75"/>
<path d="M414.238 140.283L417.435 143.166C416.776 143.761 416.115 144.356 415.456 144.951C414.504 144 413.553 143.049 412.602 142.097L414.238 140.283Z" fill="#FF6E75"/>
<path d="M427.563 129.989L425.987 135.262C425.936 135.431 425.84 135.583 425.709 135.702C424.631 136.674 423.553 137.646 422.475 138.618C422.243 138.828 422.01 139.037 421.778 139.247L418.477 135.586L418.455 135.606L419.107 134.883L421.849 131.842C421.967 131.711 422.119 131.615 422.289 131.565L427.563 129.989Z" fill="#FF6E75"/>
<path d="M424.184 142.314L420.728 145.77C420.556 145.942 420.556 146.22 420.728 146.391L421.21 146.873C421.381 147.044 421.659 147.044 421.83 146.873L425.287 143.416C425.458 143.245 425.458 142.967 425.287 142.796L424.805 142.314C424.633 142.143 424.356 142.143 424.184 142.314Z" fill="#FF6E75"/>
<path d="M424.038 144.421L422.833 145.627C422.72 145.739 422.72 145.922 422.833 146.034L424.681 147.883C424.794 147.995 424.976 147.995 425.089 147.883L426.294 146.677C426.407 146.565 426.407 146.382 426.294 146.27L424.446 144.421C424.333 144.309 424.151 144.309 424.038 144.421Z" fill="#FF6E75"/>
<path d="M424.272 147.819L426.23 145.861C426.361 145.73 426.573 145.73 426.704 145.861L427.026 146.184C427.521 146.679 427.521 147.482 427.026 147.976L426.387 148.615C425.892 149.11 425.089 149.11 424.595 148.615L424.272 148.293C424.141 148.162 424.141 147.95 424.272 147.819Z" fill="#FF6E75"/>
<path d="M409.977 135.262C410.027 135.431 410.124 135.583 410.255 135.702L413.295 138.444L417.03 141.813L420.508 144.95C420.844 144.613 421.18 144.277 421.514 143.94C421.798 143.656 422.082 143.372 422.366 143.088C422.699 142.757 423.03 142.426 423.362 142.095C422.264 140.878 421.166 139.661 420.068 138.444C419.055 137.321 418.042 136.198 417.03 135.075C416.058 133.997 415.086 132.92 414.114 131.842C413.996 131.711 413.843 131.615 413.675 131.564L408.401 129.989L409.977 135.262Z" fill="#FF6E75"/>
<rect x="215.417" y="263.627" width="41.0261" height="41.0261" rx="20.513" fill="#FBBE7E"/>
<path d="M235.427 285.018C235.242 285.098 235.099 285.205 234.998 285.342C234.896 285.479 234.845 285.635 234.845 285.809C234.845 285.955 234.879 286.08 234.949 286.186C235.019 286.293 235.11 286.381 235.223 286.451C235.337 286.523 235.459 286.582 235.59 286.629C235.639 286.647 235.688 286.663 235.736 286.678V284.929C235.624 284.949 235.521 284.979 235.427 285.018ZM235.427 285.018C235.242 285.098 235.099 285.205 234.998 285.342C234.896 285.479 234.845 285.635 234.845 285.809C234.845 285.955 234.879 286.08 234.949 286.186C235.019 286.293 235.11 286.381 235.223 286.451C235.337 286.523 235.459 286.582 235.59 286.629C235.639 286.647 235.688 286.663 235.736 286.678V284.929C235.624 284.949 235.521 284.979 235.427 285.018ZM242.559 285.823C242.012 284.493 240.864 282.234 238.463 280.028C237.914 280.253 236.889 280.586 235.589 280.5C234.629 280.437 233.872 280.169 233.388 279.952C231.985 281.28 230.337 283.266 229.291 286.005C228.295 288.612 228.155 291.095 228.801 292.332C228.938 292.593 229.368 293.399 230.269 294.004C231.449 294.798 232.353 294.52 235.558 294.46C239.479 294.387 240.641 294.756 242.008 293.7C242.693 293.171 243.049 292.579 243.17 292.362C244.369 290.217 243.314 287.658 242.559 285.823ZM238.075 289.554C237.895 289.823 237.634 290.036 237.294 290.193C237.069 290.296 236.814 290.364 236.527 290.399V290.881C236.527 290.998 236.432 291.092 236.316 291.092H235.947C235.831 291.092 235.736 290.998 235.736 290.881V290.413C235.408 290.386 235.116 290.318 234.86 290.207C234.523 290.061 234.258 289.854 234.068 289.585C233.921 289.379 233.824 289.142 233.778 288.875C233.756 288.746 233.855 288.627 233.987 288.627H234.502C234.599 288.627 234.688 288.691 234.709 288.786C234.743 288.939 234.809 289.07 234.904 289.181C235.032 289.327 235.195 289.436 235.395 289.507C235.503 289.545 235.616 289.573 235.736 289.59V287.542L235.524 287.484C235.029 287.351 234.638 287.154 234.349 286.894C234.061 286.634 233.917 286.29 233.917 285.862C233.917 285.508 234.013 285.2 234.206 284.936C234.399 284.672 234.66 284.466 234.99 284.32C235.218 284.218 235.467 284.151 235.736 284.12V283.626C235.736 283.51 235.831 283.416 235.947 283.416H236.316C236.432 283.416 236.527 283.51 236.527 283.626V284.126C236.776 284.159 237.005 284.223 237.213 284.318C237.533 284.464 237.786 284.664 237.971 284.919C238.108 285.109 238.197 285.32 238.237 285.551C238.259 285.679 238.158 285.797 238.028 285.797H237.536C237.441 285.797 237.358 285.734 237.333 285.644C237.277 285.432 237.153 285.263 236.964 285.135C236.836 285.049 236.691 284.987 236.527 284.949V286.889L236.569 286.9C236.766 286.948 236.968 287.013 237.175 287.095C237.382 287.177 237.574 287.285 237.751 287.419C237.928 287.552 238.071 287.718 238.18 287.916C238.29 288.115 238.345 288.351 238.345 288.627C238.345 288.975 238.254 289.284 238.075 289.554ZM236.848 287.884C236.748 287.841 236.641 287.8 236.527 287.763V289.562C236.608 289.543 236.684 289.519 236.757 289.49C236.963 289.406 237.125 289.29 237.244 289.141C237.363 288.993 237.423 288.818 237.423 288.618C237.423 288.436 237.371 288.287 237.267 288.171C237.164 288.056 237.024 287.96 236.848 287.884ZM234.998 285.342C234.896 285.479 234.845 285.635 234.845 285.809C234.845 285.955 234.879 286.08 234.949 286.186C235.019 286.293 235.11 286.381 235.223 286.451C235.337 286.523 235.459 286.582 235.59 286.629C235.639 286.647 235.688 286.663 235.736 286.678V284.929C235.624 284.949 235.521 284.979 235.427 285.018C235.242 285.098 235.099 285.205 234.998 285.342ZM235.427 285.018C235.242 285.098 235.099 285.205 234.998 285.342C234.896 285.479 234.845 285.635 234.845 285.809C234.845 285.955 234.879 286.08 234.949 286.186C235.019 286.293 235.11 286.381 235.223 286.451C235.337 286.523 235.459 286.582 235.59 286.629C235.639 286.647 235.688 286.663 235.736 286.678V284.929C235.624 284.949 235.521 284.979 235.427 285.018ZM235.427 285.018C235.242 285.098 235.099 285.205 234.998 285.342C234.896 285.479 234.845 285.635 234.845 285.809C234.845 285.955 234.879 286.08 234.949 286.186C235.019 286.293 235.11 286.381 235.223 286.451C235.337 286.523 235.459 286.582 235.59 286.629C235.639 286.647 235.688 286.663 235.736 286.678V284.929C235.624 284.949 235.521 284.979 235.427 285.018Z" fill="#000223"/>
<path d="M231.244 274.336C230.676 275.174 231.561 276.987 233.369 278.852C233.854 279.07 234.611 279.337 235.57 279.4C236.871 279.486 237.895 279.153 238.444 278.929C240.581 276.14 240.745 275.086 240.415 274.67C240.091 274.261 239.445 274.664 237.725 274.518C235.722 274.349 235.351 273.696 233.537 273.727C232.632 273.744 231.633 273.763 231.243 274.336H231.244Z" fill="#000223"/>
<rect x="215.901" y="209.238" width="40.0586" height="40.0586" rx="20.0293" fill="#000223"/>
<rect x="215.901" y="209.238" width="40.0586" height="40.0586" rx="20.0293" stroke="#FF6E75" stroke-width="0.967536"/>
<path d="M233.183 235.385L229.726 231.928C229.555 231.757 229.277 231.757 229.106 231.928L228.624 232.41C228.452 232.582 228.452 232.86 228.624 233.031L232.08 236.487C232.252 236.659 232.529 236.659 232.701 236.487L233.183 236.006C233.354 235.834 233.354 235.556 233.183 235.385Z" fill="#FF6E75"/>
<path d="M231.076 235.241L229.871 234.036C229.758 233.923 229.576 233.923 229.463 234.036L227.614 235.884C227.502 235.997 227.502 236.179 227.614 236.292L228.82 237.497C228.932 237.61 229.115 237.61 229.227 237.497L231.076 235.648C231.189 235.536 231.189 235.354 231.076 235.241Z" fill="#FF6E75"/>
<path d="M227.679 235.473L229.637 237.431C229.767 237.562 229.767 237.774 229.637 237.904L229.314 238.227C228.819 238.722 228.016 238.721 227.522 238.227L226.882 237.588C226.387 237.093 226.388 236.29 226.882 235.796L227.205 235.473C227.336 235.342 227.548 235.342 227.679 235.473Z" fill="#FF6E75"/>
<path d="M232.184 229.897L235.381 232.78C234.722 233.375 234.061 233.97 233.402 234.566C232.45 233.614 231.499 232.663 230.548 231.711L232.184 229.897Z" fill="#FF6E75"/>
<path d="M245.508 219.603L243.932 224.877C243.882 225.046 243.785 225.198 243.655 225.316C242.577 226.288 241.499 227.26 240.421 228.232C240.189 228.442 239.956 228.651 239.724 228.861L236.422 225.201L236.4 225.22L237.053 224.497L239.795 221.456C239.913 221.325 240.065 221.229 240.235 221.179L245.508 219.603Z" fill="#FF6E75"/>
<path d="M242.13 231.928L238.674 235.384C238.502 235.556 238.502 235.834 238.674 236.005L239.156 236.487C239.327 236.658 239.605 236.658 239.776 236.487L243.233 233.03C243.404 232.859 243.404 232.581 243.233 232.41L242.751 231.928C242.579 231.757 242.301 231.757 242.13 231.928Z" fill="#FF6E75"/>
<path d="M241.984 234.035L240.778 235.241C240.666 235.353 240.666 235.536 240.778 235.648L242.627 237.497C242.74 237.609 242.922 237.609 243.035 237.497L244.24 236.291C244.353 236.179 244.353 235.996 244.24 235.884L242.391 234.035C242.279 233.923 242.096 233.923 241.984 234.035Z" fill="#FF6E75"/>
<path d="M242.217 237.433L244.175 235.475C244.306 235.344 244.518 235.344 244.649 235.475L244.972 235.798C245.466 236.293 245.466 237.096 244.972 237.59L244.332 238.229C243.837 238.724 243.034 238.724 242.54 238.229L242.217 237.907C242.086 237.776 242.086 237.564 242.217 237.433Z" fill="#FF6E75"/>
<path d="M227.923 224.876C227.973 225.045 228.07 225.198 228.201 225.316L231.241 228.058L234.976 231.427L238.454 234.564C238.79 234.227 239.125 233.891 239.46 233.554C239.744 233.27 240.028 232.986 240.312 232.702C240.644 232.371 240.976 232.04 241.308 231.709C240.21 230.492 239.112 229.275 238.014 228.058C237.001 226.935 235.988 225.812 234.976 224.689C234.004 223.611 233.032 222.534 232.06 221.456C231.941 221.325 231.789 221.229 231.62 221.178L226.347 219.603L227.923 224.876Z" fill="#FF6E75"/>
<path d="M210.078 235.286L210.456 234.984L209.85 234.229L209.473 234.531L210.078 235.286ZM209.828 278.98C210.094 278.951 210.286 278.712 210.256 278.446L209.781 274.118C209.751 273.853 209.512 273.661 209.247 273.69C208.981 273.72 208.79 273.958 208.819 274.224L209.242 278.071L205.395 278.494C205.129 278.523 204.938 278.762 204.967 279.028C204.996 279.293 205.235 279.485 205.501 279.456L209.828 278.98ZM209.473 234.531C195.285 245.909 195.285 267.499 209.473 278.876L210.078 278.122C196.373 267.132 196.373 246.276 210.078 235.286L209.473 234.531Z" fill="#FF6E75"/>
<path d="M261.268 278.121L260.89 278.424L261.495 279.179L261.873 278.876L261.268 278.121ZM261.517 234.428C261.252 234.457 261.06 234.696 261.089 234.962L261.565 239.289C261.594 239.555 261.833 239.747 262.099 239.717C262.364 239.688 262.556 239.449 262.527 239.184L262.104 235.337L265.951 234.914C266.216 234.885 266.408 234.646 266.379 234.38C266.35 234.114 266.111 233.923 265.845 233.952L261.517 234.428ZM261.873 278.876C276.061 267.499 276.061 245.908 261.873 234.531L261.268 235.286C274.973 246.276 274.973 267.132 261.268 278.121L261.873 278.876Z" fill="#FBBE7E"/>
<defs>
<filter id="filter0_b_718_12020" x="107.238" y="-25.8684" width="257.122" height="257.122" filterUnits="userSpaceOnUse" color-interpolation-filters="sRGB">
<feFlood flood-opacity="0" result="BackgroundImageFix"/>
<feGaussianBlur in="BackgroundImageFix" stdDeviation="25.6413"/>
<feComposite in2="SourceAlpha" operator="in" result="effect1_backgroundBlur_718_12020"/>
<feBlend mode="normal" in="SourceGraphic" in2="effect1_backgroundBlur_718_12020" result="shape"/>
</filter>
<linearGradient id="paint0_linear_718_12020" x1="0" y1="0" x2="61.5391" y2="74.7937" gradientUnits="userSpaceOnUse">
<stop stop-color="white"/>
<stop offset="1" stop-color="white" stop-opacity="0"/>
</linearGradient>
<linearGradient id="paint1_linear_718_12020" x1="0" y1="0" x2="61.5391" y2="74.7937" gradientUnits="userSpaceOnUse">
<stop stop-color="white"/>
<stop offset="1" stop-color="white" stop-opacity="0"/>
</linearGradient>
<linearGradient id="paint2_linear_718_12020" x1="0" y1="0" x2="61.5391" y2="74.7937" gradientUnits="userSpaceOnUse">
<stop stop-color="white"/>
<stop offset="1" stop-color="white" stop-opacity="0"/>
</linearGradient>
<radialGradient id="paint3_radial_718_12020" cx="0" cy="0" r="1" gradientUnits="userSpaceOnUse" gradientTransform="translate(264 26) rotate(92.0309) scale(141.089 82.9641)">
<stop stop-color="#935E5D"/>
<stop offset="0.715848" stop-color="#161635"/>
</radialGradient>
<linearGradient id="paint4_linear_718_12020" x1="240.53" y1="84.2391" x2="256.955" y2="42.3092" gradientUnits="userSpaceOnUse">
<stop stop-color="#FF6E75"/>
<stop offset="1" stop-color="#FBBE7E"/>
</linearGradient>
<linearGradient id="paint5_linear_718_12020" x1="304.904" y1="16.9235" x2="199.775" y2="171.028" gradientUnits="userSpaceOnUse">
<stop stop-color="#FBBE7E"/>
<stop offset="1" stop-color="#FF6E75"/>
</linearGradient>
<clipPath id="clip0_718_12020">
<rect x="174.391" y="334.175" width="122.988" height="122.988" rx="14.513" fill="white"/>
</clipPath>
<clipPath id="clip1_718_12020">
<rect x="8.74805" y="226.926" width="122.988" height="122.988" rx="14.513" fill="white"/>
</clipPath>
<clipPath id="clip2_718_12020">
<rect x="340.031" y="226.926" width="122.988" height="122.988" rx="14.513" fill="white"/>
</clipPath>
<clipPath id="clip3_718_12020">
<rect width="20.9691" height="20.9691" fill="white" transform="translate(390.544 245.978)"/>
</clipPath>
<clipPath id="clip4_718_12020">
<rect x="159.005" y="25.8979" width="153.589" height="153.589" rx="20.513" fill="white"/>
</clipPath>
</defs>
</svg>
