<svg width="466" height="441" viewBox="0 0 466 441" fill="none" xmlns="http://www.w3.org/2000/svg">
<circle cx="224.475" cy="37.025" r="4.125" fill="#FF6E75"/>
<rect opacity="0.1" x="455.2" y="164.35" width="152.9" height="152.9" rx="17.5163" transform="rotate(180 455.2 164.35)" fill="url(#paint0_linear_732_19329)"/>
<rect opacity="0.1" width="143" height="143" rx="16.5" transform="matrix(1 0 0 -1 4.20001 441)" fill="url(#paint1_linear_732_19329)"/>
<rect opacity="0.1" width="143" height="143" rx="16.5" transform="matrix(1 0 0 -1 3.64999 162.15)" fill="url(#paint2_linear_732_19329)"/>
<rect opacity="0.1" x="445.3" y="441" width="143" height="143" rx="16.5" transform="rotate(180 445.3 441)" fill="url(#paint3_linear_732_19329)"/>
<circle opacity="0.8" cx="224.75" cy="221" r="112.2" stroke="white" stroke-width="1.1"/>
<circle opacity="0.2" cx="224.75" cy="221" r="148.225" stroke="white" stroke-width="0.55"/>
<circle opacity="0.6" cx="224.75" cy="221" r="183.975" stroke="url(#paint4_linear_732_19329)" stroke-width="0.55"/>
<circle opacity="0.4" cx="224.75" cy="221" r="219.725" stroke="white" stroke-width="0.55"/>
<rect x="14.1" y="289.2" width="141.9" height="141.9" rx="16.5" fill="#000223"/>
<rect x="13.55" y="10.35" width="141.9" height="141.9" rx="16.5" fill="#000223"/>
<path d="M156 361.8L170.85 361.8C192.113 361.8 209.35 344.563 209.35 323.3L209.35 248.5" stroke="white" stroke-width="0.55" stroke-dasharray="6.05 6.05"/>
<path d="M324.987 361.938L293.912 361.938C272.65 361.938 255.412 344.7 255.412 323.438L255.412 248.638" stroke="white" stroke-width="0.55" stroke-dasharray="6.05 6.05"/>
<path d="M156 78L170.85 78C192.113 78 209.35 95.237 209.35 116.5L209.35 191.3" stroke="white" stroke-width="0.55" stroke-dasharray="6.05 6.05"/>
<path d="M324.987 78.1375L293.912 78.1375C272.65 78.1375 255.412 95.3745 255.412 116.637L255.412 191.437" stroke="white" stroke-width="0.55" stroke-dasharray="6.05 6.05"/>
<rect x="293.5" y="289.2" width="141.9" height="141.9" rx="16.5" fill="#000223"/>
<ellipse cx="434.575" cy="54.35" rx="31.075" ry="30.25" fill="#FBBE7E"/>
<circle cx="372.975" cy="225.675" r="6.325" fill="#FF6E75"/>
<circle cx="4.47498" cy="221.275" r="4.125" fill="#FF6E75"/>
<circle cx="224.475" cy="334.025" r="4.125" fill="#FF6E75"/>
<path fill-rule="evenodd" clip-rule="evenodd" d="M181.205 193.236C192.716 166.253 223.083 151.949 251.605 161.028C275.081 168.5 290.42 189.62 291.654 212.847C299.631 214.369 307.013 218.975 311.862 226.274C321.427 240.674 317.508 260.101 303.108 269.667C297.041 273.697 290.08 275.334 283.341 274.8H180.348C180.114 274.8 179.883 274.785 179.657 274.755C175.411 274.803 171.086 274.184 166.819 272.826C145.36 265.995 133.502 243.062 140.332 221.603C146.069 203.581 163.164 192.33 181.205 193.236Z" fill="url(#paint5_linear_732_19329)"/>
<g opacity="0.6">
<g clip-path="url(#clip0_732_19329)">
<rect x="13.55" y="10.35" width="141.9" height="141.9" rx="16.5" fill="#000223"/>
<rect opacity="0.3" x="51.5499" y="94.5" width="66" height="6.6" rx="2.2" fill="white"/>
<rect opacity="0.3" x="38.8999" y="106.6" width="91.3" height="6.6" rx="2.2" fill="white"/>
<path d="M57.0421 79.44C57.0421 79.9017 56.9308 80.3345 56.7082 80.7385C56.4938 81.1425 56.1517 81.4681 55.6818 81.7154C55.2201 81.9628 54.6347 82.0864 53.9257 82.0864H52.4789V85.4006H50.7476V76.7689H53.9257C54.5935 76.7689 55.1624 76.8843 55.6323 77.1151C56.1022 77.346 56.4526 77.6634 56.6834 78.0674C56.9225 78.4713 57.0421 78.9289 57.0421 79.44ZM53.8515 80.689C54.3297 80.689 54.6842 80.5819 54.915 80.3675C55.1459 80.1449 55.2613 79.8357 55.2613 79.44C55.2613 78.5991 54.7914 78.1786 53.8515 78.1786H52.4789V80.689H53.8515ZM60.2499 79.6132C60.4725 79.2504 60.761 78.966 61.1155 78.7599C61.4783 78.5538 61.8905 78.4507 62.3522 78.4507V80.2686H61.8946C61.3505 80.2686 60.9383 80.3964 60.658 80.6519C60.3859 80.9075 60.2499 81.3527 60.2499 81.9875V85.4006H58.5186V78.5496H60.2499V79.6132ZM66.8078 85.5119C66.1482 85.5119 65.5546 85.3677 65.027 85.0791C64.4994 84.7823 64.083 84.366 63.778 83.8301C63.4812 83.2942 63.3328 82.6759 63.3328 81.9751C63.3328 81.2744 63.4853 80.6561 63.7904 80.1202C64.1036 79.5843 64.5282 79.1721 65.0641 78.8835C65.6 78.5867 66.1977 78.4383 66.8572 78.4383C67.5168 78.4383 68.1145 78.5867 68.6504 78.8835C69.1862 79.1721 69.6067 79.5843 69.9117 80.1202C70.225 80.6561 70.3817 81.2744 70.3817 81.9751C70.3817 82.6759 70.2209 83.2942 69.8994 83.8301C69.5861 84.366 69.1574 84.7823 68.6133 85.0791C68.0774 85.3677 67.4756 85.5119 66.8078 85.5119ZM66.8078 84.0032C67.121 84.0032 67.4137 83.929 67.6858 83.7806C67.9661 83.624 68.1887 83.3932 68.3536 83.0881C68.5185 82.7831 68.6009 82.4121 68.6009 81.9751C68.6009 81.3238 68.4278 80.8251 68.0815 80.4788C67.7435 80.1243 67.3272 79.947 66.8325 79.947C66.3378 79.947 65.9215 80.1243 65.5835 80.4788C65.2537 80.8251 65.0888 81.3238 65.0888 81.9751C65.0888 82.6264 65.2496 83.1293 65.5711 83.4838C65.9009 83.8301 66.3131 84.0032 66.8078 84.0032ZM77.1671 80.2562V81.7154H71.9237V80.2562H77.1671ZM85.6505 79.44C85.6505 79.9017 85.5392 80.3345 85.3166 80.7385C85.1023 81.1425 84.7601 81.4681 84.2902 81.7154C83.8285 81.9628 83.2432 82.0864 82.5342 82.0864H81.0873V85.4006H79.356V76.7689H82.5342C83.202 76.7689 83.7708 76.8843 84.2407 77.1151C84.7107 77.346 85.061 77.6634 85.2919 78.0674C85.531 78.4713 85.6505 78.9289 85.6505 79.44ZM82.46 80.689C82.9381 80.689 83.2926 80.5819 83.5235 80.3675C83.7543 80.1449 83.8697 79.8357 83.8697 79.44C83.8697 78.5991 83.3998 78.1786 82.46 78.1786H81.0873V80.689H82.46ZM88.8583 76.2495V85.4006H87.127V76.2495H88.8583ZM90.371 81.9504C90.371 81.2579 90.507 80.6437 90.7791 80.1078C91.0594 79.5719 91.4345 79.1597 91.9044 78.8712C92.3826 78.5826 92.9144 78.4383 93.4997 78.4383C94.0108 78.4383 94.456 78.5414 94.8353 78.7475C95.2228 78.9536 95.5319 79.2133 95.7628 79.5266V78.5496H97.5064V85.4006H95.7628V84.399C95.5402 84.7205 95.231 84.9884 94.8353 85.2028C94.4478 85.4089 93.9985 85.5119 93.4873 85.5119C92.9102 85.5119 92.3826 85.3635 91.9044 85.0667C91.4345 84.7699 91.0594 84.3536 90.7791 83.8177C90.507 83.2736 90.371 82.6512 90.371 81.9504ZM95.7628 81.9751C95.7628 81.5547 95.6803 81.1961 95.5154 80.8993C95.3505 80.5942 95.1279 80.3634 94.8476 80.2067C94.5673 80.0419 94.2664 79.9594 93.9449 79.9594C93.6234 79.9594 93.3266 80.0377 93.0545 80.1944C92.7824 80.351 92.5599 80.5819 92.3867 80.8869C92.2218 81.1837 92.1394 81.5382 92.1394 81.9504C92.1394 82.3626 92.2218 82.7254 92.3867 83.0386C92.5599 83.3437 92.7824 83.5786 93.0545 83.7435C93.3348 83.9084 93.6316 83.9909 93.9449 83.9909C94.2664 83.9909 94.5673 83.9125 94.8476 83.7559C95.1279 83.591 95.3505 83.3602 95.5154 83.0634C95.6803 82.7583 95.7628 82.3956 95.7628 81.9751ZM105.999 78.5496L101.757 88.6406H99.9146L101.399 85.2275L98.6532 78.5496H100.595L102.363 83.3354L104.156 78.5496H105.999ZM113.548 81.8267C113.548 82.0741 113.532 82.2967 113.499 82.4945H108.49C108.532 82.9892 108.705 83.3767 109.01 83.657C109.315 83.9373 109.69 84.0774 110.135 84.0774C110.778 84.0774 111.236 83.8012 111.508 83.2489H113.375C113.177 83.9084 112.798 84.4525 112.237 84.8812C111.677 85.3017 110.988 85.5119 110.172 85.5119C109.513 85.5119 108.919 85.3677 108.391 85.0791C107.872 84.7823 107.464 84.366 107.167 83.8301C106.879 83.2942 106.734 82.6759 106.734 81.9751C106.734 81.2661 106.879 80.6437 107.167 80.1078C107.456 79.5719 107.86 79.1597 108.379 78.8712C108.898 78.5826 109.496 78.4383 110.172 78.4383C110.823 78.4383 111.405 78.5785 111.916 78.8588C112.435 79.1391 112.835 79.539 113.115 80.0583C113.404 80.5695 113.548 81.159 113.548 81.8267ZM111.755 81.3321C111.747 80.8869 111.586 80.5324 111.273 80.2686C110.959 79.9965 110.576 79.8605 110.123 79.8605C109.694 79.8605 109.331 79.9924 109.034 80.2562C108.746 80.5118 108.569 80.8704 108.503 81.3321H111.755ZM116.79 79.6132C117.013 79.2504 117.302 78.966 117.656 78.7599C118.019 78.5538 118.431 78.4507 118.893 78.4507V80.2686H118.435C117.891 80.2686 117.479 80.3964 117.199 80.6519C116.927 80.9075 116.79 81.3527 116.79 81.9875V85.4006H115.059V78.5496H116.79V79.6132Z" fill="white"/>
<rect opacity="0.2" x="49.8499" y="122.437" width="69.387" height="17.3467" rx="4.4" fill="white"/>
<path d="M60.4815 127.175L61.4758 129.234C61.5324 129.354 61.6458 129.433 61.7746 129.454L64.0001 129.785C64.3247 129.832 64.4535 130.242 64.2217 130.473L62.6092 132.074C62.5164 132.169 62.4752 132.3 62.4958 132.431L62.8771 134.695C62.9337 135.025 62.5937 135.277 62.3 135.12L60.3063 134.054C60.193 133.991 60.0539 133.991 59.9354 134.054L57.9417 135.12C57.6532 135.277 57.3132 135.025 57.3647 134.695L57.7459 132.431C57.7665 132.3 57.7253 132.169 57.6326 132.074L56.0201 130.473C55.7831 130.237 55.9171 129.832 56.2416 129.785L58.4672 129.454C58.5959 129.433 58.7093 129.354 58.766 129.234L59.7602 127.175C59.9045 126.876 60.3269 126.876 60.4712 127.175H60.4815Z" fill="white"/>
<path d="M72.771 127.175L73.7653 129.234C73.8219 129.354 73.9353 129.433 74.0641 129.454L76.2896 129.785C76.6142 129.832 76.743 130.242 76.5111 130.473L74.8987 132.074C74.8059 132.169 74.7647 132.3 74.7853 132.431L75.1665 134.695C75.2232 135.025 74.8832 135.277 74.5895 135.12L72.5958 134.054C72.4825 133.991 72.3434 133.991 72.2249 134.054L70.2312 135.12C69.9427 135.277 69.6027 135.025 69.6542 134.695L70.0354 132.431C70.056 132.3 70.0148 132.169 69.9221 132.074L68.3096 130.473C68.0726 130.237 68.2065 129.832 68.5311 129.785L70.7566 129.454C70.8854 129.433 70.9988 129.354 71.0555 129.234L72.0497 127.175C72.194 126.876 72.6164 126.876 72.7607 127.175H72.771Z" fill="white"/>
<path d="M85.0606 127.175L86.0549 129.234C86.1115 129.354 86.2249 129.433 86.3537 129.454L88.5792 129.785C88.9038 129.832 89.0326 130.242 88.8007 130.473L87.1882 132.074C87.0955 132.169 87.0543 132.3 87.0749 132.431L87.4561 134.695C87.5128 135.025 87.1728 135.277 86.8792 135.12L84.8854 134.054C84.7721 133.991 84.633 133.991 84.5145 134.054L82.5208 135.12C82.2323 135.277 81.8923 135.025 81.9438 134.695L82.325 132.431C82.3456 132.3 82.3044 132.169 82.2117 132.074L80.5992 130.473C80.3622 130.237 80.4962 129.832 80.8207 129.785L83.0463 129.454C83.1751 129.433 83.2884 129.354 83.3451 129.234L84.3394 127.175C84.4836 126.876 84.906 126.876 85.0503 127.175H85.0606Z" fill="white"/>
<path d="M97.3502 127.175L98.3445 129.234C98.4011 129.354 98.5145 129.433 98.6433 129.454L100.869 129.785C101.193 129.832 101.322 130.242 101.09 130.473L99.4779 132.074C99.3851 132.169 99.3439 132.3 99.3645 132.431L99.7458 134.695C99.8024 135.025 99.4624 135.277 99.1688 135.12L97.175 134.054C97.0617 133.991 96.9226 133.991 96.8041 134.054L94.8104 135.12C94.5219 135.277 94.1819 135.025 94.2334 134.695L94.6146 132.431C94.6352 132.3 94.594 132.169 94.5013 132.074L92.8888 130.473C92.6518 130.237 92.7858 129.832 93.1103 129.785L95.3359 129.454C95.4647 129.433 95.578 129.354 95.6347 129.234L96.6289 127.175C96.7732 126.876 97.1956 126.876 97.3399 127.175H97.3502Z" fill="white"/>
<path d="M109.64 127.175L110.634 129.234C110.691 129.354 110.804 129.433 110.933 129.454L113.158 129.785C113.483 129.832 113.612 130.242 113.38 130.473L111.767 132.074C111.675 132.169 111.634 132.3 111.654 132.431L112.035 134.695C112.092 135.025 111.752 135.277 111.458 135.12L109.465 134.054C109.351 133.991 109.212 133.991 109.094 134.054L107.1 135.12C106.812 135.277 106.471 135.025 106.523 134.695L106.904 132.431C106.925 132.3 106.884 132.169 106.791 132.074L105.178 130.473C104.941 130.237 105.075 129.832 105.4 129.785L107.625 129.454C107.754 129.433 107.868 129.354 107.924 129.234L108.919 127.175C109.063 126.876 109.485 126.876 109.629 127.175H109.64Z" fill="white"/>
<rect x="65.2861" y="25.6973" width="38.6966" height="38.6966" rx="19.3483" fill="url(#paint6_linear_732_19329)"/>
<path d="M77.5356 42.3358C75.6476 40.912 74.6712 38.6361 74.5124 36.7285C74.4888 36.4262 74.2242 36.2502 73.9595 36.2502C73.7654 36.2502 73.5713 36.3437 73.4654 36.5416C71.5421 40.1644 72.3067 45.145 74.483 47.135C74.9947 45.6947 75.8299 44.2599 76.918 43.0065C77.118 42.7756 77.3239 42.5557 77.5356 42.3413V42.3358ZM95.6399 36.5416C95.534 36.3437 95.3399 36.2502 95.1458 36.2502C94.8753 36.2502 94.6165 36.4207 94.5871 36.7285C94.4282 38.6361 93.4519 40.9175 91.5638 42.3413C91.7755 42.5557 91.9814 42.7756 92.1814 43.0065C93.2695 44.2599 94.1047 45.6947 94.6165 47.135C96.7927 45.145 97.5574 40.1699 95.6399 36.5416ZM87.7406 41.2748V48.9161H93.6107C93.046 45.9861 90.7698 42.7151 87.7406 41.2748ZM81.3647 48.9161V41.2748C78.3356 42.7096 76.0652 45.9806 75.4946 48.9161H81.3647ZM93.8283 50.274H75.277C74.9417 50.274 74.6712 50.5269 74.6712 50.8402V53.3305C74.6712 53.6439 74.9417 53.8967 75.277 53.8967H93.8224C94.1577 53.8967 94.4282 53.6439 94.4282 53.3305V50.8402C94.4282 50.5269 94.1577 50.274 93.8224 50.274H93.8283ZM86.2878 40.7471C85.729 40.6041 85.1467 40.5272 84.5527 40.5272C83.9586 40.5272 83.3822 40.6041 82.8175 40.7471V48.9106H86.2819V40.7471H86.2878Z" fill="white"/>
<circle opacity="0.3" cx="84.6342" cy="45.0439" r="22.6842" stroke="white" stroke-width="2.00155"/>
</g>
<rect x="13.55" y="10.35" width="141.9" height="141.9" rx="16.5" stroke="#FF6E75" stroke-width="1.1"/>
</g>
<g opacity="0.6">
<g clip-path="url(#clip1_732_19329)">
<rect x="14.0996" y="289.2" width="141.9" height="141.9" rx="16.5" fill="#000223"/>
<rect opacity="0.3" x="52.0995" y="373.35" width="66" height="6.6" rx="2.2" fill="white"/>
<rect opacity="0.3" x="39.4496" y="385.45" width="91.3" height="6.6" rx="2.2" fill="white"/>
<path d="M57.5917 358.29C57.5917 358.752 57.4804 359.185 57.2578 359.588C57.0434 359.992 56.7013 360.318 56.2314 360.565C55.7697 360.813 55.1844 360.936 54.4754 360.936H53.0285V364.251H51.2972V355.619H54.4754C55.1431 355.619 55.712 355.734 56.1819 355.965C56.6518 356.196 57.0022 356.513 57.2331 356.917C57.4721 357.321 57.5917 357.779 57.5917 358.29ZM54.4012 359.539C54.8793 359.539 55.2338 359.432 55.4647 359.217C55.6955 358.995 55.8109 358.686 55.8109 358.29C55.8109 357.449 55.341 357.029 54.4012 357.029H53.0285V359.539H54.4012ZM60.7995 358.463C61.0221 358.1 61.3107 357.816 61.6652 357.61C62.0279 357.404 62.4401 357.301 62.9018 357.301V359.119H62.4443C61.9001 359.119 61.4879 359.246 61.2076 359.502C60.9356 359.757 60.7995 360.203 60.7995 360.837V364.251H59.0682V357.4H60.7995V358.463ZM67.3574 364.362C66.6978 364.362 66.1043 364.218 65.5766 363.929C65.049 363.632 64.6327 363.216 64.3276 362.68C64.0308 362.144 63.8824 361.526 63.8824 360.825C63.8824 360.124 64.0349 359.506 64.34 358.97C64.6533 358.434 65.0778 358.022 65.6137 357.734C66.1496 357.437 66.7473 357.288 67.4069 357.288C68.0664 357.288 68.6641 357.437 69.2 357.734C69.7359 358.022 70.1563 358.434 70.4614 358.97C70.7746 359.506 70.9313 360.124 70.9313 360.825C70.9313 361.526 70.7705 362.144 70.449 362.68C70.1357 363.216 69.707 363.632 69.1629 363.929C68.627 364.218 68.0252 364.362 67.3574 364.362ZM67.3574 362.853C67.6707 362.853 67.9633 362.779 68.2354 362.631C68.5157 362.474 68.7383 362.243 68.9032 361.938C69.0681 361.633 69.1505 361.262 69.1505 360.825C69.1505 360.174 68.9774 359.675 68.6311 359.329C68.2931 358.974 67.8768 358.797 67.3821 358.797C66.8875 358.797 66.4711 358.974 66.1331 359.329C65.8033 359.675 65.6385 360.174 65.6385 360.825C65.6385 361.476 65.7992 361.979 66.1207 362.334C66.4505 362.68 66.8627 362.853 67.3574 362.853ZM77.7167 359.106V360.565H72.4733V359.106H77.7167ZM86.2001 358.29C86.2001 358.752 86.0888 359.185 85.8662 359.588C85.6519 359.992 85.3098 360.318 84.8398 360.565C84.3781 360.813 83.7928 360.936 83.0838 360.936H81.6369V364.251H79.9056V355.619H83.0838C83.7516 355.619 84.3204 355.734 84.7904 355.965C85.2603 356.196 85.6107 356.513 85.8415 356.917C86.0806 357.321 86.2001 357.779 86.2001 358.29ZM83.0096 359.539C83.4878 359.539 83.8423 359.432 84.0731 359.217C84.3039 358.995 84.4194 358.686 84.4194 358.29C84.4194 357.449 83.9494 357.029 83.0096 357.029H81.6369V359.539H83.0096ZM89.408 355.099V364.251H87.6767V355.099H89.408ZM90.9206 360.8C90.9206 360.108 91.0566 359.494 91.3287 358.958C91.609 358.422 91.9841 358.01 92.4541 357.721C92.9322 357.433 93.464 357.288 94.0493 357.288C94.5605 357.288 95.0057 357.391 95.3849 357.597C95.7724 357.804 96.0815 358.063 96.3124 358.377V357.4H98.056V364.251H96.3124V363.249C96.0898 363.57 95.7806 363.838 95.3849 364.053C94.9974 364.259 94.5481 364.362 94.037 364.362C93.4599 364.362 92.9322 364.214 92.4541 363.917C91.9841 363.62 91.609 363.204 91.3287 362.668C91.0566 362.124 90.9206 361.501 90.9206 360.8ZM96.3124 360.825C96.3124 360.405 96.2299 360.046 96.065 359.749C95.9002 359.444 95.6776 359.213 95.3973 359.057C95.117 358.892 94.816 358.809 94.4945 358.809C94.173 358.809 93.8762 358.888 93.6041 359.044C93.3321 359.201 93.1095 359.432 92.9363 359.737C92.7715 360.034 92.689 360.388 92.689 360.8C92.689 361.213 92.7715 361.575 92.9363 361.889C93.1095 362.194 93.3321 362.429 93.6041 362.594C93.8844 362.758 94.1812 362.841 94.4945 362.841C94.816 362.841 95.117 362.763 95.3973 362.606C95.6776 362.441 95.9002 362.21 96.065 361.913C96.2299 361.608 96.3124 361.246 96.3124 360.825ZM106.548 357.4L102.307 367.491H100.464L101.948 364.077L99.2028 357.4H101.144L102.913 362.185L104.706 357.4H106.548ZM114.098 360.677C114.098 360.924 114.081 361.147 114.048 361.345H109.04C109.081 361.839 109.254 362.227 109.559 362.507C109.864 362.787 110.239 362.927 110.685 362.927C111.328 362.927 111.785 362.651 112.057 362.099H113.925C113.727 362.758 113.348 363.303 112.787 363.731C112.226 364.152 111.538 364.362 110.722 364.362C110.062 364.362 109.469 364.218 108.941 363.929C108.422 363.632 108.014 363.216 107.717 362.68C107.428 362.144 107.284 361.526 107.284 360.825C107.284 360.116 107.428 359.494 107.717 358.958C108.005 358.422 108.409 358.01 108.929 357.721C109.448 357.433 110.046 357.288 110.722 357.288C111.373 357.288 111.954 357.428 112.465 357.709C112.985 357.989 113.385 358.389 113.665 358.908C113.954 359.419 114.098 360.009 114.098 360.677ZM112.305 360.182C112.296 359.737 112.136 359.382 111.822 359.119C111.509 358.846 111.126 358.71 110.672 358.71C110.244 358.71 109.881 358.842 109.584 359.106C109.296 359.362 109.118 359.72 109.052 360.182H112.305ZM117.34 358.463C117.563 358.1 117.851 357.816 118.206 357.61C118.569 357.404 118.981 357.301 119.442 357.301V359.119H118.985C118.441 359.119 118.029 359.246 117.748 359.502C117.476 359.757 117.34 360.203 117.34 360.837V364.251H115.609V357.4H117.34V358.463Z" fill="white"/>
<rect opacity="0.2" x="50.3995" y="401.287" width="69.387" height="17.3467" rx="4.4" fill="white"/>
<path d="M61.0311 406.025L62.0254 408.084C62.0821 408.204 62.1954 408.283 62.3242 408.304L64.5498 408.635C64.8743 408.682 65.0031 409.092 64.7713 409.323L63.1588 410.924C63.0661 411.019 63.0248 411.15 63.0454 411.281L63.4267 413.544C63.4834 413.875 63.1433 414.127 62.8497 413.97L60.8559 412.904C60.7426 412.841 60.6035 412.841 60.485 412.904L58.4913 413.97C58.2028 414.127 57.8628 413.875 57.9143 413.544L58.2955 411.281C58.3162 411.15 58.2749 411.019 58.1822 410.924L56.5697 409.323C56.3327 409.086 56.4667 408.682 56.7913 408.635L59.0168 408.304C59.1456 408.283 59.2589 408.204 59.3156 408.084L60.3099 406.025C60.4541 405.726 60.8766 405.726 61.0208 406.025H61.0311Z" fill="white"/>
<path d="M73.3206 406.025L74.3149 408.084C74.3716 408.204 74.4849 408.283 74.6137 408.304L76.8392 408.635C77.1638 408.682 77.2926 409.092 77.0607 409.323L75.4483 410.924C75.3556 411.019 75.3143 411.15 75.3349 411.281L75.7162 413.544C75.7728 413.875 75.4328 414.127 75.1392 413.97L73.1454 412.904C73.0321 412.841 72.893 412.841 72.7745 412.904L70.7808 413.97C70.4923 414.127 70.1523 413.875 70.2038 413.544L70.585 411.281C70.6057 411.15 70.5644 411.019 70.4717 410.924L68.8592 409.323C68.6222 409.086 68.7562 408.682 69.0807 408.635L71.3063 408.304C71.4351 408.283 71.5484 408.204 71.6051 408.084L72.5994 406.025C72.7436 405.726 73.1661 405.726 73.3103 406.025H73.3206Z" fill="white"/>
<path d="M85.6102 406.025L86.6045 408.084C86.6611 408.204 86.7745 408.283 86.9033 408.304L89.1288 408.635C89.4534 408.682 89.5822 409.092 89.3504 409.323L87.7379 410.924C87.6451 411.019 87.6039 411.15 87.6245 411.281L88.0058 413.544C88.0624 413.875 87.7224 414.127 87.4288 413.97L85.4351 412.904C85.3217 412.841 85.1826 412.841 85.0641 412.904L83.0704 413.97C82.7819 414.127 82.4419 413.875 82.4934 413.544L82.8746 411.281C82.8952 411.15 82.854 411.019 82.7613 410.924L81.1488 409.323C80.9118 409.086 81.0458 408.682 81.3703 408.635L83.5959 408.304C83.7247 408.283 83.838 408.204 83.8947 408.084L84.889 406.025C85.0332 405.726 85.4557 405.726 85.5999 406.025H85.6102Z" fill="white"/>
<path d="M97.8998 406.025L98.8941 408.084C98.9508 408.204 99.0641 408.283 99.1929 408.304L101.418 408.635C101.743 408.682 101.872 409.092 101.64 409.323L100.027 410.924C99.9347 411.019 99.8935 411.15 99.9142 411.281L100.295 413.544C100.352 413.875 100.012 414.127 99.7184 413.97L97.7247 412.904C97.6113 412.841 97.4722 412.841 97.3537 412.904L95.36 413.97C95.0715 414.127 94.7315 413.875 94.783 413.544L95.1642 411.281C95.1848 411.15 95.1436 411.019 95.0509 410.924L93.4384 409.323C93.2014 409.086 93.3354 408.682 93.6599 408.635L95.8855 408.304C96.0143 408.283 96.1276 408.204 96.1843 408.084L97.1786 406.025C97.3228 405.726 97.7452 405.726 97.8895 406.025H97.8998Z" fill="white"/>
<path d="M110.189 406.025L111.184 408.084C111.24 408.204 111.354 408.283 111.483 408.304L113.708 408.635C114.033 408.682 114.161 409.092 113.93 409.323L112.317 410.924C112.224 411.019 112.183 411.15 112.204 411.281L112.585 413.544C112.642 413.875 112.302 414.127 112.008 413.97L110.014 412.904C109.901 412.841 109.762 412.841 109.643 412.904L107.65 413.97C107.361 414.127 107.021 413.875 107.073 413.544L107.454 411.281C107.474 411.15 107.433 411.019 107.34 410.924L105.728 409.323C105.491 409.086 105.625 408.682 105.95 408.635L108.175 408.304C108.304 408.283 108.417 408.204 108.474 408.084L109.468 406.025C109.612 405.726 110.035 405.726 110.179 406.025H110.189Z" fill="white"/>
<rect x="65.8357" y="304.547" width="38.6966" height="38.6966" rx="19.3483" fill="url(#paint7_linear_732_19329)"/>
<path d="M78.0853 321.186C76.1972 319.762 75.2208 317.486 75.062 315.578C75.0385 315.276 74.7738 315.1 74.5091 315.1C74.315 315.1 74.1209 315.194 74.015 315.392C72.0917 319.014 72.8563 323.995 75.0326 325.985C75.5443 324.545 76.3795 323.11 77.4677 321.856C77.6676 321.626 77.8735 321.406 78.0853 321.191V321.186ZM96.1895 315.392C96.0837 315.194 95.8896 315.1 95.6955 315.1C95.4249 315.1 95.1661 315.271 95.1367 315.578C94.9779 317.486 94.0015 319.767 92.1134 321.191C92.3252 321.406 92.531 321.626 92.731 321.856C93.8191 323.11 94.6544 324.545 95.1661 325.985C97.3424 323.995 98.107 319.02 96.1895 315.392ZM88.2902 320.125V327.766H94.1603C93.5956 324.836 91.3194 321.565 88.2902 320.125ZM81.9143 327.766V320.125C78.8852 321.56 76.6148 324.831 76.0443 327.766H81.9143ZM94.3779 329.124H75.8266C75.4914 329.124 75.2208 329.377 75.2208 329.69V332.18C75.2208 332.494 75.4914 332.747 75.8266 332.747H94.372C94.7073 332.747 94.9779 332.494 94.9779 332.18V329.69C94.9779 329.377 94.7073 329.124 94.372 329.124H94.3779ZM86.8374 319.597C86.2786 319.454 85.6963 319.377 85.1023 319.377C84.5082 319.377 83.9318 319.454 83.3671 319.597V327.761H86.8315V319.597H86.8374Z" fill="white"/>
<circle opacity="0.3" cx="85.1838" cy="323.894" r="22.6842" stroke="white" stroke-width="2.00155"/>
</g>
<rect x="14.0996" y="289.2" width="141.9" height="141.9" rx="16.5" stroke="#FF6E75" stroke-width="1.1"/>
</g>
<g opacity="0.6">
<g clip-path="url(#clip2_732_19329)">
<rect x="293.5" y="289.2" width="141.9" height="141.9" rx="16.5" fill="#000223"/>
<rect opacity="0.3" x="331.5" y="373.35" width="66" height="6.6" rx="2.2" fill="white"/>
<rect opacity="0.3" x="318.85" y="385.45" width="91.3" height="6.6" rx="2.2" fill="white"/>
<path d="M336.992 358.29C336.992 358.752 336.881 359.185 336.658 359.588C336.444 359.992 336.102 360.318 335.632 360.565C335.17 360.813 334.585 360.936 333.876 360.936H332.429V364.251H330.698V355.619H333.876C334.544 355.619 335.112 355.734 335.582 355.965C336.052 356.196 336.403 356.513 336.633 356.917C336.873 357.321 336.992 357.779 336.992 358.29ZM333.802 359.539C334.28 359.539 334.634 359.432 334.865 359.217C335.096 358.995 335.211 358.686 335.211 358.29C335.211 357.449 334.741 357.029 333.802 357.029H332.429V359.539H333.802ZM340.2 358.463C340.423 358.1 340.711 357.816 341.066 357.61C341.428 357.404 341.841 357.301 342.302 357.301V359.119H341.845C341.301 359.119 340.888 359.246 340.608 359.502C340.336 359.757 340.2 360.203 340.2 360.837V364.251H338.469V357.4H340.2V358.463ZM346.758 364.362C346.098 364.362 345.505 364.218 344.977 363.929C344.449 363.632 344.033 363.216 343.728 362.68C343.431 362.144 343.283 361.526 343.283 360.825C343.283 360.124 343.435 359.506 343.74 358.97C344.054 358.434 344.478 358.022 345.014 357.734C345.55 357.437 346.148 357.288 346.807 357.288C347.467 357.288 348.064 357.437 348.6 357.734C349.136 358.022 349.557 358.434 349.862 358.97C350.175 359.506 350.332 360.124 350.332 360.825C350.332 361.526 350.171 362.144 349.849 362.68C349.536 363.216 349.107 363.632 348.563 363.929C348.027 364.218 347.426 364.362 346.758 364.362ZM346.758 362.853C347.071 362.853 347.364 362.779 347.636 362.631C347.916 362.474 348.139 362.243 348.304 361.938C348.468 361.633 348.551 361.262 348.551 360.825C348.551 360.174 348.378 359.675 348.032 359.329C347.694 358.974 347.277 358.797 346.783 358.797C346.288 358.797 345.872 358.974 345.534 359.329C345.204 359.675 345.039 360.174 345.039 360.825C345.039 361.476 345.2 361.979 345.521 362.334C345.851 362.68 346.263 362.853 346.758 362.853ZM357.117 359.106V360.565H351.874V359.106H357.117ZM365.601 358.29C365.601 358.752 365.489 359.185 365.267 359.588C365.052 359.992 364.71 360.318 364.24 360.565C363.779 360.813 363.193 360.936 362.484 360.936H361.037V364.251H359.306V355.619H362.484C363.152 355.619 363.721 355.734 364.191 355.965C364.661 356.196 365.011 356.513 365.242 356.917C365.481 357.321 365.601 357.779 365.601 358.29ZM362.41 359.539C362.888 359.539 363.243 359.432 363.473 359.217C363.704 358.995 363.82 358.686 363.82 358.29C363.82 357.449 363.35 357.029 362.41 357.029H361.037V359.539H362.41ZM368.808 355.099V364.251H367.077V355.099H368.808ZM370.321 360.8C370.321 360.108 370.457 359.494 370.729 358.958C371.009 358.422 371.385 358.01 371.854 357.721C372.333 357.433 372.864 357.288 373.45 357.288C373.961 357.288 374.406 357.391 374.785 357.597C375.173 357.804 375.482 358.063 375.713 358.377V357.4H377.456V364.251H375.713V363.249C375.49 363.57 375.181 363.838 374.785 364.053C374.398 364.259 373.948 364.362 373.437 364.362C372.86 364.362 372.333 364.214 371.854 363.917C371.385 363.62 371.009 363.204 370.729 362.668C370.457 362.124 370.321 361.501 370.321 360.8ZM375.713 360.825C375.713 360.405 375.63 360.046 375.465 359.749C375.301 359.444 375.078 359.213 374.798 359.057C374.517 358.892 374.216 358.809 373.895 358.809C373.573 358.809 373.277 358.888 373.005 359.044C372.732 359.201 372.51 359.432 372.337 359.737C372.172 360.034 372.089 360.388 372.089 360.8C372.089 361.213 372.172 361.575 372.337 361.889C372.51 362.194 372.732 362.429 373.005 362.594C373.285 362.758 373.582 362.841 373.895 362.841C374.216 362.841 374.517 362.763 374.798 362.606C375.078 362.441 375.301 362.21 375.465 361.913C375.63 361.608 375.713 361.246 375.713 360.825ZM385.949 357.4L381.707 367.491H379.865L381.349 364.077L378.603 357.4H380.545L382.313 362.185L384.106 357.4H385.949ZM393.498 360.677C393.498 360.924 393.482 361.147 393.449 361.345H388.44C388.482 361.839 388.655 362.227 388.96 362.507C389.265 362.787 389.64 362.927 390.085 362.927C390.728 362.927 391.186 362.651 391.458 362.099H393.325C393.127 362.758 392.748 363.303 392.187 363.731C391.627 364.152 390.938 364.362 390.122 364.362C389.463 364.362 388.869 364.218 388.341 363.929C387.822 363.632 387.414 363.216 387.117 362.68C386.829 362.144 386.684 361.526 386.684 360.825C386.684 360.116 386.829 359.494 387.117 358.958C387.406 358.422 387.81 358.01 388.329 357.721C388.848 357.433 389.446 357.288 390.122 357.288C390.773 357.288 391.355 357.428 391.866 357.709C392.385 357.989 392.785 358.389 393.065 358.908C393.354 359.419 393.498 360.009 393.498 360.677ZM391.705 360.182C391.697 359.737 391.536 359.382 391.223 359.119C390.909 358.846 390.526 358.71 390.073 358.71C389.644 358.71 389.281 358.842 388.984 359.106C388.696 359.362 388.519 359.72 388.453 360.182H391.705ZM396.741 358.463C396.963 358.1 397.252 357.816 397.606 357.61C397.969 357.404 398.381 357.301 398.843 357.301V359.119H398.385C397.841 359.119 397.429 359.246 397.149 359.502C396.877 359.757 396.741 360.203 396.741 360.837V364.251H395.009V357.4H396.741V358.463Z" fill="white"/>
<rect opacity="0.2" x="329.8" y="401.287" width="69.387" height="17.3467" rx="4.4" fill="white"/>
<path d="M340.432 406.025L341.426 408.084C341.482 408.204 341.596 408.283 341.725 408.304L343.95 408.635C344.275 408.682 344.403 409.092 344.172 409.323L342.559 410.924C342.466 411.019 342.425 411.15 342.446 411.281L342.827 413.544C342.884 413.875 342.544 414.127 342.25 413.97L340.256 412.904C340.143 412.841 340.004 412.841 339.885 412.904L337.892 413.97C337.603 414.127 337.263 413.875 337.315 413.544L337.696 411.281C337.717 411.15 337.675 411.019 337.583 410.924L335.97 409.323C335.733 409.086 335.867 408.682 336.192 408.635L338.417 408.304C338.546 408.283 338.659 408.204 338.716 408.084L339.71 406.025C339.855 405.726 340.277 405.726 340.421 406.025H340.432Z" fill="white"/>
<path d="M352.721 406.025L353.715 408.084C353.772 408.204 353.885 408.283 354.014 408.304L356.24 408.635C356.564 408.682 356.693 409.092 356.461 409.323L354.849 410.924C354.756 411.019 354.715 411.15 354.735 411.281L355.117 413.544C355.173 413.875 354.833 414.127 354.54 413.97L352.546 412.904C352.433 412.841 352.293 412.841 352.175 412.904L350.181 413.97C349.893 414.127 349.553 413.875 349.604 413.544L349.985 411.281C350.006 411.15 349.965 411.019 349.872 410.924L348.26 409.323C348.023 409.086 348.157 408.682 348.481 408.635L350.707 408.304C350.835 408.283 350.949 408.204 351.005 408.084L352 406.025C352.144 405.726 352.566 405.726 352.711 406.025H352.721Z" fill="white"/>
<path d="M365.011 406.025L366.005 408.084C366.062 408.204 366.175 408.283 366.304 408.304L368.529 408.635C368.854 408.682 368.983 409.092 368.751 409.323L367.138 410.924C367.046 411.019 367.004 411.15 367.025 411.281L367.406 413.544C367.463 413.875 367.123 414.127 366.829 413.97L364.835 412.904C364.722 412.841 364.583 412.841 364.465 412.904L362.471 413.97C362.182 414.127 361.842 413.875 361.894 413.544L362.275 411.281C362.296 411.15 362.254 411.019 362.162 410.924L360.549 409.323C360.312 409.086 360.446 408.682 360.771 408.635L362.996 408.304C363.125 408.283 363.238 408.204 363.295 408.084L364.289 406.025C364.434 405.726 364.856 405.726 365 406.025H365.011Z" fill="white"/>
<path d="M377.3 406.025L378.294 408.084C378.351 408.204 378.464 408.283 378.593 408.304L380.819 408.635C381.143 408.682 381.272 409.092 381.04 409.323L379.428 410.924C379.335 411.019 379.294 411.15 379.315 411.281L379.696 413.544C379.752 413.875 379.412 414.127 379.119 413.97L377.125 412.904C377.012 412.841 376.873 412.841 376.754 412.904L374.76 413.97C374.472 414.127 374.132 413.875 374.183 413.544L374.565 411.281C374.585 411.15 374.544 411.019 374.451 410.924L372.839 409.323C372.602 409.086 372.736 408.682 373.06 408.635L375.286 408.304C375.415 408.283 375.528 408.204 375.585 408.084L376.579 406.025C376.723 405.726 377.146 405.726 377.29 406.025H377.3Z" fill="white"/>
<path d="M389.59 406.025L390.584 408.084C390.641 408.204 390.754 408.283 390.883 408.304L393.108 408.635C393.433 408.682 393.562 409.092 393.33 409.323L391.717 410.924C391.625 411.019 391.584 411.15 391.604 411.281L391.985 413.544C392.042 413.875 391.702 414.127 391.408 413.97L389.415 412.904C389.301 412.841 389.162 412.841 389.044 412.904L387.05 413.97C386.762 414.127 386.422 413.875 386.473 413.544L386.854 411.281C386.875 411.15 386.834 411.019 386.741 410.924L385.128 409.323C384.891 409.086 385.025 408.682 385.35 408.635L387.575 408.304C387.704 408.283 387.818 408.204 387.874 408.084L388.869 406.025C389.013 405.726 389.435 405.726 389.58 406.025H389.59Z" fill="white"/>
<rect x="345.236" y="304.547" width="38.6966" height="38.6966" rx="19.3483" fill="url(#paint8_linear_732_19329)"/>
<path d="M357.486 321.186C355.598 319.762 354.621 317.486 354.462 315.578C354.439 315.276 354.174 315.1 353.909 315.1C353.715 315.1 353.521 315.194 353.415 315.392C351.492 319.014 352.257 323.995 354.433 325.985C354.945 324.545 355.78 323.11 356.868 321.856C357.068 321.626 357.274 321.406 357.486 321.191V321.186ZM375.59 315.392C375.484 315.194 375.29 315.1 375.096 315.1C374.825 315.1 374.566 315.271 374.537 315.578C374.378 317.486 373.402 319.767 371.514 321.191C371.726 321.406 371.931 321.626 372.131 321.856C373.22 323.11 374.055 324.545 374.566 325.985C376.743 323.995 377.507 319.02 375.59 315.392ZM367.691 320.125V327.766H373.561C372.996 324.836 370.72 321.565 367.691 320.125ZM361.315 327.766V320.125C358.286 321.56 356.015 324.831 355.445 327.766H361.315ZM373.778 329.124H355.227C354.892 329.124 354.621 329.377 354.621 329.69V332.18C354.621 332.494 354.892 332.747 355.227 332.747H373.772C374.108 332.747 374.378 332.494 374.378 332.18V329.69C374.378 329.377 374.108 329.124 373.772 329.124H373.778ZM366.238 319.597C365.679 319.454 365.097 319.377 364.503 319.377C363.909 319.377 363.332 319.454 362.768 319.597V327.761H366.232V319.597H366.238Z" fill="white"/>
<circle opacity="0.3" cx="364.584" cy="323.894" r="22.6842" stroke="white" stroke-width="2.00155"/>
</g>
<rect x="293.5" y="289.2" width="141.9" height="141.9" rx="16.5" stroke="#FF6E75" stroke-width="1.1"/>
</g>
<g clip-path="url(#clip3_732_19329)">
<rect x="292.4" y="1.55005" width="152.9" height="152.9" rx="17.7791" fill="#000223"/>
<rect x="292.4" y="1.55005" width="152.9" height="152.9" rx="17.7791" fill="url(#paint9_radial_732_19329)"/>
<rect opacity="0.3" x="332.842" y="92.2233" width="71.1163" height="7.11163" rx="2.37054" fill="white"/>
<rect opacity="0.3" x="319.212" y="105.261" width="98.3775" height="7.11163" rx="2.37054" fill="white"/>
<path d="M338.76 75.9108C338.76 76.4083 338.64 76.8747 338.4 77.31C338.169 77.7452 337.801 78.0961 337.294 78.3626C336.797 78.6291 336.166 78.7624 335.402 78.7624H333.843V82.3335H331.978V73.0326H335.402C336.122 73.0326 336.735 73.157 337.241 73.4057C337.747 73.6544 338.125 73.9965 338.374 74.4317C338.631 74.867 338.76 75.3601 338.76 75.9108ZM335.322 77.2567C335.838 77.2567 336.219 77.1412 336.468 76.9102C336.717 76.6703 336.841 76.3372 336.841 75.9108C336.841 75.0047 336.335 74.5517 335.322 74.5517H333.843V77.2567H335.322ZM342.217 76.0974C342.456 75.7065 342.767 75.4 343.149 75.1779C343.54 74.9559 343.984 74.8448 344.482 74.8448V76.8036H343.989C343.403 76.8036 342.958 76.9413 342.656 77.2167C342.363 77.4921 342.217 77.9718 342.217 78.6558V82.3335H340.351V74.9514H342.217V76.0974ZM349.283 82.4534C348.572 82.4534 347.933 82.298 347.364 81.987C346.796 81.6672 346.347 81.2186 346.018 80.6412C345.698 80.0638 345.539 79.3975 345.539 78.6425C345.539 77.8874 345.703 77.2211 346.032 76.6437C346.369 76.0663 346.827 75.6221 347.404 75.3112C347.981 74.9914 348.626 74.8315 349.336 74.8315C350.047 74.8315 350.691 74.9914 351.268 75.3112C351.846 75.6221 352.299 76.0663 352.627 76.6437C352.965 77.2211 353.134 77.8874 353.134 78.6425C353.134 79.3975 352.961 80.0638 352.614 80.6412C352.277 81.2186 351.815 81.6672 351.228 81.987C350.651 82.298 350.002 82.4534 349.283 82.4534ZM349.283 80.8278C349.62 80.8278 349.936 80.7478 350.229 80.5879C350.531 80.4191 350.771 80.1704 350.949 79.8417C351.126 79.513 351.215 79.1133 351.215 78.6425C351.215 77.9407 351.028 77.4032 350.655 77.0301C350.291 76.6481 349.843 76.4571 349.31 76.4571C348.777 76.4571 348.328 76.6481 347.964 77.0301C347.608 77.4032 347.431 77.9407 347.431 78.6425C347.431 79.3442 347.604 79.8861 347.95 80.2681C348.306 80.6412 348.75 80.8278 349.283 80.8278ZM360.445 76.7903V78.3626H354.795V76.7903H360.445ZM369.586 75.9108C369.586 76.4083 369.466 76.8747 369.227 77.31C368.996 77.7452 368.627 78.0961 368.121 78.3626C367.623 78.6291 366.992 78.7624 366.228 78.7624H364.669V82.3335H362.804V73.0326H366.228C366.948 73.0326 367.561 73.157 368.067 73.4057C368.574 73.6544 368.951 73.9965 369.2 74.4317C369.457 74.867 369.586 75.3601 369.586 75.9108ZM366.148 77.2567C366.664 77.2567 367.046 77.1412 367.294 76.9102C367.543 76.6703 367.667 76.3372 367.667 75.9108C367.667 75.0047 367.161 74.5517 366.148 74.5517H364.669V77.2567H366.148ZM373.043 72.473V82.3335H371.177V72.473H373.043ZM374.673 78.6158C374.673 77.8696 374.819 77.2078 375.112 76.6304C375.414 76.053 375.819 75.6088 376.325 75.2979C376.84 74.987 377.413 74.8315 378.044 74.8315C378.595 74.8315 379.074 74.9425 379.483 75.1646C379.901 75.3867 380.234 75.6665 380.482 76.0041V74.9514H382.361V82.3335H380.482V81.2542C380.243 81.6006 379.909 81.8893 379.483 82.1203C379.066 82.3424 378.581 82.4534 378.031 82.4534C377.409 82.4534 376.84 82.2935 376.325 81.9737C375.819 81.6539 375.414 81.2053 375.112 80.6279C374.819 80.0416 374.673 79.3709 374.673 78.6158ZM380.482 78.6425C380.482 78.1894 380.394 77.803 380.216 77.4832C380.038 77.1545 379.798 76.9058 379.496 76.737C379.194 76.5593 378.87 76.4705 378.524 76.4705C378.177 76.4705 377.857 76.5549 377.564 76.7236C377.271 76.8924 377.031 77.1412 376.845 77.4699C376.667 77.7897 376.578 78.1716 376.578 78.6158C376.578 79.06 376.667 79.4508 376.845 79.7884C377.031 80.1171 377.271 80.3703 377.564 80.5479C377.866 80.7256 378.186 80.8144 378.524 80.8144C378.87 80.8144 379.194 80.73 379.496 80.5613C379.798 80.3836 380.038 80.1349 380.216 79.8151C380.394 79.4864 380.482 79.0955 380.482 78.6425ZM391.512 74.9514L386.942 85.8247H384.956L386.555 82.1469L383.597 74.9514H385.689L387.594 80.1082L389.527 74.9514H391.512ZM399.647 78.4826C399.647 78.7491 399.629 78.9889 399.593 79.2021H394.197C394.241 79.7351 394.428 80.1526 394.756 80.4547C395.085 80.7567 395.489 80.9077 395.969 80.9077C396.662 80.9077 397.155 80.6101 397.448 80.0149H399.46C399.247 80.7256 398.838 81.3119 398.234 81.7738C397.63 82.2269 396.888 82.4534 396.009 82.4534C395.298 82.4534 394.659 82.298 394.09 81.987C393.53 81.6672 393.091 81.2186 392.771 80.6412C392.46 80.0638 392.304 79.3975 392.304 78.6425C392.304 77.8785 392.46 77.2078 392.771 76.6304C393.082 76.053 393.517 75.6088 394.077 75.2979C394.636 74.987 395.28 74.8315 396.009 74.8315C396.711 74.8315 397.337 74.9825 397.888 75.2845C398.447 75.5866 398.878 76.0174 399.18 76.5771C399.491 77.1278 399.647 77.763 399.647 78.4826ZM397.714 77.9496C397.706 77.4699 397.532 77.0879 397.195 76.8036C396.857 76.5104 396.444 76.3639 395.956 76.3639C395.494 76.3639 395.103 76.506 394.783 76.7903C394.472 77.0657 394.281 77.4521 394.21 77.9496H397.714ZM403.14 76.0974C403.38 75.7065 403.691 75.4 404.073 75.1779C404.464 74.9559 404.908 74.8448 405.405 74.8448V76.8036H404.912C404.326 76.8036 403.882 76.9413 403.58 77.2167C403.287 77.4921 403.14 77.9718 403.14 78.6558V82.3335H401.275V74.9514H403.14V76.0974Z" fill="white"/>
<rect opacity="0.2" x="331.514" y="122.326" width="74.7658" height="18.6915" rx="4.74109" fill="white"/>
<path d="M342.97 127.432L344.041 129.65C344.102 129.78 344.225 129.865 344.363 129.887L346.761 130.244C347.111 130.295 347.25 130.736 347 130.985L345.263 132.71C345.163 132.812 345.118 132.954 345.14 133.095L345.551 135.534C345.612 135.89 345.246 136.162 344.93 135.992L342.781 134.843C342.659 134.776 342.509 134.776 342.382 134.843L340.233 135.992C339.922 136.162 339.556 135.89 339.612 135.534L340.022 133.095C340.045 132.954 340 132.812 339.9 132.71L338.163 130.985C337.907 130.73 338.052 130.295 338.401 130.244L340.799 129.887C340.938 129.865 341.06 129.78 341.121 129.65L342.193 127.432C342.348 127.109 342.803 127.109 342.959 127.432H342.97Z" fill="white"/>
<path d="M356.212 127.432L357.283 129.65C357.345 129.78 357.467 129.865 357.605 129.887L360.003 130.244C360.353 130.295 360.492 130.736 360.242 130.985L358.505 132.71C358.405 132.812 358.36 132.954 358.383 133.095L358.793 135.534C358.854 135.89 358.488 136.162 358.172 135.992L356.023 134.843C355.901 134.776 355.751 134.776 355.624 134.843L353.475 135.992C353.165 136.162 352.798 135.89 352.854 135.534L353.265 133.095C353.287 132.954 353.242 132.812 353.142 132.71L351.405 130.985C351.15 130.73 351.294 130.295 351.644 130.244L354.042 129.887C354.18 129.865 354.303 129.78 354.364 129.65L355.435 127.432C355.59 127.109 356.046 127.109 356.201 127.432H356.212Z" fill="white"/>
<path d="M369.454 127.432L370.526 129.65C370.587 129.78 370.709 129.865 370.848 129.887L373.246 130.244C373.595 130.295 373.734 130.736 373.484 130.985L371.747 132.71C371.647 132.812 371.603 132.954 371.625 133.095L372.036 135.534C372.097 135.89 371.73 136.162 371.414 135.992L369.266 134.843C369.144 134.776 368.994 134.776 368.866 134.843L366.718 135.992C366.407 136.162 366.04 135.89 366.096 135.534L366.507 133.095C366.529 132.954 366.485 132.812 366.385 132.71L364.647 130.985C364.392 130.73 364.536 130.295 364.886 130.244L367.284 129.887C367.423 129.865 367.545 129.78 367.606 129.65L368.677 127.432C368.833 127.109 369.288 127.109 369.443 127.432H369.454Z" fill="white"/>
<path d="M382.697 127.432L383.768 129.65C383.829 129.78 383.951 129.865 384.09 129.887L386.488 130.244C386.838 130.295 386.977 130.736 386.727 130.985L384.989 132.71C384.889 132.812 384.845 132.954 384.867 133.095L385.278 135.534C385.339 135.89 384.973 136.162 384.656 135.992L382.508 134.843C382.386 134.776 382.236 134.776 382.108 134.843L379.96 135.992C379.649 136.162 379.283 135.89 379.338 135.534L379.749 133.095C379.771 132.954 379.727 132.812 379.627 132.71L377.889 130.985C377.634 130.73 377.778 130.295 378.128 130.244L380.526 129.887C380.665 129.865 380.787 129.78 380.848 129.65L381.919 127.432C382.075 127.109 382.53 127.109 382.686 127.432H382.697Z" fill="white"/>
<path d="M395.939 127.432L397.01 129.65C397.071 129.78 397.194 129.865 397.332 129.887L399.73 130.244C400.08 130.295 400.219 130.736 399.969 130.985L398.232 132.71C398.132 132.812 398.087 132.954 398.109 133.095L398.52 135.534C398.581 135.89 398.215 136.162 397.898 135.992L395.75 134.843C395.628 134.776 395.478 134.776 395.351 134.843L393.202 135.992C392.891 136.162 392.525 135.89 392.581 135.534L392.991 133.095C393.014 132.954 392.969 132.812 392.869 132.71L391.132 130.985C390.876 130.73 391.021 130.295 391.37 130.244L393.768 129.887C393.907 129.865 394.029 129.78 394.09 129.65L395.162 127.432C395.317 127.109 395.772 127.109 395.928 127.432H395.939Z" fill="white"/>
<rect x="348.147" y="18.087" width="41.6963" height="41.6963" rx="20.8482" fill="url(#paint10_linear_732_19329)"/>
<path d="M360.842 35.5115C358.807 33.9774 357.755 31.525 357.584 29.4696C357.559 29.1438 357.274 28.9542 356.989 28.9542C356.779 28.9542 356.57 29.0549 356.456 29.2682C354.384 33.1718 355.208 38.5385 357.553 40.6828C358.104 39.1308 359.004 37.5848 360.176 36.2342C360.392 35.9854 360.614 35.7485 360.842 35.5175V35.5115ZM380.35 29.2682C380.236 29.0549 380.026 28.9542 379.817 28.9542C379.526 28.9542 379.247 29.1379 379.215 29.4696C379.044 31.525 377.992 33.9833 375.958 35.5175C376.186 35.7485 376.408 35.9854 376.623 36.2342C377.795 37.5848 378.695 39.1308 379.247 40.6828C381.592 38.5385 382.416 33.1777 380.35 29.2682ZM371.838 34.3683V42.602H378.163C377.555 39.4447 375.102 35.9203 371.838 34.3683ZM364.968 42.602V34.3683C361.704 35.9143 359.257 39.4388 358.643 42.602H364.968ZM378.398 44.0651H358.408C358.047 44.0651 357.755 44.3376 357.755 44.6752V47.3586C357.755 47.6962 358.047 47.9687 358.408 47.9687H378.391C378.752 47.9687 379.044 47.6962 379.044 47.3586V44.6752C379.044 44.3376 378.752 44.0651 378.391 44.0651H378.398ZM370.273 33.7997C369.67 33.6456 369.043 33.5627 368.403 33.5627C367.763 33.5627 367.142 33.6456 366.533 33.7997V42.5961H370.266V33.7997H370.273Z" fill="white"/>
<circle opacity="0.3" cx="368.995" cy="38.9335" r="24.4427" stroke="white" stroke-width="2.15671"/>
</g>
<rect x="292.4" y="1.55005" width="152.9" height="152.9" rx="17.7791" stroke="#FF6E75" stroke-width="1.18527"/>
<defs>
<linearGradient id="paint0_linear_732_19329" x1="455.2" y1="164.35" x2="531.65" y2="257.266" gradientUnits="userSpaceOnUse">
<stop stop-color="white"/>
<stop offset="1" stop-color="white" stop-opacity="0"/>
</linearGradient>
<linearGradient id="paint1_linear_732_19329" x1="0" y1="0" x2="71.5" y2="86.9" gradientUnits="userSpaceOnUse">
<stop stop-color="white"/>
<stop offset="1" stop-color="white" stop-opacity="0"/>
</linearGradient>
<linearGradient id="paint2_linear_732_19329" x1="0" y1="0" x2="71.5" y2="86.9" gradientUnits="userSpaceOnUse">
<stop stop-color="white"/>
<stop offset="1" stop-color="white" stop-opacity="0"/>
</linearGradient>
<linearGradient id="paint3_linear_732_19329" x1="445.3" y1="441" x2="516.8" y2="527.9" gradientUnits="userSpaceOnUse">
<stop stop-color="white"/>
<stop offset="1" stop-color="white" stop-opacity="0"/>
</linearGradient>
<linearGradient id="paint4_linear_732_19329" x1="224.75" y1="36.75" x2="224.75" y2="405.25" gradientUnits="userSpaceOnUse">
<stop stop-color="#FF6E75"/>
<stop offset="1" stop-color="#FBBE7E"/>
</linearGradient>
<linearGradient id="paint5_linear_732_19329" x1="260.701" y1="140.94" x2="233.826" y2="256.2" gradientUnits="userSpaceOnUse">
<stop offset="0.01" stop-color="#F4FA8E"/>
<stop offset="0.297135" stop-color="#FBBE7E"/>
<stop offset="1" stop-color="#FF6E75"/>
</linearGradient>
<linearGradient id="paint6_linear_732_19329" x1="88.8707" y1="64.251" x2="101.796" y2="21.351" gradientUnits="userSpaceOnUse">
<stop stop-color="#FF6E75"/>
<stop offset="1" stop-color="#FBBE7E"/>
</linearGradient>
<linearGradient id="paint7_linear_732_19329" x1="89.4203" y1="343.101" x2="102.345" y2="300.201" gradientUnits="userSpaceOnUse">
<stop stop-color="#FF6E75"/>
<stop offset="1" stop-color="#FBBE7E"/>
</linearGradient>
<linearGradient id="paint8_linear_732_19329" x1="368.821" y1="343.101" x2="381.746" y2="300.201" gradientUnits="userSpaceOnUse">
<stop stop-color="#FF6E75"/>
<stop offset="1" stop-color="#FBBE7E"/>
</linearGradient>
<radialGradient id="paint9_radial_732_19329" cx="0" cy="0" r="1" gradientUnits="userSpaceOnUse" gradientTransform="translate(505 45) rotate(166.56) scale(211.903 85.4903)">
<stop stop-color="#935E5D"/>
<stop offset="0.57716" stop-color="#161635"/>
</radialGradient>
<linearGradient id="paint10_linear_732_19329" x1="373.56" y1="59.6294" x2="387.487" y2="13.4038" gradientUnits="userSpaceOnUse">
<stop stop-color="#FF6E75"/>
<stop offset="1" stop-color="#FBBE7E"/>
</linearGradient>
<clipPath id="clip0_732_19329">
<rect x="13.55" y="10.35" width="141.9" height="141.9" rx="16.5" fill="white"/>
</clipPath>
<clipPath id="clip1_732_19329">
<rect x="14.0996" y="289.2" width="141.9" height="141.9" rx="16.5" fill="white"/>
</clipPath>
<clipPath id="clip2_732_19329">
<rect x="293.5" y="289.2" width="141.9" height="141.9" rx="16.5" fill="white"/>
</clipPath>
<clipPath id="clip3_732_19329">
<rect x="292.4" y="1.55005" width="152.9" height="152.9" rx="17.7791" fill="white"/>
</clipPath>
</defs>
</svg>
