<svg width="534" height="442" viewBox="0 0 534 442" fill="none" xmlns="http://www.w3.org/2000/svg">
<g clip-path="url(#clip0_718_12732)">
<path d="M148.629 25.1522H215.512C225.772 25.1522 234.09 33.4701 234.09 43.7308V91.883C234.09 102.144 225.772 110.462 215.512 110.462H148.629V25.1522Z" fill="url(#paint0_linear_718_12732)" fill-opacity="0.4"/>
<path d="M203.362 51.5254C203.362 53.7314 202.639 55.7708 201.418 57.4174C201.032 57.9389 200.595 58.4214 200.116 58.8574C200.393 57.8664 200.535 56.8321 200.535 55.7773C200.535 49.4904 195.441 44.3752 189.181 44.3752C188.223 44.3752 187.284 44.4932 186.378 44.7247C186.74 44.3406 187.134 43.9858 187.554 43.6634C189.21 42.3921 191.277 41.6381 193.516 41.6381C198.945 41.6381 203.362 46.0738 203.362 51.5254Z" fill="white"/>
<path d="M188.343 52.7831C188.098 52.8891 187.908 53.0341 187.774 53.2169C187.639 53.4008 187.572 53.6085 187.572 53.8411C187.572 54.0359 187.618 54.2047 187.709 54.3464C187.802 54.487 187.922 54.606 188.073 54.7012C188.224 54.7965 188.385 54.8743 188.559 54.9382C188.624 54.9609 188.69 54.9836 188.752 55.0031V52.663C188.604 52.69 188.468 52.73 188.343 52.7831ZM190.782 57.0024C190.645 56.8466 190.458 56.719 190.227 56.6162C190.094 56.5588 189.953 56.5058 189.801 56.4561V58.8611C189.907 58.8373 190.009 58.8048 190.106 58.7648C190.38 58.6534 190.595 58.4987 190.752 58.2996C190.909 58.0995 190.987 57.8669 190.987 57.5996C190.987 57.3562 190.918 57.1571 190.782 57.0024ZM190.782 57.0024C190.645 56.8466 190.458 56.719 190.227 56.6162C190.094 56.5588 189.953 56.5058 189.801 56.4561V58.8611C189.907 58.8373 190.009 58.8048 190.106 58.7648C190.38 58.6534 190.595 58.4987 190.752 58.2996C190.909 58.0995 190.987 57.8669 190.987 57.5996C190.987 57.3562 190.918 57.1571 190.782 57.0024ZM187.774 53.2169C187.639 53.4008 187.572 53.6085 187.572 53.8411C187.572 54.0359 187.618 54.2047 187.709 54.3464C187.802 54.487 187.922 54.606 188.073 54.7012C188.224 54.7965 188.385 54.8743 188.559 54.9382C188.624 54.9609 188.69 54.9836 188.752 55.0031V52.663C188.604 52.69 188.468 52.73 188.343 52.7831C188.098 52.8891 187.908 53.0341 187.774 53.2169ZM189.182 45.9044C186.946 45.9044 184.884 46.6574 183.231 47.9265C180.877 49.7289 179.354 52.5764 179.354 55.7745C179.354 61.2164 183.763 65.6435 189.182 65.6435C192.41 65.6435 195.277 64.0736 197.07 61.6545C198.288 60.0112 199.01 57.975 199.01 55.7745C199.01 50.3315 194.601 45.9044 189.182 45.9044ZM191.851 58.8514C191.614 59.2127 191.27 59.4962 190.818 59.705C190.52 59.8435 190.182 59.9354 189.801 59.9819V60.6278C189.801 60.7836 189.675 60.9091 189.52 60.9091H189.033C188.878 60.9091 188.752 60.7836 188.752 60.6278V60.0003C188.318 59.9646 187.931 59.8727 187.592 59.7255C187.145 59.5297 186.794 59.2538 186.541 58.8936C186.346 58.6166 186.219 58.2996 186.159 57.9437C186.129 57.7706 186.26 57.6115 186.435 57.6115H187.117C187.246 57.6115 187.363 57.6981 187.392 57.8247C187.438 58.0291 187.523 58.2044 187.65 58.3515C187.819 58.5484 188.036 58.6934 188.301 58.7897C188.444 58.8406 188.594 58.8773 188.752 58.9001V56.1607L188.47 56.0828C187.816 55.9043 187.298 55.6403 186.915 55.293C186.533 54.9447 186.342 54.4849 186.342 53.9136C186.342 53.4398 186.469 53.0265 186.726 52.6738C186.981 52.32 187.327 52.0452 187.764 51.8483C188.067 51.712 188.396 51.6244 188.752 51.5822V50.9201C188.752 50.7653 188.878 50.6398 189.033 50.6398H189.52C189.675 50.6398 189.801 50.7653 189.801 50.9201V51.5908C190.132 51.6352 190.435 51.7206 190.709 51.8472C191.134 52.043 191.469 52.3103 191.715 52.6511C191.898 52.9053 192.014 53.1877 192.067 53.4971C192.096 53.668 191.962 53.8249 191.79 53.8249H191.139C191.013 53.8249 190.902 53.7416 190.869 53.6204C190.794 53.337 190.632 53.1109 190.381 52.9399C190.212 52.8253 190.018 52.7409 189.801 52.6889V55.2865L189.856 55.3006C190.117 55.3655 190.386 55.4521 190.66 55.5624C190.935 55.6706 191.189 55.8167 191.423 55.9952C191.658 56.1737 191.846 56.3955 191.993 56.6616C192.137 56.9256 192.21 57.2426 192.21 57.6115C192.21 58.0767 192.091 58.4911 191.851 58.8514ZM190.227 56.6162C190.094 56.5588 189.953 56.5058 189.801 56.4561V58.8611C189.907 58.8373 190.009 58.8048 190.106 58.7648C190.38 58.6534 190.595 58.4987 190.752 58.2996C190.909 58.0995 190.987 57.8669 190.987 57.5996C190.987 57.3562 190.918 57.1571 190.782 57.0024C190.645 56.8466 190.458 56.719 190.227 56.6162ZM187.774 53.2169C187.639 53.4008 187.572 53.6085 187.572 53.8411C187.572 54.0359 187.618 54.2047 187.709 54.3464C187.802 54.487 187.922 54.606 188.073 54.7012C188.224 54.7965 188.385 54.8743 188.559 54.9382C188.624 54.9609 188.69 54.9836 188.752 55.0031V52.663C188.604 52.69 188.468 52.73 188.343 52.7831C188.098 52.8891 187.908 53.0341 187.774 53.2169ZM188.343 52.7831C188.098 52.8891 187.908 53.0341 187.774 53.2169C187.639 53.4008 187.572 53.6085 187.572 53.8411C187.572 54.0359 187.618 54.2047 187.709 54.3464C187.802 54.487 187.922 54.606 188.073 54.7012C188.224 54.7965 188.385 54.8743 188.559 54.9382C188.624 54.9609 188.69 54.9836 188.752 55.0031V52.663C188.604 52.69 188.468 52.73 188.343 52.7831ZM190.782 57.0024C190.645 56.8466 190.458 56.719 190.227 56.6162C190.094 56.5588 189.953 56.5058 189.801 56.4561V58.8611C189.907 58.8373 190.009 58.8048 190.106 58.7648C190.38 58.6534 190.595 58.4987 190.752 58.2996C190.909 58.0995 190.987 57.8669 190.987 57.5996C190.987 57.3562 190.918 57.1571 190.782 57.0024ZM190.782 57.0024C190.645 56.8466 190.458 56.719 190.227 56.6162C190.094 56.5588 189.953 56.5058 189.801 56.4561V58.8611C189.907 58.8373 190.009 58.8048 190.106 58.7648C190.38 58.6534 190.595 58.4987 190.752 58.2996C190.909 58.0995 190.987 57.8669 190.987 57.5996C190.987 57.3562 190.918 57.1571 190.782 57.0024ZM188.343 52.7831C188.098 52.8891 187.908 53.0341 187.774 53.2169C187.639 53.4008 187.572 53.6085 187.572 53.8411C187.572 54.0359 187.618 54.2047 187.709 54.3464C187.802 54.487 187.922 54.606 188.073 54.7012C188.224 54.7965 188.385 54.8743 188.559 54.9382C188.624 54.9609 188.69 54.9836 188.752 55.0031V52.663C188.604 52.69 188.468 52.73 188.343 52.7831Z" fill="white"/>
<path d="M173.157 86.4353C174.187 85.5766 175.009 84.8628 175.62 84.2939C176.232 83.7142 176.742 83.1131 177.15 82.4905C177.558 81.8679 177.762 81.256 177.762 80.6549C177.762 80.1075 177.633 79.6781 177.376 79.3668C177.118 79.0555 176.721 78.8999 176.184 78.8999C175.647 78.8999 175.234 79.0823 174.944 79.4473C174.654 79.8015 174.504 80.29 174.493 80.9125H172.304C172.347 79.6244 172.728 78.6476 173.447 77.9821C174.177 77.3166 175.1 76.9838 176.216 76.9838C177.44 76.9838 178.379 77.3112 179.034 77.966C179.689 78.61 180.016 79.4634 180.016 80.5261C180.016 81.3634 179.791 82.1631 179.34 82.9252C178.889 83.6874 178.374 84.3529 177.794 84.9218C177.215 85.48 176.458 86.1563 175.524 86.9506H180.274V88.8184H172.32V87.1438L173.157 86.4353ZM183.272 89.0921C182.864 89.0921 182.526 88.9686 182.258 88.7217C182 88.4641 181.871 88.1475 181.871 87.7718C181.871 87.3961 182 87.0848 182.258 86.8379C182.526 86.5803 182.864 86.4514 183.272 86.4514C183.669 86.4514 183.997 86.5803 184.254 86.8379C184.512 87.0848 184.641 87.3961 184.641 87.7718C184.641 88.1475 184.512 88.4641 184.254 88.7217C183.997 88.9686 183.669 89.0921 183.272 89.0921ZM192.607 80.1719C192.5 79.721 192.312 79.3829 192.044 79.1575C191.786 78.9321 191.41 78.8194 190.917 78.8194C190.176 78.8194 189.629 79.1199 189.274 79.721C188.931 80.3114 188.754 81.2775 188.743 82.6193C189.001 82.1899 189.376 81.8572 189.87 81.621C190.364 81.3741 190.901 81.2507 191.48 81.2507C192.178 81.2507 192.795 81.401 193.332 81.7015C193.869 82.0021 194.287 82.4422 194.588 83.0218C194.888 83.5908 195.039 84.2777 195.039 85.0828C195.039 85.845 194.883 86.5266 194.572 87.1277C194.271 87.7181 193.826 88.1797 193.235 88.5124C192.645 88.8452 191.942 89.0116 191.126 89.0116C190.01 89.0116 189.129 88.7647 188.485 88.2709C187.852 87.7771 187.407 87.0901 187.149 86.2099C186.902 85.319 186.779 84.2241 186.779 82.9252C186.779 80.9609 187.117 79.4795 187.793 78.4812C188.469 77.4722 189.537 76.9677 190.997 76.9677C192.124 76.9677 192.999 77.2736 193.622 77.8855C194.244 78.4973 194.604 79.2595 194.7 80.1719H192.607ZM190.965 83.1023C190.396 83.1023 189.918 83.2687 189.532 83.6015C189.145 83.9343 188.952 84.4173 188.952 85.0506C188.952 85.6839 189.129 86.1831 189.484 86.5481C189.849 86.913 190.358 87.0955 191.013 87.0955C191.593 87.0955 192.049 86.9184 192.382 86.5642C192.725 86.2099 192.897 85.7322 192.897 85.1311C192.897 84.5085 192.731 84.0148 192.398 83.6498C192.076 83.2848 191.598 83.1023 190.965 83.1023ZM207.903 88.9794L203.813 83.9718V88.9794H201.559V77.7406H203.813V82.7803L207.903 77.7406H210.624L205.986 83.3117L210.752 88.9794H207.903Z" fill="white"/>
</g>
<g clip-path="url(#clip1_718_12732)">
<path d="M148.629 178.116H215.512C225.772 178.116 234.09 186.434 234.09 196.694V244.847C234.09 255.107 225.772 263.425 215.512 263.425H148.629V178.116Z" fill="url(#paint1_linear_718_12732)" fill-opacity="0.4"/>
<path d="M203.362 204.489C203.362 206.695 202.639 208.734 201.418 210.381C201.032 210.902 200.595 211.385 200.116 211.821C200.393 210.83 200.535 209.795 200.535 208.741C200.535 202.454 195.441 197.339 189.181 197.339C188.223 197.339 187.284 197.457 186.378 197.688C186.74 197.304 187.134 196.949 187.554 196.627C189.21 195.356 191.277 194.601 193.516 194.601C198.945 194.601 203.362 199.037 203.362 204.489Z" fill="white"/>
<path d="M188.343 205.747C188.098 205.853 187.908 205.998 187.774 206.181C187.639 206.364 187.572 206.572 187.572 206.805C187.572 207 187.618 207.168 187.709 207.31C187.802 207.451 187.922 207.57 188.073 207.665C188.224 207.76 188.385 207.838 188.559 207.902C188.624 207.925 188.69 207.947 188.752 207.967V205.627C188.604 205.654 188.468 205.694 188.343 205.747ZM190.782 209.966C190.645 209.81 190.458 209.683 190.227 209.58C190.094 209.522 189.953 209.469 189.801 209.42V211.825C189.907 211.801 190.009 211.768 190.106 211.728C190.38 211.617 190.595 211.462 190.752 211.263C190.909 211.063 190.987 210.83 190.987 210.563C190.987 210.32 190.918 210.121 190.782 209.966ZM190.782 209.966C190.645 209.81 190.458 209.683 190.227 209.58C190.094 209.522 189.953 209.469 189.801 209.42V211.825C189.907 211.801 190.009 211.768 190.106 211.728C190.38 211.617 190.595 211.462 190.752 211.263C190.909 211.063 190.987 210.83 190.987 210.563C190.987 210.32 190.918 210.121 190.782 209.966ZM187.774 206.181C187.639 206.364 187.572 206.572 187.572 206.805C187.572 207 187.618 207.168 187.709 207.31C187.802 207.451 187.922 207.57 188.073 207.665C188.224 207.76 188.385 207.838 188.559 207.902C188.624 207.925 188.69 207.947 188.752 207.967V205.627C188.604 205.654 188.468 205.694 188.343 205.747C188.098 205.853 187.908 205.998 187.774 206.181ZM189.182 198.868C186.946 198.868 184.884 199.621 183.231 200.89C180.877 202.693 179.354 205.54 179.354 208.738C179.354 214.18 183.763 218.607 189.182 218.607C192.41 218.607 195.277 217.037 197.07 214.618C198.288 212.975 199.01 210.939 199.01 208.738C199.01 203.295 194.601 198.868 189.182 198.868ZM191.851 211.815C191.614 212.176 191.27 212.46 190.818 212.669C190.52 212.807 190.182 212.899 189.801 212.946V213.591C189.801 213.747 189.675 213.873 189.52 213.873H189.033C188.878 213.873 188.752 213.747 188.752 213.591V212.964C188.318 212.928 187.931 212.836 187.592 212.689C187.145 212.493 186.794 212.217 186.541 211.857C186.346 211.58 186.219 211.263 186.159 210.907C186.129 210.734 186.26 210.575 186.435 210.575H187.117C187.246 210.575 187.363 210.662 187.392 210.788C187.438 210.993 187.523 211.168 187.65 211.315C187.819 211.512 188.036 211.657 188.301 211.753C188.444 211.804 188.594 211.841 188.752 211.864V209.124L188.47 209.046C187.816 208.868 187.298 208.604 186.915 208.257C186.533 207.908 186.342 207.448 186.342 206.877C186.342 206.403 186.469 205.99 186.726 205.637C186.981 205.284 187.327 205.009 187.764 204.812C188.067 204.676 188.396 204.588 188.752 204.546V203.884C188.752 203.729 188.878 203.603 189.033 203.603H189.52C189.675 203.603 189.801 203.729 189.801 203.884V204.554C190.132 204.599 190.435 204.684 190.709 204.811C191.134 205.007 191.469 205.274 191.715 205.615C191.898 205.869 192.014 206.151 192.067 206.461C192.096 206.632 191.962 206.789 191.79 206.789H191.139C191.013 206.789 190.902 206.705 190.869 206.584C190.794 206.301 190.632 206.074 190.381 205.904C190.212 205.789 190.018 205.704 189.801 205.653V208.25L189.856 208.264C190.117 208.329 190.386 208.416 190.66 208.526C190.935 208.634 191.189 208.78 191.423 208.959C191.658 209.137 191.846 209.359 191.993 209.625C192.137 209.889 192.21 210.206 192.21 210.575C192.21 211.04 192.091 211.455 191.851 211.815ZM190.227 209.58C190.094 209.522 189.953 209.469 189.801 209.42V211.825C189.907 211.801 190.009 211.768 190.106 211.728C190.38 211.617 190.595 211.462 190.752 211.263C190.909 211.063 190.987 210.83 190.987 210.563C190.987 210.32 190.918 210.121 190.782 209.966C190.645 209.81 190.458 209.683 190.227 209.58ZM187.774 206.181C187.639 206.364 187.572 206.572 187.572 206.805C187.572 207 187.618 207.168 187.709 207.31C187.802 207.451 187.922 207.57 188.073 207.665C188.224 207.76 188.385 207.838 188.559 207.902C188.624 207.925 188.69 207.947 188.752 207.967V205.627C188.604 205.654 188.468 205.694 188.343 205.747C188.098 205.853 187.908 205.998 187.774 206.181ZM188.343 205.747C188.098 205.853 187.908 205.998 187.774 206.181C187.639 206.364 187.572 206.572 187.572 206.805C187.572 207 187.618 207.168 187.709 207.31C187.802 207.451 187.922 207.57 188.073 207.665C188.224 207.76 188.385 207.838 188.559 207.902C188.624 207.925 188.69 207.947 188.752 207.967V205.627C188.604 205.654 188.468 205.694 188.343 205.747ZM190.782 209.966C190.645 209.81 190.458 209.683 190.227 209.58C190.094 209.522 189.953 209.469 189.801 209.42V211.825C189.907 211.801 190.009 211.768 190.106 211.728C190.38 211.617 190.595 211.462 190.752 211.263C190.909 211.063 190.987 210.83 190.987 210.563C190.987 210.32 190.918 210.121 190.782 209.966ZM190.782 209.966C190.645 209.81 190.458 209.683 190.227 209.58C190.094 209.522 189.953 209.469 189.801 209.42V211.825C189.907 211.801 190.009 211.768 190.106 211.728C190.38 211.617 190.595 211.462 190.752 211.263C190.909 211.063 190.987 210.83 190.987 210.563C190.987 210.32 190.918 210.121 190.782 209.966ZM188.343 205.747C188.098 205.853 187.908 205.998 187.774 206.181C187.639 206.364 187.572 206.572 187.572 206.805C187.572 207 187.618 207.168 187.709 207.31C187.802 207.451 187.922 207.57 188.073 207.665C188.224 207.76 188.385 207.838 188.559 207.902C188.624 207.925 188.69 207.947 188.752 207.967V205.627C188.604 205.654 188.468 205.694 188.343 205.747Z" fill="white"/>
<path d="M173.885 239.657V237.885L179.15 230.35H181.775V237.692H183.192V239.657H181.775V241.943H179.521V239.657H173.885ZM179.665 232.765L176.365 237.692H179.665V232.765ZM186.205 242.056C185.797 242.056 185.459 241.932 185.19 241.685C184.933 241.428 184.804 241.111 184.804 240.735C184.804 240.36 184.933 240.048 185.19 239.802C185.459 239.544 185.797 239.415 186.205 239.415C186.602 239.415 186.929 239.544 187.187 239.802C187.445 240.048 187.573 240.36 187.573 240.735C187.573 241.111 187.445 241.428 187.187 241.685C186.929 241.932 186.602 242.056 186.205 242.056ZM189.18 232.282V230.205H193.06V241.943H190.742V232.282H189.18ZM206.369 241.943L202.28 236.935V241.943H200.025V230.704H202.28V235.744L206.369 230.704H209.091L204.453 236.275L209.219 241.943H206.369Z" fill="white"/>
</g>
<g clip-path="url(#clip2_718_12732)">
<rect x="290.445" y="178.116" width="85.4615" height="85.3093" rx="18.5786" fill="#FBBE7E"/>
<path d="M332.596 207.614C332.383 207.706 332.218 207.83 332.102 207.988C331.984 208.146 331.926 208.325 331.926 208.526C331.926 208.694 331.965 208.839 332.046 208.961C332.126 209.083 332.231 209.185 332.362 209.266C332.493 209.349 332.634 209.417 332.784 209.471C332.841 209.491 332.898 209.51 332.953 209.528V207.512C332.823 207.534 332.705 207.569 332.596 207.614ZM332.596 207.614C332.383 207.706 332.218 207.83 332.102 207.988C331.984 208.146 331.926 208.325 331.926 208.526C331.926 208.694 331.965 208.839 332.046 208.961C332.126 209.083 332.231 209.185 332.362 209.266C332.493 209.349 332.634 209.417 332.784 209.471C332.841 209.491 332.898 209.51 332.953 209.528V207.512C332.823 207.534 332.705 207.569 332.596 207.614ZM340.817 208.542C340.187 207.009 338.864 204.405 336.096 201.863C335.463 202.121 334.282 202.505 332.783 202.406C331.677 202.333 330.804 202.025 330.246 201.775C328.629 203.305 326.729 205.594 325.523 208.752C324.375 211.757 324.214 214.619 324.959 216.044C325.117 216.346 325.612 217.274 326.65 217.972C328.012 218.887 329.054 218.567 332.747 218.498C337.267 218.414 338.607 218.84 340.183 217.622C340.972 217.012 341.383 216.329 341.522 216.079C342.904 213.607 341.689 210.657 340.817 208.542ZM335.649 212.842C335.441 213.153 335.141 213.399 334.749 213.579C334.49 213.698 334.195 213.777 333.864 213.816V214.373C333.864 214.507 333.756 214.616 333.621 214.616H333.196C333.062 214.616 332.953 214.507 332.953 214.373V213.833C332.575 213.802 332.239 213.724 331.943 213.596C331.554 213.428 331.249 213.189 331.03 212.879C330.861 212.64 330.749 212.368 330.696 212.061C330.671 211.911 330.785 211.774 330.937 211.774H331.53C331.643 211.774 331.745 211.849 331.769 211.958C331.809 212.133 331.884 212.285 331.994 212.413C332.141 212.582 332.33 212.707 332.56 212.789C332.684 212.833 332.815 212.865 332.953 212.884V210.523L332.708 210.457C332.138 210.303 331.687 210.076 331.354 209.776C331.022 209.477 330.856 209.081 330.856 208.587C330.856 208.179 330.967 207.824 331.189 207.519C331.412 207.216 331.713 206.978 332.093 206.809C332.356 206.692 332.642 206.615 332.953 206.579V206.009C332.953 205.875 333.062 205.767 333.196 205.767H333.621C333.756 205.767 333.864 205.875 333.864 206.009V206.586C334.152 206.624 334.415 206.698 334.655 206.807C335.025 206.976 335.316 207.206 335.529 207.5C335.687 207.719 335.79 207.962 335.836 208.229C335.861 208.376 335.745 208.512 335.594 208.512H335.027C334.919 208.512 334.822 208.44 334.794 208.335C334.729 208.092 334.586 207.896 334.369 207.749C334.221 207.65 334.053 207.578 333.864 207.534V209.771L333.913 209.784C334.14 209.839 334.373 209.914 334.612 210.008C334.85 210.103 335.072 210.227 335.275 210.381C335.479 210.535 335.644 210.727 335.77 210.955C335.897 211.184 335.96 211.456 335.96 211.774C335.96 212.175 335.855 212.531 335.649 212.842ZM334.234 210.917C334.119 210.868 333.996 210.821 333.864 210.778V212.852C333.957 212.83 334.046 212.802 334.13 212.768C334.368 212.672 334.554 212.539 334.691 212.367C334.828 212.196 334.897 211.994 334.897 211.764C334.897 211.554 334.837 211.383 334.718 211.249C334.599 211.115 334.437 211.005 334.234 210.917ZM332.102 207.988C331.984 208.146 331.926 208.325 331.926 208.526C331.926 208.694 331.965 208.839 332.046 208.961C332.126 209.083 332.231 209.185 332.362 209.266C332.493 209.349 332.634 209.417 332.784 209.471C332.841 209.491 332.898 209.51 332.953 209.528V207.512C332.823 207.534 332.705 207.569 332.596 207.614C332.383 207.706 332.218 207.83 332.102 207.988ZM332.596 207.614C332.383 207.706 332.218 207.83 332.102 207.988C331.984 208.146 331.926 208.325 331.926 208.526C331.926 208.694 331.965 208.839 332.046 208.961C332.126 209.083 332.231 209.185 332.362 209.266C332.493 209.349 332.634 209.417 332.784 209.471C332.841 209.491 332.898 209.51 332.953 209.528V207.512C332.823 207.534 332.705 207.569 332.596 207.614ZM332.596 207.614C332.383 207.706 332.218 207.83 332.102 207.988C331.984 208.146 331.926 208.325 331.926 208.526C331.926 208.694 331.965 208.839 332.046 208.961C332.126 209.083 332.231 209.185 332.362 209.266C332.493 209.349 332.634 209.417 332.784 209.471C332.841 209.491 332.898 209.51 332.953 209.528V207.512C332.823 207.534 332.705 207.569 332.596 207.614Z" fill="#000223"/>
<path d="M327.774 195.301C327.119 196.268 328.139 198.357 330.223 200.508C330.783 200.758 331.656 201.066 332.761 201.139C334.261 201.238 335.441 200.854 336.073 200.596C338.537 197.381 338.726 196.166 338.346 195.687C337.972 195.216 337.228 195.68 335.244 195.512C332.936 195.316 332.508 194.564 330.417 194.6C329.374 194.619 328.222 194.641 327.773 195.301H327.774Z" fill="#000223"/>
<path d="M317.895 232.282V230.205H321.775V241.943H319.456V232.282H317.895ZM324.324 235.921C324.324 234.064 324.657 232.61 325.322 231.558C325.998 230.506 327.115 229.98 328.671 229.98C330.228 229.98 331.339 230.506 332.004 231.558C332.681 232.61 333.019 234.064 333.019 235.921C333.019 237.789 332.681 239.254 332.004 240.317C331.339 241.379 330.228 241.911 328.671 241.911C327.115 241.911 325.998 241.379 325.322 240.317C324.657 239.254 324.324 237.789 324.324 235.921ZM330.797 235.921C330.797 235.127 330.743 234.461 330.636 233.924C330.539 233.377 330.335 232.932 330.024 232.588C329.723 232.245 329.272 232.073 328.671 232.073C328.07 232.073 327.614 232.245 327.303 232.588C327.002 232.932 326.798 233.377 326.691 233.924C326.594 234.461 326.546 235.127 326.546 235.921C326.546 236.737 326.594 237.424 326.691 237.982C326.787 238.529 326.991 238.975 327.303 239.318C327.614 239.651 328.07 239.818 328.671 239.818C329.272 239.818 329.729 239.651 330.04 239.318C330.351 238.975 330.555 238.529 330.652 237.982C330.748 237.424 330.797 236.737 330.797 235.921ZM345.816 241.943L341.726 236.935V241.943H339.472V230.704H341.726V235.744L345.816 230.704H348.537L343.899 236.275L348.666 241.943H345.816Z" fill="#000223"/>
</g>
<g clip-path="url(#clip3_718_12732)">
<path d="M148.01 331.699H214.893C225.153 331.699 233.471 340.017 233.471 350.277V398.429C233.471 408.69 225.153 417.008 214.893 417.008H148.01V331.699Z" fill="url(#paint2_linear_718_12732)" fill-opacity="0.4"/>
<path d="M202.745 358.072C202.745 360.278 202.022 362.317 200.801 363.964C200.415 364.485 199.978 364.968 199.499 365.404C199.776 364.413 199.918 363.378 199.918 362.324C199.918 356.037 194.824 350.922 188.564 350.922C187.606 350.922 186.667 351.039 185.761 351.271C186.123 350.887 186.517 350.532 186.937 350.21C188.593 348.938 190.659 348.184 192.899 348.184C198.328 348.184 202.745 352.62 202.745 358.072Z" fill="white"/>
<path d="M187.725 359.33C187.481 359.436 187.291 359.581 187.157 359.763C187.022 359.947 186.955 360.155 186.955 360.388C186.955 360.582 187 360.751 187.092 360.893C187.185 361.034 187.305 361.153 187.456 361.248C187.607 361.343 187.767 361.421 187.942 361.485C188.007 361.507 188.072 361.53 188.135 361.55V359.209C187.987 359.237 187.85 359.277 187.725 359.33ZM190.164 363.549C190.028 363.393 189.841 363.265 189.61 363.163C189.477 363.105 189.336 363.052 189.184 363.003V365.408C189.29 365.384 189.392 365.351 189.489 365.311C189.763 365.2 189.978 365.045 190.134 364.846C190.292 364.646 190.37 364.413 190.37 364.146C190.37 363.903 190.301 363.704 190.164 363.549ZM190.164 363.549C190.028 363.393 189.841 363.265 189.61 363.163C189.477 363.105 189.336 363.052 189.184 363.003V365.408C189.29 365.384 189.392 365.351 189.489 365.311C189.763 365.2 189.978 365.045 190.134 364.846C190.292 364.646 190.37 364.413 190.37 364.146C190.37 363.903 190.301 363.704 190.164 363.549ZM187.157 359.763C187.022 359.947 186.955 360.155 186.955 360.388C186.955 360.582 187 360.751 187.092 360.893C187.185 361.034 187.305 361.153 187.456 361.248C187.607 361.343 187.767 361.421 187.942 361.485C188.007 361.507 188.072 361.53 188.135 361.55V359.209C187.987 359.237 187.85 359.277 187.725 359.33C187.481 359.436 187.291 359.581 187.157 359.763ZM188.565 352.451C186.329 352.451 184.267 353.204 182.614 354.473C180.26 356.275 178.737 359.123 178.737 362.321C178.737 367.763 183.146 372.19 188.565 372.19C191.792 372.19 194.66 370.62 196.453 368.201C197.671 366.558 198.393 364.522 198.393 362.321C198.393 356.878 193.984 352.451 188.565 352.451ZM191.234 365.398C190.997 365.759 190.653 366.043 190.201 366.251C189.903 366.39 189.564 366.482 189.184 366.528V367.174C189.184 367.33 189.058 367.456 188.903 367.456H188.416C188.261 367.456 188.135 367.33 188.135 367.174V366.547C187.701 366.511 187.314 366.419 186.975 366.272C186.527 366.076 186.177 365.8 185.924 365.44C185.729 365.163 185.602 364.846 185.542 364.49C185.512 364.317 185.643 364.158 185.817 364.158H186.499C186.629 364.158 186.746 364.245 186.775 364.371C186.82 364.576 186.906 364.751 187.033 364.898C187.202 365.095 187.418 365.24 187.683 365.336C187.827 365.387 187.976 365.424 188.135 365.447V362.707L187.853 362.629C187.199 362.451 186.68 362.187 186.298 361.84C185.916 361.491 185.725 361.031 185.725 360.46C185.725 359.986 185.852 359.573 186.108 359.22C186.364 358.867 186.71 358.592 187.147 358.395C187.45 358.259 187.779 358.171 188.135 358.129V357.467C188.135 357.312 188.261 357.186 188.416 357.186H188.903C189.058 357.186 189.184 357.312 189.184 357.467V358.137C189.515 358.182 189.818 358.267 190.092 358.394C190.517 358.59 190.852 358.857 191.097 359.198C191.281 359.452 191.397 359.734 191.45 360.044C191.479 360.215 191.345 360.371 191.173 360.371H190.522C190.396 360.371 190.285 360.288 190.252 360.167C190.176 359.883 190.015 359.657 189.764 359.486C189.595 359.372 189.401 359.287 189.184 359.235V361.833L189.239 361.847C189.5 361.912 189.769 361.999 190.043 362.109C190.317 362.217 190.572 362.363 190.805 362.542C191.04 362.72 191.229 362.942 191.375 363.208C191.52 363.472 191.593 363.789 191.593 364.158C191.593 364.623 191.473 365.038 191.234 365.398ZM189.61 363.163C189.477 363.105 189.336 363.052 189.184 363.003V365.408C189.29 365.384 189.392 365.351 189.489 365.311C189.763 365.2 189.978 365.045 190.134 364.846C190.292 364.646 190.37 364.413 190.37 364.146C190.37 363.903 190.301 363.704 190.164 363.549C190.028 363.393 189.841 363.265 189.61 363.163ZM187.157 359.763C187.022 359.947 186.955 360.155 186.955 360.388C186.955 360.582 187 360.751 187.092 360.893C187.185 361.034 187.305 361.153 187.456 361.248C187.607 361.343 187.767 361.421 187.942 361.485C188.007 361.507 188.072 361.53 188.135 361.55V359.209C187.987 359.237 187.85 359.277 187.725 359.33C187.481 359.436 187.291 359.581 187.157 359.763ZM187.725 359.33C187.481 359.436 187.291 359.581 187.157 359.763C187.022 359.947 186.955 360.155 186.955 360.388C186.955 360.582 187 360.751 187.092 360.893C187.185 361.034 187.305 361.153 187.456 361.248C187.607 361.343 187.767 361.421 187.942 361.485C188.007 361.507 188.072 361.53 188.135 361.55V359.209C187.987 359.237 187.85 359.277 187.725 359.33ZM190.164 363.549C190.028 363.393 189.841 363.265 189.61 363.163C189.477 363.105 189.336 363.052 189.184 363.003V365.408C189.29 365.384 189.392 365.351 189.489 365.311C189.763 365.2 189.978 365.045 190.134 364.846C190.292 364.646 190.37 364.413 190.37 364.146C190.37 363.903 190.301 363.704 190.164 363.549ZM190.164 363.549C190.028 363.393 189.841 363.265 189.61 363.163C189.477 363.105 189.336 363.052 189.184 363.003V365.408C189.29 365.384 189.392 365.351 189.489 365.311C189.763 365.2 189.978 365.045 190.134 364.846C190.292 364.646 190.37 364.413 190.37 364.146C190.37 363.903 190.301 363.704 190.164 363.549ZM187.725 359.33C187.481 359.436 187.291 359.581 187.157 359.763C187.022 359.947 186.955 360.155 186.955 360.388C186.955 360.582 187 360.751 187.092 360.893C187.185 361.034 187.305 361.153 187.456 361.248C187.607 361.343 187.767 361.421 187.942 361.485C188.007 361.507 188.072 361.53 188.135 361.55V359.209C187.987 359.237 187.85 359.277 187.725 359.33Z" fill="white"/>
<path d="M171.995 386.879C172.049 385.806 172.425 384.979 173.122 384.4C173.831 383.809 174.759 383.514 175.908 383.514C176.691 383.514 177.362 383.654 177.921 383.933C178.479 384.201 178.897 384.572 179.176 385.044C179.466 385.505 179.611 386.031 179.611 386.622C179.611 387.298 179.434 387.872 179.08 388.345C178.736 388.806 178.323 389.118 177.84 389.279V389.343C178.463 389.536 178.946 389.88 179.289 390.373C179.643 390.867 179.821 391.501 179.821 392.273C179.821 392.918 179.67 393.492 179.37 393.996C179.08 394.501 178.645 394.898 178.065 395.188C177.497 395.467 176.81 395.606 176.004 395.606C174.792 395.606 173.804 395.301 173.042 394.689C172.28 394.077 171.877 393.175 171.834 391.984H174.024C174.045 392.51 174.223 392.934 174.555 393.256C174.899 393.567 175.366 393.723 175.956 393.723C176.504 393.723 176.922 393.572 177.212 393.272C177.513 392.96 177.663 392.563 177.663 392.08C177.663 391.436 177.459 390.975 177.051 390.696C176.643 390.416 176.01 390.277 175.151 390.277H174.684V388.425H175.151C176.675 388.425 177.438 387.915 177.438 386.896C177.438 386.434 177.298 386.074 177.019 385.817C176.751 385.559 176.359 385.43 175.843 385.43C175.339 385.43 174.947 385.57 174.668 385.849C174.4 386.117 174.244 386.461 174.201 386.879H171.995ZM183.18 395.639C182.772 395.639 182.434 395.515 182.165 395.268C181.908 395.011 181.779 394.694 181.779 394.318C181.779 393.943 181.908 393.631 182.165 393.384C182.434 393.127 182.772 392.998 183.18 392.998C183.577 392.998 183.904 393.127 184.162 393.384C184.42 393.631 184.548 393.943 184.548 394.318C184.548 394.694 184.42 395.011 184.162 395.268C183.904 395.515 183.577 395.639 183.18 395.639ZM186.461 386.879C186.514 385.806 186.89 384.979 187.588 384.4C188.296 383.809 189.225 383.514 190.373 383.514C191.157 383.514 191.828 383.654 192.386 383.933C192.944 384.201 193.363 384.572 193.642 385.044C193.932 385.505 194.077 386.031 194.077 386.622C194.077 387.298 193.9 387.872 193.545 388.345C193.202 388.806 192.789 389.118 192.306 389.279V389.343C192.928 389.536 193.411 389.88 193.755 390.373C194.109 390.867 194.286 391.501 194.286 392.273C194.286 392.918 194.136 393.492 193.835 393.996C193.545 394.501 193.111 394.898 192.531 395.188C191.962 395.467 191.275 395.606 190.47 395.606C189.257 395.606 188.269 395.301 187.507 394.689C186.745 394.077 186.343 393.175 186.3 391.984H188.49C188.511 392.51 188.688 392.934 189.021 393.256C189.364 393.567 189.831 393.723 190.422 393.723C190.969 393.723 191.388 393.572 191.678 393.272C191.978 392.96 192.128 392.563 192.128 392.08C192.128 391.436 191.924 390.975 191.517 390.696C191.109 390.416 190.475 390.277 189.617 390.277H189.15V388.425H189.617C191.141 388.425 191.903 387.915 191.903 386.896C191.903 386.434 191.763 386.074 191.484 385.817C191.216 385.559 190.824 385.43 190.309 385.43C189.804 385.43 189.413 385.57 189.134 385.849C188.865 386.117 188.71 386.461 188.667 386.879H186.461ZM207.15 395.526L203.06 390.518V395.526H200.806V384.287H203.06V389.327L207.15 384.287H209.871L205.234 389.858L210 395.526H207.15Z" fill="white"/>
</g>
<g clip-path="url(#clip4_718_12732)">
<rect x="14.8633" y="307.547" width="133.453" height="133.453" rx="18.5786" fill="#000223"/>
<rect opacity="0.3" x="50.8271" y="386.688" width="62.0713" height="6.20713" rx="2.06904" fill="white"/>
<rect opacity="0.3" x="38.9307" y="398.067" width="85.8653" height="6.20713" rx="2.06904" fill="white"/>
<path d="M55.9929 372.358C55.9929 372.792 55.8882 373.199 55.6789 373.579C55.4773 373.959 55.1555 374.265 54.7136 374.497C54.2794 374.73 53.7289 374.846 53.0621 374.846H51.7013V377.963H50.0731V369.845H53.0621C53.6901 369.845 54.2251 369.954 54.6671 370.171C55.109 370.388 55.4385 370.687 55.6556 371.067C55.8805 371.446 55.9929 371.877 55.9929 372.358ZM52.9923 373.532C53.442 373.532 53.7754 373.431 53.9925 373.23C54.2096 373.02 54.3182 372.73 54.3182 372.358C54.3182 371.567 53.8762 371.171 52.9923 371.171H51.7013V373.532H52.9923ZM59.0098 372.52C59.2191 372.179 59.4905 371.912 59.8239 371.718C60.1651 371.524 60.5528 371.427 60.987 371.427V373.137H60.5566C60.0449 373.137 59.6572 373.257 59.3936 373.497C59.1377 373.738 59.0098 374.156 59.0098 374.753V377.963H57.3816V371.52H59.0098V372.52ZM65.1773 378.068C64.557 378.068 63.9988 377.932 63.5025 377.661C63.0063 377.382 62.6148 376.99 62.3279 376.486C62.0488 375.982 61.9092 375.401 61.9092 374.742C61.9092 374.083 62.0526 373.501 62.3395 372.997C62.6342 372.493 63.0335 372.106 63.5374 371.834C64.0414 371.555 64.6035 371.415 65.2238 371.415C65.8441 371.415 66.4062 371.555 66.9102 371.834C67.4142 372.106 67.8096 372.493 68.0965 372.997C68.3911 373.501 68.5385 374.083 68.5385 374.742C68.5385 375.401 68.3873 375.982 68.0849 376.486C67.7903 376.99 67.3871 377.382 66.8753 377.661C66.3714 377.932 65.8053 378.068 65.1773 378.068ZM65.1773 376.649C65.4719 376.649 65.7472 376.579 66.0031 376.44C66.2667 376.292 66.476 376.075 66.6311 375.788C66.7862 375.502 66.8637 375.153 66.8637 374.742C66.8637 374.129 66.7009 373.66 66.3752 373.334C66.0573 373.001 65.6658 372.834 65.2006 372.834C64.7354 372.834 64.3438 373.001 64.0259 373.334C63.7158 373.66 63.5607 374.129 63.5607 374.742C63.5607 375.354 63.7119 375.827 64.0143 376.161C64.3244 376.486 64.7121 376.649 65.1773 376.649ZM74.92 373.125V374.497H69.9887V373.125H74.92ZM82.8984 372.358C82.8984 372.792 82.7938 373.199 82.5844 373.579C82.3828 373.959 82.061 374.265 81.6191 374.497C81.1849 374.73 80.6344 374.846 79.9676 374.846H78.6068V377.963H76.9786V369.845H79.9676C80.5956 369.845 81.1306 369.954 81.5726 370.171C82.0145 370.388 82.3441 370.687 82.5611 371.067C82.786 371.446 82.8984 371.877 82.8984 372.358ZM79.8978 373.532C80.3475 373.532 80.6809 373.431 80.898 373.23C81.1151 373.02 81.2237 372.73 81.2237 372.358C81.2237 371.567 80.7817 371.171 79.8978 371.171H78.6068V373.532H79.8978ZM85.9153 369.357V377.963H84.2871V369.357H85.9153ZM87.3379 374.718C87.3379 374.067 87.4659 373.49 87.7217 372.986C87.9854 372.482 88.3381 372.094 88.7801 371.823C89.2298 371.551 89.7299 371.415 90.2804 371.415C90.7611 371.415 91.1798 371.512 91.5365 371.706C91.9009 371.9 92.1916 372.144 92.4087 372.439V371.52H94.0486V377.963H92.4087V377.021C92.1994 377.324 91.9086 377.576 91.5365 377.777C91.1721 377.971 90.7495 378.068 90.2688 378.068C89.726 378.068 89.2298 377.928 88.7801 377.649C88.3381 377.37 87.9854 376.979 87.7217 376.475C87.4659 375.963 87.3379 375.378 87.3379 374.718ZM92.4087 374.742C92.4087 374.346 92.3312 374.009 92.1761 373.73C92.0211 373.443 91.8117 373.226 91.5481 373.079C91.2845 372.924 91.0015 372.846 90.6991 372.846C90.3967 372.846 90.1176 372.92 89.8617 373.067C89.6058 373.214 89.3965 373.431 89.2337 373.718C89.0786 373.997 89.0011 374.331 89.0011 374.718C89.0011 375.106 89.0786 375.447 89.2337 375.742C89.3965 376.029 89.6058 376.25 89.8617 376.405C90.1253 376.56 90.4045 376.637 90.6991 376.637C91.0015 376.637 91.2845 376.564 91.5481 376.416C91.8117 376.261 92.0211 376.044 92.1761 375.765C92.3312 375.478 92.4087 375.137 92.4087 374.742ZM102.036 371.52L98.0463 381.01H96.3134L97.7091 377.8L95.1271 371.52H96.9531L98.6162 376.021L100.303 371.52H102.036ZM109.135 374.602C109.135 374.835 109.12 375.044 109.089 375.23H104.379C104.417 375.695 104.58 376.06 104.867 376.323C105.154 376.587 105.507 376.719 105.926 376.719C106.53 376.719 106.961 376.459 107.216 375.94H108.973C108.787 376.56 108.43 377.072 107.903 377.475C107.375 377.87 106.728 378.068 105.96 378.068C105.34 378.068 104.782 377.932 104.286 377.661C103.797 377.382 103.413 376.99 103.134 376.486C102.863 375.982 102.727 375.401 102.727 374.742C102.727 374.075 102.863 373.49 103.134 372.986C103.406 372.482 103.786 372.094 104.274 371.823C104.762 371.551 105.325 371.415 105.96 371.415C106.573 371.415 107.12 371.547 107.6 371.811C108.089 372.075 108.465 372.451 108.728 372.939C109 373.42 109.135 373.974 109.135 374.602ZM107.449 374.137C107.441 373.718 107.29 373.385 106.995 373.137C106.701 372.881 106.34 372.753 105.914 372.753C105.511 372.753 105.17 372.877 104.89 373.125C104.619 373.365 104.452 373.703 104.39 374.137H107.449ZM112.185 372.52C112.394 372.179 112.666 371.912 112.999 371.718C113.34 371.524 113.728 371.427 114.162 371.427V373.137H113.732C113.22 373.137 112.832 373.257 112.569 373.497C112.313 373.738 112.185 374.156 112.185 374.753V377.963H110.557V371.52H112.185V372.52Z" fill="white"/>
<rect opacity="0.2" x="49.0029" y="412.962" width="65.2567" height="16.3142" rx="4.13809" fill="white"/>
<path d="M59.0023 417.418L59.9374 419.354C59.9907 419.467 60.0973 419.541 60.2184 419.561L62.3115 419.872C62.6167 419.917 62.7378 420.302 62.5198 420.519L61.0033 422.025C60.9161 422.114 60.8773 422.238 60.8967 422.361L61.2553 424.49C61.3086 424.801 60.9888 425.038 60.7126 424.89L58.8375 423.887C58.731 423.828 58.6001 423.828 58.4887 423.887L56.6137 424.89C56.3423 425.038 56.0226 424.801 56.071 424.49L56.4296 422.361C56.4489 422.238 56.4102 422.114 56.3229 422.025L54.8064 420.519C54.5836 420.297 54.7096 419.917 55.0148 419.872L57.1078 419.561C57.229 419.541 57.3356 419.467 57.3889 419.354L58.324 417.418C58.4596 417.136 58.8569 417.136 58.9926 417.418H59.0023Z" fill="white"/>
<path d="M70.5599 417.418L71.495 419.354C71.5483 419.467 71.6549 419.541 71.776 419.561L73.8691 419.872C74.1743 419.917 74.2954 420.302 74.0774 420.519L72.5609 422.025C72.4737 422.114 72.4349 422.238 72.4543 422.361L72.8129 424.489C72.8661 424.801 72.5464 425.038 72.2702 424.889L70.3952 423.887C70.2886 423.828 70.1578 423.828 70.0463 423.887L68.1713 424.889C67.9 425.038 67.5802 424.801 67.6286 424.489L67.9872 422.361C68.0066 422.238 67.9678 422.114 67.8806 422.025L66.3641 420.519C66.1412 420.297 66.2672 419.917 66.5724 419.872L68.6655 419.561C68.7866 419.541 68.8932 419.467 68.9465 419.354L69.8816 417.418C70.0173 417.136 70.4146 417.136 70.5502 417.418H70.5599Z" fill="white"/>
<path d="M82.1185 417.418L83.0536 419.354C83.1069 419.467 83.2135 419.541 83.3346 419.561L85.4277 419.872C85.7329 419.917 85.854 420.302 85.636 420.519L84.1195 422.025C84.0323 422.114 83.9935 422.238 84.0129 422.361L84.3714 424.489C84.4247 424.801 84.105 425.038 83.8288 424.889L81.9538 423.887C81.8472 423.828 81.7163 423.828 81.6049 423.887L79.7299 424.889C79.4585 425.038 79.1388 424.801 79.1872 424.489L79.5457 422.361C79.5651 422.238 79.5264 422.114 79.4392 422.025L77.9227 420.519C77.6998 420.297 77.8258 419.917 78.131 419.872L80.2241 419.561C80.3452 419.541 80.4518 419.467 80.5051 419.354L81.4402 417.418C81.5758 417.136 81.9731 417.136 82.1088 417.418H82.1185Z" fill="white"/>
<path d="M93.6761 417.418L94.6112 419.354C94.6645 419.467 94.7711 419.541 94.8922 419.561L96.9853 419.872C97.2905 419.917 97.4116 420.302 97.1936 420.519L95.6771 422.025C95.5899 422.114 95.5512 422.238 95.5705 422.361L95.9291 424.489C95.9824 424.801 95.6626 425.038 95.3864 424.889L93.5114 423.887C93.4048 423.828 93.274 423.828 93.1625 423.887L91.2875 424.889C91.0162 425.038 90.6964 424.801 90.7448 424.489L91.1034 422.361C91.1227 422.238 91.084 422.114 90.9968 422.025L89.4803 420.519C89.2574 420.297 89.3834 419.917 89.6886 419.872L91.7817 419.561C91.9028 419.541 92.0094 419.467 92.0627 419.354L92.9978 417.418C93.1334 417.136 93.5307 417.136 93.6664 417.418H93.6761Z" fill="white"/>
<path d="M105.235 417.418L106.17 419.354C106.223 419.467 106.33 419.541 106.451 419.561L108.544 419.872C108.849 419.917 108.97 420.302 108.752 420.519L107.236 422.025C107.149 422.114 107.11 422.238 107.129 422.361L107.488 424.489C107.541 424.801 107.221 425.038 106.945 424.889L105.07 423.887C104.963 423.828 104.833 423.828 104.721 423.887L102.846 424.889C102.575 425.038 102.255 424.801 102.303 424.489L102.662 422.361C102.681 422.238 102.643 422.114 102.555 422.025L101.039 420.519C100.816 420.297 100.942 419.917 101.247 419.872L103.34 419.561C103.461 419.541 103.568 419.467 103.621 419.354L104.556 417.418C104.692 417.136 105.089 417.136 105.225 417.418H105.235Z" fill="white"/>
<rect x="63.5205" y="321.98" width="36.3932" height="36.3932" rx="18.1966" fill="url(#paint3_linear_718_12732)"/>
<path d="M75.2664 337.855C73.4908 336.516 72.5725 334.375 72.4231 332.581C72.401 332.297 72.1521 332.131 71.9032 332.131C71.7206 332.131 71.5381 332.219 71.4385 332.405C69.6296 335.813 70.3487 340.497 72.3955 342.368C72.8767 341.014 73.6622 339.664 74.6856 338.486C74.8737 338.268 75.0673 338.062 75.2664 337.86V337.855ZM92.293 332.405C92.1935 332.219 92.0109 332.131 91.8284 332.131C91.5739 332.131 91.3305 332.292 91.3029 332.581C91.1535 334.375 90.2352 336.521 88.4596 337.86C88.6587 338.062 88.8523 338.268 89.0404 338.486C90.0638 339.664 90.8493 341.014 91.3305 342.368C93.3773 340.497 94.0964 335.818 92.293 332.405ZM84.864 336.857V344.043H90.3846C89.8536 341.288 87.7128 338.212 84.864 336.857ZM78.8676 344.043V336.857C76.0188 338.206 73.8835 341.283 73.3469 344.043H78.8676ZM90.5893 345.32H73.1423C72.827 345.32 72.5725 345.558 72.5725 345.853V348.195C72.5725 348.49 72.827 348.728 73.1423 348.728H90.5837C90.899 348.728 91.1535 348.49 91.1535 348.195V345.853C91.1535 345.558 90.899 345.32 90.5837 345.32H90.5893ZM83.4976 336.361C82.9721 336.226 82.4245 336.154 81.8658 336.154C81.3071 336.154 80.765 336.226 80.2339 336.361V344.038H83.4921V336.361H83.4976Z" fill="#000223"/>
<circle opacity="0.3" cx="81.7167" cy="340.175" r="21.3339" stroke="white" stroke-width="1.8824"/>
</g>
<rect x="14.8633" y="307.547" width="133.453" height="133.453" rx="18.5786" stroke="#FBBE7E" stroke-width="1.23857"/>
<rect y="210.319" width="50.7815" height="50.7815" rx="25.3907" fill="#FBBE7E"/>
<g filter="url(#filter0_b_718_12732)">
<g clip-path="url(#clip5_718_12732)">
<rect x="14.8633" y="153.964" width="133.453" height="133.453" rx="18.5786" fill="#000223"/>
<rect opacity="0.3" x="50.8271" y="233.104" width="62.0713" height="6.20713" rx="2.06904" fill="white"/>
<rect opacity="0.3" x="38.9307" y="244.484" width="85.8653" height="6.20713" rx="2.06904" fill="white"/>
<path d="M55.9929 218.774C55.9929 219.209 55.8882 219.616 55.6789 219.996C55.4773 220.376 55.1555 220.682 54.7136 220.914C54.2794 221.147 53.7289 221.263 53.0621 221.263H51.7013V224.38H50.0731V216.262H53.0621C53.6901 216.262 54.2251 216.371 54.6671 216.588C55.109 216.805 55.4385 217.104 55.6556 217.483C55.8805 217.863 55.9929 218.294 55.9929 218.774ZM52.9923 219.949C53.442 219.949 53.7754 219.848 53.9925 219.647C54.2096 219.437 54.3182 219.147 54.3182 218.774C54.3182 217.984 53.8762 217.588 52.9923 217.588H51.7013V219.949H52.9923ZM59.0098 218.937C59.2191 218.596 59.4905 218.329 59.8239 218.135C60.1651 217.941 60.5528 217.844 60.987 217.844V219.554H60.5566C60.0449 219.554 59.6572 219.674 59.3936 219.914C59.1377 220.155 59.0098 220.573 59.0098 221.17V224.38H57.3816V217.937H59.0098V218.937ZM65.1773 224.485C64.557 224.485 63.9988 224.349 63.5025 224.078C63.0063 223.799 62.6148 223.407 62.3279 222.903C62.0488 222.399 61.9092 221.818 61.9092 221.159C61.9092 220.5 62.0526 219.918 62.3395 219.414C62.6342 218.91 63.0335 218.522 63.5374 218.251C64.0414 217.972 64.6035 217.832 65.2238 217.832C65.8441 217.832 66.4062 217.972 66.9102 218.251C67.4142 218.522 67.8096 218.91 68.0965 219.414C68.3911 219.918 68.5385 220.5 68.5385 221.159C68.5385 221.818 68.3873 222.399 68.0849 222.903C67.7903 223.407 67.3871 223.799 66.8753 224.078C66.3714 224.349 65.8053 224.485 65.1773 224.485ZM65.1773 223.066C65.4719 223.066 65.7472 222.996 66.0031 222.857C66.2667 222.709 66.476 222.492 66.6311 222.205C66.7862 221.919 66.8637 221.57 66.8637 221.159C66.8637 220.546 66.7009 220.077 66.3752 219.751C66.0573 219.418 65.6658 219.251 65.2006 219.251C64.7354 219.251 64.3438 219.418 64.0259 219.751C63.7158 220.077 63.5607 220.546 63.5607 221.159C63.5607 221.771 63.7119 222.244 64.0143 222.578C64.3244 222.903 64.7121 223.066 65.1773 223.066ZM74.92 219.542V220.914H69.9887V219.542H74.92ZM82.8984 218.774C82.8984 219.209 82.7938 219.616 82.5844 219.996C82.3828 220.376 82.061 220.682 81.6191 220.914C81.1849 221.147 80.6344 221.263 79.9676 221.263H78.6068V224.38H76.9786V216.262H79.9676C80.5956 216.262 81.1306 216.371 81.5726 216.588C82.0145 216.805 82.3441 217.104 82.5611 217.483C82.786 217.863 82.8984 218.294 82.8984 218.774ZM79.8978 219.949C80.3475 219.949 80.6809 219.848 80.898 219.647C81.1151 219.437 81.2237 219.147 81.2237 218.774C81.2237 217.984 80.7817 217.588 79.8978 217.588H78.6068V219.949H79.8978ZM85.9153 215.774V224.38H84.2871V215.774H85.9153ZM87.3379 221.135C87.3379 220.484 87.4659 219.906 87.7217 219.402C87.9854 218.899 88.3381 218.511 88.7801 218.239C89.2298 217.968 89.7299 217.832 90.2804 217.832C90.7611 217.832 91.1798 217.929 91.5365 218.123C91.9009 218.317 92.1916 218.561 92.4087 218.856V217.937H94.0486V224.38H92.4087V223.438C92.1994 223.741 91.9086 223.993 91.5365 224.194C91.1721 224.388 90.7495 224.485 90.2688 224.485C89.726 224.485 89.2298 224.345 88.7801 224.066C88.3381 223.787 87.9854 223.396 87.7217 222.892C87.4659 222.38 87.3379 221.794 87.3379 221.135ZM92.4087 221.159C92.4087 220.763 92.3312 220.426 92.1761 220.147C92.0211 219.86 91.8117 219.643 91.5481 219.496C91.2845 219.34 91.0015 219.263 90.6991 219.263C90.3967 219.263 90.1176 219.337 89.8617 219.484C89.6058 219.631 89.3965 219.848 89.2337 220.135C89.0786 220.414 89.0011 220.748 89.0011 221.135C89.0011 221.523 89.0786 221.864 89.2337 222.159C89.3965 222.446 89.6058 222.667 89.8617 222.822C90.1253 222.977 90.4045 223.054 90.6991 223.054C91.0015 223.054 91.2845 222.981 91.5481 222.833C91.8117 222.678 92.0211 222.461 92.1761 222.182C92.3312 221.895 92.4087 221.554 92.4087 221.159ZM102.036 217.937L98.0463 227.427H96.3134L97.7091 224.217L95.1271 217.937H96.9531L98.6162 222.438L100.303 217.937H102.036ZM109.135 221.019C109.135 221.252 109.12 221.461 109.089 221.647H104.379C104.417 222.112 104.58 222.477 104.867 222.74C105.154 223.004 105.507 223.136 105.926 223.136C106.53 223.136 106.961 222.876 107.216 222.357H108.973C108.787 222.977 108.43 223.489 107.903 223.892C107.375 224.287 106.728 224.485 105.96 224.485C105.34 224.485 104.782 224.349 104.286 224.078C103.797 223.799 103.413 223.407 103.134 222.903C102.863 222.399 102.727 221.818 102.727 221.159C102.727 220.492 102.863 219.906 103.134 219.402C103.406 218.899 103.786 218.511 104.274 218.239C104.762 217.968 105.325 217.832 105.96 217.832C106.573 217.832 107.12 217.964 107.6 218.228C108.089 218.491 108.465 218.867 108.728 219.356C109 219.837 109.135 220.391 109.135 221.019ZM107.449 220.554C107.441 220.135 107.29 219.802 106.995 219.554C106.701 219.298 106.34 219.17 105.914 219.17C105.511 219.17 105.17 219.294 104.89 219.542C104.619 219.782 104.452 220.12 104.39 220.554H107.449ZM112.185 218.937C112.394 218.596 112.666 218.329 112.999 218.135C113.34 217.941 113.728 217.844 114.162 217.844V219.554H113.732C113.22 219.554 112.832 219.674 112.569 219.914C112.313 220.155 112.185 220.573 112.185 221.17V224.38H110.557V217.937H112.185V218.937Z" fill="white"/>
<rect opacity="0.2" x="49.0029" y="259.379" width="65.2567" height="16.3142" rx="4.13809" fill="white"/>
<path d="M59.0023 263.835L59.9374 265.771C59.9907 265.884 60.0973 265.958 60.2184 265.978L62.3115 266.289C62.6167 266.334 62.7378 266.719 62.5198 266.936L61.0033 268.442C60.9161 268.531 60.8773 268.655 60.8967 268.778L61.2553 270.907C61.3086 271.218 60.9888 271.455 60.7126 271.307L58.8375 270.304C58.731 270.245 58.6001 270.245 58.4887 270.304L56.6137 271.307C56.3423 271.455 56.0226 271.218 56.071 270.907L56.4296 268.778C56.4489 268.655 56.4102 268.531 56.3229 268.442L54.8064 266.936C54.5836 266.714 54.7096 266.334 55.0148 266.289L57.1078 265.978C57.229 265.958 57.3356 265.884 57.3889 265.771L58.324 263.835C58.4596 263.554 58.8569 263.554 58.9926 263.835H59.0023Z" fill="white"/>
<path d="M70.5599 263.835L71.495 265.771C71.5483 265.884 71.6549 265.958 71.776 265.978L73.8691 266.289C74.1743 266.334 74.2954 266.719 74.0774 266.936L72.5609 268.442C72.4737 268.531 72.4349 268.655 72.4543 268.778L72.8129 270.906C72.8661 271.218 72.5464 271.455 72.2702 271.306L70.3952 270.304C70.2886 270.245 70.1578 270.245 70.0463 270.304L68.1713 271.306C67.9 271.455 67.5802 271.218 67.6286 270.906L67.9872 268.778C68.0066 268.655 67.9678 268.531 67.8806 268.442L66.3641 266.936C66.1412 266.714 66.2672 266.334 66.5724 266.289L68.6655 265.978C68.7866 265.958 68.8932 265.884 68.9465 265.771L69.8816 263.835C70.0173 263.553 70.4146 263.553 70.5502 263.835H70.5599Z" fill="white"/>
<path d="M82.1185 263.835L83.0536 265.771C83.1069 265.884 83.2135 265.958 83.3346 265.978L85.4277 266.289C85.7329 266.334 85.854 266.719 85.636 266.936L84.1195 268.442C84.0323 268.531 83.9935 268.655 84.0129 268.778L84.3714 270.906C84.4247 271.218 84.105 271.455 83.8288 271.306L81.9538 270.304C81.8472 270.245 81.7163 270.245 81.6049 270.304L79.7299 271.306C79.4585 271.455 79.1388 271.218 79.1872 270.906L79.5457 268.778C79.5651 268.655 79.5264 268.531 79.4392 268.442L77.9227 266.936C77.6998 266.714 77.8258 266.334 78.131 266.289L80.2241 265.978C80.3452 265.958 80.4518 265.884 80.5051 265.771L81.4402 263.835C81.5758 263.553 81.9731 263.553 82.1088 263.835H82.1185Z" fill="white"/>
<path d="M93.6761 263.835L94.6112 265.771C94.6645 265.884 94.7711 265.958 94.8922 265.978L96.9853 266.289C97.2905 266.334 97.4116 266.719 97.1936 266.936L95.6771 268.442C95.5899 268.531 95.5512 268.655 95.5705 268.778L95.9291 270.906C95.9824 271.218 95.6626 271.455 95.3864 271.306L93.5114 270.304C93.4048 270.245 93.274 270.245 93.1625 270.304L91.2875 271.306C91.0162 271.455 90.6964 271.218 90.7448 270.906L91.1034 268.778C91.1227 268.655 91.084 268.531 90.9968 268.442L89.4803 266.936C89.2574 266.714 89.3834 266.334 89.6886 266.289L91.7817 265.978C91.9028 265.958 92.0094 265.884 92.0627 265.771L92.9978 263.835C93.1334 263.553 93.5307 263.553 93.6664 263.835H93.6761Z" fill="white"/>
<path d="M105.235 263.835L106.17 265.771C106.223 265.884 106.33 265.958 106.451 265.978L108.544 266.289C108.849 266.334 108.97 266.719 108.752 266.936L107.236 268.442C107.149 268.531 107.11 268.655 107.129 268.778L107.488 270.906C107.541 271.218 107.221 271.455 106.945 271.306L105.07 270.304C104.963 270.245 104.833 270.245 104.721 270.304L102.846 271.306C102.575 271.455 102.255 271.218 102.303 270.906L102.662 268.778C102.681 268.655 102.643 268.531 102.555 268.442L101.039 266.936C100.816 266.714 100.942 266.334 101.247 266.289L103.34 265.978C103.461 265.958 103.568 265.884 103.621 265.771L104.556 263.835C104.692 263.553 105.089 263.553 105.225 263.835H105.235Z" fill="white"/>
<rect x="63.5205" y="168.397" width="36.3932" height="36.3932" rx="18.1966" fill="url(#paint4_linear_718_12732)"/>
<path d="M75.2664 184.272C73.4908 182.933 72.5725 180.792 72.4231 178.998C72.401 178.714 72.1521 178.548 71.9032 178.548C71.7206 178.548 71.5381 178.636 71.4385 178.822C69.6296 182.23 70.3487 186.914 72.3955 188.785C72.8767 187.431 73.6622 186.081 74.6856 184.903C74.8737 184.685 75.0673 184.479 75.2664 184.277V184.272ZM92.293 178.822C92.1935 178.636 92.0109 178.548 91.8284 178.548C91.5739 178.548 91.3305 178.709 91.3029 178.998C91.1535 180.792 90.2352 182.938 88.4596 184.277C88.6587 184.479 88.8523 184.685 89.0404 184.903C90.0638 186.081 90.8493 187.431 91.3305 188.785C93.3773 186.914 94.0964 182.235 92.293 178.822ZM84.864 183.274V190.46H90.3846C89.8536 187.705 87.7128 184.629 84.864 183.274ZM78.8676 190.46V183.274C76.0188 184.623 73.8835 187.7 73.3469 190.46H78.8676ZM90.5893 191.737H73.1423C72.827 191.737 72.5725 191.975 72.5725 192.27V194.612C72.5725 194.907 72.827 195.145 73.1423 195.145H90.5837C90.899 195.145 91.1535 194.907 91.1535 194.612V192.27C91.1535 191.975 90.899 191.737 90.5837 191.737H90.5893ZM83.4976 182.778C82.9721 182.643 82.4245 182.571 81.8658 182.571C81.3071 182.571 80.765 182.643 80.2339 182.778V190.455H83.4921V182.778H83.4976Z" fill="#000223"/>
<circle opacity="0.3" cx="81.7167" cy="186.592" r="21.3339" stroke="white" stroke-width="1.8824"/>
</g>
<rect x="14.8633" y="153.964" width="133.453" height="133.453" rx="18.5786" stroke="#FBBE7E" stroke-width="1.23857"/>
</g>
<g clip-path="url(#clip6_718_12732)">
<rect x="14.8633" y="1" width="133.453" height="133.453" rx="18.5786" fill="#000223"/>
<rect opacity="0.3" x="50.8271" y="80.1409" width="62.0713" height="6.20713" rx="2.06904" fill="white"/>
<rect opacity="0.3" x="38.9307" y="91.5206" width="85.8653" height="6.20713" rx="2.06904" fill="white"/>
<path d="M55.9929 65.8109C55.9929 66.2451 55.8882 66.6522 55.6789 67.0321C55.4773 67.412 55.1555 67.7183 54.7136 67.9509C54.2794 68.1835 53.7289 68.2998 53.0621 68.2998H51.7013V71.4167H50.0731V63.2988H53.0621C53.6901 63.2988 54.2251 63.4074 54.6671 63.6244C55.109 63.8415 55.4385 64.1401 55.6556 64.52C55.8805 64.8999 55.9929 65.3302 55.9929 65.8109ZM52.9923 66.9856C53.442 66.9856 53.7754 66.8848 53.9925 66.6832C54.2096 66.4739 54.3182 66.1831 54.3182 65.8109C54.3182 65.0201 53.8762 64.6247 52.9923 64.6247H51.7013V66.9856H52.9923ZM59.0098 65.9738C59.2191 65.6326 59.4905 65.3651 59.8239 65.1713C60.1651 64.9774 60.5528 64.8805 60.987 64.8805V66.5902H60.5566C60.0449 66.5902 59.6572 66.7104 59.3936 66.9507C59.1377 67.1911 59.0098 67.6098 59.0098 68.2068V71.4167H57.3816V64.9736H59.0098V65.9738ZM65.1773 71.5214C64.557 71.5214 63.9988 71.3857 63.5025 71.1144C63.0063 70.8352 62.6148 70.4437 62.3279 69.9397C62.0488 69.4357 61.9092 68.8542 61.9092 68.1952C61.9092 67.5361 62.0526 66.9546 62.3395 66.4506C62.6342 65.9466 63.0335 65.559 63.5374 65.2876C64.0414 65.0085 64.6035 64.8689 65.2238 64.8689C65.8441 64.8689 66.4062 65.0085 66.9102 65.2876C67.4142 65.559 67.8096 65.9466 68.0965 66.4506C68.3911 66.9546 68.5385 67.5361 68.5385 68.1952C68.5385 68.8542 68.3873 69.4357 68.0849 69.9397C67.7903 70.4437 67.3871 70.8352 66.8753 71.1144C66.3714 71.3857 65.8053 71.5214 65.1773 71.5214ZM65.1773 70.1025C65.4719 70.1025 65.7472 70.0327 66.0031 69.8932C66.2667 69.7459 66.476 69.5288 66.6311 69.2419C66.7862 68.955 66.8637 68.6061 66.8637 68.1952C66.8637 67.5826 66.7009 67.1135 66.3752 66.7879C66.0573 66.4545 65.6658 66.2878 65.2006 66.2878C64.7354 66.2878 64.3438 66.4545 64.0259 66.7879C63.7158 67.1135 63.5607 67.5826 63.5607 68.1952C63.5607 68.8077 63.7119 69.2807 64.0143 69.6141C64.3244 69.9397 64.7121 70.1025 65.1773 70.1025ZM74.92 66.5785V67.9509H69.9887V66.5785H74.92ZM82.8984 65.8109C82.8984 66.2451 82.7938 66.6522 82.5844 67.0321C82.3828 67.412 82.061 67.7183 81.6191 67.9509C81.1849 68.1835 80.6344 68.2998 79.9676 68.2998H78.6068V71.4167H76.9786V63.2988H79.9676C80.5956 63.2988 81.1306 63.4074 81.5726 63.6244C82.0145 63.8415 82.3441 64.1401 82.5611 64.52C82.786 64.8999 82.8984 65.3302 82.8984 65.8109ZM79.8978 66.9856C80.3475 66.9856 80.6809 66.8848 80.898 66.6832C81.1151 66.4739 81.2237 66.1831 81.2237 65.8109C81.2237 65.0201 80.7817 64.6247 79.8978 64.6247H78.6068V66.9856H79.8978ZM85.9153 62.8103V71.4167H84.2871V62.8103H85.9153ZM87.3379 68.1719C87.3379 67.5206 87.4659 66.943 87.7217 66.439C87.9854 65.935 88.3381 65.5473 88.7801 65.276C89.2298 65.0046 89.7299 64.8689 90.2804 64.8689C90.7611 64.8689 91.1798 64.9658 91.5365 65.1596C91.9009 65.3535 92.1916 65.5977 92.4087 65.8924V64.9736H94.0486V71.4167H92.4087V70.4747C92.1994 70.7771 91.9086 71.0291 91.5365 71.2307C91.1721 71.4245 90.7495 71.5214 90.2688 71.5214C89.726 71.5214 89.2298 71.3819 88.7801 71.1027C88.3381 70.8236 87.9854 70.432 87.7217 69.9281C87.4659 69.4163 87.3379 68.8309 87.3379 68.1719ZM92.4087 68.1952C92.4087 67.7997 92.3312 67.4624 92.1761 67.1833C92.0211 66.8964 91.8117 66.6793 91.5481 66.532C91.2845 66.377 91.0015 66.2994 90.6991 66.2994C90.3967 66.2994 90.1176 66.3731 89.8617 66.5204C89.6058 66.6677 89.3965 66.8848 89.2337 67.1717C89.0786 67.4508 89.0011 67.7842 89.0011 68.1719C89.0011 68.5596 89.0786 68.9007 89.2337 69.1954C89.3965 69.4822 89.6058 69.7032 89.8617 69.8583C90.1253 70.0134 90.4045 70.0909 90.6991 70.0909C91.0015 70.0909 91.2845 70.0172 91.5481 69.8699C91.8117 69.7148 92.0211 69.4977 92.1761 69.2186C92.3312 68.9317 92.4087 68.5906 92.4087 68.1952ZM102.036 64.9736L98.0463 74.4639H96.3134L97.7091 71.2539L95.1271 64.9736H96.9531L98.6162 69.4745L100.303 64.9736H102.036ZM109.135 68.0556C109.135 68.2882 109.12 68.4975 109.089 68.6836H104.379C104.417 69.1488 104.58 69.5133 104.867 69.7769C105.154 70.0405 105.507 70.1723 105.926 70.1723C106.53 70.1723 106.961 69.9126 107.216 69.3931H108.973C108.787 70.0134 108.43 70.5251 107.903 70.9283C107.375 71.3237 106.728 71.5214 105.96 71.5214C105.34 71.5214 104.782 71.3857 104.286 71.1144C103.797 70.8352 103.413 70.4437 103.134 69.9397C102.863 69.4357 102.727 68.8542 102.727 68.1952C102.727 67.5284 102.863 66.943 103.134 66.439C103.406 65.935 103.786 65.5473 104.274 65.276C104.762 65.0046 105.325 64.8689 105.96 64.8689C106.573 64.8689 107.12 65.0007 107.6 65.2643C108.089 65.5279 108.465 65.904 108.728 66.3925C109 66.8732 109.135 67.4276 109.135 68.0556ZM107.449 67.5904C107.441 67.1717 107.29 66.8383 106.995 66.5902C106.701 66.3343 106.34 66.2064 105.914 66.2064C105.511 66.2064 105.17 66.3304 104.89 66.5785C104.619 66.8189 104.452 67.1562 104.39 67.5904H107.449ZM112.185 65.9738C112.394 65.6326 112.666 65.3651 112.999 65.1713C113.34 64.9774 113.728 64.8805 114.162 64.8805V66.5902H113.732C113.22 66.5902 112.832 66.7104 112.569 66.9507C112.313 67.1911 112.185 67.6098 112.185 68.2068V71.4167H110.557V64.9736H112.185V65.9738Z" fill="white"/>
<rect opacity="0.2" x="49.0029" y="106.415" width="65.2567" height="16.3142" rx="4.13809" fill="white"/>
<path d="M59.0023 110.871L59.9374 112.807C59.9907 112.921 60.0973 112.995 60.2184 113.014L62.3115 113.326C62.6167 113.37 62.7378 113.755 62.5198 113.972L61.0033 115.479C60.9161 115.568 60.8773 115.691 60.8967 115.814L61.2553 117.943C61.3086 118.254 60.9888 118.491 60.7126 118.343L58.8375 117.34C58.731 117.281 58.6001 117.281 58.4887 117.34L56.6137 118.343C56.3423 118.491 56.0226 118.254 56.071 117.943L56.4296 115.814C56.4489 115.691 56.4102 115.568 56.3229 115.479L54.8064 113.972C54.5836 113.75 54.7096 113.37 55.0148 113.326L57.1078 113.014C57.229 112.995 57.3356 112.921 57.3889 112.807L58.324 110.871C58.4596 110.59 58.8569 110.59 58.9926 110.871H59.0023Z" fill="white"/>
<path d="M70.5599 110.871L71.495 112.807C71.5483 112.921 71.6549 112.995 71.776 113.014L73.8691 113.326C74.1743 113.37 74.2954 113.755 74.0774 113.972L72.5609 115.479C72.4737 115.568 72.4349 115.691 72.4543 115.814L72.8129 117.943C72.8661 118.254 72.5464 118.491 72.2702 118.343L70.3952 117.34C70.2886 117.281 70.1578 117.281 70.0463 117.34L68.1713 118.343C67.9 118.491 67.5802 118.254 67.6286 117.943L67.9872 115.814C68.0066 115.691 67.9678 115.568 67.8806 115.479L66.3641 113.972C66.1412 113.75 66.2672 113.37 66.5724 113.326L68.6655 113.014C68.7866 112.995 68.8932 112.921 68.9465 112.807L69.8816 110.871C70.0173 110.59 70.4146 110.59 70.5502 110.871H70.5599Z" fill="white"/>
<path d="M82.1185 110.871L83.0536 112.807C83.1069 112.921 83.2135 112.995 83.3346 113.014L85.4277 113.326C85.7329 113.37 85.854 113.755 85.636 113.972L84.1195 115.479C84.0323 115.568 83.9935 115.691 84.0129 115.814L84.3714 117.943C84.4247 118.254 84.105 118.491 83.8288 118.343L81.9538 117.34C81.8472 117.281 81.7163 117.281 81.6049 117.34L79.7299 118.343C79.4585 118.491 79.1388 118.254 79.1872 117.943L79.5457 115.814C79.5651 115.691 79.5264 115.568 79.4392 115.479L77.9227 113.972C77.6998 113.75 77.8258 113.37 78.131 113.326L80.2241 113.014C80.3452 112.995 80.4518 112.921 80.5051 112.807L81.4402 110.871C81.5758 110.59 81.9731 110.59 82.1088 110.871H82.1185Z" fill="white"/>
<path d="M93.6761 110.871L94.6112 112.807C94.6645 112.921 94.7711 112.995 94.8922 113.014L96.9853 113.326C97.2905 113.37 97.4116 113.755 97.1936 113.972L95.6771 115.479C95.5899 115.568 95.5512 115.691 95.5705 115.814L95.9291 117.943C95.9824 118.254 95.6626 118.491 95.3864 118.343L93.5114 117.34C93.4048 117.281 93.274 117.281 93.1625 117.34L91.2875 118.343C91.0162 118.491 90.6964 118.254 90.7448 117.943L91.1034 115.814C91.1227 115.691 91.084 115.568 90.9968 115.479L89.4803 113.972C89.2574 113.75 89.3834 113.37 89.6886 113.326L91.7817 113.014C91.9028 112.995 92.0094 112.921 92.0627 112.807L92.9978 110.871C93.1334 110.59 93.5307 110.59 93.6664 110.871H93.6761Z" fill="white"/>
<path d="M105.235 110.871L106.17 112.807C106.223 112.921 106.33 112.995 106.451 113.014L108.544 113.326C108.849 113.37 108.97 113.755 108.752 113.972L107.236 115.479C107.149 115.568 107.11 115.691 107.129 115.814L107.488 117.943C107.541 118.254 107.221 118.491 106.945 118.343L105.07 117.34C104.963 117.281 104.833 117.281 104.721 117.34L102.846 118.343C102.575 118.491 102.255 118.254 102.303 117.943L102.662 115.814C102.681 115.691 102.643 115.568 102.555 115.479L101.039 113.972C100.816 113.75 100.942 113.37 101.247 113.326L103.34 113.014C103.461 112.995 103.568 112.921 103.621 112.807L104.556 110.871C104.692 110.59 105.089 110.59 105.225 110.871H105.235Z" fill="white"/>
<rect x="63.5205" y="15.4337" width="36.3932" height="36.3932" rx="18.1966" fill="url(#paint5_linear_718_12732)"/>
<path d="M75.2664 31.3082C73.4908 29.9691 72.5725 27.8287 72.4231 26.0346C72.401 25.7503 72.1521 25.5848 71.9032 25.5848C71.7206 25.5848 71.5381 25.6727 71.4385 25.8589C69.6296 29.266 70.3487 33.9501 72.3955 35.8217C72.8767 34.4671 73.6622 33.1177 74.6856 31.9389C74.8737 31.7218 75.0673 31.515 75.2664 31.3133V31.3082ZM92.293 25.8589C92.1935 25.6727 92.0109 25.5848 91.8284 25.5848C91.5739 25.5848 91.3305 25.7451 91.3029 26.0346C91.1535 27.8287 90.2352 29.9743 88.4596 31.3133C88.6587 31.515 88.8523 31.7218 89.0404 31.9389C90.0638 33.1177 90.8493 34.4671 91.3305 35.8217C93.3773 33.9501 94.0964 29.2711 92.293 25.8589ZM84.864 30.3103V37.4968H90.3846C89.8536 34.7411 87.7128 31.6649 84.864 30.3103ZM78.8676 37.4968V30.3103C76.0188 31.6597 73.8835 34.736 73.3469 37.4968H78.8676ZM90.5893 38.7738H73.1423C72.827 38.7738 72.5725 39.0116 72.5725 39.3063V41.6484C72.5725 41.9431 72.827 42.1809 73.1423 42.1809H90.5837C90.899 42.1809 91.1535 41.9431 91.1535 41.6484V39.3063C91.1535 39.0116 90.899 38.7738 90.5837 38.7738H90.5893ZM83.4976 29.814C82.9721 29.6796 82.4245 29.6072 81.8658 29.6072C81.3071 29.6072 80.765 29.6796 80.2339 29.814V37.4916H83.4921V29.814H83.4976Z" fill="#000223"/>
<circle opacity="0.3" cx="81.7167" cy="33.6287" r="21.3339" stroke="white" stroke-width="1.8824"/>
</g>
<rect x="14.8633" y="1" width="133.453" height="133.453" rx="18.5786" stroke="#FBBE7E" stroke-width="1.23857"/>
<path d="M234.09 67.2637V67.2637C249.049 67.2637 261.175 79.3902 261.175 94.3491V167.425C261.175 183.59 274.28 196.694 290.445 196.694V196.694" stroke="url(#paint6_linear_718_12732)" stroke-width="1.23857" stroke-miterlimit="10" stroke-linecap="square"/>
<path d="M234.09 218.369H290.445" stroke="#FBBE7E" stroke-width="1.23857" stroke-miterlimit="10"/>
<path d="M234.09 374.43V374.43C249.049 374.43 261.175 362.303 261.175 347.344V274.269C261.175 258.103 274.28 244.999 290.445 244.999V244.999" stroke="url(#paint7_linear_718_12732)" stroke-width="1.23857" stroke-miterlimit="10" stroke-linecap="square"/>
<path d="M333.176 257.385V352.755C333.176 366.436 344.266 377.526 357.947 377.526H418.637" stroke="#FBBE7E" stroke-width="1.23857" stroke-miterlimit="10" stroke-linecap="square"/>
<rect x="308.404" y="349.658" width="49.5429" height="49.5429" rx="24.7715" fill="#FBBE7E"/>
<path d="M323.791 374.57L329.949 380.301L342.072 368.472" stroke="#000223" stroke-width="2.47714" stroke-miterlimit="10"/>
<g clip-path="url(#clip7_718_12732)">
<path d="M398.637 25.1521H331.754C321.493 25.1521 313.175 33.47 313.175 43.7307V91.8828C313.175 102.144 321.493 110.461 331.754 110.461H398.637V25.1521Z" fill="url(#paint8_linear_718_12732)" fill-opacity="0.4"/>
<path d="M367.91 51.5251C367.91 53.731 367.187 55.7704 365.966 57.417C365.58 57.9385 365.143 58.421 364.664 58.857C364.941 57.866 365.083 56.8317 365.083 55.7769C365.083 49.49 359.989 44.3749 353.729 44.3749C352.771 44.3749 351.832 44.4928 350.926 44.7243C351.288 44.3403 351.682 43.9854 352.102 43.663C353.758 42.3918 355.824 41.6377 358.064 41.6377C363.493 41.6377 367.91 46.0734 367.91 51.5251Z" fill="white"/>
<path d="M352.889 52.7829C352.644 52.889 352.454 53.0339 352.32 53.2168C352.185 53.4007 352.118 53.6084 352.118 53.841C352.118 54.0358 352.163 54.2045 352.255 54.3463C352.348 54.4869 352.468 54.6059 352.619 54.7011C352.77 54.7963 352.931 54.8742 353.105 54.9381C353.17 54.9608 353.235 54.9835 353.298 55.003V52.6628C353.15 52.6899 353.013 52.7299 352.889 52.7829ZM355.328 57.0023C355.191 56.8465 355.004 56.7188 354.773 56.6161C354.64 56.5587 354.499 56.5057 354.347 56.4559V58.861C354.453 58.8372 354.555 58.8047 354.652 58.7647C354.926 58.6533 355.141 58.4986 355.297 58.2995C355.455 58.0993 355.533 57.8667 355.533 57.5995C355.533 57.3561 355.464 57.157 355.328 57.0023ZM355.328 57.0023C355.191 56.8465 355.004 56.7188 354.773 56.6161C354.64 56.5587 354.499 56.5057 354.347 56.4559V58.861C354.453 58.8372 354.555 58.8047 354.652 58.7647C354.926 58.6533 355.141 58.4986 355.297 58.2995C355.455 58.0993 355.533 57.8667 355.533 57.5995C355.533 57.3561 355.464 57.157 355.328 57.0023ZM352.32 53.2168C352.185 53.4007 352.118 53.6084 352.118 53.841C352.118 54.0358 352.163 54.2045 352.255 54.3463C352.348 54.4869 352.468 54.6059 352.619 54.7011C352.77 54.7963 352.931 54.8742 353.105 54.9381C353.17 54.9608 353.235 54.9835 353.298 55.003V52.6628C353.15 52.6899 353.013 52.7299 352.889 52.7829C352.644 52.889 352.454 53.0339 352.32 53.2168ZM353.728 45.9043C351.492 45.9043 349.43 46.6573 347.777 47.9263C345.423 49.7288 343.9 52.5763 343.9 55.7744C343.9 61.2163 348.309 65.6433 353.728 65.6433C356.955 65.6433 359.823 64.0735 361.616 61.6544C362.834 60.011 363.556 57.9749 363.556 55.7744C363.556 50.3314 359.147 45.9043 353.728 45.9043ZM356.397 58.8512C356.16 59.2126 355.816 59.4961 355.364 59.7049C355.066 59.8433 354.728 59.9353 354.347 59.9818V60.6277C354.347 60.7835 354.221 60.909 354.066 60.909H353.579C353.424 60.909 353.298 60.7835 353.298 60.6277V60.0002C352.864 59.9645 352.477 59.8725 352.138 59.7254C351.691 59.5296 351.34 59.2537 351.087 58.8934C350.892 58.6165 350.765 58.2995 350.705 57.9435C350.675 57.7704 350.806 57.6114 350.981 57.6114H351.663C351.792 57.6114 351.909 57.698 351.938 57.8245C351.984 58.029 352.069 58.2043 352.196 58.3514C352.365 58.5483 352.581 58.6933 352.846 58.7896C352.99 58.8404 353.14 58.8772 353.298 58.8999V56.1606L353.016 56.0827C352.362 55.9042 351.844 55.6402 351.461 55.2929C351.079 54.9446 350.888 54.4847 350.888 53.9135C350.888 53.4396 351.015 53.0264 351.271 52.6737C351.527 52.3199 351.873 52.0451 352.31 51.8482C352.613 51.7119 352.942 51.6242 353.298 51.582V50.9199C353.298 50.7652 353.424 50.6397 353.579 50.6397H354.066C354.221 50.6397 354.347 50.7652 354.347 50.9199V51.5907C354.678 51.6351 354.981 51.7205 355.255 51.8471C355.68 52.0429 356.015 52.3102 356.261 52.6509C356.444 52.9052 356.56 53.1876 356.613 53.497C356.642 53.6679 356.508 53.8248 356.336 53.8248H355.685C355.559 53.8248 355.448 53.7415 355.415 53.6203C355.339 53.3369 355.178 53.1108 354.927 52.9398C354.758 52.8251 354.564 52.7407 354.347 52.6888V55.2864L354.402 55.3005C354.663 55.3654 354.932 55.452 355.206 55.5623C355.481 55.6705 355.735 55.8166 355.969 55.9951C356.203 56.1736 356.392 56.3954 356.538 56.6615C356.683 56.9255 356.756 57.2425 356.756 57.6114C356.756 58.0766 356.637 58.491 356.397 58.8512ZM354.773 56.6161C354.64 56.5587 354.499 56.5057 354.347 56.4559V58.861C354.453 58.8372 354.555 58.8047 354.652 58.7647C354.926 58.6533 355.141 58.4986 355.297 58.2995C355.455 58.0993 355.533 57.8667 355.533 57.5995C355.533 57.3561 355.464 57.157 355.328 57.0023C355.191 56.8465 355.004 56.7188 354.773 56.6161ZM352.32 53.2168C352.185 53.4007 352.118 53.6084 352.118 53.841C352.118 54.0358 352.163 54.2045 352.255 54.3463C352.348 54.4869 352.468 54.6059 352.619 54.7011C352.77 54.7963 352.931 54.8742 353.105 54.9381C353.17 54.9608 353.235 54.9835 353.298 55.003V52.6628C353.15 52.6899 353.013 52.7299 352.889 52.7829C352.644 52.889 352.454 53.0339 352.32 53.2168ZM352.889 52.7829C352.644 52.889 352.454 53.0339 352.32 53.2168C352.185 53.4007 352.118 53.6084 352.118 53.841C352.118 54.0358 352.163 54.2045 352.255 54.3463C352.348 54.4869 352.468 54.6059 352.619 54.7011C352.77 54.7963 352.931 54.8742 353.105 54.9381C353.17 54.9608 353.235 54.9835 353.298 55.003V52.6628C353.15 52.6899 353.013 52.7299 352.889 52.7829ZM355.328 57.0023C355.191 56.8465 355.004 56.7188 354.773 56.6161C354.64 56.5587 354.499 56.5057 354.347 56.4559V58.861C354.453 58.8372 354.555 58.8047 354.652 58.7647C354.926 58.6533 355.141 58.4986 355.297 58.2995C355.455 58.0993 355.533 57.8667 355.533 57.5995C355.533 57.3561 355.464 57.157 355.328 57.0023ZM355.328 57.0023C355.191 56.8465 355.004 56.7188 354.773 56.6161C354.64 56.5587 354.499 56.5057 354.347 56.4559V58.861C354.453 58.8372 354.555 58.8047 354.652 58.7647C354.926 58.6533 355.141 58.4986 355.297 58.2995C355.455 58.0993 355.533 57.8667 355.533 57.5995C355.533 57.3561 355.464 57.157 355.328 57.0023ZM352.889 52.7829C352.644 52.889 352.454 53.0339 352.32 53.2168C352.185 53.4007 352.118 53.6084 352.118 53.841C352.118 54.0358 352.163 54.2045 352.255 54.3463C352.348 54.4869 352.468 54.6059 352.619 54.7011C352.77 54.7963 352.931 54.8742 353.105 54.9381C353.17 54.9608 353.235 54.9835 353.298 55.003V52.6628C353.15 52.6899 353.013 52.7299 352.889 52.7829Z" fill="white"/>
<path d="M340.624 79.3184V77.2413H344.504V88.9792H342.186V79.3184H340.624ZM347.053 82.9573C347.053 81.1003 347.386 79.6458 348.052 78.5938C348.728 77.5419 349.844 77.0159 351.401 77.0159C352.957 77.0159 354.068 77.5419 354.734 78.5938C355.41 79.6458 355.748 81.1003 355.748 82.9573C355.748 84.8251 355.41 86.2903 354.734 87.353C354.068 88.4157 352.957 88.947 351.401 88.947C349.844 88.947 348.728 88.4157 348.052 87.353C347.386 86.2903 347.053 84.8251 347.053 82.9573ZM353.526 82.9573C353.526 82.163 353.473 81.4974 353.365 80.9607C353.269 80.4133 353.065 79.9678 352.753 79.6243C352.453 79.2808 352.002 79.1091 351.401 79.1091C350.8 79.1091 350.343 79.2808 350.032 79.6243C349.732 79.9678 349.528 80.4133 349.42 80.9607C349.324 81.4974 349.275 82.163 349.275 82.9573C349.275 83.7731 349.324 84.4601 349.42 85.0183C349.517 85.5657 349.721 86.0112 350.032 86.3547C350.343 86.6875 350.8 86.8539 351.401 86.8539C352.002 86.8539 352.458 86.6875 352.769 86.3547C353.081 86.0112 353.285 85.5657 353.381 85.0183C353.478 84.4601 353.526 83.7731 353.526 82.9573ZM368.545 88.9792L364.455 83.9717V88.9792H362.201V77.7404H364.455V82.7802L368.545 77.7404H371.266L366.629 83.3115L371.395 88.9792H368.545Z" fill="white"/>
</g>
<g clip-path="url(#clip8_718_12732)">
<rect x="399.256" y="307.547" width="133.453" height="133.453" rx="18.5786" fill="#000223"/>
<rect opacity="0.3" x="435.22" y="386.688" width="62.0713" height="6.20713" rx="2.06904" fill="white"/>
<rect opacity="0.3" x="423.323" y="398.067" width="85.8653" height="6.20713" rx="2.06904" fill="white"/>
<path d="M424.346 373.893C424.346 373.094 424.524 372.381 424.881 371.753C425.245 371.117 425.737 370.625 426.358 370.276C426.986 369.919 427.687 369.741 428.463 369.741C429.37 369.741 430.165 369.973 430.847 370.439C431.529 370.904 432.006 371.547 432.277 372.369H430.405C430.219 371.981 429.955 371.691 429.614 371.497C429.281 371.303 428.893 371.206 428.451 371.206C427.978 371.206 427.556 371.319 427.183 371.543C426.819 371.76 426.532 372.071 426.323 372.474C426.121 372.877 426.02 373.35 426.02 373.893C426.02 374.428 426.121 374.901 426.323 375.312C426.532 375.715 426.819 376.029 427.183 376.254C427.556 376.471 427.978 376.579 428.451 376.579C428.893 376.579 429.281 376.482 429.614 376.289C429.955 376.087 430.219 375.792 430.405 375.405H432.277C432.006 376.234 431.529 376.882 430.847 377.347C430.172 377.804 429.378 378.033 428.463 378.033C427.687 378.033 426.986 377.859 426.358 377.51C425.737 377.153 425.245 376.661 424.881 376.033C424.524 375.405 424.346 374.691 424.346 373.893ZM433.482 374.718C433.482 374.067 433.61 373.49 433.866 372.986C434.129 372.482 434.482 372.094 434.924 371.823C435.374 371.551 435.874 371.415 436.425 371.415C436.905 371.415 437.324 371.512 437.681 371.706C438.045 371.9 438.336 372.144 438.553 372.439V371.52H440.193V377.963H438.553V377.021C438.344 377.324 438.053 377.576 437.681 377.777C437.316 377.971 436.894 378.068 436.413 378.068C435.87 378.068 435.374 377.928 434.924 377.649C434.482 377.37 434.129 376.979 433.866 376.475C433.61 375.963 433.482 375.378 433.482 374.718ZM438.553 374.742C438.553 374.346 438.475 374.009 438.32 373.73C438.165 373.443 437.956 373.226 437.692 373.079C437.429 372.924 437.146 372.846 436.843 372.846C436.541 372.846 436.262 372.92 436.006 373.067C435.75 373.214 435.541 373.431 435.378 373.718C435.223 373.997 435.145 374.331 435.145 374.718C435.145 375.106 435.223 375.447 435.378 375.742C435.541 376.029 435.75 376.25 436.006 376.405C436.269 376.56 436.549 376.637 436.843 376.637C437.146 376.637 437.429 376.564 437.692 376.416C437.956 376.261 438.165 376.044 438.32 375.765C438.475 375.478 438.553 375.137 438.553 374.742ZM444.481 378.068C443.954 378.068 443.481 377.975 443.062 377.789C442.644 377.595 442.31 377.335 442.062 377.01C441.822 376.684 441.69 376.323 441.667 375.928H443.307C443.338 376.176 443.458 376.382 443.667 376.544C443.884 376.707 444.152 376.789 444.47 376.789C444.78 376.789 445.02 376.727 445.191 376.603C445.369 376.479 445.458 376.32 445.458 376.126C445.458 375.916 445.35 375.761 445.133 375.661C444.923 375.552 444.586 375.436 444.121 375.312C443.64 375.195 443.245 375.075 442.934 374.951C442.632 374.827 442.368 374.637 442.144 374.381C441.926 374.125 441.818 373.78 441.818 373.346C441.818 372.989 441.919 372.664 442.12 372.369C442.33 372.075 442.624 371.842 443.004 371.671C443.392 371.501 443.845 371.415 444.365 371.415C445.133 371.415 445.745 371.609 446.203 371.997C446.66 372.377 446.912 372.893 446.958 373.544H445.4C445.377 373.288 445.268 373.086 445.074 372.939C444.888 372.784 444.636 372.706 444.318 372.706C444.024 372.706 443.795 372.761 443.632 372.869C443.477 372.978 443.4 373.129 443.4 373.323C443.4 373.54 443.508 373.707 443.725 373.823C443.942 373.931 444.28 374.044 444.737 374.16C445.202 374.277 445.586 374.397 445.888 374.521C446.191 374.645 446.451 374.839 446.668 375.102C446.893 375.358 447.009 375.699 447.017 376.126C447.017 376.498 446.912 376.831 446.703 377.126C446.501 377.421 446.206 377.653 445.819 377.824C445.439 377.987 444.993 378.068 444.481 378.068ZM454.668 371.52V377.963H453.029V377.149C452.819 377.428 452.544 377.649 452.203 377.812C451.869 377.967 451.505 378.045 451.11 378.045C450.606 378.045 450.16 377.94 449.772 377.731C449.384 377.514 449.078 377.2 448.853 376.789C448.636 376.37 448.528 375.874 448.528 375.3V371.52H450.156V375.067C450.156 375.579 450.284 375.975 450.54 376.254C450.796 376.525 451.144 376.661 451.586 376.661C452.036 376.661 452.389 376.525 452.645 376.254C452.901 375.975 453.029 375.579 453.029 375.067V371.52H454.668ZM456.089 374.718C456.089 374.067 456.217 373.49 456.473 372.986C456.736 372.482 457.089 372.094 457.531 371.823C457.981 371.551 458.481 371.415 459.031 371.415C459.512 371.415 459.931 371.512 460.287 371.706C460.652 371.9 460.943 372.144 461.16 372.439V371.52H462.8V377.963H461.16V377.021C460.95 377.324 460.66 377.576 460.287 377.777C459.923 377.971 459.5 378.068 459.02 378.068C458.477 378.068 457.981 377.928 457.531 377.649C457.089 377.37 456.736 376.979 456.473 376.475C456.217 375.963 456.089 375.378 456.089 374.718ZM461.16 374.742C461.16 374.346 461.082 374.009 460.927 373.73C460.772 373.443 460.563 373.226 460.299 373.079C460.035 372.924 459.752 372.846 459.45 372.846C459.148 372.846 458.869 372.92 458.613 373.067C458.357 373.214 458.147 373.431 457.985 373.718C457.83 373.997 457.752 374.331 457.752 374.718C457.752 375.106 457.83 375.447 457.985 375.742C458.147 376.029 458.357 376.25 458.613 376.405C458.876 376.56 459.155 376.637 459.45 376.637C459.752 376.637 460.035 376.564 460.299 376.416C460.563 376.261 460.772 376.044 460.927 375.765C461.082 375.478 461.16 375.137 461.16 374.742ZM466.251 369.357V377.963H464.622V369.357H466.251ZM477.016 372.358C477.016 372.792 476.911 373.199 476.702 373.579C476.5 373.959 476.178 374.265 475.736 374.497C475.302 374.73 474.752 374.846 474.085 374.846H472.724V377.963H471.096V369.845H474.085C474.713 369.845 475.248 369.954 475.69 370.171C476.132 370.388 476.461 370.687 476.678 371.067C476.903 371.446 477.016 371.877 477.016 372.358ZM474.015 373.532C474.465 373.532 474.798 373.431 475.015 373.23C475.232 373.02 475.341 372.73 475.341 372.358C475.341 371.567 474.899 371.171 474.015 371.171H472.724V373.532H474.015ZM480.033 369.357V377.963H478.404V369.357H480.033ZM481.455 374.718C481.455 374.067 481.583 373.49 481.839 372.986C482.103 372.482 482.455 372.094 482.897 371.823C483.347 371.551 483.847 371.415 484.398 371.415C484.878 371.415 485.297 371.512 485.654 371.706C486.018 371.9 486.309 372.144 486.526 372.439V371.52H488.166V377.963H486.526V377.021C486.317 377.324 486.026 377.576 485.654 377.777C485.289 377.971 484.867 378.068 484.386 378.068C483.843 378.068 483.347 377.928 482.897 377.649C482.455 377.37 482.103 376.979 481.839 376.475C481.583 375.963 481.455 375.378 481.455 374.718ZM486.526 374.742C486.526 374.346 486.448 374.009 486.293 373.73C486.138 373.443 485.929 373.226 485.665 373.079C485.402 372.924 485.119 372.846 484.816 372.846C484.514 372.846 484.235 372.92 483.979 373.067C483.723 373.214 483.514 373.431 483.351 373.718C483.196 373.997 483.118 374.331 483.118 374.718C483.118 375.106 483.196 375.447 483.351 375.742C483.514 376.029 483.723 376.25 483.979 376.405C484.243 376.56 484.522 376.637 484.816 376.637C485.119 376.637 485.402 376.564 485.665 376.416C485.929 376.261 486.138 376.044 486.293 375.765C486.448 375.478 486.526 375.137 486.526 374.742ZM496.153 371.52L492.164 381.01H490.431L491.826 377.8L489.244 371.52H491.07L492.734 376.021L494.42 371.52H496.153ZM503.253 374.602C503.253 374.835 503.237 375.044 503.206 375.23H498.496C498.535 375.695 498.698 376.06 498.984 376.323C499.271 376.587 499.624 376.719 500.043 376.719C500.648 376.719 501.078 376.459 501.334 375.94H503.09C502.904 376.56 502.547 377.072 502.02 377.475C501.493 377.87 500.845 378.068 500.078 378.068C499.457 378.068 498.899 377.932 498.403 377.661C497.914 377.382 497.531 376.99 497.252 376.486C496.98 375.982 496.844 375.401 496.844 374.742C496.844 374.075 496.98 373.49 497.252 372.986C497.523 372.482 497.903 372.094 498.391 371.823C498.88 371.551 499.442 371.415 500.078 371.415C500.69 371.415 501.237 371.547 501.718 371.811C502.206 372.075 502.582 372.451 502.846 372.939C503.117 373.42 503.253 373.974 503.253 374.602ZM501.566 374.137C501.559 373.718 501.407 373.385 501.113 373.137C500.818 372.881 500.458 372.753 500.031 372.753C499.628 372.753 499.287 372.877 499.008 373.125C498.736 373.365 498.57 373.703 498.508 374.137H501.566ZM506.302 372.52C506.511 372.179 506.783 371.912 507.116 371.718C507.457 371.524 507.845 371.427 508.279 371.427V373.137H507.849C507.337 373.137 506.949 373.257 506.686 373.497C506.43 373.738 506.302 374.156 506.302 374.753V377.963H504.674V371.52H506.302V372.52Z" fill="white"/>
<rect opacity="0.2" x="433.396" y="412.962" width="65.2567" height="16.3142" rx="4.13809" fill="white"/>
<path d="M443.395 417.418L444.33 419.354C444.383 419.467 444.49 419.541 444.611 419.561L446.704 419.872C447.009 419.917 447.13 420.302 446.912 420.519L445.396 422.025C445.309 422.114 445.27 422.238 445.289 422.361L445.648 424.49C445.701 424.801 445.381 425.038 445.105 424.89L443.23 423.887C443.124 423.828 442.993 423.828 442.881 423.887L441.006 424.89C440.735 425.038 440.415 424.801 440.464 424.49L440.822 422.361C440.842 422.238 440.803 422.114 440.716 422.025L439.199 420.519C438.976 420.297 439.102 419.917 439.407 419.872L441.5 419.561C441.622 419.541 441.728 419.467 441.781 419.354L442.717 417.418C442.852 417.136 443.25 417.136 443.385 417.418H443.395Z" fill="white"/>
<path d="M454.952 417.418L455.888 419.354C455.941 419.467 456.047 419.541 456.169 419.561L458.262 419.872C458.567 419.917 458.688 420.302 458.47 420.519L456.954 422.025C456.866 422.114 456.828 422.238 456.847 422.361L457.205 424.489C457.259 424.801 456.939 425.038 456.663 424.889L454.788 423.887C454.681 423.828 454.55 423.828 454.439 423.887L452.564 424.889C452.293 425.038 451.973 424.801 452.021 424.489L452.38 422.361C452.399 422.238 452.36 422.114 452.273 422.025L450.757 420.519C450.534 420.297 450.66 419.917 450.965 419.872L453.058 419.561C453.179 419.541 453.286 419.467 453.339 419.354L454.274 417.418C454.41 417.136 454.807 417.136 454.943 417.418H454.952Z" fill="white"/>
<path d="M466.511 417.418L467.446 419.354C467.499 419.467 467.606 419.541 467.727 419.561L469.82 419.872C470.125 419.917 470.247 420.302 470.029 420.519L468.512 422.025C468.425 422.114 468.386 422.238 468.405 422.361L468.764 424.489C468.817 424.801 468.498 425.038 468.221 424.889L466.346 423.887C466.24 423.828 466.109 423.828 465.997 423.887L464.122 424.889C463.851 425.038 463.531 424.801 463.58 424.489L463.938 422.361C463.958 422.238 463.919 422.114 463.832 422.025L462.315 420.519C462.092 420.297 462.218 419.917 462.524 419.872L464.617 419.561C464.738 419.541 464.844 419.467 464.898 419.354L465.833 417.418C465.968 417.136 466.366 417.136 466.501 417.418H466.511Z" fill="white"/>
<path d="M478.069 417.418L479.004 419.354C479.057 419.467 479.164 419.541 479.285 419.561L481.378 419.872C481.683 419.917 481.804 420.302 481.586 420.519L480.07 422.025C479.982 422.114 479.944 422.238 479.963 422.361L480.322 424.489C480.375 424.801 480.055 425.038 479.779 424.889L477.904 423.887C477.797 423.828 477.667 423.828 477.555 423.887L475.68 424.889C475.409 425.038 475.089 424.801 475.137 424.489L475.496 422.361C475.515 422.238 475.477 422.114 475.389 422.025L473.873 420.519C473.65 420.297 473.776 419.917 474.081 419.872L476.174 419.561C476.295 419.541 476.402 419.467 476.455 419.354L477.39 417.418C477.526 417.136 477.923 417.136 478.059 417.418H478.069Z" fill="white"/>
<path d="M489.627 417.418L490.562 419.354C490.616 419.467 490.722 419.541 490.843 419.561L492.936 419.872C493.242 419.917 493.363 420.302 493.145 420.519L491.628 422.025C491.541 422.114 491.502 422.238 491.522 422.361L491.88 424.489C491.934 424.801 491.614 425.038 491.338 424.889L489.463 423.887C489.356 423.828 489.225 423.828 489.114 423.887L487.239 424.889C486.967 425.038 486.648 424.801 486.696 424.489L487.055 422.361C487.074 422.238 487.035 422.114 486.948 422.025L485.431 420.519C485.209 420.297 485.335 419.917 485.64 419.872L487.733 419.561C487.854 419.541 487.961 419.467 488.014 419.354L488.949 417.418C489.085 417.136 489.482 417.136 489.618 417.418H489.627Z" fill="white"/>
<rect x="447.913" y="321.98" width="36.3932" height="36.3932" rx="18.1966" fill="white"/>
<path d="M464.632 336.119C463.42 336.487 462.34 337.16 461.481 338.049V348.269C462.82 349.654 464.696 350.515 466.772 350.515C468.849 350.515 470.728 349.654 472.065 348.268V338.048C470.726 336.664 468.85 335.802 466.772 335.802C466.028 335.802 465.309 335.914 464.632 336.119Z" fill="#000223"/>
<path d="M475.854 339.16C475.179 334.759 471.368 331.377 466.781 331.377C462.195 331.377 458.389 334.755 457.711 339.151C456.296 339.805 455.314 341.237 455.314 342.899V343.419C455.314 345.697 457.161 347.545 459.441 347.545H459.803V338.852C460.569 335.711 463.407 333.37 466.782 333.37C470.158 333.37 472.951 335.672 473.744 338.777V347.544H474.107C476.386 347.544 478.233 345.696 478.233 343.418V342.898C478.233 341.244 477.26 339.818 475.855 339.16H475.854Z" fill="#000223"/>
<circle opacity="0.3" cx="466.109" cy="340.175" r="21.3339" stroke="white" stroke-width="1.8824"/>
</g>
<rect x="399.256" y="307.547" width="133.453" height="133.453" rx="18.5786" stroke="white" stroke-width="1.23857"/>
<g clip-path="url(#clip9_718_12732)">
<rect x="399.256" y="1" width="133.453" height="133.453" rx="18.5786" fill="#000223"/>
<rect opacity="0.3" x="435.22" y="80.1409" width="62.0713" height="6.20713" rx="2.06904" fill="white"/>
<rect opacity="0.3" x="423.323" y="91.5206" width="85.8653" height="6.20713" rx="2.06904" fill="white"/>
<path d="M438.123 67.2531C438.58 67.3384 438.956 67.5671 439.251 67.9393C439.546 68.3115 439.693 68.7379 439.693 69.2186C439.693 69.6528 439.584 70.0366 439.367 70.37C439.158 70.6957 438.852 70.9515 438.449 71.1376C438.045 71.3237 437.569 71.4167 437.018 71.4167H433.517V63.2988H436.867C437.417 63.2988 437.89 63.388 438.286 63.5663C438.689 63.7446 438.991 63.9927 439.193 64.3106C439.402 64.6285 439.507 64.9891 439.507 65.3923C439.507 65.8652 439.379 66.2607 439.123 66.5785C438.875 66.8964 438.542 67.1213 438.123 67.2531ZM435.146 66.6483H436.634C437.022 66.6483 437.32 66.563 437.53 66.3925C437.739 66.2141 437.844 65.9621 437.844 65.6365C437.844 65.3108 437.739 65.0589 437.53 64.8805C437.32 64.7022 437.022 64.613 436.634 64.613H435.146V66.6483ZM436.785 70.0909C437.181 70.0909 437.487 69.9979 437.704 69.8118C437.929 69.6257 438.041 69.3621 438.041 69.0209C438.041 68.672 437.925 68.4006 437.693 68.2068C437.46 68.0052 437.146 67.9044 436.751 67.9044H435.146V70.0909H436.785ZM444.084 71.5214C443.464 71.5214 442.906 71.3857 442.41 71.1144C441.913 70.8352 441.522 70.4437 441.235 69.9397C440.956 69.4357 440.816 68.8542 440.816 68.1952C440.816 67.5361 440.96 66.9546 441.247 66.4506C441.541 65.9466 441.94 65.559 442.444 65.2876C442.948 65.0085 443.511 64.8689 444.131 64.8689C444.751 64.8689 445.313 65.0085 445.817 65.2876C446.321 65.559 446.717 65.9466 447.004 66.4506C447.298 66.9546 447.445 67.5361 447.445 68.1952C447.445 68.8542 447.294 69.4357 446.992 69.9397C446.697 70.4437 446.294 70.8352 445.782 71.1144C445.278 71.3857 444.712 71.5214 444.084 71.5214ZM444.084 70.1025C444.379 70.1025 444.654 70.0327 444.91 69.8932C445.174 69.7459 445.383 69.5288 445.538 69.2419C445.693 68.955 445.771 68.6061 445.771 68.1952C445.771 67.5826 445.608 67.1135 445.282 66.7879C444.964 66.4545 444.573 66.2878 444.108 66.2878C443.642 66.2878 443.251 66.4545 442.933 66.7879C442.623 67.1135 442.468 67.5826 442.468 68.1952C442.468 68.8077 442.619 69.2807 442.921 69.6141C443.231 69.9397 443.619 70.1025 444.084 70.1025ZM450.768 66.311V69.428C450.768 69.6451 450.819 69.804 450.919 69.9048C451.028 69.9979 451.206 70.0444 451.454 70.0444H452.21V71.4167H451.187C449.815 71.4167 449.128 70.7499 449.128 69.4163V66.311H448.361V64.9736H449.128V63.3802H450.768V64.9736H452.21V66.311H450.768ZM461.631 63.2988V64.613H458.246V66.6948H460.84V67.9858H458.246V71.4167H456.618V63.2988H461.631ZM462.599 68.1719C462.599 67.5206 462.727 66.943 462.983 66.439C463.247 65.935 463.599 65.5473 464.041 65.276C464.491 65.0046 464.991 64.8689 465.542 64.8689C466.022 64.8689 466.441 64.9658 466.798 65.1596C467.162 65.3535 467.453 65.5977 467.67 65.8924V64.9736H469.31V71.4167H467.67V70.4747C467.461 70.7771 467.17 71.0291 466.798 71.2307C466.433 71.4245 466.011 71.5214 465.53 71.5214C464.987 71.5214 464.491 71.3819 464.041 71.1027C463.599 70.8236 463.247 70.432 462.983 69.9281C462.727 69.4163 462.599 68.8309 462.599 68.1719ZM467.67 68.1952C467.67 67.7997 467.592 67.4624 467.437 67.1833C467.282 66.8964 467.073 66.6793 466.809 66.532C466.546 66.377 466.263 66.2994 465.96 66.2994C465.658 66.2994 465.379 66.3731 465.123 66.5204C464.867 66.6677 464.658 66.8848 464.495 67.1717C464.34 67.4508 464.262 67.7842 464.262 68.1719C464.262 68.5596 464.34 68.9007 464.495 69.1954C464.658 69.4822 464.867 69.7032 465.123 69.8583C465.387 70.0134 465.666 70.0909 465.96 70.0909C466.263 70.0909 466.546 70.0172 466.809 69.8699C467.073 69.7148 467.282 69.4977 467.437 69.2186C467.592 68.9317 467.67 68.5906 467.67 68.1952ZM472.761 65.9738C472.97 65.6326 473.242 65.3651 473.575 65.1713C473.916 64.9774 474.304 64.8805 474.738 64.8805V66.5902H474.308C473.796 66.5902 473.408 66.7104 473.145 66.9507C472.889 67.1911 472.761 67.6098 472.761 68.2068V71.4167H471.133V64.9736H472.761V65.9738ZM484.069 64.8805C484.86 64.8805 485.496 65.1248 485.976 65.6132C486.465 66.0939 486.709 66.7685 486.709 67.6369V71.4167H485.081V67.8579C485.081 67.3539 484.953 66.9701 484.697 66.7065C484.441 66.4351 484.092 66.2994 483.65 66.2994C483.208 66.2994 482.856 66.4351 482.592 66.7065C482.336 66.9701 482.208 67.3539 482.208 67.8579V71.4167H480.58V67.8579C480.58 67.3539 480.452 66.9701 480.196 66.7065C479.94 66.4351 479.591 66.2994 479.149 66.2994C478.7 66.2994 478.343 66.4351 478.079 66.7065C477.824 66.9701 477.696 67.3539 477.696 67.8579V71.4167H476.067V64.9736H477.696V65.7528C477.905 65.4814 478.172 65.2682 478.498 65.1131C478.832 64.9581 479.196 64.8805 479.591 64.8805C480.095 64.8805 480.545 64.9891 480.94 65.2062C481.336 65.4155 481.642 65.7179 481.859 66.1133C482.069 65.7412 482.371 65.4427 482.766 65.2178C483.17 64.9929 483.604 64.8805 484.069 64.8805ZM494.476 68.0556C494.476 68.2882 494.461 68.4975 494.43 68.6836H489.72C489.758 69.1488 489.921 69.5133 490.208 69.7769C490.495 70.0405 490.848 70.1723 491.266 70.1723C491.871 70.1723 492.302 69.9126 492.557 69.3931H494.314C494.128 70.0134 493.771 70.5251 493.244 70.9283C492.716 71.3237 492.069 71.5214 491.301 71.5214C490.681 71.5214 490.123 71.3857 489.627 71.1144C489.138 70.8352 488.754 70.4437 488.475 69.9397C488.204 69.4357 488.068 68.8542 488.068 68.1952C488.068 67.5284 488.204 66.943 488.475 66.439C488.747 65.935 489.126 65.5473 489.615 65.276C490.103 65.0046 490.666 64.8689 491.301 64.8689C491.914 64.8689 492.461 65.0007 492.941 65.2643C493.43 65.5279 493.806 65.904 494.069 66.3925C494.341 66.8732 494.476 67.4276 494.476 68.0556ZM492.79 67.5904C492.782 67.1717 492.631 66.8383 492.336 66.5902C492.042 66.3343 491.681 66.2064 491.255 66.2064C490.852 66.2064 490.51 66.3304 490.231 66.5785C489.96 66.8189 489.793 67.1562 489.731 67.5904H492.79ZM497.526 65.9738C497.735 65.6326 498.006 65.3651 498.34 65.1713C498.681 64.9774 499.069 64.8805 499.503 64.8805V66.5902H499.073C498.561 66.5902 498.173 66.7104 497.91 66.9507C497.654 67.1911 497.526 67.6098 497.526 68.2068V71.4167H495.897V64.9736H497.526V65.9738Z" fill="white"/>
<rect opacity="0.2" x="433.396" y="106.415" width="65.2567" height="16.3142" rx="4.13809" fill="white"/>
<path d="M443.395 110.871L444.33 112.807C444.383 112.921 444.49 112.995 444.611 113.014L446.704 113.326C447.009 113.37 447.13 113.755 446.912 113.972L445.396 115.479C445.309 115.568 445.27 115.691 445.289 115.814L445.648 117.943C445.701 118.254 445.381 118.491 445.105 118.343L443.23 117.34C443.124 117.281 442.993 117.281 442.881 117.34L441.006 118.343C440.735 118.491 440.415 118.254 440.464 117.943L440.822 115.814C440.842 115.691 440.803 115.568 440.716 115.479L439.199 113.972C438.976 113.75 439.102 113.37 439.407 113.326L441.5 113.014C441.622 112.995 441.728 112.921 441.781 112.807L442.717 110.871C442.852 110.59 443.25 110.59 443.385 110.871H443.395Z" fill="white"/>
<path d="M454.952 110.871L455.888 112.807C455.941 112.921 456.047 112.995 456.169 113.014L458.262 113.326C458.567 113.37 458.688 113.755 458.47 113.972L456.954 115.479C456.866 115.568 456.828 115.691 456.847 115.814L457.205 117.943C457.259 118.254 456.939 118.491 456.663 118.343L454.788 117.34C454.681 117.281 454.55 117.281 454.439 117.34L452.564 118.343C452.293 118.491 451.973 118.254 452.021 117.943L452.38 115.814C452.399 115.691 452.36 115.568 452.273 115.479L450.757 113.972C450.534 113.75 450.66 113.37 450.965 113.326L453.058 113.014C453.179 112.995 453.286 112.921 453.339 112.807L454.274 110.871C454.41 110.59 454.807 110.59 454.943 110.871H454.952Z" fill="white"/>
<path d="M466.511 110.871L467.446 112.807C467.499 112.921 467.606 112.995 467.727 113.014L469.82 113.326C470.125 113.37 470.247 113.755 470.029 113.972L468.512 115.479C468.425 115.568 468.386 115.691 468.405 115.814L468.764 117.943C468.817 118.254 468.498 118.491 468.221 118.343L466.346 117.34C466.24 117.281 466.109 117.281 465.997 117.34L464.122 118.343C463.851 118.491 463.531 118.254 463.58 117.943L463.938 115.814C463.958 115.691 463.919 115.568 463.832 115.479L462.315 113.972C462.092 113.75 462.218 113.37 462.524 113.326L464.617 113.014C464.738 112.995 464.844 112.921 464.898 112.807L465.833 110.871C465.968 110.59 466.366 110.59 466.501 110.871H466.511Z" fill="white"/>
<path d="M478.069 110.871L479.004 112.807C479.057 112.921 479.164 112.995 479.285 113.014L481.378 113.326C481.683 113.37 481.804 113.755 481.586 113.972L480.07 115.479C479.982 115.568 479.944 115.691 479.963 115.814L480.322 117.943C480.375 118.254 480.055 118.491 479.779 118.343L477.904 117.34C477.797 117.281 477.667 117.281 477.555 117.34L475.68 118.343C475.409 118.491 475.089 118.254 475.137 117.943L475.496 115.814C475.515 115.691 475.477 115.568 475.389 115.479L473.873 113.972C473.65 113.75 473.776 113.37 474.081 113.326L476.174 113.014C476.295 112.995 476.402 112.921 476.455 112.807L477.39 110.871C477.526 110.59 477.923 110.59 478.059 110.871H478.069Z" fill="white" fill-opacity="0.4"/>
<path d="M489.627 110.871L490.562 112.807C490.616 112.921 490.722 112.995 490.843 113.014L492.936 113.326C493.242 113.37 493.363 113.755 493.145 113.972L491.628 115.479C491.541 115.568 491.502 115.691 491.522 115.814L491.88 117.943C491.934 118.254 491.614 118.491 491.338 118.343L489.463 117.34C489.356 117.281 489.225 117.281 489.114 117.34L487.239 118.343C486.967 118.491 486.648 118.254 486.696 117.943L487.055 115.814C487.074 115.691 487.035 115.568 486.948 115.479L485.431 113.972C485.209 113.75 485.335 113.37 485.64 113.326L487.733 113.014C487.854 112.995 487.961 112.921 488.014 112.807L488.949 110.871C489.085 110.59 489.482 110.59 489.618 110.871H489.627Z" fill="white" fill-opacity="0.4"/>
<rect x="447.913" y="15.4337" width="36.3932" height="36.3932" rx="18.1966" fill="#FF6E75"/>
<path d="M456.402 31.9318H457.128V39.549H456.402C455.365 39.549 454.523 38.7072 454.523 37.6705V33.8112C454.523 32.7735 455.365 31.9318 456.402 31.9318Z" fill="white"/>
<path d="M475.564 39.5503H474.838V31.9331H475.564C476.601 31.9331 477.442 32.7748 477.442 33.8115V37.6709C477.442 38.7075 476.601 39.5493 475.564 39.5493V39.5503Z" fill="white"/>
<path d="M467.566 25.2242C467.566 24.352 466.857 23.6412 465.983 23.6412C465.11 23.6412 464.4 24.351 464.4 25.2242C464.4 25.8608 464.779 26.4101 465.323 26.6609V28.4946H466.643V26.6609C467.187 26.4101 467.566 25.8608 467.566 25.2242Z" fill="white"/>
<path d="M470.97 29.9138H460.999C459.653 29.9138 458.553 31.0145 458.553 32.3588V39.1261C458.553 40.4705 459.653 41.5711 460.999 41.5711H470.97C472.314 41.5711 473.414 40.4705 473.414 39.1261V32.3588C473.414 31.0145 472.314 29.9138 470.97 29.9138ZM463.504 34.9743C463.504 35.2434 463.284 35.4637 463.015 35.4637H462.562C462.293 35.4637 462.073 35.2434 462.073 34.9743V33.1406C462.073 32.8715 462.293 32.6522 462.562 32.6522H463.015C463.284 32.6522 463.504 32.8715 463.504 33.1406V34.9743ZM468.139 38.3443C468.139 38.6134 467.918 38.8327 467.649 38.8327H464.318C464.049 38.8327 463.829 38.6134 463.829 38.3443V37.8915C463.829 37.6224 464.049 37.4021 464.318 37.4021H467.649C467.918 37.4021 468.139 37.6224 468.139 37.8915V38.3443ZM469.895 34.9743C469.895 35.2434 469.675 35.4637 469.406 35.4637H468.953C468.684 35.4637 468.464 35.2434 468.464 34.9743V33.1406C468.464 32.8715 468.684 32.6522 468.953 32.6522H469.406C469.675 32.6522 469.895 32.8715 469.895 33.1406V34.9743Z" fill="white"/>
<circle opacity="0.3" cx="466.109" cy="33.6287" r="21.3339" stroke="white" stroke-width="1.8824"/>
</g>
<rect x="399.256" y="1" width="133.453" height="133.453" rx="18.5786" stroke="#FF6E75" stroke-width="1.23857"/>
<path d="M466.141 135.385V222.085" stroke="#FF6E75" stroke-width="1.23857" stroke-miterlimit="10" stroke-linecap="square"/>
<path d="M466.76 220.227V306.927" stroke="#FF6E75" stroke-width="1.23857" stroke-miterlimit="10" stroke-linecap="square" stroke-dasharray="6.81 6.81"/>
<rect x="441.988" y="196.075" width="49.5429" height="49.5429" rx="24.7715" fill="#FF6E75"/>
<path d="M458.088 229.517L475.428 212.177" stroke="white" stroke-width="2.47714" stroke-miterlimit="10"/>
<path d="M475.428 229.517L458.088 212.177" stroke="white" stroke-width="2.47714" stroke-miterlimit="10"/>
<defs>
<filter id="filter0_b_718_12732" x="-47.6845" y="91.4157" width="258.549" height="258.549" filterUnits="userSpaceOnUse" color-interpolation-filters="sRGB">
<feFlood flood-opacity="0" result="BackgroundImageFix"/>
<feGaussianBlur in="BackgroundImageFix" stdDeviation="30.9643"/>
<feComposite in2="SourceAlpha" operator="in" result="effect1_backgroundBlur_718_12732"/>
<feBlend mode="normal" in="SourceGraphic" in2="effect1_backgroundBlur_718_12732" result="shape"/>
</filter>
<linearGradient id="paint0_linear_718_12732" x1="228.486" y1="67.1506" x2="125.715" y2="67.1506" gradientUnits="userSpaceOnUse">
<stop offset="0.01" stop-color="#FBBE7E"/>
<stop offset="1" stop-color="#000223"/>
</linearGradient>
<linearGradient id="paint1_linear_718_12732" x1="228.486" y1="220.114" x2="125.715" y2="220.114" gradientUnits="userSpaceOnUse">
<stop offset="0.01" stop-color="#FBBE7E"/>
<stop offset="1" stop-color="#000223"/>
</linearGradient>
<linearGradient id="paint2_linear_718_12732" x1="227.867" y1="373.697" x2="125.096" y2="373.697" gradientUnits="userSpaceOnUse">
<stop offset="0.01" stop-color="#FBBE7E"/>
<stop offset="1" stop-color="#000223"/>
</linearGradient>
<linearGradient id="paint3_linear_718_12732" x1="85.7012" y1="358.239" x2="97.8569" y2="317.893" gradientUnits="userSpaceOnUse">
<stop stop-color="#FBBE7E"/>
<stop offset="1" stop-color="#FBBE7E"/>
</linearGradient>
<linearGradient id="paint4_linear_718_12732" x1="85.7012" y1="204.656" x2="97.8569" y2="164.31" gradientUnits="userSpaceOnUse">
<stop stop-color="#FBBE7E"/>
<stop offset="1" stop-color="#FBBE7E"/>
</linearGradient>
<linearGradient id="paint5_linear_718_12732" x1="85.7012" y1="51.6925" x2="97.8569" y2="11.3461" gradientUnits="userSpaceOnUse">
<stop stop-color="#FBBE7E"/>
<stop offset="1" stop-color="#FBBE7E"/>
</linearGradient>
<linearGradient id="paint6_linear_718_12732" x1="239.625" y1="67.2637" x2="297.015" y2="178.818" gradientUnits="userSpaceOnUse">
<stop stop-color="#FBBE7E" stop-opacity="0.2"/>
<stop offset="1" stop-color="#FBBE7E"/>
</linearGradient>
<linearGradient id="paint7_linear_718_12732" x1="239.625" y1="374.43" x2="297.015" y2="262.875" gradientUnits="userSpaceOnUse">
<stop stop-color="#FBBE7E" stop-opacity="0.2"/>
<stop offset="1" stop-color="#FBBE7E"/>
</linearGradient>
<linearGradient id="paint8_linear_718_12732" x1="318.779" y1="67.1505" x2="421.55" y2="67.1505" gradientUnits="userSpaceOnUse">
<stop offset="0.01" stop-color="#FF6E75"/>
<stop offset="1" stop-color="#000223"/>
</linearGradient>
<clipPath id="clip0_718_12732">
<path d="M148.629 25.1522H215.512C225.772 25.1522 234.09 33.4701 234.09 43.7308V91.883C234.09 102.144 225.772 110.462 215.512 110.462H148.629V25.1522Z" fill="white"/>
</clipPath>
<clipPath id="clip1_718_12732">
<path d="M148.629 178.116H215.512C225.772 178.116 234.09 186.434 234.09 196.694V244.847C234.09 255.107 225.772 263.425 215.512 263.425H148.629V178.116Z" fill="white"/>
</clipPath>
<clipPath id="clip2_718_12732">
<rect x="290.445" y="178.116" width="85.4615" height="85.3093" rx="18.5786" fill="white"/>
</clipPath>
<clipPath id="clip3_718_12732">
<path d="M148.01 331.699H214.893C225.153 331.699 233.471 340.017 233.471 350.277V398.429C233.471 408.69 225.153 417.008 214.893 417.008H148.01V331.699Z" fill="white"/>
</clipPath>
<clipPath id="clip4_718_12732">
<rect x="14.8633" y="307.547" width="133.453" height="133.453" rx="18.5786" fill="white"/>
</clipPath>
<clipPath id="clip5_718_12732">
<rect x="14.8633" y="153.964" width="133.453" height="133.453" rx="18.5786" fill="white"/>
</clipPath>
<clipPath id="clip6_718_12732">
<rect x="14.8633" y="1" width="133.453" height="133.453" rx="18.5786" fill="white"/>
</clipPath>
<clipPath id="clip7_718_12732">
<path d="M398.637 25.1521H331.754C321.493 25.1521 313.175 33.47 313.175 43.7307V91.8828C313.175 102.144 321.493 110.461 331.754 110.461H398.637V25.1521Z" fill="white"/>
</clipPath>
<clipPath id="clip8_718_12732">
<rect x="399.256" y="307.547" width="133.453" height="133.453" rx="18.5786" fill="white"/>
</clipPath>
<clipPath id="clip9_718_12732">
<rect x="399.256" y="1" width="133.453" height="133.453" rx="18.5786" fill="white"/>
</clipPath>
</defs>
</svg>
