<svg width="560" height="353" viewBox="0 0 560 353" fill="none" xmlns="http://www.w3.org/2000/svg">
<rect x="195.984" width="96.8549" height="96.8549" rx="48.4274" fill="url(#paint0_linear_792_25474)"/>
<g filter="url(#filter0_b_792_25474)">
<rect x="166.035" y="14.6558" width="227.482" height="337.08" rx="19.1161" fill="url(#paint1_radial_792_25474)"/>
<rect x="166.035" y="14.6558" width="227.482" height="337.08" rx="19.1161" stroke="white" stroke-opacity="0.4" stroke-width="1.27441"/>
<rect x="223.383" y="274.635" width="136.361" height="50.9762" rx="11.4697" fill="white" fill-opacity="0.2"/>
<rect x="236.127" y="287.379" width="55.4367" height="3.82322" rx="1.61733" fill="white" fill-opacity="0.1"/>
<rect x="236.127" y="297.574" width="110.236" height="4.46042" rx="1.61733" fill="white" fill-opacity="0.1"/>
<rect x="236.127" y="308.406" width="110.236" height="4.46042" rx="1.61733" fill="white" fill-opacity="0.1"/>
<rect x="178.779" y="268.262" width="38.2322" height="38.2322" rx="19.1161" fill="url(#paint2_linear_792_25474)"/>
<path d="M191.659 285.142C189.98 283.877 189.112 281.853 188.971 280.157C188.95 279.889 188.715 279.732 188.479 279.732C188.307 279.732 188.134 279.815 188.04 279.991C186.33 283.212 187.01 287.64 188.945 289.409C189.4 288.129 190.142 286.853 191.11 285.739C191.287 285.533 191.47 285.338 191.659 285.147V285.142ZM207.754 279.991C207.66 279.815 207.487 279.732 207.315 279.732C207.074 279.732 206.844 279.884 206.818 280.157C206.677 281.853 205.809 283.881 204.13 285.147C204.318 285.338 204.501 285.533 204.679 285.739C205.647 286.853 206.389 288.129 206.844 289.409C208.779 287.64 209.459 283.217 207.754 279.991ZM200.731 284.199V290.993H205.95C205.448 288.388 203.424 285.48 200.731 284.199ZM195.063 290.993V284.199C192.37 285.475 190.351 288.383 189.844 290.993H195.063ZM206.143 292.2H189.651C189.353 292.2 189.112 292.424 189.112 292.703V294.917C189.112 295.196 189.353 295.42 189.651 295.42H206.138C206.436 295.42 206.677 295.196 206.677 294.917V292.703C206.677 292.424 206.436 292.2 206.138 292.2H206.143ZM199.44 283.73C198.943 283.603 198.425 283.534 197.897 283.534C197.369 283.534 196.856 283.603 196.354 283.73V290.988H199.434V283.73H199.44Z" fill="white"/>
<rect x="223.383" y="114.059" width="136.361" height="53.5251" rx="11.4697" fill="white" fill-opacity="0.2"/>
<rect x="236.127" y="128.078" width="97.4921" height="3.82322" rx="1.61733" fill="white" fill-opacity="0.1"/>
<rect x="236.127" y="138.273" width="110.236" height="4.46042" rx="1.61733" fill="white" fill-opacity="0.1"/>
<rect x="236.127" y="149.105" width="79.6504" height="4.46042" rx="1.61733" fill="white" fill-opacity="0.1"/>
<rect x="178.779" y="107.687" width="38.2322" height="38.2322" rx="19.1161" fill="#FBBE7E"/>
<path d="M189.044 124.904H189.715V131.941H189.044C188.086 131.941 187.309 131.163 187.309 130.206V126.64C187.309 125.681 188.086 124.904 189.044 124.904Z" fill="#000223"/>
<path d="M206.747 131.943H206.076V124.905H206.747C207.705 124.905 208.482 125.683 208.482 126.641V130.206C208.482 131.164 207.705 131.942 206.747 131.942V131.943Z" fill="#000223"/>
<path d="M199.359 118.707C199.359 117.902 198.703 117.245 197.896 117.245C197.089 117.245 196.434 117.901 196.434 118.707C196.434 119.296 196.784 119.803 197.286 120.035V121.729H198.506V120.035C199.008 119.803 199.359 119.296 199.359 118.707Z" fill="#000223"/>
<path d="M202.503 123.042H193.291C192.048 123.042 191.031 124.059 191.031 125.301V131.553C191.031 132.795 192.048 133.812 193.291 133.812H202.503C203.745 133.812 204.762 132.795 204.762 131.553V125.301C204.762 124.059 203.745 123.042 202.503 123.042ZM195.605 127.717C195.605 127.966 195.403 128.169 195.154 128.169H194.736C194.487 128.169 194.284 127.966 194.284 127.717V126.023C194.284 125.774 194.487 125.572 194.736 125.572H195.154C195.403 125.572 195.605 125.774 195.605 126.023V127.717ZM199.888 130.831C199.888 131.079 199.684 131.282 199.436 131.282H196.358C196.109 131.282 195.906 131.079 195.906 130.831V130.412C195.906 130.164 196.109 129.96 196.358 129.96H199.436C199.684 129.96 199.888 130.164 199.888 130.412V130.831ZM201.511 127.717C201.511 127.966 201.307 128.169 201.059 128.169H200.64C200.392 128.169 200.188 127.966 200.188 127.717V126.023C200.188 125.774 200.392 125.572 200.64 125.572H201.059C201.307 125.572 201.511 125.774 201.511 126.023V127.717Z" fill="#000223"/>
<rect x="199.807" y="194.347" width="136.361" height="53.5251" rx="11.4697" fill="white" fill-opacity="0.2"/>
<rect x="212.551" y="208.365" width="66.2691" height="3.82322" rx="1.61733" fill="white" fill-opacity="0.1"/>
<rect x="212.551" y="218.561" width="110.236" height="4.46042" rx="1.61733" fill="white" fill-opacity="0.1"/>
<rect x="212.551" y="229.393" width="49.7018" height="4.46042" rx="1.61733" fill="white" fill-opacity="0.1"/>
<rect x="342.541" y="187.975" width="38.2322" height="38.2322" rx="19.1161" fill="white"/>
<g clip-path="url(#clip0_792_25474)">
<path d="M360.736 206.312C360.955 206.34 361.177 206.354 361.404 206.354C361.659 206.354 361.909 206.336 362.154 206.3C364.683 205.937 366.626 203.762 366.626 201.132C366.626 198.248 364.288 195.91 361.404 195.91C358.52 195.91 356.182 198.248 356.182 201.132C356.182 203.791 358.167 205.984 360.736 206.312Z" fill="#010223"/>
<path d="M371.226 213.723C371.222 210.172 368.315 207.384 367.032 206.31C366.803 206.117 366.474 206.105 366.228 206.279C365.723 206.636 364.865 207.153 363.733 207.488C363.747 207.515 363.76 207.542 363.773 207.57C364.09 208.259 364.061 209.047 363.686 209.909C363.662 209.965 363.636 210.019 363.608 210.073C363.264 210.906 362.921 211.739 362.578 212.571L362.317 211.481L362.156 210.804L361.987 210.098C362.126 209.97 362.266 209.806 362.384 209.602C362.422 209.536 362.458 209.465 362.491 209.389C362.607 209.121 362.81 208.595 362.589 208.115C362.521 207.967 362.424 207.855 362.314 207.773C362.028 207.555 361.654 207.528 361.477 207.528C361.434 207.528 361.403 207.53 361.387 207.531C361.268 207.537 360.892 207.555 360.602 207.775C360.493 207.857 360.397 207.968 360.33 208.115C360.122 208.574 360.32 209.082 360.455 209.387C360.482 209.449 360.511 209.507 360.543 209.563C360.659 209.777 360.8 209.95 360.94 210.089L360.769 210.805L360.606 211.49L360.345 212.582C359.991 211.708 359.636 210.832 359.281 209.957C359.227 209.822 359.172 209.686 359.117 209.551C359.117 209.55 359.116 209.548 359.116 209.547C359.114 209.542 359.112 209.538 359.111 209.533C358.951 209.067 358.802 208.33 359.142 207.577C359.154 207.551 359.168 207.522 359.184 207.491C358.068 207.163 357.222 206.653 356.699 206.28C356.455 206.105 356.125 206.118 355.896 206.311C354.612 207.386 351.707 210.173 351.703 213.723C351.702 214.568 351.7 215.967 352.756 217.004C353.793 218.026 355.221 218.074 355.667 218.072H367.262C367.709 218.074 369.136 218.026 370.174 217.004C371.229 215.967 371.227 214.568 371.226 213.723Z" fill="#010223"/>
</g>
<rect x="199.807" y="46.5157" width="136.361" height="40.781" rx="11.4697" fill="white" fill-opacity="0.2"/>
<rect x="212.551" y="59.897" width="59.8971" height="3.82322" rx="1.61733" fill="white" fill-opacity="0.1"/>
<rect x="212.551" y="70.0923" width="110.236" height="4.46042" rx="1.61733" fill="white" fill-opacity="0.1"/>
<rect x="342.541" y="40.1438" width="38.2322" height="38.2322" rx="19.1161" fill="#FF6E75"/>
<path d="M359.681 54.8179C358.561 55.1582 357.562 55.7804 356.77 56.6015V66.044C358.006 67.3232 359.739 68.1189 361.658 68.1189C363.576 68.1189 365.313 67.3232 366.548 66.043V56.6006C365.311 55.3213 363.577 54.5256 361.658 54.5256C360.97 54.5256 360.306 54.6284 359.681 54.8179Z" fill="white"/>
<path d="M370.047 57.6268C369.423 53.5607 365.902 50.4365 361.665 50.4365C357.427 50.4365 353.911 53.557 353.285 57.6192C351.977 58.2235 351.07 59.5462 351.07 61.0819V61.5617C351.07 63.6669 352.777 65.3741 354.883 65.3741H355.217V57.343C355.925 54.4403 358.547 52.2777 361.666 52.2777C364.784 52.2777 367.365 54.4045 368.098 57.2732V65.3732H368.433C370.539 65.3732 372.245 63.6659 372.245 61.5608V61.0809C372.245 59.5528 371.346 58.2348 370.048 57.6268H370.047Z" fill="white"/>
<path d="M378.861 57.9854H390.331C396.666 57.9854 401.801 63.1205 401.801 69.455V87.2967C401.801 93.6312 406.936 98.7664 413.27 98.7664H417.094" stroke="#FF6E75" stroke-width="1.27441"/>
<path d="M378.223 205.179H390.967C396.597 205.179 401.162 209.744 401.162 215.375V235.765C401.162 241.396 405.727 245.96 411.357 245.96H416.455" stroke="white" stroke-width="1.27441"/>
<path d="M141.82 87.934H145.926C152.26 87.934 157.395 93.0691 157.395 99.4036V117.245C157.395 123.58 162.531 128.715 168.865 128.715H178.778" stroke="#FBBE7E" stroke-width="1.27441"/>
<path d="M141.82 248.509H145.926C152.26 248.509 157.395 253.644 157.395 259.979V277.821C157.395 284.155 162.531 289.29 168.865 289.29H178.778" stroke="#FF6E75" stroke-width="1.27441"/>
</g>
<g filter="url(#filter1_b_792_25474)">
<g clip-path="url(#clip1_792_25474)">
<rect x="418" y="13.2402" width="140.822" height="140.822" rx="19.1161" fill="#000223" fill-opacity="0.2"/>
<rect opacity="0.3" x="455.252" y="96.7509" width="65.4986" height="6.54986" rx="2.18329" fill="white"/>
<rect opacity="0.3" x="442.697" y="108.759" width="90.6063" height="6.54986" rx="2.18329" fill="white"/>
<path d="M469.468 82.5317C469.468 81.689 469.656 80.9362 470.032 80.2735C470.417 79.6026 470.937 79.0831 471.591 78.7149C472.254 78.3386 472.994 78.1504 473.812 78.1504C474.77 78.1504 475.608 78.3958 476.328 78.8867C477.048 79.3776 477.551 80.0567 477.838 80.924H475.862C475.666 80.5149 475.387 80.2081 475.027 80.0035C474.676 79.799 474.266 79.6967 473.8 79.6967C473.301 79.6967 472.855 79.8154 472.462 80.0526C472.078 80.2817 471.775 80.609 471.554 81.0344C471.342 81.4599 471.235 81.959 471.235 82.5317C471.235 83.0962 471.342 83.5953 471.554 84.0289C471.775 84.4544 472.078 84.7857 472.462 85.023C472.855 85.2521 473.301 85.3666 473.8 85.3666C474.266 85.3666 474.676 85.2643 475.027 85.0598C475.387 84.8471 475.666 84.5362 475.862 84.1271H477.838C477.551 85.0025 477.048 85.6857 476.328 86.1766C475.616 86.6593 474.778 86.9007 473.812 86.9007C472.994 86.9007 472.254 86.7166 471.591 86.3484C470.937 85.972 470.417 85.4525 470.032 84.7898C469.656 84.1271 469.468 83.3744 469.468 82.5317ZM481.269 77.7454V86.827H479.551V77.7454H481.269ZM484.083 79.2181C483.78 79.2181 483.527 79.124 483.322 78.9358C483.126 78.7395 483.028 78.4981 483.028 78.2118C483.028 77.9254 483.126 77.6881 483.322 77.5C483.527 77.3036 483.78 77.2054 484.083 77.2054C484.386 77.2054 484.635 77.3036 484.832 77.5C485.036 77.6881 485.139 77.9254 485.139 78.2118C485.139 78.4981 485.036 78.7395 484.832 78.9358C484.635 79.124 484.386 79.2181 484.083 79.2181ZM484.93 80.0281V86.827H483.212V80.0281H484.93ZM493.193 83.2803C493.193 83.5257 493.177 83.7466 493.144 83.943H488.174C488.215 84.4339 488.387 84.8184 488.689 85.0966C488.992 85.3748 489.364 85.5139 489.806 85.5139C490.444 85.5139 490.898 85.2398 491.168 84.6916H493.021C492.825 85.3461 492.449 85.8861 491.892 86.3116C491.336 86.7288 490.653 86.9375 489.843 86.9375C489.188 86.9375 488.599 86.7943 488.076 86.5079C487.56 86.2134 487.155 85.8002 486.861 85.2684C486.574 84.7366 486.431 84.123 486.431 83.4276C486.431 82.7239 486.574 82.1062 486.861 81.5744C487.147 81.0426 487.548 80.6335 488.063 80.3472C488.579 80.0608 489.172 79.9176 489.843 79.9176C490.489 79.9176 491.066 80.0567 491.573 80.3349C492.089 80.6131 492.486 81.0099 492.764 81.5253C493.05 82.0326 493.193 82.6176 493.193 83.2803ZM491.414 82.7894C491.406 82.3476 491.246 81.9958 490.935 81.734C490.624 81.464 490.244 81.329 489.794 81.329C489.368 81.329 489.008 81.4599 488.714 81.7217C488.427 81.9753 488.252 82.3312 488.186 82.7894H491.414ZM498.46 79.9299C499.27 79.9299 499.925 80.1876 500.424 80.7031C500.923 81.2103 501.173 81.9221 501.173 82.8385V86.827H499.455V83.0717C499.455 82.5317 499.32 82.1185 499.05 81.8321C498.78 81.5376 498.411 81.3903 497.945 81.3903C497.471 81.3903 497.094 81.5376 496.816 81.8321C496.546 82.1185 496.411 82.5317 496.411 83.0717V86.827H494.693V80.0281H496.411V80.8749C496.64 80.5803 496.931 80.3513 497.282 80.1876C497.642 80.0158 498.035 79.9299 498.46 79.9299ZM505.052 81.4394V84.7284C505.052 84.9575 505.106 85.1252 505.212 85.2316C505.327 85.3298 505.515 85.3789 505.777 85.3789H506.574V86.827H505.494C504.046 86.827 503.322 86.1234 503.322 84.7162V81.4394H502.512V80.0281H503.322V78.3468H505.052V80.0281H506.574V81.4394H505.052Z" fill="white"/>
<rect opacity="0.2" x="454.021" y="124.476" width="68.8598" height="17.215" rx="4.36657" fill="white"/>
<path d="M464.572 129.178L465.559 131.221C465.615 131.34 465.728 131.419 465.856 131.439L468.064 131.768C468.386 131.815 468.514 132.221 468.284 132.45L466.684 134.04C466.592 134.133 466.551 134.264 466.571 134.394L466.95 136.64C467.006 136.968 466.668 137.218 466.377 137.062L464.398 136.004C464.286 135.942 464.148 135.942 464.03 136.004L462.052 137.062C461.765 137.218 461.428 136.968 461.479 136.64L461.857 134.394C461.878 134.264 461.837 134.133 461.745 134.04L460.145 132.45C459.91 132.216 460.042 131.815 460.365 131.768L462.573 131.439C462.701 131.419 462.813 131.34 462.87 131.221L463.856 129.178C464 128.881 464.419 128.881 464.562 129.178H464.572Z" fill="white"/>
<path d="M476.77 129.178L477.756 131.221C477.812 131.34 477.925 131.419 478.053 131.439L480.261 131.768C480.583 131.815 480.711 132.221 480.481 132.45L478.881 134.04C478.789 134.133 478.748 134.264 478.769 134.394L479.147 136.64C479.203 136.968 478.866 137.218 478.574 137.062L476.596 136.004C476.483 135.942 476.345 135.942 476.228 136.004L474.249 137.062C473.963 137.218 473.625 136.968 473.676 136.64L474.055 134.394C474.075 134.264 474.034 134.133 473.942 134.04L472.342 132.45C472.107 132.216 472.24 131.815 472.562 131.768L474.77 131.439C474.898 131.419 475.011 131.34 475.067 131.221L476.054 129.178C476.197 128.881 476.616 128.881 476.759 129.178H476.77Z" fill="white"/>
<path d="M488.965 129.178L489.952 131.221C490.008 131.34 490.12 131.419 490.248 131.439L492.457 131.768C492.779 131.815 492.907 132.221 492.677 132.45L491.076 134.04C490.984 134.133 490.943 134.264 490.964 134.394L491.342 136.64C491.398 136.968 491.061 137.218 490.77 137.062L488.791 136.004C488.679 135.942 488.54 135.942 488.423 136.004L486.444 137.062C486.158 137.218 485.821 136.968 485.872 136.64L486.25 134.394C486.27 134.264 486.23 134.133 486.138 134.04L484.537 132.45C484.302 132.216 484.435 131.815 484.757 131.768L486.966 131.439C487.094 131.419 487.206 131.34 487.262 131.221L488.249 129.178C488.392 128.881 488.811 128.881 488.955 129.178H488.965Z" fill="white"/>
<path d="M501.16 129.178L502.147 131.221C502.203 131.34 502.316 131.419 502.443 131.439L504.652 131.768C504.974 131.815 505.102 132.221 504.872 132.45L503.272 134.04C503.18 134.133 503.139 134.264 503.159 134.394L503.537 136.64C503.594 136.968 503.256 137.218 502.965 137.062L500.986 136.004C500.874 135.942 500.736 135.942 500.618 136.004L498.64 137.062C498.353 137.218 498.016 136.968 498.067 136.64L498.445 134.394C498.466 134.264 498.425 134.133 498.333 134.04L496.733 132.45C496.497 132.216 496.63 131.815 496.952 131.768L499.161 131.439C499.289 131.419 499.401 131.34 499.458 131.221L500.444 129.178C500.587 128.881 501.007 128.881 501.15 129.178H501.16Z" fill="white"/>
<path d="M513.357 129.178L514.344 131.221C514.4 131.34 514.513 131.419 514.641 131.439L516.849 131.768C517.171 131.815 517.299 132.221 517.069 132.45L515.469 134.04C515.377 134.133 515.336 134.264 515.356 134.394L515.735 136.64C515.791 136.968 515.454 137.218 515.162 137.062L513.184 136.004C513.071 135.942 512.933 135.942 512.815 136.004L510.837 137.062C510.551 137.218 510.213 136.968 510.264 136.64L510.643 134.394C510.663 134.264 510.622 134.133 510.53 134.04L508.93 132.45C508.695 132.216 508.828 131.815 509.15 131.768L511.358 131.439C511.486 131.419 511.599 131.34 511.655 131.221L512.642 129.178C512.785 128.881 513.204 128.881 513.347 129.178H513.357Z" fill="white"/>
<rect x="469.342" y="28.4708" width="38.4026" height="38.4026" rx="19.2013" fill="#FF6E75"/>
<path d="M486.286 42.6903C485.007 43.079 483.866 43.7897 482.961 44.7275V55.5119C484.374 56.973 486.353 57.8817 488.544 57.8817C490.735 57.8817 492.718 56.973 494.129 55.5108V44.7264C492.716 43.2653 490.736 42.3566 488.544 42.3566C487.759 42.3566 487 42.4739 486.286 42.6903Z" fill="white"/>
<path d="M498.126 45.8991C497.415 41.2552 493.393 37.687 488.553 37.687C483.713 37.687 479.697 41.2509 478.982 45.8905C477.489 46.5807 476.453 48.0913 476.453 49.8453V50.3933C476.453 52.7976 478.402 54.7476 480.807 54.7476H481.19V45.575C481.998 42.2598 484.993 39.7898 488.554 39.7898C492.116 39.7898 495.063 42.2189 495.901 45.4953V54.7465H496.283C498.688 54.7465 500.637 52.7965 500.637 50.3922V49.8442C500.637 48.0988 499.61 46.5936 498.127 45.8991H498.126Z" fill="white"/>
<circle opacity="0.3" cx="488.543" cy="47.6707" r="22.5119" stroke="white" stroke-width="1.98634"/>
</g>
<rect x="418" y="13.2402" width="140.822" height="140.822" rx="19.1161" stroke="#FF6E75" stroke-width="1.09164"/>
</g>
<g filter="url(#filter2_b_792_25474)">
<g clip-path="url(#clip2_792_25474)">
<rect x="1" y="14.6558" width="140.822" height="140.822" rx="19.1161" fill="#000223" fill-opacity="0.2"/>
<rect opacity="0.3" x="38.9512" y="103.899" width="65.4986" height="6.54986" rx="2.18329" fill="white"/>
<rect opacity="0.3" x="26.3984" y="116.82" width="90.6063" height="6.54986" rx="2.18329" fill="white"/>
<rect opacity="0.3" x="26.498" y="129.74" width="90.6063" height="6.54986" rx="2.18329" fill="white"/>
<path d="M42.008 86.6095H38.5962L38.0317 88.2417H36.2276L39.308 79.6633H41.3084L44.3888 88.2417H42.5725L42.008 86.6095ZM41.5416 85.2349L40.3021 81.6514L39.0626 85.2349H41.5416ZM47.5038 79.6755V88.2417H45.7857V79.6755H47.5038ZM52.1993 83.9463C52.1993 83.1036 52.3874 82.3509 52.7638 81.6882C53.1483 81.0173 53.6679 80.4978 54.3224 80.1296C54.9851 79.7533 55.7256 79.5651 56.5437 79.5651C57.501 79.5651 58.3396 79.8105 59.0596 80.3014C59.7796 80.7923 60.2827 81.4714 60.5691 82.3386H58.5932C58.3969 81.9296 58.1187 81.6228 57.7587 81.4182C57.4069 81.2137 56.9978 81.1114 56.5314 81.1114C56.0324 81.1114 55.5865 81.23 55.1937 81.4673C54.8092 81.6964 54.5065 82.0237 54.2856 82.4491C54.0729 82.8745 53.9665 83.3736 53.9665 83.9463C53.9665 84.5109 54.0729 85.01 54.2856 85.4436C54.5065 85.869 54.8092 86.2004 55.1937 86.4376C55.5865 86.6667 56.0324 86.7813 56.5314 86.7813C56.9978 86.7813 57.4069 86.679 57.7587 86.4745C58.1187 86.2617 58.3969 85.9508 58.5932 85.5418H60.5691C60.2827 86.4172 59.7796 87.1004 59.0596 87.5913C58.3478 88.074 57.5092 88.3153 56.5437 88.3153C55.7256 88.3153 54.9851 88.1312 54.3224 87.7631C53.6679 87.3867 53.1483 86.8672 52.7638 86.2045C52.3874 85.5418 52.1993 84.789 52.1993 83.9463ZM66.1111 81.3446C66.6265 81.3446 67.0847 81.4591 67.4856 81.6882C67.8865 81.9091 68.1974 82.2405 68.4183 82.6823C68.6474 83.1159 68.7619 83.6395 68.7619 84.2532V88.2417H67.0438V84.4863C67.0438 83.9463 66.9088 83.5332 66.6388 83.2468C66.3688 82.9523 66.0006 82.805 65.5342 82.805C65.0597 82.805 64.6834 82.9523 64.4052 83.2468C64.1352 83.5332 64.0002 83.9463 64.0002 84.4863V88.2417H62.282V79.1601H64.0002V82.2896C64.2211 81.995 64.5156 81.7659 64.8838 81.6023C65.252 81.4305 65.6611 81.3446 66.1111 81.3446ZM70.1994 84.8177C70.1994 84.1304 70.3344 83.5209 70.6044 82.9891C70.8826 82.4573 71.2548 82.0482 71.7212 81.7618C72.1957 81.4755 72.7234 81.3323 73.3043 81.3323C73.8116 81.3323 74.2534 81.4346 74.6298 81.6391C75.0143 81.8437 75.3211 82.1014 75.5502 82.4123V81.4428H77.2806V88.2417H75.5502V87.2476C75.3293 87.5667 75.0225 87.8326 74.6298 88.0453C74.2452 88.2499 73.7993 88.3522 73.2921 88.3522C72.7194 88.3522 72.1957 88.2049 71.7212 87.9103C71.2548 87.6158 70.8826 87.2026 70.6044 86.6708C70.3344 86.1308 70.1994 85.5131 70.1994 84.8177ZM75.5502 84.8422C75.5502 84.425 75.4684 84.0691 75.3048 83.7745C75.1411 83.4718 74.9202 83.2427 74.642 83.0873C74.3639 82.9236 74.0652 82.8418 73.7461 82.8418C73.4271 82.8418 73.1325 82.9195 72.8625 83.075C72.5925 83.2304 72.3716 83.4595 72.1998 83.7623C72.0362 84.0568 71.9544 84.4086 71.9544 84.8177C71.9544 85.2268 72.0362 85.5868 72.1998 85.8977C72.3716 86.2004 72.5925 86.4336 72.8625 86.5972C73.1407 86.7608 73.4352 86.8426 73.7461 86.8426C74.0652 86.8426 74.3639 86.7649 74.642 86.6095C74.9202 86.4458 75.1411 86.2167 75.3048 85.9222C75.4684 85.6195 75.5502 85.2595 75.5502 84.8422ZM81.2045 82.8541V86.1431C81.2045 86.3722 81.2577 86.5399 81.3641 86.6463C81.4786 86.7445 81.6668 86.7935 81.9286 86.7935H82.7263V88.2417H81.6464C80.1982 88.2417 79.4741 87.5381 79.4741 86.1308V82.8541H78.6641V81.4428H79.4741V79.7614H81.2045V81.4428H82.7263V82.8541H81.2045ZM92.2372 83.8482C92.7199 83.9382 93.1167 84.1795 93.4276 84.5722C93.7385 84.965 93.894 85.4149 93.894 85.9222C93.894 86.3804 93.7794 86.7854 93.5503 87.1372C93.3294 87.4808 93.0063 87.7508 92.5808 87.9472C92.1554 88.1435 91.6522 88.2417 91.0713 88.2417H87.3773V79.6755H90.9118C91.4927 79.6755 91.9917 79.7696 92.409 79.9578C92.8345 80.146 93.1535 80.4078 93.3663 80.7432C93.5872 81.0787 93.6976 81.4591 93.6976 81.8846C93.6976 82.3836 93.5626 82.8009 93.2926 83.1364C93.0308 83.4718 92.679 83.7091 92.2372 83.8482ZM89.0954 83.21H90.6663C91.0754 83.21 91.3904 83.12 91.6113 82.94C91.8322 82.7518 91.9427 82.4859 91.9427 82.1423C91.9427 81.7987 91.8322 81.5328 91.6113 81.3446C91.3904 81.1564 91.0754 81.0623 90.6663 81.0623H89.0954V83.21ZM90.8259 86.8426C91.2431 86.8426 91.5663 86.7445 91.7954 86.5481C92.0327 86.3517 92.1513 86.0736 92.1513 85.7136C92.1513 85.3454 92.0286 85.059 91.7831 84.8545C91.5377 84.6418 91.2063 84.5354 90.789 84.5354H89.0954V86.8426H90.8259ZM98.5278 88.3522C97.8733 88.3522 97.2842 88.209 96.7606 87.9226C96.2369 87.6281 95.8238 87.2149 95.521 86.6831C95.2265 86.1513 95.0792 85.5377 95.0792 84.8422C95.0792 84.1468 95.2306 83.5332 95.5333 83.0014C95.8442 82.4696 96.2656 82.0605 96.7974 81.7741C97.3292 81.4796 97.9224 81.3323 98.5769 81.3323C99.2314 81.3323 99.8246 81.4796 100.356 81.7741C100.888 82.0605 101.305 82.4696 101.608 83.0014C101.919 83.5332 102.075 84.1468 102.075 84.8422C102.075 85.5377 101.915 86.1513 101.596 86.6831C101.285 87.2149 100.86 87.6281 100.32 87.9226C99.7878 88.209 99.1905 88.3522 98.5278 88.3522ZM98.5278 86.8549C98.8387 86.8549 99.1291 86.7813 99.3991 86.634C99.6773 86.4786 99.8982 86.2495 100.062 85.9467C100.225 85.644 100.307 85.2759 100.307 84.8422C100.307 84.1959 100.135 83.7009 99.7919 83.3573C99.4564 83.0055 99.0432 82.8295 98.5523 82.8295C98.0614 82.8295 97.6483 83.0055 97.3128 83.3573C96.9856 83.7009 96.8219 84.1959 96.8219 84.8422C96.8219 85.4886 96.9815 85.9877 97.3006 86.3395C97.6278 86.6831 98.0369 86.8549 98.5278 86.8549ZM105.581 82.8541V86.1431C105.581 86.3722 105.634 86.5399 105.74 86.6463C105.855 86.7445 106.043 86.7935 106.305 86.7935H107.102V88.2417H106.023C104.574 88.2417 103.85 87.5381 103.85 86.1308V82.8541H103.04V81.4428H103.85V79.7614H105.581V81.4428H107.102V82.8541H105.581Z" fill="white"/>
<rect x="52.3438" y="29.8816" width="38.4026" height="38.4026" rx="19.2013" fill="#FBBE7E"/>
<path d="M61.3005 48.381H62.0665V56.4188H61.3005C60.2066 56.4188 59.3184 55.5306 59.3184 54.4366V50.3642C59.3184 49.2692 60.2066 48.381 61.3005 48.381Z" fill="#000223"/>
<path d="M81.5198 56.4205H80.7538V48.3828H81.5198C82.6137 48.3828 83.502 49.271 83.502 50.3649V54.4373C83.502 55.5313 82.6137 56.4195 81.5198 56.4195V56.4205Z" fill="#000223"/>
<path d="M73.0809 41.3041C73.0809 40.3838 72.332 39.6338 71.4106 39.6338C70.4892 39.6338 69.7402 40.3827 69.7402 41.3041C69.7402 41.9759 70.1399 42.5555 70.7142 42.8202V44.7552H72.107V42.8202C72.6802 42.5555 73.0809 41.9759 73.0809 41.3041Z" fill="#000223"/>
<path d="M76.6727 46.2548H66.1514C64.7317 46.2548 63.5703 47.4162 63.5703 48.8347V55.9757C63.5703 57.3943 64.7317 58.5557 66.1514 58.5557H76.6727C78.0912 58.5557 79.2527 57.3943 79.2527 55.9757V48.8347C79.2527 47.4162 78.0912 46.2548 76.6727 46.2548ZM68.7945 51.5947C68.7945 51.8786 68.5631 52.1111 68.2792 52.1111H67.8013C67.5174 52.1111 67.2849 51.8786 67.2849 51.5947V49.6597C67.2849 49.3758 67.5174 49.1444 67.8013 49.1444H68.2792C68.5631 49.1444 68.7945 49.3758 68.7945 49.6597V51.5947ZM73.6856 55.1507C73.6856 55.4347 73.4531 55.6661 73.1691 55.6661H69.6538C69.3699 55.6661 69.1374 55.4347 69.1374 55.1507V54.6729C69.1374 54.389 69.3699 54.1565 69.6538 54.1565H73.1691C73.4531 54.1565 73.6856 54.389 73.6856 54.6729V55.1507ZM75.5391 51.5947C75.5391 51.8786 75.3066 52.1111 75.0227 52.1111H74.5448C74.2609 52.1111 74.0284 51.8786 74.0284 51.5947V49.6597C74.0284 49.3758 74.2609 49.1444 74.5448 49.1444H75.0227C75.3066 49.1444 75.5391 49.3758 75.5391 49.6597V51.5947Z" fill="#000223"/>
<circle opacity="0.3" cx="71.5451" cy="49.0852" r="22.5119" stroke="white" stroke-width="1.98634"/>
</g>
<rect x="1" y="14.6558" width="140.822" height="140.822" rx="19.1161" stroke="#FBBE7E" stroke-width="1.09164"/>
</g>
<g filter="url(#filter3_b_792_25474)">
<g clip-path="url(#clip3_792_25474)">
<rect x="418" y="190.542" width="140.822" height="140.822" rx="19.1161" fill="#000223" fill-opacity="0.2"/>
<rect opacity="0.3" x="455.252" y="274.053" width="65.4986" height="6.54986" rx="2.18329" fill="white"/>
<rect opacity="0.3" x="442.697" y="286.061" width="90.6063" height="6.54986" rx="2.18329" fill="white"/>
<path d="M444.805 264.215C444.208 264.215 443.668 264.112 443.185 263.908C442.711 263.703 442.334 263.409 442.056 263.024C441.778 262.64 441.635 262.186 441.627 261.662H443.467C443.492 262.014 443.615 262.292 443.836 262.496C444.065 262.701 444.376 262.803 444.768 262.803C445.169 262.803 445.484 262.709 445.713 262.521C445.942 262.325 446.057 262.071 446.057 261.76C446.057 261.506 445.979 261.298 445.824 261.134C445.668 260.971 445.472 260.844 445.235 260.754C445.006 260.656 444.686 260.549 444.277 260.435C443.721 260.271 443.267 260.111 442.915 259.956C442.572 259.792 442.273 259.551 442.019 259.232C441.774 258.905 441.651 258.471 441.651 257.931C441.651 257.424 441.778 256.982 442.032 256.606C442.285 256.229 442.641 255.943 443.099 255.747C443.557 255.542 444.081 255.44 444.67 255.44C445.554 255.44 446.27 255.657 446.818 256.09C447.374 256.516 447.681 257.113 447.738 257.882H445.848C445.832 257.587 445.705 257.346 445.468 257.158C445.239 256.962 444.932 256.863 444.547 256.863C444.212 256.863 443.942 256.949 443.737 257.121C443.541 257.293 443.443 257.542 443.443 257.87C443.443 258.099 443.516 258.291 443.664 258.447C443.819 258.594 444.007 258.717 444.228 258.815C444.457 258.905 444.776 259.011 445.186 259.134C445.742 259.297 446.196 259.461 446.548 259.625C446.9 259.788 447.202 260.034 447.456 260.361C447.71 260.688 447.836 261.118 447.836 261.65C447.836 262.108 447.718 262.533 447.48 262.926C447.243 263.319 446.896 263.634 446.437 263.871C445.979 264.1 445.435 264.215 444.805 264.215ZM453.4 257.232C453.916 257.232 454.374 257.346 454.775 257.575C455.176 257.796 455.487 258.127 455.708 258.569C455.937 259.003 456.051 259.526 456.051 260.14V264.129H454.333V260.373C454.333 259.833 454.198 259.42 453.928 259.134C453.658 258.839 453.29 258.692 452.824 258.692C452.349 258.692 451.973 258.839 451.695 259.134C451.425 259.42 451.29 259.833 451.29 260.373V264.129H449.571V255.047H451.29V258.177C451.51 257.882 451.805 257.653 452.173 257.489C452.541 257.317 452.95 257.232 453.4 257.232ZM460.95 264.239C460.295 264.239 459.706 264.096 459.182 263.81C458.659 263.515 458.246 263.102 457.943 262.57C457.648 262.038 457.501 261.425 457.501 260.729C457.501 260.034 457.652 259.42 457.955 258.888C458.266 258.357 458.687 257.947 459.219 257.661C459.751 257.367 460.344 257.219 460.999 257.219C461.653 257.219 462.246 257.367 462.778 257.661C463.31 257.947 463.727 258.357 464.03 258.888C464.341 259.42 464.496 260.034 464.496 260.729C464.496 261.425 464.337 262.038 464.018 262.57C463.707 263.102 463.281 263.515 462.741 263.81C462.21 264.096 461.612 264.239 460.95 264.239ZM460.95 262.742C461.261 262.742 461.551 262.668 461.821 262.521C462.099 262.366 462.32 262.136 462.484 261.834C462.647 261.531 462.729 261.163 462.729 260.729C462.729 260.083 462.557 259.588 462.214 259.244C461.878 258.892 461.465 258.717 460.974 258.717C460.483 258.717 460.07 258.892 459.735 259.244C459.407 259.588 459.244 260.083 459.244 260.729C459.244 261.376 459.403 261.875 459.722 262.226C460.05 262.57 460.459 262.742 460.95 262.742ZM467.72 258.312C467.941 258.001 468.244 257.743 468.628 257.538C469.021 257.326 469.467 257.219 469.966 257.219C470.547 257.219 471.071 257.362 471.537 257.649C472.012 257.935 472.384 258.344 472.654 258.876C472.932 259.4 473.071 260.009 473.071 260.705C473.071 261.4 472.932 262.018 472.654 262.558C472.384 263.09 472.012 263.503 471.537 263.797C471.071 264.092 470.547 264.239 469.966 264.239C469.467 264.239 469.025 264.137 468.641 263.932C468.264 263.728 467.958 263.47 467.72 263.159V267.369H466.002V257.33H467.72V258.312ZM471.316 260.705C471.316 260.296 471.23 259.944 471.058 259.649C470.895 259.346 470.674 259.117 470.396 258.962C470.126 258.807 469.831 258.729 469.512 258.729C469.201 258.729 468.907 258.811 468.628 258.974C468.358 259.13 468.138 259.359 467.966 259.661C467.802 259.964 467.72 260.32 467.72 260.729C467.72 261.138 467.802 261.494 467.966 261.797C468.138 262.1 468.358 262.333 468.628 262.496C468.907 262.652 469.201 262.73 469.512 262.73C469.831 262.73 470.126 262.648 470.396 262.484C470.674 262.321 470.895 262.087 471.058 261.785C471.23 261.482 471.316 261.122 471.316 260.705ZM487.074 255.562V264.129H485.356V258.557L483.061 264.129H481.76L479.453 258.557V264.129H477.735V255.562H479.686L482.411 261.932L485.135 255.562H487.074ZM488.576 260.705C488.576 260.017 488.711 259.408 488.981 258.876C489.26 258.344 489.632 257.935 490.098 257.649C490.573 257.362 491.1 257.219 491.681 257.219C492.189 257.219 492.63 257.322 493.007 257.526C493.391 257.731 493.698 257.988 493.927 258.299V257.33H495.658V264.129H493.927V263.135C493.706 263.454 493.4 263.72 493.007 263.932C492.622 264.137 492.176 264.239 491.669 264.239C491.096 264.239 490.573 264.092 490.098 263.797C489.632 263.503 489.26 263.09 488.981 262.558C488.711 262.018 488.576 261.4 488.576 260.705ZM493.927 260.729C493.927 260.312 493.845 259.956 493.682 259.661C493.518 259.359 493.297 259.13 493.019 258.974C492.741 258.811 492.442 258.729 492.123 258.729C491.804 258.729 491.51 258.807 491.24 258.962C490.97 259.117 490.749 259.346 490.577 259.649C490.413 259.944 490.331 260.296 490.331 260.705C490.331 261.114 490.413 261.474 490.577 261.785C490.749 262.087 490.97 262.321 491.24 262.484C491.518 262.648 491.812 262.73 492.123 262.73C492.442 262.73 492.741 262.652 493.019 262.496C493.297 262.333 493.518 262.104 493.682 261.809C493.845 261.506 493.927 261.146 493.927 260.729ZM501.349 257.232C502.159 257.232 502.813 257.489 503.312 258.005C503.811 258.512 504.061 259.224 504.061 260.14V264.129H502.343V260.373C502.343 259.833 502.208 259.42 501.938 259.134C501.668 258.839 501.3 258.692 500.833 258.692C500.359 258.692 499.982 258.839 499.704 259.134C499.434 259.42 499.299 259.833 499.299 260.373V264.129H497.581V257.33H499.299V258.177C499.528 257.882 499.819 257.653 500.171 257.489C500.531 257.317 500.923 257.232 501.349 257.232ZM505.499 260.705C505.499 260.017 505.634 259.408 505.904 258.876C506.182 258.344 506.554 257.935 507.02 257.649C507.495 257.362 508.023 257.219 508.603 257.219C509.111 257.219 509.553 257.322 509.929 257.526C510.313 257.731 510.62 257.988 510.849 258.299V257.33H512.58V264.129H510.849V263.135C510.628 263.454 510.322 263.72 509.929 263.932C509.544 264.137 509.098 264.239 508.591 264.239C508.018 264.239 507.495 264.092 507.02 263.797C506.554 263.503 506.182 263.09 505.904 262.558C505.634 262.018 505.499 261.4 505.499 260.705ZM510.849 260.729C510.849 260.312 510.768 259.956 510.604 259.661C510.44 259.359 510.219 259.13 509.941 258.974C509.663 258.811 509.364 258.729 509.045 258.729C508.726 258.729 508.432 258.807 508.162 258.962C507.892 259.117 507.671 259.346 507.499 259.649C507.335 259.944 507.254 260.296 507.254 260.705C507.254 261.114 507.335 261.474 507.499 261.785C507.671 262.087 507.892 262.321 508.162 262.484C508.44 262.648 508.734 262.73 509.045 262.73C509.364 262.73 509.663 262.652 509.941 262.496C510.219 262.333 510.44 262.104 510.604 261.809C510.768 261.506 510.849 261.146 510.849 260.729ZM517.166 257.219C517.674 257.219 518.12 257.322 518.504 257.526C518.889 257.722 519.191 257.98 519.412 258.299V257.33H521.143V264.178C521.143 264.808 521.016 265.368 520.762 265.859C520.509 266.358 520.128 266.751 519.621 267.037C519.114 267.332 518.5 267.479 517.78 267.479C516.815 267.479 516.021 267.254 515.399 266.804C514.786 266.354 514.438 265.74 514.356 264.963H516.062C516.152 265.274 516.344 265.52 516.639 265.7C516.941 265.888 517.305 265.982 517.731 265.982C518.23 265.982 518.635 265.83 518.946 265.528C519.257 265.233 519.412 264.783 519.412 264.178V263.122C519.191 263.441 518.885 263.707 518.492 263.92C518.107 264.133 517.665 264.239 517.166 264.239C516.594 264.239 516.07 264.092 515.596 263.797C515.121 263.503 514.745 263.09 514.466 262.558C514.196 262.018 514.061 261.4 514.061 260.705C514.061 260.017 514.196 259.408 514.466 258.876C514.745 258.344 515.117 257.935 515.583 257.649C516.058 257.362 516.586 257.219 517.166 257.219ZM519.412 260.729C519.412 260.312 519.33 259.956 519.167 259.661C519.003 259.359 518.782 259.13 518.504 258.974C518.226 258.811 517.927 258.729 517.608 258.729C517.289 258.729 516.995 258.807 516.725 258.962C516.455 259.117 516.234 259.346 516.062 259.649C515.898 259.944 515.816 260.296 515.816 260.705C515.816 261.114 515.898 261.474 516.062 261.785C516.234 262.087 516.455 262.321 516.725 262.484C517.003 262.648 517.297 262.73 517.608 262.73C517.927 262.73 518.226 262.652 518.504 262.496C518.782 262.333 519.003 262.104 519.167 261.809C519.33 261.506 519.412 261.146 519.412 260.729ZM529.387 260.582C529.387 260.827 529.37 261.048 529.337 261.245H524.367C524.408 261.736 524.58 262.12 524.883 262.398C525.185 262.676 525.557 262.816 525.999 262.816C526.637 262.816 527.092 262.541 527.362 261.993H529.215C529.018 262.648 528.642 263.188 528.086 263.613C527.529 264.03 526.846 264.239 526.036 264.239C525.382 264.239 524.793 264.096 524.269 263.81C523.753 263.515 523.348 263.102 523.054 262.57C522.768 262.038 522.624 261.425 522.624 260.729C522.624 260.026 522.768 259.408 523.054 258.876C523.34 258.344 523.741 257.935 524.257 257.649C524.772 257.362 525.365 257.219 526.036 257.219C526.682 257.219 527.259 257.358 527.767 257.637C528.282 257.915 528.679 258.312 528.957 258.827C529.243 259.334 529.387 259.919 529.387 260.582ZM527.607 260.091C527.599 259.649 527.439 259.297 527.128 259.036C526.817 258.766 526.437 258.631 525.987 258.631C525.562 258.631 525.202 258.762 524.907 259.023C524.621 259.277 524.445 259.633 524.379 260.091H527.607ZM532.604 258.385C532.825 258.025 533.111 257.743 533.463 257.538C533.823 257.334 534.232 257.232 534.691 257.232V259.036H534.236C533.696 259.036 533.287 259.162 533.009 259.416C532.739 259.67 532.604 260.111 532.604 260.741V264.129H530.886V257.33H532.604V258.385Z" fill="white"/>
<rect opacity="0.2" x="454.021" y="301.777" width="68.8598" height="17.215" rx="4.36657" fill="white"/>
<path d="M464.572 306.48L465.559 308.522C465.615 308.642 465.728 308.72 465.856 308.741L468.064 309.069C468.386 309.116 468.514 309.523 468.284 309.752L466.684 311.341C466.592 311.435 466.551 311.565 466.571 311.696L466.95 313.942C467.006 314.27 466.668 314.52 466.377 314.364L464.398 313.306C464.286 313.243 464.148 313.243 464.03 313.306L462.052 314.364C461.765 314.52 461.428 314.27 461.479 313.942L461.857 311.696C461.878 311.565 461.837 311.435 461.745 311.341L460.145 309.752C459.91 309.518 460.042 309.116 460.365 309.069L462.573 308.741C462.701 308.72 462.813 308.642 462.87 308.522L463.856 306.48C464 306.183 464.419 306.183 464.562 306.48H464.572Z" fill="white"/>
<path d="M476.77 306.48L477.756 308.522C477.812 308.642 477.925 308.72 478.053 308.741L480.261 309.069C480.583 309.116 480.711 309.523 480.481 309.752L478.881 311.341C478.789 311.435 478.748 311.565 478.769 311.696L479.147 313.942C479.203 314.27 478.866 314.52 478.574 314.364L476.596 313.306C476.483 313.243 476.345 313.243 476.228 313.306L474.249 314.364C473.963 314.52 473.625 314.27 473.676 313.942L474.055 311.696C474.075 311.565 474.034 311.435 473.942 311.341L472.342 309.752C472.107 309.518 472.24 309.116 472.562 309.069L474.77 308.741C474.898 308.72 475.011 308.642 475.067 308.522L476.054 306.48C476.197 306.183 476.616 306.183 476.759 306.48H476.77Z" fill="white"/>
<path d="M488.965 306.48L489.952 308.522C490.008 308.642 490.12 308.72 490.248 308.741L492.457 309.069C492.779 309.116 492.907 309.523 492.677 309.752L491.076 311.341C490.984 311.435 490.943 311.565 490.964 311.696L491.342 313.942C491.398 314.27 491.061 314.52 490.77 314.364L488.791 313.306C488.679 313.243 488.54 313.243 488.423 313.306L486.444 314.364C486.158 314.52 485.821 314.27 485.872 313.942L486.25 311.696C486.27 311.565 486.23 311.435 486.138 311.341L484.537 309.752C484.302 309.518 484.435 309.116 484.757 309.069L486.966 308.741C487.094 308.72 487.206 308.642 487.262 308.522L488.249 306.48C488.392 306.183 488.811 306.183 488.955 306.48H488.965Z" fill="white"/>
<path d="M501.16 306.48L502.147 308.522C502.203 308.642 502.316 308.72 502.443 308.741L504.652 309.069C504.974 309.116 505.102 309.523 504.872 309.752L503.272 311.341C503.18 311.435 503.139 311.565 503.159 311.696L503.537 313.942C503.594 314.27 503.256 314.52 502.965 314.364L500.986 313.306C500.874 313.243 500.736 313.243 500.618 313.306L498.64 314.364C498.353 314.52 498.016 314.27 498.067 313.942L498.445 311.696C498.466 311.565 498.425 311.435 498.333 311.341L496.733 309.752C496.497 309.518 496.63 309.116 496.952 309.069L499.161 308.741C499.289 308.72 499.401 308.642 499.458 308.522L500.444 306.48C500.587 306.183 501.007 306.183 501.15 306.48H501.16Z" fill="white"/>
<path d="M513.357 306.48L514.344 308.522C514.4 308.642 514.513 308.72 514.641 308.741L516.849 309.069C517.171 309.116 517.299 309.523 517.069 309.752L515.469 311.341C515.377 311.435 515.336 311.565 515.356 311.696L515.735 313.942C515.791 314.27 515.454 314.52 515.162 314.364L513.184 313.306C513.071 313.243 512.933 313.243 512.815 313.306L510.837 314.364C510.551 314.52 510.213 314.27 510.264 313.942L510.643 311.696C510.663 311.565 510.622 311.435 510.53 311.341L508.93 309.752C508.695 309.518 508.828 309.116 509.15 309.069L511.358 308.741C511.486 308.72 511.599 308.642 511.655 308.522L512.642 306.48C512.785 306.183 513.204 306.183 513.347 306.48H513.357Z" fill="white"/>
<rect x="469.342" y="205.773" width="38.4026" height="38.4026" rx="19.2013" fill="white"/>
<path d="M487.205 223.838C487.423 223.866 487.646 223.88 487.873 223.88C488.127 223.88 488.378 223.862 488.623 223.826C491.152 223.463 493.095 221.288 493.095 218.658C493.095 215.774 490.757 213.436 487.873 213.436C484.989 213.436 482.65 215.774 482.65 218.658C482.65 221.317 484.636 223.51 487.205 223.838Z" fill="#010223"/>
<path d="M497.696 231.249C497.692 227.697 494.785 224.909 493.503 223.835C493.273 223.643 492.944 223.631 492.699 223.804C492.193 224.161 491.336 224.679 490.204 225.014C490.218 225.041 490.231 225.068 490.244 225.096C490.561 225.785 490.532 226.572 490.157 227.434C490.133 227.49 490.107 227.545 490.079 227.599C489.735 228.431 489.392 229.264 489.049 230.097L488.788 229.007L488.627 228.33L488.458 227.624C488.597 227.495 488.737 227.331 488.854 227.127C488.892 227.061 488.928 226.99 488.962 226.915C489.078 226.646 489.28 226.121 489.06 225.64C488.992 225.492 488.894 225.381 488.785 225.298C488.498 225.081 488.124 225.054 487.948 225.054C487.905 225.054 487.874 225.056 487.857 225.057C487.739 225.063 487.363 225.081 487.072 225.3C486.964 225.383 486.868 225.493 486.801 225.64C486.593 226.1 486.791 226.607 486.926 226.913C486.953 226.974 486.982 227.032 487.014 227.088C487.129 227.302 487.271 227.475 487.41 227.615L487.24 228.331L487.076 229.016L486.816 230.108C486.462 229.233 486.107 228.358 485.752 227.482C485.698 227.347 485.642 227.212 485.587 227.076C485.587 227.075 485.586 227.073 485.586 227.072C485.584 227.067 485.582 227.063 485.581 227.058C485.422 226.592 485.272 225.855 485.612 225.103C485.624 225.077 485.638 225.048 485.654 225.017C484.538 224.689 483.693 224.178 483.17 223.805C482.926 223.631 482.596 223.644 482.366 223.836C481.083 224.911 478.178 227.698 478.174 231.249C478.173 232.093 478.171 233.492 479.227 234.53C480.264 235.552 481.692 235.6 482.138 235.598H493.733C494.18 235.6 495.607 235.552 496.645 234.53C497.699 233.492 497.697 232.093 497.696 231.249Z" fill="#010223"/>
<circle opacity="0.3" cx="488.543" cy="224.973" r="22.5119" stroke="white" stroke-width="1.98634"/>
</g>
<rect x="418" y="190.542" width="140.822" height="140.822" rx="19.1161" stroke="white" stroke-width="1.09164"/>
</g>
<g filter="url(#filter4_b_792_25474)">
<g clip-path="url(#clip4_792_25474)">
<rect x="2.27539" y="210.914" width="141.086" height="141.086" rx="19.1161" fill="#000223" fill-opacity="0.2"/>
<rect opacity="0.3" x="40.4648" y="294.582" width="65.6213" height="6.56213" rx="2.18738" fill="white"/>
<rect opacity="0.3" x="27.8867" y="306.612" width="90.7761" height="6.56213" rx="2.18738" fill="white"/>
<path d="M45.9253 278.688C45.9253 279.147 45.8146 279.577 45.5933 279.979C45.3802 280.381 45.04 280.705 44.5728 280.95C44.1137 281.196 43.5317 281.319 42.8268 281.319H41.3882V284.615H39.6669V276.032H42.8268C43.4908 276.032 44.0564 276.147 44.5236 276.377C44.9908 276.606 45.3392 276.922 45.5687 277.323C45.8064 277.725 45.9253 278.18 45.9253 278.688ZM42.753 279.93C43.2285 279.93 43.5809 279.823 43.8104 279.61C44.04 279.389 44.1547 279.082 44.1547 278.688C44.1547 277.852 43.6875 277.434 42.753 277.434H41.3882V279.93H42.753ZM49.1147 278.86C49.336 278.5 49.6229 278.217 49.9754 278.012C50.336 277.807 50.7459 277.704 51.2049 277.704V279.512H50.75C50.209 279.512 49.7991 279.639 49.5204 279.893C49.2499 280.147 49.1147 280.59 49.1147 281.221V284.615H47.3933V277.803H49.1147V278.86ZM55.6349 284.725C54.9792 284.725 54.389 284.582 53.8644 284.295C53.3398 284 52.9258 283.586 52.6225 283.053C52.3274 282.52 52.1799 281.905 52.1799 281.209C52.1799 280.512 52.3315 279.897 52.6348 279.364C52.9463 278.832 53.3685 278.422 53.9013 278.135C54.4341 277.84 55.0283 277.692 55.6841 277.692C56.3399 277.692 56.9341 277.84 57.4669 278.135C57.9997 278.422 58.4178 278.832 58.7211 279.364C59.0326 279.897 59.1883 280.512 59.1883 281.209C59.1883 281.905 59.0285 282.52 58.7088 283.053C58.3973 283.586 57.9711 284 57.4301 284.295C56.8973 284.582 56.2989 284.725 55.6349 284.725ZM55.6349 283.225C55.9464 283.225 56.2374 283.151 56.5079 283.004C56.7866 282.848 57.0079 282.619 57.1719 282.315C57.3358 282.012 57.4178 281.643 57.4178 281.209C57.4178 280.561 57.2456 280.065 56.9014 279.721C56.5653 279.368 56.1513 279.192 55.6595 279.192C55.1677 279.192 54.7537 279.368 54.4177 279.721C54.0898 280.065 53.9259 280.561 53.9259 281.209C53.9259 281.856 54.0857 282.356 54.4054 282.709C54.7333 283.053 55.1431 283.225 55.6349 283.225ZM65.9348 279.5V280.95H60.7215V279.5H65.9348ZM74.3695 278.688C74.3695 279.147 74.2589 279.577 74.0376 279.979C73.8244 280.381 73.4843 280.705 73.017 280.95C72.558 281.196 71.976 281.319 71.2711 281.319H69.8325V284.615H68.1112V276.032H71.2711C71.935 276.032 72.5006 276.147 72.9679 276.377C73.4351 276.606 73.7835 276.922 74.013 277.323C74.2507 277.725 74.3695 278.18 74.3695 278.688ZM71.1973 279.93C71.6727 279.93 72.0252 279.823 72.2547 279.61C72.4842 279.389 72.599 279.082 72.599 278.688C72.599 277.852 72.1318 277.434 71.1973 277.434H69.8325V279.93H71.1973ZM77.559 275.516V284.615H75.8376V275.516H77.559ZM79.0629 281.184C79.0629 280.496 79.1982 279.885 79.4687 279.352C79.7474 278.819 80.1204 278.409 80.5876 278.123C81.063 277.836 81.5917 277.692 82.1737 277.692C82.6819 277.692 83.1245 277.795 83.5016 278C83.8869 278.204 84.1942 278.463 84.4238 278.774V277.803H86.1574V284.615H84.4238V283.619C84.2024 283.938 83.8951 284.205 83.5016 284.418C83.1163 284.623 82.6696 284.725 82.1614 284.725C81.5876 284.725 81.063 284.578 80.5876 284.283C80.1204 283.987 79.7474 283.573 79.4687 283.041C79.1982 282.5 79.0629 281.881 79.0629 281.184ZM84.4238 281.209C84.4238 280.791 84.3418 280.434 84.1779 280.139C84.0139 279.836 83.7926 279.606 83.5139 279.45C83.2352 279.286 82.936 279.205 82.6163 279.205C82.2966 279.205 82.0016 279.282 81.7311 279.438C81.4606 279.594 81.2392 279.823 81.0671 280.127C80.9032 280.422 80.8212 280.774 80.8212 281.184C80.8212 281.594 80.9032 281.955 81.0671 282.266C81.2392 282.569 81.4606 282.803 81.7311 282.967C82.0098 283.131 82.3048 283.213 82.6163 283.213C82.936 283.213 83.2352 283.135 83.5139 282.979C83.7926 282.815 84.0139 282.586 84.1779 282.291C84.3418 281.987 84.4238 281.627 84.4238 281.209ZM94.6011 277.803L90.3838 287.836H88.5518L90.0272 284.442L87.2976 277.803H89.228L90.9863 282.561L92.7691 277.803H94.6011ZM102.107 281.061C102.107 281.307 102.091 281.528 102.058 281.725H97.0783C97.1193 282.217 97.2914 282.602 97.5947 282.881C97.898 283.16 98.2709 283.299 98.7136 283.299C99.3529 283.299 99.8079 283.024 100.078 282.475H101.935C101.738 283.131 101.361 283.672 100.804 284.098C100.246 284.516 99.562 284.725 98.7505 284.725C98.0947 284.725 97.5045 284.582 96.9799 284.295C96.4635 284 96.0578 283.586 95.7627 283.053C95.4758 282.52 95.3323 281.905 95.3323 281.209C95.3323 280.504 95.4758 279.885 95.7627 279.352C96.0496 278.819 96.4512 278.409 96.9676 278.123C97.484 277.836 98.0783 277.692 98.7505 277.692C99.398 277.692 99.9759 277.832 100.484 278.11C101.001 278.389 101.398 278.786 101.677 279.303C101.964 279.811 102.107 280.397 102.107 281.061ZM100.324 280.569C100.316 280.127 100.156 279.774 99.8448 279.512C99.5333 279.241 99.1521 279.106 98.7013 279.106C98.275 279.106 97.9144 279.237 97.6193 279.5C97.3324 279.754 97.1561 280.11 97.0906 280.569H100.324ZM105.331 278.86C105.552 278.5 105.839 278.217 106.192 278.012C106.552 277.807 106.962 277.704 107.421 277.704V279.512H106.966C106.425 279.512 106.015 279.639 105.737 279.893C105.466 280.147 105.331 280.59 105.331 281.221V284.615H103.609V277.803H105.331V278.86Z" fill="white"/>
<rect opacity="0.2" x="38.3672" y="322.358" width="68.9888" height="17.2472" rx="4.37475" fill="white"/>
<path d="M48.9382 327.069L49.9268 329.116C49.9831 329.236 50.0958 329.314 50.2238 329.335L52.4366 329.664C52.7593 329.711 52.8874 330.118 52.6569 330.348L51.0536 331.94C50.9614 332.034 50.9204 332.165 50.9409 332.295L51.32 334.545C51.3763 334.874 51.0382 335.125 50.7463 334.968L48.764 333.908C48.6513 333.846 48.513 333.846 48.3952 333.908L46.413 334.968C46.1261 335.125 45.788 334.874 45.8393 334.545L46.2183 332.295C46.2388 332.165 46.1978 332.034 46.1056 331.94L44.5024 330.348C44.2667 330.113 44.3999 329.711 44.7226 329.664L46.9354 329.335C47.0634 329.314 47.1761 329.236 47.2325 329.116L48.2211 327.069C48.3645 326.772 48.7845 326.772 48.9279 327.069H48.9382Z" fill="white"/>
<path d="M61.1569 327.069L62.1455 329.116C62.2019 329.236 62.3145 329.314 62.4426 329.335L64.6554 329.664C64.9781 329.711 65.1061 330.118 64.8756 330.348L63.2724 331.94C63.1802 332.034 63.1392 332.165 63.1597 332.295L63.5387 334.545C63.5951 334.874 63.257 335.125 62.965 334.968L60.9828 333.908C60.8701 333.846 60.7318 333.846 60.614 333.908L58.6317 334.968C58.3449 335.125 58.0068 334.874 58.058 334.545L58.4371 332.295C58.4576 332.165 58.4166 332.034 58.3244 331.94L56.7211 330.348C56.4855 330.113 56.6187 329.711 56.9414 329.664L59.1541 329.335C59.2822 329.314 59.3949 329.236 59.4512 329.116L60.4398 327.069C60.5832 326.772 61.0033 326.772 61.1467 327.069H61.1569Z" fill="white"/>
<path d="M73.3757 327.069L74.3642 329.116C74.4206 329.236 74.5333 329.314 74.6613 329.335L76.8741 329.664C77.1968 329.711 77.3249 330.118 77.0944 330.348L75.4911 331.94C75.3989 332.034 75.358 332.165 75.3784 332.295L75.7575 334.545C75.8138 334.874 75.4758 335.125 75.1838 334.968L73.2015 333.908C73.0888 333.846 72.9505 333.846 72.8327 333.908L70.8504 334.968C70.5636 335.125 70.2255 334.874 70.2767 334.545L70.6558 332.295C70.6763 332.165 70.6353 332.034 70.5431 331.94L68.9399 330.348C68.7042 330.113 68.8374 329.711 69.1601 329.664L71.3729 329.335C71.501 329.314 71.6137 329.236 71.67 329.116L72.6586 327.069C72.802 326.772 73.222 326.772 73.3654 327.069H73.3757Z" fill="white"/>
<path d="M85.5944 327.069L86.583 329.116C86.6393 329.236 86.752 329.314 86.8801 329.335L89.0929 329.664C89.4156 329.711 89.5436 330.118 89.3131 330.348L87.7099 331.94C87.6177 332.034 87.5767 332.165 87.5972 332.295L87.9762 334.545C88.0326 334.874 87.6945 335.125 87.4025 334.968L85.4203 333.908C85.3076 333.846 85.1693 333.846 85.0515 333.908L83.0692 334.968C82.7823 335.125 82.4443 334.874 82.4955 334.545L82.8745 332.295C82.895 332.165 82.8541 332.034 82.7619 331.94L81.1586 330.348C80.923 330.113 81.0562 329.711 81.3789 329.664L83.5916 329.335C83.7197 329.314 83.8324 329.236 83.8887 329.116L84.8773 327.069C85.0207 326.772 85.4407 326.772 85.5841 327.069H85.5944Z" fill="white"/>
<path d="M97.8151 327.069L98.8037 329.116C98.8601 329.236 98.9728 329.314 99.1008 329.335L101.314 329.664C101.636 329.711 101.764 330.118 101.534 330.348L99.9306 331.94C99.8384 332.034 99.7974 332.165 99.8179 332.295L100.197 334.545C100.253 334.874 99.9152 335.125 99.6232 334.968L97.641 333.908C97.5283 333.846 97.39 333.846 97.2722 333.908L95.2899 334.968C95.0031 335.125 94.665 334.874 94.7162 334.545L95.0953 332.295C95.1158 332.165 95.0748 332.034 94.9826 331.94L93.3793 330.348C93.1437 330.113 93.2769 329.711 93.5996 329.664L95.8124 329.335C95.9404 329.314 96.0531 329.236 96.1094 329.116L97.098 327.069C97.2414 326.772 97.6615 326.772 97.8049 327.069H97.8151Z" fill="white"/>
<rect x="53.7129" y="226.173" width="38.4745" height="38.4745" rx="19.2373" fill="url(#paint3_linear_792_25474)"/>
<path d="M66.3004 243.124C64.4231 241.708 63.4524 239.445 63.2945 237.549C63.2711 237.248 63.0079 237.073 62.7447 237.073C62.5518 237.073 62.3588 237.166 62.2535 237.363C60.3412 240.965 61.1014 245.917 63.2652 247.896C63.774 246.463 64.6044 245.037 65.6863 243.791C65.8852 243.561 66.0898 243.343 66.3004 243.129V243.124ZM84.3008 237.363C84.1955 237.166 84.0025 237.073 83.8095 237.073C83.5405 237.073 83.2832 237.243 83.2539 237.549C83.096 239.445 82.1253 241.714 80.248 243.129C80.4586 243.343 80.6632 243.561 80.8621 243.791C81.944 245.037 82.7744 246.463 83.2832 247.896C85.447 245.917 86.2072 240.97 84.3008 237.363ZM76.4468 242.069V249.666H82.2832C81.7217 246.753 79.4585 243.501 76.4468 242.069ZM70.1075 249.666V242.069C67.0957 243.496 64.8384 246.748 64.2711 249.666H70.1075ZM82.4995 251.017H64.0547C63.7214 251.017 63.4524 251.268 63.4524 251.579V254.056C63.4524 254.367 63.7214 254.618 64.0547 254.618H82.4937C82.827 254.618 83.096 254.367 83.096 254.056V251.579C83.096 251.268 82.827 251.017 82.4937 251.017H82.4995ZM75.0023 241.544C74.4467 241.402 73.8678 241.326 73.2771 241.326C72.6865 241.326 72.1134 241.402 71.5519 241.544V249.661H74.9965V241.544H75.0023Z" fill="white"/>
<circle opacity="0.3" cx="72.9505" cy="245.409" r="22.554" stroke="white" stroke-width="1.99006"/>
</g>
<rect x="2.27539" y="210.914" width="141.086" height="141.086" rx="19.1161" stroke="url(#paint4_linear_792_25474)" stroke-width="1.09369"/>
</g>
<defs>
<filter id="filter0_b_792_25474" x="60.9537" y="-66.848" width="437.007" height="500.088" filterUnits="userSpaceOnUse" color-interpolation-filters="sRGB">
<feFlood flood-opacity="0" result="BackgroundImageFix"/>
<feGaussianBlur in="BackgroundImageFix" stdDeviation="40.4333"/>
<feComposite in2="SourceAlpha" operator="in" result="effect1_backgroundBlur_792_25474"/>
<feBlend mode="normal" in="SourceGraphic" in2="effect1_backgroundBlur_792_25474" result="shape"/>
</filter>
<filter id="filter1_b_792_25474" x="370.435" y="-34.3253" width="235.952" height="235.953" filterUnits="userSpaceOnUse" color-interpolation-filters="sRGB">
<feFlood flood-opacity="0" result="BackgroundImageFix"/>
<feGaussianBlur in="BackgroundImageFix" stdDeviation="23.5099"/>
<feComposite in2="SourceAlpha" operator="in" result="effect1_backgroundBlur_792_25474"/>
<feBlend mode="normal" in="SourceGraphic" in2="effect1_backgroundBlur_792_25474" result="shape"/>
</filter>
<filter id="filter2_b_792_25474" x="-46.5646" y="-32.9097" width="235.952" height="235.953" filterUnits="userSpaceOnUse" color-interpolation-filters="sRGB">
<feFlood flood-opacity="0" result="BackgroundImageFix"/>
<feGaussianBlur in="BackgroundImageFix" stdDeviation="23.5099"/>
<feComposite in2="SourceAlpha" operator="in" result="effect1_backgroundBlur_792_25474"/>
<feBlend mode="normal" in="SourceGraphic" in2="effect1_backgroundBlur_792_25474" result="shape"/>
</filter>
<filter id="filter3_b_792_25474" x="370.435" y="142.976" width="235.952" height="235.953" filterUnits="userSpaceOnUse" color-interpolation-filters="sRGB">
<feFlood flood-opacity="0" result="BackgroundImageFix"/>
<feGaussianBlur in="BackgroundImageFix" stdDeviation="23.5099"/>
<feComposite in2="SourceAlpha" operator="in" result="effect1_backgroundBlur_792_25474"/>
<feBlend mode="normal" in="SourceGraphic" in2="effect1_backgroundBlur_792_25474" result="shape"/>
</filter>
<filter id="filter4_b_792_25474" x="-45.3793" y="163.26" width="236.395" height="236.395" filterUnits="userSpaceOnUse" color-interpolation-filters="sRGB">
<feFlood flood-opacity="0" result="BackgroundImageFix"/>
<feGaussianBlur in="BackgroundImageFix" stdDeviation="23.5539"/>
<feComposite in2="SourceAlpha" operator="in" result="effect1_backgroundBlur_792_25474"/>
<feBlend mode="normal" in="SourceGraphic" in2="effect1_backgroundBlur_792_25474" result="shape"/>
</filter>
<linearGradient id="paint0_linear_792_25474" x1="226.889" y1="-19.4347" x2="282.963" y2="96.8549" gradientUnits="userSpaceOnUse">
<stop stop-color="#FF6E75"/>
<stop offset="1" stop-color="#FBBE7E"/>
</linearGradient>
<radialGradient id="paint1_radial_792_25474" cx="0" cy="0" r="1" gradientUnits="userSpaceOnUse" gradientTransform="translate(260.999 -8.99999) rotate(92.4849) scale(265.249 200.825)">
<stop stop-color="#935E5D"/>
<stop offset="0.353133" stop-color="#000223"/>
</radialGradient>
<linearGradient id="paint2_linear_792_25474" x1="184.491" y1="276.546" x2="209.979" y2="313.822" gradientUnits="userSpaceOnUse">
<stop stop-color="#FF6E75"/>
<stop offset="0.90064" stop-color="#FBBE7E"/>
</linearGradient>
<linearGradient id="paint3_linear_792_25474" x1="56.7549" y1="229.392" x2="87.022" y2="267.943" gradientUnits="userSpaceOnUse">
<stop stop-color="#FF6E75"/>
<stop offset="1" stop-color="#FBBE7E"/>
</linearGradient>
<linearGradient id="paint4_linear_792_25474" x1="151.7" y1="351.736" x2="24.5775" y2="194.984" gradientUnits="userSpaceOnUse">
<stop stop-color="#FBBE7E"/>
<stop offset="1" stop-color="#FF6E75"/>
</linearGradient>
<clipPath id="clip0_792_25474">
<rect width="24.0097" height="24.0097" fill="white" transform="translate(349.549 194.984)"/>
</clipPath>
<clipPath id="clip1_792_25474">
<rect x="418" y="13.2402" width="140.822" height="140.822" rx="19.1161" fill="white"/>
</clipPath>
<clipPath id="clip2_792_25474">
<rect x="1" y="14.6558" width="140.822" height="140.822" rx="19.1161" fill="white"/>
</clipPath>
<clipPath id="clip3_792_25474">
<rect x="418" y="190.542" width="140.822" height="140.822" rx="19.1161" fill="white"/>
</clipPath>
<clipPath id="clip4_792_25474">
<rect x="2.27539" y="210.914" width="141.086" height="141.086" rx="19.1161" fill="white"/>
</clipPath>
</defs>
</svg>
