<svg width="524" height="441" viewBox="0 0 524 441" fill="none" xmlns="http://www.w3.org/2000/svg">
<circle cx="35.1507" cy="119.065" r="35.1502" fill="url(#paint0_linear_718_12143)"/>
<g filter="url(#filter0_b_718_12143)">
<g clip-path="url(#clip0_718_12143)">
<rect x="13.3721" y="12.5984" width="189.754" height="189.754" rx="19.1027" fill="#000223"/>
<rect x="13.3721" y="12.5984" width="189.754" height="189.754" rx="19.1027" fill="url(#paint1_radial_718_12143)"/>
<rect opacity="0.3" x="64.2432" y="125.127" width="88.2577" height="8.82577" rx="2.94192" fill="white"/>
<rect opacity="0.3" x="47.3271" y="141.307" width="122.09" height="8.82577" rx="2.94192" fill="white"/>
<path d="M71.5876 104.267C71.5876 104.884 71.4387 105.463 71.1411 106.003C70.8544 106.544 70.3969 106.979 69.7685 107.31C69.1511 107.641 68.3684 107.806 67.4203 107.806H65.4855V112.238H63.1703V100.695H67.4203C68.3133 100.695 69.074 100.849 69.7024 101.158C70.3308 101.467 70.7993 101.891 71.108 102.431C71.4277 102.972 71.5876 103.584 71.5876 104.267ZM67.321 105.937C67.9605 105.937 68.4345 105.794 68.7432 105.507C69.0519 105.21 69.2062 104.796 69.2062 104.267C69.2062 103.143 68.5778 102.58 67.321 102.58H65.4855V105.937H67.321ZM75.8772 104.499C76.1748 104.013 76.5607 103.633 77.0348 103.358C77.5198 103.082 78.0711 102.944 78.6884 102.944V105.375H78.0766C77.349 105.375 76.7977 105.546 76.4229 105.888C76.0591 106.229 75.8772 106.825 75.8772 107.674V112.238H73.562V103.076H75.8772V104.499ZM84.6466 112.387C83.7646 112.387 82.9709 112.194 82.2653 111.808C81.5597 111.411 81.003 110.854 80.5951 110.138C80.1982 109.421 79.9998 108.594 79.9998 107.657C79.9998 106.72 80.2037 105.893 80.6116 105.177C81.0306 104.46 81.5983 103.909 82.3149 103.523C83.0315 103.126 83.8308 102.928 84.7128 102.928C85.5947 102.928 86.394 103.126 87.1106 103.523C87.8272 103.909 88.3894 104.46 88.7974 105.177C89.2163 105.893 89.4258 106.72 89.4258 107.657C89.4258 108.594 89.2108 109.421 88.7808 110.138C88.3619 110.854 87.7886 111.411 87.061 111.808C86.3444 112.194 85.5396 112.387 84.6466 112.387ZM84.6466 110.369C85.0655 110.369 85.4569 110.27 85.8207 110.071C86.1956 109.862 86.4932 109.553 86.7137 109.145C86.9342 108.737 87.0444 108.241 87.0444 107.657C87.0444 106.786 86.8129 106.119 86.3499 105.656C85.8979 105.182 85.3412 104.945 84.6797 104.945C84.0182 104.945 83.4615 105.182 83.0095 105.656C82.5685 106.119 82.348 106.786 82.348 107.657C82.348 108.528 82.563 109.201 82.9929 109.675C83.4339 110.138 83.9851 110.369 84.6466 110.369ZM98.4994 105.358V107.31H91.4878V105.358H98.4994ZM109.844 104.267C109.844 104.884 109.695 105.463 109.397 106.003C109.111 106.544 108.653 106.979 108.025 107.31C107.407 107.641 106.625 107.806 105.677 107.806H103.742V112.238H101.427V100.695H105.677C106.57 100.695 107.33 100.849 107.959 101.158C108.587 101.467 109.056 101.891 109.364 102.431C109.684 102.972 109.844 103.584 109.844 104.267ZM105.577 105.937C106.217 105.937 106.691 105.794 106.999 105.507C107.308 105.21 107.463 104.796 107.463 104.267C107.463 103.143 106.834 102.58 105.577 102.58H103.742V105.937H105.577ZM114.133 100.001V112.238H111.818V100.001H114.133ZM116.156 107.624C116.156 106.698 116.338 105.877 116.702 105.16C117.077 104.443 117.578 103.892 118.207 103.506C118.846 103.12 119.557 102.928 120.34 102.928C121.024 102.928 121.619 103.065 122.126 103.341C122.644 103.617 123.058 103.964 123.366 104.383V103.076H125.698V112.238H123.366V110.898C123.069 111.328 122.655 111.687 122.126 111.973C121.608 112.249 121.007 112.387 120.324 112.387C119.552 112.387 118.846 112.188 118.207 111.791C117.578 111.394 117.077 110.838 116.702 110.121C116.338 109.393 116.156 108.561 116.156 107.624ZM123.366 107.657C123.366 107.095 123.256 106.615 123.036 106.218C122.815 105.81 122.517 105.502 122.143 105.292C121.768 105.072 121.365 104.962 120.935 104.962C120.505 104.962 120.109 105.066 119.745 105.276C119.381 105.485 119.083 105.794 118.852 106.202C118.631 106.599 118.521 107.073 118.521 107.624C118.521 108.175 118.631 108.66 118.852 109.079C119.083 109.487 119.381 109.801 119.745 110.022C120.12 110.242 120.516 110.353 120.935 110.353C121.365 110.353 121.768 110.248 122.143 110.038C122.517 109.818 122.815 109.509 123.036 109.112C123.256 108.704 123.366 108.219 123.366 107.657ZM137.054 103.076L131.382 116.57H128.918L130.903 112.006L127.232 103.076H129.828L132.193 109.476L134.59 103.076H137.054ZM147.15 107.459C147.15 107.789 147.128 108.087 147.083 108.352H140.386C140.441 109.013 140.673 109.531 141.081 109.906C141.489 110.281 141.99 110.468 142.585 110.468C143.445 110.468 144.057 110.099 144.421 109.36H146.918C146.654 110.242 146.146 110.97 145.397 111.543C144.647 112.105 143.726 112.387 142.635 112.387C141.753 112.387 140.959 112.194 140.254 111.808C139.559 111.411 139.013 110.854 138.617 110.138C138.231 109.421 138.038 108.594 138.038 107.657C138.038 106.709 138.231 105.877 138.617 105.16C139.002 104.443 139.543 103.892 140.237 103.506C140.932 103.12 141.731 102.928 142.635 102.928C143.506 102.928 144.283 103.115 144.967 103.49C145.661 103.865 146.196 104.399 146.571 105.094C146.957 105.777 147.15 106.566 147.15 107.459ZM144.752 106.797C144.741 106.202 144.526 105.728 144.107 105.375C143.688 105.011 143.175 104.829 142.569 104.829C141.996 104.829 141.511 105.006 141.114 105.358C140.728 105.7 140.491 106.18 140.403 106.797H144.752ZM151.485 104.499C151.783 104.013 152.169 103.633 152.643 103.358C153.128 103.082 153.679 102.944 154.297 102.944V105.375H153.685C152.957 105.375 152.406 105.546 152.031 105.888C151.667 106.229 151.485 106.825 151.485 107.674V112.238H149.17V103.076H151.485V104.499Z" fill="white"/>
<rect opacity="0.2" x="61.9136" y="162.485" width="92.7869" height="23.1967" rx="5.88384" fill="white"/>
<path d="M76.1307 168.822L77.4603 171.574C77.536 171.735 77.6876 171.841 77.8598 171.869L80.8359 172.311C81.2699 172.374 81.4422 172.922 81.1321 173.231L78.9759 175.373C78.8519 175.499 78.7967 175.675 78.8243 175.85L79.3341 178.876C79.4099 179.319 78.9552 179.656 78.5625 179.445L75.8964 178.02C75.7449 177.936 75.5589 177.936 75.4004 178.02L72.7344 179.445C72.3486 179.656 71.8939 179.319 71.9628 178.876L72.4726 175.85C72.5001 175.675 72.445 175.499 72.321 175.373L70.1647 173.231C69.8478 172.915 70.0269 172.374 70.461 172.311L73.437 171.869C73.6092 171.841 73.7608 171.735 73.8366 171.574L75.1662 168.822C75.3591 168.421 75.924 168.421 76.1169 168.822H76.1307Z" fill="white"/>
<path d="M92.5648 168.822L93.8943 171.574C93.9701 171.735 94.1217 171.841 94.2939 171.869L97.27 172.311C97.704 172.374 97.8762 172.922 97.5662 173.231L95.41 175.373C95.286 175.499 95.2308 175.675 95.2584 175.85L95.7682 178.876C95.8439 179.319 95.3893 179.656 94.9966 179.445L92.3305 178.02C92.179 177.936 91.993 177.936 91.8345 178.02L89.1684 179.445C88.7827 179.656 88.3279 179.319 88.3968 178.876L88.9067 175.85C88.9342 175.675 88.8791 175.499 88.7551 175.373L86.5988 173.231C86.2819 172.915 86.461 172.374 86.895 172.311L89.8711 171.869C90.0433 171.841 90.1949 171.735 90.2707 171.574L91.6003 168.822C91.7932 168.421 92.3581 168.421 92.551 168.822H92.5648Z" fill="white"/>
<path d="M108.999 168.822L110.328 171.574C110.404 171.735 110.556 171.841 110.728 171.869L113.704 172.311C114.138 172.374 114.31 172.922 114 173.231L111.844 175.373C111.72 175.499 111.665 175.675 111.692 175.85L112.202 178.876C112.278 179.319 111.823 179.656 111.431 179.445L108.765 178.02C108.613 177.936 108.427 177.936 108.269 178.02L105.602 179.445C105.217 179.656 104.762 179.319 104.831 178.876L105.341 175.85C105.368 175.675 105.313 175.499 105.189 175.373L103.033 173.231C102.716 172.915 102.895 172.374 103.329 172.311L106.305 171.869C106.477 171.841 106.629 171.735 106.705 171.574L108.034 168.822C108.227 168.421 108.792 168.421 108.985 168.822H108.999Z" fill="white"/>
<path d="M125.433 168.822L126.762 171.574C126.838 171.735 126.99 171.841 127.162 171.869L130.138 172.311C130.572 172.374 130.744 172.922 130.434 173.231L128.278 175.373C128.154 175.499 128.099 175.675 128.127 175.85L128.636 178.876C128.712 179.319 128.257 179.656 127.865 179.445L125.199 178.02C125.047 177.936 124.861 177.936 124.703 178.02L122.037 179.445C121.651 179.656 121.196 179.319 121.265 178.876L121.775 175.85C121.802 175.675 121.747 175.499 121.623 175.373L119.467 173.231C119.15 172.915 119.329 172.374 119.763 172.311L122.739 171.869C122.911 171.841 123.063 171.735 123.139 171.574L124.468 168.822C124.661 168.421 125.226 168.421 125.419 168.822H125.433Z" fill="white"/>
<path d="M141.867 168.822L143.197 171.574C143.272 171.735 143.424 171.841 143.596 171.869L146.572 172.311C147.006 172.374 147.178 172.922 146.868 173.231L144.712 175.373C144.588 175.499 144.533 175.675 144.561 175.85L145.07 178.876C145.146 179.319 144.692 179.656 144.299 179.445L141.633 178.02C141.481 177.936 141.295 177.936 141.137 178.02L138.471 179.445C138.085 179.656 137.63 179.319 137.699 178.876L138.209 175.85C138.236 175.675 138.181 175.499 138.057 175.373L135.901 173.231C135.584 172.915 135.763 172.374 136.197 172.311L139.173 171.869C139.346 171.841 139.497 171.735 139.573 171.574L140.903 168.822C141.095 168.421 141.66 168.421 141.853 168.822H141.867Z" fill="white"/>
<rect x="82.5552" y="33.1213" width="51.7465" height="51.7465" rx="25.8733" fill="url(#paint2_linear_718_12143)"/>
<path d="M98.9915 55.4272C96.4667 53.5232 95.161 50.4798 94.9487 47.9289C94.9172 47.5245 94.5633 47.2893 94.2093 47.2893C93.9498 47.2893 93.6902 47.4143 93.5486 47.6789C90.9766 52.5234 91.9991 59.1837 94.9093 61.8448C95.5936 59.9188 96.7105 58.0001 98.1656 56.324C98.433 56.0153 98.7083 55.7212 98.9915 55.4345V55.4272ZM123.201 47.6789C123.06 47.4143 122.8 47.2893 122.54 47.2893C122.179 47.2893 121.833 47.5172 121.793 47.9289C121.581 50.4798 120.275 53.5305 117.75 55.4345C118.034 55.7212 118.309 56.0153 118.576 56.324C120.031 58.0001 121.148 59.9188 121.833 61.8448C124.743 59.1837 125.765 52.5308 123.201 47.6789ZM112.638 54.0084V64.2266H120.488C119.733 60.3084 116.689 55.9344 112.638 54.0084ZM104.112 64.2266V54.0084C100.061 55.927 97.0251 60.301 96.2622 64.2266H104.112ZM120.779 66.0424H95.9712C95.5228 66.0424 95.161 66.3805 95.161 66.7996V70.1297C95.161 70.5487 95.5228 70.8869 95.9712 70.8869H120.771C121.219 70.8869 121.581 70.5487 121.581 70.1297V66.7996C121.581 66.3805 121.219 66.0424 120.771 66.0424H120.779ZM110.695 53.3026C109.948 53.1115 109.169 53.0086 108.375 53.0086C107.581 53.0086 106.81 53.1115 106.055 53.3026V64.2193H110.687V53.3026H110.695Z" fill="white"/>
<circle opacity="0.3" cx="108.428" cy="58.9925" r="30.3342" stroke="white" stroke-width="2.67654"/>
</g>
<rect x="13.3721" y="12.5984" width="189.754" height="189.754" rx="19.1027" stroke="url(#paint3_linear_718_12143)" stroke-width="1.28"/>
</g>
<g filter="url(#filter1_b_718_12143)">
<g clip-path="url(#clip1_718_12143)">
<rect x="305.645" y="12.5984" width="189.754" height="189.754" rx="19.1027" fill="#000223" fill-opacity="0.2"/>
<rect opacity="0.3" x="356.516" y="125.127" width="88.2577" height="8.82577" rx="2.94192" fill="white"/>
<rect opacity="0.3" x="339.6" y="141.307" width="122.09" height="8.82577" rx="2.94192" fill="white"/>
<path d="M363.388 112.354C362.583 112.354 361.856 112.216 361.205 111.94C360.566 111.665 360.059 111.268 359.684 110.749C359.309 110.231 359.116 109.619 359.105 108.914H361.586C361.619 109.388 361.784 109.763 362.082 110.038C362.391 110.314 362.809 110.452 363.339 110.452C363.879 110.452 364.303 110.325 364.612 110.071C364.921 109.807 365.075 109.465 365.075 109.046C365.075 108.704 364.97 108.423 364.761 108.203C364.551 107.982 364.287 107.811 363.967 107.69C363.658 107.558 363.228 107.415 362.677 107.26C361.928 107.04 361.316 106.825 360.842 106.615C360.379 106.395 359.976 106.07 359.634 105.64C359.304 105.199 359.138 104.614 359.138 103.887C359.138 103.203 359.309 102.608 359.651 102.101C359.993 101.594 360.472 101.208 361.09 100.943C361.707 100.668 362.413 100.53 363.206 100.53C364.397 100.53 365.362 100.822 366.1 101.406C366.85 101.979 367.263 102.784 367.341 103.821H364.794C364.772 103.424 364.601 103.098 364.281 102.845C363.973 102.58 363.559 102.448 363.041 102.448C362.589 102.448 362.225 102.564 361.95 102.795C361.685 103.027 361.553 103.363 361.553 103.804C361.553 104.113 361.652 104.372 361.85 104.581C362.06 104.78 362.313 104.945 362.611 105.077C362.92 105.199 363.35 105.342 363.901 105.507C364.651 105.728 365.262 105.948 365.736 106.169C366.211 106.389 366.618 106.72 366.96 107.161C367.302 107.602 367.473 108.181 367.473 108.897C367.473 109.515 367.313 110.088 366.993 110.617C366.674 111.146 366.205 111.571 365.588 111.891C364.97 112.199 364.237 112.354 363.388 112.354ZM369.215 107.657C369.215 106.709 369.408 105.882 369.794 105.177C370.18 104.46 370.715 103.909 371.398 103.523C372.082 103.126 372.865 102.928 373.747 102.928C374.882 102.928 375.819 103.214 376.558 103.787C377.307 104.35 377.809 105.143 378.063 106.169H375.566C375.433 105.772 375.207 105.463 374.888 105.243C374.579 105.011 374.193 104.895 373.73 104.895C373.069 104.895 372.545 105.138 372.159 105.623C371.773 106.097 371.58 106.775 371.58 107.657C371.58 108.528 371.773 109.206 372.159 109.691C372.545 110.165 373.069 110.402 373.73 110.402C374.667 110.402 375.279 109.983 375.566 109.145H378.063C377.809 110.138 377.307 110.926 376.558 111.51C375.808 112.094 374.871 112.387 373.747 112.387C372.865 112.387 372.082 112.194 371.398 111.808C370.715 111.411 370.18 110.86 369.794 110.154C369.408 109.438 369.215 108.605 369.215 107.657ZM379.494 107.624C379.494 106.698 379.676 105.877 380.04 105.16C380.415 104.443 380.916 103.892 381.545 103.506C382.184 103.12 382.895 102.928 383.678 102.928C384.361 102.928 384.957 103.065 385.464 103.341C385.982 103.617 386.395 103.964 386.704 104.383V103.076H389.036V112.238H386.704V110.898C386.406 111.328 385.993 111.687 385.464 111.973C384.946 112.249 384.345 112.387 383.661 112.387C382.89 112.387 382.184 112.188 381.545 111.791C380.916 111.394 380.415 110.838 380.04 110.121C379.676 109.393 379.494 108.561 379.494 107.624ZM386.704 107.657C386.704 107.095 386.594 106.615 386.373 106.218C386.153 105.81 385.855 105.502 385.48 105.292C385.106 105.072 384.703 104.962 384.273 104.962C383.843 104.962 383.446 105.066 383.083 105.276C382.719 105.485 382.421 105.794 382.19 106.202C381.969 106.599 381.859 107.073 381.859 107.624C381.859 108.175 381.969 108.66 382.19 109.079C382.421 109.487 382.719 109.801 383.083 110.022C383.457 110.242 383.854 110.353 384.273 110.353C384.703 110.353 385.106 110.248 385.48 110.038C385.855 109.818 386.153 109.509 386.373 109.112C386.594 108.704 386.704 108.219 386.704 107.657ZM403.005 102.944C404.13 102.944 405.034 103.291 405.717 103.986C406.412 104.669 406.759 105.629 406.759 106.863V112.238H404.444V107.178C404.444 106.461 404.262 105.915 403.898 105.54C403.534 105.155 403.038 104.962 402.41 104.962C401.781 104.962 401.28 105.155 400.905 105.54C400.541 105.915 400.359 106.461 400.359 107.178V112.238H398.044V107.178C398.044 106.461 397.862 105.915 397.498 105.54C397.135 105.155 396.638 104.962 396.01 104.962C395.371 104.962 394.863 105.155 394.489 105.54C394.125 105.915 393.943 106.461 393.943 107.178V112.238H391.628V103.076H393.943V104.184C394.241 103.798 394.621 103.495 395.084 103.275C395.558 103.054 396.076 102.944 396.638 102.944C397.355 102.944 397.994 103.098 398.557 103.407C399.119 103.705 399.554 104.135 399.863 104.697C400.161 104.168 400.591 103.743 401.153 103.424C401.726 103.104 402.344 102.944 403.005 102.944ZM420.664 102.944C421.788 102.944 422.692 103.291 423.376 103.986C424.071 104.669 424.418 105.629 424.418 106.863V112.238H422.103V107.178C422.103 106.461 421.921 105.915 421.557 105.54C421.193 105.155 420.697 104.962 420.069 104.962C419.44 104.962 418.939 105.155 418.564 105.54C418.2 105.915 418.018 106.461 418.018 107.178V112.238H415.703V107.178C415.703 106.461 415.521 105.915 415.157 105.54C414.793 105.155 414.297 104.962 413.669 104.962C413.029 104.962 412.522 105.155 412.147 105.54C411.784 105.915 411.602 106.461 411.602 107.178V112.238H409.287V103.076H411.602V104.184C411.899 103.798 412.28 103.495 412.743 103.275C413.217 103.054 413.735 102.944 414.297 102.944C415.014 102.944 415.653 103.098 416.216 103.407C416.778 103.705 417.213 104.135 417.522 104.697C417.82 104.168 418.25 103.743 418.812 103.424C419.385 103.104 420.002 102.944 420.664 102.944ZM435.462 107.459C435.462 107.789 435.44 108.087 435.396 108.352H428.698C428.754 109.013 428.985 109.531 429.393 109.906C429.801 110.281 430.302 110.468 430.898 110.468C431.758 110.468 432.37 110.099 432.733 109.36H435.23C434.966 110.242 434.459 110.97 433.709 111.543C432.959 112.105 432.039 112.387 430.947 112.387C430.065 112.387 429.272 112.194 428.566 111.808C427.872 111.411 427.326 110.854 426.929 110.138C426.543 109.421 426.35 108.594 426.35 107.657C426.35 106.709 426.543 105.877 426.929 105.16C427.315 104.443 427.855 103.892 428.55 103.506C429.244 103.12 430.043 102.928 430.947 102.928C431.818 102.928 432.596 103.115 433.279 103.49C433.974 103.865 434.508 104.399 434.883 105.094C435.269 105.777 435.462 106.566 435.462 107.459ZM433.064 106.797C433.053 106.202 432.838 105.728 432.419 105.375C432 105.011 431.488 104.829 430.881 104.829C430.308 104.829 429.823 105.006 429.426 105.358C429.04 105.7 428.803 106.18 428.715 106.797H433.064ZM439.798 104.499C440.095 104.013 440.481 103.633 440.955 103.358C441.44 103.082 441.992 102.944 442.609 102.944V105.375H441.997C441.269 105.375 440.718 105.546 440.343 105.888C439.98 106.229 439.798 106.825 439.798 107.674V112.238H437.483V103.076H439.798V104.499Z" fill="white"/>
<rect opacity="0.2" x="354.186" y="162.485" width="92.7869" height="23.1967" rx="5.88384" fill="white"/>
<path d="M368.403 168.822L369.733 171.574C369.808 171.735 369.96 171.841 370.132 171.869L373.108 172.311C373.542 172.374 373.715 172.922 373.405 173.231L371.248 175.373C371.124 175.499 371.069 175.675 371.097 175.85L371.607 178.876C371.682 179.319 371.228 179.656 370.835 179.445L368.169 178.02C368.017 177.936 367.831 177.936 367.673 178.02L365.007 179.445C364.621 179.656 364.166 179.319 364.235 178.876L364.745 175.85C364.773 175.675 364.717 175.499 364.593 175.373L362.437 173.231C362.12 172.915 362.299 172.374 362.733 172.311L365.709 171.869C365.882 171.841 366.033 171.735 366.109 171.574L367.439 168.822C367.632 168.421 368.196 168.421 368.389 168.822H368.403Z" fill="white"/>
<path opacity="0.4" d="M384.837 168.822L386.167 171.574C386.243 171.735 386.394 171.841 386.566 171.869L389.542 172.311C389.976 172.374 390.149 172.922 389.839 173.231L387.682 175.373C387.558 175.499 387.503 175.675 387.531 175.85L388.041 178.876C388.116 179.319 387.662 179.656 387.269 179.445L384.603 178.02C384.451 177.936 384.265 177.936 384.107 178.02L381.441 179.445C381.055 179.656 380.6 179.319 380.669 178.876L381.179 175.85C381.207 175.675 381.152 175.499 381.028 175.373L378.871 173.231C378.554 172.915 378.733 172.374 379.167 172.311L382.144 171.869C382.316 171.841 382.467 171.735 382.543 171.574L383.873 168.822C384.066 168.421 384.631 168.421 384.823 168.822H384.837Z" fill="white"/>
<path opacity="0.4" d="M401.271 168.822L402.601 171.574C402.677 171.735 402.828 171.841 403 171.869L405.977 172.311C406.411 172.374 406.583 172.922 406.273 173.231L404.116 175.373C403.992 175.499 403.937 175.675 403.965 175.85L404.475 178.876C404.55 179.319 404.096 179.656 403.703 179.445L401.037 178.02C400.885 177.936 400.699 177.936 400.541 178.02L397.875 179.445C397.489 179.656 397.034 179.319 397.103 178.876L397.613 175.85C397.641 175.675 397.586 175.499 397.462 175.373L395.305 173.231C394.988 172.915 395.168 172.374 395.602 172.311L398.578 171.869C398.75 171.841 398.901 171.735 398.977 171.574L400.307 168.822C400.5 168.421 401.065 168.421 401.258 168.822H401.271Z" fill="white"/>
<path opacity="0.4" d="M417.705 168.822L419.035 171.574C419.111 171.735 419.262 171.841 419.435 171.869L422.411 172.311C422.845 172.374 423.017 172.922 422.707 173.231L420.551 175.373C420.427 175.499 420.371 175.675 420.399 175.85L420.909 178.876C420.985 179.319 420.53 179.656 420.137 179.445L417.471 178.02C417.32 177.936 417.134 177.936 416.975 178.02L414.309 179.445C413.923 179.656 413.469 179.319 413.537 178.876L414.047 175.85C414.075 175.675 414.02 175.499 413.896 175.373L411.739 173.231C411.423 172.915 411.602 172.374 412.036 172.311L415.012 171.869C415.184 171.841 415.335 171.735 415.411 171.574L416.741 168.822C416.934 168.421 417.499 168.421 417.692 168.822H417.705Z" fill="white"/>
<path opacity="0.4" d="M434.139 168.822L435.469 171.574C435.545 171.735 435.696 171.841 435.869 171.869L438.845 172.311C439.279 172.374 439.451 172.922 439.141 173.231L436.985 175.373C436.861 175.499 436.806 175.675 436.833 175.85L437.343 178.876C437.419 179.319 436.964 179.656 436.571 179.445L433.905 178.02C433.754 177.936 433.568 177.936 433.409 178.02L430.743 179.445C430.357 179.656 429.903 179.319 429.972 178.876L430.481 175.85C430.509 175.675 430.454 175.499 430.33 175.373L428.173 173.231C427.857 172.915 428.036 172.374 428.47 172.311L431.446 171.869C431.618 171.841 431.77 171.735 431.845 171.574L433.175 168.822C433.368 168.421 433.933 168.421 434.126 168.822H434.139Z" fill="white"/>
<rect x="374.828" y="33.1213" width="51.7465" height="51.7465" rx="25.8733" fill="white" fill-opacity="0.7"/>
<path d="M414.499 47.4125C414.479 46.9979 414.251 46.6168 413.897 46.4028C411.697 45.0856 407.177 42.8256 401.079 42.7654C394.72 42.7052 389.993 45.0655 387.78 46.4028C387.419 46.6168 387.198 46.9979 387.178 47.4125C387.044 50.0135 386.984 53.6375 387.271 58.0238C387.338 59.0201 387.372 59.5216 387.412 59.8559C388.355 66.9837 394.172 74.5995 400.638 75.3417H400.658C400.778 75.3551 400.898 75.3551 401.025 75.3417H401.039C407.505 74.5995 413.322 66.9837 414.265 59.8559C414.311 59.5216 414.338 59.0201 414.405 58.0238C414.692 53.6375 414.632 50.0135 414.499 47.4192V47.4125ZM393.771 57.168C391.872 56.5395 391.384 54.5736 391.357 54.46C392.547 54.5803 393.757 54.694 394.988 54.801C396.258 54.908 397.508 55.0083 398.739 55.0885C397.749 56.934 395.522 57.7497 393.771 57.168ZM395.322 66.422C395.549 66.1345 397.515 63.7006 400.892 63.7274C404.201 63.7474 406.12 66.1144 406.355 66.4153C402.677 66.4153 398.999 66.422 395.322 66.422ZM407.912 57.168C406.154 57.7497 403.927 56.934 402.938 55.0885C404.168 55.0083 405.418 54.908 406.689 54.801C407.919 54.694 409.129 54.5803 410.32 54.46C410.299 54.5736 409.805 56.5395 407.912 57.168Z" fill="#000223"/>
<circle opacity="0.3" cx="400.701" cy="58.9925" r="30.3342" stroke="white" stroke-width="2.67654"/>
</g>
<rect x="305.645" y="12.5984" width="189.754" height="189.754" rx="19.1027" stroke="white" stroke-opacity="0.4" stroke-width="1.28"/>
</g>
<path d="M106.339 201.716V297.866C106.339 308.416 114.891 316.969 125.442 316.969H161.737" stroke="#FBBE7E" stroke-width="1.28"/>
<path d="M401.158 201.716V271.122" stroke="#FF6E75" stroke-width="1.28"/>
<path d="M401.158 257.75V297.866C401.158 308.416 392.606 316.969 382.055 316.969H345.76" stroke="#FF6E75" stroke-width="1.28" stroke-dasharray="7 7"/>
<path d="M266.878 351.081C269.069 352.744 269.499 355.871 267.838 358.066C266.178 360.26 263.057 360.69 260.867 359.027L253.788 353.652C251.597 351.989 251.168 348.862 252.828 346.668C254.488 344.473 257.609 344.043 259.799 345.706L266.878 351.081Z" fill="#FBBE7E" stroke="#000223" stroke-width="1.28" stroke-miterlimit="10"/>
<path d="M276.16 345.597C278.318 347.304 278.686 350.44 276.982 352.602C275.278 354.763 272.147 355.132 269.99 353.424L259.914 345.453C257.757 343.746 257.389 340.61 259.093 338.448C260.797 336.287 263.927 335.918 266.085 337.625L276.16 345.597Z" fill="#FBBE7E" stroke="#000223" stroke-width="1.28" stroke-miterlimit="10"/>
<path d="M283.482 339.083C285.547 340.837 285.791 343.948 284.028 346.031C282.265 348.114 279.161 348.38 277.096 346.626L267.134 338.162C265.069 336.407 264.824 333.296 266.587 331.213C268.351 329.13 271.454 328.864 273.519 330.619L283.482 339.083Z" fill="#FBBE7E" stroke="#000223" stroke-width="1.28" stroke-miterlimit="10"/>
<path d="M290.393 331.66C292.527 333.473 292.796 336.666 290.996 338.793C289.196 340.919 286.007 341.174 283.874 339.362L273.584 330.619C271.451 328.807 271.181 325.614 272.982 323.487C274.782 321.361 277.97 321.106 280.104 322.918L290.393 331.66Z" fill="#FBBE7E" stroke="#000223" stroke-width="1.28" stroke-miterlimit="10"/>
<path d="M250.816 291.368C249.753 290.868 248.69 290.366 247.628 289.866C246.633 289.457 245.091 288.965 243.211 288.977C238.058 289.014 235.365 292.818 231.351 294.738C228.354 296.171 223.595 297.046 215.972 294.291C211.956 305.124 207.94 315.958 203.924 326.79C205.477 327.268 208.086 328.148 210.824 329.472C210.824 329.472 213.754 330.889 215.608 332.484C216 332.82 216.36 333.159 216.695 333.496C226.891 324.245 237.863 314.408 248.059 305.157C249.237 300.366 249.64 296.158 250.817 291.367L250.816 291.368Z" fill="#FBBE7E"/>
<path d="M197.24 283.629L214.672 289.913C216.53 290.52 217.545 292.521 216.939 294.383L206.271 327.139C205.665 329.001 203.667 330.017 201.809 329.41L184.377 323.127C182.519 322.519 181.504 320.518 182.11 318.657L192.778 285.9C193.385 284.038 195.382 283.022 197.24 283.629Z" fill="#000223" stroke="url(#paint4_linear_718_12143)" stroke-width="1.28" stroke-miterlimit="10"/>
<path d="M216.511 333.437C216.537 333.286 216.562 333.136 216.59 332.986C216.754 332.839 216.919 332.695 217.082 332.548C217.329 332.226 217.609 331.921 217.921 331.641L224.681 325.624C225.019 325.324 225.379 325.065 225.756 324.847C232.931 318.481 240.512 311.713 247.686 305.346C245.952 303.472 243.81 301.998 242.077 300.124C243.948 298.59 246.667 296.48 250.109 294.191C255.303 290.741 257.9 289.015 260.18 288.698C266.248 287.854 268.604 292.682 275.769 293.16C280.438 293.471 284.349 291.751 286.823 290.34C292.041 300.703 297.258 311.066 302.476 321.43C300.472 323.248 297.264 326.102 293.207 329.477C285.206 336.136 280.435 338.679 271.477 346.398C268.776 348.724 264.54 352.279 259.072 356.453L256.658 358.6C254.485 360.535 251.159 360.337 249.227 358.16C247.799 356.55 247.536 354.309 248.373 352.468L244.732 355.709C242.463 357.73 238.986 357.524 236.969 355.249C235.348 353.422 235.164 350.817 236.329 348.814L234.463 350.476C231.959 352.704 228.128 352.477 225.904 349.97C223.68 347.462 223.907 343.624 226.409 341.396L227.649 340.293C227.649 340.293 227.64 340.287 227.634 340.284L226.488 341.304C223.823 343.675 219.745 343.435 217.376 340.765C215.533 338.688 215.271 335.751 216.502 333.433L216.511 333.437Z" fill="#000223" stroke="white" stroke-width="1.28" stroke-linejoin="round"/>
<path d="M265.401 338.352L247.873 352.897" stroke="white" stroke-width="1.28" stroke-miterlimit="10" stroke-linecap="round"/>
<path d="M257.569 331.264L235.565 349.539" stroke="white" stroke-width="1.28" stroke-miterlimit="10" stroke-linecap="round"/>
<path d="M248.992 323.434L225.496 342.082" stroke="white" stroke-width="1.28" stroke-miterlimit="10" stroke-linecap="round"/>
<path d="M268.966 299.827C272.533 301.492 274.077 305.738 272.415 309.312C270.753 312.885 266.515 314.433 262.948 312.768L241.615 302.811C238.048 301.147 236.504 296.9 238.166 293.327C239.828 289.753 244.066 288.206 247.633 289.871L268.966 299.827Z" fill="#FBBE7E"/>
<path d="M285.156 287.523L303.123 276.716C304.816 275.737 306.98 276.317 307.957 278.013L325.154 307.853C326.131 309.549 325.551 311.717 323.859 312.696L305.891 323.503C304.199 324.482 302.034 323.901 301.057 322.206L283.86 292.366C282.883 290.67 283.463 288.502 285.156 287.523Z" fill="#FF6E75"/>
<path d="M285.156 287.523L303.123 276.716C304.816 275.737 306.98 276.317 307.957 278.013L325.154 307.853C326.131 309.549 325.551 311.717 323.859 312.696L305.891 323.503C304.199 324.482 302.034 323.901 301.057 322.206L283.86 292.366C282.883 290.67 283.463 288.502 285.156 287.523Z" fill="url(#paint5_linear_718_12143)"/>
<circle cx="253.389" cy="318.241" r="91.6492" stroke="url(#paint6_linear_718_12143)" stroke-width="1.28"/>
<circle opacity="0.2" cx="253.43" cy="318.242" r="121.618" stroke="white" stroke-width="1.28" stroke-dasharray="7.49 7.49"/>
<rect x="375.051" y="231.006" width="50.9407" height="50.9407" rx="25.4703" fill="#FF6E75"/>
<path d="M391.607 265.391L409.436 247.562" stroke="white" stroke-width="2.54703" stroke-miterlimit="10"/>
<path d="M409.436 265.391L391.607 247.562" stroke="white" stroke-width="2.54703" stroke-miterlimit="10"/>
<rect x="80.2319" y="231.006" width="50.9407" height="50.9407" rx="25.4703" fill="#FBBE7E"/>
<path d="M96.0532 256.621L102.385 262.514L114.85 250.351" stroke="#000223" stroke-width="2.54703" stroke-miterlimit="10"/>
<rect x="166.194" y="0.5" width="64.9493" height="64.9493" rx="12.7352" fill="#FBBE7E"/>
<path d="M181.893 23.0559C181.955 21.8144 182.39 20.8585 183.197 20.1881C184.016 19.5053 185.09 19.1639 186.418 19.1639C187.324 19.1639 188.1 19.3253 188.746 19.6481C189.391 19.9585 189.876 20.3868 190.198 20.933C190.534 21.4668 190.701 22.0751 190.701 22.7579C190.701 23.54 190.496 24.2042 190.087 24.7504C189.689 25.2842 189.211 25.6443 188.653 25.8305V25.905C189.373 26.1284 189.932 26.5257 190.329 27.0968C190.738 27.6678 190.943 28.4003 190.943 29.2941C190.943 30.039 190.769 30.7031 190.422 31.2866C190.087 31.8701 189.584 32.3294 188.914 32.6646C188.256 32.9874 187.461 33.1488 186.53 33.1488C185.127 33.1488 183.985 32.795 183.104 32.0873C182.222 31.3797 181.757 30.3369 181.707 28.9589H184.24C184.264 29.5672 184.469 30.0576 184.854 30.43C185.251 30.79 185.791 30.97 186.474 30.97C187.107 30.97 187.591 30.7962 187.927 30.4486C188.274 30.0886 188.448 29.6293 188.448 29.0706C188.448 28.3258 188.212 27.792 187.74 27.4692C187.269 27.1464 186.536 26.985 185.543 26.985H185.003V24.8435H185.543C187.306 24.8435 188.187 24.2539 188.187 23.0745C188.187 22.5407 188.026 22.1248 187.703 21.8268C187.393 21.5289 186.94 21.3799 186.344 21.3799C185.76 21.3799 185.307 21.5413 184.984 21.8641C184.674 22.1744 184.494 22.5717 184.444 23.0559H181.893ZM194.195 30.1135C195.387 29.1203 196.337 28.2947 197.044 27.6368C197.752 26.9664 198.342 26.2712 198.813 25.5512C199.285 24.8311 199.521 24.1235 199.521 23.4283C199.521 22.7952 199.372 22.2986 199.074 21.9386C198.776 21.5785 198.317 21.3985 197.696 21.3985C197.075 21.3985 196.597 21.6096 196.262 22.0317C195.927 22.4414 195.753 23.0062 195.741 23.7262H193.208C193.258 22.2365 193.699 21.1068 194.53 20.3371C195.375 19.5674 196.442 19.1826 197.733 19.1826C199.149 19.1826 200.235 19.5612 200.992 20.3185C201.749 21.0634 202.128 22.0503 202.128 23.2793C202.128 24.2476 201.867 25.1725 201.346 26.0539C200.825 26.9354 200.229 27.7051 199.558 28.363C198.888 29.0086 198.013 29.7907 196.933 30.7093H202.426V32.8694H193.227V30.9328L194.195 30.1135ZM213.566 21.7337H207.532V24.918C207.793 24.5952 208.166 24.3345 208.65 24.1359C209.134 23.9249 209.649 23.8193 210.195 23.8193C211.188 23.8193 212.002 24.0366 212.635 24.4711C213.268 24.9056 213.727 25.4643 214.013 26.147C214.298 26.8174 214.441 27.5375 214.441 28.3072C214.441 29.7348 214.031 30.8831 213.212 31.7522C212.405 32.6212 211.25 33.0557 209.748 33.0557C208.333 33.0557 207.203 32.7019 206.359 31.9942C205.515 31.2866 205.037 30.3617 204.925 29.2196H207.458C207.57 29.7162 207.818 30.1135 208.203 30.4114C208.6 30.7093 209.103 30.8583 209.711 30.8583C210.444 30.8583 210.996 30.6286 211.368 30.1693C211.741 29.71 211.927 29.1017 211.927 28.3444C211.927 27.5747 211.735 26.9912 211.35 26.594C210.977 26.1843 210.425 25.9795 209.692 25.9795C209.171 25.9795 208.737 26.1098 208.389 26.3705C208.041 26.6312 207.793 26.9788 207.644 27.4133H205.149V19.4433H213.566V21.7337Z" fill="#000223"/>
<path d="M184.646 38.8287C185.483 38.8287 186.218 38.9923 186.849 39.3195C187.488 39.6467 187.979 40.1146 188.321 40.7233C188.671 41.3244 188.846 42.0244 188.846 42.8234C188.846 43.6223 188.671 44.3223 188.321 44.9234C187.979 45.5169 187.488 45.9772 186.849 46.3044C186.218 46.6316 185.483 46.7952 184.646 46.7952H181.861V38.8287H184.646ZM184.589 45.437C185.426 45.437 186.073 45.2087 186.53 44.7522C186.986 44.2957 187.214 43.6527 187.214 42.8234C187.214 41.994 186.986 41.3472 186.53 40.8831C186.073 40.4114 185.426 40.1755 184.589 40.1755H183.459V45.437H184.589ZM191.869 40.1184V42.1157H194.551V43.3826H191.869V45.4941H194.893V46.7952H190.271V38.8173H194.893V40.1184H191.869ZM201.458 45.2772H198.285L197.76 46.7952H196.083L198.947 38.8173H200.808L203.672 46.7952H201.983L201.458 45.2772ZM201.025 43.9989L199.872 40.6663L198.719 43.9989H201.025ZM206.569 45.5283H209.194V46.7952H204.972V38.8287H206.569V45.5283ZM213.189 46.8751C212.633 46.8751 212.131 46.7799 211.682 46.5897C211.241 46.3995 210.891 46.1256 210.632 45.768C210.374 45.4104 210.24 44.9881 210.233 44.5011H211.945C211.968 44.8283 212.082 45.087 212.287 45.2772C212.5 45.4674 212.789 45.5625 213.155 45.5625C213.527 45.5625 213.82 45.475 214.033 45.3C214.247 45.1174 214.353 44.8815 214.353 44.5924C214.353 44.3565 214.281 44.1625 214.136 44.0103C213.992 43.8582 213.809 43.7402 213.588 43.6565C213.375 43.5652 213.079 43.4663 212.698 43.3598C212.181 43.2076 211.758 43.0592 211.431 42.9147C211.112 42.7625 210.834 42.538 210.598 42.2413C210.37 41.9369 210.256 41.5337 210.256 41.0315C210.256 40.5597 210.374 40.1489 210.609 39.7988C210.845 39.4488 211.176 39.1825 211.602 38.9999C212.029 38.8097 212.515 38.7146 213.063 38.7146C213.885 38.7146 214.551 38.9162 215.061 39.3195C215.578 39.7152 215.863 40.2706 215.917 40.9858H214.159C214.144 40.7119 214.026 40.4874 213.805 40.3124C213.592 40.1298 213.307 40.0385 212.949 40.0385C212.637 40.0385 212.386 40.1184 212.196 40.2782C212.013 40.438 211.922 40.6701 211.922 40.9744C211.922 41.1875 211.99 41.3663 212.127 41.5108C212.272 41.6478 212.447 41.7619 212.652 41.8532C212.865 41.9369 213.162 42.0358 213.543 42.15C214.06 42.3022 214.482 42.4543 214.81 42.6065C215.137 42.7587 215.418 42.9869 215.654 43.2913C215.89 43.5957 216.008 43.9951 216.008 44.4897C216.008 44.9158 215.898 45.3114 215.677 45.6767C215.456 46.0419 215.133 46.3348 214.707 46.5555C214.281 46.7685 213.775 46.8751 213.189 46.8751Z" fill="#000223"/>
<rect x="458.466" y="0.5" width="64.9493" height="64.9493" rx="12.7352" fill="#B2B3BD"/>
<path d="M487.169 30.1135C488.361 29.1203 489.311 28.2947 490.018 27.6368C490.726 26.9664 491.316 26.2712 491.787 25.5512C492.259 24.8311 492.495 24.1235 492.495 23.4283C492.495 22.7952 492.346 22.2986 492.048 21.9386C491.75 21.5785 491.291 21.3985 490.67 21.3985C490.049 21.3985 489.572 21.6096 489.236 22.0317C488.901 22.4414 488.727 23.0062 488.715 23.7262H486.182C486.232 22.2365 486.673 21.1068 487.505 20.3371C488.349 19.5674 489.416 19.1826 490.707 19.1826C492.123 19.1826 493.209 19.5612 493.966 20.3185C494.723 21.0634 495.102 22.0503 495.102 23.2793C495.102 24.2476 494.841 25.1725 494.32 26.0539C493.799 26.9354 493.203 27.7051 492.532 28.363C491.862 29.0086 490.987 29.7907 489.907 30.7093H495.4V32.8694H486.201V30.9328L487.169 30.1135Z" fill="#000223"/>
<path d="M476.918 38.8287C477.755 38.8287 478.489 38.9923 479.121 39.3195C479.76 39.6467 480.25 40.1146 480.593 40.7233C480.943 41.3244 481.118 42.0244 481.118 42.8234C481.118 43.6223 480.943 44.3223 480.593 44.9234C480.25 45.5169 479.76 45.9772 479.121 46.3044C478.489 46.6316 477.755 46.7952 476.918 46.7952H474.133V38.8287H476.918ZM476.861 45.437C477.698 45.437 478.344 45.2087 478.801 44.7522C479.258 44.2957 479.486 43.6527 479.486 42.8234C479.486 41.994 479.258 41.3472 478.801 40.8831C478.344 40.4114 477.698 40.1755 476.861 40.1755H475.731V45.437H476.861ZM484.14 40.1184V42.1157H486.822V43.3826H484.14V45.4941H487.165V46.7952H482.542V38.8173H487.165V40.1184H484.14ZM493.73 45.2772H490.557L490.032 46.7952H488.354L491.219 38.8173H493.079L495.944 46.7952H494.255L493.73 45.2772ZM493.296 43.9989L492.143 40.6663L490.991 43.9989H493.296ZM498.841 45.5283H501.466V46.7952H497.243V38.8287H498.841V45.5283ZM505.46 46.8751C504.905 46.8751 504.403 46.7799 503.954 46.5897C503.512 46.3995 503.162 46.1256 502.904 45.768C502.645 45.4104 502.512 44.9881 502.504 44.5011H504.216C504.239 44.8283 504.353 45.087 504.559 45.2772C504.772 45.4674 505.061 45.5625 505.426 45.5625C505.799 45.5625 506.092 45.475 506.305 45.3C506.518 45.1174 506.625 44.8815 506.625 44.5924C506.625 44.3565 506.552 44.1625 506.408 44.0103C506.263 43.8582 506.08 43.7402 505.86 43.6565C505.647 43.5652 505.35 43.4663 504.97 43.3598C504.452 43.2076 504.03 43.0592 503.703 42.9147C503.383 42.7625 503.105 42.538 502.87 42.2413C502.641 41.9369 502.527 41.5337 502.527 41.0315C502.527 40.5597 502.645 40.1489 502.881 39.7988C503.117 39.4488 503.448 39.1825 503.874 38.9999C504.3 38.8097 504.787 38.7146 505.335 38.7146C506.157 38.7146 506.822 38.9162 507.332 39.3195C507.85 39.7152 508.135 40.2706 508.188 40.9858H506.43C506.415 40.7119 506.297 40.4874 506.077 40.3124C505.864 40.1298 505.578 40.0385 505.221 40.0385C504.909 40.0385 504.658 40.1184 504.467 40.2782C504.285 40.438 504.193 40.6701 504.193 40.9744C504.193 41.1875 504.262 41.3663 504.399 41.5108C504.543 41.6478 504.718 41.7619 504.924 41.8532C505.137 41.9369 505.434 42.0358 505.814 42.15C506.332 42.3022 506.754 42.4543 507.081 42.6065C507.408 42.7587 507.69 42.9869 507.926 43.2913C508.161 43.5957 508.279 43.9951 508.279 44.4897C508.279 44.9158 508.169 45.3114 507.948 45.6767C507.728 46.0419 507.404 46.3348 506.978 46.5555C506.552 46.7685 506.046 46.8751 505.46 46.8751Z" fill="#000223"/>
<defs>
<filter id="filter0_b_718_12143" x="-50.626" y="-51.3995" width="317.75" height="317.75" filterUnits="userSpaceOnUse" color-interpolation-filters="sRGB">
<feFlood flood-opacity="0" result="BackgroundImageFix"/>
<feGaussianBlur in="BackgroundImageFix" stdDeviation="31.679"/>
<feComposite in2="SourceAlpha" operator="in" result="effect1_backgroundBlur_718_12143"/>
<feBlend mode="normal" in="SourceGraphic" in2="effect1_backgroundBlur_718_12143" result="shape"/>
</filter>
<filter id="filter1_b_718_12143" x="241.646" y="-51.3995" width="317.75" height="317.75" filterUnits="userSpaceOnUse" color-interpolation-filters="sRGB">
<feFlood flood-opacity="0" result="BackgroundImageFix"/>
<feGaussianBlur in="BackgroundImageFix" stdDeviation="31.679"/>
<feComposite in2="SourceAlpha" operator="in" result="effect1_backgroundBlur_718_12143"/>
<feBlend mode="normal" in="SourceGraphic" in2="effect1_backgroundBlur_718_12143" result="shape"/>
</filter>
<linearGradient id="paint0_linear_718_12143" x1="58.2984" y1="154.216" x2="15.4323" y2="83.9153" gradientUnits="userSpaceOnUse">
<stop stop-color="#FF6E75"/>
<stop offset="1" stop-color="#FBBE7E"/>
</linearGradient>
<radialGradient id="paint1_radial_718_12143" cx="0" cy="0" r="1" gradientUnits="userSpaceOnUse" gradientTransform="translate(0.5 119) rotate(1.20859) scale(118.526 74.5266)">
<stop stop-color="#935E5D"/>
<stop offset="0.641079" stop-color="#161635"/>
</radialGradient>
<linearGradient id="paint2_linear_718_12143" x1="114.093" y1="84.6768" x2="134.54" y2="33.1749" gradientUnits="userSpaceOnUse">
<stop stop-color="#FF6E75"/>
<stop offset="1" stop-color="#FBBE7E"/>
</linearGradient>
<linearGradient id="paint3_linear_718_12143" x1="183.068" y1="23.4233" x2="63.7416" y2="191.901" gradientUnits="userSpaceOnUse">
<stop stop-color="#FF6E75"/>
<stop offset="1" stop-color="#FBBE7E"/>
</linearGradient>
<linearGradient id="paint4_linear_718_12143" x1="212.138" y1="312.362" x2="186.077" y2="302.934" gradientUnits="userSpaceOnUse">
<stop stop-color="white"/>
<stop offset="1" stop-color="#999999" stop-opacity="0"/>
</linearGradient>
<linearGradient id="paint5_linear_718_12143" x1="307.025" y1="290.726" x2="289.703" y2="299.198" gradientUnits="userSpaceOnUse">
<stop stop-color="#000223"/>
<stop offset="1" stop-color="#FF6E75"/>
</linearGradient>
<linearGradient id="paint6_linear_718_12143" x1="151.867" y1="318.242" x2="349.899" y2="314.104" gradientUnits="userSpaceOnUse">
<stop stop-color="#FBBE7E"/>
<stop offset="1" stop-color="#FF6E75"/>
</linearGradient>
<clipPath id="clip0_718_12143">
<rect x="13.3721" y="12.5984" width="189.754" height="189.754" rx="19.1027" fill="white"/>
</clipPath>
<clipPath id="clip1_718_12143">
<rect x="305.645" y="12.5984" width="189.754" height="189.754" rx="19.1027" fill="white"/>
</clipPath>
</defs>
</svg>
