<svg width="473" height="442" viewBox="0 0 473 442" fill="none" xmlns="http://www.w3.org/2000/svg">
<rect x="56.7206" y="367.026" width="41.7904" height="41.7904" rx="20.8952" fill="#FF6E75"/>
<g opacity="0.6">
<circle cx="236.852" cy="221.48" r="124.651" stroke="white" stroke-width="0.480349" stroke-linejoin="round" stroke-dasharray="5.28 5.28"/>
<circle opacity="0.8" cx="236.852" cy="220.52" r="165" stroke="white" stroke-width="0.480349" stroke-linejoin="round"/>
<circle opacity="0.6" cx="236.852" cy="219.079" r="207.751" stroke="white" stroke-width="0.480349" stroke-linejoin="round"/>
</g>
<ellipse cx="394.166" cy="48.3144" rx="21.8559" ry="21.3755" fill="#FBBE7E"/>
<rect x="71.131" y="1" width="121.013" height="121.013" rx="14.0712" fill="#000223"/>
<rect x="1" y="160.956" width="121.013" height="121.013" rx="14.0712" fill="#000223"/>
<rect x="351.175" y="160.956" width="121.013" height="121.013" rx="14.0712" fill="#000223"/>
<rect x="281.044" y="319.952" width="121.013" height="121.013" rx="14.0712" fill="#000223"/>
<g opacity="0.4">
<g clip-path="url(#clip0_718_12225)">
<rect x="351.175" y="160.956" width="121.048" height="121.048" rx="14.4105" fill="#000223"/>
<rect opacity="0.3" x="384.024" y="232.741" width="56.3014" height="5.63014" rx="1.87671" fill="white"/>
<rect opacity="0.3" x="373.233" y="243.062" width="77.8836" height="5.63014" rx="1.87671" fill="white"/>
<path d="M388.709 219.951C388.709 220.345 388.614 220.714 388.424 221.059C388.241 221.403 387.95 221.681 387.549 221.892C387.155 222.103 386.656 222.209 386.051 222.209H384.816V225.036H383.34V217.672H386.051C386.62 217.672 387.106 217.771 387.507 217.968C387.907 218.165 388.206 218.435 388.403 218.78C388.607 219.125 388.709 219.515 388.709 219.951ZM385.987 221.017C386.395 221.017 386.698 220.925 386.895 220.742C387.092 220.552 387.19 220.289 387.19 219.951C387.19 219.234 386.789 218.875 385.987 218.875H384.816V221.017H385.987ZM391.446 220.099C391.635 219.789 391.882 219.547 392.184 219.371C392.493 219.195 392.845 219.107 393.239 219.107V220.658H392.849C392.384 220.658 392.033 220.767 391.794 220.985C391.562 221.203 391.446 221.583 391.446 222.124V225.036H389.969V219.192H391.446V220.099ZM397.04 225.131C396.477 225.131 395.971 225.008 395.521 224.761C395.071 224.508 394.715 224.153 394.455 223.696C394.202 223.239 394.075 222.711 394.075 222.114C394.075 221.516 394.206 220.988 394.466 220.531C394.733 220.074 395.095 219.722 395.552 219.476C396.009 219.223 396.519 219.097 397.082 219.097C397.645 219.097 398.154 219.223 398.612 219.476C399.069 219.722 399.427 220.074 399.688 220.531C399.955 220.988 400.088 221.516 400.088 222.114C400.088 222.711 399.951 223.239 399.677 223.696C399.41 224.153 399.044 224.508 398.58 224.761C398.123 225.008 397.609 225.131 397.04 225.131ZM397.04 223.844C397.307 223.844 397.557 223.78 397.789 223.654C398.028 223.52 398.218 223.323 398.358 223.063C398.499 222.803 398.569 222.486 398.569 222.114C398.569 221.558 398.422 221.133 398.126 220.837C397.838 220.535 397.483 220.384 397.061 220.384C396.639 220.384 396.284 220.535 395.995 220.837C395.714 221.133 395.573 221.558 395.573 222.114C395.573 222.669 395.711 223.098 395.985 223.401C396.266 223.696 396.618 223.844 397.04 223.844ZM405.877 220.647V221.892H401.404V220.647H405.877ZM413.114 219.951C413.114 220.345 413.019 220.714 412.829 221.059C412.646 221.403 412.354 221.681 411.953 221.892C411.559 222.103 411.06 222.209 410.455 222.209H409.221V225.036H407.744V217.672H410.455C411.025 217.672 411.51 217.771 411.911 217.968C412.312 218.165 412.611 218.435 412.808 218.78C413.012 219.125 413.114 219.515 413.114 219.951ZM410.392 221.017C410.8 221.017 411.102 220.925 411.299 220.742C411.496 220.552 411.595 220.289 411.595 219.951C411.595 219.234 411.194 218.875 410.392 218.875H409.221V221.017H410.392ZM415.85 217.229V225.036H414.373V217.229H415.85ZM417.14 222.093C417.14 221.502 417.256 220.978 417.489 220.521C417.728 220.064 418.048 219.712 418.449 219.466C418.856 219.22 419.31 219.097 419.809 219.097C420.245 219.097 420.625 219.184 420.949 219.36C421.279 219.536 421.543 219.758 421.74 220.025V219.192H423.227V225.036H421.74V224.181C421.55 224.456 421.286 224.684 420.949 224.867C420.618 225.043 420.235 225.131 419.799 225.131C419.307 225.131 418.856 225.004 418.449 224.751C418.048 224.498 417.728 224.143 417.489 223.685C417.256 223.221 417.14 222.69 417.14 222.093ZM421.74 222.114C421.74 221.755 421.67 221.449 421.529 221.196C421.388 220.936 421.198 220.739 420.959 220.605C420.72 220.464 420.463 220.394 420.189 220.394C419.915 220.394 419.662 220.461 419.43 220.595C419.198 220.728 419.008 220.925 418.86 221.185C418.719 221.438 418.649 221.741 418.649 222.093C418.649 222.444 418.719 222.754 418.86 223.021C419.008 223.281 419.198 223.482 419.43 223.622C419.669 223.763 419.922 223.833 420.189 223.833C420.463 223.833 420.72 223.766 420.959 223.633C421.198 223.492 421.388 223.295 421.529 223.042C421.67 222.782 421.74 222.472 421.74 222.114ZM430.472 219.192L426.853 227.8H425.282L426.548 224.888L424.206 219.192H425.862L427.37 223.274L428.9 219.192H430.472ZM436.912 221.987C436.912 222.198 436.898 222.388 436.87 222.557H432.597C432.632 222.979 432.78 223.309 433.04 223.548C433.3 223.787 433.62 223.907 434 223.907C434.549 223.907 434.939 223.671 435.171 223.2H436.764C436.595 223.763 436.272 224.227 435.794 224.593C435.315 224.951 434.728 225.131 434.032 225.131C433.469 225.131 432.963 225.008 432.513 224.761C432.07 224.508 431.722 224.153 431.468 223.696C431.222 223.239 431.099 222.711 431.099 222.114C431.099 221.509 431.222 220.978 431.468 220.521C431.715 220.064 432.059 219.712 432.502 219.466C432.945 219.22 433.455 219.097 434.032 219.097C434.587 219.097 435.083 219.216 435.519 219.455C435.962 219.694 436.303 220.035 436.543 220.479C436.789 220.915 436.912 221.417 436.912 221.987ZM435.382 221.565C435.375 221.185 435.238 220.883 434.971 220.658C434.703 220.426 434.376 220.31 433.99 220.31C433.624 220.31 433.314 220.422 433.061 220.647C432.815 220.865 432.664 221.171 432.608 221.565H435.382ZM439.678 220.099C439.868 219.789 440.114 219.547 440.416 219.371C440.726 219.195 441.077 219.107 441.471 219.107V220.658H441.081C440.616 220.658 440.265 220.767 440.026 220.985C439.794 221.203 439.678 221.583 439.678 222.124V225.036H438.201V219.192H439.678V220.099Z" fill="white"/>
<rect opacity="0.2" x="382.14" y="256.572" width="59.1907" height="14.7977" rx="3.75343" fill="white"/>
<path d="M391.21 260.614L392.058 262.37C392.106 262.473 392.203 262.54 392.313 262.558L394.211 262.841C394.488 262.881 394.598 263.23 394.4 263.427L393.025 264.793C392.946 264.874 392.911 264.986 392.928 265.098L393.253 267.029C393.302 267.311 393.012 267.526 392.761 267.391L391.06 266.482C390.964 266.428 390.845 266.428 390.744 266.482L389.043 267.391C388.797 267.526 388.507 267.311 388.551 267.029L388.876 265.098C388.894 264.986 388.859 264.874 388.78 264.793L387.404 263.427C387.202 263.226 387.316 262.881 387.593 262.841L389.491 262.558C389.601 262.54 389.698 262.473 389.746 262.37L390.595 260.614C390.718 260.359 391.078 260.359 391.201 260.614H391.21Z" fill="white"/>
<path d="M401.693 260.614L402.542 262.37C402.59 262.473 402.687 262.54 402.796 262.558L404.695 262.841C404.972 262.881 405.082 263.23 404.884 263.427L403.508 264.793C403.429 264.874 403.394 264.986 403.412 265.098L403.737 267.029C403.785 267.311 403.495 267.526 403.245 267.391L401.544 266.482C401.447 266.428 401.329 266.428 401.228 266.482L399.527 267.391C399.281 267.526 398.991 267.311 399.035 267.029L399.36 265.098C399.377 264.986 399.342 264.874 399.263 264.793L397.888 263.427C397.685 263.226 397.8 262.881 398.077 262.841L399.975 262.558C400.085 262.54 400.182 262.473 400.23 262.37L401.078 260.614C401.201 260.359 401.562 260.359 401.685 260.614H401.693Z" fill="white"/>
<path d="M412.177 260.614L413.025 262.37C413.074 262.473 413.17 262.54 413.28 262.558L415.179 262.841C415.455 262.881 415.565 263.23 415.368 263.427L413.992 264.793C413.913 264.874 413.878 264.986 413.895 265.098L414.221 267.029C414.269 267.311 413.979 267.526 413.728 267.391L412.028 266.482C411.931 266.428 411.812 266.428 411.711 266.482L410.01 267.391C409.764 267.526 409.474 267.311 409.518 267.029L409.843 265.098C409.861 264.986 409.826 264.874 409.747 264.793L408.371 263.427C408.169 263.226 408.283 262.881 408.56 262.841L410.459 262.558C410.569 262.54 410.665 262.473 410.714 262.37L411.562 260.614C411.685 260.359 412.045 260.359 412.168 260.614H412.177Z" fill="white"/>
<path d="M422.661 260.614L423.509 262.37C423.557 262.473 423.654 262.54 423.764 262.558L425.662 262.841C425.939 262.881 426.049 263.23 425.851 263.427L424.476 264.793C424.397 264.874 424.361 264.986 424.379 265.098L424.704 267.029C424.753 267.311 424.463 267.526 424.212 267.391L422.511 266.482C422.415 266.428 422.296 266.428 422.195 266.482L420.494 267.391C420.248 267.526 419.958 267.311 420.002 267.029L420.327 265.098C420.345 264.986 420.31 264.874 420.23 264.793L418.855 263.427C418.653 263.226 418.767 262.881 419.044 262.841L420.942 262.558C421.052 262.54 421.149 262.473 421.197 262.37L422.045 260.614C422.168 260.359 422.529 260.359 422.652 260.614H422.661Z" fill="white"/>
<path d="M433.144 260.614L433.993 262.37C434.041 262.473 434.138 262.54 434.248 262.558L436.146 262.841C436.423 262.881 436.533 263.23 436.335 263.427L434.959 264.793C434.88 264.874 434.845 264.986 434.863 265.098L435.188 267.029C435.236 267.311 434.946 267.526 434.696 267.391L432.995 266.482C432.898 266.428 432.78 266.428 432.679 266.482L430.978 267.391C430.732 267.526 430.442 267.311 430.486 267.029L430.811 265.098C430.828 264.986 430.793 264.874 430.714 264.793L429.339 263.427C429.137 263.226 429.251 262.881 429.528 262.841L431.426 262.558C431.536 262.54 431.633 262.473 431.681 262.37L432.529 260.614C432.652 260.359 433.013 260.359 433.136 260.614H433.144Z" fill="white"/>
<rect x="395.308" y="174.048" width="33.0102" height="33.0102" rx="16.5051" fill="white"/>
<path d="M406.191 188.675C404.58 187.461 403.747 185.519 403.612 183.892C403.592 183.634 403.366 183.484 403.14 183.484C402.974 183.484 402.809 183.564 402.719 183.732C401.078 186.823 401.73 191.072 403.587 192.769C404.023 191.54 404.736 190.317 405.664 189.247C405.834 189.05 406.01 188.863 406.191 188.68V188.675ZM421.635 183.732C421.544 183.564 421.379 183.484 421.213 183.484C420.982 183.484 420.762 183.629 420.736 183.892C420.601 185.519 419.768 187.465 418.157 188.68C418.338 188.863 418.514 189.05 418.684 189.247C419.613 190.317 420.325 191.54 420.762 192.769C422.618 191.072 423.27 186.828 421.635 183.732ZM414.896 187.77V194.289H419.904C419.422 191.789 417.48 188.999 414.896 187.77ZM409.457 194.289V187.77C406.873 188.994 404.936 191.784 404.45 194.289H409.457ZM420.089 195.447H404.264C403.978 195.447 403.747 195.663 403.747 195.93V198.054C403.747 198.322 403.978 198.537 404.264 198.537H420.084C420.37 198.537 420.601 198.322 420.601 198.054V195.93C420.601 195.663 420.37 195.447 420.084 195.447H420.089ZM413.657 187.32C413.18 187.198 412.683 187.132 412.177 187.132C411.67 187.132 411.178 187.198 410.696 187.32V194.284H413.652V187.32H413.657Z" fill="white"/>
<circle opacity="0.3" cx="411.813" cy="190.552" r="19.3508" stroke="white" stroke-width="1.70742"/>
</g>
<rect x="351.175" y="160.956" width="121.048" height="121.048" rx="14.4105" stroke="white" stroke-width="0.960699"/>
</g>
<g opacity="0.4">
<g clip-path="url(#clip1_718_12225)">
<rect x="280.563" y="319.952" width="121.048" height="121.048" rx="14.4105" fill="#000223"/>
<rect opacity="0.3" x="313.413" y="391.736" width="56.3014" height="5.63014" rx="1.87671" fill="white"/>
<rect opacity="0.3" x="302.622" y="402.058" width="77.8836" height="5.63014" rx="1.87671" fill="white"/>
<path d="M318.098 378.947C318.098 379.34 318.003 379.71 317.813 380.054C317.63 380.399 317.338 380.677 316.937 380.888C316.544 381.099 316.044 381.204 315.439 381.204H314.205V384.031H312.728V376.668H315.439C316.009 376.668 316.494 376.766 316.895 376.963C317.296 377.16 317.595 377.431 317.792 377.776C317.996 378.12 318.098 378.511 318.098 378.947ZM315.376 380.012C315.784 380.012 316.086 379.921 316.283 379.738C316.48 379.548 316.579 379.284 316.579 378.947C316.579 378.229 316.178 377.871 315.376 377.871H314.205V380.012H315.376ZM320.834 379.094C321.024 378.785 321.27 378.542 321.573 378.366C321.882 378.191 322.234 378.103 322.628 378.103V379.653H322.237C321.773 379.653 321.421 379.762 321.182 379.98C320.95 380.198 320.834 380.578 320.834 381.12V384.031H319.357V378.187H320.834V379.094ZM326.428 384.126C325.866 384.126 325.359 384.003 324.909 383.757C324.459 383.504 324.104 383.149 323.844 382.692C323.591 382.234 323.464 381.707 323.464 381.109C323.464 380.511 323.594 379.984 323.854 379.527C324.122 379.07 324.484 378.718 324.941 378.472C325.398 378.219 325.908 378.092 326.471 378.092C327.033 378.092 327.543 378.219 328 378.472C328.457 378.718 328.816 379.07 329.076 379.527C329.344 379.984 329.477 380.511 329.477 381.109C329.477 381.707 329.34 382.234 329.066 382.692C328.798 383.149 328.433 383.504 327.969 383.757C327.511 384.003 326.998 384.126 326.428 384.126ZM326.428 382.839C326.696 382.839 326.945 382.776 327.177 382.649C327.417 382.516 327.606 382.319 327.747 382.059C327.888 381.798 327.958 381.482 327.958 381.109C327.958 380.554 327.81 380.128 327.515 379.833C327.227 379.53 326.872 379.379 326.45 379.379C326.028 379.379 325.672 379.53 325.384 379.833C325.103 380.128 324.962 380.554 324.962 381.109C324.962 381.665 325.099 382.094 325.374 382.396C325.655 382.692 326.006 382.839 326.428 382.839ZM335.265 379.643V380.888H330.793V379.643H335.265ZM342.502 378.947C342.502 379.34 342.407 379.71 342.217 380.054C342.035 380.399 341.743 380.677 341.342 380.888C340.948 381.099 340.449 381.204 339.844 381.204H338.61V384.031H337.133V376.668H339.844C340.414 376.668 340.899 376.766 341.3 376.963C341.701 377.16 341.999 377.431 342.196 377.776C342.4 378.12 342.502 378.511 342.502 378.947ZM339.781 380.012C340.188 380.012 340.491 379.921 340.688 379.738C340.885 379.548 340.983 379.284 340.983 378.947C340.983 378.229 340.582 377.871 339.781 377.871H338.61V380.012H339.781ZM345.239 376.225V384.031H343.762V376.225H345.239ZM346.529 381.088C346.529 380.497 346.645 379.973 346.877 379.516C347.116 379.059 347.436 378.707 347.837 378.461C348.245 378.215 348.699 378.092 349.198 378.092C349.634 378.092 350.014 378.18 350.337 378.356C350.668 378.532 350.932 378.753 351.129 379.02V378.187H352.616V384.031H351.129V383.177C350.939 383.451 350.675 383.68 350.337 383.863C350.007 384.038 349.624 384.126 349.188 384.126C348.695 384.126 348.245 384 347.837 383.746C347.436 383.493 347.116 383.138 346.877 382.681C346.645 382.217 346.529 381.686 346.529 381.088ZM351.129 381.109C351.129 380.751 351.058 380.445 350.918 380.191C350.777 379.931 350.587 379.734 350.348 379.601C350.109 379.46 349.852 379.39 349.578 379.39C349.304 379.39 349.05 379.456 348.818 379.59C348.586 379.724 348.396 379.921 348.249 380.181C348.108 380.434 348.038 380.736 348.038 381.088C348.038 381.44 348.108 381.749 348.249 382.016C348.396 382.277 348.586 382.477 348.818 382.618C349.057 382.758 349.311 382.829 349.578 382.829C349.852 382.829 350.109 382.762 350.348 382.628C350.587 382.488 350.777 382.291 350.918 382.038C351.058 381.777 351.129 381.468 351.129 381.109ZM359.86 378.187L356.242 386.795H354.67L355.936 383.884L353.594 378.187H355.25L356.759 382.27L358.289 378.187H359.86ZM366.3 380.983C366.3 381.194 366.286 381.383 366.258 381.552H361.986C362.021 381.974 362.169 382.305 362.429 382.544C362.689 382.783 363.009 382.903 363.389 382.903C363.937 382.903 364.328 382.667 364.56 382.196H366.153C365.984 382.758 365.66 383.223 365.182 383.588C364.704 383.947 364.117 384.126 363.421 384.126C362.858 384.126 362.352 384.003 361.901 383.757C361.458 383.504 361.11 383.149 360.857 382.692C360.611 382.234 360.488 381.707 360.488 381.109C360.488 380.504 360.611 379.973 360.857 379.516C361.103 379.059 361.448 378.707 361.891 378.461C362.334 378.215 362.844 378.092 363.421 378.092C363.976 378.092 364.472 378.212 364.908 378.451C365.351 378.69 365.692 379.031 365.931 379.474C366.177 379.91 366.3 380.413 366.3 380.983ZM364.771 380.561C364.764 380.181 364.627 379.878 364.359 379.653C364.092 379.421 363.765 379.305 363.378 379.305C363.013 379.305 362.703 379.418 362.45 379.643C362.204 379.861 362.053 380.167 361.996 380.561H364.771ZM369.066 379.094C369.256 378.785 369.502 378.542 369.805 378.366C370.114 378.191 370.466 378.103 370.86 378.103V379.653H370.469C370.005 379.653 369.654 379.762 369.414 379.98C369.182 380.198 369.066 380.578 369.066 381.12V384.031H367.589V378.187H369.066V379.094Z" fill="white"/>
<rect opacity="0.2" x="311.529" y="415.568" width="59.1907" height="14.7977" rx="3.75343" fill="white"/>
<path d="M320.598 419.61L321.447 421.366C321.495 421.469 321.592 421.536 321.702 421.554L323.6 421.836C323.877 421.876 323.987 422.226 323.789 422.423L322.413 423.789C322.334 423.87 322.299 423.982 322.317 424.094L322.642 426.024C322.69 426.306 322.4 426.521 322.15 426.387L320.449 425.478C320.352 425.424 320.234 425.424 320.133 425.478L318.432 426.387C318.186 426.521 317.896 426.306 317.94 426.024L318.265 424.094C318.282 423.982 318.247 423.87 318.168 423.789L316.793 422.423C316.59 422.221 316.705 421.876 316.982 421.836L318.88 421.554C318.99 421.536 319.087 421.469 319.135 421.366L319.983 419.61C320.106 419.355 320.467 419.355 320.59 419.61H320.598Z" fill="white"/>
<path d="M331.082 419.61L331.93 421.366C331.979 421.469 332.075 421.536 332.185 421.554L334.084 421.836C334.361 421.876 334.47 422.226 334.273 422.423L332.897 423.789C332.818 423.87 332.783 423.982 332.8 424.094L333.126 426.024C333.174 426.306 332.884 426.521 332.633 426.387L330.933 425.478C330.836 425.424 330.717 425.424 330.616 425.478L328.916 426.387C328.669 426.521 328.379 426.306 328.423 426.024L328.749 424.094C328.766 423.982 328.731 423.87 328.652 423.789L327.276 422.423C327.074 422.221 327.188 421.876 327.465 421.836L329.364 421.554C329.474 421.536 329.57 421.469 329.619 421.366L330.467 419.61C330.59 419.355 330.95 419.355 331.073 419.61H331.082Z" fill="white"/>
<path d="M341.566 419.61L342.414 421.366C342.462 421.469 342.559 421.536 342.669 421.554L344.567 421.836C344.844 421.876 344.954 422.226 344.756 422.423L343.381 423.789C343.302 423.87 343.266 423.982 343.284 424.094L343.609 426.024C343.658 426.306 343.368 426.521 343.117 426.387L341.416 425.478C341.32 425.424 341.201 425.424 341.1 425.478L339.399 426.387C339.153 426.521 338.863 426.306 338.907 426.024L339.232 424.094C339.25 423.982 339.215 423.87 339.135 423.789L337.76 422.423C337.558 422.221 337.672 421.876 337.949 421.836L339.847 421.554C339.957 421.536 340.054 421.469 340.102 421.366L340.95 419.61C341.074 419.355 341.434 419.355 341.557 419.61H341.566Z" fill="white"/>
<path d="M352.049 419.61L352.898 421.366C352.946 421.469 353.043 421.536 353.152 421.554L355.051 421.836C355.328 421.876 355.438 422.226 355.24 422.423L353.864 423.789C353.785 423.87 353.75 423.982 353.768 424.094L354.093 426.024C354.141 426.306 353.851 426.521 353.601 426.387L351.9 425.478C351.803 425.424 351.685 425.424 351.584 425.478L349.883 426.387C349.637 426.521 349.347 426.306 349.391 426.024L349.716 424.094C349.733 423.982 349.698 423.87 349.619 423.789L348.244 422.423C348.041 422.221 348.156 421.876 348.433 421.836L350.331 421.554C350.441 421.536 350.538 421.469 350.586 421.366L351.434 419.61C351.557 419.355 351.918 419.355 352.041 419.61H352.049Z" fill="white"/>
<path d="M362.533 419.61L363.381 421.366C363.43 421.469 363.526 421.536 363.636 421.554L365.535 421.836C365.812 421.876 365.921 422.226 365.724 422.423L364.348 423.789C364.269 423.87 364.234 423.982 364.251 424.094L364.577 426.024C364.625 426.306 364.335 426.521 364.084 426.387L362.384 425.478C362.287 425.424 362.168 425.424 362.067 425.478L360.367 426.387C360.12 426.521 359.83 426.306 359.874 426.024L360.2 424.094C360.217 423.982 360.182 423.87 360.103 423.789L358.727 422.423C358.525 422.221 358.639 421.876 358.916 421.836L360.815 421.554C360.925 421.536 361.021 421.469 361.07 421.366L361.918 419.61C362.041 419.355 362.401 419.355 362.524 419.61H362.533Z" fill="white"/>
<rect x="324.697" y="333.044" width="33.0102" height="33.0102" rx="16.5051" fill="white"/>
<path d="M335.579 347.671C333.969 346.456 333.136 344.515 333 342.887C332.98 342.63 332.755 342.479 332.529 342.479C332.363 342.479 332.198 342.559 332.107 342.728C330.467 345.818 331.119 350.067 332.975 351.765C333.412 350.536 334.124 349.312 335.053 348.243C335.223 348.046 335.399 347.858 335.579 347.675V347.671ZM351.023 342.728C350.933 342.559 350.767 342.479 350.602 342.479C350.371 342.479 350.15 342.625 350.125 342.887C349.99 344.515 349.157 346.461 347.546 347.675C347.727 347.858 347.902 348.046 348.073 348.243C349.001 349.312 349.714 350.536 350.15 351.765C352.007 350.067 352.659 345.823 351.023 342.728ZM344.285 346.766V353.284H349.292C348.811 350.785 346.869 347.994 344.285 346.766ZM338.846 353.284V346.766C336.262 347.99 334.325 350.78 333.838 353.284H338.846ZM349.478 354.442H333.653C333.367 354.442 333.136 354.658 333.136 354.925V357.05C333.136 357.317 333.367 357.533 333.653 357.533H349.473C349.759 357.533 349.99 357.317 349.99 357.05V354.925C349.99 354.658 349.759 354.442 349.473 354.442H349.478ZM343.045 346.316C342.569 346.194 342.072 346.128 341.565 346.128C341.058 346.128 340.567 346.194 340.085 346.316V353.279H343.04V346.316H343.045Z" fill="white"/>
<circle opacity="0.3" cx="341.202" cy="349.548" r="19.3508" stroke="white" stroke-width="1.70742"/>
</g>
<rect x="280.563" y="319.952" width="121.048" height="121.048" rx="14.4105" stroke="white" stroke-width="0.960699"/>
</g>
<g opacity="0.4">
<g clip-path="url(#clip2_718_12225)">
<rect x="1" y="160.956" width="121.048" height="121.048" rx="14.4105" fill="#000223"/>
<rect opacity="0.3" x="33.8494" y="232.741" width="56.3014" height="5.63014" rx="1.87671" fill="white"/>
<rect opacity="0.3" x="23.0582" y="243.062" width="77.8836" height="5.63014" rx="1.87671" fill="white"/>
<path d="M23.9855 221.344C23.9855 220.619 24.1473 219.972 24.4708 219.402C24.8013 218.826 25.2479 218.379 25.8105 218.063C26.3802 217.739 27.0166 217.577 27.7199 217.577C28.5428 217.577 29.2636 217.788 29.8825 218.21C30.5014 218.632 30.9339 219.216 31.1801 219.962H29.4816C29.3128 219.61 29.0737 219.346 28.7643 219.17C28.4619 218.995 28.1102 218.907 27.7094 218.907C27.2804 218.907 26.8971 219.009 26.5595 219.213C26.229 219.41 25.9688 219.691 25.7789 220.057C25.596 220.422 25.5046 220.851 25.5046 221.344C25.5046 221.829 25.596 222.258 25.7789 222.631C25.9688 222.996 26.229 223.281 26.5595 223.485C26.8971 223.682 27.2804 223.78 27.7094 223.78C28.1102 223.78 28.4619 223.693 28.7643 223.517C29.0737 223.334 29.3128 223.067 29.4816 222.715H31.1801C30.9339 223.467 30.5014 224.055 29.8825 224.477C29.2707 224.892 28.5498 225.099 27.7199 225.099C27.0166 225.099 26.3802 224.941 25.8105 224.624C25.2479 224.301 24.8013 223.854 24.4708 223.285C24.1473 222.715 23.9855 222.068 23.9855 221.344ZM32.2727 222.093C32.2727 221.502 32.3888 220.978 32.6208 220.521C32.86 220.064 33.18 219.712 33.5808 219.466C33.9887 219.22 34.4423 219.097 34.9417 219.097C35.3777 219.097 35.7575 219.184 36.081 219.36C36.4115 219.536 36.6753 219.758 36.8722 220.025V219.192H38.3596V225.036H36.8722V224.181C36.6823 224.456 36.4186 224.684 36.081 224.867C35.7504 225.043 35.3672 225.131 34.9311 225.131C34.4388 225.131 33.9887 225.004 33.5808 224.751C33.18 224.498 32.86 224.143 32.6208 223.685C32.3888 223.221 32.2727 222.69 32.2727 222.093ZM36.8722 222.114C36.8722 221.755 36.8018 221.449 36.6612 221.196C36.5205 220.936 36.3306 220.739 36.0915 220.605C35.8524 220.464 35.5957 220.394 35.3214 220.394C35.0472 220.394 34.794 220.461 34.5619 220.595C34.3298 220.728 34.1399 220.925 33.9922 221.185C33.8516 221.438 33.7813 221.741 33.7813 222.093C33.7813 222.444 33.8516 222.754 33.9922 223.021C34.1399 223.281 34.3298 223.482 34.5619 223.622C34.801 223.763 35.0542 223.833 35.3214 223.833C35.5957 223.833 35.8524 223.766 36.0915 223.633C36.3306 223.492 36.5205 223.295 36.6612 223.042C36.8018 222.782 36.8722 222.472 36.8722 222.114ZM42.2495 225.131C41.7712 225.131 41.3422 225.046 40.9625 224.878C40.5827 224.702 40.2803 224.466 40.0552 224.171C39.8372 223.875 39.7176 223.548 39.6965 223.19H41.184C41.2121 223.415 41.3211 223.601 41.511 223.749C41.7079 223.896 41.9506 223.97 42.2389 223.97C42.5202 223.97 42.7382 223.914 42.893 223.802C43.0547 223.689 43.1356 223.545 43.1356 223.369C43.1356 223.179 43.0371 223.038 42.8402 222.947C42.6503 222.849 42.3444 222.743 41.9224 222.631C41.4864 222.525 41.1277 222.416 40.8464 222.304C40.5721 222.191 40.333 222.019 40.1291 221.787C39.9321 221.555 39.8337 221.242 39.8337 220.848C39.8337 220.524 39.9251 220.229 40.108 219.962C40.2979 219.694 40.5651 219.483 40.9097 219.329C41.2613 219.174 41.6728 219.097 42.144 219.097C42.8402 219.097 43.3958 219.272 43.8107 219.624C44.2257 219.969 44.4542 220.436 44.4964 221.027H43.0828C43.0617 220.795 42.9633 220.612 42.7875 220.479C42.6187 220.338 42.3901 220.268 42.1018 220.268C41.8345 220.268 41.627 220.317 41.4794 220.415C41.3387 220.514 41.2684 220.651 41.2684 220.827C41.2684 221.024 41.3668 221.175 41.5638 221.28C41.7607 221.379 42.0666 221.481 42.4815 221.586C42.9035 221.692 43.2516 221.801 43.5259 221.913C43.8002 222.026 44.0358 222.202 44.2327 222.441C44.4367 222.673 44.5421 222.982 44.5492 223.369C44.5492 223.707 44.4542 224.009 44.2643 224.276C44.0815 224.543 43.8142 224.754 43.4626 224.909C43.118 225.057 42.7136 225.131 42.2495 225.131ZM51.4897 219.192V225.036H50.0023V224.297C49.8124 224.551 49.5627 224.751 49.2533 224.899C48.9509 225.039 48.6203 225.11 48.2617 225.11C47.8045 225.11 47.4001 225.015 47.0485 224.825C46.6969 224.628 46.4191 224.343 46.2151 223.97C46.0182 223.591 45.9197 223.14 45.9197 222.62V219.192H47.3966V222.409C47.3966 222.873 47.5127 223.232 47.7448 223.485C47.9768 223.731 48.2933 223.854 48.6942 223.854C49.1021 223.854 49.4221 223.731 49.6542 223.485C49.8862 223.232 50.0023 222.873 50.0023 222.409V219.192H51.4897ZM52.7781 222.093C52.7781 221.502 52.8942 220.978 53.1262 220.521C53.3654 220.064 53.6854 219.712 54.0862 219.466C54.4941 219.22 54.9477 219.097 55.4471 219.097C55.8831 219.097 56.2629 219.184 56.5864 219.36C56.9169 219.536 57.1807 219.758 57.3776 220.025V219.192H58.865V225.036H57.3776V224.181C57.1877 224.456 56.924 224.684 56.5864 224.867C56.2558 225.043 55.8726 225.131 55.4365 225.131C54.9442 225.131 54.4941 225.004 54.0862 224.751C53.6854 224.498 53.3654 224.143 53.1262 223.685C52.8942 223.221 52.7781 222.69 52.7781 222.093ZM57.3776 222.114C57.3776 221.755 57.3072 221.449 57.1666 221.196C57.0259 220.936 56.836 220.739 56.5969 220.605C56.3578 220.464 56.1011 220.394 55.8268 220.394C55.5526 220.394 55.2994 220.461 55.0673 220.595C54.8352 220.728 54.6453 220.925 54.4976 221.185C54.357 221.438 54.2867 221.741 54.2867 222.093C54.2867 222.444 54.357 222.754 54.4976 223.021C54.6453 223.281 54.8352 223.482 55.0673 223.622C55.3064 223.763 55.5596 223.833 55.8268 223.833C56.1011 223.833 56.3578 223.766 56.5969 223.633C56.836 223.492 57.0259 223.295 57.1666 223.042C57.3072 222.782 57.3776 222.472 57.3776 222.114ZM61.9953 217.229V225.036H60.5184V217.229H61.9953ZM71.7597 219.951C71.7597 220.345 71.6647 220.714 71.4748 221.059C71.292 221.403 71.0001 221.681 70.5992 221.892C70.2054 222.103 69.7061 222.209 69.1013 222.209H67.867V225.036H66.3901V217.672H69.1013C69.6709 217.672 70.1562 217.771 70.557 217.968C70.9579 218.165 71.2568 218.435 71.4537 218.78C71.6577 219.125 71.7597 219.515 71.7597 219.951ZM69.038 221.017C69.4459 221.017 69.7483 220.925 69.9452 220.742C70.1421 220.552 70.2406 220.289 70.2406 219.951C70.2406 219.234 69.8397 218.875 69.038 218.875H67.867V221.017H69.038ZM74.4961 217.229V225.036H73.0192V217.229H74.4961ZM75.7865 222.093C75.7865 221.502 75.9025 220.978 76.1346 220.521C76.3737 220.064 76.6937 219.712 77.0946 219.466C77.5025 219.22 77.9561 219.097 78.4554 219.097C78.8915 219.097 79.2712 219.184 79.5947 219.36C79.9253 219.536 80.189 219.758 80.3859 220.025V219.192H81.8734V225.036H80.3859V224.181C80.196 224.456 79.9323 224.684 79.5947 224.867C79.2642 225.043 78.8809 225.131 78.4449 225.131C77.9526 225.131 77.5025 225.004 77.0946 224.751C76.6937 224.498 76.3737 224.143 76.1346 223.685C75.9025 223.221 75.7865 222.69 75.7865 222.093ZM80.3859 222.114C80.3859 221.755 80.3156 221.449 80.1749 221.196C80.0343 220.936 79.8444 220.739 79.6053 220.605C79.3662 220.464 79.1095 220.394 78.8352 220.394C78.5609 220.394 78.3077 220.461 78.0757 220.595C77.8436 220.728 77.6537 220.925 77.506 221.185C77.3653 221.438 77.295 221.741 77.295 222.093C77.295 222.444 77.3653 222.754 77.506 223.021C77.6537 223.281 77.8436 223.482 78.0757 223.622C78.3148 223.763 78.5679 223.833 78.8352 223.833C79.1095 223.833 79.3662 223.766 79.6053 223.633C79.8444 223.492 80.0343 223.295 80.1749 223.042C80.3156 222.782 80.3859 222.472 80.3859 222.114ZM89.1179 219.192L85.4995 227.8H83.9277L85.1936 224.888L82.8516 219.192H84.5079L86.0164 223.274L87.546 219.192H89.1179ZM95.5578 221.987C95.5578 222.198 95.5437 222.388 95.5156 222.557H91.2432C91.2784 222.979 91.426 223.309 91.6863 223.548C91.9465 223.787 92.2665 223.907 92.6462 223.907C93.1948 223.907 93.5851 223.671 93.8172 223.2H95.4101C95.2413 223.763 94.9178 224.227 94.4396 224.593C93.9614 224.951 93.3741 225.131 92.6779 225.131C92.1153 225.131 91.6089 225.008 91.1588 224.761C90.7157 224.508 90.3676 224.153 90.1144 223.696C89.8683 223.239 89.7452 222.711 89.7452 222.114C89.7452 221.509 89.8683 220.978 90.1144 220.521C90.3606 220.064 90.7052 219.712 91.1482 219.466C91.5913 219.22 92.1012 219.097 92.6779 219.097C93.2335 219.097 93.7293 219.216 94.1653 219.455C94.6084 219.694 94.9495 220.035 95.1886 220.479C95.4347 220.915 95.5578 221.417 95.5578 221.987ZM94.0282 221.565C94.0211 221.185 93.884 220.883 93.6168 220.658C93.3495 220.426 93.0225 220.31 92.6357 220.31C92.27 220.31 91.9605 220.422 91.7074 220.647C91.4612 220.865 91.31 221.171 91.2537 221.565H94.0282ZM98.3237 220.099C98.5136 219.789 98.7597 219.547 99.0621 219.371C99.3716 219.195 99.7232 219.107 100.117 219.107V220.658H99.7267C99.2625 220.658 98.9109 220.767 98.6718 220.985C98.4397 221.203 98.3237 221.583 98.3237 222.124V225.036H96.8468V219.192H98.3237V220.099Z" fill="white"/>
<rect opacity="0.2" x="31.9657" y="256.572" width="59.1907" height="14.7977" rx="3.75343" fill="white"/>
<path d="M41.0351 260.614L41.8833 262.37C41.9316 262.473 42.0283 262.54 42.1382 262.558L44.0367 262.841C44.3135 262.881 44.4234 263.23 44.2256 263.427L42.8501 264.793C42.771 264.874 42.7358 264.986 42.7534 265.098L43.0786 267.029C43.127 267.311 42.8369 267.526 42.5864 267.391L40.8857 266.482C40.789 266.428 40.6703 266.428 40.5693 266.482L38.8685 267.391C38.6224 267.526 38.3324 267.311 38.3763 267.029L38.7015 265.098C38.7191 264.986 38.6839 264.874 38.6048 264.793L37.2293 263.427C37.0271 263.226 37.1414 262.881 37.4183 262.841L39.3168 262.558C39.4266 262.54 39.5233 262.473 39.5717 262.37L40.4198 260.614C40.5429 260.359 40.9032 260.359 41.0263 260.614H41.0351Z" fill="white"/>
<path d="M51.5187 260.614L52.3669 262.37C52.4153 262.473 52.5119 262.54 52.6218 262.558L54.5203 262.841C54.7972 262.881 54.907 263.23 54.7093 263.427L53.3338 264.793C53.2547 264.874 53.2195 264.986 53.2371 265.098L53.5623 267.029C53.6106 267.311 53.3206 267.526 53.0701 267.391L51.3693 266.482C51.2726 266.428 51.154 266.428 51.0529 266.482L49.3522 267.391C49.1061 267.526 48.816 267.311 48.8599 267.029L49.1852 265.098C49.2027 264.986 49.1676 264.874 49.0885 264.793L47.7129 263.427C47.5108 263.226 47.625 262.881 47.9019 262.841L49.8004 262.558C49.9103 262.54 50.007 262.473 50.0553 262.37L50.9035 260.614C51.0265 260.359 51.3869 260.359 51.5099 260.614H51.5187Z" fill="white"/>
<path d="M62.0025 260.614L62.8507 262.37C62.899 262.473 62.9957 262.54 63.1056 262.558L65.0041 262.841C65.2809 262.881 65.3908 263.23 65.193 263.427L63.8175 264.793C63.7384 264.874 63.7032 264.986 63.7208 265.098L64.046 267.029C64.0944 267.311 63.8043 267.526 63.5538 267.391L61.8531 266.482C61.7564 266.428 61.6377 266.428 61.5366 266.482L59.8359 267.391C59.5898 267.526 59.2998 267.311 59.3437 267.029L59.6689 265.098C59.6865 264.986 59.6513 264.874 59.5722 264.793L58.1967 263.427C57.9945 263.226 58.1088 262.881 58.3857 262.841L60.2842 262.558C60.394 262.54 60.4907 262.473 60.5391 262.37L61.3872 260.614C61.5103 260.359 61.8707 260.359 61.9937 260.614H62.0025Z" fill="white"/>
<path d="M72.4861 260.614L73.3343 262.37C73.3826 262.473 73.4793 262.54 73.5892 262.558L75.4877 262.841C75.7646 262.881 75.8744 263.23 75.6767 263.427L74.3011 264.793C74.222 264.874 74.1869 264.986 74.2045 265.098L74.5297 267.029C74.578 267.311 74.288 267.526 74.0375 267.391L72.3367 266.482C72.24 266.428 72.1214 266.428 72.0203 266.482L70.3195 267.391C70.0734 267.526 69.7834 267.311 69.8273 267.029L70.1525 265.098C70.1701 264.986 70.135 264.874 70.0559 264.793L68.6803 263.427C68.4782 263.226 68.5924 262.881 68.8693 262.841L70.7678 262.558C70.8777 262.54 70.9743 262.473 71.0227 262.37L71.8709 260.614C71.9939 260.359 72.3543 260.359 72.4773 260.614H72.4861Z" fill="white"/>
<path d="M82.9698 260.614L83.818 262.37C83.8663 262.473 83.963 262.54 84.0729 262.558L85.9714 262.841C86.2482 262.881 86.3581 263.23 86.1603 263.427L84.7848 264.793C84.7057 264.874 84.6705 264.986 84.6881 265.098L85.0133 267.029C85.0617 267.311 84.7716 267.526 84.5211 267.391L82.8204 266.482C82.7237 266.428 82.605 266.428 82.504 266.482L80.8032 267.391C80.5571 267.526 80.2671 267.311 80.311 267.029L80.6362 265.098C80.6538 264.986 80.6186 264.874 80.5395 264.793L79.164 263.427C78.9618 263.226 79.0761 262.881 79.3529 262.841L81.2515 262.558C81.3613 262.54 81.458 262.473 81.5064 262.37L82.3545 260.614C82.4776 260.359 82.8379 260.359 82.961 260.614H82.9698Z" fill="white"/>
<rect x="45.1335" y="174.048" width="33.0102" height="33.0102" rx="16.5051" fill="white"/>
<path d="M56.0161 188.675C54.4055 187.461 53.5726 185.519 53.4371 183.892C53.4171 183.634 53.1913 183.484 52.9655 183.484C52.7999 183.484 52.6343 183.564 52.544 183.732C50.9033 186.823 51.5556 191.072 53.412 192.769C53.8486 191.54 54.5611 190.317 55.4893 189.247C55.6599 189.05 55.8355 188.863 56.0161 188.68V188.675ZM71.46 183.732C71.3697 183.564 71.2041 183.484 71.0385 183.484C70.8077 183.484 70.587 183.629 70.5619 183.892C70.4264 185.519 69.5935 187.465 67.9829 188.68C68.1635 188.863 68.3391 189.05 68.5097 189.247C69.438 190.317 70.1504 191.54 70.587 192.769C72.4434 191.072 73.0957 186.828 71.46 183.732ZM64.7215 187.77V194.289H69.729C69.2473 191.789 67.3055 188.999 64.7215 187.77ZM59.2825 194.289V187.77C56.6985 188.994 54.7618 191.784 54.2751 194.289H59.2825ZM69.9146 195.447H54.0894C53.8034 195.447 53.5726 195.663 53.5726 195.93V198.054C53.5726 198.322 53.8034 198.537 54.0894 198.537H69.9096C70.1956 198.537 70.4264 198.322 70.4264 198.054V195.93C70.4264 195.663 70.1956 195.447 69.9096 195.447H69.9146ZM63.4822 187.32C63.0055 187.198 62.5088 187.132 62.002 187.132C61.4952 187.132 61.0035 187.198 60.5219 187.32V194.284H63.4772V187.32H63.4822Z" fill="white"/>
<circle opacity="0.3" cx="61.6385" cy="190.552" r="19.3508" stroke="white" stroke-width="1.70742"/>
</g>
<rect x="1" y="160.956" width="121.048" height="121.048" rx="14.4105" stroke="white" stroke-width="0.960699"/>
</g>
<g opacity="0.4">
<g clip-path="url(#clip3_718_12225)">
<rect x="71.6113" y="1" width="121.048" height="121.048" rx="14.4105" fill="#000223"/>
<rect opacity="0.3" x="104.461" y="72.7843" width="56.3014" height="5.63014" rx="1.87671" fill="white"/>
<rect opacity="0.3" x="93.6696" y="83.1062" width="77.8836" height="5.63014" rx="1.87671" fill="white"/>
<path d="M94.5968 61.3871C94.5968 60.6628 94.7586 60.0157 95.0821 59.4461C95.4126 58.8694 95.8592 58.4228 96.4218 58.1063C96.9915 57.7828 97.628 57.6211 98.3313 57.6211C99.1541 57.6211 99.8749 57.8321 100.494 58.254C101.113 58.676 101.545 59.2597 101.791 60.0052H100.093C99.9242 59.6535 99.6851 59.3898 99.3756 59.214C99.0732 59.0382 98.7216 58.9503 98.3207 58.9503C97.8917 58.9503 97.5084 59.0522 97.1708 59.2562C96.8403 59.4531 96.5801 59.7344 96.3902 60.1001C96.2073 60.4658 96.1159 60.8948 96.1159 61.3871C96.1159 61.8724 96.2073 62.3014 96.3902 62.6741C96.5801 63.0398 96.8403 63.3247 97.1708 63.5286C97.5084 63.7255 97.8917 63.824 98.3207 63.824C98.7216 63.824 99.0732 63.7361 99.3756 63.5603C99.6851 63.3774 99.9242 63.1102 100.093 62.7585H101.791C101.545 63.511 101.113 64.0983 100.494 64.5202C99.882 64.9352 99.1611 65.1426 98.3313 65.1426C97.628 65.1426 96.9915 64.9844 96.4218 64.6679C95.8592 64.3444 95.4126 63.8978 95.0821 63.3282C94.7586 62.7585 94.5968 62.1115 94.5968 61.3871ZM102.884 62.1361C102.884 61.5454 103 61.0214 103.232 60.5643C103.471 60.1072 103.791 59.7555 104.192 59.5094C104.6 59.2632 105.054 59.1402 105.553 59.1402C105.989 59.1402 106.369 59.2281 106.692 59.4039C107.023 59.5797 107.287 59.8012 107.483 60.0685V59.2351H108.971V65.0793H107.483V64.2249C107.294 64.4991 107.03 64.7277 106.692 64.9106C106.362 65.0864 105.978 65.1743 105.542 65.1743C105.05 65.1743 104.6 65.0477 104.192 64.7945C103.791 64.5413 103.471 64.1862 103.232 63.729C103 63.2649 102.884 62.7339 102.884 62.1361ZM107.483 62.1572C107.483 61.7985 107.413 61.4926 107.273 61.2394C107.132 60.9792 106.942 60.7823 106.703 60.6487C106.464 60.508 106.207 60.4377 105.933 60.4377C105.658 60.4377 105.405 60.5045 105.173 60.6381C104.941 60.7718 104.751 60.9687 104.604 61.2289C104.463 61.4821 104.393 61.7845 104.393 62.1361C104.393 62.4878 104.463 62.7972 104.604 63.0645C104.751 63.3247 104.941 63.5251 105.173 63.6658C105.412 63.8064 105.666 63.8767 105.933 63.8767C106.207 63.8767 106.464 63.8099 106.703 63.6763C106.942 63.5356 107.132 63.3387 107.273 63.0855C107.413 62.8253 107.483 62.5159 107.483 62.1572ZM112.861 65.1743C112.383 65.1743 111.954 65.0899 111.574 64.9211C111.194 64.7453 110.892 64.5097 110.667 64.2143C110.449 63.9189 110.329 63.5919 110.308 63.2332H111.795C111.823 63.4583 111.932 63.6447 112.122 63.7923C112.319 63.94 112.562 64.0139 112.85 64.0139C113.132 64.0139 113.35 63.9576 113.504 63.8451C113.666 63.7326 113.747 63.5884 113.747 63.4126C113.747 63.2227 113.648 63.082 113.452 62.9906C113.262 62.8921 112.956 62.7867 112.534 62.6741C112.098 62.5686 111.739 62.4596 111.458 62.3471C111.183 62.2346 110.944 62.0623 110.74 61.8302C110.543 61.5981 110.445 61.2852 110.445 60.8913C110.445 60.5678 110.536 60.2724 110.719 60.0052C110.909 59.7379 111.176 59.527 111.521 59.3722C111.873 59.2175 112.284 59.1402 112.755 59.1402C113.452 59.1402 114.007 59.316 114.422 59.6676C114.837 60.0122 115.066 60.4799 115.108 61.0707H113.694C113.673 60.8386 113.575 60.6557 113.399 60.5221C113.23 60.3814 113.001 60.3111 112.713 60.3111C112.446 60.3111 112.238 60.3603 112.091 60.4588C111.95 60.5573 111.88 60.6944 111.88 60.8702C111.88 61.0671 111.978 61.2183 112.175 61.3238C112.372 61.4223 112.678 61.5243 113.093 61.6298C113.515 61.7353 113.863 61.8443 114.137 61.9568C114.412 62.0693 114.647 62.2451 114.844 62.4842C115.048 62.7163 115.153 63.0258 115.161 63.4126C115.161 63.7501 115.066 64.0526 114.876 64.3198C114.693 64.5871 114.426 64.798 114.074 64.9528C113.729 65.1004 113.325 65.1743 112.861 65.1743ZM122.101 59.2351V65.0793H120.614V64.3409C120.424 64.5941 120.174 64.7945 119.865 64.9422C119.562 65.0829 119.232 65.1532 118.873 65.1532C118.416 65.1532 118.011 65.0582 117.66 64.8684C117.308 64.6714 117.03 64.3866 116.826 64.0139C116.63 63.6341 116.531 63.184 116.531 62.6636V59.2351H118.008V62.4526C118.008 62.9168 118.124 63.2754 118.356 63.5286C118.588 63.7748 118.905 63.8978 119.306 63.8978C119.713 63.8978 120.033 63.7748 120.265 63.5286C120.498 63.2754 120.614 62.9168 120.614 62.4526V59.2351H122.101ZM123.389 62.1361C123.389 61.5454 123.505 61.0214 123.738 60.5643C123.977 60.1072 124.297 59.7555 124.698 59.5094C125.105 59.2632 125.559 59.1402 126.058 59.1402C126.494 59.1402 126.874 59.2281 127.198 59.4039C127.528 59.5797 127.792 59.8012 127.989 60.0685V59.2351H129.476V65.0793H127.989V64.2249C127.799 64.4991 127.535 64.7277 127.198 64.9106C126.867 65.0864 126.484 65.1743 126.048 65.1743C125.556 65.1743 125.105 65.0477 124.698 64.7945C124.297 64.5413 123.977 64.1862 123.738 63.729C123.505 63.2649 123.389 62.7339 123.389 62.1361ZM127.989 62.1572C127.989 61.7985 127.919 61.4926 127.778 61.2394C127.637 60.9792 127.447 60.7823 127.208 60.6487C126.969 60.508 126.712 60.4377 126.438 60.4377C126.164 60.4377 125.911 60.5045 125.679 60.6381C125.447 60.7718 125.257 60.9687 125.109 61.2289C124.968 61.4821 124.898 61.7845 124.898 62.1361C124.898 62.4878 124.968 62.7972 125.109 63.0645C125.257 63.3247 125.447 63.5251 125.679 63.6658C125.918 63.8064 126.171 63.8767 126.438 63.8767C126.712 63.8767 126.969 63.8099 127.208 63.6763C127.447 63.5356 127.637 63.3387 127.778 63.0855C127.919 62.8253 127.989 62.5159 127.989 62.1572ZM132.607 57.2729V65.0793H131.13V57.2729H132.607ZM142.371 59.9946C142.371 60.3885 142.276 60.7577 142.086 61.1023C141.903 61.4469 141.611 61.7247 141.211 61.9357C140.817 62.1467 140.317 62.2522 139.713 62.2522H138.478V65.0793H137.001V57.716H139.713C140.282 57.716 140.768 57.8145 141.168 58.0114C141.569 58.2083 141.868 58.4791 142.065 58.8237C142.269 59.1683 142.371 59.5586 142.371 59.9946ZM139.649 61.0601C140.057 61.0601 140.36 60.9687 140.557 60.7858C140.753 60.5959 140.852 60.3322 140.852 59.9946C140.852 59.2773 140.451 58.9186 139.649 58.9186H138.478V61.0601H139.649ZM145.107 57.2729V65.0793H143.631V57.2729H145.107ZM146.398 62.1361C146.398 61.5454 146.514 61.0214 146.746 60.5643C146.985 60.1072 147.305 59.7555 147.706 59.5094C148.114 59.2632 148.567 59.1402 149.067 59.1402C149.503 59.1402 149.883 59.2281 150.206 59.4039C150.537 59.5797 150.8 59.8012 150.997 60.0685V59.2351H152.485V65.0793H150.997V64.2249C150.807 64.4991 150.544 64.7277 150.206 64.9106C149.876 65.0864 149.492 65.1743 149.056 65.1743C148.564 65.1743 148.114 65.0477 147.706 64.7945C147.305 64.5413 146.985 64.1862 146.746 63.729C146.514 63.2649 146.398 62.7339 146.398 62.1361ZM150.997 62.1572C150.997 61.7985 150.927 61.4926 150.786 61.2394C150.646 60.9792 150.456 60.7823 150.217 60.6487C149.977 60.508 149.721 60.4377 149.447 60.4377C149.172 60.4377 148.919 60.5045 148.687 60.6381C148.455 60.7718 148.265 60.9687 148.117 61.2289C147.977 61.4821 147.906 61.7845 147.906 62.1361C147.906 62.4878 147.977 62.7972 148.117 63.0645C148.265 63.3247 148.455 63.5251 148.687 63.6658C148.926 63.8064 149.179 63.8767 149.447 63.8767C149.721 63.8767 149.977 63.8099 150.217 63.6763C150.456 63.5356 150.646 63.3387 150.786 63.0855C150.927 62.8253 150.997 62.5159 150.997 62.1572ZM159.729 59.2351L156.111 67.8432H154.539L155.805 64.9317L153.463 59.2351H155.119L156.628 63.3176L158.157 59.2351H159.729ZM166.169 62.0306C166.169 62.2416 166.155 62.4315 166.127 62.6003H161.855C161.89 63.0223 162.037 63.3528 162.298 63.5919C162.558 63.831 162.878 63.9506 163.258 63.9506C163.806 63.9506 164.196 63.715 164.429 63.2438H166.021C165.853 63.8064 165.529 64.2706 165.051 64.6363C164.573 64.995 163.985 65.1743 163.289 65.1743C162.727 65.1743 162.22 65.0512 161.77 64.8051C161.327 64.5519 160.979 64.1967 160.726 63.7396C160.48 63.2825 160.357 62.755 160.357 62.1572C160.357 61.5524 160.48 61.0214 160.726 60.5643C160.972 60.1072 161.317 59.7555 161.76 59.5094C162.203 59.2632 162.713 59.1402 163.289 59.1402C163.845 59.1402 164.341 59.2597 164.777 59.4988C165.22 59.7379 165.561 60.079 165.8 60.5221C166.046 60.9581 166.169 61.461 166.169 62.0306ZM164.64 61.6087C164.632 61.2289 164.495 60.9265 164.228 60.7014C163.961 60.4693 163.634 60.3533 163.247 60.3533C162.881 60.3533 162.572 60.4658 162.319 60.6909C162.073 60.9089 161.921 61.2148 161.865 61.6087H164.64ZM168.935 60.1423C169.125 59.8329 169.371 59.5903 169.673 59.4144C169.983 59.2386 170.335 59.1507 170.728 59.1507V60.7014H170.338C169.874 60.7014 169.522 60.8104 169.283 61.0285C169.051 61.2465 168.935 61.6262 168.935 62.1678V65.0793H167.458V59.2351H168.935V60.1423Z" fill="white"/>
<rect opacity="0.2" x="102.577" y="96.6161" width="59.1907" height="14.7977" rx="3.75343" fill="white"/>
<path d="M111.646 100.658L112.495 102.414C112.543 102.517 112.64 102.584 112.749 102.602L114.648 102.884C114.925 102.925 115.035 103.274 114.837 103.471L113.461 104.837C113.382 104.918 113.347 105.03 113.365 105.142L113.69 107.072C113.738 107.355 113.448 107.57 113.198 107.435L111.497 106.526C111.4 106.472 111.282 106.472 111.181 106.526L109.48 107.435C109.234 107.57 108.944 107.355 108.988 107.072L109.313 105.142C109.33 105.03 109.295 104.918 109.216 104.837L107.841 103.471C107.638 103.27 107.753 102.925 108.03 102.884L109.928 102.602C110.038 102.584 110.135 102.517 110.183 102.414L111.031 100.658C111.154 100.403 111.515 100.403 111.638 100.658H111.646Z" fill="white"/>
<path d="M122.13 100.658L122.978 102.414C123.027 102.517 123.123 102.584 123.233 102.602L125.132 102.884C125.408 102.925 125.518 103.274 125.321 103.471L123.945 104.837C123.866 104.918 123.831 105.03 123.848 105.142L124.174 107.072C124.222 107.355 123.932 107.57 123.681 107.435L121.981 106.526C121.884 106.472 121.765 106.472 121.664 106.526L119.963 107.435C119.717 107.57 119.427 107.355 119.471 107.072L119.796 105.142C119.814 105.03 119.779 104.918 119.7 104.837L118.324 103.471C118.122 103.27 118.236 102.925 118.513 102.884L120.412 102.602C120.522 102.584 120.618 102.517 120.667 102.414L121.515 100.658C121.638 100.403 121.998 100.403 122.121 100.658H122.13Z" fill="white"/>
<path d="M132.614 100.658L133.462 102.414C133.51 102.517 133.607 102.584 133.717 102.602L135.615 102.884C135.892 102.925 136.002 103.274 135.804 103.471L134.429 104.837C134.35 104.918 134.315 105.03 134.332 105.142L134.657 107.072C134.706 107.355 134.416 107.57 134.165 107.435L132.464 106.526C132.368 106.472 132.249 106.472 132.148 106.526L130.447 107.435C130.201 107.57 129.911 107.355 129.955 107.072L130.28 105.142C130.298 105.03 130.263 104.918 130.184 104.837L128.808 103.471C128.606 103.27 128.72 102.925 128.997 102.884L130.895 102.602C131.005 102.584 131.102 102.517 131.15 102.414L131.999 100.658C132.122 100.403 132.482 100.403 132.605 100.658H132.614Z" fill="white"/>
<path d="M143.097 100.658L143.946 102.414C143.994 102.517 144.091 102.584 144.201 102.602L146.099 102.884C146.376 102.925 146.486 103.274 146.288 103.471L144.912 104.837C144.833 104.918 144.798 105.03 144.816 105.142L145.141 107.072C145.189 107.355 144.899 107.57 144.649 107.435L142.948 106.526C142.851 106.472 142.733 106.472 142.632 106.526L140.931 107.435C140.685 107.57 140.395 107.355 140.439 107.072L140.764 105.142C140.781 105.03 140.746 104.918 140.667 104.837L139.292 103.471C139.09 103.27 139.204 102.925 139.481 102.884L141.379 102.602C141.489 102.584 141.586 102.517 141.634 102.414L142.482 100.658C142.605 100.403 142.966 100.403 143.089 100.658H143.097Z" fill="white"/>
<path d="M153.581 100.658L154.429 102.414C154.478 102.517 154.574 102.584 154.684 102.602L156.583 102.884C156.86 102.925 156.969 103.274 156.772 103.471L155.396 104.837C155.317 104.918 155.282 105.03 155.299 105.142L155.625 107.072C155.673 107.355 155.383 107.57 155.132 107.435L153.432 106.526C153.335 106.472 153.216 106.472 153.115 106.526L151.415 107.435C151.168 107.57 150.878 107.355 150.922 107.072L151.248 105.142C151.265 105.03 151.23 104.918 151.151 104.837L149.775 103.471C149.573 103.27 149.687 102.925 149.964 102.884L151.863 102.602C151.973 102.584 152.069 102.517 152.118 102.414L152.966 100.658C153.089 100.403 153.449 100.403 153.572 100.658H153.581Z" fill="white"/>
<rect x="115.745" y="14.092" width="33.0102" height="33.0102" rx="16.5051" fill="white"/>
<g clip-path="url(#clip4_718_12225)">
<path d="M126.627 28.7189C125.017 27.5043 124.184 25.5628 124.048 23.9356C124.028 23.6777 123.803 23.5276 123.577 23.5276C123.411 23.5276 123.246 23.6073 123.155 23.7761C121.515 26.8665 122.167 31.1152 124.023 32.8128C124.46 31.5842 125.172 30.3602 126.101 29.291C126.271 29.0941 126.447 28.9065 126.627 28.7236V28.7189ZM142.071 23.7761C141.981 23.6073 141.815 23.5276 141.65 23.5276C141.419 23.5276 141.198 23.673 141.173 23.9356C141.038 25.5628 140.205 27.509 138.594 28.7236C138.775 28.9065 138.95 29.0941 139.121 29.291C140.049 30.3602 140.762 31.5842 141.198 32.8128C143.055 31.1152 143.707 26.8712 142.071 23.7761ZM135.333 27.8138V34.3323H140.34C139.859 31.8327 137.917 29.0425 135.333 27.8138ZM129.894 34.3323V27.8138C127.31 29.0378 125.373 31.828 124.886 34.3323H129.894ZM140.526 35.4906H124.701C124.415 35.4906 124.184 35.7063 124.184 35.9736V38.0979C124.184 38.3652 124.415 38.581 124.701 38.581H140.521C140.807 38.581 141.038 38.3652 141.038 38.0979V35.9736C141.038 35.7063 140.807 35.4906 140.521 35.4906H140.526ZM134.094 27.3636C133.617 27.2417 133.12 27.176 132.613 27.176C132.107 27.176 131.615 27.2417 131.133 27.3636V34.3276H134.088V27.3636H134.094Z" fill="white"/>
</g>
<circle opacity="0.3" cx="132.25" cy="30.5958" r="19.3508" stroke="white" stroke-width="1.70742"/>
</g>
<rect x="71.6113" y="1" width="121.048" height="121.048" rx="14.4105" stroke="white" stroke-width="0.960699"/>
</g>
<g clip-path="url(#clip5_718_12225)">
<rect x="281.044" y="1" width="121.048" height="121.048" rx="14.4105" fill="url(#paint0_radial_718_12225)"/>
<rect opacity="0.3" x="313.893" y="72.7843" width="56.3014" height="5.63014" rx="1.87671" fill="white"/>
<rect opacity="0.3" x="303.102" y="83.1062" width="77.8836" height="5.63014" rx="1.87671" fill="white"/>
<path d="M318.578 59.9946C318.578 60.3885 318.483 60.7577 318.294 61.1023C318.111 61.4469 317.819 61.7247 317.418 61.9357C317.024 62.1467 316.525 62.2522 315.92 62.2522H314.686V65.0793H313.209V57.716H315.92C316.49 57.716 316.975 57.8145 317.376 58.0114C317.777 58.2083 318.076 58.4791 318.272 58.8237C318.476 59.1683 318.578 59.5586 318.578 59.9946ZM315.857 61.0601C316.265 61.0601 316.567 60.9687 316.764 60.7858C316.961 60.5959 317.059 60.3322 317.059 59.9946C317.059 59.2773 316.658 58.9186 315.857 58.9186H314.686V61.0601H315.857ZM321.315 60.1423C321.505 59.8329 321.751 59.5903 322.053 59.4144C322.363 59.2386 322.714 59.1507 323.108 59.1507V60.7014H322.718C322.254 60.7014 321.902 60.8104 321.663 61.0285C321.431 61.2465 321.315 61.6262 321.315 62.1678V65.0793H319.838V59.2351H321.315V60.1423ZM326.909 65.1743C326.346 65.1743 325.84 65.0512 325.39 64.8051C324.94 64.5519 324.585 64.1967 324.324 63.7396C324.071 63.2825 323.945 62.755 323.945 62.1572C323.945 61.5594 324.075 61.032 324.335 60.5748C324.602 60.1177 324.964 59.7661 325.422 59.5199C325.879 59.2667 326.389 59.1402 326.951 59.1402C327.514 59.1402 328.024 59.2667 328.481 59.5199C328.938 59.7661 329.297 60.1177 329.557 60.5748C329.824 61.032 329.958 61.5594 329.958 62.1572C329.958 62.755 329.821 63.2825 329.546 63.7396C329.279 64.1967 328.913 64.5519 328.449 64.8051C327.992 65.0512 327.479 65.1743 326.909 65.1743ZM326.909 63.8873C327.176 63.8873 327.426 63.824 327.658 63.6974C327.897 63.5638 328.087 63.3669 328.228 63.1066C328.368 62.8464 328.439 62.53 328.439 62.1572C328.439 61.6016 328.291 61.1761 327.996 60.8808C327.707 60.5784 327.352 60.4272 326.93 60.4272C326.508 60.4272 326.153 60.5784 325.865 60.8808C325.583 61.1761 325.443 61.6016 325.443 62.1572C325.443 62.7128 325.58 63.1418 325.854 63.4442C326.135 63.7396 326.487 63.8873 326.909 63.8873ZM335.746 60.6909V61.9357H331.273V60.6909H335.746ZM342.983 59.9946C342.983 60.3885 342.888 60.7577 342.698 61.1023C342.515 61.4469 342.223 61.7247 341.822 61.9357C341.429 62.1467 340.929 62.2522 340.324 62.2522H339.09V65.0793H337.613V57.716H340.324C340.894 57.716 341.379 57.8145 341.78 58.0114C342.181 58.2083 342.48 58.4791 342.677 58.8237C342.881 59.1683 342.983 59.5586 342.983 59.9946ZM340.261 61.0601C340.669 61.0601 340.971 60.9687 341.168 60.7858C341.365 60.5959 341.464 60.3322 341.464 59.9946C341.464 59.2773 341.063 58.9186 340.261 58.9186H339.09V61.0601H340.261ZM345.719 57.2729V65.0793H344.242V57.2729H345.719ZM347.01 62.1361C347.01 61.5454 347.126 61.0214 347.358 60.5643C347.597 60.1072 347.917 59.7555 348.318 59.5094C348.726 59.2632 349.179 59.1402 349.679 59.1402C350.115 59.1402 350.494 59.2281 350.818 59.4039C351.148 59.5797 351.412 59.8012 351.609 60.0685V59.2351H353.097V65.0793H351.609V64.2249C351.419 64.4991 351.156 64.7277 350.818 64.9106C350.487 65.0864 350.104 65.1743 349.668 65.1743C349.176 65.1743 348.726 65.0477 348.318 64.7945C347.917 64.5413 347.597 64.1862 347.358 63.729C347.126 63.2649 347.01 62.7339 347.01 62.1361ZM351.609 62.1572C351.609 61.7985 351.539 61.4926 351.398 61.2394C351.258 60.9792 351.068 60.7823 350.829 60.6487C350.589 60.508 350.333 60.4377 350.058 60.4377C349.784 60.4377 349.531 60.5045 349.299 60.6381C349.067 60.7718 348.877 60.9687 348.729 61.2289C348.589 61.4821 348.518 61.7845 348.518 62.1361C348.518 62.4878 348.589 62.7972 348.729 63.0645C348.877 63.3247 349.067 63.5251 349.299 63.6658C349.538 63.8064 349.791 63.8767 350.058 63.8767C350.333 63.8767 350.589 63.8099 350.829 63.6763C351.068 63.5356 351.258 63.3387 351.398 63.0855C351.539 62.8253 351.609 62.5159 351.609 62.1572ZM360.341 59.2351L356.723 67.8432H355.151L356.417 64.9317L354.075 59.2351H355.731L357.24 63.3176L358.769 59.2351H360.341ZM366.781 62.0306C366.781 62.2416 366.767 62.4315 366.739 62.6003H362.466C362.502 63.0223 362.649 63.3528 362.909 63.5919C363.17 63.831 363.49 63.9506 363.869 63.9506C364.418 63.9506 364.808 63.715 365.04 63.2438H366.633C366.465 63.8064 366.141 64.2706 365.663 64.6363C365.185 64.995 364.597 65.1743 363.901 65.1743C363.338 65.1743 362.832 65.0512 362.382 64.8051C361.939 64.5519 361.591 64.1967 361.338 63.7396C361.091 63.2825 360.968 62.755 360.968 62.1572C360.968 61.5524 361.091 61.0214 361.338 60.5643C361.584 60.1072 361.928 59.7555 362.371 59.5094C362.815 59.2632 363.324 59.1402 363.901 59.1402C364.457 59.1402 364.952 59.2597 365.389 59.4988C365.832 59.7379 366.173 60.079 366.412 60.5221C366.658 60.9581 366.781 61.461 366.781 62.0306ZM365.251 61.6087C365.244 61.2289 365.107 60.9265 364.84 60.7014C364.573 60.4693 364.246 60.3533 363.859 60.3533C363.493 60.3533 363.184 60.4658 362.931 60.6909C362.684 60.9089 362.533 61.2148 362.477 61.6087H365.251ZM369.547 60.1423C369.737 59.8329 369.983 59.5903 370.285 59.4144C370.595 59.2386 370.946 59.1507 371.34 59.1507V60.7014H370.95C370.486 60.7014 370.134 60.8104 369.895 61.0285C369.663 61.2465 369.547 61.6262 369.547 62.1678V65.0793H368.07V59.2351H369.547V60.1423Z" fill="white"/>
<rect opacity="0.2" x="312.01" y="96.6161" width="59.1907" height="14.7977" rx="3.75343" fill="white"/>
<path d="M321.079 100.658L321.927 102.414C321.976 102.517 322.072 102.584 322.182 102.602L324.081 102.884C324.357 102.925 324.467 103.274 324.27 103.471L322.894 104.837C322.815 104.918 322.78 105.03 322.797 105.142L323.123 107.072C323.171 107.355 322.881 107.57 322.63 107.435L320.93 106.526C320.833 106.472 320.714 106.472 320.613 106.526L318.912 107.435C318.666 107.57 318.376 107.355 318.42 107.072L318.745 105.142C318.763 105.03 318.728 104.918 318.649 104.837L317.273 103.471C317.071 103.27 317.185 102.925 317.462 102.884L319.361 102.602C319.471 102.584 319.567 102.517 319.616 102.414L320.464 100.658C320.587 100.403 320.947 100.403 321.07 100.658H321.079Z" fill="white"/>
<path d="M331.563 100.658L332.411 102.414C332.459 102.517 332.556 102.584 332.666 102.602L334.564 102.884C334.841 102.925 334.951 103.274 334.753 103.471L333.378 104.837C333.299 104.918 333.263 105.03 333.281 105.142L333.606 107.072C333.655 107.355 333.365 107.57 333.114 107.435L331.413 106.526C331.317 106.472 331.198 106.472 331.097 106.526L329.396 107.435C329.15 107.57 328.86 107.355 328.904 107.072L329.229 105.142C329.247 105.03 329.212 104.918 329.132 104.837L327.757 103.471C327.555 103.27 327.669 102.925 327.946 102.884L329.844 102.602C329.954 102.584 330.051 102.517 330.099 102.414L330.947 100.658C331.07 100.403 331.431 100.403 331.554 100.658H331.563Z" fill="white"/>
<path d="M342.046 100.658L342.894 102.414C342.943 102.517 343.04 102.584 343.149 102.602L345.048 102.884C345.325 102.925 345.435 103.274 345.237 103.471L343.861 104.837C343.782 104.918 343.747 105.03 343.765 105.142L344.09 107.072C344.138 107.355 343.848 107.57 343.598 107.435L341.897 106.526C341.8 106.472 341.682 106.472 341.58 106.526L339.88 107.435C339.634 107.57 339.344 107.355 339.388 107.072L339.713 105.142C339.73 105.03 339.695 104.918 339.616 104.837L338.241 103.471C338.038 103.27 338.153 102.925 338.429 102.884L340.328 102.602C340.438 102.584 340.535 102.517 340.583 102.414L341.431 100.658C341.554 100.403 341.914 100.403 342.038 100.658H342.046Z" fill="white"/>
<path d="M352.53 100.658L353.378 102.414C353.426 102.517 353.523 102.584 353.633 102.602L355.532 102.884C355.808 102.925 355.918 103.274 355.721 103.471L354.345 104.837C354.266 104.918 354.231 105.03 354.248 105.142L354.573 107.072C354.622 107.355 354.332 107.57 354.081 107.435L352.381 106.526C352.284 106.472 352.165 106.472 352.064 106.526L350.363 107.435C350.117 107.57 349.827 107.355 349.871 107.072L350.196 105.142C350.214 105.03 350.179 104.918 350.1 104.837L348.724 103.471C348.522 103.27 348.636 102.925 348.913 102.884L350.812 102.602C350.922 102.584 351.018 102.517 351.067 102.414L351.915 100.658C352.038 100.403 352.398 100.403 352.521 100.658H352.53Z" fill="white"/>
<path d="M363.014 100.658L363.862 102.414C363.91 102.517 364.007 102.584 364.117 102.602L366.015 102.884C366.292 102.925 366.402 103.274 366.204 103.471L364.829 104.837C364.75 104.918 364.714 105.03 364.732 105.142L365.057 107.072C365.105 107.355 364.815 107.57 364.565 107.435L362.864 106.526C362.768 106.472 362.649 106.472 362.548 106.526L360.847 107.435C360.601 107.57 360.311 107.355 360.355 107.072L360.68 105.142C360.698 105.03 360.662 104.918 360.583 104.837L359.208 103.471C359.006 103.27 359.12 102.925 359.397 102.884L361.295 102.602C361.405 102.584 361.502 102.517 361.55 102.414L362.398 100.658C362.521 100.403 362.882 100.403 363.005 100.658H363.014Z" fill="white"/>
<rect x="325.177" y="14.092" width="33.0102" height="33.0102" rx="16.5051" fill="#FBBE7E"/>
<path d="M336.06 28.7189C334.449 27.5043 333.616 25.5628 333.481 23.9356C333.461 23.6777 333.235 23.5276 333.009 23.5276C332.844 23.5276 332.678 23.6073 332.588 23.7761C330.947 26.8665 331.599 31.1152 333.456 32.8128C333.892 31.5842 334.605 30.3602 335.533 29.291C335.704 29.0941 335.879 28.9065 336.06 28.7236V28.7189ZM351.504 23.7761C351.414 23.6073 351.248 23.5276 351.082 23.5276C350.852 23.5276 350.631 23.673 350.606 23.9356C350.47 25.5628 349.637 27.509 348.027 28.7236C348.207 28.9065 348.383 29.0941 348.554 29.291C349.482 30.3602 350.194 31.5842 350.631 32.8128C352.487 31.1152 353.14 26.8712 351.504 23.7761ZM344.765 27.8138V34.3323H349.773C349.291 31.8327 347.349 29.0425 344.765 27.8138ZM339.326 34.3323V27.8138C336.742 29.0378 334.806 31.828 334.319 34.3323H339.326ZM349.958 35.4906H334.133C333.847 35.4906 333.616 35.7063 333.616 35.9736V38.0979C333.616 38.3652 333.847 38.581 334.133 38.581H349.953C350.239 38.581 350.47 38.3652 350.47 38.0979V35.9736C350.47 35.7063 350.239 35.4906 349.953 35.4906H349.958ZM343.526 27.3636C343.049 27.2417 342.553 27.176 342.046 27.176C341.539 27.176 341.047 27.2417 340.566 27.3636V34.3276H343.521V27.3636H343.526Z" fill="white"/>
<circle opacity="0.3" cx="341.682" cy="30.5958" r="19.3508" stroke="white" stroke-width="1.70742"/>
</g>
<rect x="281.044" y="1" width="121.048" height="121.048" rx="14.4105" stroke="#FBBE7E" stroke-width="0.960699"/>
<g filter="url(#filter0_b_718_12225)">
<g clip-path="url(#clip6_718_12225)">
<rect x="71.131" y="319.952" width="121.048" height="121.048" rx="14.4105" fill="url(#paint1_radial_718_12225)"/>
<rect opacity="0.3" x="103.98" y="391.736" width="56.3014" height="5.63014" rx="1.87671" fill="white"/>
<rect opacity="0.3" x="93.1892" y="402.058" width="77.8836" height="5.63014" rx="1.87671" fill="white"/>
<path d="M94.1165 380.339C94.1165 379.615 94.2782 378.968 94.6018 378.398C94.9323 377.821 95.3789 377.375 95.9415 377.058C96.5112 376.735 97.1476 376.573 97.8509 376.573C98.6737 376.573 99.3946 376.784 100.013 377.206C100.632 377.628 101.065 378.212 101.311 378.957H99.6126C99.4438 378.606 99.2047 378.342 98.8953 378.166C98.5929 377.99 98.2412 377.902 97.8404 377.902C97.4114 377.902 97.0281 378.004 96.6905 378.208C96.36 378.405 96.0997 378.686 95.9099 379.052C95.727 379.418 95.6356 379.847 95.6356 380.339C95.6356 380.824 95.727 381.253 95.9099 381.626C96.0997 381.992 96.36 382.277 96.6905 382.481C97.0281 382.677 97.4114 382.776 97.8404 382.776C98.2412 382.776 98.5929 382.688 98.8953 382.512C99.2047 382.329 99.4438 382.062 99.6126 381.71H101.311C101.065 382.463 100.632 383.05 100.013 383.472C99.4016 383.887 98.6808 384.095 97.8509 384.095C97.1476 384.095 96.5112 383.936 95.9415 383.62C95.3789 383.296 94.9323 382.85 94.6018 382.28C94.2782 381.71 94.1165 381.063 94.1165 380.339ZM102.404 381.088C102.404 380.497 102.52 379.973 102.752 379.516C102.991 379.059 103.311 378.707 103.712 378.461C104.12 378.215 104.573 378.092 105.073 378.092C105.509 378.092 105.888 378.18 106.212 378.356C106.543 378.532 106.806 378.753 107.003 379.02V378.187H108.491V384.031H107.003V383.177C106.813 383.451 106.55 383.68 106.212 383.863C105.881 384.038 105.498 384.126 105.062 384.126C104.57 384.126 104.12 384 103.712 383.746C103.311 383.493 102.991 383.138 102.752 382.681C102.52 382.217 102.404 381.686 102.404 381.088ZM107.003 381.109C107.003 380.751 106.933 380.445 106.792 380.191C106.652 379.931 106.462 379.734 106.223 379.601C105.983 379.46 105.727 379.39 105.452 379.39C105.178 379.39 104.925 379.456 104.693 379.59C104.461 379.724 104.271 379.921 104.123 380.181C103.983 380.434 103.912 380.736 103.912 381.088C103.912 381.44 103.983 381.749 104.123 382.016C104.271 382.277 104.461 382.477 104.693 382.618C104.932 382.758 105.185 382.829 105.452 382.829C105.727 382.829 105.983 382.762 106.223 382.628C106.462 382.488 106.652 382.291 106.792 382.038C106.933 381.777 107.003 381.468 107.003 381.109ZM112.38 384.126C111.902 384.126 111.473 384.042 111.093 383.873C110.714 383.697 110.411 383.462 110.186 383.166C109.968 382.871 109.849 382.544 109.828 382.185H111.315C111.343 382.41 111.452 382.597 111.642 382.744C111.839 382.892 112.082 382.966 112.37 382.966C112.651 382.966 112.869 382.91 113.024 382.797C113.186 382.685 113.267 382.54 113.267 382.365C113.267 382.175 113.168 382.034 112.971 381.943C112.781 381.844 112.475 381.739 112.053 381.626C111.617 381.521 111.259 381.412 110.977 381.299C110.703 381.187 110.464 381.014 110.26 380.782C110.063 380.55 109.965 380.237 109.965 379.843C109.965 379.52 110.056 379.224 110.239 378.957C110.429 378.69 110.696 378.479 111.041 378.324C111.392 378.169 111.804 378.092 112.275 378.092C112.971 378.092 113.527 378.268 113.942 378.62C114.357 378.964 114.585 379.432 114.627 380.023H113.214C113.193 379.791 113.094 379.608 112.918 379.474C112.75 379.333 112.521 379.263 112.233 379.263C111.965 379.263 111.758 379.312 111.61 379.411C111.47 379.509 111.399 379.646 111.399 379.822C111.399 380.019 111.498 380.17 111.695 380.276C111.892 380.374 112.198 380.476 112.613 380.582C113.034 380.687 113.383 380.796 113.657 380.909C113.931 381.021 114.167 381.197 114.364 381.436C114.568 381.668 114.673 381.978 114.68 382.365C114.68 382.702 114.585 383.005 114.395 383.272C114.212 383.539 113.945 383.75 113.594 383.905C113.249 384.052 112.845 384.126 112.38 384.126ZM121.621 378.187V384.031H120.133V383.293C119.943 383.546 119.694 383.746 119.384 383.894C119.082 384.035 118.751 384.105 118.393 384.105C117.936 384.105 117.531 384.01 117.179 383.82C116.828 383.623 116.55 383.339 116.346 382.966C116.149 382.586 116.051 382.136 116.051 381.616V378.187H117.528V381.405C117.528 381.869 117.644 382.227 117.876 382.481C118.108 382.727 118.424 382.85 118.825 382.85C119.233 382.85 119.553 382.727 119.785 382.481C120.017 382.227 120.133 381.869 120.133 381.405V378.187H121.621ZM122.909 381.088C122.909 380.497 123.025 379.973 123.257 379.516C123.496 379.059 123.816 378.707 124.217 378.461C124.625 378.215 125.079 378.092 125.578 378.092C126.014 378.092 126.394 378.18 126.717 378.356C127.048 378.532 127.312 378.753 127.509 379.02V378.187H128.996V384.031H127.509V383.177C127.319 383.451 127.055 383.68 126.717 383.863C126.387 384.038 126.004 384.126 125.568 384.126C125.075 384.126 124.625 384 124.217 383.746C123.816 383.493 123.496 383.138 123.257 382.681C123.025 382.217 122.909 381.686 122.909 381.088ZM127.509 381.109C127.509 380.751 127.438 380.445 127.298 380.191C127.157 379.931 126.967 379.734 126.728 379.601C126.489 379.46 126.232 379.39 125.958 379.39C125.684 379.39 125.43 379.456 125.198 379.59C124.966 379.724 124.776 379.921 124.629 380.181C124.488 380.434 124.418 380.736 124.418 381.088C124.418 381.44 124.488 381.749 124.629 382.016C124.776 382.277 124.966 382.477 125.198 382.618C125.437 382.758 125.691 382.829 125.958 382.829C126.232 382.829 126.489 382.762 126.728 382.628C126.967 382.488 127.157 382.291 127.298 382.038C127.438 381.777 127.509 381.468 127.509 381.109ZM132.126 376.225V384.031H130.649V376.225H132.126ZM141.891 378.947C141.891 379.34 141.796 379.71 141.606 380.054C141.423 380.399 141.131 380.677 140.73 380.888C140.336 381.099 139.837 381.204 139.232 381.204H137.998V384.031H136.521V376.668H139.232C139.802 376.668 140.287 376.766 140.688 376.963C141.089 377.16 141.388 377.431 141.585 377.776C141.789 378.12 141.891 378.511 141.891 378.947ZM139.169 380.012C139.577 380.012 139.879 379.921 140.076 379.738C140.273 379.548 140.372 379.284 140.372 378.947C140.372 378.229 139.971 377.871 139.169 377.871H137.998V380.012H139.169ZM144.627 376.225V384.031H143.15V376.225H144.627ZM145.917 381.088C145.917 380.497 146.034 379.973 146.266 379.516C146.505 379.059 146.825 378.707 147.226 378.461C147.633 378.215 148.087 378.092 148.586 378.092C149.022 378.092 149.402 378.18 149.726 378.356C150.056 378.532 150.32 378.753 150.517 379.02V378.187H152.004V384.031H150.517V383.177C150.327 383.451 150.063 383.68 149.726 383.863C149.395 384.038 149.012 384.126 148.576 384.126C148.084 384.126 147.633 384 147.226 383.746C146.825 383.493 146.505 383.138 146.266 382.681C146.034 382.217 145.917 381.686 145.917 381.088ZM150.517 381.109C150.517 380.751 150.447 380.445 150.306 380.191C150.165 379.931 149.975 379.734 149.736 379.601C149.497 379.46 149.24 379.39 148.966 379.39C148.692 379.39 148.439 379.456 148.207 379.59C147.975 379.724 147.785 379.921 147.637 380.181C147.496 380.434 147.426 380.736 147.426 381.088C147.426 381.44 147.496 381.749 147.637 382.016C147.785 382.277 147.975 382.477 148.207 382.618C148.446 382.758 148.699 382.829 148.966 382.829C149.24 382.829 149.497 382.762 149.736 382.628C149.975 382.488 150.165 382.291 150.306 382.038C150.447 381.777 150.517 381.468 150.517 381.109ZM159.249 378.187L155.63 386.795H154.059L155.325 383.884L152.983 378.187H154.639L156.147 382.27L157.677 378.187H159.249ZM165.689 380.983C165.689 381.194 165.675 381.383 165.647 381.552H161.374C161.409 381.974 161.557 382.305 161.817 382.544C162.077 382.783 162.397 382.903 162.777 382.903C163.326 382.903 163.716 382.667 163.948 382.196H165.541C165.372 382.758 165.049 383.223 164.571 383.588C164.092 383.947 163.505 384.126 162.809 384.126C162.246 384.126 161.74 384.003 161.29 383.757C160.847 383.504 160.499 383.149 160.245 382.692C159.999 382.234 159.876 381.707 159.876 381.109C159.876 380.504 159.999 379.973 160.245 379.516C160.492 379.059 160.836 378.707 161.279 378.461C161.722 378.215 162.232 378.092 162.809 378.092C163.364 378.092 163.86 378.212 164.296 378.451C164.739 378.69 165.08 379.031 165.32 379.474C165.566 379.91 165.689 380.413 165.689 380.983ZM164.159 380.561C164.152 380.181 164.015 379.878 163.748 379.653C163.48 379.421 163.153 379.305 162.767 379.305C162.401 379.305 162.092 379.418 161.838 379.643C161.592 379.861 161.441 380.167 161.385 380.561H164.159ZM168.455 379.094C168.645 378.785 168.891 378.542 169.193 378.366C169.503 378.191 169.854 378.103 170.248 378.103V379.653H169.858C169.394 379.653 169.042 379.762 168.803 379.98C168.571 380.198 168.455 380.578 168.455 381.12V384.031H166.978V378.187H168.455V379.094Z" fill="white"/>
<rect opacity="0.2" x="102.097" y="415.568" width="59.1907" height="14.7977" rx="3.75343" fill="white"/>
<path d="M111.166 419.61L112.014 421.366C112.063 421.469 112.159 421.536 112.269 421.554L114.168 421.836C114.445 421.876 114.554 422.226 114.357 422.423L112.981 423.789C112.902 423.87 112.867 423.982 112.884 424.094L113.21 426.024C113.258 426.306 112.968 426.521 112.717 426.387L111.017 425.478C110.92 425.424 110.801 425.424 110.7 425.478L108.999 426.387C108.753 426.521 108.463 426.306 108.507 426.024L108.832 424.094C108.85 423.982 108.815 423.87 108.736 423.789L107.36 422.423C107.158 422.221 107.272 421.876 107.549 421.836L109.448 421.554C109.558 421.536 109.654 421.469 109.703 421.366L110.551 419.61C110.674 419.355 111.034 419.355 111.157 419.61H111.166Z" fill="white"/>
<path d="M121.65 419.61L122.498 421.366C122.546 421.469 122.643 421.536 122.753 421.554L124.651 421.836C124.928 421.876 125.038 422.226 124.84 422.423L123.465 423.789C123.386 423.87 123.35 423.982 123.368 424.094L123.693 426.024C123.742 426.306 123.452 426.521 123.201 426.387L121.5 425.478C121.404 425.424 121.285 425.424 121.184 425.478L119.483 426.387C119.237 426.521 118.947 426.306 118.991 426.024L119.316 424.094C119.334 423.982 119.299 423.87 119.219 423.789L117.844 422.423C117.642 422.221 117.756 421.876 118.033 421.836L119.931 421.554C120.041 421.536 120.138 421.469 120.186 421.366L121.034 419.61C121.158 419.355 121.518 419.355 121.641 419.61H121.65Z" fill="white"/>
<path d="M132.133 419.61L132.982 421.366C133.03 421.469 133.127 421.536 133.237 421.554L135.135 421.836C135.412 421.876 135.522 422.226 135.324 422.423L133.948 423.789C133.869 423.87 133.834 423.982 133.852 424.094L134.177 426.024C134.225 426.306 133.935 426.521 133.685 426.387L131.984 425.478C131.887 425.424 131.769 425.424 131.668 425.478L129.967 426.387C129.721 426.521 129.431 426.306 129.475 426.024L129.8 424.094C129.817 423.982 129.782 423.87 129.703 423.789L128.328 422.423C128.126 422.221 128.24 421.876 128.517 421.836L130.415 421.554C130.525 421.536 130.622 421.469 130.67 421.366L131.518 419.61C131.641 419.355 132.002 419.355 132.125 419.61H132.133Z" fill="white"/>
<path d="M142.617 419.61L143.465 421.366C143.514 421.469 143.61 421.536 143.72 421.554L145.619 421.836C145.896 421.876 146.005 422.226 145.808 422.423L144.432 423.789C144.353 423.87 144.318 423.982 144.335 424.094L144.661 426.024C144.709 426.306 144.419 426.521 144.168 426.387L142.468 425.478C142.371 425.424 142.252 425.424 142.151 425.478L140.451 426.387C140.204 426.521 139.914 426.306 139.958 426.024L140.284 424.094C140.301 423.982 140.266 423.87 140.187 423.789L138.811 422.423C138.609 422.221 138.723 421.876 139 421.836L140.899 421.554C141.009 421.536 141.105 421.469 141.154 421.366L142.002 419.61C142.125 419.355 142.485 419.355 142.608 419.61H142.617Z" fill="white"/>
<path d="M153.101 419.61L153.949 421.366C153.997 421.469 154.094 421.536 154.204 421.554L156.102 421.836C156.379 421.876 156.489 422.226 156.291 422.423L154.916 423.789C154.837 423.87 154.802 423.982 154.819 424.094L155.144 426.024C155.193 426.306 154.903 426.521 154.652 426.387L152.951 425.478C152.855 425.424 152.736 425.424 152.635 425.478L150.934 426.387C150.688 426.521 150.398 426.306 150.442 426.024L150.767 424.094C150.785 423.982 150.75 423.87 150.671 423.789L149.295 422.423C149.093 422.221 149.207 421.876 149.484 421.836L151.382 421.554C151.492 421.536 151.589 421.469 151.637 421.366L152.486 419.61C152.609 419.355 152.969 419.355 153.092 419.61H153.101Z" fill="white"/>
<rect x="115.265" y="333.044" width="33.0102" height="33.0102" rx="16.5051" fill="#FF6E75"/>
<path d="M126.147 347.671C124.536 346.456 123.704 344.515 123.568 342.887C123.548 342.63 123.322 342.479 123.096 342.479C122.931 342.479 122.765 342.559 122.675 342.728C121.034 345.818 121.687 350.067 123.543 351.765C123.98 350.536 124.692 349.312 125.62 348.243C125.791 348.046 125.966 347.858 126.147 347.675V347.671ZM141.591 342.728C141.501 342.559 141.335 342.479 141.17 342.479C140.939 342.479 140.718 342.625 140.693 342.887C140.557 344.515 139.724 346.461 138.114 347.675C138.294 347.858 138.47 348.046 138.641 348.243C139.569 349.312 140.281 350.536 140.718 351.765C142.574 350.067 143.227 345.823 141.591 342.728ZM134.852 346.766V353.284H139.86C139.378 350.785 137.436 347.994 134.852 346.766ZM129.414 353.284V346.766C126.829 347.99 124.893 350.78 124.406 353.284H129.414ZM140.046 354.442H124.22C123.934 354.442 123.704 354.658 123.704 354.925V357.05C123.704 357.317 123.934 357.533 124.22 357.533H140.041C140.327 357.533 140.557 357.317 140.557 357.05V354.925C140.557 354.658 140.327 354.442 140.041 354.442H140.046ZM133.613 346.316C133.136 346.194 132.64 346.128 132.133 346.128C131.626 346.128 131.135 346.194 130.653 346.316V353.279H133.608V346.316H133.613Z" fill="white"/>
<circle opacity="0.3" cx="131.77" cy="349.548" r="19.3508" stroke="white" stroke-width="1.70742"/>
</g>
<rect x="71.131" y="319.952" width="121.048" height="121.048" rx="14.4105" stroke="#FF6E75" stroke-width="0.960699"/>
</g>
<circle cx="200.825" cy="157.114" r="22.3362" fill="#000223" fill-opacity="0.2" stroke="#FF6E75" stroke-width="0.480349"/>
<path d="M200.291 158.047C200.094 158.131 199.942 158.246 199.834 158.392C199.726 158.537 199.672 158.703 199.672 158.888C199.672 159.043 199.708 159.177 199.783 159.29C199.857 159.403 199.954 159.497 200.074 159.572C200.195 159.648 200.326 159.711 200.464 159.761C200.517 159.78 200.569 159.797 200.62 159.814V157.952C200.501 157.972 200.391 158.004 200.291 158.047ZM200.291 158.047C200.094 158.131 199.942 158.246 199.834 158.392C199.726 158.537 199.672 158.703 199.672 158.888C199.672 159.043 199.708 159.177 199.783 159.29C199.857 159.403 199.954 159.497 200.074 159.572C200.195 159.648 200.326 159.711 200.464 159.761C200.517 159.78 200.569 159.797 200.62 159.814V157.952C200.501 157.972 200.391 158.004 200.291 158.047ZM207.882 158.903C207.3 157.488 206.078 155.083 203.522 152.735C202.938 152.974 201.848 153.329 200.463 153.237C199.442 153.17 198.636 152.886 198.12 152.654C196.628 154.068 194.873 156.181 193.76 159.097C192.699 161.872 192.55 164.515 193.239 165.831C193.384 166.109 193.842 166.967 194.801 167.611C196.057 168.456 197.02 168.16 200.43 168.096C204.604 168.019 205.841 168.412 207.296 167.287C208.025 166.724 208.404 166.094 208.533 165.863C209.809 163.58 208.687 160.856 207.882 158.903ZM203.11 162.874C202.918 163.161 202.641 163.388 202.278 163.554C202.039 163.664 201.767 163.737 201.462 163.773V164.287C201.462 164.412 201.361 164.512 201.237 164.512H200.845C200.721 164.512 200.62 164.412 200.62 164.287V163.789C200.271 163.76 199.961 163.688 199.688 163.57C199.329 163.415 199.047 163.194 198.844 162.908C198.688 162.688 198.585 162.436 198.536 162.152C198.513 162.014 198.618 161.887 198.758 161.887H199.306C199.41 161.887 199.505 161.956 199.527 162.057C199.564 162.219 199.633 162.359 199.734 162.477C199.87 162.633 200.045 162.749 200.257 162.825C200.372 162.865 200.493 162.895 200.62 162.913V160.733L200.394 160.672C199.868 160.529 199.451 160.32 199.144 160.043C198.837 159.767 198.684 159.4 198.684 158.945C198.684 158.568 198.786 158.24 198.992 157.959C199.197 157.678 199.475 157.459 199.826 157.303C200.069 157.195 200.333 157.124 200.62 157.09V156.564C200.62 156.441 200.721 156.341 200.845 156.341H201.237C201.361 156.341 201.462 156.441 201.462 156.564V157.097C201.727 157.133 201.971 157.201 202.192 157.302C202.533 157.457 202.802 157.67 202.999 157.941C203.145 158.143 203.24 158.367 203.282 158.614C203.306 158.75 203.198 158.875 203.059 158.875H202.536C202.435 158.875 202.346 158.809 202.32 158.712C202.26 158.487 202.128 158.307 201.927 158.171C201.791 158.079 201.636 158.013 201.462 157.972V160.038L201.507 160.05C201.717 160.101 201.932 160.17 202.152 160.257C202.372 160.345 202.577 160.459 202.765 160.602C202.953 160.744 203.105 160.921 203.221 161.131C203.338 161.342 203.397 161.594 203.397 161.887C203.397 162.258 203.3 162.587 203.11 162.874ZM201.803 161.097C201.697 161.051 201.583 161.008 201.462 160.968V162.883C201.548 162.863 201.629 162.837 201.707 162.806C201.926 162.717 202.099 162.594 202.226 162.435C202.352 162.277 202.415 162.091 202.415 161.878C202.415 161.685 202.36 161.526 202.25 161.403C202.14 161.28 201.991 161.178 201.803 161.097ZM199.834 158.392C199.726 158.537 199.672 158.703 199.672 158.888C199.672 159.043 199.708 159.177 199.783 159.29C199.857 159.403 199.954 159.497 200.074 159.572C200.195 159.648 200.326 159.711 200.464 159.761C200.517 159.78 200.569 159.797 200.62 159.814V157.952C200.501 157.972 200.391 158.004 200.291 158.047C200.094 158.131 199.942 158.246 199.834 158.392ZM200.291 158.047C200.094 158.131 199.942 158.246 199.834 158.392C199.726 158.537 199.672 158.703 199.672 158.888C199.672 159.043 199.708 159.177 199.783 159.29C199.857 159.403 199.954 159.497 200.074 159.572C200.195 159.648 200.326 159.711 200.464 159.761C200.517 159.78 200.569 159.797 200.62 159.814V157.952C200.501 157.972 200.391 158.004 200.291 158.047ZM200.291 158.047C200.094 158.131 199.942 158.246 199.834 158.392C199.726 158.537 199.672 158.703 199.672 158.888C199.672 159.043 199.708 159.177 199.783 159.29C199.857 159.403 199.954 159.497 200.074 159.572C200.195 159.648 200.326 159.711 200.464 159.761C200.517 159.78 200.569 159.797 200.62 159.814V157.952C200.501 157.972 200.391 158.004 200.291 158.047Z" fill="#FF6E75"/>
<path d="M195.838 146.677C195.233 147.57 196.176 149.499 198.1 151.485C198.616 151.716 199.423 152 200.443 152.068C201.828 152.159 202.917 151.805 203.502 151.566C205.777 148.598 205.951 147.476 205.6 147.033C205.255 146.598 204.568 147.026 202.736 146.871C200.605 146.691 200.21 145.996 198.278 146.03C197.315 146.047 196.252 146.068 195.838 146.677H195.838Z" fill="#FF6E75"/>
<g filter="url(#filter1_b_718_12225)">
<circle cx="272.397" cy="157.114" r="22.5764" fill="#000223" fill-opacity="0.2"/>
<circle cx="272.397" cy="157.114" r="22.3362" stroke="#FBBE7E" stroke-width="0.480349"/>
</g>
<path d="M269.335 163.935L265.481 160.081C265.29 159.89 264.98 159.89 264.789 160.081L264.252 160.618C264.061 160.809 264.061 161.119 264.252 161.31L268.106 165.164C268.297 165.355 268.607 165.355 268.798 165.164L269.335 164.627C269.526 164.436 269.526 164.126 269.335 163.935Z" fill="#FBBE7E"/>
<path d="M266.986 163.773L265.642 162.429C265.517 162.304 265.313 162.304 265.188 162.429L263.126 164.491C263.001 164.616 263.001 164.82 263.126 164.945L264.47 166.289C264.596 166.415 264.799 166.415 264.925 166.289L266.986 164.228C267.112 164.102 267.112 163.899 266.986 163.773Z" fill="#FBBE7E"/>
<path d="M263.198 164.034L265.381 166.217C265.527 166.363 265.527 166.599 265.381 166.745L265.021 167.105C264.47 167.657 263.574 167.656 263.023 167.105L262.31 166.392C261.758 165.84 261.759 164.945 262.31 164.393L262.67 164.034C262.816 163.888 263.052 163.888 263.198 164.034Z" fill="#FBBE7E"/>
<path d="M268.221 157.815L271.787 161.029C271.051 161.692 270.315 162.356 269.579 163.02C268.518 161.959 267.457 160.898 266.397 159.837L268.221 157.815Z" fill="#FBBE7E"/>
<path d="M283.079 146.336L281.322 152.217C281.266 152.405 281.158 152.575 281.012 152.707C279.81 153.791 278.609 154.875 277.407 155.959C277.148 156.193 276.888 156.426 276.629 156.66L272.948 152.578L272.923 152.6L273.651 151.794L276.709 148.403C276.84 148.257 277.01 148.15 277.199 148.094L283.079 146.336Z" fill="#FBBE7E"/>
<path d="M279.313 160.079L275.459 163.934C275.267 164.125 275.267 164.434 275.459 164.626L275.996 165.163C276.187 165.354 276.497 165.354 276.688 165.163L280.542 161.309C280.733 161.118 280.733 160.808 280.542 160.617L280.005 160.079C279.814 159.888 279.504 159.888 279.313 160.079Z" fill="#FBBE7E"/>
<path d="M279.15 162.43L277.806 163.775C277.681 163.9 277.681 164.103 277.806 164.229L279.868 166.29C279.993 166.416 280.197 166.416 280.322 166.29L281.666 164.946C281.792 164.821 281.792 164.617 281.666 164.492L279.605 162.43C279.479 162.305 279.276 162.305 279.15 162.43Z" fill="#FBBE7E"/>
<path d="M279.411 166.219L281.594 164.035C281.74 163.89 281.976 163.89 282.122 164.035L282.482 164.395C283.034 164.947 283.033 165.843 282.482 166.394L281.769 167.107C281.217 167.659 280.322 167.658 279.771 167.107L279.411 166.747C279.265 166.601 279.265 166.365 279.411 166.219Z" fill="#FBBE7E"/>
<path d="M263.47 152.217C263.527 152.405 263.634 152.575 263.78 152.707L267.17 155.765L271.335 159.521L275.214 163.019C275.588 162.644 275.962 162.269 276.336 161.893C276.652 161.577 276.969 161.26 277.286 160.943C277.656 160.574 278.026 160.205 278.396 159.836C277.172 158.479 275.948 157.121 274.723 155.764C273.593 154.513 272.464 153.26 271.335 152.008C270.251 150.806 269.168 149.605 268.084 148.403C267.952 148.257 267.782 148.149 267.594 148.093L261.713 146.336L263.47 152.217Z" fill="#FBBE7E"/>
<path d="M245.017 151.349L240.214 148.576V154.123L245.017 151.349ZM228.205 151.83H240.694V150.869H228.205V151.83Z" fill="#FBBE7E"/>
<path d="M228.205 160.476L233.009 157.703V163.249L228.205 160.476ZM245.017 160.956H232.528V159.996H245.017V160.956Z" fill="#FF6E75"/>
<rect x="416.502" y="309.865" width="10.0873" height="10.0873" rx="5.04367" fill="#FBBE7E"/>
<rect x="232.528" y="342.048" width="7.68559" height="7.68559" rx="3.84279" fill="#FF6E75"/>
<rect x="233.489" y="51.4366" width="7.68559" height="7.68559" rx="3.84279" fill="#FF6E75"/>
<rect x="45.1921" y="132.616" width="4.32314" height="4.32314" rx="2.16157" fill="#FBBE7E"/>
<path d="M219.646 289.519C216.68 291.771 216.098 296.006 218.346 298.977C220.594 301.949 224.821 302.532 227.787 300.28L237.373 293C240.339 290.748 240.921 286.514 238.673 283.542C236.425 280.571 232.198 279.988 229.232 282.24L219.646 289.519Z" fill="#FBBE7E" stroke="#000223" stroke-width="0.480349" stroke-miterlimit="10"/>
<path d="M207.076 282.094C204.155 284.406 203.657 288.653 205.964 291.58C208.272 294.507 212.511 295.006 215.432 292.695L229.076 281.9C231.998 279.588 232.496 275.341 230.189 272.414C227.881 269.487 223.642 268.988 220.72 271.3L207.076 282.094Z" fill="#FBBE7E" stroke="#000223" stroke-width="0.480349" stroke-miterlimit="10"/>
<path d="M197.162 273.271C194.365 275.647 194.034 279.86 196.422 282.68C198.809 285.501 203.012 285.862 205.809 283.486L219.299 272.024C222.096 269.648 222.427 265.435 220.039 262.614C217.652 259.794 213.449 259.433 210.652 261.809L197.162 273.271Z" fill="#FBBE7E" stroke="#000223" stroke-width="0.480349" stroke-miterlimit="10"/>
<path d="M187.802 263.222C184.914 265.676 184.548 270 186.986 272.88C189.424 275.76 193.742 276.105 196.631 273.651L210.565 261.812C213.453 259.358 213.819 255.034 211.381 252.154C208.943 249.274 204.625 248.929 201.737 251.383L187.802 263.222Z" fill="#FBBE7E" stroke="#000223" stroke-width="0.480349" stroke-miterlimit="10"/>
<path d="M241.397 208.663C242.836 207.985 244.275 207.306 245.714 206.628C247.061 206.075 249.149 205.408 251.695 205.425C258.674 205.475 262.319 210.625 267.755 213.225C271.814 215.166 278.258 216.352 288.581 212.62C294.019 227.291 299.458 241.962 304.897 256.63C302.794 257.277 299.26 258.468 295.552 260.262C295.552 260.262 291.585 262.18 289.074 264.341C288.544 264.795 288.056 265.254 287.603 265.711C273.796 253.184 258.937 239.862 245.13 227.335C243.535 220.847 242.99 215.148 241.395 208.66L241.397 208.663Z" fill="#FBBE7E"/>
<path d="M313.947 198.183L290.341 206.691C287.825 207.514 286.451 210.224 287.272 212.745L301.718 257.103C302.539 259.623 305.244 261 307.761 260.178L331.367 251.669C333.883 250.847 335.257 248.136 334.436 245.616L319.99 201.257C319.169 198.737 316.464 197.36 313.947 198.183Z" fill="#000223" stroke="url(#paint2_linear_718_12225)" stroke-width="0.480349" stroke-miterlimit="10"/>
<path d="M287.851 265.627C287.816 265.424 287.782 265.22 287.745 265.017C287.522 264.818 287.299 264.622 287.078 264.424C286.744 263.987 286.365 263.575 285.942 263.196L276.788 255.048C276.33 254.641 275.842 254.291 275.332 253.996C265.616 245.374 255.35 236.209 245.635 227.587C247.983 225.049 250.883 223.054 253.231 220.516C250.698 218.439 247.015 215.581 242.354 212.482C235.32 207.81 231.804 205.473 228.715 205.044C220.498 203.9 217.308 210.438 207.605 211.085C201.282 211.507 195.988 209.177 192.637 207.267C185.571 221.3 178.505 235.333 171.44 249.368C174.154 251.83 178.498 255.695 183.991 260.265C194.826 269.282 201.287 272.726 213.418 283.178C217.076 286.329 222.811 291.143 230.216 296.795L233.485 299.702C236.428 302.323 240.932 302.055 243.548 299.107C245.482 296.926 245.839 293.892 244.704 291.398L249.635 295.787C252.709 298.524 257.416 298.246 260.148 295.165C262.342 292.691 262.593 289.163 261.015 286.451L263.541 288.701C266.931 291.718 272.12 291.411 275.131 288.017C278.143 284.62 277.836 279.422 274.448 276.405L272.769 274.911C272.769 274.911 272.781 274.904 272.789 274.899L274.341 276.281C277.95 279.491 283.473 279.166 286.68 275.551C289.176 272.738 289.53 268.761 287.863 265.622L287.851 265.627Z" fill="#000223" stroke="white" stroke-width="0.480349" stroke-linejoin="round"/>
<path d="M221.646 272.283L245.382 291.98" stroke="white" stroke-width="0.576419" stroke-miterlimit="10" stroke-linecap="round"/>
<path d="M232.251 262.688L262.048 287.434" stroke="white" stroke-width="0.576419" stroke-miterlimit="10" stroke-linecap="round"/>
<path d="M243.867 252.082L275.685 277.334" stroke="white" stroke-width="0.576419" stroke-miterlimit="10" stroke-linecap="round"/>
<path d="M216.819 220.114C211.989 222.369 209.897 228.119 212.148 232.958C214.398 237.798 220.138 239.893 224.968 237.638L253.856 224.156C258.686 221.901 260.778 216.151 258.527 211.311C256.277 206.472 250.537 204.377 245.707 206.631L216.819 220.114Z" fill="#FBBE7E"/>
<path d="M194.895 203.452L170.563 188.817C168.271 187.491 165.34 188.278 164.017 190.574L140.73 230.982C139.407 233.278 140.192 236.215 142.484 237.54L166.815 252.176C169.107 253.501 172.038 252.715 173.361 250.418L196.649 210.01C197.972 207.714 197.187 204.778 194.895 203.452Z" fill="#FF6E75"/>
<path d="M194.895 203.452L170.563 188.817C168.271 187.491 165.34 188.278 164.017 190.574L140.73 230.982C139.407 233.278 140.192 236.215 142.484 237.54L166.815 252.176C169.107 253.501 172.038 252.715 173.361 250.418L196.649 210.01C197.972 207.714 197.187 204.778 194.895 203.452Z" fill="url(#paint3_linear_718_12225)"/>
<circle cx="192.179" cy="268.555" r="6.72489" fill="#FBBE7E"/>
<circle cx="202.026" cy="277.921" r="6.48472" fill="#FBBE7E"/>
<circle cx="212.594" cy="286.568" r="6.48472" fill="#FBBE7E"/>
<circle cx="224.122" cy="294.734" r="6.48472" fill="#FBBE7E"/>
<defs>
<filter id="filter0_b_718_12225" x="27.4192" y="276.24" width="208.472" height="208.472" filterUnits="userSpaceOnUse" color-interpolation-filters="sRGB">
<feFlood flood-opacity="0" result="BackgroundImageFix"/>
<feGaussianBlur in="BackgroundImageFix" stdDeviation="21.6157"/>
<feComposite in2="SourceAlpha" operator="in" result="effect1_backgroundBlur_718_12225"/>
<feBlend mode="normal" in="SourceGraphic" in2="effect1_backgroundBlur_718_12225" result="shape"/>
</filter>
<filter id="filter1_b_718_12225" x="206.291" y="91.0074" width="132.212" height="132.212" filterUnits="userSpaceOnUse" color-interpolation-filters="sRGB">
<feFlood flood-opacity="0" result="BackgroundImageFix"/>
<feGaussianBlur in="BackgroundImageFix" stdDeviation="21.7649"/>
<feComposite in2="SourceAlpha" operator="in" result="effect1_backgroundBlur_718_12225"/>
<feBlend mode="normal" in="SourceGraphic" in2="effect1_backgroundBlur_718_12225" result="shape"/>
</filter>
<radialGradient id="paint0_radial_718_12225" cx="0" cy="0" r="1" gradientUnits="userSpaceOnUse" gradientTransform="translate(445 46) rotate(169.865) scale(161.328 87.6399)">
<stop stop-color="#935E5D"/>
<stop offset="0.491796" stop-color="#161635"/>
</radialGradient>
<radialGradient id="paint1_radial_718_12225" cx="0" cy="0" r="1" gradientUnits="userSpaceOnUse" gradientTransform="translate(47.5 393.5) rotate(-1.63658) scale(157.564 78.3641)">
<stop stop-color="#935E5D"/>
<stop offset="0.441605" stop-color="#161635"/>
</radialGradient>
<linearGradient id="paint2_linear_718_12225" x1="293.773" y1="237.092" x2="329.065" y2="224.325" gradientUnits="userSpaceOnUse">
<stop stop-color="white"/>
<stop offset="1" stop-color="#999999" stop-opacity="0"/>
</linearGradient>
<linearGradient id="paint3_linear_718_12225" x1="165.279" y1="207.79" x2="188.737" y2="219.262" gradientUnits="userSpaceOnUse">
<stop stop-color="#000223"/>
<stop offset="1" stop-color="#FF6E75"/>
</linearGradient>
<clipPath id="clip0_718_12225">
<rect x="351.175" y="160.956" width="121.048" height="121.048" rx="14.4105" fill="white"/>
</clipPath>
<clipPath id="clip1_718_12225">
<rect x="280.563" y="319.952" width="121.048" height="121.048" rx="14.4105" fill="white"/>
</clipPath>
<clipPath id="clip2_718_12225">
<rect x="1" y="160.956" width="121.048" height="121.048" rx="14.4105" fill="white"/>
</clipPath>
<clipPath id="clip3_718_12225">
<rect x="71.6113" y="1" width="121.048" height="121.048" rx="14.4105" fill="white"/>
</clipPath>
<clipPath id="clip4_718_12225">
<rect width="22.5206" height="22.5206" fill="white" transform="translate(121.351 19.7748)"/>
</clipPath>
<clipPath id="clip5_718_12225">
<rect x="281.044" y="1" width="121.048" height="121.048" rx="14.4105" fill="white"/>
</clipPath>
<clipPath id="clip6_718_12225">
<rect x="71.131" y="319.952" width="121.048" height="121.048" rx="14.4105" fill="white"/>
</clipPath>
</defs>
</svg>
