<svg width="575" height="441" viewBox="0 0 575 441" fill="none" xmlns="http://www.w3.org/2000/svg">
<rect x="0.401367" width="540.351" height="42.753" rx="11.8758" fill="url(#paint0_linear_718_12432)"/>
<rect x="12.2773" y="12.4696" width="64.1296" height="17.8138" rx="5.93792" fill="white" fill-opacity="0.2"/>
<rect x="12.2773" y="319.46" width="264.831" height="19.0014" rx="5.93792" fill="white" fill-opacity="0.08"/>
<rect x="12.2773" y="351.525" width="165.074" height="19.0014" rx="5.93792" fill="white" fill-opacity="0.08"/>
<g filter="url(#filter0_b_718_12432)">
<rect x="12.2773" y="58.1917" width="264.831" height="234.548" rx="17.8138" fill="#000223" fill-opacity="0.2"/>
<rect x="12.2773" y="58.1917" width="264.831" height="234.548" rx="17.8138" stroke="#FF6E75" stroke-width="1.18758"/>
<g opacity="0.1">
<path d="M122.731 247.993H120.478V246.053C120.478 244.352 119.093 242.967 117.391 242.967C115.69 242.967 114.305 244.352 114.305 246.053V247.993H112.052V246.053C112.052 243.11 114.447 240.714 117.391 240.714C120.336 240.714 122.731 243.11 122.731 246.054V247.994V247.993Z" fill="white"/>
<path d="M123.363 249.272H111.419C110.326 249.272 109.431 250.167 109.431 251.26V258.459C109.431 259.552 110.326 260.447 111.419 260.447H123.363C124.456 260.447 125.351 259.552 125.351 258.459V251.26C125.351 250.167 124.456 249.272 123.363 249.272ZM117.89 255.214V256.254C117.89 256.529 117.666 256.754 117.391 256.754C117.116 256.754 116.892 256.529 116.892 256.254V255.214C116.49 255.025 116.212 254.617 116.212 254.145C116.212 253.493 116.74 252.966 117.391 252.966C118.042 252.966 118.57 253.493 118.57 254.145C118.57 254.617 118.292 255.025 117.89 255.214Z" fill="white"/>
</g>
<g opacity="0.1">
<path d="M122.731 131.016H120.478V129.076C120.478 127.375 119.093 125.99 117.391 125.99C115.69 125.99 114.305 127.375 114.305 129.076V131.016H112.052V129.076C112.052 126.133 114.447 123.737 117.391 123.737C120.336 123.737 122.731 126.133 122.731 129.077V131.016V131.016Z" fill="white"/>
<path d="M123.363 132.295H111.419C110.326 132.295 109.431 133.19 109.431 134.283V141.482C109.431 142.575 110.326 143.47 111.419 143.47H123.363C124.456 143.47 125.351 142.575 125.351 141.482V134.283C125.351 133.19 124.456 132.295 123.363 132.295ZM117.89 138.236V139.277C117.89 139.552 117.666 139.777 117.391 139.777C117.116 139.777 116.892 139.552 116.892 139.277V138.236C116.49 138.048 116.212 137.64 116.212 137.167C116.212 136.516 116.74 135.988 117.391 135.988C118.042 135.988 118.57 136.516 118.57 137.167C118.57 137.64 118.292 138.048 117.89 138.236Z" fill="white"/>
</g>
<rect opacity="0.4" x="88.5" y="107.047" width="58.407" height="174.41" fill="url(#paint1_linear_718_12432)"/>
<rect opacity="0.4" x="33.6543" y="222.078" width="59.973" height="171.606" transform="rotate(-90 33.6543 222.078)" fill="url(#paint2_linear_718_12432)"/>
<rect x="34.1494" y="75.4116" width="50.2949" height="25.1475" rx="8.11209" fill="white" fill-opacity="0.1"/>
<path opacity="0.4" d="M55.9035 84.835V91.3518H54.5964V87.1131L52.8505 91.3518H51.8609L50.1056 87.1131V91.3518H48.7985V84.835H50.283L52.3557 89.6806L54.4284 84.835H55.9035ZM60.4075 91.4172C59.7976 91.4172 59.2374 91.274 58.727 90.9877C58.2166 90.7014 57.812 90.3061 57.5132 89.802C57.2145 89.2916 57.0651 88.7158 57.0651 88.0747C57.0651 87.4399 57.2145 86.8703 57.5132 86.3662C57.812 85.8558 58.2166 85.4574 58.727 85.1711C59.2374 84.8848 59.7976 84.7416 60.4075 84.7416C61.0237 84.7416 61.5839 84.8848 62.0881 85.1711C62.5985 85.4574 62.9999 85.8558 63.2925 86.3662C63.5912 86.8703 63.7406 87.4399 63.7406 88.0747C63.7406 88.7158 63.5912 89.2916 63.2925 89.802C62.9999 90.3061 62.5985 90.7014 62.0881 90.9877C61.5777 91.274 61.0175 91.4172 60.4075 91.4172ZM60.4075 90.2501C60.7997 90.2501 61.1451 90.163 61.4439 89.9887C61.7426 89.8082 61.976 89.553 62.1441 89.2231C62.3122 88.8932 62.3962 88.5104 62.3962 88.0747C62.3962 87.639 62.3122 87.2593 62.1441 86.9357C61.976 86.6058 61.7426 86.3537 61.4439 86.1794C61.1451 86.0052 60.7997 85.918 60.4075 85.918C60.0154 85.918 59.6668 86.0052 59.3619 86.1794C59.0631 86.3537 58.8297 86.6058 58.6616 86.9357C58.4936 87.2593 58.4095 87.639 58.4095 88.0747C58.4095 88.5104 58.4936 88.8932 58.6616 89.2231C58.8297 89.553 59.0631 89.8082 59.3619 89.9887C59.6668 90.163 60.0154 90.2501 60.4075 90.2501ZM70.4736 91.3518H69.1665L66.2069 86.8797V91.3518H64.8998V84.8257H66.2069L69.1665 89.3071V84.8257H70.4736V91.3518Z" fill="white"/>
<rect x="92.5566" y="75.4116" width="50.2949" height="25.1475" rx="8.11209" fill="url(#paint3_linear_718_12432)"/>
<path d="M114.611 84.835V85.89H112.875V91.3518H111.568V85.89H109.831V84.835H114.611ZM117.04 84.835V88.8683C117.04 89.3102 117.155 89.6495 117.386 89.886C117.616 90.1163 117.939 90.2314 118.357 90.2314C118.78 90.2314 119.107 90.1163 119.337 89.886C119.567 89.6495 119.682 89.3102 119.682 88.8683V84.835H120.999V88.859C120.999 89.4129 120.877 89.8829 120.635 90.2688C120.398 90.6485 120.078 90.9348 119.673 91.1277C119.275 91.3207 118.83 91.4172 118.338 91.4172C117.852 91.4172 117.41 91.3207 117.012 91.1277C116.62 90.9348 116.309 90.6485 116.078 90.2688C115.848 89.8829 115.733 89.4129 115.733 88.859V84.835H117.04ZM123.755 85.89V87.5239H125.95V88.5602H123.755V90.2875H126.23V91.3518H122.448V84.8257H126.23V85.89H123.755Z" fill="white"/>
<rect x="150.963" y="75.4116" width="50.2949" height="25.1475" rx="8.11209" fill="white" fill-opacity="0.1"/>
<path opacity="0.4" d="M175.17 84.835L173.349 91.3518H171.808L170.585 86.7116L169.306 91.3518L167.775 91.3611L166.02 84.835H167.42L168.569 89.8953L169.894 84.835H171.351L172.602 89.8673L173.76 84.835H175.17ZM177.517 85.89V87.5239H179.711V88.5602H177.517V90.2875H179.991V91.3518H176.21V84.8257H179.991V85.89H177.517ZM183.644 84.835C184.328 84.835 184.929 84.9688 185.446 85.2365C185.968 85.5041 186.37 85.8869 186.65 86.3848C186.936 86.8766 187.079 87.4492 187.079 88.1027C187.079 88.7563 186.936 89.3289 186.65 89.8206C186.37 90.3061 185.968 90.6827 185.446 90.9503C184.929 91.218 184.328 91.3518 183.644 91.3518H181.366V84.835H183.644ZM183.597 90.2408C184.282 90.2408 184.811 90.054 185.184 89.6806C185.558 89.3071 185.744 88.7812 185.744 88.1027C185.744 87.4243 185.558 86.8952 185.184 86.5155C184.811 86.1296 184.282 85.9367 183.597 85.9367H182.673V90.2408H183.597Z" fill="white"/>
<rect x="209.37" y="75.4116" width="50.2949" height="25.1475" rx="8.11209" fill="white" fill-opacity="0.1"/>
<path opacity="0.4" d="M230.576 84.835V85.89H228.84V91.3518H227.532V85.89H225.796V84.835H230.576ZM237.122 84.835V91.3518H235.815V88.5789H233.024V91.3518H231.717V84.835H233.024V87.5145H235.815V84.835H237.122ZM239.884 84.835V88.8683C239.884 89.3102 239.999 89.6495 240.229 89.886C240.46 90.1163 240.783 90.2314 241.2 90.2314C241.624 90.2314 241.95 90.1163 242.181 89.886C242.411 89.6495 242.526 89.3102 242.526 88.8683V84.835H243.843V88.859C243.843 89.4129 243.721 89.8829 243.478 90.2688C243.242 90.6485 242.921 90.9348 242.517 91.1277C242.118 91.3207 241.673 91.4172 241.182 91.4172C240.696 91.4172 240.254 91.3207 239.856 91.1277C239.464 90.9348 239.153 90.6485 238.922 90.2688C238.692 89.8829 238.577 89.4129 238.577 88.859V84.835H239.884Z" fill="white"/>
<path opacity="0.4" d="M34.248 162.699H259.889" stroke="url(#paint4_linear_718_12432)" stroke-width="0.424382" stroke-miterlimit="10"/>
<path opacity="0.4" d="M88.4395 275.9L88.4395 103.27" stroke="url(#paint5_linear_718_12432)" stroke-width="0.424382" stroke-miterlimit="10"/>
<path opacity="0.4" d="M146.923 275.9L146.923 103.27" stroke="url(#paint6_linear_718_12432)" stroke-width="0.424382" stroke-miterlimit="10"/>
<path opacity="0.4" d="M205.404 275.9L205.404 103.27" stroke="url(#paint7_linear_718_12432)" stroke-width="0.424382" stroke-miterlimit="10"/>
<path opacity="0.4" d="M34.248 220.891H259.889" stroke="url(#paint8_linear_718_12432)" stroke-width="0.424382" stroke-miterlimit="10"/>
<rect x="209.37" y="107.861" width="50.2949" height="50.2949" rx="11.8758" fill="#FBBE7E"/>
<rect x="33.6543" y="225.488" width="50.2949" height="50.2949" rx="11.8758" fill="#FBBE7E"/>
<rect x="209.37" y="166.856" width="50.2949" height="50.2949" rx="11.8758" fill="white" fill-opacity="0.08"/>
<g opacity="0.2">
<path d="M243.784 192.282L243.781 191.442C243.779 191.126 243.522 190.87 243.206 190.871L239.415 190.886C239.099 190.887 238.843 191.145 238.845 191.461L238.848 192.301C238.849 192.617 239.106 192.873 239.423 192.871L243.213 192.857C243.53 192.856 243.785 192.598 243.784 192.282Z" fill="white"/>
<path d="M240.677 198.793L241.269 198.197C241.491 197.973 241.49 197.61 241.265 197.387L238.575 194.717C238.35 194.494 237.988 194.496 237.765 194.72L237.173 195.317C236.95 195.541 236.952 195.904 237.176 196.126L239.867 198.797C240.091 199.019 240.454 199.018 240.677 198.793Z" fill="white"/>
<path d="M233.867 201.222L234.707 201.218C235.023 201.217 235.278 200.96 235.277 200.644L235.263 196.853C235.261 196.537 235.004 196.281 234.688 196.282L233.848 196.286C233.531 196.287 233.276 196.544 233.277 196.86L233.292 200.651C233.293 200.967 233.55 201.223 233.867 201.222Z" fill="white"/>
<path d="M227.343 198.118L227.939 198.71C228.164 198.933 228.526 198.931 228.749 198.707L231.419 196.016C231.642 195.791 231.641 195.429 231.416 195.206L230.82 194.614C230.595 194.392 230.233 194.393 230.01 194.618L227.34 197.308C227.117 197.533 227.118 197.895 227.343 198.118Z" fill="white"/>
<path d="M224.928 191.3L224.931 192.14C224.933 192.457 225.19 192.712 225.506 192.711L229.297 192.696C229.613 192.695 229.869 192.438 229.867 192.121L229.864 191.281C229.863 190.965 229.606 190.71 229.289 190.711L225.499 190.726C225.182 190.727 224.927 190.984 224.928 191.3Z" fill="white"/>
<path d="M228.035 184.78L227.443 185.376C227.221 185.6 227.222 185.963 227.446 186.186L230.137 188.856C230.362 189.079 230.724 189.077 230.947 188.853L231.539 188.256C231.762 188.032 231.76 187.669 231.536 187.447L228.845 184.776C228.62 184.554 228.258 184.555 228.035 184.78Z" fill="white"/>
<path d="M234.845 182.361L234.005 182.364C233.689 182.365 233.434 182.622 233.435 182.939L233.449 186.729C233.451 187.046 233.708 187.301 234.024 187.3L234.864 187.296C235.18 187.295 235.436 187.038 235.435 186.722L235.42 182.931C235.419 182.615 235.162 182.359 234.845 182.361Z" fill="white"/>
</g>
<rect x="150.632" y="225.641" width="50.2949" height="50.2949" rx="11.8758" fill="white" fill-opacity="0.08"/>
<g opacity="0.2">
<path d="M184.999 251.067L184.995 250.227C184.994 249.911 184.737 249.655 184.421 249.657L180.63 249.671C180.314 249.672 180.058 249.93 180.059 250.246L180.063 251.086C180.064 251.402 180.321 251.658 180.637 251.656L184.428 251.642C184.744 251.641 185 251.383 184.999 251.067Z" fill="white"/>
<path d="M181.893 257.579L182.484 256.982C182.707 256.758 182.706 256.395 182.481 256.173L179.79 253.502C179.566 253.28 179.203 253.281 178.981 253.506L178.389 254.102C178.166 254.326 178.168 254.689 178.392 254.912L181.083 257.582C181.307 257.805 181.67 257.803 181.893 257.579Z" fill="white"/>
<path d="M175.082 260.007L175.923 260.004C176.239 260.002 176.494 259.745 176.493 259.429L176.478 255.638C176.477 255.322 176.22 255.067 175.904 255.068L175.063 255.071C174.747 255.072 174.492 255.33 174.493 255.646L174.508 259.437C174.509 259.753 174.766 260.008 175.082 260.007Z" fill="white"/>
<path d="M168.559 256.903L169.155 257.495C169.38 257.718 169.742 257.716 169.965 257.492L172.635 254.801C172.858 254.577 172.856 254.214 172.632 253.991L172.036 253.4C171.811 253.177 171.449 253.178 171.226 253.403L168.556 256.094C168.333 256.318 168.334 256.681 168.559 256.903Z" fill="white"/>
<path d="M166.143 250.086L166.146 250.926C166.147 251.242 166.405 251.497 166.721 251.496L170.512 251.482C170.828 251.48 171.083 251.223 171.082 250.907L171.079 250.067C171.078 249.75 170.82 249.495 170.504 249.496L166.713 249.511C166.397 249.512 166.142 249.769 166.143 250.086Z" fill="white"/>
<path d="M169.251 243.565L168.659 244.161C168.436 244.385 168.438 244.748 168.662 244.971L171.353 247.641C171.578 247.864 171.94 247.862 172.163 247.638L172.755 247.041C172.977 246.817 172.976 246.454 172.751 246.232L170.061 243.562C169.836 243.339 169.474 243.34 169.251 243.565Z" fill="white"/>
<path d="M176.06 241.146L175.22 241.149C174.904 241.15 174.648 241.408 174.65 241.724L174.664 245.515C174.665 245.831 174.923 246.086 175.239 246.085L176.079 246.082C176.395 246.081 176.651 245.823 176.649 245.507L176.635 241.716C176.634 241.4 176.376 241.145 176.06 241.146Z" fill="white"/>
</g>
<rect x="33.6543" y="108.664" width="50.2949" height="50.2949" rx="11.8758" fill="white" fill-opacity="0.08"/>
<g opacity="0.2">
<path d="M68.021 134.09L68.0178 133.25C68.0166 132.934 67.7593 132.678 67.443 132.68L63.6523 132.694C63.3361 132.695 63.0807 132.953 63.0819 133.269L63.0851 134.109C63.0863 134.425 63.3437 134.681 63.6599 134.68L67.4507 134.665C67.7669 134.664 68.0223 134.406 68.021 134.09Z" fill="white"/>
<path d="M64.9151 140.602L65.5068 140.005C65.7296 139.781 65.7282 139.418 65.5037 139.195L62.813 136.525C62.5885 136.303 62.226 136.304 62.0032 136.528L61.4114 137.125C61.1887 137.349 61.1901 137.712 61.4145 137.934L64.1053 140.605C64.3298 140.827 64.6923 140.826 64.9151 140.602Z" fill="white"/>
<path d="M58.1049 143.03L58.945 143.027C59.2612 143.025 59.5166 142.768 59.5154 142.452L59.5008 138.661C59.4996 138.345 59.2423 138.089 58.926 138.091L58.0859 138.094C57.7697 138.095 57.5143 138.352 57.5155 138.669L57.5301 142.459C57.5313 142.776 57.7887 143.031 58.1049 143.03Z" fill="white"/>
<path d="M51.5822 139.926L52.1785 140.518C52.403 140.741 52.7655 140.739 52.9883 140.515L55.6585 137.824C55.8812 137.6 55.8798 137.237 55.6554 137.014L55.059 136.423C54.8346 136.2 54.472 136.201 54.2493 136.426L51.5791 139.117C51.3563 139.341 51.3577 139.704 51.5822 139.926Z" fill="white"/>
<path d="M49.1665 133.109L49.1697 133.949C49.1709 134.265 49.4282 134.52 49.7445 134.519L53.5352 134.504C53.8514 134.503 54.1068 134.246 54.1056 133.93L54.1024 133.09C54.1012 132.773 53.8438 132.518 53.5276 132.519L49.7368 132.534C49.4206 132.535 49.1652 132.792 49.1665 133.109Z" fill="white"/>
<path d="M52.2734 126.588L51.6816 127.184C51.4589 127.408 51.4603 127.771 51.6847 127.994L54.3755 130.664C54.6 130.887 54.9625 130.885 55.1853 130.661L55.777 130.064C55.9998 129.84 55.9984 129.477 55.7739 129.255L53.0832 126.584C52.8587 126.362 52.4962 126.363 52.2734 126.588Z" fill="white"/>
<path d="M59.0836 124.169L58.2435 124.172C57.9273 124.173 57.6719 124.431 57.6731 124.747L57.6877 128.538C57.6889 128.854 57.9462 129.109 58.2624 129.108L59.1026 129.105C59.4188 129.103 59.6741 128.846 59.6729 128.53L59.6584 124.739C59.6572 124.423 59.3998 124.168 59.0836 124.169Z" fill="white"/>
</g>
<g opacity="0.1">
<path d="M239.709 247.815H237.455V245.876C237.455 244.175 236.071 242.79 234.369 242.79C232.667 242.79 231.283 244.175 231.283 245.876V247.815H229.029V245.876C229.029 242.933 231.425 240.537 234.369 240.537C237.313 240.537 239.709 242.933 239.709 245.877V247.816V247.815Z" fill="white"/>
<path d="M240.341 249.095H228.396C227.303 249.095 226.408 249.99 226.408 251.083V258.281C226.408 259.374 227.303 260.27 228.396 260.27H240.341C241.434 260.27 242.329 259.374 242.329 258.281V251.083C242.329 249.99 241.434 249.095 240.341 249.095ZM234.868 255.036V256.077C234.868 256.352 234.644 256.576 234.369 256.576C234.094 256.576 233.869 256.352 233.869 256.077V255.036C233.467 254.848 233.19 254.44 233.19 253.967C233.19 253.316 233.717 252.788 234.369 252.788C235.02 252.788 235.548 253.316 235.548 253.967C235.548 254.44 235.27 254.848 234.868 255.036Z" fill="white"/>
</g>
<g opacity="0.1">
<path d="M182.111 189.207H179.858V187.268C179.858 185.566 178.473 184.182 176.771 184.182C175.07 184.182 173.685 185.566 173.685 187.268V189.207H171.432V187.268C171.432 184.324 173.827 181.929 176.771 181.929C179.716 181.929 182.111 184.324 182.111 187.269V189.208V189.207Z" fill="white"/>
<path d="M182.744 190.487H170.8C169.707 190.487 168.812 191.382 168.812 192.475V199.673C168.812 200.766 169.707 201.661 170.8 201.661H182.744C183.837 201.661 184.732 200.766 184.732 199.673V192.475C184.732 191.382 183.837 190.487 182.744 190.487ZM177.271 196.428V197.469C177.271 197.744 177.047 197.968 176.772 197.968C176.497 197.968 176.272 197.744 176.272 197.469V196.428C175.871 196.24 175.593 195.832 175.593 195.359C175.593 194.708 176.121 194.18 176.772 194.18C177.423 194.18 177.951 194.708 177.951 195.359C177.951 195.832 177.673 196.24 177.271 196.428Z" fill="white"/>
</g>
<g opacity="0.1">
<path d="M180.923 130.422H178.669V128.483C178.669 126.781 177.284 125.396 175.583 125.396C173.881 125.396 172.497 126.781 172.497 128.483V130.422H170.243V128.483C170.243 125.539 172.638 123.144 175.583 123.144C178.527 123.144 180.923 125.539 180.923 128.484V130.423V130.422Z" fill="white"/>
<path d="M181.556 131.702H169.611C168.518 131.702 167.623 132.597 167.623 133.69V140.888C167.623 141.981 168.518 142.876 169.611 142.876H181.556C182.649 142.876 183.544 141.981 183.544 140.888V133.69C183.544 132.597 182.649 131.702 181.556 131.702ZM176.083 137.643V138.683C176.083 138.959 175.858 139.183 175.583 139.183C175.308 139.183 175.084 138.959 175.084 138.683V137.643C174.682 137.455 174.404 137.047 174.404 136.574C174.404 135.923 174.932 135.395 175.583 135.395C176.235 135.395 176.762 135.923 176.762 136.574C176.762 137.047 176.485 137.455 176.083 137.643Z" fill="white"/>
</g>
<g opacity="0.1">
<path d="M63.9461 189.03H61.6927V187.091C61.6927 185.389 60.3079 184.004 58.6063 184.004C56.9048 184.004 55.5199 185.389 55.5199 187.091V189.03H53.2666V187.091C53.2666 184.147 55.6619 181.752 58.6063 181.752C61.5508 181.752 63.9461 184.147 63.9461 187.091V189.031V189.03Z" fill="white"/>
<path d="M64.5791 190.31H52.6346C51.5416 190.31 50.6465 191.205 50.6465 192.298V199.496C50.6465 200.589 51.5416 201.484 52.6346 201.484H64.5791C65.6721 201.484 66.5672 200.589 66.5672 199.496V192.298C66.5672 191.205 65.6721 190.31 64.5791 190.31ZM59.1063 196.251V197.291C59.1063 197.566 58.8819 197.791 58.6068 197.791C58.3318 197.791 58.1074 197.566 58.1074 197.291V196.251C57.7055 196.063 57.4278 195.655 57.4278 195.182C57.4278 194.531 57.9557 194.003 58.6068 194.003C59.258 194.003 59.7859 194.531 59.7859 195.182C59.7859 195.655 59.5082 196.063 59.1063 196.251Z" fill="white"/>
</g>
<rect x="92.5566" y="166.856" width="50.2949" height="50.2949" rx="8.11209" fill="white" fill-opacity="0.08"/>
<rect x="98.3779" y="160.278" width="50.2949" height="50.2949" rx="11.8758" transform="rotate(-15 98.3779 160.278)" fill="#FF6E75"/>
<path d="M129.378 177.759C131.824 177.104 133.275 174.59 132.62 172.144C131.965 169.698 129.451 168.246 127.005 168.902C124.559 169.557 123.107 172.071 123.763 174.517C124.418 176.963 126.932 178.414 129.378 177.759Z" fill="white"/>
<path d="M139.382 181.775C138.571 178.764 135.473 177.061 134.141 176.442C133.903 176.331 133.62 176.395 133.452 176.598C132.868 177.3 131.548 178.61 129.423 179.071C127.649 179.456 126.166 179.062 125.372 178.765C125.125 178.673 124.848 178.759 124.697 178.974C123.853 180.177 122.023 183.201 122.827 186.212C123.018 186.929 123.334 188.114 124.465 188.756C125.577 189.385 126.798 189.103 127.176 189L137.008 186.365C137.387 186.265 138.587 185.899 139.234 184.798C139.893 183.677 139.573 182.493 139.381 181.777L139.382 181.775Z" fill="white"/>
</g>
<rect x="292.547" y="58.1917" width="236.329" height="74.8178" rx="17.8138" fill="white" fill-opacity="0.08"/>
<rect x="293.734" y="148.448" width="236.329" height="95.6005" rx="17.8138" fill="white" fill-opacity="0.08"/>
<rect x="12.2773" y="393.181" width="91.501" height="46.6103" rx="11.8758" fill="white" fill-opacity="0.08"/>
<rect x="12.2773" y="393.181" width="91.501" height="46.6103" rx="11.8758" stroke="white" stroke-opacity="0.2" stroke-width="1.18758"/>
<path d="M48.6924 416.201C49.383 416.329 49.9507 416.675 50.3955 417.236C50.8403 417.798 51.0627 418.442 51.0627 419.168C51.0627 419.823 50.8988 420.403 50.5711 420.906C50.255 421.398 49.7927 421.784 49.184 422.065C48.5754 422.346 47.8555 422.486 47.0245 422.486H41.7398V410.231H46.7963C47.6273 410.231 48.3413 410.366 48.9382 410.635C49.5469 410.904 50.0034 411.279 50.3077 411.759C50.6237 412.239 50.7818 412.783 50.7818 413.391C50.7818 414.105 50.5886 414.702 50.2024 415.182C49.8278 415.662 49.3245 416.002 48.6924 416.201ZM44.1978 415.288H46.4451C47.0304 415.288 47.481 415.159 47.797 414.901C48.1131 414.632 48.2711 414.252 48.2711 413.76C48.2711 413.269 48.1131 412.888 47.797 412.619C47.481 412.35 47.0304 412.215 46.4451 412.215H44.1978V415.288ZM46.6734 420.485C47.2703 420.485 47.7326 420.344 48.0604 420.063C48.3998 419.782 48.5695 419.384 48.5695 418.869C48.5695 418.343 48.394 417.933 48.0428 417.64C47.6917 417.336 47.2176 417.184 46.6207 417.184H44.1978V420.485H46.6734ZM62.5553 412.759V422.486H60.0797V421.257C59.7637 421.678 59.3481 422.012 58.8331 422.258C58.3298 422.492 57.7797 422.609 57.1827 422.609C56.4219 422.609 55.7489 422.451 55.1637 422.135C54.5784 421.807 54.1161 421.333 53.7766 420.713C53.4489 420.081 53.285 419.332 53.285 418.465V412.759H55.743V418.114C55.743 418.887 55.9362 419.484 56.3224 419.905C56.7087 420.315 57.2354 420.52 57.9026 420.52C58.5815 420.52 59.114 420.315 59.5003 419.905C59.8866 419.484 60.0797 418.887 60.0797 418.114V412.759H62.5553ZM74.637 412.759L68.6148 427.086H65.9988L68.1057 422.24L64.208 412.759H66.9645L69.4751 419.554L72.0209 412.759H74.637Z" fill="white" fill-opacity="0.4"/>
<rect x="116.19" y="393.09" width="160.918" height="46.9096" rx="11.8758" fill="white" fill-opacity="0.08"/>
<rect x="441.589" y="12.4696" width="17.8138" height="17.8138" rx="5.93792" fill="white" fill-opacity="0.2"/>
<rect x="474.556" y="12.4696" width="17.8138" height="17.8138" rx="5.93792" fill="white" fill-opacity="0.2"/>
<rect x="507.522" y="12.4696" width="17.8138" height="17.8138" rx="5.93792" fill="white" fill-opacity="0.2"/>
<rect x="293.734" y="259.487" width="234.548" height="180.513" rx="17.8138" fill="white" fill-opacity="0.04"/>
<rect x="293.734" y="259.487" width="234.548" height="180.513" rx="17.8138" stroke="#FBBE7E" stroke-opacity="0.4" stroke-width="1.18758" stroke-dasharray="6.53 6.53"/>
<rect x="497.999" y="222.672" width="76.5992" height="76.5992" rx="38.2996" fill="#FF6E75"/>
<g filter="url(#filter1_b_718_12432)">
<rect x="309.685" y="219.844" width="234.548" height="180.513" rx="17.8138" transform="rotate(-9.03022 309.685 219.844)" fill="url(#paint9_radial_718_12432)"/>
<rect x="309.685" y="219.844" width="234.548" height="180.513" rx="17.8138" transform="rotate(-9.03022 309.685 219.844)" stroke="#FBBE7E" stroke-width="1.18758"/>
<rect x="370.344" y="298.73" width="106.883" height="39.1903" rx="5.93792" transform="rotate(-9.03022 370.344 298.73)" fill="#FBBE7E"/>
<rect x="381.088" y="306.103" width="43.7073" height="3.76787" rx="1.50715" transform="rotate(-9.03022 381.088 306.103)" fill="white" fill-opacity="0.6"/>
<rect x="382.519" y="315.102" width="87.4145" height="3.76787" rx="1.50715" transform="rotate(-9.03022 382.519 315.102)" fill="white" fill-opacity="0.6"/>
<rect x="383.948" y="324.101" width="52.8475" height="3.56275" rx="1.50715" transform="rotate(-9.03022 383.948 324.101)" fill="white" fill-opacity="0.6"/>
<rect x="332.454" y="287.316" width="32.0648" height="32.0648" rx="16.0324" transform="rotate(-9.03022 332.454 287.316)" fill="url(#paint10_linear_718_12432)"/>
<g clip-path="url(#clip0_718_12432)">
<path d="M345.7 299.835C344.291 299.086 343.399 297.673 343.092 296.418C343.044 296.219 342.849 296.13 342.672 296.158C342.543 296.179 342.424 296.261 342.374 296.404C341.476 299.022 342.513 302.26 344.174 303.356C344.363 302.342 344.767 301.298 345.36 300.347C345.468 300.172 345.582 300.004 345.701 299.838L345.7 299.835ZM357.151 294.056C357.06 293.935 356.92 293.894 356.791 293.914C356.611 293.943 356.456 294.084 356.469 294.292C356.565 295.58 356.156 297.204 355.049 298.353C355.213 298.473 355.373 298.598 355.531 298.731C356.389 299.451 357.097 300.318 357.591 301.224C358.831 299.667 358.813 296.271 357.151 294.056ZM352.388 298.047L353.198 303.139L357.109 302.517C356.423 300.625 354.559 298.686 352.388 298.047ZM348.949 303.814L348.139 298.722C346.273 299.999 345.106 302.419 345.037 304.436L348.949 303.814ZM357.398 303.399L345.036 305.364C344.812 305.399 344.659 305.597 344.692 305.805L344.956 307.465C344.989 307.674 345.196 307.814 345.419 307.778L357.778 305.814C358.001 305.778 358.155 305.581 358.122 305.372L357.858 303.713C357.825 303.504 357.618 303.364 357.394 303.4L357.398 303.399ZM351.364 297.849C350.977 297.813 350.581 297.823 350.185 297.886C349.789 297.949 349.413 298.062 349.052 298.217L349.916 303.657L352.225 303.29L351.36 297.85L351.364 297.849Z" fill="white"/>
</g>
<rect x="393.552" y="240.472" width="106.883" height="31.471" rx="5.93792" transform="rotate(-9.03022 393.552 240.472)" fill="white" fill-opacity="0.1"/>
<rect x="404.519" y="248.95" width="42.2001" height="3.76787" rx="1.50715" transform="rotate(-9.03022 404.519 248.95)" fill="white" fill-opacity="0.1"/>
<rect x="405.949" y="257.949" width="87.4145" height="3.76787" rx="1.50715" transform="rotate(-9.03022 405.949 257.949)" fill="white" fill-opacity="0.1"/>
<rect x="500.068" y="207.167" width="32.0648" height="32.0648" rx="16.0324" transform="rotate(-9.03022 500.068 207.167)" fill="white" fill-opacity="0.1"/>
<g opacity="0.4">
<path d="M516.239 217.582C515.422 217.98 514.732 218.579 514.224 219.305L515.375 226.547C516.479 227.377 517.905 227.776 519.376 227.542C520.848 227.308 522.083 226.487 522.874 225.354L521.723 218.112C520.618 217.282 519.192 216.883 517.72 217.117C517.192 217.201 516.695 217.361 516.239 217.582Z" fill="white"/>
<path d="M524.533 218.473C523.559 215.431 520.478 213.464 517.228 213.98C513.978 214.497 511.661 217.319 511.676 220.51C510.747 221.133 510.213 222.258 510.4 223.436L510.459 223.804C510.715 225.419 512.232 226.52 513.847 226.263L514.104 226.222L513.125 220.063C513.314 217.751 515.061 215.772 517.453 215.392C519.845 215.012 522.083 216.329 522.995 218.44L523.982 224.652L524.239 224.611C525.854 224.354 526.955 222.837 526.698 221.222L526.64 220.854C526.453 219.682 525.603 218.781 524.533 218.473L524.533 218.473Z" fill="white"/>
</g>
<rect x="460.295" y="335.083" width="55.8165" height="26.1269" rx="5.93792" transform="rotate(-9.03022 460.295 335.083)" fill="white" fill-opacity="0.1"/>
<circle cx="478.712" cy="345.337" r="3.01429" transform="rotate(-9.03022 478.712 345.337)" fill="white" fill-opacity="0.2"/>
<circle cx="489.761" cy="343.581" r="3.01429" transform="rotate(-9.03022 489.761 343.581)" fill="white" fill-opacity="0.2"/>
<circle cx="500.81" cy="341.825" r="3.01429" transform="rotate(-9.03022 500.81 341.825)" fill="white" fill-opacity="0.2"/>
<rect x="516.466" y="309.84" width="32.0648" height="32.0648" rx="16.0324" transform="rotate(-9.03022 516.466 309.84)" fill="white" fill-opacity="0.1"/>
<g opacity="0.4">
<path d="M532.549 320.208C531.731 320.606 531.041 321.205 530.533 321.931L531.684 329.173C532.789 330.003 534.215 330.402 535.686 330.168C537.157 329.934 538.392 329.113 539.183 327.98L538.032 320.738C536.928 319.908 535.501 319.509 534.029 319.743C533.502 319.827 533.005 319.987 532.549 320.208Z" fill="white"/>
<path d="M540.842 321.099C539.869 318.057 536.787 316.09 533.537 316.606C530.287 317.123 527.971 319.945 527.986 323.136C527.057 323.759 526.522 324.884 526.71 326.062L526.768 326.43C527.025 328.044 528.541 329.146 530.157 328.889L530.413 328.848L529.434 322.689C529.624 320.376 531.371 318.398 533.763 318.018C536.154 317.638 538.392 318.955 539.305 321.065L540.292 327.278L540.548 327.237C542.164 326.98 543.264 325.463 543.008 323.848L542.949 323.48C542.763 322.308 541.913 321.407 540.843 321.099L540.842 321.099Z" fill="white"/>
</g>
</g>
<defs>
<filter id="filter0_b_718_12432" x="-56.6786" y="-10.7643" width="402.743" height="372.46" filterUnits="userSpaceOnUse" color-interpolation-filters="sRGB">
<feFlood flood-opacity="0" result="BackgroundImageFix"/>
<feGaussianBlur in="BackgroundImageFix" stdDeviation="34.1811"/>
<feComposite in2="SourceAlpha" operator="in" result="effect1_backgroundBlur_718_12432"/>
<feBlend mode="normal" in="SourceGraphic" in2="effect1_backgroundBlur_718_12432" result="shape"/>
</filter>
<filter id="filter1_b_718_12432" x="234.327" y="107.674" width="410.688" height="365.804" filterUnits="userSpaceOnUse" color-interpolation-filters="sRGB">
<feFlood flood-opacity="0" result="BackgroundImageFix"/>
<feGaussianBlur in="BackgroundImageFix" stdDeviation="37.6787"/>
<feComposite in2="SourceAlpha" operator="in" result="effect1_backgroundBlur_718_12432"/>
<feBlend mode="normal" in="SourceGraphic" in2="effect1_backgroundBlur_718_12432" result="shape"/>
</filter>
<linearGradient id="paint0_linear_718_12432" x1="604.704" y1="13.9541" x2="-161.316" y2="20.6389" gradientUnits="userSpaceOnUse">
<stop offset="0.135" stop-color="#FF6E75" stop-opacity="0.1"/>
<stop offset="0.901438" stop-color="#FF6E75"/>
</linearGradient>
<linearGradient id="paint1_linear_718_12432" x1="117.704" y1="107.047" x2="117.704" y2="281.457" gradientUnits="userSpaceOnUse">
<stop stop-color="#FF6E75" stop-opacity="0"/>
<stop offset="0.486406" stop-color="#FF6E75"/>
<stop offset="1" stop-color="#FF6E75" stop-opacity="0"/>
</linearGradient>
<linearGradient id="paint2_linear_718_12432" x1="63.6408" y1="242.444" x2="63.6408" y2="383.501" gradientUnits="userSpaceOnUse">
<stop stop-color="#FF6E75" stop-opacity="0"/>
<stop offset="0.51497" stop-color="#FF6E75"/>
<stop offset="1" stop-color="#FF6E75" stop-opacity="0"/>
</linearGradient>
<linearGradient id="paint3_linear_718_12432" x1="117.704" y1="75.4116" x2="117.704" y2="100.559" gradientUnits="userSpaceOnUse">
<stop stop-color="#FBBE7E"/>
<stop offset="1" stop-color="#FF6E75"/>
</linearGradient>
<linearGradient id="paint4_linear_718_12432" x1="34.248" y1="163.199" x2="271.554" y2="163.138" gradientUnits="userSpaceOnUse">
<stop offset="0.045" stop-color="white" stop-opacity="0"/>
<stop offset="0.385" stop-color="white"/>
<stop offset="1" stop-color="white" stop-opacity="0"/>
</linearGradient>
<linearGradient id="paint5_linear_718_12432" x1="88.9395" y1="275.9" x2="88.904" y2="94.3451" gradientUnits="userSpaceOnUse">
<stop offset="0.045" stop-color="white" stop-opacity="0"/>
<stop offset="0.5" stop-color="white"/>
<stop offset="1" stop-color="white" stop-opacity="0"/>
</linearGradient>
<linearGradient id="paint6_linear_718_12432" x1="147.423" y1="275.9" x2="147.387" y2="94.3451" gradientUnits="userSpaceOnUse">
<stop offset="0.045" stop-color="white" stop-opacity="0"/>
<stop offset="0.5" stop-color="white"/>
<stop offset="1" stop-color="white" stop-opacity="0"/>
</linearGradient>
<linearGradient id="paint7_linear_718_12432" x1="205.904" y1="275.9" x2="205.869" y2="94.3451" gradientUnits="userSpaceOnUse">
<stop offset="0.045" stop-color="white" stop-opacity="0"/>
<stop offset="0.5" stop-color="white"/>
<stop offset="1" stop-color="white" stop-opacity="0"/>
</linearGradient>
<linearGradient id="paint8_linear_718_12432" x1="34.248" y1="221.391" x2="271.554" y2="221.33" gradientUnits="userSpaceOnUse">
<stop offset="0.045" stop-color="white" stop-opacity="0"/>
<stop offset="0.385" stop-color="white"/>
<stop offset="1" stop-color="white" stop-opacity="0"/>
</linearGradient>
<radialGradient id="paint9_radial_718_12432" cx="0" cy="0" r="1" gradientUnits="userSpaceOnUse" gradientTransform="translate(631.644 298.508) rotate(174.366) scale(313.504 97.4547)">
<stop stop-color="#935E5D"/>
<stop offset="0.592232" stop-color="#161635"/>
</radialGradient>
<linearGradient id="paint10_linear_718_12432" x1="348.486" y1="287.316" x2="348.486" y2="319.381" gradientUnits="userSpaceOnUse">
<stop stop-color="#FBBE7E"/>
<stop offset="1" stop-color="#FF6E75"/>
</linearGradient>
<clipPath id="clip0_718_12432">
<rect width="17.8138" height="17.8138" fill="white" transform="translate(340.468 293.501) rotate(-9.03022)"/>
</clipPath>
</defs>
</svg>
