<svg width="452" height="441" viewBox="0 0 452 441" fill="none" xmlns="http://www.w3.org/2000/svg">
<rect opacity="0.4" x="166.012" y="52.3147" width="97.6543" height="358.531" fill="url(#paint0_linear_718_11853)"/>
<rect opacity="0.4" x="35.574" y="244.833" width="97.6543" height="358.531" transform="rotate(-90 35.574 244.833)" fill="url(#paint1_linear_718_11853)"/>
<rect x="75.3333" y="-0.00012207" width="83.7037" height="41.8519" rx="13.9506" fill="white" fill-opacity="0.1"/>
<path opacity="0.4" d="M111.089 16.0541V26.7654H108.941V19.7984L106.071 26.7654H104.444L101.559 19.7984V26.7654H99.4109V16.0541H101.851L105.258 24.0185L108.664 16.0541H111.089ZM118.492 26.8728C117.489 26.8728 116.569 26.6375 115.73 26.1669C114.891 25.6963 114.226 25.0467 113.735 24.218C113.244 23.3791 112.998 22.4328 112.998 21.379C112.998 20.3355 113.244 19.3995 113.735 18.5708C114.226 17.7319 114.891 17.0771 115.73 16.6065C116.569 16.1359 117.489 15.9006 118.492 15.9006C119.505 15.9006 120.425 16.1359 121.254 16.6065C122.093 17.0771 122.753 17.7319 123.234 18.5708C123.725 19.3995 123.97 20.3355 123.97 21.379C123.97 22.4328 123.725 23.3791 123.234 24.218C122.753 25.0467 122.093 25.6963 121.254 26.1669C120.415 26.6375 119.495 26.8728 118.492 26.8728ZM118.492 24.9546C119.136 24.9546 119.704 24.8114 120.195 24.5249C120.686 24.2282 121.07 23.8088 121.346 23.2666C121.622 22.7244 121.761 22.0952 121.761 21.379C121.761 20.6629 121.622 20.0389 121.346 19.5069C121.07 18.9647 120.686 18.5503 120.195 18.2639C119.704 17.9774 119.136 17.8342 118.492 17.8342C117.847 17.8342 117.275 17.9774 116.773 18.2639C116.282 18.5503 115.899 18.9647 115.622 19.5069C115.346 20.0389 115.208 20.6629 115.208 21.379C115.208 22.0952 115.346 22.7244 115.622 23.2666C115.899 23.8088 116.282 24.2282 116.773 24.5249C117.275 24.8114 117.847 24.9546 118.492 24.9546ZM135.037 26.7654H132.889L128.024 19.4148V26.7654H125.876V16.0388H128.024L132.889 23.4047V16.0388H135.037V26.7654Z" fill="white"/>
<rect x="172.988" y="-0.000244141" width="83.7037" height="41.8519" rx="13.9506" fill="url(#paint2_linear_718_11853)"/>
<path d="M209.237 16.054V17.788H206.383V26.7653H204.235V17.788H201.38V16.054H209.237ZM213.23 16.054V22.6833C213.23 23.4097 213.419 23.9672 213.797 24.356C214.176 24.7345 214.708 24.9238 215.393 24.9238C216.089 24.9238 216.626 24.7345 217.005 24.356C217.383 23.9672 217.572 23.4097 217.572 22.6833V16.054H219.736V22.668C219.736 23.5785 219.537 24.3509 219.138 24.9852C218.749 25.6092 218.222 26.0798 217.557 26.397C216.902 26.7141 216.171 26.8727 215.363 26.8727C214.565 26.8727 213.838 26.7141 213.184 26.397C212.539 26.0798 212.028 25.6092 211.649 24.9852C211.27 24.3509 211.081 23.5785 211.081 22.668V16.054H213.23ZM224.267 17.788V20.4735H227.873V22.1769H224.267V25.0159H228.334V26.7653H222.119V16.0386H228.334V17.788H224.267Z" fill="white"/>
<rect x="270.642" y="-0.000244141" width="83.7037" height="41.8519" rx="13.9506" fill="white" fill-opacity="0.1"/>
<path opacity="0.4" d="M310.432 16.0541L307.44 26.7654H304.908L302.897 19.1386L300.795 26.7654L298.278 26.7807L295.393 16.0541H297.695L299.583 24.3715L301.762 16.0541H304.156L306.212 24.3254L308.115 16.0541H310.432ZM314.29 17.7882V20.4737H317.896V22.177H314.29V25.016H318.357V26.7654H312.142V16.0388H318.357V17.7882H314.29ZM324.36 16.0541C325.486 16.0541 326.473 16.2741 327.322 16.714C328.181 17.1539 328.841 17.783 329.302 18.6015C329.772 19.4097 330.008 20.3509 330.008 21.4251C330.008 22.4993 329.772 23.4405 329.302 24.2487C328.841 25.0467 328.181 25.6656 327.322 26.1055C326.473 26.5454 325.486 26.7654 324.36 26.7654H320.616V16.0541H324.36ZM324.284 24.9392C325.409 24.9392 326.279 24.6323 326.892 24.0185C327.506 23.4047 327.813 22.5402 327.813 21.4251C327.813 20.31 327.506 19.4404 326.892 18.8163C326.279 18.182 325.409 17.8649 324.284 17.8649H322.764V24.9392H324.284Z" fill="white"/>
<rect x="368.296" y="-0.000244141" width="83.7037" height="41.8519" rx="13.9506" fill="white" fill-opacity="0.1"/>
<path opacity="0.4" d="M403.15 16.0539V17.7879H400.296V26.7651H398.147V17.7879H395.293V16.0539H403.15ZM413.909 16.0539V26.7651H411.761V22.2075H407.173V26.7651H405.024V16.0539H407.173V20.4581H411.761V16.0539H413.909ZM418.449 16.0539V22.6832C418.449 23.4095 418.638 23.9671 419.016 24.3559C419.395 24.7344 419.927 24.9237 420.612 24.9237C421.308 24.9237 421.845 24.7344 422.224 24.3559C422.602 23.9671 422.791 23.4095 422.791 22.6832V16.0539H424.955V22.6678C424.955 23.5784 424.756 24.3508 424.357 24.985C423.968 25.6091 423.441 26.0797 422.776 26.3968C422.121 26.714 421.39 26.8726 420.582 26.8726C419.784 26.8726 419.057 26.714 418.403 26.3968C417.758 26.0797 417.247 25.6091 416.868 24.985C416.489 24.3508 416.3 23.5784 416.3 22.6678V16.0539H418.449Z" fill="white"/>
<path opacity="0.4" d="M0 147.179H452" stroke="url(#paint3_linear_718_11853)" stroke-width="0.697531" stroke-miterlimit="10"/>
<path opacity="0.4" d="M166.012 440.142L166.012 49.5246" stroke="url(#paint4_linear_718_11853)" stroke-width="0.697531" stroke-miterlimit="10"/>
<path opacity="0.4" d="M263.667 440.142L263.667 49.5246" stroke="url(#paint5_linear_718_11853)" stroke-width="0.697531" stroke-miterlimit="10"/>
<path opacity="0.4" d="M361.321 440.142L361.321 49.5246" stroke="url(#paint6_linear_718_11853)" stroke-width="0.697531" stroke-miterlimit="10"/>
<path opacity="0.4" d="M0 244.833H452" stroke="url(#paint7_linear_718_11853)" stroke-width="0.697531" stroke-miterlimit="10"/>
<path opacity="0.4" d="M0 342.487H452" stroke="url(#paint8_linear_718_11853)" stroke-width="0.697531" stroke-miterlimit="10"/>
<path opacity="0.2" d="M0 440.142H452" stroke="url(#paint9_linear_718_11853)" stroke-width="0.697531" stroke-miterlimit="10"/>
<rect x="368.296" y="56.5" width="83.7037" height="83.7037" rx="12.3729" fill="#FBBE7E"/>
<g opacity="0.3">
<path d="M400.486 110.147H395.94C395.297 110.147 394.776 109.63 394.776 108.994V104.729C394.835 104.729 394.895 104.726 394.954 104.726C397.986 104.726 400.458 107.152 400.486 110.147Z" fill="#000223"/>
<path d="M407.626 95.8988V97.6428C407.626 99.041 408.775 100.177 410.189 100.177H410.252C411.665 100.177 412.814 99.0397 412.814 97.6428V95.8988H407.626ZM411.065 98.1704C411.065 98.4321 410.851 98.6437 410.585 98.6437H409.855C409.591 98.6437 409.377 98.4321 409.377 98.1704V97.4489C409.377 97.1858 409.591 96.9742 409.855 96.9742H410.585C410.851 96.9742 411.065 97.1858 411.065 97.4489V98.1704Z" fill="#000223"/>
<path d="M425.678 95.8988V102.811C421.611 102.85 418.311 106.122 418.284 110.148H402.408C402.382 106.096 399.042 102.81 394.939 102.81C394.88 102.81 394.82 102.81 394.761 102.813V95.8988H405.685V97.6428C405.685 100.099 407.705 102.096 410.187 102.096H410.25C412.733 102.096 414.753 100.099 414.753 97.6428V95.8988H425.678Z" fill="#000223"/>
<path d="M425.692 104.728V108.995C425.692 109.631 425.169 110.147 424.526 110.147H420.237C420.264 107.179 422.694 104.768 425.692 104.728Z" fill="#000223"/>
<path d="M402.661 86.5544H417.778C422.138 86.5544 425.677 90.056 425.677 94.3686H394.76C394.76 90.056 398.301 86.5544 402.661 86.5544Z" fill="#000223"/>
</g>
<rect x="75.333" y="251.809" width="83.7037" height="83.7037" rx="12.3729" fill="#FBBE7E"/>
<g opacity="0.3">
<path fill-rule="evenodd" clip-rule="evenodd" d="M104.893 287.025C104.681 286.834 104.525 286.588 104.444 286.315L101.896 277.791L110.42 280.337C110.693 280.419 110.939 280.575 111.13 280.786C111.916 281.658 112.702 282.529 113.488 283.401C114.273 284.271 115.058 285.141 115.843 286.012C117.479 287.827 119.116 289.642 120.753 291.456C121.958 292.791 123.162 294.126 124.365 295.461C124.936 296.093 125.506 296.726 126.077 297.358C125.808 297.626 125.54 297.893 125.272 298.161C125.004 298.428 124.736 298.695 124.468 298.962L123.091 300.339C122.55 300.884 122.007 301.428 121.465 301.972L115.843 296.902L109.806 291.458L104.893 287.025ZM130.319 286.315L132.866 277.791L124.343 280.339C124.068 280.42 123.822 280.575 123.632 280.786L119.2 285.701L118.145 286.87L118.181 286.838L123.516 292.754C123.704 292.585 123.892 292.415 124.08 292.246C124.268 292.077 124.456 291.907 124.644 291.738C125.516 290.952 126.387 290.166 127.258 289.38C128.128 288.595 128.999 287.81 129.87 287.025C130.081 286.834 130.237 286.588 130.319 286.315ZM111.331 294.428L116.498 299.086C115.965 299.567 115.431 300.049 114.898 300.53C114.365 301.011 113.831 301.492 113.299 301.973C111.761 300.435 110.223 298.897 108.686 297.359L111.331 294.428ZM112.944 303.298L107.358 297.712C107.081 297.435 106.632 297.435 106.355 297.712L105.576 298.491C105.299 298.768 105.299 299.217 105.576 299.494L107.094 301.012C107.035 301.034 106.981 301.069 106.933 301.116L104.329 303.721L104.05 303.442C103.838 303.231 103.496 303.231 103.284 303.442L102.763 303.964C101.964 304.763 101.963 306.061 102.763 306.861L103.796 307.894C104.595 308.693 105.893 308.694 106.693 307.894L107.214 307.372C107.426 307.161 107.426 306.818 107.214 306.607L106.936 306.328L109.54 303.723C109.587 303.676 109.622 303.621 109.645 303.563L111.163 305.08C111.439 305.357 111.889 305.357 112.165 305.08L112.944 304.301C113.221 304.024 113.221 303.575 112.944 303.298ZM127.406 297.71L121.82 303.297C121.543 303.574 121.543 304.023 121.82 304.3L122.599 305.079C122.876 305.356 123.325 305.356 123.602 305.079L125.118 303.563C125.14 303.622 125.175 303.677 125.223 303.724L127.827 306.329L127.548 306.608C127.336 306.82 127.336 307.163 127.548 307.374L128.069 307.896C128.868 308.695 130.166 308.695 130.966 307.896L131.999 306.862C132.798 306.063 132.799 304.765 131.999 303.966L131.478 303.444C131.266 303.233 130.924 303.233 130.712 303.444L130.434 303.722L127.83 301.117C127.782 301.07 127.727 301.035 127.668 301.012L129.188 299.492C129.465 299.215 129.465 298.766 129.188 298.489L128.409 297.71C128.132 297.433 127.683 297.433 127.406 297.71Z" fill="#000223"/>
</g>
<rect x="75.3333" y="56.4999" width="83.7037" height="83.7037" rx="12.3729" fill="white" fill-opacity="0.04"/>
<g opacity="0.2">
<path d="M132.567 99.1467L132.561 97.776C132.559 97.26 132.14 96.8434 131.624 96.8454L125.439 96.8691C124.923 96.8711 124.506 97.291 124.508 97.8069L124.514 99.1776C124.516 99.6935 124.935 100.11 125.451 100.108L131.636 100.084C132.152 100.082 132.569 99.6626 132.567 99.1467Z" fill="white"/>
<path d="M127.5 109.788L128.465 108.815C128.829 108.449 128.826 107.858 128.46 107.494L124.07 103.138C123.704 102.774 123.112 102.777 122.749 103.143L121.783 104.116C121.42 104.482 121.422 105.074 121.789 105.437L126.179 109.793C126.545 110.157 127.136 110.155 127.5 109.788Z" fill="white"/>
<path d="M116.388 113.736L117.758 113.731C118.274 113.729 118.691 113.309 118.689 112.793L118.665 106.609C118.663 106.093 118.243 105.676 117.728 105.678L116.357 105.683C115.841 105.685 115.424 106.105 115.426 106.621L115.45 112.806C115.452 113.322 115.872 113.738 116.388 113.736Z" fill="white"/>
<path d="M105.745 108.665L106.718 109.631C107.084 109.994 107.676 109.992 108.039 109.626L112.396 105.236C112.759 104.869 112.757 104.278 112.391 103.914L111.418 102.949C111.051 102.586 110.46 102.588 110.096 102.954L105.74 107.344C105.377 107.71 105.379 108.302 105.745 108.665Z" fill="white"/>
<path d="M101.803 97.5548L101.808 98.9254C101.81 99.4414 102.23 99.858 102.746 99.856L108.931 99.8323C109.447 99.8303 109.863 99.4105 109.861 98.8945L109.856 97.5238C109.854 97.0079 109.434 96.5913 108.918 96.5932L102.734 96.617C102.218 96.619 101.801 97.0388 101.803 97.5548Z" fill="white"/>
<path d="M106.872 86.9129L105.907 87.8858C105.543 88.2521 105.545 88.8436 105.912 89.207L110.302 93.5635C110.668 93.9269 111.259 93.9246 111.623 93.5584L112.588 92.5855C112.952 92.2192 112.95 91.6278 112.583 91.2643L108.193 86.9078C107.827 86.5444 107.235 86.5467 106.872 86.9129Z" fill="white"/>
<path d="M117.984 82.9692L116.613 82.9744C116.097 82.9764 115.681 83.3963 115.683 83.9122L115.706 90.097C115.708 90.6129 116.128 91.0296 116.644 91.0276L118.015 91.0223C118.531 91.0203 118.947 90.6005 118.945 90.0845L118.922 83.8998C118.92 83.3838 118.5 82.9672 117.984 82.9692Z" fill="white"/>
</g>
<rect x="368.296" y="154.154" width="83.7037" height="83.7037" rx="12.3729" fill="white" fill-opacity="0.04"/>
<g opacity="0.2">
<path d="M425.527 196.801L425.522 195.43C425.52 194.914 425.1 194.498 424.584 194.5L418.399 194.523C417.883 194.525 417.467 194.945 417.469 195.461L417.474 196.832C417.476 197.348 417.896 197.764 418.412 197.762L424.597 197.739C425.113 197.737 425.529 197.317 425.527 196.801Z" fill="white"/>
<path d="M420.46 207.442L421.425 206.469C421.789 206.103 421.787 205.512 421.42 205.148L417.03 200.792C416.664 200.428 416.073 200.43 415.709 200.797L414.744 201.77C414.38 202.136 414.383 202.727 414.749 203.091L419.139 207.447C419.505 207.811 420.097 207.808 420.46 207.442Z" fill="white"/>
<path d="M409.35 211.39L410.721 211.385C411.237 211.383 411.654 210.963 411.652 210.447L411.628 204.263C411.626 203.747 411.206 203.33 410.69 203.332L409.319 203.337C408.804 203.339 408.387 203.759 408.389 204.275L408.413 210.46C408.415 210.976 408.834 211.392 409.35 211.39Z" fill="white"/>
<path d="M398.706 206.319L399.679 207.285C400.046 207.648 400.637 207.646 401.001 207.28L405.357 202.889C405.72 202.523 405.718 201.932 405.352 201.568L404.379 200.603C404.013 200.239 403.421 200.242 403.058 200.608L398.701 204.998C398.338 205.364 398.34 205.956 398.706 206.319Z" fill="white"/>
<path d="M394.765 195.209L394.771 196.58C394.773 197.096 395.192 197.512 395.708 197.51L401.893 197.486C402.409 197.484 402.826 197.065 402.824 196.549L402.818 195.178C402.816 194.662 402.397 194.245 401.881 194.247L395.696 194.271C395.18 194.273 394.763 194.693 394.765 195.209Z" fill="white"/>
<path d="M399.834 184.567L398.869 185.54C398.506 185.906 398.508 186.497 398.874 186.861L403.264 191.217C403.63 191.581 404.222 191.579 404.585 191.212L405.551 190.239C405.914 189.873 405.912 189.282 405.546 188.918L401.156 184.562C400.789 184.198 400.198 184.201 399.834 184.567Z" fill="white"/>
<path d="M410.945 180.623L409.575 180.628C409.059 180.63 408.642 181.05 408.644 181.566L408.668 187.751C408.67 188.266 409.09 188.683 409.605 188.681L410.976 188.676C411.492 188.674 411.909 188.254 411.907 187.738L411.883 181.553C411.881 181.037 411.461 180.621 410.945 180.623Z" fill="white"/>
</g>
<rect x="172.29" y="154.154" width="83.7037" height="83.7037" rx="12.3729" fill="white" fill-opacity="0.08"/>
<rect x="172.988" y="349.463" width="83.7037" height="83.7037" rx="12.3729" fill="white" fill-opacity="0.04"/>
<g opacity="0.2">
<path d="M230.221 392.109L230.216 390.739C230.214 390.223 229.794 389.806 229.278 389.808L223.093 389.832C222.577 389.834 222.16 390.254 222.162 390.77L222.168 392.14C222.17 392.656 222.589 393.073 223.105 393.071L229.29 393.047C229.806 393.045 230.223 392.625 230.221 392.109Z" fill="white"/>
<path d="M225.154 402.751L226.119 401.778C226.482 401.412 226.48 400.82 226.114 400.457L221.724 396.1C221.358 395.737 220.766 395.739 220.403 396.105L219.437 397.078C219.074 397.444 219.076 398.036 219.442 398.399L223.832 402.756C224.199 403.119 224.79 403.117 225.154 402.751Z" fill="white"/>
<path d="M214.043 406.699L215.413 406.694C215.929 406.692 216.346 406.272 216.344 405.756L216.32 399.571C216.318 399.055 215.898 398.639 215.383 398.641L214.012 398.646C213.496 398.648 213.079 399.068 213.081 399.584L213.105 405.768C213.107 406.284 213.527 406.701 214.043 406.699Z" fill="white"/>
<path d="M203.399 401.628L204.372 402.593C204.739 402.957 205.33 402.954 205.693 402.588L210.05 398.198C210.413 397.832 210.411 397.24 210.045 396.877L209.072 395.911C208.706 395.548 208.114 395.55 207.751 395.916L203.394 400.306C203.031 400.673 203.033 401.264 203.399 401.628Z" fill="white"/>
<path d="M199.458 390.517L199.463 391.888C199.465 392.404 199.885 392.821 200.401 392.819L206.586 392.795C207.102 392.793 207.518 392.373 207.516 391.857L207.511 390.486C207.509 389.971 207.089 389.554 206.573 389.556L200.389 389.58C199.873 389.582 199.456 390.001 199.458 390.517Z" fill="white"/>
<path d="M204.527 379.876L203.561 380.849C203.198 381.215 203.2 381.806 203.566 382.17L207.957 386.526C208.323 386.89 208.914 386.887 209.278 386.521L210.243 385.548C210.607 385.182 210.604 384.591 210.238 384.227L205.848 379.871C205.482 379.507 204.89 379.51 204.527 379.876Z" fill="white"/>
<path d="M215.638 375.932L214.267 375.937C213.751 375.939 213.335 376.359 213.337 376.875L213.36 383.059C213.362 383.575 213.782 383.992 214.298 383.99L215.669 383.985C216.185 383.983 216.601 383.563 216.599 383.047L216.576 376.862C216.574 376.346 216.154 375.93 215.638 375.932Z" fill="white"/>
</g>
<rect x="368.645" y="349.812" width="83.0062" height="83.0062" rx="12.0241" fill="#FBBE7E"/>
<rect x="368.645" y="349.812" width="83.0062" height="83.0062" rx="12.0241" stroke="black" stroke-width="0.697531"/>
<g opacity="0.3">
<path fill-rule="evenodd" clip-rule="evenodd" d="M400.656 375.928H419.233C419.939 375.928 420.512 376.502 420.512 377.209V378.042C420.512 378.75 419.939 379.323 419.233 379.323H400.656C399.95 379.323 399.377 378.75 399.377 378.042V377.209C399.377 376.502 399.95 375.928 400.656 375.928ZM400.656 403.307H419.233C419.939 403.307 420.512 403.88 420.512 404.588V405.42C420.512 406.128 419.939 406.702 419.233 406.702H400.656C399.95 406.702 399.377 406.128 399.377 405.42V404.588C399.377 403.88 399.95 403.307 400.656 403.307ZM419.715 380.612V381.867C419.715 386.368 416.64 390.184 412.49 391.313C416.64 392.441 419.715 396.257 419.715 400.758V402.013H400.176V400.758C400.176 396.257 403.25 392.441 407.4 391.313C403.25 390.184 400.176 386.368 400.176 381.867V380.612H419.715Z" fill="#000223"/>
</g>
<rect x="185.543" y="147.22" width="83.7037" height="83.7037" rx="13.9506" transform="rotate(-15 185.543 147.22)" fill="#FF6E75"/>
<path d="M249.294 171.261C247.35 164.008 239.898 159.705 232.649 161.647C225.401 163.589 221.099 171.042 223.042 178.295C223.666 180.623 224.458 181.676 224.458 181.676C225.687 183.294 226.729 183.915 226.637 185.027C226.584 185.661 226.523 185.843 226.501 186.921C226.499 186.989 226.502 187.45 226.629 187.923C227.169 189.937 229.24 191.133 231.253 190.594C231.415 190.55 231.841 190.452 232.29 190.143C233.295 189.447 233.196 188.843 233.911 188.405C233.995 188.354 234.075 188.314 234.152 188.283C234.227 188.278 234.366 188.279 234.501 188.346C234.709 188.448 234.819 188.666 234.883 188.867C234.993 189.278 235.106 189.686 235.216 190.097L235.225 190.094L235.752 192.06C235.836 192.377 236.162 192.565 236.479 192.48L238.049 192.059C238.366 191.974 238.554 191.649 238.469 191.332L237.943 189.367C238.154 189.311 238.366 189.254 238.578 189.197L239.103 191.16C239.188 191.477 239.514 191.665 239.831 191.58L241.401 191.159C241.718 191.074 241.906 190.749 241.821 190.432L241.295 188.47C241.506 188.414 241.719 188.357 241.93 188.3L242.456 190.262C242.541 190.579 242.866 190.767 243.183 190.682L244.753 190.261C245.07 190.176 245.258 189.851 245.173 189.534L244.354 186.478C244.346 186.431 244.336 186.379 244.33 186.334C244.294 186.099 244.274 185.884 244.4 185.692C244.478 185.572 244.586 185.505 244.674 185.463C244.755 185.451 244.843 185.446 244.941 185.448C245.779 185.47 245.996 186.044 247.214 186.142C247.756 186.186 248.174 186.058 248.337 186.015C250.35 185.475 251.546 183.403 251.006 181.39C250.879 180.915 250.652 180.516 250.616 180.458C250.057 179.536 249.912 179.408 249.552 178.886C248.917 177.97 249.508 176.91 249.763 174.894C249.763 174.894 249.922 173.586 249.299 171.258L249.294 171.261ZM238.086 181.924C238.996 181.68 240.372 183.832 240.127 184.448C240.113 184.482 240.088 184.512 240.082 184.523C239.854 184.844 239.514 184.802 238.881 184.974C238.272 185.137 238.002 185.333 237.654 185.173C237.646 185.169 237.603 185.153 237.577 185.133C237.058 184.723 237.173 182.17 238.083 181.926L238.086 181.924ZM229.228 181.819C229.136 181.633 228.686 180.716 229.072 179.83C229.415 179.046 230.27 178.82 231.672 178.427C233.064 178.037 233.861 177.813 234.556 178.268C235.398 178.819 235.47 179.965 235.484 180.143C235.572 181.504 234.648 183.107 233.041 183.538C231.435 183.968 229.841 183.064 229.228 181.819ZM245.7 177.406C245.788 178.767 244.864 180.37 243.257 180.8C241.65 181.231 240.057 180.327 239.444 179.082C239.352 178.896 238.902 177.979 239.288 177.093C239.631 176.309 240.486 176.083 241.888 175.69C243.28 175.3 244.077 175.076 244.772 175.531C245.614 176.082 245.686 177.227 245.7 177.406Z" fill="white"/>
<path d="M23.0264 92.2031V105.07H20.6911V94.9263L17.5978 95.9486V94.0626L22.7621 92.2031H23.0264ZM34.7707 103.237V105.07H26.0813V103.501L30.2498 98.9978C30.6845 98.5043 31.0282 98.0754 31.2809 97.7111C31.5335 97.3469 31.7127 97.0179 31.8184 96.7241C31.9301 96.4245 31.9859 96.1395 31.9859 95.8693C31.9859 95.4756 31.9154 95.1319 31.7744 94.8382C31.6334 94.5385 31.4277 94.3065 31.1575 94.142C30.8931 93.9774 30.567 93.8952 30.1793 93.8952C29.7504 93.8952 29.3832 93.9951 29.0777 94.1948C28.778 94.3887 28.5489 94.659 28.3903 95.0056C28.2375 95.3522 28.1611 95.7488 28.1611 96.1953H25.8257C25.8257 95.4374 26.002 94.7471 26.3545 94.1243C26.707 93.4957 27.2123 92.9934 27.8703 92.6173C28.5283 92.2413 29.3097 92.0533 30.2145 92.0533C31.0958 92.0533 31.8419 92.2002 32.453 92.494C33.064 92.7818 33.5281 93.1931 33.8454 93.7278C34.1626 94.2624 34.3213 94.8999 34.3213 95.6401C34.3213 96.0514 34.2537 96.4568 34.1186 96.8563C33.9835 97.2558 33.7925 97.6524 33.5458 98.046C33.3049 98.4338 33.017 98.8274 32.6821 99.2269C32.3472 99.6265 31.9741 100.035 31.5629 100.452L29.06 103.237H34.7707ZM43.5948 100.39H40.29V98.4867H43.5948C44.1353 98.4867 44.573 98.3985 44.9079 98.2223C45.2487 98.0401 45.4984 97.7934 45.657 97.482C45.8156 97.1647 45.895 96.8034 45.895 96.398C45.895 96.0044 45.8156 95.6372 45.657 95.2964C45.4984 94.9557 45.2487 94.6795 44.9079 94.468C44.573 94.2565 44.1353 94.1508 43.5948 94.1508H41.0832V105.07H38.6596V92.2384H43.5948C44.5936 92.2384 45.4455 92.4176 46.1505 92.776C46.8614 93.1285 47.4019 93.6191 47.7721 94.2477C48.1481 94.8705 48.3361 95.5814 48.3361 96.3804C48.3361 97.2088 48.1481 97.9226 47.7721 98.5219C47.4019 99.1212 46.8614 99.5824 46.1505 99.9055C45.4455 100.229 44.5936 100.39 43.5948 100.39ZM50.0338 92.2384H52.1312L55.6387 101.897L59.1374 92.2384H61.2437L56.476 105.07H54.7927L50.0338 92.2384ZM48.9763 92.2384H51.0296L51.3998 101.113V105.07H48.9763V92.2384ZM60.239 92.2384H62.3012V105.07H59.8777V101.113L60.239 92.2384Z" fill="white" fill-opacity="0.4"/>
<path d="M23.0264 189.858V202.724H20.6911V192.581L17.5978 193.603V191.717L22.7621 189.858H23.0264ZM34.9911 198.045V199.878H25.7464L25.6495 198.468L31.087 189.893H32.9465L30.9372 193.303L28.0201 198.045H34.9911ZM33.4664 189.893V202.724H31.131V189.893H33.4664ZM43.5948 198.045H40.29V196.141H43.5948C44.1353 196.141 44.573 196.053 44.9079 195.877C45.2487 195.695 45.4984 195.448 45.657 195.137C45.8156 194.819 45.895 194.458 45.895 194.053C45.895 193.659 45.8156 193.292 45.657 192.951C45.4984 192.61 45.2487 192.334 44.9079 192.123C44.573 191.911 44.1353 191.805 43.5948 191.805H41.0832V202.724H38.6596V189.893H43.5948C44.5936 189.893 45.4455 190.072 46.1505 190.431C46.8614 190.783 47.4019 191.274 47.7721 191.902C48.1481 192.525 48.3361 193.236 48.3361 194.035C48.3361 194.863 48.1481 195.577 47.7721 196.176C47.4019 196.776 46.8614 197.237 46.1505 197.56C45.4455 197.883 44.5936 198.045 43.5948 198.045ZM50.0338 189.893H52.1312L55.6387 199.552L59.1374 189.893H61.2437L56.476 202.724H54.7927L50.0338 189.893ZM48.9763 189.893H51.0296L51.3998 198.767V202.724H48.9763V189.893ZM60.239 189.893H62.3012V202.724H59.8777V198.767L60.239 189.893Z" fill="white" fill-opacity="0.4"/>
<path d="M23.0264 287.512V300.378H20.6911V290.235L17.5978 291.257V289.371L22.7621 287.512H23.0264ZM28.3903 294.474L26.5308 294.024L27.2446 287.547H34.3037V289.477H29.1746L28.8397 292.473C29.0219 292.362 29.2862 292.25 29.6329 292.138C29.9854 292.021 30.382 291.962 30.8226 291.962C31.4336 291.962 31.98 292.062 32.4618 292.262C32.9435 292.456 33.3519 292.738 33.6868 293.108C34.0275 293.478 34.2831 293.93 34.4535 294.465C34.6297 294.994 34.7179 295.593 34.7179 296.263C34.7179 296.85 34.6297 297.403 34.4535 297.92C34.2831 298.431 34.0216 298.886 33.6691 299.286C33.3166 299.679 32.873 299.991 32.3384 300.22C31.8038 300.443 31.1751 300.555 30.4525 300.555C29.9061 300.555 29.3802 300.475 28.875 300.317C28.3756 300.152 27.9261 299.914 27.5266 299.603C27.1271 299.286 26.8069 298.898 26.566 298.44C26.331 297.981 26.2018 297.456 26.1783 296.862H28.4784C28.5195 297.256 28.6253 297.591 28.7957 297.867C28.966 298.143 29.1893 298.354 29.4654 298.501C29.7474 298.648 30.0735 298.722 30.4436 298.722C30.7785 298.722 31.0664 298.66 31.3073 298.537C31.5541 298.407 31.7568 298.228 31.9154 297.999C32.074 297.77 32.1915 297.5 32.2679 297.188C32.3443 296.877 32.3825 296.536 32.3825 296.166C32.3825 295.808 32.3384 295.481 32.2503 295.188C32.1621 294.888 32.027 294.63 31.8449 294.412C31.6628 294.195 31.4336 294.027 31.1575 293.91C30.8872 293.792 30.57 293.734 30.2057 293.734C29.7181 293.734 29.342 293.807 29.0777 293.954C28.8192 294.101 28.59 294.274 28.3903 294.474ZM43.5948 295.699H40.29V293.795H43.5948C44.1353 293.795 44.573 293.707 44.9079 293.531C45.2487 293.349 45.4984 293.102 45.657 292.791C45.8156 292.473 45.895 292.112 45.895 291.707C45.895 291.313 45.8156 290.946 45.657 290.605C45.4984 290.264 45.2487 289.988 44.9079 289.777C44.573 289.565 44.1353 289.459 43.5948 289.459H41.0832V300.378H38.6596V287.547H43.5948C44.5936 287.547 45.4455 287.726 46.1505 288.085C46.8614 288.437 47.4019 288.928 47.7721 289.556C48.1481 290.179 48.3361 290.89 48.3361 291.689C48.3361 292.517 48.1481 293.231 47.7721 293.831C47.4019 294.43 46.8614 294.891 46.1505 295.214C45.4455 295.537 44.5936 295.699 43.5948 295.699ZM50.0338 287.547H52.1312L55.6387 297.206L59.1374 287.547H61.2437L56.476 300.378H54.7927L50.0338 287.547ZM48.9763 287.547H51.0296L51.3998 296.421V300.378H48.9763V287.547ZM60.239 287.547H62.3012V300.378H59.8777V296.421L60.239 287.547Z" fill="white" fill-opacity="0.4"/>
<path d="M21.5264 385.166V398.033H19.1911V387.889L16.0978 388.911V387.026L21.2621 385.166H21.5264ZM31.0587 385.096H31.376V386.973H31.2262C30.5153 386.973 29.8896 387.081 29.349 387.299C28.8144 387.516 28.3679 387.822 28.0095 388.215C27.657 388.603 27.3897 389.064 27.2075 389.599C27.0254 390.128 26.9343 390.706 26.9343 391.335V393.415C26.9343 393.902 26.9843 394.331 27.0841 394.701C27.1899 395.066 27.3338 395.374 27.516 395.627C27.704 395.874 27.9214 396.059 28.1681 396.182C28.4208 396.305 28.6969 396.367 28.9965 396.367C29.2962 396.367 29.5664 396.305 29.8073 396.182C30.0482 396.059 30.2538 395.885 30.4242 395.662C30.6005 395.433 30.7326 395.166 30.8208 394.86C30.9148 394.555 30.9618 394.22 30.9618 393.855C30.9618 393.497 30.9177 393.165 30.8296 392.86C30.7415 392.554 30.6122 392.287 30.4418 392.058C30.2714 391.823 30.0599 391.643 29.8073 391.52C29.5605 391.391 29.2785 391.326 28.9613 391.326C28.55 391.326 28.1828 391.423 27.8597 391.617C27.5365 391.805 27.281 392.052 27.093 392.357C26.905 392.663 26.8021 392.986 26.7845 393.327L26.0002 392.939C26.0295 392.44 26.1353 391.981 26.3174 391.564C26.5054 391.147 26.7551 390.783 27.0665 390.471C27.3838 390.16 27.7569 389.919 28.1857 389.749C28.6205 389.578 29.1023 389.493 29.631 389.493C30.2421 389.493 30.7767 389.611 31.235 389.846C31.6932 390.075 32.0722 390.389 32.3718 390.789C32.6773 391.188 32.9065 391.649 33.0592 392.172C33.212 392.689 33.2884 393.236 33.2884 393.811C33.2884 394.428 33.1885 395.004 32.9887 395.539C32.7948 396.073 32.5128 396.54 32.1427 396.94C31.7726 397.339 31.326 397.651 30.8031 397.874C30.2803 398.097 29.6927 398.209 29.0406 398.209C28.3532 398.209 27.7363 398.08 27.1899 397.821C26.6494 397.563 26.1852 397.204 25.7975 396.746C25.4097 396.288 25.113 395.753 24.9074 395.142C24.7018 394.531 24.5989 393.87 24.5989 393.159V392.225C24.5989 391.22 24.737 390.286 25.0131 389.423C25.2893 388.559 25.6976 387.804 26.2381 387.158C26.7845 386.506 27.4602 386 28.2651 385.642C29.07 385.278 30.0012 385.096 31.0587 385.096ZM45.3259 393.353H42.0211V391.45H45.3259C45.8665 391.45 46.3042 391.361 46.639 391.185C46.9798 391.003 47.2295 390.756 47.3881 390.445C47.5468 390.128 47.6261 389.766 47.6261 389.361C47.6261 388.967 47.5468 388.6 47.3881 388.259C47.2295 387.919 46.9798 387.642 46.639 387.431C46.3042 387.219 45.8665 387.114 45.3259 387.114H42.8143V398.033H40.3908V385.201H45.3259C46.3247 385.201 47.1766 385.38 47.8816 385.739C48.5925 386.091 49.1331 386.582 49.5032 387.211C49.8792 387.833 50.0672 388.544 50.0672 389.343C50.0672 390.172 49.8792 390.886 49.5032 391.485C49.1331 392.084 48.5925 392.545 47.8816 392.868C47.1766 393.192 46.3247 393.353 45.3259 393.353ZM51.7649 385.201H53.8624L57.3699 394.86L60.8685 385.201H62.9748L58.2071 398.033H56.5238L51.7649 385.201ZM50.7074 385.201H52.7608L53.1309 394.076V398.033H50.7074V385.201ZM61.9701 385.201H64.0323V398.033H61.6088V394.076L61.9701 385.201Z" fill="white" fill-opacity="0.4"/>
<defs>
<linearGradient id="paint0_linear_718_11853" x1="214.839" y1="52.3147" x2="214.839" y2="410.846" gradientUnits="userSpaceOnUse">
<stop stop-color="#FF6E75" stop-opacity="0"/>
<stop offset="0.280661" stop-color="#FF6E75"/>
<stop offset="1" stop-color="#FF6E75" stop-opacity="0"/>
</linearGradient>
<linearGradient id="paint1_linear_718_11853" x1="84.4011" y1="287.383" x2="84.4011" y2="582.089" gradientUnits="userSpaceOnUse">
<stop stop-color="#FF6E75" stop-opacity="0"/>
<stop offset="0.51497" stop-color="#FF6E75"/>
<stop offset="1" stop-color="#FF6E75" stop-opacity="0"/>
</linearGradient>
<linearGradient id="paint2_linear_718_11853" x1="214.84" y1="-0.000244141" x2="214.84" y2="41.8516" gradientUnits="userSpaceOnUse">
<stop stop-color="#FBBE7E"/>
<stop offset="1" stop-color="#FF6E75"/>
</linearGradient>
<linearGradient id="paint3_linear_718_11853" x1="0" y1="147.679" x2="475.367" y2="147.436" gradientUnits="userSpaceOnUse">
<stop offset="0.045" stop-color="white" stop-opacity="0"/>
<stop offset="0.385" stop-color="white"/>
<stop offset="1" stop-color="white" stop-opacity="0"/>
</linearGradient>
<linearGradient id="paint4_linear_718_11853" x1="166.512" y1="440.142" x2="166.33" y2="29.3305" gradientUnits="userSpaceOnUse">
<stop offset="0.045" stop-color="white" stop-opacity="0"/>
<stop offset="0.5" stop-color="white"/>
<stop offset="1" stop-color="white" stop-opacity="0"/>
</linearGradient>
<linearGradient id="paint5_linear_718_11853" x1="264.167" y1="440.142" x2="263.985" y2="29.3305" gradientUnits="userSpaceOnUse">
<stop offset="0.045" stop-color="white" stop-opacity="0"/>
<stop offset="0.5" stop-color="white"/>
<stop offset="1" stop-color="white" stop-opacity="0"/>
</linearGradient>
<linearGradient id="paint6_linear_718_11853" x1="361.821" y1="440.142" x2="361.64" y2="29.3305" gradientUnits="userSpaceOnUse">
<stop offset="0.045" stop-color="white" stop-opacity="0"/>
<stop offset="0.5" stop-color="white"/>
<stop offset="1" stop-color="white" stop-opacity="0"/>
</linearGradient>
<linearGradient id="paint7_linear_718_11853" x1="0" y1="245.333" x2="475.367" y2="245.09" gradientUnits="userSpaceOnUse">
<stop offset="0.045" stop-color="white" stop-opacity="0"/>
<stop offset="0.385" stop-color="white"/>
<stop offset="1" stop-color="white" stop-opacity="0"/>
</linearGradient>
<linearGradient id="paint8_linear_718_11853" x1="0" y1="342.987" x2="475.367" y2="342.744" gradientUnits="userSpaceOnUse">
<stop offset="0.045" stop-color="white" stop-opacity="0"/>
<stop offset="0.385" stop-color="white"/>
<stop offset="1" stop-color="white" stop-opacity="0"/>
</linearGradient>
<linearGradient id="paint9_linear_718_11853" x1="0" y1="440.642" x2="452" y2="440.642" gradientUnits="userSpaceOnUse">
<stop offset="0.045" stop-color="white" stop-opacity="0"/>
<stop offset="0.5" stop-color="white"/>
<stop offset="1" stop-color="#999999"/>
</linearGradient>
</defs>
</svg>
