<svg width="534" height="442" viewBox="0 0 534 442" fill="none" xmlns="http://www.w3.org/2000/svg">
<rect x="485.249" y="57.6082" width="48.2456" height="48.2456" rx="24.1228" fill="#FF6E75"/>
<g filter="url(#filter0_b_718_12335)">
<g clip-path="url(#clip0_718_12335)">
<rect x="389.4" y="1" width="129.942" height="129.942" rx="15.1095" fill="#141634"/>
<rect x="389.4" y="1" width="129.942" height="129.942" rx="15.1095" fill="url(#paint0_radial_718_12335)"/>
<rect opacity="0.3" x="424.182" y="78.0583" width="60.4379" height="6.04379" rx="2.0146" fill="white"/>
<rect opacity="0.3" x="412.598" y="89.1387" width="83.6058" height="6.04379" rx="2.0146" fill="white"/>
<path d="M429.211 63.4475C429.211 63.8702 429.109 64.2666 428.905 64.6365C428.709 65.0064 428.395 65.3047 427.965 65.5311C427.542 65.7576 427.006 65.8709 426.357 65.8709H425.032V68.9058H423.447V61.0014H426.357C426.969 61.0014 427.489 61.1071 427.92 61.3185C428.35 61.5299 428.671 61.8206 428.882 62.1905C429.101 62.5604 429.211 62.9794 429.211 63.4475ZM426.289 64.5912C426.727 64.5912 427.052 64.4931 427.263 64.2968C427.474 64.093 427.58 63.8099 427.58 63.4475C427.58 62.6774 427.15 62.2924 426.289 62.2924H425.032V64.5912H426.289ZM432.148 63.606C432.352 63.2738 432.616 63.0134 432.941 62.8246C433.273 62.6359 433.651 62.5415 434.073 62.5415V64.2062H433.654C433.156 64.2062 432.779 64.3232 432.522 64.5573C432.273 64.7913 432.148 65.199 432.148 65.7803V68.9058H430.563V62.6321H432.148V63.606ZM438.153 69.0077C437.55 69.0077 437.006 68.8756 436.523 68.6113C436.04 68.3395 435.658 67.9583 435.379 67.4676C435.107 66.9769 434.971 66.4107 434.971 65.7689C434.971 65.1272 435.111 64.561 435.39 64.0703C435.677 63.5796 436.066 63.2021 436.557 62.9379C437.047 62.6661 437.595 62.5302 438.199 62.5302C438.803 62.5302 439.35 62.6661 439.841 62.9379C440.332 63.2021 440.717 63.5796 440.996 64.0703C441.283 64.561 441.426 65.1272 441.426 65.7689C441.426 66.4107 441.279 66.9769 440.985 67.4676C440.698 67.9583 440.305 68.3395 439.807 68.6113C439.316 68.8756 438.765 69.0077 438.153 69.0077ZM438.153 67.6261C438.44 67.6261 438.708 67.5582 438.957 67.4223C439.214 67.2788 439.418 67.0675 439.569 66.7881C439.72 66.5088 439.795 66.1691 439.795 65.7689C439.795 65.1725 439.637 64.7158 439.32 64.3987C439.01 64.0741 438.629 63.9118 438.176 63.9118C437.723 63.9118 437.342 64.0741 437.032 64.3987C436.73 64.7158 436.579 65.1725 436.579 65.7689C436.579 66.3654 436.727 66.8259 437.021 67.1505C437.323 67.4676 437.701 67.6261 438.153 67.6261ZM447.64 64.1949V65.5311H442.838V64.1949H447.64ZM455.408 63.4475C455.408 63.8702 455.306 64.2666 455.103 64.6365C454.906 65.0064 454.593 65.3047 454.163 65.5311C453.74 65.7576 453.204 65.8709 452.555 65.8709H451.23V68.9058H449.644V61.0014H452.555C453.166 61.0014 453.687 61.1071 454.117 61.3185C454.548 61.5299 454.868 61.8206 455.08 62.1905C455.299 62.5604 455.408 62.9794 455.408 63.4475ZM452.487 64.5912C452.924 64.5912 453.249 64.4931 453.46 64.2968C453.672 64.093 453.778 63.8099 453.778 63.4475C453.778 62.6774 453.347 62.2924 452.487 62.2924H451.23V64.5912H452.487ZM458.346 60.5258V68.9058H456.76V60.5258H458.346ZM459.731 65.7463C459.731 65.1121 459.856 64.5497 460.105 64.059C460.361 63.5683 460.705 63.1908 461.135 62.9266C461.573 62.6623 462.06 62.5302 462.596 62.5302C463.064 62.5302 463.472 62.6246 463.819 62.8133C464.174 63.0021 464.457 63.2399 464.668 63.5267V62.6321H466.265V68.9058H464.668V67.9885C464.464 68.2829 464.181 68.5283 463.819 68.7246C463.464 68.9133 463.053 69.0077 462.585 69.0077C462.056 69.0077 461.573 68.8718 461.135 68.6C460.705 68.3282 460.361 67.947 460.105 67.4563C459.856 66.958 459.731 66.388 459.731 65.7463ZM464.668 65.7689C464.668 65.3839 464.593 65.0555 464.442 64.7837C464.291 64.5044 464.087 64.293 463.83 64.1496C463.574 63.9986 463.298 63.9231 463.004 63.9231C462.709 63.9231 462.437 63.9948 462.188 64.1383C461.939 64.2817 461.735 64.4931 461.577 64.7724C461.426 65.0442 461.35 65.3688 461.35 65.7463C461.35 66.1238 461.426 66.4559 461.577 66.7428C461.735 67.0222 461.939 67.2373 462.188 67.3883C462.445 67.5393 462.717 67.6148 463.004 67.6148C463.298 67.6148 463.574 67.5431 463.83 67.3996C464.087 67.2486 464.291 67.0373 464.442 66.7655C464.593 66.4861 464.668 66.154 464.668 65.7689ZM474.042 62.6321L470.158 71.8727H468.47L469.829 68.7472L467.315 62.6321H469.093L470.712 67.0146L472.354 62.6321H474.042ZM480.955 65.6331C480.955 65.8595 480.94 66.0634 480.91 66.2446H476.323C476.361 66.6975 476.52 67.0524 476.799 67.309C477.078 67.5657 477.422 67.6941 477.829 67.6941C478.418 67.6941 478.837 67.4412 479.086 66.9353H480.796C480.615 67.5393 480.268 68.0376 479.754 68.4301C479.241 68.8152 478.611 69.0077 477.863 69.0077C477.259 69.0077 476.716 68.8756 476.233 68.6113C475.757 68.3395 475.383 67.9583 475.112 67.4676C474.847 66.9769 474.715 66.4107 474.715 65.7689C474.715 65.1197 474.847 64.5497 475.112 64.059C475.376 63.5683 475.746 63.1908 476.221 62.9266C476.697 62.6623 477.244 62.5302 477.863 62.5302C478.46 62.5302 478.992 62.6586 479.46 62.9152C479.936 63.1719 480.302 63.5381 480.559 64.0137C480.823 64.4818 480.955 65.0215 480.955 65.6331ZM479.313 65.1801C479.305 64.7724 479.158 64.4478 478.871 64.2062C478.584 63.9571 478.233 63.8325 477.818 63.8325C477.425 63.8325 477.093 63.9533 476.822 64.1949C476.557 64.4289 476.395 64.7573 476.335 65.1801H479.313ZM483.924 63.606C484.128 63.2738 484.392 63.0134 484.717 62.8246C485.049 62.6359 485.426 62.5415 485.849 62.5415V64.2062H485.43C484.932 64.2062 484.554 64.3232 484.298 64.5573C484.049 64.7913 483.924 65.199 483.924 65.7803V68.9058H482.339V62.6321H483.924V63.606Z" fill="white"/>
<rect opacity="0.2" x="422.641" y="103.641" width="63.5395" height="15.8849" rx="4.02919" fill="white"/>
<path d="M432.376 107.98L433.287 109.865C433.339 109.975 433.442 110.048 433.56 110.067L435.598 110.37C435.896 110.413 436.013 110.788 435.801 111L434.325 112.466C434.24 112.553 434.202 112.673 434.221 112.793L434.57 114.865C434.622 115.168 434.31 115.399 434.041 115.255L432.216 114.279C432.112 114.221 431.985 114.221 431.876 114.279L430.05 115.255C429.786 115.399 429.475 115.168 429.522 114.865L429.871 112.793C429.89 112.673 429.852 112.553 429.767 112.466L428.291 111C428.074 110.783 428.196 110.413 428.494 110.37L430.532 110.067C430.65 110.048 430.753 109.975 430.805 109.865L431.716 107.98C431.848 107.706 432.235 107.706 432.367 107.98H432.376Z" fill="white"/>
<path d="M443.63 107.98L444.541 109.865C444.592 109.975 444.696 110.048 444.814 110.067L446.852 110.37C447.149 110.413 447.267 110.788 447.055 111L445.578 112.466C445.494 112.553 445.456 112.673 445.475 112.793L445.824 114.865C445.876 115.168 445.564 115.399 445.295 115.255L443.47 114.279C443.366 114.221 443.239 114.221 443.13 114.279L441.304 115.255C441.04 115.399 440.729 115.168 440.776 114.865L441.125 112.793C441.144 112.673 441.106 112.553 441.021 112.466L439.545 111C439.328 110.783 439.45 110.413 439.748 110.37L441.786 110.067C441.903 110.048 442.007 109.975 442.059 109.865L442.97 107.98C443.102 107.706 443.489 107.706 443.621 107.98H443.63Z" fill="white"/>
<path d="M454.884 107.98L455.794 109.865C455.846 109.975 455.95 110.048 456.068 110.067L458.106 110.37C458.403 110.413 458.521 110.788 458.309 111L456.832 112.466C456.747 112.553 456.71 112.673 456.729 112.793L457.078 114.865C457.13 115.168 456.818 115.399 456.549 115.255L454.724 114.279C454.62 114.221 454.492 114.221 454.384 114.279L452.558 115.255C452.294 115.399 451.983 115.168 452.03 114.865L452.379 112.793C452.398 112.673 452.36 112.553 452.275 112.466L450.799 111C450.582 110.783 450.704 110.413 451.001 110.37L453.039 110.067C453.157 110.048 453.261 109.975 453.313 109.865L454.224 107.98C454.356 107.706 454.742 107.706 454.875 107.98H454.884Z" fill="white"/>
<path d="M466.138 107.98L467.048 109.865C467.1 109.975 467.204 110.048 467.322 110.067L469.36 110.37C469.657 110.413 469.775 110.788 469.563 111L468.086 112.466C468.001 112.553 467.964 112.673 467.982 112.793L468.332 114.865C468.383 115.168 468.072 115.399 467.803 115.255L465.978 114.279C465.874 114.221 465.746 114.221 465.638 114.279L463.812 115.255C463.548 115.399 463.237 115.168 463.284 114.865L463.633 112.793C463.652 112.673 463.614 112.553 463.529 112.466L462.052 111C461.835 110.783 461.958 110.413 462.255 110.37L464.293 110.067C464.411 110.048 464.515 109.975 464.567 109.865L465.477 107.98C465.61 107.706 465.996 107.706 466.128 107.98H466.138Z" fill="white"/>
<path d="M477.392 107.98L478.302 109.865C478.354 109.975 478.458 110.048 478.576 110.067L480.614 110.37C480.911 110.413 481.029 110.788 480.817 111L479.34 112.466C479.255 112.553 479.218 112.673 479.236 112.793L479.585 114.865C479.637 115.168 479.326 115.399 479.057 115.255L477.231 114.279C477.128 114.221 477 114.221 476.892 114.279L475.066 115.255C474.802 115.399 474.491 115.168 474.538 114.865L474.887 112.793C474.906 112.673 474.868 112.553 474.783 112.466L473.306 111C473.089 110.783 473.212 110.413 473.509 110.37L475.547 110.067C475.665 110.048 475.769 109.975 475.821 109.865L476.731 107.98C476.863 107.706 477.25 107.706 477.382 107.98H477.392Z" fill="white"/>
<rect x="436.776" y="15.054" width="35.4355" height="35.4355" rx="17.7177" fill="url(#paint1_linear_718_12335)"/>
<path d="M447.977 30.2738C446.248 28.9699 445.354 26.8858 445.208 25.139C445.187 24.8621 444.944 24.701 444.702 24.701C444.524 24.701 444.347 24.7866 444.25 24.9679C442.488 28.2853 443.189 32.8462 445.181 34.6685C445.65 33.3496 446.415 32.0357 447.411 30.8879C447.594 30.6765 447.783 30.4751 447.977 30.2788V30.2738ZM464.555 24.9679C464.458 24.7866 464.281 24.701 464.103 24.701C463.855 24.701 463.618 24.8571 463.591 25.139C463.446 26.8858 462.552 28.975 460.823 30.2788C461.017 30.4751 461.205 30.6765 461.388 30.8879C462.385 32.0357 463.15 33.3496 463.618 34.6685C465.611 32.8462 466.311 28.2903 464.555 24.9679ZM457.322 29.3022V36.2995H462.697C462.18 33.6164 460.096 30.6211 457.322 29.3022ZM451.483 36.2995V29.3022C448.709 30.6161 446.63 33.6114 446.108 36.2995H451.483ZM462.896 37.543H445.909C445.602 37.543 445.354 37.7745 445.354 38.0615V40.3419C445.354 40.6288 445.602 40.8604 445.909 40.8604H462.891C463.198 40.8604 463.446 40.6288 463.446 40.3419V38.0615C463.446 37.7745 463.198 37.543 462.891 37.543H462.896ZM455.991 28.8189C455.48 28.688 454.947 28.6176 454.403 28.6176C453.859 28.6176 453.331 28.688 452.814 28.8189V36.2945H455.986V28.8189H455.991Z" fill="white"/>
<circle opacity="0.3" cx="454.494" cy="32.7702" r="20.7725" stroke="white" stroke-width="1.83287"/>
</g>
<rect x="389.4" y="1" width="129.942" height="129.942" rx="15.1095" stroke="#FF6E75" stroke-width="1.28655"/>
</g>
<path d="M265.892 65.9707L389.4 65.9707" stroke="#FF6E75" stroke-width="1.28655" stroke-miterlimit="10" stroke-linecap="square"/>
<path d="M265.892 224.216L389.4 224.216" stroke="#FBBE7E" stroke-width="1.28655" stroke-miterlimit="10" stroke-linecap="square"/>
<path d="M265.892 376.029L388.757 376.029" stroke="white" stroke-opacity="0.4" stroke-width="1.28655" stroke-miterlimit="10" stroke-linecap="square" stroke-dasharray="7.08 7.08"/>
<rect x="390.044" y="356.088" width="130.175" height="41.0117" rx="9.00585" fill="url(#paint2_linear_718_12335)"/>
<path d="M422.851 371.317V373.062H418.359V375.825H421.801V377.539H418.359V382.094H416.197V371.317H422.851ZM425.789 372.522C425.408 372.522 425.089 372.403 424.831 372.167C424.584 371.92 424.461 371.616 424.461 371.256C424.461 370.895 424.584 370.597 424.831 370.36C425.089 370.113 425.408 369.99 425.789 369.99C426.17 369.99 426.483 370.113 426.73 370.36C426.988 370.597 427.116 370.895 427.116 371.256C427.116 371.616 426.988 371.92 426.73 372.167C426.483 372.403 426.17 372.522 425.789 372.522ZM426.854 373.541V382.094H424.693V373.541H426.854ZM434.038 373.417C435.057 373.417 435.88 373.741 436.508 374.39C437.136 375.028 437.45 375.923 437.45 377.076V382.094H435.288V377.369C435.288 376.69 435.119 376.17 434.779 375.81C434.439 375.44 433.976 375.254 433.389 375.254C432.792 375.254 432.319 375.44 431.969 375.81C431.629 376.17 431.46 376.69 431.46 377.369V382.094H429.298V373.541H431.46V374.606C431.748 374.235 432.113 373.947 432.556 373.741C433.009 373.525 433.503 373.417 434.038 373.417ZM439.258 377.786C439.258 376.922 439.428 376.155 439.768 375.486C440.118 374.817 440.591 374.302 441.188 373.942C441.785 373.582 442.449 373.402 443.18 373.402C443.735 373.402 444.265 373.525 444.77 373.772C445.274 374.009 445.675 374.328 445.974 374.729V370.669H448.166V382.094H445.974V380.828C445.706 381.25 445.331 381.589 444.847 381.847C444.363 382.104 443.802 382.233 443.164 382.233C442.444 382.233 441.785 382.047 441.188 381.677C440.591 381.306 440.118 380.786 439.768 380.117C439.428 379.438 439.258 378.661 439.258 377.786ZM445.989 377.817C445.989 377.292 445.886 376.844 445.681 376.474C445.475 376.093 445.197 375.805 444.847 375.609C444.497 375.404 444.121 375.301 443.72 375.301C443.318 375.301 442.948 375.398 442.608 375.594C442.269 375.789 441.991 376.078 441.775 376.458C441.569 376.829 441.466 377.272 441.466 377.786C441.466 378.301 441.569 378.754 441.775 379.145C441.991 379.526 442.269 379.819 442.608 380.025C442.958 380.231 443.329 380.334 443.72 380.334C444.121 380.334 444.497 380.236 444.847 380.04C445.197 379.834 445.475 379.546 445.681 379.176C445.886 378.795 445.989 378.342 445.989 377.817ZM454.018 377.786C454.018 376.922 454.188 376.155 454.527 375.486C454.877 374.817 455.345 374.302 455.932 373.942C456.529 373.582 457.193 373.402 457.924 373.402C458.562 373.402 459.118 373.53 459.591 373.788C460.075 374.045 460.461 374.369 460.749 374.76V373.541H462.926V382.094H460.749V380.843C460.471 381.244 460.085 381.579 459.591 381.847C459.107 382.104 458.546 382.233 457.908 382.233C457.188 382.233 456.529 382.047 455.932 381.677C455.345 381.306 454.877 380.786 454.527 380.117C454.188 379.438 454.018 378.661 454.018 377.786ZM460.749 377.817C460.749 377.292 460.646 376.844 460.44 376.474C460.234 376.093 459.956 375.805 459.606 375.609C459.257 375.404 458.881 375.301 458.479 375.301C458.078 375.301 457.708 375.398 457.368 375.594C457.028 375.789 456.75 376.078 456.534 376.458C456.328 376.829 456.225 377.272 456.225 377.786C456.225 378.301 456.328 378.754 456.534 379.145C456.75 379.526 457.028 379.819 457.368 380.025C457.718 380.231 458.088 380.334 458.479 380.334C458.881 380.334 459.257 380.236 459.606 380.04C459.956 379.834 460.234 379.546 460.44 379.176C460.646 378.795 460.749 378.342 460.749 377.817ZM477.191 374.652C477.191 375.229 477.052 375.769 476.774 376.273C476.507 376.778 476.08 377.184 475.493 377.493C474.917 377.802 474.186 377.956 473.301 377.956H471.494V382.094H469.333V371.317H473.301C474.134 371.317 474.845 371.462 475.431 371.75C476.018 372.038 476.455 372.434 476.744 372.938C477.042 373.443 477.191 374.014 477.191 374.652ZM473.208 376.211C473.805 376.211 474.248 376.078 474.536 375.81C474.824 375.532 474.968 375.146 474.968 374.652C474.968 373.602 474.381 373.077 473.208 373.077H471.494V376.211H473.208ZM481.196 374.868C481.474 374.415 481.834 374.06 482.277 373.803C482.73 373.546 483.244 373.417 483.821 373.417V375.687H483.249C482.57 375.687 482.055 375.846 481.705 376.165C481.366 376.484 481.196 377.04 481.196 377.833V382.094H479.035V373.541H481.196V374.868ZM489.383 382.233C488.56 382.233 487.819 382.052 487.16 381.692C486.501 381.322 485.981 380.802 485.601 380.133C485.23 379.464 485.045 378.692 485.045 377.817C485.045 376.942 485.235 376.17 485.616 375.501C486.007 374.832 486.537 374.318 487.206 373.957C487.875 373.587 488.621 373.402 489.445 373.402C490.268 373.402 491.014 373.587 491.683 373.957C492.352 374.318 492.877 374.832 493.258 375.501C493.649 376.17 493.845 376.942 493.845 377.817C493.845 378.692 493.644 379.464 493.243 380.133C492.852 380.802 492.316 381.322 491.637 381.692C490.968 382.052 490.217 382.233 489.383 382.233ZM489.383 380.349C489.774 380.349 490.14 380.256 490.479 380.071C490.829 379.876 491.107 379.587 491.313 379.207C491.519 378.826 491.622 378.363 491.622 377.817C491.622 377.004 491.405 376.381 490.973 375.949C490.551 375.506 490.031 375.285 489.414 375.285C488.796 375.285 488.277 375.506 487.855 375.949C487.443 376.381 487.237 377.004 487.237 377.817C487.237 378.63 487.438 379.258 487.839 379.701C488.251 380.133 488.765 380.349 489.383 380.349Z" fill="white"/>
<g opacity="0.6">
<g clip-path="url(#clip1_718_12335)">
<rect x="389.4" y="156.029" width="129.942" height="129.942" rx="15.4692" fill="white" fill-opacity="0.06"/>
<rect opacity="0.3" x="424.182" y="233.088" width="60.4379" height="6.04379" rx="2.0146" fill="white"/>
<rect opacity="0.3" x="412.598" y="244.168" width="83.6058" height="6.04379" rx="2.0146" fill="white"/>
<path d="M429.211 218.477C429.211 218.9 429.109 219.296 428.905 219.666C428.709 220.036 428.395 220.334 427.965 220.56C427.542 220.787 427.006 220.9 426.357 220.9H425.032V223.935H423.447V216.031H426.357C426.969 216.031 427.489 216.136 427.92 216.348C428.35 216.559 428.671 216.85 428.882 217.22C429.101 217.59 429.211 218.009 429.211 218.477ZM426.289 219.621C426.727 219.621 427.052 219.522 427.263 219.326C427.474 219.122 427.58 218.839 427.58 218.477C427.58 217.707 427.15 217.322 426.289 217.322H425.032V219.621H426.289ZM432.148 218.635C432.352 218.303 432.616 218.043 432.941 217.854C433.273 217.665 433.651 217.571 434.073 217.571V219.235H433.654C433.156 219.235 432.779 219.353 432.522 219.587C432.273 219.821 432.148 220.228 432.148 220.81V223.935H430.563V217.661H432.148V218.635ZM438.153 224.037C437.55 224.037 437.006 223.905 436.523 223.641C436.04 223.369 435.658 222.988 435.379 222.497C435.107 222.006 434.971 221.44 434.971 220.798C434.971 220.157 435.111 219.59 435.39 219.1C435.677 218.609 436.066 218.231 436.557 217.967C437.047 217.695 437.595 217.56 438.199 217.56C438.803 217.56 439.35 217.695 439.841 217.967C440.332 218.231 440.717 218.609 440.996 219.1C441.283 219.59 441.426 220.157 441.426 220.798C441.426 221.44 441.279 222.006 440.985 222.497C440.698 222.988 440.305 223.369 439.807 223.641C439.316 223.905 438.765 224.037 438.153 224.037ZM438.153 222.655C438.44 222.655 438.708 222.587 438.957 222.452C439.214 222.308 439.418 222.097 439.569 221.817C439.72 221.538 439.795 221.198 439.795 220.798C439.795 220.202 439.637 219.745 439.32 219.428C439.01 219.103 438.629 218.941 438.176 218.941C437.723 218.941 437.342 219.103 437.032 219.428C436.73 219.745 436.579 220.202 436.579 220.798C436.579 221.395 436.727 221.855 437.021 222.18C437.323 222.497 437.701 222.655 438.153 222.655ZM447.64 219.224V220.56H442.838V219.224H447.64ZM455.408 218.477C455.408 218.9 455.306 219.296 455.103 219.666C454.906 220.036 454.593 220.334 454.163 220.56C453.74 220.787 453.204 220.9 452.555 220.9H451.23V223.935H449.644V216.031H452.555C453.166 216.031 453.687 216.136 454.117 216.348C454.548 216.559 454.868 216.85 455.08 217.22C455.299 217.59 455.408 218.009 455.408 218.477ZM452.487 219.621C452.924 219.621 453.249 219.522 453.46 219.326C453.672 219.122 453.778 218.839 453.778 218.477C453.778 217.707 453.347 217.322 452.487 217.322H451.23V219.621H452.487ZM458.346 215.555V223.935H456.76V215.555H458.346ZM459.731 220.776C459.731 220.141 459.856 219.579 460.105 219.088C460.361 218.598 460.705 218.22 461.135 217.956C461.573 217.692 462.06 217.56 462.596 217.56C463.064 217.56 463.472 217.654 463.819 217.843C464.174 218.031 464.457 218.269 464.668 218.556V217.661H466.265V223.935H464.668V223.018C464.464 223.312 464.181 223.558 463.819 223.754C463.464 223.943 463.053 224.037 462.585 224.037C462.056 224.037 461.573 223.901 461.135 223.629C460.705 223.358 460.361 222.976 460.105 222.486C459.856 221.987 459.731 221.417 459.731 220.776ZM464.668 220.798C464.668 220.413 464.593 220.085 464.442 219.813C464.291 219.534 464.087 219.322 463.83 219.179C463.574 219.028 463.298 218.952 463.004 218.952C462.709 218.952 462.437 219.024 462.188 219.168C461.939 219.311 461.735 219.522 461.577 219.802C461.426 220.073 461.35 220.398 461.35 220.776C461.35 221.153 461.426 221.485 461.577 221.772C461.735 222.051 461.939 222.267 462.188 222.418C462.445 222.569 462.717 222.644 463.004 222.644C463.298 222.644 463.574 222.572 463.83 222.429C464.087 222.278 464.291 222.067 464.442 221.795C464.593 221.515 464.668 221.183 464.668 220.798ZM474.042 217.661L470.158 226.902H468.47L469.829 223.777L467.315 217.661H469.093L470.712 222.044L472.354 217.661H474.042ZM480.955 220.662C480.955 220.889 480.94 221.093 480.91 221.274H476.323C476.361 221.727 476.52 222.082 476.799 222.338C477.078 222.595 477.422 222.723 477.829 222.723C478.418 222.723 478.837 222.47 479.086 221.965H480.796C480.615 222.569 480.268 223.067 479.754 223.459C479.241 223.844 478.611 224.037 477.863 224.037C477.259 224.037 476.716 223.905 476.233 223.641C475.757 223.369 475.383 222.988 475.112 222.497C474.847 222.006 474.715 221.44 474.715 220.798C474.715 220.149 474.847 219.579 475.112 219.088C475.376 218.598 475.746 218.22 476.221 217.956C476.697 217.692 477.244 217.56 477.863 217.56C478.46 217.56 478.992 217.688 479.46 217.945C479.936 218.201 480.302 218.567 480.559 219.043C480.823 219.511 480.955 220.051 480.955 220.662ZM479.313 220.209C479.305 219.802 479.158 219.477 478.871 219.235C478.584 218.986 478.233 218.862 477.818 218.862C477.425 218.862 477.093 218.983 476.822 219.224C476.557 219.458 476.395 219.787 476.335 220.209H479.313ZM483.924 218.635C484.128 218.303 484.392 218.043 484.717 217.854C485.049 217.665 485.426 217.571 485.849 217.571V219.235H485.43C484.932 219.235 484.554 219.353 484.298 219.587C484.049 219.821 483.924 220.228 483.924 220.81V223.935H482.339V217.661H483.924V218.635Z" fill="white"/>
<rect opacity="0.2" x="422.641" y="258.67" width="63.5395" height="15.8849" rx="4.02919" fill="white"/>
<path d="M432.376 263.009L433.287 264.894C433.339 265.005 433.442 265.077 433.56 265.096L435.598 265.399C435.896 265.442 436.013 265.817 435.801 266.029L434.325 267.495C434.24 267.582 434.202 267.702 434.221 267.822L434.57 269.895C434.622 270.198 434.31 270.428 434.041 270.284L432.216 269.308C432.112 269.25 431.985 269.25 431.876 269.308L430.05 270.284C429.786 270.428 429.475 270.198 429.522 269.895L429.871 267.822C429.89 267.702 429.852 267.582 429.767 267.495L428.291 266.029C428.074 265.813 428.196 265.442 428.494 265.399L430.532 265.096C430.65 265.077 430.753 265.005 430.805 264.894L431.716 263.009C431.848 262.735 432.235 262.735 432.367 263.009H432.376Z" fill="white"/>
<path d="M443.63 263.009L444.541 264.894C444.592 265.005 444.696 265.077 444.814 265.096L446.852 265.399C447.149 265.442 447.267 265.817 447.055 266.029L445.578 267.495C445.494 267.582 445.456 267.702 445.475 267.822L445.824 269.895C445.876 270.198 445.564 270.428 445.295 270.284L443.47 269.308C443.366 269.25 443.239 269.25 443.13 269.308L441.304 270.284C441.04 270.428 440.729 270.198 440.776 269.895L441.125 267.822C441.144 267.702 441.106 267.582 441.021 267.495L439.545 266.029C439.328 265.813 439.45 265.442 439.748 265.399L441.786 265.096C441.903 265.077 442.007 265.005 442.059 264.894L442.97 263.009C443.102 262.735 443.489 262.735 443.621 263.009H443.63Z" fill="white"/>
<path d="M454.884 263.009L455.794 264.894C455.846 265.005 455.95 265.077 456.068 265.096L458.106 265.399C458.403 265.442 458.521 265.817 458.309 266.029L456.832 267.495C456.747 267.582 456.71 267.702 456.729 267.822L457.078 269.895C457.13 270.198 456.818 270.428 456.549 270.284L454.724 269.308C454.62 269.25 454.492 269.25 454.384 269.308L452.558 270.284C452.294 270.428 451.983 270.198 452.03 269.895L452.379 267.822C452.398 267.702 452.36 267.582 452.275 267.495L450.799 266.029C450.582 265.813 450.704 265.442 451.001 265.399L453.039 265.096C453.157 265.077 453.261 265.005 453.313 264.894L454.224 263.009C454.356 262.735 454.742 262.735 454.875 263.009H454.884Z" fill="white"/>
<path d="M466.138 263.009L467.048 264.894C467.1 265.005 467.204 265.077 467.322 265.096L469.36 265.399C469.657 265.442 469.775 265.817 469.563 266.029L468.086 267.495C468.001 267.582 467.964 267.702 467.982 267.822L468.332 269.895C468.383 270.198 468.072 270.428 467.803 270.284L465.978 269.308C465.874 269.25 465.746 269.25 465.638 269.308L463.812 270.284C463.548 270.428 463.237 270.198 463.284 269.895L463.633 267.822C463.652 267.702 463.614 267.582 463.529 267.495L462.052 266.029C461.835 265.813 461.958 265.442 462.255 265.399L464.293 265.096C464.411 265.077 464.515 265.005 464.567 264.894L465.477 263.009C465.61 262.735 465.996 262.735 466.128 263.009H466.138Z" fill="white"/>
<path d="M477.392 263.009L478.302 264.894C478.354 265.005 478.458 265.077 478.576 265.096L480.614 265.399C480.911 265.442 481.029 265.817 480.817 266.029L479.34 267.495C479.255 267.582 479.218 267.702 479.236 267.822L479.585 269.895C479.637 270.198 479.326 270.428 479.057 270.284L477.231 269.308C477.128 269.25 477 269.25 476.892 269.308L475.066 270.284C474.802 270.428 474.491 270.198 474.538 269.895L474.887 267.822C474.906 267.702 474.868 267.582 474.783 267.495L473.306 266.029C473.089 265.813 473.212 265.442 473.509 265.399L475.547 265.096C475.665 265.077 475.769 265.005 475.821 264.894L476.731 263.009C476.863 262.735 477.25 262.735 477.382 263.009H477.392Z" fill="white"/>
<rect x="436.776" y="170.083" width="35.4355" height="35.4355" rx="17.7177" fill="white"/>
<path d="M447.977 185.303C446.248 183.999 445.354 181.915 445.208 180.168C445.187 179.891 444.944 179.73 444.702 179.73C444.524 179.73 444.347 179.816 444.25 179.997C442.488 183.315 443.189 187.875 445.181 189.698C445.65 188.379 446.415 187.065 447.411 185.917C447.594 185.706 447.783 185.504 447.977 185.308V185.303ZM464.555 179.997C464.458 179.816 464.281 179.73 464.103 179.73C463.855 179.73 463.618 179.886 463.591 180.168C463.446 181.915 462.552 184.004 460.823 185.308C461.017 185.504 461.205 185.706 461.388 185.917C462.385 187.065 463.15 188.379 463.618 189.698C465.611 187.875 466.311 183.32 464.555 179.997ZM457.322 184.331V191.329H462.697C462.18 188.646 460.096 185.65 457.322 184.331ZM451.483 191.329V184.331C448.709 185.645 446.63 188.641 446.108 191.329H451.483ZM462.896 192.572H445.909C445.602 192.572 445.354 192.804 445.354 193.091V195.371C445.354 195.658 445.602 195.89 445.909 195.89H462.891C463.198 195.89 463.446 195.658 463.446 195.371V193.091C463.446 192.804 463.198 192.572 462.891 192.572H462.896ZM455.991 183.848C455.48 183.717 454.947 183.647 454.403 183.647C453.859 183.647 453.331 183.717 452.814 183.848V191.324H455.986V183.848H455.991Z" fill="white"/>
<circle opacity="0.3" cx="454.494" cy="187.799" r="20.7725" stroke="white" stroke-width="1.83287"/>
</g>
<rect x="389.4" y="156.029" width="129.942" height="129.942" rx="15.4692" stroke="#FBBE7E" stroke-width="1.28655"/>
</g>
<rect x="304.488" y="201.058" width="46.3158" height="46.3158" rx="23.1579" fill="#000223"/>
<rect x="304.488" y="201.058" width="46.3158" height="46.3158" rx="23.1579" stroke="#FBBE7E" stroke-width="1.28655"/>
<path d="M337.738 224.736L337.734 223.837C337.733 223.499 337.458 223.225 337.119 223.227L333.061 223.242C332.723 223.244 332.449 223.519 332.451 223.857L332.454 224.757C332.455 225.095 332.731 225.368 333.069 225.367L337.127 225.352C337.466 225.35 337.739 225.075 337.738 224.736Z" fill="#FBBE7E"/>
<path d="M334.413 231.718L335.047 231.08C335.285 230.84 335.284 230.452 335.043 230.213L332.163 227.356C331.923 227.117 331.535 227.119 331.296 227.359L330.663 227.997C330.424 228.237 330.426 228.625 330.666 228.864L333.547 231.722C333.787 231.96 334.175 231.959 334.413 231.718Z" fill="#FBBE7E"/>
<path d="M327.123 234.308L328.022 234.304C328.361 234.303 328.634 234.028 328.633 233.689L328.617 229.632C328.616 229.293 328.341 229.02 328.002 229.021L327.103 229.025C326.764 229.026 326.491 229.302 326.492 229.64L326.508 233.697C326.509 234.036 326.785 234.309 327.123 234.308Z" fill="#FBBE7E"/>
<path d="M320.141 230.981L320.78 231.614C321.02 231.853 321.408 231.851 321.647 231.611L324.505 228.731C324.743 228.491 324.742 228.103 324.502 227.864L323.863 227.231C323.623 226.993 323.235 226.994 322.996 227.234L320.138 230.114C319.9 230.354 319.901 230.742 320.141 230.981Z" fill="#FBBE7E"/>
<path d="M317.554 223.69L317.557 224.589C317.559 224.928 317.834 225.201 318.172 225.2L322.23 225.184C322.569 225.183 322.842 224.907 322.841 224.569L322.837 223.67C322.836 223.331 322.561 223.058 322.222 223.059L318.164 223.075C317.826 223.076 317.552 223.351 317.554 223.69Z" fill="#FBBE7E"/>
<path d="M320.88 216.711L320.246 217.349C320.008 217.59 320.009 217.978 320.249 218.216L323.13 221.074C323.37 221.312 323.758 221.311 323.996 221.071L324.63 220.432C324.868 220.192 324.867 219.804 324.626 219.566L321.746 216.708C321.506 216.469 321.118 216.471 320.88 216.711Z" fill="#FBBE7E"/>
<path d="M328.17 214.123L327.271 214.126C326.932 214.128 326.659 214.403 326.66 214.741L326.676 218.799C326.677 219.137 326.952 219.41 327.291 219.409L328.19 219.406C328.529 219.404 328.802 219.129 328.801 218.79L328.785 214.733C328.784 214.395 328.508 214.122 328.17 214.123Z" fill="#FBBE7E"/>
<rect x="304.488" y="352.871" width="46.3158" height="46.3158" rx="23.1579" fill="#000223"/>
<rect x="304.488" y="352.871" width="46.3158" height="46.3158" rx="23.1579" stroke="white" stroke-opacity="0.4" stroke-width="1.28655" stroke-dasharray="7.08 7.08"/>
<g opacity="0.4">
<path d="M317.58 376.383H339" stroke="white" stroke-width="2.5731" stroke-miterlimit="10"/>
<path d="M328.001 387.382L328.001 365.963" stroke="white" stroke-width="2.5731" stroke-miterlimit="10"/>
</g>
<rect x="304.488" y="43.4562" width="46.3158" height="46.3158" rx="23.1579" fill="#000223"/>
<rect x="304.488" y="43.4562" width="46.3158" height="46.3158" rx="23.1579" stroke="#FF6E75" stroke-width="1.28655"/>
<path d="M317.897 66.7602L324.293 72.7128L336.886 60.4258" stroke="#FF6E75" stroke-width="2.5731" stroke-miterlimit="10"/>
<rect x="1.50586" y="1" width="264.386" height="129.942" rx="16.1746" fill="white" fill-opacity="0.08"/>
<rect x="1.50586" y="1" width="264.386" height="129.942" rx="16.1746" stroke="#FF6E75" stroke-width="1.28655"/>
<path d="M23.516 31.8986C22.5518 31.8986 21.6664 31.6723 20.8597 31.2197C20.0529 30.7672 19.4134 30.1424 18.9412 29.3455C18.4689 28.5388 18.2328 27.6288 18.2328 26.6154C18.2328 25.6119 18.4689 24.7117 18.9412 23.9148C19.4134 23.108 20.0529 22.4784 20.8597 22.0258C21.6664 21.5733 22.5518 21.347 23.516 21.347C24.49 21.347 25.3754 21.5733 26.1723 22.0258C26.9791 22.4784 27.6137 23.108 28.0761 23.9148C28.5483 24.7117 28.7844 25.6119 28.7844 26.6154C28.7844 27.6288 28.5483 28.5388 28.0761 29.3455C27.6137 30.1424 26.9791 30.7672 26.1723 31.2197C25.3656 31.6723 24.4802 31.8986 23.516 31.8986ZM23.516 30.0539C24.1358 30.0539 24.6818 29.9162 25.1541 29.6407C25.6263 29.3554 25.9953 28.952 26.2609 28.4306C26.5265 27.9092 26.6593 27.3041 26.6593 26.6154C26.6593 25.9267 26.5265 25.3266 26.2609 24.815C25.9953 24.2936 25.6263 23.8951 25.1541 23.6196C24.6818 23.3442 24.1358 23.2064 23.516 23.2064C22.8962 23.2064 22.3452 23.3442 21.8632 23.6196C21.3909 23.8951 21.022 24.2936 20.7564 24.815C20.4907 25.3266 20.3579 25.9267 20.3579 26.6154C20.3579 27.3041 20.4907 27.9092 20.7564 28.4306C21.022 28.952 21.3909 29.3554 21.8632 29.6407C22.3452 29.9162 22.8962 30.0539 23.516 30.0539ZM32.6827 24.8888C32.9483 24.4559 33.2927 24.1165 33.7157 23.8705C34.1486 23.6246 34.6405 23.5016 35.1915 23.5016V25.6709H34.6454C33.9961 25.6709 33.5042 25.8234 33.1697 26.1284C32.845 26.4334 32.6827 26.9647 32.6827 27.7222V31.7953H30.6167V23.6196H32.6827V24.8888ZM36.3469 27.678C36.3469 26.8515 36.5093 26.1186 36.8339 25.4791C37.1684 24.8396 37.621 24.3477 38.1916 24.0033C38.7622 23.659 39.3968 23.4868 40.0953 23.4868C40.6266 23.4868 41.1333 23.6049 41.6154 23.841C42.0974 24.0673 42.4811 24.3723 42.7664 24.756V20.8748H44.862V31.7953H42.7664V30.5852C42.5106 30.9885 42.1515 31.3132 41.6891 31.5592C41.2267 31.8051 40.6906 31.9281 40.0806 31.9281C39.3919 31.9281 38.7622 31.751 38.1916 31.3968C37.621 31.0427 37.1684 30.5458 36.8339 29.9063C36.5093 29.257 36.3469 28.5142 36.3469 27.678ZM42.7812 27.7075C42.7812 27.2057 42.6828 26.7777 42.4861 26.4236C42.2893 26.0595 42.0237 25.7841 41.6891 25.5971C41.3546 25.4004 40.9955 25.302 40.6119 25.302C40.2282 25.302 39.874 25.3955 39.5493 25.5824C39.2246 25.7693 38.959 26.0448 38.7524 26.4088C38.5556 26.763 38.4573 27.186 38.4573 27.678C38.4573 28.1699 38.5556 28.6028 38.7524 28.9766C38.959 29.3406 39.2246 29.621 39.5493 29.8178C39.8838 30.0146 40.238 30.1129 40.6119 30.1129C40.9955 30.1129 41.3546 30.0195 41.6891 29.8325C42.0237 29.6358 42.2893 29.3603 42.4861 29.0061C42.6828 28.6421 42.7812 28.2092 42.7812 27.7075ZM54.7751 27.5304C54.7751 27.8255 54.7554 28.0912 54.7161 28.3273H48.7393C48.7885 28.9176 48.9951 29.38 49.3591 29.7145C49.7231 30.049 50.1708 30.2162 50.702 30.2162C51.4694 30.2162 52.0155 29.8867 52.3401 29.2275H54.5685C54.3324 30.0146 53.8798 30.6639 53.2108 31.1755C52.5418 31.6772 51.7203 31.9281 50.7463 31.9281C49.9593 31.9281 49.2509 31.7559 48.6212 31.4116C48.0014 31.0574 47.5144 30.5606 47.1603 29.9211C46.8159 29.2816 46.6437 28.5437 46.6437 27.7075C46.6437 26.8614 46.8159 26.1186 47.1603 25.4791C47.5046 24.8396 47.9867 24.3477 48.6065 24.0033C49.2263 23.659 49.9396 23.4868 50.7463 23.4868C51.5235 23.4868 52.2172 23.6541 52.8271 23.9886C53.4469 24.3231 53.9241 24.8002 54.2586 25.4201C54.6029 26.03 54.7751 26.7335 54.7751 27.5304ZM52.6353 26.9401C52.6254 26.4088 52.4336 25.9858 52.0597 25.6709C51.6859 25.3463 51.2284 25.1839 50.6873 25.1839C50.1757 25.1839 49.7428 25.3413 49.3886 25.6562C49.0443 25.9612 48.8328 26.3891 48.7541 26.9401H52.6353ZM58.6443 24.8888C58.91 24.4559 59.2543 24.1165 59.6774 23.8705C60.1103 23.6246 60.6022 23.5016 61.1531 23.5016V25.6709H60.6071C59.9578 25.6709 59.4658 25.8234 59.1313 26.1284C58.8067 26.4334 58.6443 26.9647 58.6443 27.7222V31.7953H56.5783V23.6196H58.6443V24.8888Z" fill="white"/>
<rect x="72.0957" y="13.8655" width="75.515" height="24.9515" rx="7.37874" fill="#FF6E75"/>
<path d="M88.2845 29.0095C89.229 28.2224 89.9816 27.5682 90.5424 27.0468C91.1032 26.5155 91.5705 25.9645 91.9444 25.3939C92.3182 24.8233 92.5051 24.2625 92.5051 23.7116C92.5051 23.2098 92.3871 22.8163 92.151 22.531C91.9148 22.2457 91.5508 22.103 91.0589 22.103C90.567 22.103 90.1882 22.2703 89.9226 22.6048C89.6569 22.9294 89.5192 23.3771 89.5094 23.9477H87.5024C87.5417 22.7671 87.891 21.8718 88.5501 21.2618C89.2191 20.6518 90.0652 20.3469 91.0884 20.3469C92.21 20.3469 93.0708 20.6469 93.671 21.2471C94.2711 21.8374 94.5712 22.6195 94.5712 23.5935C94.5712 24.3609 94.3646 25.0939 93.9514 25.7924C93.5382 26.4909 93.0659 27.1009 92.5347 27.6223C92.0034 28.1339 91.3098 28.7537 90.4539 29.4817H94.8073V31.1936H87.5171V29.6588L88.2845 29.0095ZM103.252 22.1473L99.3263 31.3412H97.2308L101.186 22.3834H96.1387V20.6125H103.252V22.1473ZM104.814 23.4164C104.863 22.4326 105.207 21.675 105.847 21.1438C106.496 20.6027 107.347 20.3321 108.4 20.3321C109.118 20.3321 109.733 20.46 110.245 20.7158C110.756 20.9618 111.14 21.3012 111.396 21.7341C111.661 22.1571 111.794 22.6392 111.794 23.1803C111.794 23.8001 111.632 24.3265 111.307 24.7593C110.992 25.1824 110.614 25.4677 110.171 25.6153V25.6743C110.742 25.8514 111.184 26.1662 111.499 26.6188C111.824 27.0714 111.986 27.6518 111.986 28.3602C111.986 28.9505 111.848 29.4768 111.573 29.9392C111.307 30.4016 110.909 30.7656 110.377 31.0313C109.856 31.2871 109.226 31.415 108.489 31.415C107.377 31.415 106.472 31.1346 105.773 30.5738C105.075 30.013 104.706 29.1866 104.666 28.0945H106.673C106.693 28.5766 106.855 28.9652 107.16 29.2604C107.475 29.5457 107.903 29.6883 108.444 29.6883C108.946 29.6883 109.33 29.5506 109.595 29.2751C109.871 28.9898 110.009 28.6258 110.009 28.1831C110.009 27.5928 109.822 27.1697 109.448 26.9139C109.074 26.6581 108.493 26.5302 107.706 26.5302H107.278V24.8331H107.706C109.103 24.8331 109.802 24.3658 109.802 23.4312C109.802 23.0081 109.674 22.6785 109.418 22.4424C109.172 22.2063 108.813 22.0882 108.341 22.0882C107.879 22.0882 107.519 22.2161 107.264 22.4719C107.018 22.7179 106.875 23.0327 106.836 23.4164H104.814ZM121.145 22.3686H116.364V24.8922C116.57 24.6364 116.865 24.4298 117.249 24.2724C117.633 24.1051 118.041 24.0215 118.474 24.0215C119.261 24.0215 119.905 24.1936 120.407 24.538C120.909 24.8823 121.273 25.3251 121.499 25.8662C121.725 26.3974 121.839 26.9681 121.839 27.578C121.839 28.7094 121.514 29.6195 120.865 30.3082C120.225 30.9968 119.31 31.3412 118.12 31.3412C116.998 31.3412 116.103 31.0608 115.434 30.5C114.765 29.9392 114.386 29.2063 114.298 28.3011H116.305C116.393 28.6947 116.59 29.0095 116.895 29.2456C117.21 29.4817 117.608 29.5998 118.09 29.5998C118.671 29.5998 119.109 29.4178 119.404 29.0538C119.699 28.6898 119.846 28.2077 119.846 27.6075C119.846 26.9976 119.694 26.5352 119.389 26.2203C119.094 25.8957 118.656 25.7333 118.075 25.7333C117.662 25.7333 117.318 25.8366 117.042 26.0432C116.767 26.2499 116.57 26.5253 116.452 26.8697H114.475V20.5535H121.145V22.3686ZM125.507 25.6448C124.523 25.1332 124.031 24.3412 124.031 23.2688C124.031 22.7376 124.164 22.2555 124.429 21.8226C124.705 21.3799 125.113 21.0306 125.654 20.7748C126.205 20.5092 126.874 20.3764 127.661 20.3764C128.448 20.3764 129.112 20.5092 129.654 20.7748C130.204 21.0306 130.613 21.3799 130.878 21.8226C131.154 22.2555 131.292 22.7376 131.292 23.2688C131.292 23.81 131.159 24.2871 130.893 24.7003C130.628 25.1037 130.273 25.4185 129.831 25.6448C130.372 25.8809 130.795 26.2253 131.1 26.6778C131.405 27.1304 131.557 27.6666 131.557 28.2864C131.557 28.9554 131.385 29.5408 131.041 30.0425C130.706 30.5344 130.244 30.9132 129.654 31.1789C129.063 31.4445 128.399 31.5773 127.661 31.5773C126.923 31.5773 126.259 31.4445 125.669 31.1789C125.089 30.9132 124.626 30.5344 124.282 30.0425C123.947 29.5408 123.78 28.9554 123.78 28.2864C123.78 27.6666 123.933 27.1304 124.238 26.6778C124.543 26.2154 124.966 25.8711 125.507 25.6448ZM129.285 23.564C129.285 23.0819 129.137 22.7081 128.842 22.4424C128.557 22.1768 128.163 22.044 127.661 22.044C127.169 22.044 126.776 22.1768 126.481 22.4424C126.195 22.7081 126.053 23.0868 126.053 23.5788C126.053 24.0215 126.2 24.3757 126.495 24.6413C126.8 24.9069 127.189 25.0397 127.661 25.0397C128.134 25.0397 128.522 24.9069 128.827 24.6413C129.132 24.3658 129.285 24.0067 129.285 23.564ZM127.661 26.545C127.1 26.545 126.643 26.6877 126.289 26.973C125.944 27.2583 125.772 27.6666 125.772 28.1978C125.772 28.6898 125.94 29.0931 126.274 29.408C126.618 29.7129 127.081 29.8654 127.661 29.8654C128.242 29.8654 128.699 29.708 129.034 29.3932C129.368 29.0784 129.535 28.6799 129.535 28.1978C129.535 27.6764 129.363 27.273 129.019 26.9877C128.675 26.6926 128.222 26.545 127.661 26.545Z" fill="white"/>
<path d="M64.192 99.5219V109.632H62.5337V102.708L59.4499 109.632H58.3007L55.2024 102.708V109.632H53.5441V99.5219H55.3333L58.8826 107.45L62.4173 99.5219H64.192ZM73.8774 101.617L68.9608 113.399H67.2443L68.8735 109.501L65.717 101.617H67.5643L69.819 107.726L72.161 101.617H73.8774ZM77.3545 102.969V107.406C77.3545 107.707 77.4223 107.925 77.5581 108.061C77.7036 108.187 77.946 108.25 78.2854 108.25H79.3037V109.632H77.9945C77.2478 109.632 76.6756 109.457 76.278 109.108C75.8804 108.759 75.6816 108.192 75.6816 107.406V102.969H74.7361V101.617H75.6816V99.6237H77.3545V101.617H79.3037V102.969H77.3545ZM85.2687 101.486C85.8796 101.486 86.4227 101.617 86.8979 101.878C87.3827 102.14 87.7609 102.528 88.0325 103.042C88.3137 103.556 88.4543 104.177 88.4543 104.904V109.632H86.8106V105.151C86.8106 104.434 86.6312 103.886 86.2724 103.508C85.9136 103.12 85.4238 102.926 84.8032 102.926C84.1826 102.926 83.688 103.12 83.3195 103.508C82.9607 103.886 82.7813 104.434 82.7813 105.151V109.632H81.123V98.8673H82.7813V102.548C83.0625 102.208 83.4164 101.946 83.8431 101.762C84.2795 101.578 84.7547 101.486 85.2687 101.486ZM91.7042 100.555C91.4035 100.555 91.1514 100.453 90.9478 100.249C90.7441 100.046 90.6423 99.7934 90.6423 99.4928C90.6423 99.1922 90.7441 98.9401 90.9478 98.7364C91.1514 98.5328 91.4035 98.4309 91.7042 98.4309C91.9951 98.4309 92.2424 98.5328 92.446 98.7364C92.6497 98.9401 92.7515 99.1922 92.7515 99.4928C92.7515 99.7934 92.6497 100.046 92.446 100.249C92.2424 100.453 91.9951 100.555 91.7042 100.555ZM92.5188 101.617V109.632H90.8605V101.617H92.5188ZM94.4341 105.617C94.4341 104.793 94.599 104.07 94.9287 103.449C95.2681 102.819 95.7336 102.334 96.3251 101.995C96.9167 101.655 97.5955 101.486 98.3616 101.486C99.3314 101.486 100.131 101.718 100.762 102.184C101.402 102.64 101.833 103.294 102.056 104.148H100.267C100.122 103.75 99.889 103.44 99.5689 103.217C99.2489 102.994 98.8465 102.882 98.3616 102.882C97.6828 102.882 97.1397 103.125 96.7324 103.609C96.3348 104.085 96.136 104.754 96.136 105.617C96.136 106.48 96.3348 107.154 96.7324 107.639C97.1397 108.124 97.6828 108.366 98.3616 108.366C99.3217 108.366 99.9568 107.944 100.267 107.101H102.056C101.824 107.915 101.387 108.565 100.747 109.05C100.107 109.525 99.312 109.763 98.3616 109.763C97.5955 109.763 96.9167 109.593 96.3251 109.253C95.7336 108.904 95.2681 108.419 94.9287 107.799C94.599 107.168 94.4341 106.441 94.4341 105.617ZM111.371 99.5219C112.448 99.5219 113.389 99.7304 114.193 100.147C115.008 100.555 115.634 101.146 116.07 101.922C116.516 102.688 116.739 103.585 116.739 104.613C116.739 105.641 116.516 106.533 116.07 107.29C115.634 108.046 115.008 108.628 114.193 109.035C113.389 109.433 112.448 109.632 111.371 109.632H108.069V99.5219H111.371ZM111.371 108.279C112.555 108.279 113.461 107.959 114.092 107.319C114.722 106.679 115.037 105.777 115.037 104.613C115.037 103.44 114.722 102.523 114.092 101.864C113.461 101.204 112.555 100.875 111.371 100.875H109.728V108.279H111.371ZM125.932 101.617V109.632H124.274V108.686C124.012 109.016 123.668 109.278 123.241 109.472C122.824 109.656 122.378 109.748 121.903 109.748C121.272 109.748 120.705 109.617 120.201 109.355C119.706 109.093 119.314 108.705 119.023 108.192C118.741 107.678 118.601 107.057 118.601 106.33V101.617H120.244V106.082C120.244 106.8 120.424 107.353 120.783 107.741C121.141 108.119 121.631 108.308 122.252 108.308C122.873 108.308 123.362 108.119 123.721 107.741C124.09 107.353 124.274 106.8 124.274 106.082V101.617H125.932ZM132.455 101.486C133.085 101.486 133.648 101.617 134.142 101.878C134.646 102.14 135.039 102.528 135.32 103.042C135.602 103.556 135.742 104.177 135.742 104.904V109.632H134.099V105.151C134.099 104.434 133.919 103.886 133.56 103.508C133.202 103.12 132.712 102.926 132.091 102.926C131.471 102.926 130.976 103.12 130.607 103.508C130.249 103.886 130.069 104.434 130.069 105.151V109.632H128.411V101.617H130.069V102.533C130.341 102.203 130.685 101.946 131.102 101.762C131.529 101.578 131.98 101.486 132.455 101.486ZM141.378 101.486C141.998 101.486 142.546 101.612 143.021 101.864C143.506 102.106 143.885 102.412 144.156 102.78V101.617H145.829V109.763C145.829 110.5 145.674 111.154 145.363 111.726C145.053 112.308 144.602 112.764 144.011 113.094C143.429 113.423 142.731 113.588 141.916 113.588C140.83 113.588 139.928 113.331 139.21 112.817C138.493 112.313 138.085 111.624 137.988 110.752H139.632C139.758 111.169 140.025 111.503 140.432 111.755C140.849 112.017 141.344 112.148 141.916 112.148C142.585 112.148 143.123 111.944 143.531 111.537C143.948 111.13 144.156 110.538 144.156 109.763V108.424C143.875 108.802 143.492 109.122 143.007 109.384C142.532 109.636 141.989 109.763 141.378 109.763C140.68 109.763 140.039 109.588 139.458 109.239C138.885 108.88 138.43 108.385 138.09 107.755C137.761 107.115 137.596 106.393 137.596 105.588C137.596 104.783 137.761 104.07 138.09 103.449C138.43 102.829 138.885 102.349 139.458 102.009C140.039 101.66 140.68 101.486 141.378 101.486ZM144.156 105.617C144.156 105.064 144.04 104.584 143.807 104.177C143.584 103.769 143.288 103.459 142.92 103.246C142.551 103.032 142.154 102.926 141.727 102.926C141.3 102.926 140.903 103.032 140.534 103.246C140.166 103.449 139.865 103.755 139.632 104.162C139.409 104.56 139.298 105.035 139.298 105.588C139.298 106.14 139.409 106.625 139.632 107.042C139.865 107.459 140.166 107.779 140.534 108.002C140.912 108.216 141.31 108.322 141.727 108.322C142.154 108.322 142.551 108.216 142.92 108.002C143.288 107.789 143.584 107.479 143.807 107.071C144.04 106.654 144.156 106.17 144.156 105.617ZM155.644 105.428C155.644 105.728 155.624 106 155.586 106.242H149.462C149.51 106.882 149.748 107.396 150.174 107.784C150.601 108.172 151.125 108.366 151.745 108.366C152.638 108.366 153.268 107.993 153.636 107.246H155.426C155.183 107.983 154.742 108.589 154.102 109.064C153.472 109.53 152.686 109.763 151.745 109.763C150.979 109.763 150.291 109.593 149.68 109.253C149.079 108.904 148.603 108.419 148.254 107.799C147.915 107.168 147.745 106.441 147.745 105.617C147.745 104.793 147.91 104.07 148.24 103.449C148.579 102.819 149.049 102.334 149.651 101.995C150.262 101.655 150.96 101.486 151.745 101.486C152.502 101.486 153.176 101.651 153.767 101.98C154.359 102.31 154.82 102.775 155.149 103.377C155.479 103.968 155.644 104.652 155.644 105.428ZM153.913 104.904C153.903 104.293 153.685 103.803 153.258 103.435C152.832 103.066 152.303 102.882 151.673 102.882C151.101 102.882 150.611 103.066 150.203 103.435C149.796 103.794 149.554 104.283 149.476 104.904H153.913ZM161.043 109.763C160.287 109.763 159.603 109.593 158.992 109.253C158.381 108.904 157.901 108.419 157.552 107.799C157.203 107.168 157.028 106.441 157.028 105.617C157.028 104.802 157.208 104.08 157.567 103.449C157.925 102.819 158.415 102.334 159.036 101.995C159.656 101.655 160.35 101.486 161.116 101.486C161.882 101.486 162.575 101.655 163.196 101.995C163.817 102.334 164.306 102.819 164.665 103.449C165.024 104.08 165.203 104.802 165.203 105.617C165.203 106.431 165.019 107.154 164.651 107.784C164.282 108.415 163.778 108.904 163.138 109.253C162.508 109.593 161.809 109.763 161.043 109.763ZM161.043 108.322C161.47 108.322 161.868 108.221 162.236 108.017C162.614 107.813 162.92 107.508 163.152 107.101C163.385 106.693 163.502 106.199 163.502 105.617C163.502 105.035 163.39 104.545 163.167 104.148C162.944 103.74 162.648 103.435 162.28 103.231C161.911 103.028 161.514 102.926 161.087 102.926C160.66 102.926 160.263 103.028 159.894 103.231C159.535 103.435 159.249 103.74 159.036 104.148C158.822 104.545 158.716 105.035 158.716 105.617C158.716 106.48 158.934 107.149 159.37 107.624C159.816 108.09 160.374 108.322 161.043 108.322ZM171.178 101.486C171.808 101.486 172.37 101.617 172.865 101.878C173.369 102.14 173.762 102.528 174.043 103.042C174.324 103.556 174.465 104.177 174.465 104.904V109.632H172.821V105.151C172.821 104.434 172.642 103.886 172.283 103.508C171.924 103.12 171.435 102.926 170.814 102.926C170.193 102.926 169.699 103.12 169.33 103.508C168.971 103.886 168.792 104.434 168.792 105.151V109.632H167.134V101.617H168.792V102.533C169.063 102.203 169.408 101.946 169.825 101.762C170.251 101.578 170.702 101.486 171.178 101.486Z" fill="white"/>
<rect opacity="0.1" x="18.231" y="54.3918" width="160.175" height="8.36257" rx="1.87824" fill="white"/>
<rect opacity="0.1" x="18.231" y="69.1871" width="112.573" height="8.36257" rx="1.87824" fill="white"/>
<circle cx="231.571" cy="18.7847" r="2.34606" fill="white"/>
<circle cx="239.196" cy="18.7847" r="2.34606" fill="white"/>
<circle cx="246.821" cy="18.7847" r="2.34606" fill="white"/>
<rect x="18.231" y="92.345" width="25.731" height="25.731" rx="12.8655" fill="white" fill-opacity="0.1"/>
<path fill-rule="evenodd" clip-rule="evenodd" d="M27.6182 99.2703H34.5936C34.8589 99.2703 35.074 99.4857 35.074 99.7514V100.064C35.074 100.33 34.8589 100.545 34.5936 100.545H27.6182C27.3529 100.545 27.1378 100.33 27.1378 100.064V99.7514C27.1378 99.4857 27.3529 99.2703 27.6182 99.2703ZM27.6181 109.869H34.5935C34.8588 109.869 35.0739 110.085 35.0739 110.35V110.663C35.0739 110.929 34.8588 111.144 34.5935 111.144H27.6181C27.3528 111.144 27.1377 110.929 27.1377 110.663V110.35C27.1377 110.085 27.3528 109.869 27.6181 109.869ZM34.7741 101.19V101.661C34.7741 103.352 33.618 104.786 32.0582 105.209C33.618 105.631 34.7741 107.065 34.7741 108.756V109.227H27.4373V108.756C27.4373 107.065 28.5935 105.631 30.1533 105.209C28.5935 104.786 27.4373 103.352 27.4373 101.661V101.19H34.7741Z" fill="white"/>
<rect x="1.50586" y="156.029" width="264.386" height="129.942" rx="16.1746" fill="white" fill-opacity="0.08"/>
<rect x="1.50586" y="156.029" width="264.386" height="129.942" rx="16.1746" stroke="#FBBE7E" stroke-width="1.28655"/>
<path d="M23.516 186.928C22.5518 186.928 21.6664 186.702 20.8597 186.249C20.0529 185.796 19.4134 185.172 18.9412 184.375C18.4689 183.568 18.2328 182.658 18.2328 181.645C18.2328 180.641 18.4689 179.741 18.9412 178.944C19.4134 178.137 20.0529 177.508 20.8597 177.055C21.6664 176.603 22.5518 176.376 23.516 176.376C24.49 176.376 25.3754 176.603 26.1723 177.055C26.9791 177.508 27.6137 178.137 28.0761 178.944C28.5483 179.741 28.7844 180.641 28.7844 181.645C28.7844 182.658 28.5483 183.568 28.0761 184.375C27.6137 185.172 26.9791 185.796 26.1723 186.249C25.3656 186.702 24.4802 186.928 23.516 186.928ZM23.516 185.083C24.1358 185.083 24.6818 184.945 25.1541 184.67C25.6263 184.385 25.9953 183.981 26.2609 183.46C26.5265 182.938 26.6593 182.333 26.6593 181.645C26.6593 180.956 26.5265 180.356 26.2609 179.844C25.9953 179.323 25.6263 178.924 25.1541 178.649C24.6818 178.373 24.1358 178.236 23.516 178.236C22.8962 178.236 22.3452 178.373 21.8632 178.649C21.3909 178.924 21.022 179.323 20.7564 179.844C20.4907 180.356 20.3579 180.956 20.3579 181.645C20.3579 182.333 20.4907 182.938 20.7564 183.46C21.022 183.981 21.3909 184.385 21.8632 184.67C22.3452 184.945 22.8962 185.083 23.516 185.083ZM32.6827 179.918C32.9483 179.485 33.2927 179.146 33.7157 178.9C34.1486 178.654 34.6405 178.531 35.1915 178.531V180.7H34.6454C33.9961 180.7 33.5042 180.853 33.1697 181.158C32.845 181.463 32.6827 181.994 32.6827 182.752V186.825H30.6167V178.649H32.6827V179.918ZM36.3469 182.707C36.3469 181.881 36.5093 181.148 36.8339 180.508C37.1684 179.869 37.621 179.377 38.1916 179.033C38.7622 178.688 39.3968 178.516 40.0953 178.516C40.6266 178.516 41.1333 178.634 41.6154 178.87C42.0974 179.097 42.4811 179.402 42.7664 179.785V175.904H44.862V186.825H42.7664V185.614C42.5106 186.018 42.1515 186.343 41.6891 186.588C41.2267 186.834 40.6906 186.957 40.0806 186.957C39.3919 186.957 38.7622 186.78 38.1916 186.426C37.621 186.072 37.1684 185.575 36.8339 184.936C36.5093 184.286 36.3469 183.544 36.3469 182.707ZM42.7812 182.737C42.7812 182.235 42.6828 181.807 42.4861 181.453C42.2893 181.089 42.0237 180.813 41.6891 180.626C41.3546 180.43 40.9955 180.331 40.6119 180.331C40.2282 180.331 39.874 180.425 39.5493 180.612C39.2246 180.799 38.959 181.074 38.7524 181.438C38.5556 181.792 38.4573 182.215 38.4573 182.707C38.4573 183.199 38.5556 183.632 38.7524 184.006C38.959 184.37 39.2246 184.65 39.5493 184.847C39.8838 185.044 40.238 185.142 40.6119 185.142C40.9955 185.142 41.3546 185.049 41.6891 184.862C42.0237 184.665 42.2893 184.39 42.4861 184.035C42.6828 183.671 42.7812 183.239 42.7812 182.737ZM54.7751 182.56C54.7751 182.855 54.7554 183.12 54.7161 183.357H48.7393C48.7885 183.947 48.9951 184.409 49.3591 184.744C49.7231 185.078 50.1708 185.246 50.702 185.246C51.4694 185.246 52.0155 184.916 52.3401 184.257H54.5685C54.3324 185.044 53.8798 185.693 53.2108 186.205C52.5418 186.707 51.7203 186.957 50.7463 186.957C49.9593 186.957 49.2509 186.785 48.6212 186.441C48.0014 186.087 47.5144 185.59 47.1603 184.95C46.8159 184.311 46.6437 183.573 46.6437 182.737C46.6437 181.891 46.8159 181.148 47.1603 180.508C47.5046 179.869 47.9867 179.377 48.6065 179.033C49.2263 178.688 49.9396 178.516 50.7463 178.516C51.5235 178.516 52.2172 178.683 52.8271 179.018C53.4469 179.352 53.9241 179.83 54.2586 180.449C54.6029 181.059 54.7751 181.763 54.7751 182.56ZM52.6353 181.969C52.6254 181.438 52.4336 181.015 52.0597 180.7C51.6859 180.376 51.2284 180.213 50.6873 180.213C50.1757 180.213 49.7428 180.371 49.3886 180.685C49.0443 180.99 48.8328 181.418 48.7541 181.969H52.6353ZM58.6443 179.918C58.91 179.485 59.2543 179.146 59.6774 178.9C60.1103 178.654 60.6022 178.531 61.1531 178.531V180.7H60.6071C59.9578 180.7 59.4658 180.853 59.1313 181.158C58.8067 181.463 58.6443 181.994 58.6443 182.752V186.825H56.5783V178.649H58.6443V179.918Z" fill="white"/>
<rect x="72.0957" y="168.895" width="75.515" height="24.9515" rx="7.37874" fill="white" fill-opacity="0.1"/>
<path d="M88.2845 184.039C89.229 183.252 89.9816 182.597 90.5424 182.076C91.1032 181.545 91.5705 180.994 91.9444 180.423C92.3182 179.853 92.5051 179.292 92.5051 178.741C92.5051 178.239 92.3871 177.846 92.151 177.56C91.9148 177.275 91.5508 177.132 91.0589 177.132C90.567 177.132 90.1882 177.3 89.9226 177.634C89.6569 177.959 89.5192 178.406 89.5094 178.977H87.5024C87.5417 177.796 87.891 176.901 88.5501 176.291C89.2191 175.681 90.0652 175.376 91.0884 175.376C92.21 175.376 93.0708 175.676 93.671 176.276C94.2711 176.867 94.5712 177.649 94.5712 178.623C94.5712 179.39 94.3646 180.123 93.9514 180.822C93.5382 181.52 93.0659 182.13 92.5347 182.652C92.0034 183.163 91.3098 183.783 90.4539 184.511H94.8073V186.223H87.5171V184.688L88.2845 184.039ZM103.252 177.177L99.3263 186.37H97.2308L101.186 177.413H96.1387V175.642H103.252V177.177ZM104.814 178.446C104.863 177.462 105.207 176.704 105.847 176.173C106.496 175.632 107.347 175.361 108.4 175.361C109.118 175.361 109.733 175.489 110.245 175.745C110.756 175.991 111.14 176.33 111.396 176.763C111.661 177.186 111.794 177.668 111.794 178.21C111.794 178.829 111.632 179.356 111.307 179.789C110.992 180.212 110.614 180.497 110.171 180.645V180.704C110.742 180.881 111.184 181.196 111.499 181.648C111.824 182.101 111.986 182.681 111.986 183.389C111.986 183.98 111.848 184.506 111.573 184.969C111.307 185.431 110.909 185.795 110.377 186.061C109.856 186.316 109.226 186.444 108.489 186.444C107.377 186.444 106.472 186.164 105.773 185.603C105.075 185.042 104.706 184.216 104.666 183.124H106.673C106.693 183.606 106.855 183.995 107.16 184.29C107.475 184.575 107.903 184.718 108.444 184.718C108.946 184.718 109.33 184.58 109.595 184.304C109.871 184.019 110.009 183.655 110.009 183.212C110.009 182.622 109.822 182.199 109.448 181.943C109.074 181.687 108.493 181.56 107.706 181.56H107.278V179.862H107.706C109.103 179.862 109.802 179.395 109.802 178.46C109.802 178.037 109.674 177.708 109.418 177.472C109.172 177.236 108.813 177.118 108.341 177.118C107.879 177.118 107.519 177.245 107.264 177.501C107.018 177.747 106.875 178.062 106.836 178.446H104.814ZM121.145 177.398H116.364V179.921C116.57 179.666 116.865 179.459 117.249 179.302C117.633 179.134 118.041 179.051 118.474 179.051C119.261 179.051 119.905 179.223 120.407 179.567C120.909 179.912 121.273 180.354 121.499 180.895C121.725 181.427 121.839 181.997 121.839 182.607C121.839 183.739 121.514 184.649 120.865 185.337C120.225 186.026 119.31 186.37 118.12 186.37C116.998 186.37 116.103 186.09 115.434 185.529C114.765 184.969 114.386 184.236 114.298 183.33H116.305C116.393 183.724 116.59 184.039 116.895 184.275C117.21 184.511 117.608 184.629 118.09 184.629C118.671 184.629 119.109 184.447 119.404 184.083C119.699 183.719 119.846 183.237 119.846 182.637C119.846 182.027 119.694 181.564 119.389 181.25C119.094 180.925 118.656 180.763 118.075 180.763C117.662 180.763 117.318 180.866 117.042 181.073C116.767 181.279 116.57 181.555 116.452 181.899H114.475V175.583H121.145V177.398ZM125.507 180.674C124.523 180.163 124.031 179.371 124.031 178.298C124.031 177.767 124.164 177.285 124.429 176.852C124.705 176.409 125.113 176.06 125.654 175.804C126.205 175.538 126.874 175.406 127.661 175.406C128.448 175.406 129.112 175.538 129.654 175.804C130.204 176.06 130.613 176.409 130.878 176.852C131.154 177.285 131.292 177.767 131.292 178.298C131.292 178.839 131.159 179.316 130.893 179.73C130.628 180.133 130.273 180.448 129.831 180.674C130.372 180.91 130.795 181.255 131.1 181.707C131.405 182.16 131.557 182.696 131.557 183.316C131.557 183.985 131.385 184.57 131.041 185.072C130.706 185.564 130.244 185.943 129.654 186.208C129.063 186.474 128.399 186.607 127.661 186.607C126.923 186.607 126.259 186.474 125.669 186.208C125.089 185.943 124.626 185.564 124.282 185.072C123.947 184.57 123.78 183.985 123.78 183.316C123.78 182.696 123.933 182.16 124.238 181.707C124.543 181.245 124.966 180.9 125.507 180.674ZM129.285 178.593C129.285 178.111 129.137 177.737 128.842 177.472C128.557 177.206 128.163 177.073 127.661 177.073C127.169 177.073 126.776 177.206 126.481 177.472C126.195 177.737 126.053 178.116 126.053 178.608C126.053 179.051 126.2 179.405 126.495 179.671C126.8 179.936 127.189 180.069 127.661 180.069C128.134 180.069 128.522 179.936 128.827 179.671C129.132 179.395 129.285 179.036 129.285 178.593ZM127.661 181.574C127.1 181.574 126.643 181.717 126.289 182.002C125.944 182.288 125.772 182.696 125.772 183.227C125.772 183.719 125.94 184.122 126.274 184.437C126.618 184.742 127.081 184.895 127.661 184.895C128.242 184.895 128.699 184.737 129.034 184.422C129.368 184.108 129.535 183.709 129.535 183.227C129.535 182.706 129.363 182.302 129.019 182.017C128.675 181.722 128.222 181.574 127.661 181.574Z" fill="white"/>
<path d="M59.639 262.595H55.406L54.6787 264.661H52.9477L56.5697 254.537H58.4898L62.1119 264.661H60.3663L59.639 262.595ZM59.1735 261.243L57.5298 256.544L55.8715 261.243H59.1735ZM65.6359 257.81C65.8784 257.402 66.1984 257.087 66.596 256.864C67.0033 256.631 67.4833 256.515 68.0361 256.515V258.231H67.6142C66.9645 258.231 66.4699 258.396 66.1305 258.726C65.8008 259.056 65.6359 259.628 65.6359 260.442V264.661H63.9777V256.646H65.6359V257.81ZM77.1972 260.457C77.1972 260.758 77.1778 261.029 77.139 261.272H71.015C71.0635 261.912 71.3011 262.426 71.7278 262.814C72.1545 263.201 72.6781 263.395 73.2988 263.395C74.1909 263.395 74.8213 263.022 75.1898 262.275H76.979C76.7365 263.012 76.2953 263.618 75.6553 264.094C75.0249 264.559 74.2394 264.792 73.2988 264.792C72.5327 264.792 71.8441 264.622 71.2332 264.283C70.632 263.934 70.1568 263.449 69.8077 262.828C69.4682 262.198 69.2985 261.47 69.2985 260.646C69.2985 259.822 69.4634 259.099 69.7931 258.479C70.1325 257.848 70.6029 257.363 71.2041 257.024C71.8151 256.685 72.5133 256.515 73.2988 256.515C74.0552 256.515 74.7292 256.68 75.3207 257.01C75.9123 257.339 76.3729 257.805 76.7026 258.406C77.0323 258.998 77.1972 259.681 77.1972 260.457ZM75.4662 259.933C75.4565 259.322 75.2383 258.833 74.8116 258.464C74.3849 258.096 73.8564 257.911 73.226 257.911C72.6539 257.911 72.1642 258.096 71.7569 258.464C71.3496 258.823 71.1071 259.313 71.0295 259.933H75.4662ZM83.1639 256.515C83.7942 256.515 84.3567 256.646 84.8513 256.908C85.3555 257.17 85.7483 257.557 86.0295 258.071C86.3107 258.585 86.4514 259.206 86.4514 259.933V264.661H84.8076V260.181C84.8076 259.463 84.6282 258.915 84.2694 258.537C83.9106 258.149 83.4209 257.955 82.8002 257.955C82.1796 257.955 81.685 258.149 81.3165 258.537C80.9577 258.915 80.7783 259.463 80.7783 260.181V264.661H79.12V256.646H80.7783V257.562C81.0498 257.233 81.3941 256.976 81.8111 256.791C82.2378 256.607 82.6887 256.515 83.1639 256.515ZM88.3048 260.617C88.3048 259.812 88.4696 259.099 88.7993 258.479C89.1387 257.858 89.5945 257.378 90.1667 257.039C90.7485 256.69 91.3886 256.515 92.0868 256.515C92.7171 256.515 93.2651 256.641 93.7305 256.893C94.2057 257.136 94.5839 257.441 94.8651 257.81V256.646H96.538V264.661H94.8651V263.468C94.5839 263.846 94.2009 264.161 93.716 264.414C93.2311 264.666 92.6784 264.792 92.0577 264.792C91.3692 264.792 90.7388 264.617 90.1667 264.268C89.5945 263.909 89.1387 263.415 88.7993 262.784C88.4696 262.144 88.3048 261.422 88.3048 260.617ZM94.8651 260.646C94.8651 260.093 94.7488 259.613 94.516 259.206C94.293 258.799 93.9972 258.488 93.6287 258.275C93.2602 258.062 92.8626 257.955 92.4359 257.955C92.0092 257.955 91.6116 258.062 91.2431 258.275C90.8746 258.479 90.574 258.784 90.3412 259.191C90.1182 259.589 90.0067 260.064 90.0067 260.617C90.0067 261.17 90.1182 261.655 90.3412 262.072C90.574 262.489 90.8746 262.809 91.2431 263.032C91.6213 263.245 92.0189 263.352 92.4359 263.352C92.8626 263.352 93.2602 263.245 93.6287 263.032C93.9972 262.818 94.293 262.508 94.516 262.101C94.7488 261.684 94.8651 261.199 94.8651 260.646ZM103.775 262.406C104.706 261.601 105.438 260.942 105.971 260.428C106.514 259.904 106.965 259.361 107.324 258.799C107.683 258.236 107.862 257.674 107.862 257.111C107.862 256.53 107.722 256.074 107.44 255.744C107.169 255.414 106.737 255.249 106.146 255.249C105.574 255.249 105.128 255.434 104.808 255.802C104.497 256.161 104.332 256.646 104.313 257.257H102.713C102.742 256.151 103.072 255.308 103.702 254.726C104.342 254.134 105.152 253.838 106.131 253.838C107.188 253.838 108.013 254.129 108.604 254.711C109.205 255.293 109.506 256.069 109.506 257.039C109.506 257.737 109.327 258.411 108.968 259.061C108.619 259.701 108.197 260.278 107.702 260.792C107.217 261.296 106.597 261.883 105.84 262.552L105.186 263.134H109.797V264.515H102.727V263.308L103.775 262.406ZM115.196 260.602L117.785 264.661H115.909L114.178 261.941L112.548 264.661H110.817L113.407 260.719L110.817 256.646H112.694L114.425 259.366L116.054 256.646H117.785L115.196 260.602ZM120.011 262.406C120.942 261.601 121.674 260.942 122.207 260.428C122.75 259.904 123.201 259.361 123.56 258.799C123.919 258.236 124.098 257.674 124.098 257.111C124.098 256.53 123.958 256.074 123.677 255.744C123.405 255.414 122.974 255.249 122.382 255.249C121.81 255.249 121.364 255.434 121.044 255.802C120.733 256.161 120.569 256.646 120.549 257.257H118.949C118.978 256.151 119.308 255.308 119.938 254.726C120.578 254.134 121.388 253.838 122.367 253.838C123.424 253.838 124.249 254.129 124.84 254.711C125.442 255.293 125.742 256.069 125.742 257.039C125.742 257.737 125.563 258.411 125.204 259.061C124.855 259.701 124.433 260.278 123.938 260.792C123.454 261.296 122.833 261.883 122.077 262.552L121.422 263.134H126.033V264.515H118.964V263.308L120.011 262.406Z" fill="white"/>
<rect opacity="0.1" x="18.231" y="209.421" width="160.175" height="8.36257" rx="1.87824" fill="white"/>
<rect opacity="0.1" x="18.231" y="224.216" width="112.573" height="8.36257" rx="1.87824" fill="white"/>
<circle cx="231.571" cy="173.814" r="2.34606" fill="white"/>
<circle cx="239.196" cy="173.814" r="2.34606" fill="white"/>
<circle cx="246.821" cy="173.814" r="2.34606" fill="white"/>
<rect x="18.231" y="247.374" width="25.731" height="25.731" rx="12.8655" fill="white" fill-opacity="0.1"/>
<path d="M29.4556 263.894L27.3909 261.829C27.2885 261.727 27.1226 261.727 27.0202 261.829L26.7323 262.117C26.63 262.219 26.63 262.385 26.7323 262.488L28.797 264.552C28.8993 264.655 29.0653 264.655 29.1677 264.552L29.4556 264.264C29.5579 264.162 29.5579 263.996 29.4556 263.894Z" fill="white"/>
<path d="M28.1977 263.807L27.4777 263.087C27.4104 263.02 27.3015 263.02 27.2343 263.087L26.13 264.191C26.0627 264.259 26.0627 264.368 26.13 264.435L26.85 265.155C26.9172 265.222 27.0262 265.222 27.0934 265.155L28.1977 264.051C28.2649 263.983 28.2649 263.874 28.1977 263.807Z" fill="white"/>
<path d="M26.1683 263.947L27.3378 265.116C27.416 265.194 27.416 265.321 27.3378 265.399L27.1451 265.592C26.8494 265.887 26.3697 265.887 26.0744 265.592L25.6926 265.21C25.397 264.914 25.3973 264.435 25.6926 264.139L25.8854 263.947C25.9635 263.868 26.0902 263.868 26.1683 263.947Z" fill="white"/>
<path d="M28.8591 260.615L30.7689 262.337C30.3749 262.692 29.9804 263.048 29.5864 263.404C29.0181 262.835 28.4497 262.267 27.8818 261.699L28.8591 260.615Z" fill="white"/>
<path d="M36.8179 254.467L35.8765 257.617C35.8463 257.718 35.7887 257.809 35.7105 257.879C35.0666 258.46 34.4231 259.04 33.7792 259.621C33.6403 259.746 33.5014 259.871 33.3625 259.997L31.3905 257.81L31.3774 257.822L31.7671 257.39L33.4053 255.574C33.4756 255.495 33.5665 255.438 33.6678 255.408L36.8179 254.467Z" fill="white"/>
<path d="M34.7998 261.828L32.7351 263.893C32.6328 263.995 32.6328 264.161 32.7351 264.264L33.023 264.551C33.1254 264.654 33.2913 264.654 33.3937 264.551L35.4584 262.487C35.5607 262.384 35.5607 262.219 35.4584 262.116L35.1705 261.828C35.0681 261.726 34.9021 261.726 34.7998 261.828Z" fill="white"/>
<path d="M34.7128 263.088L33.9928 263.808C33.9256 263.875 33.9256 263.984 33.9928 264.051L35.0971 265.155C35.1643 265.223 35.2733 265.223 35.3405 265.155L36.0605 264.435C36.1277 264.368 36.1277 264.259 36.0605 264.192L34.9562 263.088C34.889 263.02 34.78 263.02 34.7128 263.088Z" fill="white"/>
<path d="M34.8524 265.117L36.0219 263.948C36.1 263.869 36.2267 263.869 36.3048 263.948L36.4976 264.14C36.7932 264.436 36.7929 264.916 36.4976 265.211L36.1158 265.593C35.8202 265.888 35.3405 265.888 35.0452 265.593L34.8524 265.4C34.7743 265.322 34.7743 265.195 34.8524 265.117Z" fill="white"/>
<path d="M26.3135 257.617C26.3436 257.718 26.4013 257.809 26.4795 257.879L28.2954 259.517L30.5264 261.53L32.604 263.403C32.8045 263.202 33.005 263.001 33.2051 262.8C33.3746 262.63 33.5441 262.461 33.714 262.291C33.9123 262.094 34.1102 261.896 34.3085 261.698C33.6528 260.971 32.9971 260.244 32.341 259.517C31.736 258.846 31.131 258.175 30.5264 257.505C29.9458 256.861 29.3652 256.218 28.7847 255.574C28.7139 255.495 28.623 255.438 28.5221 255.408L25.3721 254.467L26.3135 257.617Z" fill="white"/>
<rect x="1.50586" y="311.058" width="264.386" height="129.942" rx="16.1746" fill="white" fill-opacity="0.08"/>
<rect x="1.50586" y="311.058" width="264.386" height="129.942" rx="16.1746" stroke="white" stroke-opacity="0.4" stroke-width="1.28655" stroke-dasharray="7.08 7.08"/>
<path d="M23.516 341.957C22.5518 341.957 21.6664 341.731 20.8597 341.278C20.0529 340.826 19.4134 340.201 18.9412 339.404C18.4689 338.597 18.2328 337.687 18.2328 336.674C18.2328 335.67 18.4689 334.77 18.9412 333.973C19.4134 333.167 20.0529 332.537 20.8597 332.084C21.6664 331.632 22.5518 331.406 23.516 331.406C24.49 331.406 25.3754 331.632 26.1723 332.084C26.9791 332.537 27.6137 333.167 28.0761 333.973C28.5483 334.77 28.7844 335.67 28.7844 336.674C28.7844 337.687 28.5483 338.597 28.0761 339.404C27.6137 340.201 26.9791 340.826 26.1723 341.278C25.3656 341.731 24.4802 341.957 23.516 341.957ZM23.516 340.112C24.1358 340.112 24.6818 339.975 25.1541 339.699C25.6263 339.414 25.9953 339.011 26.2609 338.489C26.5265 337.968 26.6593 337.363 26.6593 336.674C26.6593 335.985 26.5265 335.385 26.2609 334.874C25.9953 334.352 25.6263 333.954 25.1541 333.678C24.6818 333.403 24.1358 333.265 23.516 333.265C22.8962 333.265 22.3452 333.403 21.8632 333.678C21.3909 333.954 21.022 334.352 20.7564 334.874C20.4907 335.385 20.3579 335.985 20.3579 336.674C20.3579 337.363 20.4907 337.968 20.7564 338.489C21.022 339.011 21.3909 339.414 21.8632 339.699C22.3452 339.975 22.8962 340.112 23.516 340.112ZM32.6827 334.947C32.9483 334.514 33.2927 334.175 33.7157 333.929C34.1486 333.683 34.6405 333.56 35.1915 333.56V335.729H34.6454C33.9961 335.729 33.5042 335.882 33.1697 336.187C32.845 336.492 32.6827 337.023 32.6827 337.781V341.854H30.6167V333.678H32.6827V334.947ZM36.3469 337.736C36.3469 336.91 36.5093 336.177 36.8339 335.538C37.1684 334.898 37.621 334.406 38.1916 334.062C38.7622 333.718 39.3968 333.545 40.0953 333.545C40.6266 333.545 41.1333 333.663 41.6154 333.9C42.0974 334.126 42.4811 334.431 42.7664 334.815V330.933H44.862V341.854H42.7664V340.644C42.5106 341.047 42.1515 341.372 41.6891 341.618C41.2267 341.864 40.6906 341.987 40.0806 341.987C39.3919 341.987 38.7622 341.81 38.1916 341.455C37.621 341.101 37.1684 340.604 36.8339 339.965C36.5093 339.316 36.3469 338.573 36.3469 337.736ZM42.7812 337.766C42.7812 337.264 42.6828 336.836 42.4861 336.482C42.2893 336.118 42.0237 335.843 41.6891 335.656C41.3546 335.459 40.9955 335.361 40.6119 335.361C40.2282 335.361 39.874 335.454 39.5493 335.641C39.2246 335.828 38.959 336.103 38.7524 336.467C38.5556 336.822 38.4573 337.245 38.4573 337.736C38.4573 338.228 38.5556 338.661 38.7524 339.035C38.959 339.399 39.2246 339.68 39.5493 339.876C39.8838 340.073 40.238 340.171 40.6119 340.171C40.9955 340.171 41.3546 340.078 41.6891 339.891C42.0237 339.694 42.2893 339.419 42.4861 339.065C42.6828 338.701 42.7812 338.268 42.7812 337.766ZM54.7751 337.589C54.7751 337.884 54.7554 338.15 54.7161 338.386H48.7393C48.7885 338.976 48.9951 339.439 49.3591 339.773C49.7231 340.108 50.1708 340.275 50.702 340.275C51.4694 340.275 52.0155 339.945 52.3401 339.286H54.5685C54.3324 340.073 53.8798 340.722 53.2108 341.234C52.5418 341.736 51.7203 341.987 50.7463 341.987C49.9593 341.987 49.2509 341.814 48.6212 341.47C48.0014 341.116 47.5144 340.619 47.1603 339.98C46.8159 339.34 46.6437 338.602 46.6437 337.766C46.6437 336.92 46.8159 336.177 47.1603 335.538C47.5046 334.898 47.9867 334.406 48.6065 334.062C49.2263 333.718 49.9396 333.545 50.7463 333.545C51.5235 333.545 52.2172 333.713 52.8271 334.047C53.4469 334.382 53.9241 334.859 54.2586 335.479C54.6029 336.089 54.7751 336.792 54.7751 337.589ZM52.6353 336.999C52.6254 336.467 52.4336 336.044 52.0597 335.729C51.6859 335.405 51.2284 335.242 50.6873 335.242C50.1757 335.242 49.7428 335.4 49.3886 335.715C49.0443 336.02 48.8328 336.448 48.7541 336.999H52.6353ZM58.6443 334.947C58.91 334.514 59.2543 334.175 59.6774 333.929C60.1103 333.683 60.6022 333.56 61.1531 333.56V335.729H60.6071C59.9578 335.729 59.4658 335.882 59.1313 336.187C58.8067 336.492 58.6443 337.023 58.6443 337.781V341.854H56.5783V333.678H58.6443V334.947Z" fill="white"/>
<rect x="72.0957" y="323.924" width="75.515" height="24.9515" rx="7.37874" fill="white" fill-opacity="0.1"/>
<path d="M88.2845 339.068C89.229 338.281 89.9816 337.627 90.5424 337.105C91.1032 336.574 91.5705 336.023 91.9444 335.452C92.3182 334.882 92.5051 334.321 92.5051 333.77C92.5051 333.268 92.3871 332.875 92.151 332.59C91.9148 332.304 91.5508 332.162 91.0589 332.162C90.567 332.162 90.1882 332.329 89.9226 332.663C89.6569 332.988 89.5192 333.436 89.5094 334.006H87.5024C87.5417 332.826 87.891 331.93 88.5501 331.32C89.2191 330.71 90.0652 330.405 91.0884 330.405C92.21 330.405 93.0708 330.705 93.671 331.306C94.2711 331.896 94.5712 332.678 94.5712 333.652C94.5712 334.419 94.3646 335.152 93.9514 335.851C93.5382 336.549 93.0659 337.159 92.5347 337.681C92.0034 338.192 91.3098 338.812 90.4539 339.54H94.8073V341.252H87.5171V339.717L88.2845 339.068ZM103.252 332.206L99.3263 341.4H97.2308L101.186 332.442H96.1387V330.671H103.252V332.206ZM104.814 333.475C104.863 332.491 105.207 331.734 105.847 331.202C106.496 330.661 107.347 330.391 108.4 330.391C109.118 330.391 109.733 330.519 110.245 330.774C110.756 331.02 111.14 331.36 111.396 331.793C111.661 332.216 111.794 332.698 111.794 333.239C111.794 333.859 111.632 334.385 111.307 334.818C110.992 335.241 110.614 335.526 110.171 335.674V335.733C110.742 335.91 111.184 336.225 111.499 336.677C111.824 337.13 111.986 337.71 111.986 338.419C111.986 339.009 111.848 339.535 111.573 339.998C111.307 340.46 110.909 340.824 110.377 341.09C109.856 341.346 109.226 341.474 108.489 341.474C107.377 341.474 106.472 341.193 105.773 340.632C105.075 340.072 104.706 339.245 104.666 338.153H106.673C106.693 338.635 106.855 339.024 107.16 339.319C107.475 339.604 107.903 339.747 108.444 339.747C108.946 339.747 109.33 339.609 109.595 339.334C109.871 339.048 110.009 338.684 110.009 338.242C110.009 337.651 109.822 337.228 109.448 336.972C109.074 336.717 108.493 336.589 107.706 336.589H107.278V334.892H107.706C109.103 334.892 109.802 334.424 109.802 333.49C109.802 333.067 109.674 332.737 109.418 332.501C109.172 332.265 108.813 332.147 108.341 332.147C107.879 332.147 107.519 332.275 107.264 332.53C107.018 332.776 106.875 333.091 106.836 333.475H104.814ZM121.145 332.427H116.364V334.951C116.57 334.695 116.865 334.488 117.249 334.331C117.633 334.164 118.041 334.08 118.474 334.08C119.261 334.08 119.905 334.252 120.407 334.597C120.909 334.941 121.273 335.384 121.499 335.925C121.725 336.456 121.839 337.027 121.839 337.637C121.839 338.768 121.514 339.678 120.865 340.367C120.225 341.055 119.31 341.4 118.12 341.4C116.998 341.4 116.103 341.119 115.434 340.559C114.765 339.998 114.386 339.265 114.298 338.36H116.305C116.393 338.753 116.59 339.068 116.895 339.304C117.21 339.54 117.608 339.658 118.09 339.658C118.671 339.658 119.109 339.476 119.404 339.112C119.699 338.748 119.846 338.266 119.846 337.666C119.846 337.056 119.694 336.594 119.389 336.279C119.094 335.954 118.656 335.792 118.075 335.792C117.662 335.792 117.318 335.895 117.042 336.102C116.767 336.308 116.57 336.584 116.452 336.928H114.475V330.612H121.145V332.427ZM125.507 335.703C124.523 335.192 124.031 334.4 124.031 333.327C124.031 332.796 124.164 332.314 124.429 331.881C124.705 331.438 125.113 331.089 125.654 330.833C126.205 330.568 126.874 330.435 127.661 330.435C128.448 330.435 129.112 330.568 129.654 330.833C130.204 331.089 130.613 331.438 130.878 331.881C131.154 332.314 131.292 332.796 131.292 333.327C131.292 333.868 131.159 334.346 130.893 334.759C130.628 335.162 130.273 335.477 129.831 335.703C130.372 335.939 130.795 336.284 131.1 336.736C131.405 337.189 131.557 337.725 131.557 338.345C131.557 339.014 131.385 339.599 131.041 340.101C130.706 340.593 130.244 340.972 129.654 341.237C129.063 341.503 128.399 341.636 127.661 341.636C126.923 341.636 126.259 341.503 125.669 341.237C125.089 340.972 124.626 340.593 124.282 340.101C123.947 339.599 123.78 339.014 123.78 338.345C123.78 337.725 123.933 337.189 124.238 336.736C124.543 336.274 124.966 335.93 125.507 335.703ZM129.285 333.623C129.285 333.14 129.137 332.767 128.842 332.501C128.557 332.235 128.163 332.103 127.661 332.103C127.169 332.103 126.776 332.235 126.481 332.501C126.195 332.767 126.053 333.145 126.053 333.637C126.053 334.08 126.2 334.434 126.495 334.7C126.8 334.965 127.189 335.098 127.661 335.098C128.134 335.098 128.522 334.965 128.827 334.7C129.132 334.424 129.285 334.065 129.285 333.623ZM127.661 336.604C127.1 336.604 126.643 336.746 126.289 337.032C125.944 337.317 125.772 337.725 125.772 338.256C125.772 338.748 125.94 339.152 126.274 339.466C126.618 339.771 127.081 339.924 127.661 339.924C128.242 339.924 128.699 339.767 129.034 339.452C129.368 339.137 129.535 338.738 129.535 338.256C129.535 337.735 129.363 337.332 129.019 337.046C128.675 336.751 128.222 336.604 127.661 336.604Z" fill="white"/>
<path d="M58.7953 419.69L56.4679 415.646H55.2024V419.69H53.5441V409.58H57.0352C57.811 409.58 58.4656 409.716 58.999 409.988C59.542 410.259 59.9445 410.623 60.2063 411.079C60.4778 411.534 60.6136 412.044 60.6136 412.606C60.6136 413.265 60.4197 413.867 60.0317 414.41C59.6535 414.943 59.0668 415.307 58.2716 415.501L60.7736 419.69H58.7953ZM55.2024 414.322H57.0352C57.6559 414.322 58.1213 414.167 58.4317 413.857C58.7517 413.547 58.9117 413.13 58.9117 412.606C58.9117 412.082 58.7565 411.675 58.4462 411.384C58.1359 411.083 57.6656 410.933 57.0352 410.933H55.2024V414.322ZM62.4731 415.646C62.4731 414.841 62.638 414.129 62.9677 413.508C63.3071 412.887 63.7629 412.407 64.3351 412.068C64.9169 411.719 65.557 411.544 66.2552 411.544C66.8855 411.544 67.4334 411.67 67.8989 411.922C68.3741 412.165 68.7523 412.47 69.0335 412.839V411.675H70.7064V419.69H69.0335V418.497C68.7523 418.875 68.3692 419.191 67.8844 419.443C67.3995 419.695 66.8467 419.821 66.2261 419.821C65.5376 419.821 64.9072 419.646 64.3351 419.297C63.7629 418.939 63.3071 418.444 62.9677 417.814C62.638 417.174 62.4731 416.451 62.4731 415.646ZM69.0335 415.675C69.0335 415.123 68.9172 414.642 68.6844 414.235C68.4614 413.828 68.1656 413.518 67.7971 413.304C67.4286 413.091 67.031 412.984 66.6043 412.984C66.1776 412.984 65.78 413.091 65.4115 413.304C65.043 413.508 64.7424 413.813 64.5096 414.221C64.2866 414.618 64.1751 415.093 64.1751 415.646C64.1751 416.199 64.2866 416.684 64.5096 417.101C64.7424 417.518 65.043 417.838 65.4115 418.061C65.7897 418.274 66.1873 418.381 66.6043 418.381C67.031 418.381 67.4286 418.274 67.7971 418.061C68.1656 417.848 68.4614 417.537 68.6844 417.13C68.9172 416.713 69.0335 416.228 69.0335 415.675ZM74.019 410.613C73.7184 410.613 73.4663 410.511 73.2626 410.308C73.059 410.104 72.9572 409.852 72.9572 409.551C72.9572 409.251 73.059 408.999 73.2626 408.795C73.4663 408.591 73.7184 408.489 74.019 408.489C74.31 408.489 74.5573 408.591 74.7609 408.795C74.9646 408.999 75.0664 409.251 75.0664 409.551C75.0664 409.852 74.9646 410.104 74.7609 410.308C74.5573 410.511 74.31 410.613 74.019 410.613ZM74.8336 411.675V419.69H73.1754V411.675H74.8336ZM76.749 415.646C76.749 414.841 76.9138 414.129 77.2435 413.508C77.583 412.887 78.0387 412.407 78.6109 412.068C79.1928 411.719 79.8376 411.544 80.5456 411.544C81.0692 411.544 81.5832 411.661 82.0875 411.893C82.6014 412.116 83.0087 412.417 83.3094 412.795V408.926H84.9822V419.69H83.3094V418.483C83.0378 418.871 82.6596 419.191 82.1747 419.443C81.6996 419.695 81.1517 419.821 80.531 419.821C79.8328 419.821 79.1928 419.646 78.6109 419.297C78.0387 418.939 77.583 418.444 77.2435 417.814C76.9138 417.174 76.749 416.451 76.749 415.646ZM83.3094 415.675C83.3094 415.123 83.193 414.642 82.9602 414.235C82.7372 413.828 82.4414 413.518 82.0729 413.304C81.7044 413.091 81.3068 412.984 80.8801 412.984C80.4534 412.984 80.0558 413.091 79.6873 413.304C79.3188 413.508 79.0182 413.813 78.7855 414.221C78.5624 414.618 78.4509 415.093 78.4509 415.646C78.4509 416.199 78.5624 416.684 78.7855 417.101C79.0182 417.518 79.3188 417.838 79.6873 418.061C80.0655 418.274 80.4631 418.381 80.8801 418.381C81.3068 418.381 81.7044 418.274 82.0729 418.061C82.4414 417.848 82.7372 417.537 82.9602 417.13C83.193 416.713 83.3094 416.228 83.3094 415.675ZM96.932 414.497C97.475 414.594 97.9357 414.88 98.3139 415.355C98.6921 415.83 98.8812 416.369 98.8812 416.97C98.8812 417.484 98.7454 417.949 98.4739 418.366C98.212 418.774 97.829 419.099 97.3247 419.341C96.8205 419.574 96.2338 419.69 95.5646 419.69H91.5207V409.58H95.3755C96.064 409.58 96.6556 409.697 97.1502 409.929C97.6447 410.162 98.0181 410.477 98.2702 410.875C98.5224 411.263 98.6484 411.699 98.6484 412.184C98.6484 412.766 98.4933 413.251 98.183 413.639C97.8726 414.027 97.4556 414.313 96.932 414.497ZM93.179 413.828H95.2301C95.7731 413.828 96.195 413.707 96.4956 413.464C96.8059 413.212 96.9611 412.853 96.9611 412.388C96.9611 411.932 96.8059 411.578 96.4956 411.326C96.195 411.064 95.7731 410.933 95.2301 410.933H93.179V413.828ZM95.4192 418.337C95.9816 418.337 96.4229 418.201 96.7429 417.93C97.0629 417.658 97.2229 417.28 97.2229 416.795C97.2229 416.301 97.0532 415.908 96.7138 415.617C96.3744 415.326 95.9234 415.181 95.361 415.181H93.179V418.337H95.4192ZM104.451 419.821C103.694 419.821 103.011 419.651 102.4 419.312C101.789 418.963 101.309 418.478 100.96 417.857C100.61 417.227 100.436 416.5 100.436 415.675C100.436 414.861 100.615 414.138 100.974 413.508C101.333 412.878 101.823 412.393 102.443 412.053C103.064 411.714 103.757 411.544 104.523 411.544C105.29 411.544 105.983 411.714 106.604 412.053C107.224 412.393 107.714 412.878 108.073 413.508C108.432 414.138 108.611 414.861 108.611 415.675C108.611 416.49 108.427 417.212 108.058 417.843C107.69 418.473 107.185 418.963 106.545 419.312C105.915 419.651 105.217 419.821 104.451 419.821ZM104.451 418.381C104.877 418.381 105.275 418.279 105.644 418.075C106.022 417.872 106.327 417.566 106.56 417.159C106.793 416.752 106.909 416.257 106.909 415.675C106.909 415.093 106.798 414.604 106.574 414.206C106.351 413.799 106.056 413.493 105.687 413.29C105.319 413.086 104.921 412.984 104.494 412.984C104.068 412.984 103.67 413.086 103.302 413.29C102.943 413.493 102.657 413.799 102.443 414.206C102.23 414.604 102.123 415.093 102.123 415.675C102.123 416.538 102.341 417.207 102.778 417.683C103.224 418.148 103.782 418.381 104.451 418.381ZM114.018 419.821C113.261 419.821 112.578 419.651 111.967 419.312C111.356 418.963 110.876 418.478 110.527 417.857C110.178 417.227 110.003 416.5 110.003 415.675C110.003 414.861 110.182 414.138 110.541 413.508C110.9 412.878 111.39 412.393 112.01 412.053C112.631 411.714 113.324 411.544 114.09 411.544C114.857 411.544 115.55 411.714 116.171 412.053C116.791 412.393 117.281 412.878 117.64 413.508C117.999 414.138 118.178 414.861 118.178 415.675C118.178 416.49 117.994 417.212 117.625 417.843C117.257 418.473 116.752 418.963 116.112 419.312C115.482 419.651 114.784 419.821 114.018 419.821ZM114.018 418.381C114.444 418.381 114.842 418.279 115.211 418.075C115.589 417.872 115.894 417.566 116.127 417.159C116.36 416.752 116.476 416.257 116.476 415.675C116.476 415.093 116.365 414.604 116.142 414.206C115.918 413.799 115.623 413.493 115.254 413.29C114.886 413.086 114.488 412.984 114.061 412.984C113.635 412.984 113.237 413.086 112.869 413.29C112.51 413.493 112.224 413.799 112.01 414.206C111.797 414.604 111.69 415.093 111.69 415.675C111.69 416.538 111.909 417.207 112.345 417.683C112.791 418.148 113.349 418.381 114.018 418.381ZM123.017 419.821C122.387 419.821 121.82 419.709 121.316 419.486C120.821 419.254 120.428 418.943 120.137 418.555C119.846 418.158 119.691 417.717 119.672 417.232H121.388C121.417 417.571 121.577 417.857 121.868 418.09C122.169 418.313 122.542 418.425 122.988 418.425C123.454 418.425 123.813 418.337 124.065 418.163C124.327 417.978 124.458 417.746 124.458 417.464C124.458 417.164 124.312 416.941 124.021 416.795C123.74 416.65 123.289 416.49 122.668 416.315C122.067 416.15 121.577 415.99 121.199 415.835C120.821 415.68 120.491 415.443 120.21 415.123C119.939 414.803 119.803 414.381 119.803 413.857C119.803 413.43 119.929 413.042 120.181 412.693C120.433 412.334 120.792 412.053 121.257 411.85C121.733 411.646 122.276 411.544 122.887 411.544C123.798 411.544 124.53 411.777 125.083 412.242C125.646 412.698 125.946 413.324 125.985 414.119H124.327C124.298 413.76 124.152 413.474 123.89 413.261C123.628 413.047 123.274 412.941 122.828 412.941C122.392 412.941 122.057 413.023 121.825 413.188C121.592 413.353 121.476 413.571 121.476 413.842C121.476 414.056 121.553 414.235 121.708 414.381C121.863 414.526 122.053 414.642 122.276 414.73C122.499 414.807 122.828 414.909 123.265 415.035C123.847 415.19 124.322 415.35 124.69 415.515C125.069 415.67 125.393 415.903 125.665 416.213C125.936 416.524 126.077 416.936 126.087 417.45C126.087 417.906 125.961 418.313 125.709 418.672C125.456 419.031 125.098 419.312 124.632 419.516C124.176 419.719 123.638 419.821 123.017 419.821ZM130.104 413.028V417.464C130.104 417.765 130.172 417.983 130.308 418.119C130.453 418.245 130.696 418.308 131.035 418.308H132.053V419.69H130.744C129.997 419.69 129.425 419.516 129.028 419.166C128.63 418.817 128.431 418.25 128.431 417.464V413.028H127.486V411.675H128.431V409.682H130.104V411.675H132.053V413.028H130.104Z" fill="white"/>
<rect opacity="0.1" x="18.231" y="364.45" width="160.175" height="8.36257" rx="1.87824" fill="white"/>
<rect opacity="0.1" x="18.231" y="379.246" width="112.573" height="8.36257" rx="1.87824" fill="white"/>
<circle cx="231.571" cy="328.843" r="2.34606" fill="white"/>
<circle cx="239.196" cy="328.843" r="2.34606" fill="white"/>
<circle cx="246.821" cy="328.843" r="2.34606" fill="white"/>
<rect x="18.231" y="402.404" width="25.731" height="25.731" rx="12.8655" fill="white" fill-opacity="0.1"/>
<path d="M36.3056 414.578C36.3056 411.681 33.9575 409.332 31.0615 409.332C28.1655 409.332 25.8174 411.681 25.8174 414.578C25.8174 415.508 26.0075 415.98 26.0075 415.98C26.3039 416.706 26.6302 417.042 26.4849 417.447C26.4021 417.678 26.361 417.74 26.2451 418.139C26.2377 418.165 26.1928 418.337 26.1928 418.526C26.1928 419.33 26.8454 419.983 27.6496 419.983C27.7142 419.983 27.883 419.989 28.0811 419.918C28.5254 419.76 28.5489 419.525 28.8592 419.433C28.8955 419.422 28.9291 419.415 28.9612 419.411C28.9895 419.417 29.0413 419.431 29.0851 419.47C29.1524 419.528 29.1716 419.621 29.1753 419.702C29.1753 419.866 29.1764 420.029 29.1764 420.194H29.1801V420.979C29.1801 421.105 29.2827 421.208 29.4092 421.208H30.0367C30.1633 421.208 30.2658 421.105 30.2658 420.979V420.194C30.3502 420.194 30.4351 420.194 30.5194 420.194V420.978C30.5194 421.105 30.622 421.207 30.7485 421.207H31.376C31.5026 421.207 31.6051 421.105 31.6051 420.978V420.195C31.6895 420.195 31.7744 420.195 31.8588 420.195V420.978C31.8588 421.105 31.9613 421.207 32.0879 421.207H32.7153C32.8419 421.207 32.9444 421.105 32.9444 420.978V419.758C32.946 419.739 32.9476 419.719 32.9498 419.701C32.9599 419.61 32.9738 419.528 33.04 419.469C33.0812 419.432 33.1281 419.418 33.165 419.411C33.1965 419.415 33.2296 419.422 33.2659 419.432C33.5762 419.524 33.5997 419.76 34.044 419.918C34.2416 419.988 34.4103 419.982 34.4755 419.982C35.2797 419.982 35.9323 419.33 35.9323 418.525C35.9323 418.335 35.8874 418.164 35.88 418.139C35.7635 417.739 35.7224 417.677 35.6402 417.447C35.4949 417.042 35.8212 416.706 36.1176 415.98C36.1176 415.98 36.3077 415.508 36.3077 414.578L36.3056 414.578ZM31.0625 417.434C31.4262 417.434 31.7242 418.373 31.5715 418.579C31.5629 418.59 31.5506 418.598 31.5469 418.602C31.43 418.699 31.3077 418.649 31.0545 418.65C30.811 418.65 30.6909 418.696 30.5771 418.602C30.5745 418.599 30.56 418.589 30.5526 418.579C30.3998 418.374 30.6978 417.434 31.0615 417.434L31.0625 417.434ZM27.7714 416.51C27.7553 416.431 27.6795 416.045 27.9118 415.753C28.1179 415.495 28.4592 415.496 29.021 415.49C29.579 415.483 29.8984 415.479 30.112 415.718C30.371 416.008 30.2834 416.442 30.2706 416.51C30.1675 417.026 29.6629 417.531 29.021 417.531C28.3791 417.531 27.8755 417.035 27.7714 416.51ZM34.3521 416.51C34.2491 417.026 33.7444 417.531 33.1025 417.531C32.4606 417.531 31.957 417.035 31.8529 416.51C31.8369 416.431 31.761 416.045 31.9933 415.753C32.1995 415.495 32.5407 415.496 33.1025 415.49C33.6606 415.483 33.9799 415.479 34.1935 415.718C34.4525 416.008 34.3649 416.442 34.3521 416.51Z" fill="white"/>
<defs>
<filter id="filter0_b_718_12335" x="343.728" y="-44.6726" width="221.287" height="221.287" filterUnits="userSpaceOnUse" color-interpolation-filters="sRGB">
<feFlood flood-opacity="0" result="BackgroundImageFix"/>
<feGaussianBlur in="BackgroundImageFix" stdDeviation="22.5146"/>
<feComposite in2="SourceAlpha" operator="in" result="effect1_backgroundBlur_718_12335"/>
<feBlend mode="normal" in="SourceGraphic" in2="effect1_backgroundBlur_718_12335" result="shape"/>
</filter>
<radialGradient id="paint0_radial_718_12335" cx="0" cy="0" r="1" gradientUnits="userSpaceOnUse" gradientTransform="translate(580 81.5) rotate(-179.468) scale(185.084 74.6705)">
<stop stop-color="#935E5D"/>
<stop offset="0.606" stop-color="#161635"/>
</radialGradient>
<linearGradient id="paint1_linear_718_12335" x1="458.373" y1="50.3586" x2="470.209" y2="11.0739" gradientUnits="userSpaceOnUse">
<stop stop-color="#FF6E75"/>
<stop offset="1" stop-color="#FBBE7E"/>
</linearGradient>
<linearGradient id="paint2_linear_718_12335" x1="511.413" y1="333.901" x2="463.896" y2="403.116" gradientUnits="userSpaceOnUse">
<stop offset="0.29" stop-color="#FBBE7E"/>
<stop offset="0.915" stop-color="#FF6E75"/>
</linearGradient>
<clipPath id="clip0_718_12335">
<rect x="389.4" y="1" width="129.942" height="129.942" rx="15.1095" fill="white"/>
</clipPath>
<clipPath id="clip1_718_12335">
<rect x="389.4" y="156.029" width="129.942" height="129.942" rx="15.4692" fill="white"/>
</clipPath>
</defs>
</svg>
