<svg width="579" height="368" viewBox="0 0 579 368" fill="none" xmlns="http://www.w3.org/2000/svg">
<rect x="102.84" y="1.38037" width="171.862" height="51.7655" rx="6.90207" fill="url(#paint0_linear_778_25205)" fill-opacity="0.1"/>
<path d="M158.744 23.2737V29.3613C158.744 30.2061 158.499 30.8646 158.011 31.3367C157.522 31.8005 156.868 32.0324 156.048 32.0324C155.219 32.0324 154.549 31.7922 154.035 31.3118C153.53 30.8314 153.277 30.1606 153.277 29.2992H155.016C155.025 29.6719 155.112 29.9618 155.277 30.1688C155.451 30.3759 155.7 30.4794 156.023 30.4794C156.338 30.4794 156.578 30.38 156.743 30.1813C156.909 29.9825 156.992 29.7092 156.992 29.3613V23.2737H158.744ZM160.574 28.4792C160.574 27.7835 160.71 27.1664 160.984 26.6281C161.265 26.0897 161.642 25.6756 162.114 25.3857C162.595 25.0958 163.129 24.9509 163.717 24.9509C164.23 24.9509 164.678 25.0544 165.059 25.2615C165.448 25.4685 165.759 25.7294 165.991 26.0442V25.0627H167.742V31.9454H165.991V30.9391C165.767 31.2621 165.456 31.5313 165.059 31.7467C164.669 31.9537 164.218 32.0572 163.705 32.0572C163.125 32.0572 162.595 31.9082 162.114 31.61C161.642 31.3118 161.265 30.8936 160.984 30.3552C160.71 29.8086 160.574 29.1832 160.574 28.4792ZM165.991 28.5041C165.991 28.0817 165.908 27.7214 165.742 27.4232C165.576 27.1167 165.353 26.8848 165.071 26.7275C164.79 26.5618 164.487 26.479 164.164 26.479C163.841 26.479 163.543 26.5577 163.27 26.715C162.996 26.8724 162.773 27.1043 162.599 27.4108C162.433 27.7089 162.35 28.0651 162.35 28.4792C162.35 28.8933 162.433 29.2578 162.599 29.5725C162.773 29.879 162.996 30.115 163.27 30.2807C163.551 30.4463 163.849 30.5291 164.164 30.5291C164.487 30.5291 164.79 30.4504 165.071 30.2931C165.353 30.1274 165.576 29.8955 165.742 29.5973C165.908 29.2909 165.991 28.9265 165.991 28.5041ZM172.559 30.3428L174.299 25.0627H176.15L173.603 31.9454H171.491L168.956 25.0627H170.82L172.559 30.3428ZM183.773 28.355C183.773 28.6035 183.757 28.8271 183.724 29.0259H178.692C178.734 29.5228 178.907 29.9121 179.214 30.1937C179.52 30.4753 179.897 30.6161 180.344 30.6161C180.991 30.6161 181.45 30.3386 181.724 29.7837H183.6C183.401 30.4463 183.02 30.9929 182.457 31.4236C181.893 31.846 181.202 32.0572 180.382 32.0572C179.719 32.0572 179.123 31.9123 178.593 31.6224C178.071 31.3242 177.661 30.906 177.363 30.3676C177.073 29.8293 176.928 29.2081 176.928 28.5041C176.928 27.7918 177.073 27.1664 177.363 26.6281C177.653 26.0897 178.059 25.6756 178.58 25.3857C179.102 25.0958 179.703 24.9509 180.382 24.9509C181.036 24.9509 181.62 25.0917 182.134 25.3733C182.655 25.6549 183.057 26.0566 183.339 26.5784C183.628 27.0919 183.773 27.6841 183.773 28.355ZM181.972 27.858C181.964 27.4108 181.802 27.0546 181.487 26.7896C181.173 26.5163 180.788 26.3796 180.332 26.3796C179.901 26.3796 179.537 26.5121 179.239 26.7772C178.949 27.0339 178.771 27.3942 178.705 27.858H181.972ZM187.925 32.0572C187.362 32.0572 186.857 31.9579 186.41 31.7591C185.962 31.552 185.606 31.2746 185.341 30.9267C185.084 30.5788 184.944 30.1937 184.919 29.7713H186.67C186.704 30.0363 186.832 30.2558 187.056 30.4297C187.288 30.6037 187.573 30.6906 187.913 30.6906C188.244 30.6906 188.501 30.6244 188.683 30.4919C188.874 30.3593 188.969 30.1895 188.969 29.9825C188.969 29.7589 188.853 29.5932 188.621 29.4855C188.397 29.3696 188.037 29.2453 187.54 29.1128C187.027 28.9886 186.604 28.8602 186.273 28.7277C185.95 28.5952 185.668 28.3922 185.428 28.1189C185.196 27.8456 185.08 27.477 185.08 27.0132C185.08 26.6322 185.188 26.2844 185.403 25.9696C185.627 25.6549 185.942 25.4064 186.347 25.2242C186.762 25.042 187.246 24.9509 187.801 24.9509C188.621 24.9509 189.275 25.1579 189.764 25.5721C190.253 25.9779 190.522 26.5287 190.572 27.2244H188.907C188.882 26.9511 188.766 26.7358 188.559 26.5784C188.36 26.4127 188.091 26.3299 187.751 26.3299C187.437 26.3299 187.192 26.3879 187.018 26.5038C186.853 26.6198 186.77 26.7813 186.77 26.9884C186.77 27.2203 186.886 27.3983 187.118 27.5226C187.35 27.6385 187.71 27.7586 188.199 27.8829C188.696 28.0071 189.106 28.1355 189.429 28.268C189.752 28.4005 190.029 28.6076 190.261 28.8892C190.501 29.1625 190.625 29.5269 190.634 29.9825C190.634 30.38 190.522 30.7362 190.298 31.0509C190.083 31.3657 189.768 31.6141 189.354 31.7963C188.948 31.9703 188.472 32.0572 187.925 32.0572ZM198.55 23.2737C199.461 23.2737 200.26 23.4517 200.948 23.8079C201.644 24.164 202.178 24.6734 202.551 25.336C202.932 25.9903 203.122 26.7523 203.122 27.622C203.122 28.4916 202.932 29.2536 202.551 29.9079C202.178 30.554 201.644 31.0551 200.948 31.4112C200.26 31.7674 199.461 31.9454 198.55 31.9454H195.519V23.2737H198.55ZM198.488 30.467C199.399 30.467 200.103 30.2185 200.6 29.7216C201.097 29.2246 201.345 28.5248 201.345 27.622C201.345 26.7192 201.097 26.0152 200.6 25.5099C200.103 24.9964 199.399 24.7397 198.488 24.7397H197.258V30.467H198.488ZM204.225 28.4792C204.225 27.7835 204.362 27.1664 204.635 26.6281C204.917 26.0897 205.294 25.6756 205.766 25.3857C206.246 25.0958 206.78 24.9509 207.368 24.9509C207.882 24.9509 208.329 25.0544 208.71 25.2615C209.099 25.4685 209.41 25.7294 209.642 26.0442V25.0627H211.394V31.9454H209.642V30.9391C209.418 31.2621 209.108 31.5313 208.71 31.7467C208.321 31.9537 207.87 32.0572 207.356 32.0572C206.776 32.0572 206.246 31.9082 205.766 31.61C205.294 31.3118 204.917 30.8936 204.635 30.3552C204.362 29.8086 204.225 29.1832 204.225 28.4792ZM209.642 28.5041C209.642 28.0817 209.559 27.7214 209.393 27.4232C209.228 27.1167 209.004 26.8848 208.723 26.7275C208.441 26.5618 208.139 26.479 207.816 26.479C207.493 26.479 207.194 26.5577 206.921 26.715C206.648 26.8724 206.424 27.1043 206.25 27.4108C206.085 27.7089 206.002 28.0651 206.002 28.4792C206.002 28.8933 206.085 29.2578 206.25 29.5725C206.424 29.879 206.648 30.115 206.921 30.2807C207.203 30.4463 207.501 30.5291 207.816 30.5291C208.139 30.5291 208.441 30.4504 208.723 30.2931C209.004 30.1274 209.228 29.8955 209.393 29.5973C209.559 29.2909 209.642 28.9265 209.642 28.5041ZM215.366 26.4914V29.821C215.366 30.0529 215.42 30.2227 215.528 30.3303C215.643 30.4297 215.834 30.4794 216.099 30.4794H216.907V31.9454H215.813C214.347 31.9454 213.614 31.2331 213.614 29.8086V26.4914H212.794V25.0627H213.614V23.3606H215.366V25.0627H216.907V26.4914H215.366ZM217.959 28.4792C217.959 27.7835 218.095 27.1664 218.369 26.6281C218.65 26.0897 219.027 25.6756 219.499 25.3857C219.98 25.0958 220.514 24.9509 221.102 24.9509C221.616 24.9509 222.063 25.0544 222.444 25.2615C222.833 25.4685 223.144 25.7294 223.376 26.0442V25.0627H225.127V31.9454H223.376V30.9391C223.152 31.2621 222.841 31.5313 222.444 31.7467C222.054 31.9537 221.603 32.0572 221.09 32.0572C220.51 32.0572 219.98 31.9082 219.499 31.61C219.027 31.3118 218.65 30.8936 218.369 30.3552C218.095 29.8086 217.959 29.1832 217.959 28.4792ZM223.376 28.5041C223.376 28.0817 223.293 27.7214 223.127 27.4232C222.961 27.1167 222.738 26.8848 222.456 26.7275C222.175 26.5618 221.872 26.479 221.549 26.479C221.226 26.479 220.928 26.5577 220.655 26.715C220.381 26.8724 220.158 27.1043 219.984 27.4108C219.818 27.7089 219.735 28.0651 219.735 28.4792C219.735 28.8933 219.818 29.2578 219.984 29.5725C220.158 29.879 220.381 30.115 220.655 30.2807C220.936 30.4463 221.235 30.5291 221.549 30.5291C221.872 30.5291 222.175 30.4504 222.456 30.2931C222.738 30.1274 222.961 29.8955 223.127 29.5973C223.293 29.2909 223.376 28.9265 223.376 28.5041ZM228.814 26.069C229.037 25.7377 229.344 25.4685 229.733 25.2615C230.131 25.0544 230.582 24.9509 231.087 24.9509C231.675 24.9509 232.206 25.0958 232.678 25.3857C233.158 25.6756 233.535 26.0897 233.808 26.6281C234.09 27.1582 234.231 27.7752 234.231 28.4792C234.231 29.1832 234.09 29.8086 233.808 30.3552C233.535 30.8936 233.158 31.3118 232.678 31.61C232.206 31.9082 231.675 32.0572 231.087 32.0572C230.574 32.0572 230.122 31.9579 229.733 31.7591C229.352 31.552 229.046 31.287 228.814 30.964V31.9454H227.075V22.7519H228.814V26.069ZM232.454 28.4792C232.454 28.0651 232.367 27.7089 232.193 27.4108C232.027 27.1043 231.804 26.8724 231.522 26.715C231.249 26.5577 230.951 26.479 230.628 26.479C230.313 26.479 230.015 26.5618 229.733 26.7275C229.46 26.8848 229.236 27.1167 229.062 27.4232C228.897 27.7296 228.814 28.0899 228.814 28.5041C228.814 28.9182 228.897 29.2785 229.062 29.5849C229.236 29.8914 229.46 30.1274 229.733 30.2931C230.015 30.4504 230.313 30.5291 230.628 30.5291C230.951 30.5291 231.249 30.4463 231.522 30.2807C231.804 30.115 232.027 29.879 232.193 29.5725C232.367 29.2661 232.454 28.9016 232.454 28.4792ZM235.296 28.4792C235.296 27.7835 235.432 27.1664 235.706 26.6281C235.987 26.0897 236.364 25.6756 236.836 25.3857C237.317 25.0958 237.851 24.9509 238.439 24.9509C238.952 24.9509 239.4 25.0544 239.781 25.2615C240.17 25.4685 240.481 25.7294 240.712 26.0442V25.0627H242.464V31.9454H240.712V30.9391C240.489 31.2621 240.178 31.5313 239.781 31.7467C239.391 31.9537 238.94 32.0572 238.426 32.0572C237.847 32.0572 237.317 31.9082 236.836 31.61C236.364 31.3118 235.987 30.8936 235.706 30.3552C235.432 29.8086 235.296 29.1832 235.296 28.4792ZM240.712 28.5041C240.712 28.0817 240.63 27.7214 240.464 27.4232C240.298 27.1167 240.075 26.8848 239.793 26.7275C239.511 26.5618 239.209 26.479 238.886 26.479C238.563 26.479 238.265 26.5577 237.992 26.715C237.718 26.8724 237.495 27.1043 237.321 27.4108C237.155 27.7089 237.072 28.0651 237.072 28.4792C237.072 28.8933 237.155 29.2578 237.321 29.5725C237.495 29.879 237.718 30.115 237.992 30.2807C238.273 30.4463 238.571 30.5291 238.886 30.5291C239.209 30.5291 239.511 30.4504 239.793 30.2931C240.075 30.1274 240.298 29.8955 240.464 29.5973C240.63 29.2909 240.712 28.9265 240.712 28.5041ZM247.045 32.0572C246.482 32.0572 245.977 31.9579 245.53 31.7591C245.082 31.552 244.726 31.2746 244.461 30.9267C244.204 30.5788 244.064 30.1937 244.039 29.7713H245.79C245.824 30.0363 245.952 30.2558 246.176 30.4297C246.408 30.6037 246.693 30.6906 247.033 30.6906C247.364 30.6906 247.621 30.6244 247.803 30.4919C247.994 30.3593 248.089 30.1895 248.089 29.9825C248.089 29.7589 247.973 29.5932 247.741 29.4855C247.517 29.3696 247.157 29.2453 246.66 29.1128C246.147 28.9886 245.724 28.8602 245.393 28.7277C245.07 28.5952 244.788 28.3922 244.548 28.1189C244.316 27.8456 244.2 27.477 244.2 27.0132C244.2 26.6322 244.308 26.2844 244.523 25.9696C244.747 25.6549 245.062 25.4064 245.467 25.2242C245.882 25.042 246.366 24.9509 246.921 24.9509C247.741 24.9509 248.395 25.1579 248.884 25.5721C249.373 25.9779 249.642 26.5287 249.692 27.2244H248.027C248.002 26.9511 247.886 26.7358 247.679 26.5784C247.48 26.4127 247.211 26.3299 246.871 26.3299C246.557 26.3299 246.312 26.3879 246.138 26.5038C245.973 26.6198 245.89 26.7813 245.89 26.9884C245.89 27.2203 246.006 27.3983 246.238 27.5226C246.47 27.6385 246.83 27.7586 247.319 27.8829C247.816 28.0071 248.226 28.1355 248.549 28.268C248.872 28.4005 249.149 28.6076 249.381 28.8892C249.621 29.1625 249.745 29.5269 249.754 29.9825C249.754 30.38 249.642 30.7362 249.418 31.0509C249.203 31.3657 248.888 31.6141 248.474 31.7963C248.068 31.9703 247.592 32.0572 247.045 32.0572ZM257.828 28.355C257.828 28.6035 257.812 28.8271 257.778 29.0259H252.747C252.788 29.5228 252.962 29.9121 253.269 30.1937C253.575 30.4753 253.952 30.6161 254.399 30.6161C255.045 30.6161 255.505 30.3386 255.778 29.7837H257.654C257.455 30.4463 257.074 30.9929 256.511 31.4236C255.948 31.846 255.256 32.0572 254.436 32.0572C253.774 32.0572 253.177 31.9123 252.647 31.6224C252.126 31.3242 251.716 30.906 251.417 30.3676C251.128 29.8293 250.983 29.2081 250.983 28.5041C250.983 27.7918 251.128 27.1664 251.417 26.6281C251.707 26.0897 252.113 25.6756 252.635 25.3857C253.157 25.0958 253.757 24.9509 254.436 24.9509C255.091 24.9509 255.675 25.0917 256.188 25.3733C256.71 25.6549 257.112 26.0566 257.393 26.5784C257.683 27.0919 257.828 27.6841 257.828 28.355ZM256.027 27.858C256.018 27.4108 255.857 27.0546 255.542 26.7896C255.227 26.5163 254.842 26.3796 254.387 26.3796C253.956 26.3796 253.592 26.5121 253.293 26.7772C253.004 27.0339 252.825 27.3942 252.759 27.858H256.027Z" fill="white"/>
<circle cx="536.662" cy="70.59" r="32.9957" transform="rotate(-162.343 536.662 70.59)" fill="url(#paint1_linear_778_25205)"/>
<path fill-rule="evenodd" clip-rule="evenodd" d="M39.68 32.3846C50.3512 7.37209 78.501 -5.88729 104.941 2.52872C126.703 9.45555 140.922 29.0335 142.066 50.5641C149.461 51.975 156.305 56.245 160.8 63.0115C169.667 76.36 166.034 94.3694 152.686 103.237C147.062 106.973 140.61 108.49 134.363 107.996H38.8864C38.6692 107.996 38.4554 107.981 38.2458 107.953C34.31 107.998 30.3002 107.424 26.3444 106.165C6.45194 99.8331 -4.54106 78.5742 1.7908 58.6818C7.10877 41.9746 22.9562 31.545 39.68 32.3846Z" fill="url(#paint2_linear_778_25205)"/>
<g filter="url(#filter0_b_778_25205)">
<rect x="309.212" y="1.38037" width="242.953" height="302.311" rx="20.7062" fill="url(#paint3_radial_778_25205)"/>
<rect x="309.212" y="1.38037" width="242.953" height="302.311" rx="20.7062" stroke="white" stroke-opacity="0.6" stroke-width="1.38041"/>
<path opacity="0.4" d="M430.688 303.691L327.157 303.691C321.821 303.691 317.495 299.365 317.495 294.028L317.494 39.3418L430.688 39.3418L430.688 303.691Z" fill="url(#paint4_linear_778_25205)"/>
<rect opacity="0.4" x="309.212" y="282.295" width="113.194" height="242.953" transform="rotate(-90 309.212 282.295)" fill="url(#paint5_linear_778_25205)"/>
<rect x="325.777" y="64.1893" width="96.629" height="96.629" rx="13.8041" fill="white" fill-opacity="0.1"/>
<path fill-rule="evenodd" clip-rule="evenodd" d="M360.224 105.412C359.989 105.199 359.816 104.926 359.726 104.623L356.897 95.1595L366.361 97.9865C366.664 98.077 366.937 98.2502 367.15 98.4852C368.022 99.4524 368.894 100.419 369.766 101.386C370.638 102.353 371.51 103.32 372.382 104.287C374.199 106.302 376.016 108.318 377.834 110.332C379.172 111.814 380.509 113.296 381.845 114.779C382.479 115.481 383.112 116.183 383.745 116.885C383.447 117.181 383.15 117.478 382.852 117.775C382.555 118.072 382.257 118.369 381.959 118.666L380.43 120.195C379.829 120.8 379.227 121.404 378.624 122.007L372.382 116.378L365.68 110.333L360.224 105.412ZM388.456 104.623L391.284 95.1596L381.821 97.9878C381.516 98.0784 381.243 98.2503 381.032 98.4852L376.11 103.942L374.94 105.24L374.979 105.205L380.903 111.773C381.111 111.585 381.32 111.398 381.528 111.21L381.528 111.21L381.529 111.209L381.529 111.209L381.529 111.209C381.738 111.021 381.947 110.833 382.155 110.645C383.123 109.772 384.091 108.899 385.058 108.026C386.025 107.155 386.991 106.284 387.957 105.412C388.192 105.199 388.366 104.926 388.456 104.623ZM367.374 113.632L373.111 118.804C372.519 119.338 371.927 119.873 371.334 120.407C370.742 120.941 370.15 121.475 369.559 122.009C367.851 120.301 366.144 118.594 364.438 116.886L367.374 113.632ZM369.165 123.481L362.962 117.278C362.655 116.97 362.156 116.97 361.849 117.278L360.984 118.143C360.676 118.45 360.676 118.949 360.984 119.256L362.67 120.942C362.605 120.967 362.544 121.006 362.491 121.059L359.6 123.95L359.29 123.64C359.055 123.406 358.675 123.406 358.44 123.64L357.861 124.219C356.974 125.107 356.973 126.548 357.861 127.436L359.008 128.583C359.895 129.47 361.336 129.471 362.224 128.583L362.804 128.004C363.038 127.769 363.038 127.389 362.804 127.154L362.494 126.844L365.385 123.953C365.438 123.901 365.477 123.84 365.502 123.775L367.187 125.459C367.494 125.767 367.993 125.767 368.3 125.459L369.165 124.594C369.473 124.287 369.473 123.788 369.165 123.481ZM385.221 117.276L379.018 123.479C378.711 123.787 378.711 124.285 379.018 124.593L379.883 125.458C380.191 125.765 380.689 125.765 380.997 125.458L382.679 123.775C382.705 123.84 382.743 123.902 382.796 123.954L385.689 126.848L385.38 127.157C385.145 127.392 385.145 127.772 385.38 128.007L385.959 128.586C386.846 129.473 388.287 129.474 389.175 128.586L390.322 127.439C391.209 126.552 391.21 125.111 390.322 124.223L389.743 123.644C389.508 123.409 389.128 123.409 388.893 123.644L388.584 123.953L385.691 121.06C385.638 121.007 385.577 120.968 385.511 120.943L387.199 119.255C387.507 118.947 387.507 118.449 387.199 118.141L386.335 117.276C386.027 116.969 385.528 116.969 385.221 117.276Z" fill="white" fill-opacity="0.3"/>
<rect x="438.971" y="64.1893" width="96.629" height="96.629" rx="13.8041" fill="white" fill-opacity="0.1"/>
<path fill-rule="evenodd" clip-rule="evenodd" d="M476.836 94.6646H497.792C498.589 94.6646 499.235 95.3117 499.235 96.11V97.0491C499.235 97.8474 498.589 98.4945 497.792 98.4945H476.836C476.039 98.4945 475.393 97.8474 475.393 97.0491V96.11C475.393 95.3117 476.039 94.6646 476.836 94.6646ZM476.836 126.512H497.792C498.589 126.512 499.235 127.159 499.235 127.958V128.897C499.235 129.695 498.589 130.342 497.792 130.342H476.836C476.039 130.342 475.393 129.695 475.393 128.897V127.958C475.393 127.159 476.039 126.512 476.836 126.512ZM498.335 100.431V101.846C498.335 106.924 494.865 111.23 490.182 112.502C494.865 113.775 498.335 118.08 498.335 123.158V124.573H476.293V123.158C476.293 118.08 479.762 113.775 484.445 112.502C479.762 111.23 476.293 106.924 476.293 101.846V100.431H498.335Z" fill="white" fill-opacity="0.3"/>
<rect x="438.971" y="177.383" width="96.629" height="96.629" rx="13.8041" fill="white" fill-opacity="0.1"/>
<path d="M476.051 239.53H470.808C470.066 239.53 469.465 238.934 469.465 238.201V233.281C469.533 233.281 469.602 233.278 469.67 233.278C473.168 233.278 476.019 236.076 476.051 239.53Z" fill="white" fill-opacity="0.3"/>
<path d="M484.287 223.096V225.108C484.287 226.721 485.613 228.032 487.243 228.032H487.316C488.947 228.032 490.272 226.719 490.272 225.108V223.096H484.287ZM488.254 225.717C488.254 226.019 488.007 226.263 487.7 226.263H486.859C486.554 226.263 486.307 226.019 486.307 225.717V224.884C486.307 224.581 486.554 224.337 486.859 224.337H487.7C488.007 224.337 488.254 224.581 488.254 224.884V225.717Z" fill="white" fill-opacity="0.3"/>
<path d="M505.109 223.096V231.07C500.418 231.115 496.612 234.888 496.581 239.532H478.268C478.238 234.858 474.385 231.068 469.653 231.068C469.585 231.068 469.515 231.068 469.447 231.071V223.096H482.048V225.108C482.048 227.941 484.378 230.245 487.241 230.245H487.314C490.178 230.245 492.508 227.941 492.508 225.108V223.096H505.109Z" fill="white" fill-opacity="0.3"/>
<path d="M505.125 233.282V238.203C505.125 238.937 504.522 239.533 503.78 239.533H498.833C498.865 236.109 501.667 233.327 505.125 233.282Z" fill="white" fill-opacity="0.3"/>
<path d="M478.561 212.318H495.997C501.027 212.318 505.109 216.357 505.109 221.332H469.447C469.447 216.357 473.531 212.318 478.561 212.318Z" fill="white" fill-opacity="0.3"/>
<rect x="325.777" y="17.9454" width="209.823" height="35.565" rx="6.90207" fill="url(#paint6_linear_778_25205)"/>
<path d="M396.403 40.3149C395.591 40.3149 394.846 40.1244 394.167 39.7434C393.487 39.3624 392.949 38.8364 392.552 38.1656C392.154 37.4864 391.955 36.7203 391.955 35.8672C391.955 35.0224 392.154 34.2645 392.552 33.5936C392.949 32.9145 393.487 32.3844 394.167 32.0034C394.846 31.6224 395.591 31.4319 396.403 31.4319C397.223 31.4319 397.968 31.6224 398.639 32.0034C399.318 32.3844 399.853 32.9145 400.242 33.5936C400.639 34.2645 400.838 35.0224 400.838 35.8672C400.838 36.7203 400.639 37.4864 400.242 38.1656C399.853 38.8364 399.318 39.3624 398.639 39.7434C397.96 40.1244 397.215 40.3149 396.403 40.3149ZM396.403 38.7619C396.925 38.7619 397.384 38.646 397.782 38.414C398.179 38.1738 398.49 37.8343 398.714 37.3953C398.937 36.9563 399.049 36.447 399.049 35.8672C399.049 35.2874 398.937 34.7822 398.714 34.3515C398.49 33.9125 398.179 33.5771 397.782 33.3452C397.384 33.1132 396.925 32.9973 396.403 32.9973C395.881 32.9973 395.417 33.1132 395.011 33.3452C394.614 33.5771 394.303 33.9125 394.08 34.3515C393.856 34.7822 393.744 35.2874 393.744 35.8672C393.744 36.447 393.856 36.9563 394.08 37.3953C394.303 37.8343 394.614 38.1738 395.011 38.414C395.417 38.646 395.881 38.7619 396.403 38.7619ZM406.195 33.2458C407.015 33.2458 407.677 33.5067 408.183 34.0285C408.688 34.542 408.94 35.2626 408.94 36.1902V40.2279H407.201V36.4262C407.201 35.8796 407.064 35.4613 406.791 35.1714C406.518 34.8733 406.145 34.7242 405.673 34.7242C405.193 34.7242 404.812 34.8733 404.53 35.1714C404.257 35.4613 404.12 35.8796 404.12 36.4262V40.2279H402.381V33.3452H404.12V34.2024C404.352 33.9042 404.646 33.6723 405.002 33.5067C405.366 33.3327 405.764 33.2458 406.195 33.2458ZM412.582 31.0343V40.2279H410.843V31.0343H412.582ZM415.431 32.5252C415.125 32.5252 414.868 32.4299 414.661 32.2394C414.462 32.0407 414.363 31.7963 414.363 31.5064C414.363 31.2166 414.462 30.9764 414.661 30.7859C414.868 30.5871 415.125 30.4877 415.431 30.4877C415.738 30.4877 415.99 30.5871 416.189 30.7859C416.396 30.9764 416.5 31.2166 416.5 31.5064C416.5 31.7963 416.396 32.0407 416.189 32.2394C415.99 32.4299 415.738 32.5252 415.431 32.5252ZM416.288 33.3452V40.2279H414.549V33.3452H416.288ZM422.069 33.2458C422.889 33.2458 423.552 33.5067 424.057 34.0285C424.562 34.542 424.815 35.2626 424.815 36.1902V40.2279H423.076V36.4262C423.076 35.8796 422.939 35.4613 422.666 35.1714C422.392 34.8733 422.02 34.7242 421.548 34.7242C421.067 34.7242 420.686 34.8733 420.405 35.1714C420.131 35.4613 419.995 35.8796 419.995 36.4262V40.2279H418.255V33.3452H419.995V34.2024C420.227 33.9042 420.521 33.6723 420.877 33.5067C421.241 33.3327 421.639 33.2458 422.069 33.2458ZM433.116 36.6374C433.116 36.8859 433.099 37.1095 433.066 37.3083H428.034C428.076 37.8053 428.25 38.1946 428.556 38.4762C428.863 38.7578 429.24 38.8986 429.687 38.8986C430.333 38.8986 430.793 38.6211 431.066 38.0662H432.942C432.743 38.7288 432.362 39.2754 431.799 39.7061C431.236 40.1285 430.544 40.3397 429.724 40.3397C429.061 40.3397 428.465 40.1948 427.935 39.9049C427.413 39.6067 427.003 39.1885 426.705 38.6501C426.415 38.1117 426.27 37.4905 426.27 36.7865C426.27 36.0742 426.415 35.4489 426.705 34.9105C426.995 34.3722 427.401 33.9581 427.923 33.6682C428.444 33.3783 429.045 33.2333 429.724 33.2333C430.378 33.2333 430.962 33.3741 431.476 33.6558C431.998 33.9374 432.399 34.3391 432.681 34.8609C432.971 35.3744 433.116 35.9666 433.116 36.6374ZM431.314 36.1405C431.306 35.6932 431.145 35.3371 430.83 35.0721C430.515 34.7987 430.13 34.6621 429.674 34.6621C429.244 34.6621 428.879 34.7946 428.581 35.0596C428.291 35.3164 428.113 35.6767 428.047 36.1405H431.314ZM440.837 40.3149C440.232 40.3149 439.685 40.2113 439.197 40.0043C438.716 39.7972 438.335 39.499 438.054 39.1098C437.772 38.7205 437.627 38.2608 437.619 37.7307H439.483C439.507 38.0869 439.632 38.3685 439.855 38.5755C440.087 38.7826 440.402 38.8861 440.799 38.8861C441.205 38.8861 441.524 38.7909 441.756 38.6004C441.988 38.4016 442.104 38.1449 442.104 37.8301C442.104 37.5734 442.025 37.3622 441.868 37.1965C441.711 37.0309 441.512 36.9025 441.272 36.8114C441.04 36.712 440.717 36.6043 440.303 36.4884C439.739 36.3227 439.28 36.1612 438.923 36.0038C438.576 35.8382 438.273 35.5939 438.017 35.2708C437.768 34.9395 437.644 34.5006 437.644 33.9539C437.644 33.4404 437.772 32.9932 438.029 32.6122C438.286 32.2312 438.646 31.9413 439.11 31.7425C439.574 31.5354 440.104 31.4319 440.7 31.4319C441.595 31.4319 442.319 31.6514 442.874 32.0904C443.437 32.5211 443.748 33.1257 443.806 33.9042H441.893C441.876 33.6061 441.748 33.3617 441.508 33.1712C441.276 32.9724 440.965 32.8731 440.576 32.8731C440.236 32.8731 439.963 32.96 439.756 33.134C439.557 33.3079 439.458 33.5605 439.458 33.8918C439.458 34.1237 439.532 34.3184 439.681 34.4757C439.839 34.6248 440.029 34.749 440.253 34.8484C440.485 34.9395 440.808 35.0472 441.222 35.1714C441.785 35.3371 442.245 35.5027 442.601 35.6684C442.957 35.834 443.263 36.0825 443.52 36.4138C443.777 36.7451 443.905 37.18 443.905 37.7183C443.905 38.1821 443.785 38.6128 443.545 39.0104C443.305 39.4079 442.953 39.7268 442.489 39.967C442.025 40.1989 441.474 40.3149 440.837 40.3149ZM449.538 33.2458C450.06 33.2458 450.524 33.3617 450.929 33.5936C451.335 33.8173 451.65 34.1527 451.874 34.6C452.106 35.0389 452.222 35.569 452.222 36.1902V40.2279H450.482V36.4262C450.482 35.8796 450.346 35.4613 450.072 35.1714C449.799 34.8733 449.426 34.7242 448.954 34.7242C448.474 34.7242 448.093 34.8733 447.811 35.1714C447.538 35.4613 447.401 35.8796 447.401 36.4262V40.2279H445.662V31.0343H447.401V34.2024C447.625 33.9042 447.923 33.6723 448.296 33.5067C448.668 33.3327 449.082 33.2458 449.538 33.2458ZM457.18 40.3397C456.518 40.3397 455.921 40.1948 455.391 39.9049C454.861 39.6067 454.443 39.1885 454.136 38.6501C453.838 38.1117 453.689 37.4905 453.689 36.7865C453.689 36.0825 453.842 35.4613 454.149 34.923C454.464 34.3846 454.89 33.9705 455.428 33.6806C455.967 33.3824 456.567 33.2333 457.23 33.2333C457.893 33.2333 458.493 33.3824 459.031 33.6806C459.57 33.9705 459.992 34.3846 460.299 34.923C460.613 35.4613 460.771 36.0825 460.771 36.7865C460.771 37.4905 460.609 38.1117 460.286 38.6501C459.971 39.1885 459.541 39.6067 458.994 39.9049C458.456 40.1948 457.851 40.3397 457.18 40.3397ZM457.18 38.824C457.495 38.824 457.789 38.7495 458.062 38.6004C458.344 38.443 458.568 38.2111 458.733 37.9047C458.899 37.5982 458.982 37.2255 458.982 36.7865C458.982 36.1322 458.808 35.6311 458.46 35.2833C458.12 34.9271 457.702 34.749 457.205 34.749C456.708 34.749 456.29 34.9271 455.95 35.2833C455.619 35.6311 455.453 36.1322 455.453 36.7865C455.453 37.4408 455.615 37.9461 455.938 38.3022C456.269 38.6501 456.683 38.824 457.18 38.824ZM464.034 34.3391C464.258 34.0243 464.564 33.7634 464.954 33.5564C465.351 33.341 465.803 33.2333 466.308 33.2333C466.896 33.2333 467.426 33.3783 467.898 33.6682C468.379 33.9581 468.755 34.3722 469.029 34.9105C469.31 35.4406 469.451 36.0577 469.451 36.7617C469.451 37.4657 469.31 38.091 469.029 38.6377C468.755 39.176 468.379 39.5943 467.898 39.8925C467.426 40.1906 466.896 40.3397 466.308 40.3397C465.803 40.3397 465.355 40.2362 464.966 40.0291C464.585 39.8221 464.275 39.5612 464.034 39.2464V43.5078H462.295V33.3452H464.034V34.3391ZM467.675 36.7617C467.675 36.3476 467.588 35.9914 467.414 35.6932C467.248 35.3868 467.024 35.1549 466.743 34.9975C466.469 34.8401 466.171 34.7615 465.848 34.7615C465.533 34.7615 465.235 34.8443 464.954 35.0099C464.68 35.1673 464.457 35.3992 464.283 35.7057C464.117 36.0121 464.034 36.3724 464.034 36.7865C464.034 37.2007 464.117 37.5609 464.283 37.8674C464.457 38.1738 464.68 38.4099 464.954 38.5755C465.235 38.7329 465.533 38.8116 465.848 38.8116C466.171 38.8116 466.469 38.7288 466.743 38.5631C467.024 38.3975 467.248 38.1614 467.414 37.855C467.588 37.5485 467.675 37.1841 467.675 36.7617Z" fill="white"/>
<path opacity="0.4" d="M430.688 307.142L430.688 61.4284" stroke="url(#paint7_linear_778_25205)" stroke-width="0.690207" stroke-miterlimit="10"/>
<path opacity="0.4" d="M563.207 169.101L295.407 169.101" stroke="url(#paint8_linear_778_25205)" stroke-width="0.690207" stroke-miterlimit="10"/>
</g>
<g filter="url(#filter1_b_778_25205)">
<rect x="45.5537" y="64.1893" width="228.459" height="66.2599" rx="13.8041" fill="url(#paint9_radial_778_25205)"/>
<rect x="45.5537" y="64.1893" width="228.459" height="66.2599" rx="13.8041" stroke="white" stroke-opacity="0.6" stroke-width="1.38041"/>
<rect x="64.8789" y="83.5151" width="113.884" height="27.6083" rx="6.90207" fill="white" fill-opacity="0.1"/>
<rect x="189.116" y="83.5151" width="27.6083" height="27.6083" rx="6.90207" fill="white" fill-opacity="0.1"/>
<path fill-rule="evenodd" clip-rule="evenodd" d="M199.189 90.9493H206.674C206.958 90.9493 207.189 91.1805 207.189 91.4656V91.801C207.189 92.0861 206.958 92.3172 206.674 92.3172H199.189C198.905 92.3172 198.674 92.0861 198.674 91.801V91.4656C198.674 91.1805 198.905 90.9493 199.189 90.9493ZM199.189 102.322H206.674C206.958 102.322 207.189 102.553 207.189 102.838V103.174C207.189 103.459 206.958 103.69 206.674 103.69H199.189C198.905 103.69 198.674 103.459 198.674 103.174V102.838C198.674 102.553 198.905 102.322 199.189 102.322ZM206.867 93.0082V93.5137C206.867 95.3268 205.629 96.8641 203.957 97.319C205.629 97.7739 206.867 99.3113 206.867 101.124V101.63H198.995V101.124C198.995 99.3113 200.234 97.7739 201.905 97.319C200.234 96.8641 198.995 95.3268 198.995 93.5137V93.0082H206.867Z" fill="white" fill-opacity="0.14"/>
<rect x="227.077" y="83.5151" width="27.6083" height="27.6083" rx="6.90207" fill="white" fill-opacity="0.1"/>
</g>
<g filter="url(#filter2_b_778_25205)">
<rect x="45.5537" y="142.873" width="228.459" height="66.2599" rx="13.8041" fill="#000223" fill-opacity="0.08"/>
<rect x="45.5537" y="142.873" width="228.459" height="66.2599" rx="13.8041" stroke="white" stroke-opacity="0.6" stroke-width="1.38041"/>
<rect x="64.8789" y="162.199" width="113.884" height="27.6083" rx="6.90207" fill="white" fill-opacity="0.1"/>
<rect x="189.116" y="162.199" width="27.6083" height="27.6083" rx="6.90207" fill="white" fill-opacity="0.1"/>
<rect x="227.077" y="162.199" width="27.6083" height="27.6083" rx="6.90207" fill="white" fill-opacity="0.1"/>
<path fill-rule="evenodd" clip-rule="evenodd" d="M235.93 173.47C235.846 173.394 235.785 173.297 235.752 173.188L234.742 169.808L238.122 170.818C238.23 170.85 238.328 170.912 238.404 170.996C238.715 171.342 239.027 171.687 239.338 172.032C239.65 172.378 239.961 172.723 240.273 173.068C240.921 173.788 241.57 174.508 242.22 175.227C242.697 175.756 243.175 176.286 243.652 176.815C243.878 177.066 244.104 177.317 244.331 177.568C244.224 177.673 244.118 177.779 244.012 177.885C243.905 177.992 243.799 178.098 243.693 178.204L243.147 178.75C242.932 178.966 242.717 179.181 242.502 179.397L240.273 177.387L237.879 175.228L235.93 173.47ZM246.012 173.188L247.022 169.808L243.643 170.819C243.534 170.851 243.436 170.912 243.361 170.996L241.603 172.945L241.185 173.409L241.199 173.396L243.315 175.742L243.539 175.54L243.762 175.339L244.798 174.404L245.834 173.47C245.918 173.394 245.98 173.297 246.012 173.188ZM238.483 176.406L240.532 178.253L239.898 178.825L239.263 179.397C238.653 178.788 238.044 178.178 237.434 177.568L238.483 176.406ZM239.123 179.923L236.907 177.708C236.798 177.598 236.619 177.598 236.51 177.708L236.201 178.017C236.091 178.127 236.091 178.305 236.201 178.414L236.803 179.017C236.78 179.026 236.758 179.039 236.739 179.058L235.706 180.091L235.596 179.98C235.512 179.896 235.376 179.896 235.292 179.98L235.086 180.187C234.769 180.504 234.768 181.019 235.086 181.336L235.495 181.745C235.812 182.062 236.327 182.063 236.644 181.745L236.851 181.539C236.935 181.455 236.935 181.319 236.851 181.235L236.74 181.124L237.773 180.092C237.791 180.073 237.805 180.051 237.814 180.028L238.416 180.63C238.526 180.74 238.704 180.74 238.814 180.63L239.123 180.321C239.232 180.211 239.232 180.033 239.123 179.923ZM244.858 177.707L242.642 179.923C242.533 180.032 242.533 180.21 242.642 180.32L242.951 180.629C243.061 180.739 243.239 180.739 243.349 180.629L243.95 180.028C243.959 180.052 243.973 180.074 243.991 180.092L245.024 181.125L244.914 181.236C244.83 181.32 244.83 181.456 244.914 181.54L245.12 181.747C245.437 182.063 245.952 182.064 246.269 181.747L246.679 181.337C246.996 181.02 246.996 180.505 246.679 180.188L246.472 179.981C246.388 179.898 246.252 179.898 246.168 179.981L246.058 180.092L245.025 179.059C245.006 179.04 244.985 179.026 244.961 179.017L245.564 178.414C245.674 178.304 245.674 178.126 245.564 178.016L245.255 177.707C245.146 177.597 244.967 177.597 244.858 177.707Z" fill="white" fill-opacity="0.14"/>
</g>
<g filter="url(#filter3_b_778_25205)">
<rect x="45.5537" y="221.556" width="228.459" height="66.2599" rx="13.8041" fill="#000223" fill-opacity="0.08"/>
<rect x="45.5537" y="221.556" width="228.459" height="66.2599" rx="13.8041" stroke="white" stroke-opacity="0.6" stroke-width="1.38041"/>
<rect x="64.8789" y="240.882" width="113.884" height="27.6083" rx="6.90207" fill="white" fill-opacity="0.1"/>
<rect x="189.116" y="240.882" width="27.6083" height="27.6083" rx="6.90207" fill="white" fill-opacity="0.1"/>
<path d="M198.908 259.627H197.035C196.77 259.627 196.556 259.414 196.556 259.152V257.395C196.58 257.395 196.605 257.394 196.629 257.394C197.878 257.394 198.897 258.393 198.908 259.627Z" fill="white" fill-opacity="0.14"/>
<path d="M201.85 253.757V254.476C201.85 255.052 202.323 255.52 202.905 255.52H202.931C203.514 255.52 203.987 255.051 203.987 254.476V253.757H201.85ZM203.266 254.693C203.266 254.801 203.178 254.888 203.069 254.888H202.768C202.659 254.888 202.571 254.801 202.571 254.693V254.396C202.571 254.288 202.659 254.2 202.768 254.2H203.069C203.178 254.2 203.266 254.288 203.266 254.396V254.693Z" fill="white" fill-opacity="0.14"/>
<path d="M209.286 253.757V256.605C207.611 256.621 206.252 257.969 206.24 259.627H199.7C199.689 257.958 198.313 256.604 196.623 256.604C196.599 256.604 196.574 256.604 196.55 256.605V253.757H201.05V254.476C201.05 255.488 201.882 256.31 202.905 256.31H202.931C203.954 256.31 204.786 255.488 204.786 254.476V253.757H209.286Z" fill="white" fill-opacity="0.14"/>
<path d="M209.293 257.395V259.153C209.293 259.415 209.078 259.627 208.813 259.627H207.046C207.057 258.405 208.058 257.411 209.293 257.395Z" fill="white" fill-opacity="0.14"/>
<path d="M199.805 249.908H206.032C207.828 249.908 209.286 251.351 209.286 253.127H196.55C196.55 251.351 198.008 249.908 199.805 249.908Z" fill="white" fill-opacity="0.14"/>
<rect x="227.077" y="240.882" width="27.6083" height="27.6083" rx="6.90207" fill="white" fill-opacity="0.1"/>
</g>
<g filter="url(#filter4_b_778_25205)">
<rect x="45.5537" y="300.24" width="228.459" height="66.2599" rx="13.8041" fill="url(#paint10_linear_778_25205)"/>
<rect x="45.5537" y="300.24" width="228.459" height="66.2599" rx="13.8041" stroke="white" stroke-opacity="0.6" stroke-width="1.38041"/>
<rect x="64.8789" y="319.566" width="113.884" height="27.6083" rx="6.90207" fill="white" fill-opacity="0.1"/>
<rect x="189.116" y="319.566" width="27.6083" height="27.6083" rx="6.90207" fill="white" fill-opacity="0.1"/>
<rect x="227.077" y="319.566" width="27.6083" height="27.6083" rx="6.90207" fill="white" fill-opacity="0.1"/>
<path d="M246.28 332.547C246.28 329.438 243.761 326.918 240.654 326.918C237.547 326.918 235.027 329.438 235.027 332.547C235.027 333.544 235.231 334.051 235.231 334.051C235.549 334.829 235.899 335.189 235.744 335.624C235.655 335.872 235.611 335.939 235.486 336.367C235.478 336.394 235.43 336.579 235.43 336.782C235.43 337.645 236.13 338.345 236.993 338.345C237.062 338.345 237.243 338.351 237.456 338.276C237.933 338.106 237.958 337.853 238.291 337.755C238.33 337.743 238.366 337.736 238.4 337.732C238.431 337.738 238.486 337.753 238.533 337.794C238.605 337.857 238.626 337.957 238.63 338.044C238.63 338.22 238.631 338.395 238.631 338.571H238.635V339.414C238.635 339.549 238.745 339.659 238.881 339.659H239.554C239.69 339.659 239.8 339.549 239.8 339.414V338.572C239.89 338.572 239.982 338.572 240.072 338.572V339.413C240.072 339.549 240.182 339.659 240.318 339.659H240.991C241.127 339.659 241.237 339.549 241.237 339.413V338.572C241.327 338.572 241.418 338.572 241.509 338.572V339.413C241.509 339.549 241.619 339.659 241.755 339.659H242.428C242.564 339.659 242.674 339.549 242.674 339.413V338.103C242.675 338.083 242.677 338.061 242.679 338.043C242.69 337.945 242.705 337.857 242.776 337.794C242.82 337.754 242.871 337.739 242.91 337.731C242.944 337.735 242.98 337.743 243.019 337.754C243.352 337.853 243.377 338.106 243.853 338.275C244.065 338.351 244.246 338.345 244.316 338.345C245.179 338.345 245.879 337.644 245.879 336.781C245.879 336.578 245.831 336.394 245.823 336.367C245.698 335.938 245.654 335.871 245.566 335.624C245.41 335.189 245.76 334.829 246.078 334.05C246.078 334.05 246.282 333.544 246.282 332.546L246.28 332.547ZM240.655 335.61C241.045 335.61 241.365 336.618 241.201 336.838C241.192 336.85 241.178 336.86 241.174 336.864C241.049 336.967 240.918 336.914 240.646 336.915C240.385 336.915 240.256 336.964 240.134 336.863C240.131 336.861 240.116 336.85 240.108 336.839C239.944 336.619 240.263 335.611 240.654 335.611L240.655 335.61ZM237.124 334.619C237.107 334.535 237.025 334.12 237.274 333.807C237.496 333.53 237.862 333.531 238.464 333.524C239.063 333.518 239.406 333.514 239.635 333.77C239.913 334.08 239.819 334.546 239.805 334.619C239.694 335.173 239.153 335.715 238.464 335.715C237.776 335.715 237.235 335.183 237.124 334.619ZM244.184 334.619C244.073 335.173 243.532 335.715 242.843 335.715C242.155 335.715 241.614 335.183 241.503 334.619C241.485 334.535 241.404 334.12 241.653 333.807C241.874 333.53 242.241 333.531 242.843 333.524C243.442 333.518 243.785 333.514 244.014 333.77C244.292 334.08 244.198 334.546 244.184 334.619Z" fill="white" fill-opacity="0.14"/>
</g>
<path d="M66.2598 209.823V220.866" stroke="white" stroke-opacity="0.4" stroke-width="1.38041"/>
<path d="M253.996 209.823V220.866" stroke="white" stroke-opacity="0.4" stroke-width="1.38041"/>
<path d="M66.2598 288.507V299.55" stroke="white" stroke-opacity="0.4" stroke-width="1.38041"/>
<path d="M253.996 288.507V299.55" stroke="white" stroke-opacity="0.4" stroke-width="1.38041"/>
<path d="M66.2598 131.139V142.183" stroke="white" stroke-opacity="0.4" stroke-width="1.38041"/>
<path d="M253.996 131.139V142.183" stroke="white" stroke-opacity="0.4" stroke-width="1.38041"/>
<path d="M253.995 53.146V64.1893" stroke="white" stroke-opacity="0.4" stroke-width="1.38041"/>
<rect x="324.396" y="177.383" width="96.629" height="96.629" rx="13.8041" fill="white" fill-opacity="0.1"/>
<path d="M350.624 249.165V310.593C350.624 322.029 341.353 331.299 329.918 331.299H274.701" stroke="#FF6E75" stroke-width="1.38041"/>
<rect x="285.055" y="176.465" width="96.629" height="96.629" rx="13.8041" transform="rotate(-14.3378 285.055 176.465)" fill="#FF6E75"/>
<path d="M358.704 205.554C356.549 197.12 347.967 192.031 339.537 194.186C331.108 196.34 326.021 204.923 328.176 213.357C328.868 216.064 329.773 217.296 329.773 217.296C331.176 219.189 332.375 219.922 332.254 221.211C332.184 221.944 332.111 222.155 332.071 223.404C332.068 223.483 332.065 224.017 332.206 224.567C332.804 226.909 335.19 228.324 337.531 227.726C337.719 227.677 338.214 227.569 338.738 227.216C339.914 226.424 339.807 225.722 340.642 225.224C340.74 225.166 340.832 225.121 340.923 225.086C341.009 225.08 341.171 225.084 341.327 225.163C341.566 225.284 341.691 225.539 341.762 225.773C341.884 226.25 342.009 226.725 342.131 227.202L342.142 227.2L342.726 229.485C342.82 229.854 343.195 230.076 343.564 229.982L345.39 229.515C345.758 229.421 345.98 229.046 345.886 228.678L345.302 226.393C345.548 226.331 345.795 226.267 346.041 226.205L346.624 228.487C346.718 228.856 347.093 229.078 347.462 228.984L349.288 228.517C349.656 228.423 349.878 228.048 349.784 227.68L349.201 225.399C349.447 225.336 349.694 225.273 349.94 225.21L350.523 227.491C350.617 227.859 350.992 228.082 351.36 227.988L353.186 227.521C353.555 227.427 353.777 227.052 353.683 226.683L352.774 223.13C352.765 223.075 352.755 223.014 352.748 222.963C352.71 222.689 352.689 222.44 352.838 222.219C352.93 222.081 353.056 222.004 353.159 221.957C353.253 221.944 353.355 221.94 353.468 221.944C354.44 221.981 354.683 222.649 356.094 222.779C356.722 222.837 357.209 222.694 357.398 222.646C359.739 222.047 361.153 219.662 360.554 217.32C360.413 216.768 360.155 216.302 360.115 216.235C359.479 215.158 359.313 215.008 358.902 214.398C358.178 213.327 358.877 212.106 359.2 209.773C359.2 209.773 359.402 208.258 358.71 205.551L358.704 205.554ZM345.568 217.766C346.626 217.496 348.193 220.009 347.901 220.72C347.884 220.759 347.855 220.793 347.847 220.806C347.579 221.175 347.186 221.121 346.45 221.313C345.741 221.494 345.425 221.717 345.024 221.526C345.014 221.522 344.965 221.503 344.936 221.479C344.339 220.997 344.507 218.039 345.565 217.768L345.568 217.766ZM335.301 217.526C335.196 217.309 334.688 216.24 335.147 215.218C335.555 214.314 336.549 214.063 338.179 213.626C339.799 213.193 340.726 212.944 341.525 213.48C342.494 214.13 342.562 215.46 342.576 215.667C342.66 217.246 341.567 219.092 339.698 219.57C337.83 220.047 335.995 218.977 335.301 217.526ZM354.456 212.63C354.54 214.209 353.447 216.055 351.578 216.533C349.71 217.011 347.875 215.941 347.181 214.49C347.076 214.273 346.568 213.203 347.027 212.182C347.435 211.277 348.429 211.026 350.059 210.59C351.679 210.156 352.606 209.908 353.405 210.444C354.374 211.094 354.443 212.423 354.456 212.63Z" fill="white"/>
<defs>
<filter id="filter0_b_778_25205" x="207.813" y="-86.9031" width="442.987" height="481.638" filterUnits="userSpaceOnUse" color-interpolation-filters="sRGB">
<feFlood flood-opacity="0" result="BackgroundImageFix"/>
<feGaussianBlur in="BackgroundImageFix" stdDeviation="43.7966"/>
<feComposite in2="SourceAlpha" operator="in" result="effect1_backgroundBlur_778_25205"/>
<feBlend mode="normal" in="SourceGraphic" in2="effect1_backgroundBlur_778_25205" result="shape"/>
</filter>
<filter id="filter1_b_778_25205" x="-42.73" y="-24.0941" width="405.025" height="242.827" filterUnits="userSpaceOnUse" color-interpolation-filters="sRGB">
<feFlood flood-opacity="0" result="BackgroundImageFix"/>
<feGaussianBlur in="BackgroundImageFix" stdDeviation="43.7966"/>
<feComposite in2="SourceAlpha" operator="in" result="effect1_backgroundBlur_778_25205"/>
<feBlend mode="normal" in="SourceGraphic" in2="effect1_backgroundBlur_778_25205" result="shape"/>
</filter>
<filter id="filter2_b_778_25205" x="-42.73" y="54.5895" width="405.025" height="242.827" filterUnits="userSpaceOnUse" color-interpolation-filters="sRGB">
<feFlood flood-opacity="0" result="BackgroundImageFix"/>
<feGaussianBlur in="BackgroundImageFix" stdDeviation="43.7966"/>
<feComposite in2="SourceAlpha" operator="in" result="effect1_backgroundBlur_778_25205"/>
<feBlend mode="normal" in="SourceGraphic" in2="effect1_backgroundBlur_778_25205" result="shape"/>
</filter>
<filter id="filter3_b_778_25205" x="-42.73" y="133.273" width="405.025" height="242.827" filterUnits="userSpaceOnUse" color-interpolation-filters="sRGB">
<feFlood flood-opacity="0" result="BackgroundImageFix"/>
<feGaussianBlur in="BackgroundImageFix" stdDeviation="43.7966"/>
<feComposite in2="SourceAlpha" operator="in" result="effect1_backgroundBlur_778_25205"/>
<feBlend mode="normal" in="SourceGraphic" in2="effect1_backgroundBlur_778_25205" result="shape"/>
</filter>
<filter id="filter4_b_778_25205" x="-42.73" y="211.957" width="405.025" height="242.827" filterUnits="userSpaceOnUse" color-interpolation-filters="sRGB">
<feFlood flood-opacity="0" result="BackgroundImageFix"/>
<feGaussianBlur in="BackgroundImageFix" stdDeviation="43.7966"/>
<feComposite in2="SourceAlpha" operator="in" result="effect1_backgroundBlur_778_25205"/>
<feBlend mode="normal" in="SourceGraphic" in2="effect1_backgroundBlur_778_25205" result="shape"/>
</filter>
<linearGradient id="paint0_linear_778_25205" x1="102.84" y1="27.2631" x2="274.701" y2="27.2631" gradientUnits="userSpaceOnUse">
<stop stop-color="white" stop-opacity="0.04"/>
<stop offset="1" stop-color="white"/>
</linearGradient>
<linearGradient id="paint1_linear_778_25205" x1="531.319" y1="115.788" x2="538.605" y2="42.3371" gradientUnits="userSpaceOnUse">
<stop stop-color="#FBBE7E"/>
<stop offset="1" stop-color="#FF6E75"/>
</linearGradient>
<linearGradient id="paint2_linear_778_25205" x1="113.374" y1="-16.0929" x2="88.4614" y2="90.7533" gradientUnits="userSpaceOnUse">
<stop offset="0.01" stop-color="#F4FA8E"/>
<stop offset="0.297135" stop-color="#FBBE7E"/>
<stop offset="1" stop-color="#FF6E75"/>
</linearGradient>
<radialGradient id="paint3_radial_778_25205" cx="0" cy="0" r="1" gradientUnits="userSpaceOnUse" gradientTransform="translate(568.5 55) rotate(175.001) scale(252.46 227.442)">
<stop stop-color="#935E5D"/>
<stop offset="0.353133" stop-color="#000223"/>
</radialGradient>
<linearGradient id="paint4_linear_778_25205" x1="389.276" y1="325.834" x2="381.989" y2="76.5379" gradientUnits="userSpaceOnUse">
<stop stop-color="#FF6E75" stop-opacity="0"/>
<stop offset="0.439527" stop-color="#FF6E75"/>
<stop offset="1" stop-color="#FF6E75" stop-opacity="0"/>
</linearGradient>
<linearGradient id="paint5_linear_778_25205" x1="352.367" y1="260.692" x2="356.614" y2="491.105" gradientUnits="userSpaceOnUse">
<stop stop-color="#FF6E75" stop-opacity="0"/>
<stop offset="0.439527" stop-color="#FF6E75"/>
<stop offset="1" stop-color="#FF6E75" stop-opacity="0"/>
</linearGradient>
<linearGradient id="paint6_linear_778_25205" x1="325.777" y1="35.7279" x2="535.6" y2="35.7279" gradientUnits="userSpaceOnUse">
<stop stop-color="#FF6E75" stop-opacity="0.08"/>
<stop offset="1" stop-color="#FF6E75" stop-opacity="0.63"/>
</linearGradient>
<linearGradient id="paint7_linear_778_25205" x1="431.188" y1="307.142" x2="431.117" y2="48.7255" gradientUnits="userSpaceOnUse">
<stop offset="0.045" stop-color="white" stop-opacity="0"/>
<stop offset="0.5" stop-color="white"/>
<stop offset="1" stop-color="white" stop-opacity="0"/>
</linearGradient>
<linearGradient id="paint8_linear_778_25205" x1="563.207" y1="168.601" x2="281.562" y2="168.686" gradientUnits="userSpaceOnUse">
<stop offset="0.045" stop-color="white" stop-opacity="0"/>
<stop offset="0.5" stop-color="white"/>
<stop offset="1" stop-color="white" stop-opacity="0"/>
</linearGradient>
<radialGradient id="paint9_radial_778_25205" cx="0" cy="0" r="1" gradientUnits="userSpaceOnUse" gradientTransform="translate(75 56) rotate(48.1911) scale(298.508 291.111)">
<stop stop-color="#935E5D"/>
<stop offset="0.410378" stop-color="#000223"/>
</radialGradient>
<linearGradient id="paint10_linear_778_25205" x1="132.175" y1="271.251" x2="288.162" y2="409.293" gradientUnits="userSpaceOnUse">
<stop stop-color="#000223" stop-opacity="0.31"/>
<stop offset="1" stop-color="#FF6E75" stop-opacity="0.24"/>
</linearGradient>
</defs>
</svg>
