<svg width="360" height="220" viewBox="0 0 360 220" fill="none" xmlns="http://www.w3.org/2000/svg">
<path opacity="0.4" d="M84 23L197.742 23" stroke="url(#paint0_linear_2022_5820)" stroke-dasharray="4.95 4.95"/>
<g opacity="0.7" filter="url(#filter0_d_2022_5820)">
<circle cx="2" cy="2" r="2" transform="matrix(1 1.74846e-07 1.74846e-07 -1 198 25)" fill="#FBBE7E"/>
</g>
<path opacity="0.4" d="M0 142L113.742 142" stroke="url(#paint1_linear_2022_5820)" stroke-dasharray="4.95 4.95"/>
<g opacity="0.7" filter="url(#filter1_d_2022_5820)">
<circle cx="2" cy="2" r="2" transform="matrix(1 1.74846e-07 1.74846e-07 -1 114 144)" fill="#FBBE7E"/>
</g>
<path opacity="0.4" d="M213 201L326.742 201" stroke="url(#paint2_linear_2022_5820)" stroke-dasharray="4.95 4.95"/>
<g opacity="0.7" filter="url(#filter2_d_2022_5820)">
<circle cx="2" cy="2" r="2" transform="matrix(1 1.74846e-07 1.74846e-07 -1 327 203)" fill="#FBBE7E"/>
</g>
<g filter="url(#filter3_b_2022_5820)">
<path d="M130.581 170.902C90.3639 154.141 63.4307 126.949 70.4244 110.169L83.3755 79.0936C111.437 81.431 178.051 82.7779 229.016 139.792L216.065 170.867C209.071 187.648 170.799 187.664 130.581 170.902Z" fill="#FBBE7E"/>
<path d="M130.581 170.902C90.3639 154.141 63.4307 126.949 70.4244 110.169L83.3755 79.0936C111.437 81.431 178.051 82.7779 229.016 139.792L216.065 170.867C209.071 187.648 170.799 187.664 130.581 170.902Z" stroke="white" stroke-opacity="0.05" stroke-width="0.562775" stroke-miterlimit="10"/>
</g>
<g filter="url(#filter4_b_2022_5820)">
<ellipse cx="78.8915" cy="34.2891" rx="78.8915" ry="34.2891" transform="matrix(-0.923043 -0.384696 -0.384696 0.923043 241.393 110.1)" fill="url(#paint3_linear_2022_5820)"/>
<ellipse cx="78.8915" cy="34.2891" rx="78.8915" ry="34.2891" transform="matrix(-0.923043 -0.384696 -0.384696 0.923043 241.393 110.1)" stroke="#FBBE7E" stroke-width="1.3339" stroke-miterlimit="10"/>
</g>
<path opacity="0.4" d="M161.578 102.088C158.297 100.203 154.953 98.8262 151.547 97.9571C148.105 97.0506 144.772 96.6642 141.548 96.7979C138.018 96.9444 135.438 97.6537 133.808 98.9261C132.177 100.198 131.611 101.932 132.107 104.126C132.655 106.319 134.299 108.815 137.04 111.616C139.781 114.417 142.978 116.869 146.632 118.971C150.301 121.034 154.083 122.587 157.979 123.63C161.875 124.673 165.588 125.122 169.118 124.975C173.876 124.778 176.789 123.647 177.857 121.582C178.924 119.517 178.164 116.808 175.577 113.457L155.546 114.288L150.559 109.19L179.953 107.971L184.831 112.957C187.228 116.005 188.466 118.849 188.546 121.488C188.677 124.125 187.573 126.289 185.234 127.979C182.91 129.63 179.419 130.552 174.763 130.745C169.749 130.953 164.348 130.303 158.559 128.794C152.734 127.248 147.114 125.014 141.698 122.091C136.333 119.165 131.788 115.798 128.061 111.989C124.334 108.179 122.192 104.712 121.637 101.588C121.134 98.4608 122.132 95.9711 124.632 94.1187C127.146 92.2267 130.885 91.1778 135.848 90.972C141.527 90.7364 147.572 91.5544 153.982 93.4259C160.406 95.2579 166.443 97.9999 172.093 101.652L161.578 102.088Z" fill="white"/>
<g filter="url(#filter5_b_2022_5820)">
<ellipse cx="64.2187" cy="26.7469" rx="64.2187" ry="26.7469" transform="matrix(-0.923043 -0.384696 -0.384696 0.923043 224.947 111.42)" stroke="white" stroke-opacity="0.1" stroke-width="1.54912" stroke-miterlimit="10"/>
</g>
<g filter="url(#filter6_b_2022_5820)">
<path d="M289.754 84.629C308.871 80.5968 323.004 70.8617 321.322 62.8852L318.206 48.1142C305.648 46.8047 276.186 41.8449 248.978 62.7163L252.094 77.4873C253.776 85.4638 270.637 88.6613 289.754 84.629Z" fill="url(#paint4_linear_2022_5820)"/>
<path d="M289.754 84.629C308.871 80.5968 323.004 70.8617 321.322 62.8852L318.206 48.1142C305.648 46.8047 276.186 41.8449 248.978 62.7163L252.094 77.4873C253.776 85.4638 270.637 88.6613 289.754 84.629Z" stroke="white" stroke-opacity="0.05" stroke-width="1.8311" stroke-miterlimit="10"/>
</g>
<g filter="url(#filter7_b_2022_5820)">
<ellipse cx="286.851" cy="55.6953" rx="28.7963" ry="11.9933" transform="rotate(-11.9107 286.851 55.6953)" fill="white" fill-opacity="0.44"/>
</g>
<ellipse cx="283.787" cy="56.3458" rx="35.3757" ry="15.3755" transform="rotate(-11.9107 283.787 56.3458)" fill="url(#paint5_linear_2022_5820)" stroke="url(#paint6_linear_2022_5820)" stroke-width="1.44582" stroke-miterlimit="10"/>
<path opacity="0.4" d="M293.937 53.7609C294.298 52.926 294.182 52.231 293.588 51.6756C293.012 51.1064 292.017 50.6958 290.602 50.444C289.052 50.1683 287.382 50.1392 285.592 50.3567C283.802 50.5743 282.029 51.0195 280.271 51.6924C278.537 52.3694 276.971 53.2321 275.576 54.2806C274.18 55.329 273.279 56.3186 272.873 57.2493C272.509 58.1701 272.644 58.955 273.28 59.6042C273.916 60.2534 275.009 60.7159 276.559 60.9916C278.648 61.3633 280.828 61.3016 283.098 60.8065C285.369 60.3113 287.478 59.4677 289.427 58.2754L280.633 56.7107L283.174 54.8025L296.078 57.0986L293.593 58.9649C291.838 60.0533 289.8 60.9788 287.479 61.7416C285.18 62.5084 282.807 63.0285 280.359 63.3019C277.953 63.5653 275.727 63.5152 273.683 63.1515C271.482 62.7598 269.891 62.0876 268.909 61.1348C267.946 60.168 267.679 59.0225 268.108 57.6983C268.56 56.3781 269.735 55.0051 271.634 53.5791C273.532 52.1532 275.763 50.968 278.326 50.0235C280.912 49.083 283.533 48.4601 286.19 48.1547C288.888 47.8394 291.326 47.8755 293.505 48.2632C295.998 48.7068 297.699 49.485 298.607 50.5975C299.556 51.7001 299.538 53.0284 298.553 54.5822L293.937 53.7609Z" fill="white"/>
<ellipse cx="283.789" cy="56.3497" rx="28.7963" ry="11.9936" transform="rotate(-11.9107 283.789 56.3497)" stroke="white" stroke-opacity="0.1" stroke-width="0.752696" stroke-miterlimit="10"/>
<defs>
<filter id="filter0_d_2022_5820" x="193.2" y="16.2" width="13.6" height="13.6" filterUnits="userSpaceOnUse" color-interpolation-filters="sRGB">
<feFlood flood-opacity="0" result="BackgroundImageFix"/>
<feColorMatrix in="SourceAlpha" type="matrix" values="0 0 0 0 0 0 0 0 0 0 0 0 0 0 0 0 0 0 127 0" result="hardAlpha"/>
<feOffset/>
<feGaussianBlur stdDeviation="2.4"/>
<feComposite in2="hardAlpha" operator="out"/>
<feColorMatrix type="matrix" values="0 0 0 0 0.984314 0 0 0 0 0.745098 0 0 0 0 0.494118 0 0 0 1 0"/>
<feBlend mode="normal" in2="BackgroundImageFix" result="effect1_dropShadow_2022_5820"/>
<feBlend mode="normal" in="SourceGraphic" in2="effect1_dropShadow_2022_5820" result="shape"/>
</filter>
<filter id="filter1_d_2022_5820" x="109.2" y="135.2" width="13.6" height="13.6" filterUnits="userSpaceOnUse" color-interpolation-filters="sRGB">
<feFlood flood-opacity="0" result="BackgroundImageFix"/>
<feColorMatrix in="SourceAlpha" type="matrix" values="0 0 0 0 0 0 0 0 0 0 0 0 0 0 0 0 0 0 127 0" result="hardAlpha"/>
<feOffset/>
<feGaussianBlur stdDeviation="2.4"/>
<feComposite in2="hardAlpha" operator="out"/>
<feColorMatrix type="matrix" values="0 0 0 0 0.984314 0 0 0 0 0.745098 0 0 0 0 0.494118 0 0 0 1 0"/>
<feBlend mode="normal" in2="BackgroundImageFix" result="effect1_dropShadow_2022_5820"/>
<feBlend mode="normal" in="SourceGraphic" in2="effect1_dropShadow_2022_5820" result="shape"/>
</filter>
<filter id="filter2_d_2022_5820" x="322.2" y="194.2" width="13.6" height="13.6" filterUnits="userSpaceOnUse" color-interpolation-filters="sRGB">
<feFlood flood-opacity="0" result="BackgroundImageFix"/>
<feColorMatrix in="SourceAlpha" type="matrix" values="0 0 0 0 0 0 0 0 0 0 0 0 0 0 0 0 0 0 127 0" result="hardAlpha"/>
<feOffset/>
<feGaussianBlur stdDeviation="2.4"/>
<feComposite in2="hardAlpha" operator="out"/>
<feColorMatrix type="matrix" values="0 0 0 0 0.984314 0 0 0 0 0.745098 0 0 0 0 0.494118 0 0 0 1 0"/>
<feBlend mode="normal" in2="BackgroundImageFix" result="effect1_dropShadow_2022_5820"/>
<feBlend mode="normal" in="SourceGraphic" in2="effect1_dropShadow_2022_5820" result="shape"/>
</filter>
<filter id="filter3_b_2022_5820" x="60.5965" y="70.3546" width="177.189" height="121.831" filterUnits="userSpaceOnUse" color-interpolation-filters="sRGB">
<feFlood flood-opacity="0" result="BackgroundImageFix"/>
<feGaussianBlur in="BackgroundImageFix" stdDeviation="4.22082"/>
<feComposite in2="SourceAlpha" operator="in" result="effect1_backgroundBlur_2022_5820"/>
<feBlend mode="normal" in="SourceGraphic" in2="effect1_backgroundBlur_2022_5820" result="shape"/>
</filter>
<filter id="filter4_b_2022_5820" x="71.5372" y="57.7249" width="167.688" height="107.352" filterUnits="userSpaceOnUse" color-interpolation-filters="sRGB">
<feFlood flood-opacity="0" result="BackgroundImageFix"/>
<feGaussianBlur in="BackgroundImageFix" stdDeviation="4.57955"/>
<feComposite in2="SourceAlpha" operator="in" result="effect1_backgroundBlur_2022_5820"/>
<feBlend mode="normal" in="SourceGraphic" in2="effect1_backgroundBlur_2022_5820" result="shape"/>
</filter>
<filter id="filter5_b_2022_5820" x="78.9508" y="60.2207" width="152.86" height="102.366" filterUnits="userSpaceOnUse" color-interpolation-filters="sRGB">
<feFlood flood-opacity="0" result="BackgroundImageFix"/>
<feGaussianBlur in="BackgroundImageFix" stdDeviation="7.74114"/>
<feComposite in2="SourceAlpha" operator="in" result="effect1_backgroundBlur_2022_5820"/>
<feBlend mode="normal" in="SourceGraphic" in2="effect1_backgroundBlur_2022_5820" result="shape"/>
</filter>
<filter id="filter6_b_2022_5820" x="220.497" y="18.2716" width="129.343" height="96.4834" filterUnits="userSpaceOnUse" color-interpolation-filters="sRGB">
<feFlood flood-opacity="0" result="BackgroundImageFix"/>
<feGaussianBlur in="BackgroundImageFix" stdDeviation="13.7332"/>
<feComposite in2="SourceAlpha" operator="in" result="effect1_backgroundBlur_2022_5820"/>
<feBlend mode="normal" in="SourceGraphic" in2="effect1_backgroundBlur_2022_5820" result="shape"/>
</filter>
<filter id="filter7_b_2022_5820" x="245.132" y="29.1062" width="83.4369" height="53.1782" filterUnits="userSpaceOnUse" color-interpolation-filters="sRGB">
<feFlood flood-opacity="0" result="BackgroundImageFix"/>
<feGaussianBlur in="BackgroundImageFix" stdDeviation="6.71599"/>
<feComposite in2="SourceAlpha" operator="in" result="effect1_backgroundBlur_2022_5820"/>
<feBlend mode="normal" in="SourceGraphic" in2="effect1_backgroundBlur_2022_5820" result="shape"/>
</filter>
<linearGradient id="paint0_linear_2022_5820" x1="75" y1="13.5" x2="197.742" y2="15.1539" gradientUnits="userSpaceOnUse">
<stop offset="0.015" stop-color="#FBBE7E" stop-opacity="0"/>
<stop offset="0.69" stop-color="#FBBE7E"/>
</linearGradient>
<linearGradient id="paint1_linear_2022_5820" x1="-9" y1="132.5" x2="113.742" y2="134.154" gradientUnits="userSpaceOnUse">
<stop offset="0.015" stop-color="#FBBE7E" stop-opacity="0"/>
<stop offset="0.69" stop-color="#FBBE7E"/>
</linearGradient>
<linearGradient id="paint2_linear_2022_5820" x1="204" y1="191.5" x2="326.742" y2="193.154" gradientUnits="userSpaceOnUse">
<stop offset="0.015" stop-color="#FBBE7E" stop-opacity="0"/>
<stop offset="0.69" stop-color="#FBBE7E"/>
</linearGradient>
<linearGradient id="paint3_linear_2022_5820" x1="-17.0588" y1="-9.06825" x2="30.8838" y2="119.454" gradientUnits="userSpaceOnUse">
<stop stop-color="#000223"/>
<stop offset="1" stop-color="#FBBE7E"/>
</linearGradient>
<linearGradient id="paint4_linear_2022_5820" x1="297.305" y1="82.8954" x2="295.073" y2="38.3048" gradientUnits="userSpaceOnUse">
<stop stop-color="#FF6E75"/>
<stop offset="1" stop-color="#FBBE7E"/>
</linearGradient>
<linearGradient id="paint5_linear_2022_5820" x1="252.863" y1="41.6735" x2="269.649" y2="90.5553" gradientUnits="userSpaceOnUse">
<stop stop-color="#000223"/>
<stop offset="1" stop-color="#FF6E75"/>
</linearGradient>
<linearGradient id="paint6_linear_2022_5820" x1="291.533" y1="71.6078" x2="296.32" y2="35.0487" gradientUnits="userSpaceOnUse">
<stop stop-color="#FF6E75"/>
<stop offset="1" stop-color="#FBBE7E"/>
</linearGradient>
</defs>
</svg>
