<svg width="62" height="62" viewBox="0 0 62 62" fill="none" xmlns="http://www.w3.org/2000/svg">
<rect width="61.4117" height="61.4117" rx="30.7059" fill="url(#paint0_linear_8_188)"/>
<g clip-path="url(#clip0_8_188)">
<path d="M19.9557 26.8257C17.0274 24.5835 15.5131 20.9994 15.2668 17.9954C15.2303 17.5192 14.8198 17.2422 14.4093 17.2422C14.1082 17.2422 13.8072 17.3894 13.643 17.701C10.66 23.4061 11.8459 31.2496 15.2212 34.3835C16.0148 32.1153 17.3102 29.8558 18.9978 27.8819C19.308 27.5183 19.6273 27.172 19.9557 26.8344V26.8257ZM48.0343 17.701C47.8701 17.3894 47.5691 17.2422 47.2681 17.2422C46.8484 17.2422 46.447 17.5106 46.4014 17.9954C46.1551 20.9994 44.6408 24.5922 41.7125 26.8344C42.0409 27.172 42.3602 27.5183 42.6704 27.8819C44.358 29.8558 45.6534 32.1153 46.4471 34.3835C49.8223 31.2496 51.0082 23.4148 48.0343 17.701ZM35.783 25.1549V37.1884H44.8871C44.0114 32.5741 40.481 27.4231 35.783 25.1549ZM25.8943 37.1884V25.1549C21.1963 27.4144 17.6751 32.5655 16.7902 37.1884H25.8943ZM45.2247 39.3268H16.4527C15.9327 39.3268 15.5131 39.725 15.5131 40.2185V44.1402C15.5131 44.6336 15.9327 45.0319 16.4527 45.0319H45.2155C45.7355 45.0319 46.1551 44.6336 46.1551 44.1402V40.2185C46.1551 39.725 45.7355 39.3268 45.2155 39.3268H45.2247ZM33.5298 24.3238C32.6631 24.0987 31.76 23.9775 30.8387 23.9775C29.9173 23.9775 29.0233 24.0987 28.1476 24.3238V37.1798H33.5207V24.3238H33.5298Z" fill="white"/>
</g>
<defs>
<linearGradient id="paint0_linear_8_188" x1="37.4289" y1="61.185" x2="57.941" y2="-6.89759" gradientUnits="userSpaceOnUse">
<stop stop-color="#FF6E75"/>
<stop offset="1" stop-color="#FBBE7E"/>
</linearGradient>
<clipPath id="clip0_8_188">
<rect width="37.794" height="27.7897" fill="white" transform="translate(11.9375 17.2417)"/>
</clipPath>
</defs>
</svg>
