<svg width="137" height="33" viewBox="0 0 137 33" fill="none" xmlns="http://www.w3.org/2000/svg">
<g clip-path="url(#clip0_2023_2742)">
<path fill-rule="evenodd" clip-rule="evenodd" d="M108.822 2.36303V12.8692C106.746 10.7173 103.72 9.71716 100.744 10.1991C99.7289 10.3488 98.7499 10.6797 97.8556 11.1756C94.8224 12.8278 92.9468 15.9749 92.963 19.3845C92.9631 20.1723 93.0625 20.957 93.2591 21.7208C93.4985 22.6786 93.8935 23.5922 94.429 24.4263C94.973 25.2753 95.6535 26.0319 96.4438 26.6667C97.3065 27.3751 98.3011 27.9118 99.3721 28.2467L99.5743 28.3106L99.6357 28.3284C100.472 28.5678 101.339 28.6874 102.21 28.6834H102.506H102.687C104.107 28.6583 105.494 28.2612 106.706 27.5331C107.505 27.0839 108.234 26.5243 108.872 25.8714V28.1935H112.783V0.885986L108.822 2.36303ZM108.683 19.4296C108.604 22.5458 106.012 25.0316 102.842 25.0316C99.6724 25.0316 97.0808 22.5458 97.002 19.4296C97.002 16.2057 99.4537 13.7948 102.779 13.77C106.105 13.7451 108.708 16.1737 108.679 19.4331L108.683 19.4296ZM16.0482 12.8649V10.5783H19.9912V28.175H16.0771V25.8529C15.4394 26.5058 14.7098 27.0654 13.9106 27.5146C12.714 28.2398 11.3438 28.6416 9.93871 28.6791H9.74012H9.44403C8.57297 28.6831 7.70588 28.5635 6.86954 28.3241L6.80816 28.3063L6.60595 28.2424C5.53487 27.9075 4.54028 27.3708 3.6776 26.6624C2.88857 26.0273 2.20937 25.2707 1.66639 24.422C1.12751 23.5897 0.728803 22.6773 0.48566 21.72C0.289103 20.9563 0.189649 20.1715 0.189575 19.3837C0.172035 15.9729 2.0479 12.8241 5.0822 11.1713C5.97652 10.6754 6.95549 10.3445 7.97083 10.1949C10.9469 9.71288 13.9725 10.713 16.0482 12.8649ZM14.1942 23.4624C15.297 22.4001 15.9139 20.943 15.9035 19.425H15.8999C15.9288 16.1514 13.3218 13.7299 9.99629 13.7547C6.67075 13.7796 4.21903 16.1904 4.21903 19.4144C4.2038 20.9323 4.81677 22.3911 5.91717 23.4557C7.01758 24.5203 8.51085 25.0994 10.0541 25.0598C11.5973 25.1012 13.0914 24.5247 14.1942 23.4624ZM33.8594 19.3857C33.8594 14.254 38.09 10.0939 43.3088 10.0939C45.8132 10.0813 48.2179 11.0582 49.983 12.8053C51.7482 14.5523 52.726 16.9232 52.6969 19.3857C52.7339 21.8506 51.7587 24.226 49.9918 25.9748C48.2249 27.7235 45.8157 28.6979 43.3088 28.6776C38.09 28.6776 33.8594 24.5175 33.8594 19.3857ZM43.1088 24.7871C46.2899 24.8617 48.7561 22.7598 48.8536 19.6601V19.6566C48.9366 16.4433 46.651 13.7484 43.5204 13.6703C42.0044 13.5826 40.5184 14.1112 39.4103 15.1323C38.3022 16.1535 37.6694 17.5774 37.6601 19.0707C37.5804 20.5474 38.1167 21.9922 39.1451 23.0712C40.1735 24.1502 41.605 24.7699 43.1088 24.7871ZM130.245 10.5848V12.8713C128.17 10.7194 125.144 9.71931 122.168 10.2013C121.153 10.3509 120.174 10.6819 119.279 11.1777C116.246 12.83 114.371 15.977 114.387 19.3866C114.387 20.1744 114.486 20.9592 114.683 21.7229C114.926 22.6802 115.325 23.5926 115.864 24.4249C116.408 25.2739 117.088 26.0305 117.878 26.6653C118.741 27.3737 119.736 27.9104 120.807 28.2453L121.009 28.3092L121.07 28.327C121.907 28.5664 122.774 28.686 123.645 28.682H123.941H124.122C125.534 28.6542 126.913 28.2584 128.119 27.5352C128.918 27.086 129.647 26.5264 130.285 25.8735V28.1956H134.196V10.5848H130.245ZM130.103 19.4315C130.024 22.5477 127.432 25.0336 124.262 25.0336C121.092 25.0336 118.501 22.5477 118.422 19.4315C118.422 16.2076 120.874 13.7968 124.199 13.7719C127.525 13.7471 130.128 16.1721 130.103 19.4315ZM67.2915 13.6423L67.2915 13.6563V13.6564V13.6565V13.6566C67.2952 15.9243 67.2988 18.1916 67.2534 20.4567C67.2173 22.1254 66.6865 23.6344 65.0147 24.4972C61.765 26.1802 58.5153 24.4653 58.4106 20.9893C58.3276 17.8932 58.3817 10.5825 58.3817 10.5825H54.3268V20.5632C54.2915 21.3977 54.3668 22.2332 54.5507 23.0486C55.1774 26.368 58.1629 28.7485 61.5953 28.6656C63.7161 28.6698 65.7641 27.905 67.3473 26.5175V28.1969H71.2217V10.5861H67.2895V11.8004C67.2895 12.4144 67.2905 13.0284 67.2915 13.6423ZM78.4643 25.3841L78.4642 25.3702V25.3701C78.4606 23.1022 78.457 20.8348 78.5023 18.5697C78.5385 16.9009 79.0692 15.3919 80.741 14.5291C83.9908 12.8461 87.2405 14.5611 87.3452 18.0371C87.403 20.1934 87.3925 22.3498 87.3821 24.505V24.5051V24.5057C87.3775 25.4447 87.373 26.3834 87.3741 27.3218V28.4438H91.4362V18.4596C91.4715 17.6251 91.3962 16.7896 91.2123 15.9742C90.5854 12.6534 87.5978 10.2725 84.1641 10.3572C82.0426 10.3577 79.9959 11.1276 78.4157 12.5195V10.84H74.5449V28.4509H78.4735L78.4662 27.226C78.4662 26.612 78.4653 25.998 78.4643 25.3841ZM27.4131 10.5811V12.4522C28.7816 11.1811 31.1503 10.361 32.9954 10.116V13.9186C32.2155 13.9293 30.5762 14.1388 29.7457 14.5684C28.0739 15.4347 27.5395 16.9402 27.507 18.6089V28.1955H23.5352V10.5811H27.4131Z" fill="#F5F7FF"/>
</g>
<defs>
<clipPath id="clip0_2023_2742">
<rect width="136" height="32" fill="white" transform="translate(0.333984 0.5)"/>
</clipPath>
</defs>
</svg>
