<svg width="127" height="37" viewBox="0 0 127 37" fill="none" xmlns="http://www.w3.org/2000/svg">
<g>
<path d="M19.5968 0.0859375H19.9451C20.5625 0.164438 21.1858 0.208699 21.8007 0.315593C24.6922 0.776574 27.4677 1.94656 29.8145 3.69779C31.8171 5.19264 33.5281 7.08249 34.7963 9.23624C36.1916 11.6071 37.0228 14.3029 37.2192 17.0454C37.5985 22.0694 35.8457 27.2187 32.4445 30.9416C30.4569 33.1371 27.9163 34.8199 25.1275 35.8128C26.4108 35.1623 27.4276 34.0941 28.2781 32.9534C28.9414 32.0264 29.5521 31.0276 29.832 29.9111C28.4259 31.2965 26.562 32.13 24.6597 32.5776C22.5585 33.0578 20.2994 33.1062 18.255 32.3546C19.1606 32.3095 20.0446 32.0331 20.8332 31.5905C22.0112 30.9216 23.0781 29.9645 23.663 28.7235C21.2067 29.4935 18.4196 29.4593 16.1112 28.245C14.8338 27.5769 13.7385 26.5063 13.1821 25.1635C12.583 23.743 12.5855 22.1337 12.9481 20.653C13.1754 21.509 13.5079 22.3458 14.0142 23.0774C14.6993 24.0912 15.7394 24.8637 16.9224 25.1902C18.5274 25.6453 20.2543 25.3823 21.7823 24.7743C23.9779 23.8858 25.9012 22.2915 27.1126 20.2505C27.7024 19.2684 28.055 18.1644 28.2839 17.0479C28.6064 15.4737 28.6198 13.8394 28.3357 12.2577C27.8795 9.68637 26.684 7.29211 25.1208 5.21769C23.5928 3.20842 21.7305 1.44049 19.5968 0.0859375Z" fill="white"/>
<path d="M3.79798 7.88583C5.92006 4.82599 9.01795 2.46597 12.5227 1.20996C11.2294 1.89893 10.196 2.9829 9.34295 4.15707C8.70967 5.05564 8.13153 6.0227 7.86084 7.09832C9.31956 5.6636 11.2637 4.81931 13.2404 4.38505C15.2798 3.9533 17.4637 3.9224 19.4387 4.6573C18.5965 4.69488 17.7728 4.93789 17.0292 5.32873C15.781 5.99681 14.644 6.98475 14.0349 8.28335C16.3491 7.56348 18.9441 7.54761 21.1748 8.56311C22.5658 9.19028 23.7931 10.2634 24.4331 11.6664C25.1073 13.1228 25.1215 14.8097 24.7456 16.348C24.4983 15.4361 24.1382 14.5425 23.5717 13.7792C22.8649 12.7996 21.8122 12.0764 20.6392 11.7816C19.0485 11.3758 17.355 11.6488 15.8537 12.2585C13.7016 13.1437 11.8168 14.707 10.6137 16.7038C9.9779 17.7468 9.60946 18.9277 9.37888 20.1202C9.08396 21.6601 9.08646 23.2544 9.36634 24.796C9.8317 27.3665 11.0339 29.7582 12.6029 31.8301C14.1218 33.8185 15.969 35.5697 18.0836 36.9143H17.6942C15.8094 36.7556 13.9363 36.3798 12.1727 35.6858C6.89588 33.6498 2.65423 29.0676 1.11949 23.616C0.704262 22.1871 0.500409 20.7064 0.421875 19.2233V18.2454C0.507928 14.5617 1.67925 10.9048 3.79798 7.88583Z" fill="white"/>
<path d="M78.3679 2.92647C80.449 2.55401 82.6822 2.82876 84.5361 3.87515C84.2454 4.63009 83.9346 5.37584 83.6313 6.12577C82.0882 5.28315 80.1992 4.7921 78.489 5.40507C77.7956 5.65728 77.4029 6.63352 77.9009 7.23396C78.2726 7.60392 78.7965 7.76677 79.2911 7.90289C80.1842 8.11083 81.0664 8.36136 81.9537 8.59436C82.9253 8.85993 83.9103 9.29919 84.5311 10.126C85.1769 11.0179 85.2187 12.2354 84.8502 13.2468C84.5311 14.1462 83.7976 14.8477 82.9562 15.2694C81.8041 15.8615 80.4757 15.9592 79.2017 15.9341C77.5383 15.8774 75.864 15.4214 74.4805 14.4802C74.8138 13.7403 75.1463 13.0012 75.4814 12.2622C76.9067 13.2175 78.6561 13.7153 80.3722 13.5441C80.8734 13.4889 81.4081 13.3812 81.7899 13.0263C82.1592 12.6989 82.2753 12.0876 81.9813 11.6759C81.7056 11.3185 81.2811 11.1206 80.8642 10.9794C79.469 10.5343 77.9994 10.3214 76.6527 9.72844C75.92 9.36684 75.2424 8.79228 74.9525 8.00978C74.5866 6.95754 74.6927 5.72993 75.3059 4.79043C75.9826 3.74654 77.174 3.15529 78.3679 2.92647Z" fill="white"/>
<path d="M46.0895 2.98947C48.0754 2.98947 50.0604 2.98362 52.0463 2.99114C53.5727 2.99866 55.1217 3.40369 56.3832 4.27972C57.2062 4.84676 57.877 5.63176 58.3006 6.53702C59.0826 8.19638 59.1118 10.1798 58.4318 11.8776C58.0642 12.8187 57.4267 13.6472 56.6247 14.2593C55.374 15.2172 53.7941 15.6999 52.2268 15.7257C50.1807 15.7291 48.1355 15.7274 46.0895 15.7257C46.087 11.48 46.0878 7.23434 46.0895 2.98947ZM49.0403 5.40795C49.037 8.04105 49.0378 10.675 49.0403 13.3081C50.5341 13.2354 52.0856 13.5236 53.5284 13.0058C54.5193 12.6659 55.3222 11.8583 55.6681 10.8712C56.1359 9.59603 55.9922 8.08197 55.201 6.9646C54.6471 6.17542 53.7432 5.68437 52.8066 5.51317C51.5634 5.27684 50.2944 5.46724 49.0403 5.40795Z" fill="white"/>
<path d="M61.0215 9.85839C61.0273 7.56852 61.0215 5.27864 61.0248 2.9896C62.0082 2.98877 62.9907 2.9871 63.974 2.9896C63.9849 5.44399 63.9548 7.89838 63.9891 10.3528C64.0058 11.1779 64.2071 12.0506 64.7744 12.6777C65.269 13.2306 66.0418 13.4093 66.7553 13.4393C67.5991 13.4586 68.5248 13.1796 69.0386 12.4706C69.5123 11.8151 69.6284 10.9808 69.6476 10.1924C69.6702 7.79149 69.6485 5.39055 69.6577 2.9896C70.6285 2.98793 71.5985 2.98877 72.5693 2.9896C72.5651 5.46988 72.581 7.951 72.5617 10.4313C72.5258 11.81 72.1448 13.2473 71.1874 14.2795C70.2818 15.2916 68.93 15.8035 67.5974 15.9079C66.2122 16.0223 64.7493 15.8779 63.522 15.1772C62.4927 14.606 61.7233 13.6147 61.3699 12.4973C61.0858 11.6489 61.0207 10.7469 61.0215 9.85839Z" fill="white"/>
<path d="M85.4855 2.98563C89.1883 2.98396 92.891 2.98396 96.5938 2.98563C96.5963 3.78566 96.5938 4.5857 96.5946 5.38657C95.2353 5.39325 93.8769 5.38741 92.5176 5.38991C92.5134 8.83641 92.5176 12.2829 92.5151 15.7286C91.5317 15.7302 90.5484 15.7311 89.565 15.7286C89.5617 12.2821 89.5667 8.83558 89.5625 5.38991C88.2016 5.38406 86.8406 5.4016 85.4805 5.37989C85.4855 4.58152 85.4846 3.78399 85.4855 2.98563Z" fill="white"/>
<path d="M81.1129 21.6737C81.6952 21.672 82.2767 21.6745 82.8598 21.6729C82.8632 22.3777 82.8598 23.0834 82.8632 23.7882C83.7847 23.7899 84.7062 23.7874 85.6286 23.789C85.6294 24.2675 85.6294 24.7461 85.6286 25.2246C84.7062 25.2262 83.7847 25.2237 82.8632 25.2254C82.8623 26.9508 82.8582 28.6769 82.8623 30.4023C82.8632 30.7973 82.9258 31.2132 83.1606 31.5422C83.397 31.8762 83.8139 32.0291 84.2091 32.0616C84.7555 32.1051 85.2869 31.9105 85.7581 31.6491C85.9343 32.065 86.1165 32.48 86.2961 32.8951C85.3328 33.5515 84.0596 33.731 82.9534 33.3611C82.5273 33.2149 82.1113 32.9978 81.8113 32.6537C81.3293 32.1092 81.1196 31.3693 81.1179 30.652C81.1012 28.8439 81.1179 27.0351 81.112 25.2262C80.5665 25.2237 80.0201 25.2254 79.4745 25.2237C79.472 24.7461 79.472 24.2675 79.4745 23.7899C80.0201 23.7874 80.5657 23.789 81.112 23.7882C81.1129 23.0834 81.1112 22.3785 81.1129 21.6737Z" fill="white"/>
<path d="M57.5823 25.3102C59.1838 23.4203 62.2759 23.1715 64.2225 24.6655C65.5885 25.706 66.1692 27.5249 66.0029 29.1926C63.3829 29.1884 60.762 29.1826 58.142 29.1959C58.2899 29.9809 58.65 30.7634 59.295 31.262C60.8055 32.4036 63.1523 32.2416 64.4648 30.8637C64.784 31.2403 65.1064 31.6136 65.4256 31.9902C63.4948 34.0404 59.9282 34.0454 57.8713 32.1815C56.025 30.4277 55.9431 27.2276 57.5823 25.3102ZM59.0477 26.0342C58.5197 26.5261 58.2832 27.2368 58.1512 27.9266C60.2257 27.9333 62.3001 27.9333 64.3746 27.9266C64.2459 27.2869 64.0329 26.6347 63.5692 26.157C62.4447 24.8809 60.2424 24.8325 59.0477 26.0342Z" fill="white"/>
<path d="M70.1289 25.2156C70.8407 24.3095 71.9661 23.7833 73.1073 23.7174C74.3062 23.6046 75.6212 23.8702 76.5018 24.742C77.3088 25.5037 77.6029 26.6511 77.6171 27.7284C77.6272 29.6291 77.618 31.5298 77.6205 33.4297C77.0381 33.4314 76.4567 33.433 75.8744 33.4314C75.8668 31.6701 75.8794 29.9089 75.8702 28.1476C75.8635 27.3835 75.7515 26.545 75.1968 25.9705C74.7481 25.4861 74.0798 25.284 73.4356 25.2665C72.5759 25.2189 71.6561 25.4544 71.0412 26.0849C70.4514 26.6586 70.2291 27.5063 70.2116 28.3071C70.2024 30.0149 70.2132 31.7227 70.2074 33.4305C69.6259 33.4322 69.0436 33.4314 68.4621 33.4314C68.4579 30.217 68.4579 27.0035 68.4621 23.7892C69.0194 23.7892 69.5766 23.7883 70.1347 23.79C70.1356 24.2652 70.1372 24.7404 70.1289 25.2156Z" fill="white"/>
<path d="M102.386 25.377C103.1 24.1719 104.571 23.665 105.912 23.68C105.917 24.2412 105.914 24.8024 105.915 25.3644C105.128 25.3536 104.279 25.4237 103.629 25.9148C102.84 26.4676 102.499 27.4639 102.479 28.395C102.462 30.0736 102.48 31.7522 102.471 33.4308C101.889 33.4316 101.307 33.4316 100.726 33.4308C100.724 30.2173 100.724 27.0029 100.726 23.7894C101.283 23.7877 101.841 23.7886 102.399 23.7886C102.402 24.318 102.403 24.8475 102.386 25.377Z" fill="white"/>
<path d="M109.254 24.4481C110.836 23.4459 112.994 23.4443 114.577 24.4439C115.489 25.0159 116.149 25.9471 116.456 26.9734C116.674 27.6875 116.738 28.4432 116.688 29.1865C114.064 29.1965 111.44 29.179 108.816 29.1957C108.967 30.0099 109.35 30.8216 110.037 31.3143C111.555 32.4075 113.844 32.2062 115.152 30.8684C115.462 31.2459 115.778 31.6183 116.097 31.9899C115.195 32.9796 113.864 33.5115 112.536 33.5341C111.037 33.6034 109.451 33.1441 108.397 32.0367C107.083 30.6696 106.77 28.5334 107.405 26.7797C107.742 25.826 108.395 24.985 109.254 24.4481ZM109.659 26.0949C109.171 26.5834 108.949 27.2641 108.823 27.9271C110.898 27.933 112.973 27.9338 115.048 27.9263C114.913 27.2198 114.643 26.5033 114.097 26.0106C112.917 24.8489 110.793 24.8907 109.659 26.0949Z" fill="white"/>
<path d="M119.529 24.3567C121.455 23.2919 123.867 23.5801 125.771 24.5488C125.526 25.0114 125.277 25.4724 125.028 25.9334C123.821 25.2269 122.328 24.9947 120.972 25.3538C120.471 25.5083 119.965 25.9125 119.956 26.4787C119.905 26.9739 120.31 27.3873 120.751 27.5376C122.126 28.0195 123.651 27.9944 124.962 28.6726C126.105 29.2613 126.372 30.8622 125.756 31.9228C125.454 32.4456 124.951 32.8272 124.409 33.0778C123.6 33.446 122.697 33.5454 121.818 33.5413C120.453 33.5304 119.07 33.1955 117.916 32.4514C118.143 31.9763 118.385 31.5078 118.636 31.0451C119.97 31.8861 121.624 32.2276 123.174 31.917C123.644 31.8109 124.155 31.5412 124.284 31.0393C124.433 30.5916 124.21 30.0463 123.767 29.8668C122.532 29.3281 121.132 29.4083 119.884 28.9122C119.399 28.7151 118.919 28.4379 118.622 27.9936C117.826 26.8245 118.256 25.0022 119.529 24.3567Z" fill="white"/>
<path d="M45.7129 23.7895C46.3194 23.787 46.926 23.787 47.5334 23.7895C48.6379 26.365 49.7373 28.9429 50.8443 31.5176C51.9764 28.9421 53.0992 26.3633 54.2321 23.7886C54.8011 23.7878 55.3708 23.787 55.9406 23.7895C54.5371 27.0038 53.1276 30.2165 51.7199 33.43C51.125 33.4317 50.5302 33.4308 49.9362 33.4317C48.5242 30.219 47.1181 27.0047 45.7129 23.7895Z" fill="white"/>
<path d="M88.3095 23.7895C88.891 23.787 89.4733 23.787 90.0564 23.7895C90.0665 25.4355 90.0439 27.0815 90.0614 28.7275C90.0664 29.3087 90.0414 29.9092 90.2586 30.4612C90.4666 31.0508 90.9103 31.5844 91.5185 31.7823C92.5369 32.1272 93.7575 32.0379 94.6155 31.3489C95.2363 30.8579 95.5437 30.072 95.6173 29.3012C95.6749 28.6682 95.6373 28.0318 95.6482 27.3972C95.6474 26.1946 95.6448 24.992 95.649 23.7895C96.2305 23.787 96.8128 23.7878 97.3951 23.7895C97.3968 27.0021 97.3968 30.2157 97.396 33.4292C96.8437 33.4317 96.2923 33.4325 95.7409 33.4308C95.7384 32.9548 95.7351 32.4788 95.7459 32.0036C94.2488 33.9327 91.0598 34.0722 89.3287 32.3886C88.5852 31.6236 88.3262 30.5188 88.3103 29.4808C88.3036 27.5834 88.3078 25.6868 88.3095 23.7895Z" fill="white"/>
</g>
</svg>
