<svg width="173" height="25" viewBox="0 0 173 25" fill="none" xmlns="http://www.w3.org/2000/svg">
<g clip-path="url(#clip0_2023_2816)">
<path fill-rule="evenodd" clip-rule="evenodd" d="M95.6648 22.9168C93.716 22.0168 92.2517 20.6942 91.2719 18.9263C90.2826 17.1692 89.7874 14.9882 89.7874 12.4025C89.7874 9.8168 90.2719 7.7156 91.2517 5.96918C92.2315 4.23108 93.6755 2.91918 95.6053 2.0406C97.5338 1.16203 99.9172 0.726318 102.765 0.726318C105.614 0.726318 107.977 1.17037 109.916 2.05965C111.855 2.94775 113.309 4.26203 114.299 6.01798C115.289 7.7656 115.784 9.92632 115.784 12.4918C115.784 15.0573 115.299 17.218 114.32 18.9656C113.34 20.7132 111.896 22.037 109.966 22.9251C108.037 23.8132 105.664 24.2585 102.835 24.2585C100.009 24.2585 97.6148 23.8132 95.6755 22.9144H95.666L95.6648 22.9168ZM106.573 18.2597C107.509 17.8575 108.264 17.1242 108.693 16.2001C109.139 15.2597 109.371 14.0287 109.371 12.5037C109.371 10.9787 109.148 9.74656 108.693 8.80727C108.264 7.88277 107.509 7.14902 106.573 6.74656C105.603 6.31203 104.341 6.0906 102.775 6.0906C101.21 6.0906 99.9481 6.31203 98.9886 6.74656C98.059 7.15501 97.309 7.88676 96.8779 8.80608C96.4326 9.74656 96.2005 10.9787 96.2005 12.5037C96.2005 14.0275 96.4326 15.2299 96.8874 16.1704C97.3422 17.1085 98.0493 17.7954 99.0088 18.2501C99.9672 18.6942 101.221 18.9263 102.765 18.9263C104.31 18.9263 105.603 18.7049 106.562 18.2704L106.573 18.2597ZM64.4814 1.05013H64.4719L64.4814 1.0406V1.05013ZM64.4814 1.05013H79.2267C80.8326 1.05013 82.2362 1.31203 83.4291 1.82751C84.6195 2.34298 85.5291 3.0906 86.1648 4.07037C86.8017 5.05013 87.1148 6.21084 87.1148 7.55489C87.1148 8.53465 86.9529 9.38227 86.6291 10.1204C86.3224 10.8355 85.8182 11.4484 85.1755 11.887C84.5291 12.3311 83.7517 12.6347 82.8422 12.7763V13.1097C83.8826 13.3311 84.7005 13.6644 85.2969 14.0989C85.8922 14.5335 86.3362 15.1394 86.6088 15.8966C86.8826 16.6537 87.0231 17.6442 87.0231 18.8454C87.0231 20.0477 87.0434 20.9358 87.0838 21.562C87.1243 22.1882 87.2255 22.987 87.3874 23.9466H81.3981C81.2612 23.2697 81.1698 22.5844 81.1243 21.8954C81.0766 20.8695 81.0567 19.8425 81.0648 18.8156C81.0648 18.0989 80.9636 17.5323 80.7624 17.1085C80.5679 16.6863 80.2164 16.3566 79.7826 16.1894C79.3374 16.0085 78.7219 15.9168 77.9541 15.9168H70.4707V23.9466H64.4814V1.04894V1.05013ZM70.4696 11.1192H77.7422C78.4803 11.1192 79.0553 11.0287 79.4993 10.8573C79.9338 10.6858 80.2565 10.4025 80.4588 10.0192C80.6612 9.63465 80.7624 9.10965 80.7624 8.46322C80.7624 7.81679 80.6612 7.29179 80.4588 6.90846C80.2527 6.52083 79.9111 6.22255 79.4993 6.07037C79.0648 5.89775 78.4791 5.80727 77.7422 5.80727H70.4707L70.4696 11.1192ZM53.9672 1.05013H60.1386V23.9549H53.9648V1.05132L53.9672 1.05013ZM35.2529 1.05013H42.2326L51.8279 23.9549H45.2326L43.7684 20.1382H33.5326L32.0112 23.9561H25.5684L35.2529 1.05013ZM38.9398 7.5537L41.985 15.493H35.3838L38.5457 7.5537H38.9398ZM125.83 1.05013H118.8V23.9549H124.76V9.17037H125.153L134.435 23.9561H141.464V1.05132H135.505V15.7466H135.111L125.83 1.05013ZM147.27 18.9716H148.745V23.1727H151.804V24.4454H147.27V18.9716ZM157.015 18.9716H155.349L153.036 24.4454H154.571L154.934 23.5358H157.384L157.733 24.4454H159.308L157.015 18.9716ZM156.956 22.4251L156.228 20.5263H156.136L155.378 22.4251H156.956ZM160.552 18.9716H163.834C164.259 18.9716 164.602 19.0216 164.885 19.1227C165.167 19.2239 165.379 19.3751 165.531 19.5668C165.672 19.7692 165.743 20.0108 165.743 20.3049C165.743 20.6168 165.672 20.8704 165.521 21.0716C165.368 21.2764 165.145 21.4169 164.895 21.4656V21.5466C165.248 21.618 165.521 21.7585 165.703 21.9811C165.884 22.2037 165.976 22.5061 165.976 22.8692C165.976 23.2025 165.904 23.4858 165.753 23.718C165.597 23.9579 165.371 24.1447 165.106 24.2537C164.786 24.3821 164.442 24.4437 164.097 24.4347H160.542V18.9608L160.552 18.9716ZM163.955 21.1227C164.052 21.0919 164.134 21.0272 164.187 20.9406C164.241 20.8379 164.265 20.7228 164.259 20.6073C164.265 20.4918 164.241 20.3766 164.187 20.2739C164.137 20.1853 164.053 20.1199 163.955 20.0918C163.818 20.0479 163.675 20.0277 163.531 20.0323H161.986V21.1632H163.531C163.714 21.1632 163.854 21.143 163.955 21.112V21.1227ZM164.158 23.2942C164.26 23.2588 164.346 23.1868 164.399 23.0918C164.458 22.9728 164.486 22.841 164.48 22.7085C164.488 22.5765 164.464 22.4446 164.41 22.3239C164.357 22.2288 164.27 22.1567 164.167 22.1216C164.024 22.0769 163.873 22.0568 163.723 22.062H161.996V23.3644H163.723C163.915 23.3644 164.066 23.3442 164.178 23.3049L164.158 23.2942ZM167.522 23.687C167.714 23.9608 168.016 24.1727 168.43 24.3144V24.3239C168.845 24.4656 169.38 24.5358 169.996 24.5358C170.612 24.5358 171.137 24.4644 171.541 24.3335C171.955 24.2025 172.259 24.0001 172.46 23.7382C172.662 23.4763 172.764 23.143 172.764 22.7382C172.764 22.4358 172.712 22.1835 172.602 21.9608C172.493 21.7404 172.32 21.5576 172.106 21.4358C171.885 21.2942 171.602 21.2037 171.268 21.143L169.845 20.9001C169.671 20.8686 169.499 20.8281 169.329 20.7787C169.229 20.7532 169.135 20.7052 169.056 20.6382C169.005 20.5832 168.976 20.511 168.976 20.4358C168.976 20.3454 169.016 20.2644 169.097 20.193C169.203 20.1213 169.324 20.0734 169.45 20.0525C169.64 20.0168 169.833 19.9996 170.027 20.0013C170.224 19.9995 170.421 20.0235 170.612 20.0727C170.764 20.1132 170.874 20.1835 170.946 20.2847C171.027 20.3965 171.072 20.53 171.077 20.668H172.561C172.572 20.2847 172.48 19.9608 172.289 19.6989C172.097 19.437 171.814 19.2347 171.43 19.1037C171.047 18.9716 170.561 18.9013 170.006 18.9013C169.451 18.9013 168.996 18.9608 168.612 19.0918C168.229 19.2239 167.946 19.4061 167.754 19.6585C167.552 19.9001 167.461 20.2132 167.461 20.5775C167.461 20.8501 167.511 21.0823 167.623 21.2847C167.734 21.487 167.896 21.6477 168.117 21.7787C168.34 21.9097 168.612 22.0108 168.955 22.0823L170.552 22.4049C170.734 22.4454 170.874 22.4858 170.975 22.5263C171.06 22.5543 171.134 22.607 171.187 22.6775C171.237 22.76 171.257 22.8569 171.244 22.9523C171.231 23.0477 171.187 23.1359 171.117 23.2025C171.007 23.2991 170.869 23.3594 170.723 23.3751C170.493 23.4111 170.26 23.4278 170.027 23.4251C169.734 23.4251 169.502 23.4049 169.329 23.3537C169.178 23.3181 169.045 23.2288 168.955 23.1025C168.864 22.9528 168.812 22.7825 168.804 22.6073H167.239C167.229 23.0418 167.33 23.4156 167.522 23.6882V23.687Z" fill="white"/>
<path fill-rule="evenodd" clip-rule="evenodd" d="M17.833 0.988281L22.0068 4.51804L13.2092 14.9216L13.2009 14.9145V14.9204H7.21754V23.8883H1.04492V1.04304H7.21754V9.45257H10.6735L17.833 0.988281ZM16.7604 23.9002H22.2271V14.9216H16.7616L16.7604 23.9002Z" fill="white"/>
</g>
<defs>
<clipPath id="clip0_2023_2816">
<rect width="172.619" height="25" fill="white" transform="translate(0.357422)"/>
</clipPath>
</defs>
</svg>
