<svg width="130" height="41" viewBox="0 0 130 41" fill="none" xmlns="http://www.w3.org/2000/svg">
<g>
<path d="M34.8114 2.08346C36.0067 1.67982 37.1031 1.03597 38.2479 0.512695C38.3269 0.585155 38.3973 0.667311 38.4698 0.747487C37.4403 1.83449 36.4187 2.92801 35.3871 4.01288C35.2739 4.13137 35.1685 4.2618 35.1268 4.42314C33.6876 8.87313 32.2474 13.3232 30.8027 17.7721C30.628 18.19 30.8389 18.6397 30.9509 19.0488C31.4211 20.0492 32.1847 20.8717 32.7955 21.7867C33.2075 21.5135 33.6052 21.2173 34.0128 20.9366C35.1103 16.9944 36.1869 13.0468 37.2933 9.10683C36.7297 8.46527 36.1739 7.81693 35.608 7.17741C35.7234 7.04807 35.8168 6.83513 36.0298 6.8823C37.0855 6.91952 38.1435 7.06986 39.1961 7.08086C39.6542 6.80984 40.1827 6.7979 40.7001 6.82522C41.1089 8.96415 41.4878 11.1086 41.858 13.2541C42.8643 11.7537 43.8256 10.2235 44.8219 8.71528C44.9284 8.53976 45.0691 8.36758 45.0889 8.15473C45.1636 7.46146 45.2129 6.76611 45.2888 6.07283C45.2966 5.9336 45.3777 5.8162 45.4371 5.69552C46.2863 5.91264 47.0949 6.26801 47.7728 6.83304C47.7739 6.92302 47.7771 7.10286 47.7784 7.19289C47.5543 7.50113 47.2214 7.76986 47.1951 8.17678C46.5007 11.7218 45.824 15.2703 45.1319 18.8163C45.0277 19.1618 45.2384 19.4897 45.3494 19.8068C45.5483 20.3662 46.0471 20.7205 46.3952 21.1801C46.7479 21.6353 47.1819 22.0313 47.4828 22.5248C47.4311 22.6653 47.3279 22.775 47.24 22.8933C45.1165 22.8583 42.9928 22.8067 40.868 22.7858C40.9186 22.6159 40.9548 22.4381 41.0592 22.2923C41.5733 21.5278 42.1314 20.7896 42.5972 19.9945C42.9542 19.2103 43.2651 18.404 43.6045 17.6122C43.8186 17.0713 44.1011 16.5493 44.1978 15.9701C44.4911 14.5015 44.7976 13.0359 45.0876 11.5672C44.3657 12.584 43.633 13.593 42.964 14.645C42.094 16.2212 41.1525 17.7567 40.246 19.3109C40.1284 19.3109 40.0108 19.3121 39.8945 19.3131C39.7132 17.9958 39.5397 16.6774 39.3595 15.3589C39.2255 14.4112 39.1355 13.4559 38.9135 12.5224C38.3302 15.3358 37.5611 18.1065 36.8964 20.9003C36.8228 21.4575 37.0184 22.0247 36.8591 22.5763C35.5276 22.9942 34.2004 23.4351 32.8438 23.7652C32.2329 23.922 31.6013 23.8244 30.9805 23.8388C30.7278 23.547 30.4961 23.2388 30.3015 22.9054C28.4229 22.8835 26.5454 22.8363 24.6668 22.8001C24.7535 22.5719 24.8436 22.3394 25.0107 22.1573C25.728 21.3027 26.4411 20.4462 27.1342 19.5719C27.5242 19.0915 27.7704 18.5179 28.0835 17.9892C28.6888 16.8748 29.3314 15.7802 29.9171 14.657C30.5961 12.6761 31.2585 10.6896 31.9298 8.70652C30.8476 9.95367 29.7678 11.2041 28.7459 12.5029C27.3693 14.4837 25.8982 16.4001 24.4888 18.3589C24.3349 18.3567 24.1811 18.3555 24.0274 18.3555C24.045 16.1629 24.0439 13.9713 24.0702 11.7799C24.089 11.1437 24.0428 10.5087 23.9889 9.8747C22.7398 13.4121 21.2578 16.8595 19.902 20.3564C19.6471 21.1153 19.8548 21.9205 19.9438 22.6894C18.6123 24.247 17.2445 25.7749 15.9492 27.3631C15.7888 27.5693 15.5932 27.7448 15.3824 27.8972C13.2786 29.4799 11.2284 31.134 9.25325 32.8748C6.41113 35.392 3.59975 37.9433 0.780804 40.4871C0.662125 40.4169 0.543551 40.3478 0.423828 40.282C0.606258 39.7479 0.988505 39.3178 1.28737 38.8484C1.92671 37.8611 2.75621 37.021 3.5066 36.1204C4.32185 35.1464 5.21823 34.2393 5.94774 33.1973C8.99527 29.0566 12.1427 24.9906 15.3793 20.9969C15.6264 20.6799 16.1297 20.6252 16.2713 20.2226C18.3708 15.392 20.4669 10.5592 22.5653 5.72753C21.9941 4.95101 21.4075 4.18647 20.8284 3.41428C20.9713 3.23328 21.1525 2.99417 21.4162 3.0512C22.5928 3.13559 23.7706 3.208 24.9459 3.30893C25.3842 3.3977 25.7259 3.0293 26.1489 2.99745C26.4971 2.97556 26.8476 2.99187 27.1969 2.9888C27.3628 5.59392 27.4737 8.20118 27.5736 10.8083C29.1787 8.82402 30.775 6.82996 32.3602 4.83027C32.6711 3.8859 32.7952 2.88219 33.071 1.92468C33.1325 1.82699 33.2006 1.73279 33.2731 1.64286C33.784 1.78549 34.285 2.03347 34.8112 2.08383L34.8114 2.08346Z" fill="white"/>
<path d="M97.6831 2.69457C98.072 2.60678 98.4719 2.68258 98.8652 2.7077C100.808 2.83271 102.751 2.96653 104.694 3.09378C104.846 3.10243 105.022 3.1091 105.127 3.23969C107.217 5.35771 109.375 7.40792 111.583 9.40088C111.4 11.3303 111.191 13.2575 111.001 15.1868C110.95 15.3613 111.124 15.4754 111.209 15.6037C112.803 17.4793 114.38 19.3703 115.938 21.2766C118.602 24.5989 121.181 27.9894 123.706 31.4183C124.2 32.1192 124.805 32.7335 125.355 33.3894C126.1 34.2482 126.847 35.106 127.577 35.9769C128.114 36.7008 128.64 37.4379 129.077 38.2265C128.94 38.2989 128.803 38.3724 128.67 38.4447C125.689 35.7465 122.711 33.0448 119.693 30.3871C117.864 28.7977 115.97 27.284 114.034 25.8274C113.71 25.6047 113.485 25.2811 113.238 24.984C111.453 22.8233 109.62 20.7039 107.789 18.5826C106.852 17.3826 105.842 16.2342 104.985 14.9761C105.487 13.4395 105.995 11.9038 106.456 10.3539C105.196 9.19335 103.967 7.98911 102.614 6.94037C101.432 6.62889 100.232 6.37439 99.0566 6.03435C97.7767 5.68441 96.5144 5.2754 95.2455 4.89251C94.7665 5.10963 94.2854 5.32033 93.8085 5.53964C93.6845 5.46838 93.5614 5.39702 93.4395 5.32466C93.5317 4.71808 93.5702 4.09284 93.7712 3.50826C93.9183 3.437 94.0799 3.40629 94.2414 3.37444C95.3906 3.15732 96.5352 2.92138 97.6834 2.69436L97.6831 2.69457Z" fill="white"/>
<path d="M56.9412 6.96689C58.4144 6.38001 59.8877 5.79423 61.3653 5.2207C61.7367 5.75164 62.1816 6.24854 62.4167 6.86164C63.1022 8.622 63.7877 10.3826 64.4766 12.142C64.8644 13.0218 65.3388 13.8685 65.6301 14.7899C65.8015 15.449 65.9861 16.1039 66.1793 16.7565C66.2695 16.6173 66.3914 16.4757 66.3519 16.2959C66.209 14.2426 66.0552 12.1903 65.9037 10.138C65.8971 9.81666 65.7179 9.54016 65.5884 9.25731C65.3423 8.76473 65.1346 8.25157 64.8535 7.77766C64.3405 7.43105 63.7385 7.23364 63.2045 6.92206C63.1737 6.81019 63.1551 6.69613 63.1507 6.57977C64.367 6.53593 65.5819 6.49647 66.7992 6.47348C66.9794 6.47348 67.1596 6.44387 67.3288 6.37694C68.1065 6.08741 68.891 5.81639 69.6698 5.52686C69.7336 5.61897 69.7993 5.71119 69.8642 5.80325C69.1698 6.55449 68.4965 7.32575 67.8065 8.08142C67.9009 11.18 68.0076 14.2786 68.1174 17.3784C68.1734 19.718 68.3141 22.0555 68.2987 24.3962C68.2931 25.6794 68.3151 26.9628 68.3021 28.2461C68.0659 28.0925 67.755 27.9905 67.6583 27.6978C66.9167 26.0185 66.1938 24.3305 65.4644 22.6456C65.3601 22.3714 65.1228 22.1893 64.9227 21.9885C64.0536 21.1407 63.1912 20.2862 62.3223 19.4384C62.0212 19.1719 62.0113 18.7407 61.8905 18.3832C61.6247 17.4914 61.5345 16.5558 61.2259 15.6772C60.7876 14.8798 60.2899 14.1142 59.8252 13.3322C59.6614 15.3022 59.5154 17.2743 59.3473 19.2443C59.3417 19.4011 59.3001 19.5767 59.3989 19.7171C59.9064 20.6077 60.4723 21.4689 60.9171 22.3934C61.0028 22.5295 60.8568 22.6567 60.8129 22.7795C59.8713 22.7971 58.9352 22.9079 57.9961 22.955C57.5664 22.9956 57.1282 22.9836 56.7107 23.1031C56.2976 22.786 55.8823 22.4735 55.4692 22.1587C54.9891 22.7499 54.5145 23.3511 53.9773 23.8917C53.6708 23.9477 53.3555 23.9093 53.0468 23.9115C53.005 23.8435 52.9228 23.7052 52.8809 23.6372C53.4301 22.8146 53.9323 21.9491 54.5793 21.199C55.032 21.0553 55.5286 21.0794 55.9932 20.9632C56.5007 20.2272 57.0237 19.501 57.5345 18.7683C57.6234 18.6575 57.6301 18.5127 57.6433 18.3777C57.896 15.595 58.1574 12.8123 58.4078 10.0294C58.3815 9.48855 58.298 8.93587 58.1299 8.42026C57.7531 8.01115 57.3257 7.65239 56.9248 7.26742C56.9291 7.19277 56.9368 7.04149 56.9412 6.96684V6.96689Z" fill="white"/>
<path d="M75.0421 5.72363C75.644 6.04068 76.245 6.363 76.8328 6.70424C79.8287 6.71623 82.8258 6.66921 85.8226 6.65597C86.0588 6.41023 86.2862 6.15792 86.5246 5.91333C86.6026 5.94956 86.7597 6.02416 86.8376 6.06023C86.7992 6.26203 86.7607 6.46387 86.7245 6.66681C89.125 6.70304 91.5276 6.70518 93.928 6.76336C94.1224 6.76893 94.318 6.79729 94.5136 6.82701C94.8872 8.61938 95.3397 10.3973 95.665 12.1984C95.3355 12.2258 95.1915 11.9111 95.0037 11.7059C94.5269 11.1442 94.0809 10.5509 93.5623 10.0266C92.658 9.73479 91.7782 9.37171 90.9509 8.90218C90.2764 9.62829 89.8129 10.5276 89.4942 11.4546C89.5535 12.6348 89.659 13.8129 89.7304 14.992C90.2084 15.5086 90.7796 15.9649 91.0762 16.6198C91.4576 17.2472 91.7102 17.9876 92.3033 18.4571C92.867 18.966 93.4251 19.4804 93.9853 19.9937C95.2157 19.5868 96.4308 19.1349 97.6625 18.7334C97.8799 18.6632 98.2272 18.9737 98.0195 19.1865C97.6613 19.7261 97.3108 20.2757 96.9032 20.7803C96.31 21.3254 95.5893 21.717 94.984 22.2456C94.7523 22.8083 94.6159 23.4049 94.3962 23.9721C94.2149 23.8888 94.038 23.7977 93.8788 23.6814C93.1131 23.132 92.3386 22.5922 91.5915 22.0175C90.6753 21.333 89.9096 20.4774 89.0549 19.7239C88.4002 19.0955 87.6938 18.5239 87.0434 17.8932C86.9412 17.5445 87.2796 17.2679 87.4025 16.9664C87.2455 16.1591 87.1345 15.3452 86.996 14.5358C86.9421 14.131 86.7213 13.7812 86.5609 13.4149C86.0435 12.2905 85.5129 11.1728 85.0141 10.0398C84.7626 9.37729 84.1012 9.0251 83.6374 8.52617C83.4661 9.01968 83.098 9.48697 83.1981 10.0355C83.2618 10.697 83.2882 11.3628 83.3619 12.0242C83.842 14.5788 84.3353 17.1323 84.8165 19.6879C84.8791 20.1289 85.1987 20.4678 85.436 20.8264C86.3038 21.0929 87.1674 21.3781 88.0396 21.6348C88.2473 22.1513 88.4385 22.6735 88.6361 23.1945C88.5911 23.2703 88.501 23.4205 88.456 23.4962C88.0912 23.2482 87.7639 22.928 87.354 22.7558C85.4095 22.725 83.4627 22.7547 81.5172 22.7417C80.9218 22.7318 80.334 22.8394 79.7441 22.9052C79.543 22.9743 79.4112 22.7802 79.3255 22.6342C79.7923 21.7336 80.3835 20.8991 80.857 20.0006C80.778 18.7974 80.5548 17.6029 80.4428 16.4007C80.1121 13.7375 79.7737 11.0743 79.4507 8.40997C79.2661 8.43411 79.0838 8.45939 78.9015 8.48572C78.7279 8.90687 78.5664 9.33465 78.3523 9.73725C78.1545 10.1146 77.6162 10.2385 77.5436 10.6915C77.3217 11.7248 77.08 12.7547 76.8274 13.7826C77.3691 14.4802 77.7985 15.2568 78.3018 15.9829C78.4216 16.1957 78.672 16.4194 78.4962 16.6783C78.2984 16.6531 77.9732 16.5709 77.9194 16.8472C77.7426 17.4274 77.9644 18.0307 78.0799 18.6032C78.0426 18.6635 77.9678 18.7865 77.9293 18.8478C77.7602 18.8467 77.5942 18.8478 77.4283 18.85C77.2074 19.2668 76.9691 19.6748 76.7702 20.1027C76.5659 20.5338 76.7185 21.0439 76.5263 21.4772C76.0221 21.7307 75.519 21.9937 75.0816 22.3557C73.8578 23.2969 72.6273 24.2314 71.3946 25.1626C71.2134 25.3578 71.0454 25.1165 70.9167 24.9981C70.1367 24.1678 69.3512 23.3419 68.5932 22.4917C68.401 22.3371 68.5383 22.1187 68.5943 21.9346C69.0403 20.7138 69.4765 19.4896 69.917 18.2678C69.9873 18.1449 70.0171 17.8871 70.2411 18.0177C70.3751 18.0736 70.3224 18.2458 70.3609 18.3566C70.4849 19.4019 70.5849 20.4505 70.73 21.4914C70.9441 21.8337 71.2486 22.1089 71.5199 22.4061C71.7593 22.4039 72 22.4039 72.2406 22.4027C72.7636 21.0513 73.3447 19.722 73.8512 18.3652C73.7786 17.8222 73.782 17.2387 73.6073 16.7243C71.9242 15.1799 70.1599 13.7231 68.4372 12.2216C68.3032 12.1239 68.3252 11.8926 68.4878 11.8378C68.6988 11.659 69.0954 11.6568 69.1426 11.3353C69.4468 10.1298 69.739 8.921 70.0412 7.71457C70.2005 7.12013 70.7697 6.78989 71.2476 6.46862C71.6717 6.15495 72.1957 6.01884 72.7021 5.90697C73.4789 6.01108 74.2501 6.15928 75.0245 6.28767C74.9476 6.09683 74.9411 5.90384 75.0421 5.72389L75.0421 5.72363ZM72.7965 8.87935C72.4758 9.61865 72.5999 10.4391 72.5362 11.2212C73.737 11.943 74.9322 12.6723 76.1319 13.3974C76.0462 12.5253 75.9154 11.66 75.8277 10.789C75.8035 10.143 75.1971 9.73818 75.0235 9.14485C74.9037 8.74882 74.8456 8.33538 74.6983 7.94816C74.3699 7.69705 73.96 7.56094 73.6019 7.35148C73.1306 7.73756 72.9767 8.32667 72.7965 8.87935Z" fill="white"/>
<path d="M52.0652 6.93653C52.598 6.71602 53.1386 6.51642 53.6758 6.30811C54.8238 7.19332 55.9741 8.07619 57.1232 8.9614C56.9771 9.39689 56.7388 9.806 56.6574 10.2612C56.5013 13.0911 56.397 15.9243 56.2289 18.7531C55.7102 18.9144 55.1621 18.9912 54.6644 19.2083C54.0788 19.6756 53.512 20.1658 52.9528 20.6627C52.4079 21.2233 52.0421 21.9395 51.4751 22.4791C50.9522 22.7709 50.4117 23.0374 49.8668 23.2854C48.9011 22.4001 48.0276 21.4076 47.0433 20.5389C46.6226 20.1747 46.1029 19.9444 45.6965 19.5627C45.5976 19.4805 45.5801 19.3224 45.6691 19.2271C45.9998 18.8586 46.3996 18.5602 46.7413 18.2026C46.8435 18.1083 46.8326 17.9559 46.86 17.8318C47.1951 15.3431 47.5412 12.8575 47.8763 10.3699C47.9114 10.1626 47.9136 9.92465 48.0862 9.77551C48.5729 9.57585 49.1661 9.65811 49.5946 9.31703C50.324 8.773 51.0623 8.24316 51.7908 7.69799C51.8667 7.43807 51.9567 7.18461 52.0654 6.93684L52.0652 6.93653ZM52.8562 9.05575C52.4564 9.42874 52.0246 9.79292 51.7653 10.2831C51.3831 10.9566 50.9898 11.6235 50.602 12.2936C50.458 12.4998 50.4811 12.7575 50.4613 12.9956C50.391 14.0903 50.3261 15.1849 50.2416 16.2785C50.1702 17.1197 49.9988 17.9479 49.8889 18.7837C50.224 19.1369 50.5546 19.4945 50.8897 19.8488C51.7972 18.8868 52.3355 17.6714 53.0045 16.5483C53.1594 16.2588 53.3924 15.9846 53.3846 15.6369C53.4626 13.6307 53.5758 11.6245 53.6339 9.61729C53.3724 9.43406 53.1496 9.18514 52.8562 9.05565L52.8562 9.05575Z" fill="white"/>
<path d="M95.2793 7.63148C95.3255 7.56564 95.4178 7.43292 95.4639 7.36719C97.7919 7.45826 100.122 7.49219 102.45 7.56351C102.691 8.04831 102.195 8.53968 102.417 9.02011C103.613 12.3962 104.804 15.7756 105.996 19.1541C106.133 19.447 106.136 19.8528 106.452 20.0217C107.698 20.7885 108.95 21.5442 110.194 22.3153C110.255 22.483 110.319 22.6509 110.383 22.8198C109.773 22.9208 109.154 22.9064 108.537 22.9239C106.402 22.9601 104.267 23.0511 102.131 23.0665C101.631 23.8629 101.23 24.7262 100.641 25.4642C100.494 25.3336 100.338 25.2131 100.218 25.0594C100.387 23.4876 100.752 21.9333 100.914 20.3627C99.9199 17.0227 98.8796 13.6948 97.8766 10.3571C97.8106 10.0028 97.4887 9.80101 97.2558 9.55861C96.5978 8.9158 95.9189 8.2929 95.2794 7.63133L95.2793 7.63148Z" fill="white"/>
<path d="M90.4057 12.522C93.0566 12.7588 95.7011 13.0606 98.3508 13.3084C98.3892 13.4269 98.4288 13.5453 98.4695 13.6648C97.4532 14.2265 96.4392 14.7913 95.4242 15.3529C94.9045 15.6305 94.4101 15.9714 93.8289 16.1097C93.4368 16.1997 93.0302 16.4376 92.6281 16.2656C91.9449 16.0342 91.2164 15.9101 90.5726 15.5834C90.3705 15.195 90.3573 14.7234 90.2737 14.2946C90.2681 13.7012 90.3693 13.1133 90.4054 12.5221L90.4057 12.522Z" fill="white"/>
</g>
</svg>
