<svg width="48" height="49" viewBox="0 0 48 49" fill="none" xmlns="http://www.w3.org/2000/svg">
<rect y="0.356689" width="48" height="48" rx="8" fill="white" fill-opacity="0.1"/>
<path fill-rule="evenodd" clip-rule="evenodd" d="M13.0098 35.8226L34.4983 17.9293C34.762 17.6998 34.9757 17.4186 35.126 17.1032C35.2762 16.7877 35.3599 16.4447 35.3717 16.0956C35.3836 15.7464 35.3233 15.3986 35.1948 15.0737C35.0662 14.7488 34.8721 14.4538 34.6245 14.207C34.3768 13.9603 34.081 13.7671 33.7554 13.6394C33.4298 13.5117 33.0814 13.4524 32.7318 13.465C32.3823 13.4776 32.039 13.5619 31.7235 13.7127C31.408 13.8635 31.1269 14.0775 30.8977 14.3415L13.0098 35.8226ZM23.3688 16.7702L14.3217 23.5553L21.1044 14.5114C21.2434 14.3269 21.4205 14.1744 21.6236 14.0641C21.8267 13.9538 22.0511 13.8883 22.2818 13.872C22.5124 13.8558 22.7438 13.8892 22.9604 13.9699C23.177 14.0507 23.3738 14.1769 23.5374 14.34C23.701 14.5032 23.8276 14.6996 23.9087 14.9158C23.9898 15.132 24.0235 15.3631 24.0075 15.5935C23.9915 15.8238 23.9262 16.0481 23.816 16.2511C23.7059 16.4541 23.5533 16.6311 23.3688 16.7702ZM34.3355 27.7123L25.2884 34.4974L32.071 25.4544C32.2101 25.2699 32.3871 25.1174 32.5903 25.0071C32.7934 24.8968 33.0178 24.8313 33.2485 24.8151C33.4791 24.7989 33.7105 24.8322 33.9271 24.913C34.1437 24.9937 34.3405 25.1199 34.5041 25.2831C34.6676 25.4463 34.7943 25.6426 34.8754 25.8588C34.9565 26.0751 34.9902 26.3062 34.9742 26.5365C34.9582 26.7669 34.8929 26.9911 34.7827 27.1941C34.6725 27.3971 34.52 27.5732 34.3355 27.7123Z" fill="white"/>
</svg>
