<svg width="48" height="49" viewBox="0 0 48 49" fill="none" xmlns="http://www.w3.org/2000/svg">
<rect y="0.356689" width="48" height="48" rx="8" fill="white" fill-opacity="0.1"/>
<path d="M26.2118 24.2323C26.2118 29.1835 22.218 33.1974 17.2913 33.1974C12.3646 33.1974 8.37109 29.1847 8.37109 24.2323C8.37109 19.2799 12.3649 15.2675 17.2913 15.2675C22.2177 15.2675 26.2118 19.2811 26.2118 24.2323ZM35.9977 24.2323C35.9977 28.8933 34.0007 32.6714 31.5375 32.6714C29.0743 32.6714 27.0772 28.8921 27.0772 24.2323C27.0772 19.5726 29.0743 15.7933 31.5375 15.7933C34.0007 15.7933 35.9977 19.5726 35.9977 24.2323ZM40.0003 24.2323C40.0003 28.4083 39.2979 31.7934 38.4316 31.7934C37.5653 31.7934 36.8628 28.4071 36.8628 24.2323C36.8628 20.0576 37.5653 16.6713 38.4319 16.6713C39.2985 16.6713 40.0003 20.0567 40.0003 24.2323Z" fill="white"/>
</svg>
