<svg width="48" height="49" viewBox="0 0 48 49" fill="none" xmlns="http://www.w3.org/2000/svg">
<rect y="0.356689" width="48" height="48" rx="8" fill="white" fill-opacity="0.1"/>
<path fill-rule="evenodd" clip-rule="evenodd" d="M13.6284 22.8862C19.9565 20.1292 24.1762 18.3116 26.2875 17.4334C32.3158 14.926 33.5684 14.4905 34.3849 14.4761C34.5645 14.4729 34.966 14.5174 35.226 14.7285C35.4456 14.9067 35.5061 15.1474 35.535 15.3163C35.5639 15.4853 35.5999 15.8701 35.5713 16.1709C35.2446 19.6033 33.8311 27.9328 33.112 31.7772C32.8077 33.4039 32.2085 33.9493 31.6285 34.0027C30.6302 34.0945 29.8222 33.5185 28.9229 32.8773C28.6865 32.7088 28.4438 32.5358 28.1898 32.3693C27.1925 31.7155 26.4216 31.1906 25.6488 30.6643C24.9412 30.1824 24.2319 29.6994 23.3454 29.1152C21.5009 27.8997 22.273 27.1553 23.3027 26.1627L23.3027 26.1627C23.4694 26.002 23.6428 25.8348 23.813 25.6581C23.889 25.5792 24.2606 25.2337 24.7845 24.7466L24.7845 24.7466C26.465 23.1843 29.7123 20.1653 29.7943 19.8159C29.8077 19.7586 29.8202 19.5449 29.6932 19.4321C29.5663 19.3193 29.379 19.3579 29.2438 19.3886C29.0522 19.4321 26.0001 21.4494 20.0876 25.4405C19.2213 26.0354 18.4366 26.3252 17.7336 26.31C16.9585 26.2933 15.4676 25.8718 14.3593 25.5115C14.1966 25.4586 14.0379 25.4087 13.8847 25.3606L13.8845 25.3605C12.758 25.0063 11.9307 24.7461 12.0135 24.0855C12.0625 23.6946 12.6008 23.2949 13.6284 22.8862Z" fill="white"/>
</svg>
