<svg width="248" height="248" viewBox="0 0 248 248" fill="none" xmlns="http://www.w3.org/2000/svg">
<rect width="248" height="248" rx="16" fill="white" fill-opacity="0.1"/>
<g clip-path="url(#clip0_68_697)">
<path d="M65.9393 158.849C65.4661 157.934 65.7425 157.208 66.2247 156.42C68.6326 152.485 70.062 148.165 71.0594 143.69C71.944 139.722 72.656 135.723 73.0612 131.676C73.5622 126.676 73.3591 121.72 71.9387 116.862C71.6811 115.98 72.1686 115.387 72.7723 114.911C74.6722 113.412 76.6034 111.954 78.5221 110.479C79.43 109.781 80.3075 109.037 81.2521 108.394C82.1063 107.813 82.5884 107.03 82.8478 106.071C81.8925 105.363 80.7905 105.169 79.6259 105.101C76.5748 104.923 73.5899 105.142 70.7919 106.494C69.9985 106.878 69.2346 107.347 68.519 107.862C67.8035 108.377 67.1639 108.999 66.4412 109.617C66.2631 109.511 66.0342 109.377 65.7918 109.234C66.2256 107.968 66.6853 106.802 67.6729 105.837C70.6756 102.904 73.8296 100.182 77.5704 98.2238C78.608 97.681 79.7091 97.2544 80.7985 96.8186C81.3209 96.6103 81.8612 96.6835 82.397 96.9071C87.5234 99.0432 92.5405 101.392 97.1577 104.508C98.3187 105.292 99.4119 106.177 100.529 107.024C100.859 107.274 100.842 107.6 100.542 107.835C98.3357 109.56 97.6301 111.939 97.6105 114.595C97.5969 116.417 97.6927 118.24 97.6927 120.062C97.6935 124.273 97.6568 128.485 97.6542 132.697C97.6534 134.368 98.0183 135.937 99.1882 137.213C99.5022 137.555 99.8833 137.836 100.234 138.145C100.812 138.654 100.976 139.184 100.602 139.821C99.368 141.917 98.0926 143.988 96.9146 145.936C96.0852 145.175 95.2087 144.423 94.3948 143.607C93.5065 142.718 92.6889 141.758 91.8169 140.851C91.4062 140.424 91.2319 139.942 91.2586 139.364C91.3607 137.141 91.4465 134.918 91.5627 132.695C91.6452 131.117 91.7684 129.541 91.8713 127.965C91.8794 127.836 91.8768 127.706 91.8731 127.577C91.8357 126.398 91.239 125.787 90.0573 125.784C89.2193 125.781 88.381 125.873 87.5438 125.867C86.0446 125.857 84.5447 125.825 83.0464 125.768C81.4613 125.708 80.727 126.183 80.3719 127.738C79.8343 130.094 79.3459 132.463 78.8781 134.834C77.5006 141.808 74.5237 148.057 70.3509 153.769C69.1997 155.345 68.0244 156.904 66.8857 158.49C66.6147 158.866 66.332 158.989 65.9393 158.849ZM85.6905 118.895C85.6905 118.868 85.6905 118.84 85.6905 118.813C86.9795 118.813 88.2719 118.869 89.5574 118.798C90.899 118.723 91.4805 118.13 91.5915 116.801C91.6808 115.726 91.6656 114.644 91.714 113.565C91.7721 112.276 91.2649 111.132 90.418 110.291C89.3167 109.198 88.0125 108.302 86.7523 107.381C86.109 106.911 85.4024 107.026 84.7845 107.525C84.5599 107.706 84.3532 107.914 84.1608 108.129C81.8201 110.761 80.888 113.886 80.9452 117.353C80.964 118.509 81.2789 118.853 82.4471 118.888C83.5277 118.92 84.6099 118.895 85.6905 118.895Z" fill="#990000"/>
<path d="M125.284 146.848C122.545 145.149 119.858 143.485 117.181 141.807C117.075 141.74 116.987 141.512 117.012 141.383C117.73 137.761 118.016 134.098 117.984 130.414C117.953 126.964 117.838 123.516 117.773 120.067C117.744 118.501 117.779 116.935 117.716 115.371C117.696 114.864 117.554 114.31 117.299 113.876C116.856 113.118 116.281 112.438 115.731 111.684C118.734 109.84 121.698 107.877 125.197 106.53C122.519 111.208 122.159 116.057 123.25 121.146C124.658 120.353 125.801 119.282 126.998 118.106C127.59 118.827 128.182 119.482 128.7 120.191C130.421 122.551 131.385 125.25 132.06 128.052C132.391 129.423 132.657 130.833 132.734 132.237C132.86 134.55 132.154 136.687 130.736 138.515C128.95 140.818 127.445 143.295 125.953 145.784C125.747 146.128 125.527 146.464 125.284 146.848ZM122.609 130.932C122.631 130.932 122.652 130.932 122.674 130.932C122.674 132.9 122.654 134.868 122.691 136.835C122.698 137.208 122.849 137.644 123.078 137.939C123.901 138.999 125.025 139.58 126.364 139.636C128.046 139.707 129.117 138.795 129.158 137.123C129.284 132.13 128.235 127.599 123.925 124.404C123.5 124.089 123.264 124.343 122.935 124.425C122.593 124.511 122.605 124.755 122.606 125.026C122.612 126.994 122.609 128.963 122.609 130.932Z" fill="#990000"/>
<path d="M178.769 146.117C177.44 145.058 176.293 143.922 176.018 142.25C175.854 141.243 175.905 140.195 175.922 139.166C175.978 135.715 176.076 132.263 175.749 128.82C175.705 128.356 175.517 127.869 175.27 127.472C174.693 126.543 174.038 125.663 173.423 124.774C173.354 124.793 173.322 124.798 173.293 124.811C172.058 125.32 171.417 126.104 171.418 127.577C171.419 130.993 171.211 134.407 171.136 137.824C171.127 138.241 171.367 138.688 171.569 139.08C171.848 139.623 172.211 140.122 172.516 140.654C172.583 140.77 172.624 140.984 172.562 141.079C171.436 142.824 170.292 144.558 169.131 146.327C167.907 144.905 166.708 143.513 165.516 142.114C165.458 142.045 165.434 141.903 165.459 141.814C166.104 139.495 166.229 137.111 166.315 134.726C166.418 131.853 166.349 128.983 165.871 126.142C165.721 125.248 165.365 124.389 165.115 123.512C165.082 123.394 165.075 123.227 165.134 123.128C165.995 121.691 166.871 120.261 167.786 118.76C168.796 119.655 169.781 120.526 170.764 121.4C170.861 121.486 170.946 121.584 171.043 121.668C172.021 122.513 172.78 122.389 173.463 121.29C173.946 120.513 174.444 119.745 174.971 118.918C175.564 119.451 176.103 119.926 176.631 120.413C177.969 121.649 179.299 122.897 180.64 124.13C181.131 124.583 181.206 125.164 181.178 125.771C181.062 128.186 180.923 130.6 180.813 133.015C180.755 134.287 180.756 135.562 180.697 136.834C180.661 137.636 180.862 138.365 181.219 139.065C181.504 139.625 181.803 140.179 182.061 140.751C182.125 140.893 182.122 141.141 182.039 141.267C180.996 142.839 179.933 144.397 178.874 145.959C178.846 145.998 178.82 146.039 178.769 146.117Z" fill="#990000"/>
<path d="M154.749 118.765C157.997 121.672 160.289 125.13 161.416 129.317C161.767 130.624 162.15 131.946 161.987 133.315C161.905 134.002 161.746 134.745 161.396 135.327C159.069 139.194 156.68 143.024 154.311 146.866C154.279 146.919 154.231 146.963 154.166 147.04C154.024 146.959 153.885 146.886 153.752 146.803C151.368 145.295 148.983 143.789 146.602 142.276C145.739 141.728 145.613 141.336 145.96 140.38C146.791 138.096 146.921 135.722 146.87 133.324C146.828 131.39 146.75 129.457 146.73 127.523C146.718 126.35 147.189 125.384 148.093 124.601C150.227 122.754 152.335 120.877 154.453 119.012C154.537 118.938 154.625 118.869 154.749 118.765ZM151.337 130.909C151.337 131.813 151.342 132.715 151.337 133.619C151.331 134.537 151.253 135.461 151.33 136.373C151.379 136.961 151.548 137.592 151.846 138.095C152.496 139.191 153.543 139.8 154.796 139.995C156.546 140.265 157.788 139.41 157.957 137.646C158.072 136.441 158.002 135.19 157.822 133.99C157.267 130.316 155.99 127.011 152.727 124.823C152.48 124.658 152.299 124.516 152.011 124.719C151.719 124.924 151.308 124.937 151.321 125.493C151.363 127.296 151.337 129.103 151.337 130.909Z" fill="#990000"/>
<path d="M110.305 107.062C110.305 108.313 110.312 109.486 110.303 110.66C110.288 112.579 110.258 114.498 110.241 116.416C110.206 120.336 110.18 124.256 110.142 128.175C110.118 130.676 110.063 133.175 110.053 135.674C110.048 137.066 110.233 138.449 111.242 139.503C111.832 140.119 112.588 140.573 113.297 141.121C111.951 142.894 110.543 144.752 109.098 146.656C107.415 144.664 105.763 142.712 104.092 140.734C105.528 138.914 105.636 136.756 105.654 134.584C105.691 130.326 105.755 126.067 105.722 121.81C105.699 119.023 105.543 116.237 105.409 113.451C105.318 111.537 105.904 109.955 107.521 108.85C108.412 108.242 109.335 107.683 110.305 107.062Z" fill="#990000"/>
<path d="M137.999 118.793C139.422 119.652 140.812 120.49 142.206 121.331C141.993 122.266 141.757 123.181 141.578 124.108C141.127 126.435 141.147 128.792 141.176 131.147C141.203 133.275 141.269 135.402 141.273 137.53C141.273 138.181 141.454 138.728 141.824 139.238C142.184 139.733 142.557 140.219 142.902 140.726C142.973 140.831 143.009 141.052 142.947 141.144C141.781 142.882 140.597 144.611 139.386 146.386C138.567 145.6 137.777 144.847 136.992 144.087C136.632 143.739 136.28 143.384 135.931 143.026C135.56 142.647 135.442 142.243 135.683 141.715C136.26 140.448 136.451 139.094 136.459 137.711C136.474 135.183 136.265 132.657 136.508 130.123C136.716 127.948 136.281 125.817 135.721 123.725C135.547 123.08 135.618 122.572 135.994 122.017C136.695 120.977 137.323 119.889 137.999 118.793Z" fill="#990000"/>
<path d="M148.871 145.464C150.041 145.493 150.858 146.257 150.868 147.385C150.889 149.546 150.906 151.71 150.828 153.869C150.781 155.169 151.071 156.334 151.784 157.392C152.314 158.178 152.909 158.92 153.521 159.745C154.215 158.715 154.895 157.775 155.5 156.791C156.028 155.933 156.19 154.976 156.125 153.96C155.977 151.608 155.854 149.246 156.399 146.929C156.651 145.863 157.1 144.844 157.461 143.803C157.524 143.817 157.588 143.832 157.651 143.846C157.7 144.509 157.749 145.172 157.794 145.836C157.978 148.505 158.228 151.171 158.036 153.854C157.768 157.59 156.519 160.888 153.804 163.552C153.68 163.675 153.546 163.787 153.318 163.995C152.616 163.141 151.885 162.348 151.266 161.475C149.854 159.483 149.169 157.209 148.863 154.811C148.467 151.706 148.717 148.601 148.871 145.464Z" fill="#990000"/>
<path d="M159.092 104.491C159.018 107.105 156.899 109.933 153.029 109.698C150.165 109.523 147.813 107.03 148.161 104.491C151.801 104.491 155.446 104.491 159.092 104.491Z" fill="#990000"/>
<path d="M150.799 89.821C150.799 88.609 150.717 87.415 150.822 86.2368C150.937 84.9363 152.05 84.1017 153.408 84.1582C154.333 84.1967 155.175 84.4971 155.885 85.1117C156.578 85.71 156.732 86.2789 156.434 87.1413C156.35 87.3836 156.217 87.61 156.139 87.8542C155.937 88.4839 155.754 89.1188 155.542 89.821C154.074 89.821 152.456 89.821 150.799 89.821Z" fill="#990000"/>
<path d="M151.835 147.371C152.928 147.666 154.007 147.957 155.126 148.26C155.126 150.046 155.145 151.798 155.121 153.549C155.099 155.127 154.419 156.738 153.458 157.578C152.623 156.723 152.105 155.702 151.95 154.53C151.844 153.721 151.847 152.894 151.839 152.075C151.824 150.52 151.835 148.965 151.835 147.371Z" fill="#990000"/>
<path d="M137.279 107.734C139.104 108.653 140.856 109.535 142.678 110.453C140.42 112.54 138.193 114.596 135.866 116.746C136.348 113.677 136.806 110.748 137.279 107.734Z" fill="#990000"/>
<path d="M148.912 122.125C148.912 117.856 148.912 113.67 148.912 109.481C150.228 109.64 151.053 110.518 151.053 111.807C151.053 113.145 150.975 114.483 150.971 115.82C150.969 116.835 151.017 117.85 151.064 118.865C151.138 120.45 150.284 121.414 148.912 122.125Z" fill="#990000"/>
<path d="M152.168 119.066C152.168 116.364 152.168 113.69 152.168 110.982C153.21 110.982 154.232 110.982 155.309 110.982C155.309 112.553 155.399 114.131 155.285 115.695C155.162 117.4 153.933 118.638 152.168 119.066Z" fill="#990000"/>
<path d="M158.444 109.158C158.444 112.86 158.444 116.562 158.444 120.326C157.845 120.026 157.474 119.574 157.171 119.064C156.273 117.552 156.048 115.887 156.136 114.169C156.202 112.87 156.459 111.6 157.158 110.479C157.475 109.971 157.905 109.533 158.283 109.063C158.337 109.096 158.391 109.127 158.444 109.158Z" fill="#990000"/>
<path d="M155.549 99.1263C154.008 99.1263 152.582 99.1263 151.039 99.1263C151.474 98.0494 151.854 97.0109 152.312 96.009C152.554 95.4795 153.958 95.4633 154.206 95.9849C154.685 96.9938 155.089 98.0397 155.549 99.1263Z" fill="#990000"/>
<path d="M151.7 91.1421C152.717 91.1421 153.695 91.1421 154.707 91.1421C154.707 92.2442 154.707 93.3293 154.707 94.4473C153.719 94.4473 152.729 94.4473 151.7 94.4473C151.7 93.3622 151.7 92.2782 151.7 91.1421Z" fill="#990000"/>
<path d="M151.375 103.099C151.345 102.848 151.315 102.673 151.306 102.498C151.216 100.785 152.306 99.875 153.993 100.248C154.623 100.387 155.054 100.754 155.155 101.391C155.23 101.862 155.209 102.352 155.196 102.833C155.194 102.924 155.031 103.086 154.94 103.088C153.766 103.104 152.591 103.099 151.375 103.099Z" fill="#990000"/>
<path d="M160.615 106.231C160.575 105.953 160.478 105.592 160.486 105.235C160.499 104.659 160.854 104.278 161.494 104.287C162.659 104.306 163.824 104.423 164.978 104.499C164.986 105.568 164.298 106.312 163.381 106.322C162.965 106.327 162.548 106.25 162.131 106.236C161.656 106.219 161.178 106.231 160.615 106.231Z" fill="#990000"/>
<path d="M141.772 105.939C142.155 105.47 142.465 105.084 142.782 104.705C142.853 104.62 142.941 104.518 143.039 104.492C144.012 104.225 144.999 104.042 145.951 104.535C146.477 104.807 146.685 105.31 146.728 105.906C146.645 105.919 146.584 105.938 146.522 105.938C144.977 105.94 143.431 105.939 141.772 105.939Z" fill="#990000"/>
<path d="M152.47 126.833C152.993 126.508 153.335 126.672 153.677 127.069C154.678 128.233 155.17 129.593 155.217 131.101C155.249 132.146 155.188 133.196 155.134 134.242C155.058 135.705 154.96 137.165 155.32 138.611C153.623 138.748 152.519 137.773 152.506 136.121C152.482 133.121 152.48 130.12 152.47 127.12C152.47 127.025 152.47 126.929 152.47 126.833Z" fill="#990000"/>
</g>
<defs>
<clipPath id="clip0_68_697">
<rect width="134" height="134" fill="white" transform="translate(57 57)"/>
</clipPath>
</defs>
</svg>
