<svg width="248" height="248" viewBox="0 0 248 248" fill="none" xmlns="http://www.w3.org/2000/svg">
<rect width="248" height="248" rx="16" fill="white" fill-opacity="0.1"/>
<g clip-path="url(#clip0_68_666)">
<path d="M124.177 71.1862C151.477 71.2966 176.647 93.3331 177.633 124.118C178.448 149.567 155.893 176.231 125.144 176.874C95.7583 177.488 72.8647 155.158 70.4115 126.84C67.7596 96.2279 94.0981 70.9513 124.177 71.1862ZM168.3 123.592C168.031 121.809 167.766 118.447 166.991 115.205C159.475 83.7071 123.105 70.2266 96.9427 89.2899C87.3769 96.26 81.1356 105.513 80.0435 117.521C79.0639 128.31 83.1733 137.446 90.7877 144.896C92.9739 147.036 93.2268 148.8 92.3435 151.466C91.0487 155.373 92.3054 157.469 96.2381 158.595C106.848 161.632 117.457 164.664 128.083 167.645C133.423 169.143 135.174 168.159 136.501 162.789C136.986 160.821 137.711 159.822 139.927 159.386C156.971 156.03 168.211 142.352 168.3 123.59V123.592Z" fill="#3399FF"/>
<path d="M141.839 124.094C149.077 124.108 154.876 130.195 154.786 137.679C154.698 145.161 148.504 151.384 141.105 151.429C134.161 151.471 128.18 145.272 128.172 138.022C128.164 130.3 134.267 124.078 141.837 124.094H141.839Z" fill="#3399FF"/>
<path d="M102.15 140.237C94.8691 140.14 89.2179 134.331 89.232 126.957C89.248 119.058 95.3769 112.967 103.17 113.105C110.363 113.234 115.866 119.136 115.801 126.654C115.735 134.21 109.58 140.335 102.15 140.237Z" fill="#3399FF"/>
<path d="M119.134 122.69C118.65 122.341 117.472 121.871 116.9 121.002C115.462 118.82 114.256 116.481 113.041 114.161C112.084 112.332 112.2 110.563 114.143 109.479C116.205 108.329 117.807 109.222 118.905 111.105C120.134 113.211 121.354 115.327 122.444 117.505C123.719 120.055 122.354 122.602 119.134 122.692V122.69Z" fill="#3399FF"/>
<path d="M140.329 119.089C140.09 119.445 139.733 120.493 139.002 120.96C136.577 122.514 134.07 123.96 131.494 125.244C129.846 126.065 128.23 125.6 127.298 123.938C126.323 122.195 126.7 120.519 128.406 119.471C130.785 118.011 133.232 116.634 135.754 115.444C138.193 114.291 140.455 115.883 140.329 119.087V119.089Z" fill="#3399FF"/>
<path d="M120.579 136.129C121.745 140.63 122.787 144.645 124.009 149.361C119.199 148.022 115.036 146.863 110.306 145.546C113.912 142.24 117.013 139.399 120.579 136.129Z" fill="#3399FF"/>
</g>
<defs>
<clipPath id="clip0_68_666">
<rect width="130" height="130" fill="white" transform="translate(59 59)"/>
</clipPath>
</defs>
</svg>
