<svg width="248" height="248" viewBox="0 0 248 248" fill="none" xmlns="http://www.w3.org/2000/svg">
<rect width="248" height="248" rx="16" fill="white" fill-opacity="0.1"/>
<path d="M164.584 107.126H174.054V141.887H163.066V109.833L164.584 107.126ZM190.949 107.126V141.861H200.476L201.94 139.215V107.126H190.949ZM177.007 141.887H187.995V107.126H177.007V141.887Z" fill="#B9B6EC"/>
<path fill-rule="evenodd" clip-rule="evenodd" d="M97.0732 133.982L108.122 123.18V107.113H95.5011L77.599 125.391L59.6786 107.132H47.0625V141.891H58.1023L58.1141 123.134H59.8775L77.5883 140.431L95.3033 123.11H97.0667L97.0732 133.982ZM147.083 107.143L147.071 125.901H145.307L127.589 108.575L97.0603 138.35V141.884H109.679L127.601 123.62L145.505 141.904H158.127V107.143H147.083Z" fill="#B9B6EC"/>
</svg>
