<svg width="248" height="248" viewBox="0 0 248 248" fill="none" xmlns="http://www.w3.org/2000/svg">
<rect width="248" height="248" rx="16" fill="white" fill-opacity="0.1"/>
<path d="M117.307 61.7571C117.454 61.5355 117.73 61.1547 118.035 61.365C119.909 62.3056 121.782 63.2547 123.659 64.1867C123.743 73.5158 123.67 82.8534 123.695 92.1853C123.645 92.9014 124.158 93.697 124.872 93.8391C125.18 93.3276 125.515 92.7905 125.575 92.1824C125.625 82.8505 125.532 73.5129 125.62 64.1839C127.383 63.3172 129.144 62.442 130.888 61.5326C131.147 61.4247 131.5 61.1263 131.729 61.4644C132.615 62.5755 133.21 63.8912 134.113 64.9966C140.239 74.4336 146.475 83.8053 152.68 93.194C153.142 93.8561 153.597 94.558 154.274 95.0212C157.228 97.1951 160.335 99.1472 163.362 101.216C170.188 105.802 177.017 110.386 183.845 114.969C184.897 115.637 185.874 116.433 187 116.984V117.348C185.713 119.127 185.027 121.278 183.921 123.17C183.631 123.466 183.145 123.275 182.778 123.338C173.93 123.312 165.081 123.338 156.232 123.324C155.645 123.261 154.912 123.605 154.841 124.247C155.157 124.696 155.662 125.026 156.229 124.955C165.174 124.941 174.119 124.969 183.061 124.941C183.43 124.992 183.89 124.844 184.201 125.111C185.027 127.001 185.826 128.953 187 130.652V131.275C186.142 131.471 185.467 132.048 184.754 132.525C174.435 139.476 164.093 146.384 153.766 153.326C153.3 153.738 153.092 154.36 152.742 154.869C145.823 165.329 138.882 175.775 131.977 186.246C131.813 186.468 131.571 186.86 131.246 186.635C129.367 185.706 127.502 184.743 125.623 183.819C125.498 173.908 125.69 163.985 125.527 154.076C124.948 153.991 124.347 153.942 123.78 154.116C123.577 156.758 123.755 159.424 123.695 162.078C123.67 169.327 123.743 176.584 123.662 183.831C122.304 184.78 120.676 185.365 119.192 186.127C118.698 186.331 118.233 186.732 117.671 186.675C117.491 186.49 117.333 186.291 117.189 186.081C111.054 176.729 104.824 167.44 98.7067 158.08C97.5724 156.548 96.709 154.826 95.4816 153.36C84.6012 146.151 73.8788 138.72 63.0013 131.502C62.7502 131.303 62.2141 131.05 62.4426 130.652C63.3681 128.757 64.3444 126.887 65.2474 124.98C74.3218 124.924 83.3992 124.972 92.4737 124.958C93.6277 124.935 94.9906 125.211 95.8738 124.253C95.6762 123.656 95.1345 123.023 94.4573 123.057C84.7225 123.011 74.9821 123.094 65.2502 123.017C64.336 121.048 63.3004 119.138 62.3721 117.175C62.595 116.7 63.1678 116.518 63.5769 116.231C64.7818 115.589 65.8286 114.705 66.9601 113.946C76.393 107.641 85.7948 101.281 95.1683 94.8933C96.4804 93.7936 97.2648 92.2393 98.2383 90.8611C102.375 84.4447 106.602 78.0794 110.815 71.7085C111.469 70.5861 112.18 69.5034 112.962 68.469C114.327 66.1787 115.865 63.9992 117.307 61.7571ZM102.987 101.065C103.032 116.734 103.018 132.406 102.993 148.074C110.089 148.023 117.191 148.086 124.288 148.043C125.03 147.81 125.8 147.79 126.571 147.753C128.111 147.284 129.742 147.174 131.249 146.58C136.108 145.099 140.411 141.811 143.066 137.447C144.519 135.264 145.213 132.707 145.967 130.226C146.528 126.83 146.622 123.341 146.15 119.934C144.962 112.349 139.635 105.47 132.423 102.83C130.202 101.861 127.776 101.56 125.422 101.094C118.679 100.895 111.923 101.026 105.174 100.986C104.443 100.986 103.71 100.957 102.987 101.065ZM148.298 102.083C147.059 102.728 146.246 104.131 146.356 105.535C147.098 105.606 147.849 105.615 148.594 105.538C148.848 105.041 149.042 104.495 149.48 104.123C150.185 103.182 151.509 103.381 152.516 103.569C152.939 103.907 153.329 104.293 153.633 104.745C154.014 105.655 153.67 106.72 152.905 107.308C150.862 108.928 148.82 110.548 146.746 112.131C146.052 112.628 146.359 113.617 146.365 114.341C149.655 114.421 152.956 114.415 156.246 114.344C156.32 113.688 156.322 113.023 156.252 112.369C154.268 112.315 152.282 112.389 150.301 112.338L150.332 112.105C151.892 110.92 153.444 109.718 155.005 108.533C156.26 107.442 156.607 105.541 156.018 104.018C155.388 102.6 153.98 101.747 152.539 101.372C151.097 101.327 149.536 101.185 148.298 102.083Z" fill="#E94449"/>
<path d="M112.276 108.669C115.247 108.419 118.266 108.626 121.257 108.555C125.524 108.43 130.18 109.558 133.08 112.925C135.312 115.4 136.523 118.731 136.836 122.027C136.847 124.101 137.064 126.221 136.585 128.253C136.167 131.549 134.708 134.8 132.2 137.02C129.556 139.307 126.06 140.276 122.649 140.552C119.646 140.611 116.638 140.549 113.636 140.58C113.182 140.566 112.713 140.611 112.276 140.466C112.273 129.87 112.273 119.268 112.276 108.669Z" fill="#E94449"/>
</svg>
