<svg width="248" height="248" viewBox="0 0 248 248" fill="none" xmlns="http://www.w3.org/2000/svg">
<rect width="248" height="248" rx="16" fill="white" fill-opacity="0.1"/>
<g clip-path="url(#clip0_68_691)">
<path d="M111.247 84.2496H118.747C119.122 84.2496 119.122 84.2496 119.497 84.2496C121.747 84.2496 123.622 84.6246 125.872 84.6246C127.747 84.6246 129.622 84.9996 131.497 84.9996C135.247 85.3746 138.622 86.1246 142.372 86.8746C144.247 87.2496 146.122 87.9996 147.997 88.3746C150.622 89.1246 153.247 90.2496 155.872 91.7496C160.372 93.9996 164.497 96.9996 167.872 100.75C169.372 102.25 170.497 103.75 171.622 105.625C171.997 106 171.997 106.375 172.372 106.75C172.372 106.75 172.372 106.75 172.747 107.125C172.372 106.75 172.372 106.75 171.997 106.75C167.872 104.125 163.747 101.5 159.247 99.6246C159.997 100.75 161.122 101.5 161.872 102.625C164.497 106 166.372 109.375 167.497 113.125C168.247 115 168.622 116.875 168.997 118.75C169.372 121 169.747 123.25 169.747 125.125C169.747 127 169.747 128.5 169.372 130.375C168.997 132.25 168.622 134.125 168.247 136C167.872 137.5 167.122 139 166.747 140.125C165.622 142.75 164.122 145 162.247 147.25C160.372 149.5 158.497 151.75 156.247 153.625C153.997 155.5 151.747 157.375 149.122 158.875C146.497 160.375 143.872 161.875 140.872 163C139.372 163.375 138.247 164.125 136.747 164.5C134.497 165.25 132.247 165.625 129.997 166C127.372 166.375 125.122 166.375 122.497 166.375C119.497 166.375 116.122 166.375 113.122 166.375C106.372 166.375 99.6218 166 92.4968 166.375C90.9968 166.375 89.4968 166.375 87.9968 166.375C84.2468 166.375 80.4968 166.75 76.7468 166.75C75.9968 166.75 75.6218 166.75 74.8718 166.75C74.4968 165.625 74.1218 164.5 74.1218 163C76.3718 162.25 78.6218 161.5 80.8718 160.75C81.9968 160.375 83.1218 159.625 83.8718 159.25C85.3718 158.5 86.4968 157.375 87.6218 156.25C88.3718 155.125 89.1218 154 89.1218 152.5C89.1218 135.625 89.1218 118.75 89.1218 101.875C89.1218 101.125 89.1218 100.375 89.1218 99.9996C89.1218 98.1246 88.3718 96.6246 86.8718 95.4996C86.8718 94.7496 86.1218 94.3746 84.9968 93.6246C83.1218 92.8746 80.8718 92.1246 78.6218 91.7496C77.4968 91.3746 75.9968 91.3746 74.8718 90.9996C74.8718 89.4996 74.8718 88.3746 75.2468 86.8746C78.2468 86.4996 81.2468 86.1246 84.2468 85.7496C86.8718 85.3746 89.4968 85.3746 92.1218 84.9996C93.6218 84.9996 95.4968 84.6246 96.9968 84.6246C101.872 84.6246 106.747 84.2496 111.247 84.2496ZM111.247 95.8746C110.872 95.8746 110.497 96.2496 110.122 96.6246C109.747 96.9996 109.747 97.7496 109.747 98.4996C109.747 113.875 109.747 129.625 109.747 145C109.747 146.875 109.747 148.75 109.747 150.625C109.747 151.375 110.122 152.125 110.872 152.875C111.622 153.625 112.372 154 113.497 154C114.622 154.375 115.747 154.375 116.497 154.375C116.872 154.375 117.622 154.375 117.997 154.375C119.122 154.375 120.247 154.375 121.372 154.375C123.997 154.375 126.247 154 128.872 153.625C131.122 153.25 132.997 152.5 134.872 151.375C140.122 147.625 144.247 142.375 146.122 136.375C147.247 133.375 147.622 130 147.622 127C147.622 123.625 146.872 119.875 145.747 116.5C145.372 115 144.622 113.875 143.872 112.375C142.747 110.125 141.247 108.25 139.372 106.375C137.497 104.125 135.247 102.625 132.997 101.125C131.872 100.375 130.372 99.6246 129.247 99.2496C128.872 99.2496 128.872 98.8746 128.497 98.8746C125.122 97.3746 121.747 96.6246 117.997 96.6246C116.497 96.2496 114.622 96.6246 113.122 96.6246C112.747 95.8746 111.997 95.4996 111.247 95.8746Z" fill="#CC9966"/>
</g>
<defs>
<clipPath id="clip0_68_691">
<rect width="120" height="120" fill="white" transform="translate(64 64)"/>
</clipPath>
</defs>
</svg>
