<svg width="248" height="248" viewBox="0 0 248 248" fill="none" xmlns="http://www.w3.org/2000/svg">
<rect width="248" height="248" rx="16" fill="white" fill-opacity="0.1"/>
<g clip-path="url(#clip0_68_683)">
<path d="M176.184 73.5441H177.478V73.9753C174.028 77.8566 170.578 82.1691 167.559 86.4816C164.971 89.9316 162.384 93.8128 162.384 98.1253C162.384 115.375 162.384 132.625 162.384 150.307C162.384 154.188 164.109 158.069 167.559 160.225C170.146 161.95 173.165 162.382 176.184 162.813C176.615 163.244 177.046 163.675 177.046 163.675H125.728C127.453 162.382 129.609 162.382 131.334 161.95C134.353 161.088 137.371 159.363 139.096 156.775C139.959 155.05 139.959 153.325 140.821 151.6C142.978 149.875 145.565 148.582 147.721 146.425C153.759 140.388 156.346 132.194 156.778 124C157.209 116.238 154.621 108.475 149.446 102.869C146.859 99.8503 143.84 97.6941 140.39 95.9691C139.528 92.9503 139.096 89.9316 136.509 87.7753C134.353 86.0503 132.196 85.1878 130.471 83.0316C136.94 83.4628 143.409 84.3253 149.878 83.4628C159.365 82.6003 168.853 80.0128 176.184 73.5441Z" fill="#E9444A"/>
<path d="M70.5225 73.9746C76.56 78.7184 83.46 81.3059 90.7912 82.5996C95.535 83.4621 100.279 83.4621 105.022 83.4621C108.472 83.4621 112.354 82.5996 115.804 82.5996C114.079 84.3246 112.354 85.6184 110.197 86.9121C108.041 88.2059 107.179 90.7934 106.316 92.9496C102.004 92.9496 97.26 92.9496 92.9475 92.9496C90.7912 92.5184 89.4975 95.5371 90.7912 97.6934C92.085 99.4184 94.6725 99.4184 95.9662 100.712C96.8287 102.006 96.8287 103.731 96.8287 105.025C96.8287 117.1 96.8287 128.743 96.8287 140.818C96.8287 142.543 96.8287 143.837 95.535 145.131C92.9475 147.287 90.36 149.875 89.4975 153.756C89.0662 155.481 90.36 157.637 92.5162 157.637C95.1037 158.068 96.8287 155.05 99.4162 154.618C102.004 154.618 104.591 154.618 106.747 154.618C108.472 158.5 111.922 161.087 116.235 161.95C117.96 162.381 119.685 161.95 120.979 163.675H70.5225V162.812C72.6787 162.381 75.2662 161.95 76.9912 161.087C80.8725 159.362 83.8912 155.05 83.8912 150.737C83.8912 133.056 83.8912 115.806 83.8912 98.1246C83.8912 95.1059 82.5975 92.0871 81.3037 89.4996C78.285 84.3246 74.4037 80.0121 70.5225 75.2684V73.9746Z" fill="#E9444A"/>
<path d="M95.5346 96.4001C103.297 96.4001 111.06 96.4001 118.822 96.4001C124.428 96.4001 129.603 95.9688 135.21 97.6938C141.678 99.4188 147.285 104.163 149.872 110.2C153.322 117.963 153.322 127.019 150.303 134.781C147.716 141.681 141.678 147.288 134.778 149.444C128.741 151.6 121.841 151.169 115.372 151.169C110.197 151.169 104.591 151.169 99.4159 151.169C96.8284 151.169 94.6721 152.894 92.5159 153.756C92.9471 152.031 93.8096 150.306 95.1034 149.013C96.3971 147.719 98.5534 146.425 99.4159 144.7C100.278 142.975 99.8471 141.25 100.278 139.094C100.278 127.45 100.278 116.238 100.278 104.594C100.278 102.869 99.8471 100.713 98.5534 98.9876C98.1221 97.6938 96.8284 97.2626 95.5346 96.4001ZM114.078 104.163C112.785 105.025 112.785 106.75 112.785 108.044C112.785 118.394 112.785 129.175 112.785 139.525C112.785 141.25 113.647 143.406 115.372 143.838C118.822 144.269 122.272 143.838 125.722 143.838C130.466 143.406 134.347 140.388 136.503 136.938C139.522 131.763 139.953 125.294 139.522 119.256C139.091 113.65 135.641 108.044 130.466 105.456C127.016 103.731 123.135 104.163 119.253 104.163C117.96 104.163 115.803 103.731 114.078 104.163Z" fill="#E9444A"/>
</g>
<defs>
<clipPath id="clip0_68_683">
<rect width="138" height="138" fill="white" transform="translate(55 55)"/>
</clipPath>
</defs>
</svg>
