<svg width="248" height="248" viewBox="0 0 248 248" fill="none" xmlns="http://www.w3.org/2000/svg">
<rect width="248" height="248" rx="16" fill="white" fill-opacity="0.1"/>
<path d="M76.2422 78.4342C79.7155 78 82.7546 78 86.2278 78C87.0961 78 87.9645 78.4342 88.8328 78.4342C90.1353 78.4342 91.8719 78.4342 93.1744 78.4342C96.6476 78.8683 99.6867 78.4342 103.16 78.8683C104.897 78.8683 107.067 78.8683 108.804 78.8683C107.936 79.7366 107.067 80.605 105.765 81.4733C104.028 83.2099 102.292 84.9465 101.423 87.1173C101.423 87.9856 101.423 89.2881 101.423 90.1564C96.6476 90.1564 91.8719 90.1564 87.5303 90.1564C87.5303 88.854 87.5303 87.1173 86.662 85.8148C86.2278 85.3807 85.3595 84.5124 84.4912 83.6441C81.8862 81.9074 78.8471 80.1708 76.2422 78.4342Z" fill="#E9444A"/>
<path d="M157.864 108.826C162.64 98.4058 166.981 88.4202 171.757 78.4346C170.455 83.2103 169.586 87.5519 168.284 92.3276C167.85 93.6301 168.718 94.9326 168.284 96.6692C167.416 99.7083 166.547 103.182 165.679 106.221C165.245 107.523 164.811 108.391 164.811 109.694C164.811 110.996 165.679 111.431 165.679 112.733C164.811 115.772 163.942 118.377 163.074 120.982C161.772 125.324 160.469 129.665 159.167 134.007C159.167 134.875 158.298 135.309 157.864 136.178C157.43 137.046 157.43 137.914 156.996 138.783C155.693 140.519 154.391 142.69 153.957 144.861C153.523 146.163 153.088 147.032 152.654 148.334C152.22 150.939 151.352 153.544 150.918 156.583C150.918 157.451 150.483 157.886 150.483 158.754C149.615 160.056 148.747 160.925 147.878 162.227C147.01 163.964 146.576 166.135 145.274 167.871C144.405 166.569 144.405 165.266 143.971 163.964C142.234 158.754 140.932 153.544 139.195 148.334C140.498 147.032 142.234 146.597 143.537 145.295C148.313 141.822 151.352 136.612 153.523 131.402C155.259 127.494 155.693 123.153 156.996 118.811C157.43 117.509 157.864 116.64 158.732 115.772C158.298 114.47 157.864 113.167 157.43 111.865C157.43 110.128 157.864 109.26 157.864 108.826Z" fill="#E9444A"/>
<path d="M115.751 78.8687C117.054 78.8687 118.79 78.8687 120.093 78.4346C122.698 78.4346 125.737 78.4346 128.342 78.4346C129.644 78.4346 130.947 78.8687 132.249 78.8687C133.986 78.8687 135.723 78.4346 137.459 78.4346C139.196 78.4346 140.933 78.4346 142.235 78.8687C140.933 80.6054 138.762 81.9078 137.459 83.6445C136.591 84.9469 136.157 86.2494 134.854 87.1177C134.42 87.5519 133.986 87.9861 133.552 88.4202C133.552 88.8544 133.552 89.7227 133.118 90.1568C129.644 90.1568 126.171 90.1568 122.698 90.1568C121.83 90.1568 120.961 90.1568 120.527 90.1568C120.527 89.2885 120.093 88.4202 119.225 87.9861C117.054 85.8153 114.449 83.6445 112.712 81.0395C112.278 80.1712 111.41 79.737 110.976 78.8687C112.712 78.8687 114.449 78.4346 115.751 78.8687Z" fill="#E9444A"/>
<path d="M84.0566 94.9322C84.4908 94.9322 84.925 94.498 85.3591 94.498C93.174 94.498 101.423 94.498 109.238 94.498C111.409 94.498 114.014 94.498 116.184 94.498C117.487 94.498 119.223 94.498 120.526 94.498C126.604 94.498 132.682 94.498 138.761 94.498C142.234 94.9322 145.707 94.498 149.18 94.9322C150.483 94.9322 151.785 94.9322 153.088 95.3664V95.8005C152.219 97.103 150.483 97.9713 149.615 99.2738C149.18 101.01 149.615 102.313 150.049 104.05C150.917 107.089 152.219 110.128 153.088 112.733C153.088 113.167 153.522 113.601 153.522 114.035C153.522 114.469 153.088 114.903 153.088 115.338C151.785 119.245 151.351 123.587 150.049 127.494C148.312 131.836 146.141 135.743 143.102 139.216C140.063 142.255 136.156 144.426 132.248 146.163C128.341 147.465 124.433 148.334 120.526 148.768C118.355 148.768 116.184 149.202 114.014 149.202C112.711 149.202 110.974 149.636 109.672 149.636C108.37 149.636 107.067 149.636 106.199 149.636C105.33 149.636 105.33 148.768 104.462 148.768C103.594 149.202 103.16 149.636 102.291 150.07C101.423 150.07 100.989 150.07 100.12 150.07C97.0814 150.07 93.6081 150.07 90.569 150.07C89.2665 150.07 88.3982 150.07 87.0957 149.636C88.3982 148.334 90.1349 147.031 91.8715 146.597C94.4764 145.729 97.0814 144.86 100.12 144.426C100.989 144.426 101.423 143.992 101.857 143.124C102.291 141.387 100.989 139.651 100.989 137.914C100.989 134.875 100.989 131.836 100.989 129.231C100.989 128.362 101.857 127.494 102.291 126.626C102.291 125.757 100.989 124.889 100.989 124.021C100.989 120.982 100.989 117.943 100.989 114.903C100.989 113.601 101.423 112.299 102.291 111.43C103.16 110.562 104.028 109.259 104.896 108.391V107.957C103.16 107.089 100.989 107.523 99.2522 106.654C96.6472 104.918 94.0423 103.181 91.4373 101.879C89.2665 100.576 87.5299 99.2738 85.3591 97.5372C84.925 96.2347 84.4908 95.3664 84.0566 94.9322ZM110.106 100.142C110.974 101.445 111.843 101.879 112.711 103.181C114.448 104.918 116.619 106.22 117.053 108.391C115.316 108.391 113.579 108.391 111.843 108.391C111.843 110.996 111.843 114.035 112.277 116.64C112.277 118.377 112.277 120.113 112.711 121.85C112.711 122.718 113.579 123.152 114.014 123.587C114.882 124.455 115.316 124.889 115.75 125.757C115.316 126.626 114.448 127.494 113.579 127.928C113.145 128.362 112.277 128.797 112.277 129.665C112.277 132.27 112.277 134.441 112.277 137.046C112.277 138.348 112.277 140.085 112.277 141.387C115.316 141.387 118.355 141.387 121.394 141.387C123.565 141.387 125.302 141.387 127.472 140.519C130.512 139.651 133.117 137.914 134.853 135.309C136.156 132.704 137.024 130.099 137.458 127.494C137.892 125.757 137.458 124.021 137.892 122.718C138.326 121.85 138.761 120.548 138.761 119.679C138.761 117.508 138.761 114.903 138.326 112.733C137.892 111.43 137.892 109.694 137.458 108.391C137.024 107.523 136.59 106.654 136.156 105.786C136.156 105.352 136.59 104.918 137.024 104.484C137.458 104.05 137.892 103.615 137.892 102.747C136.59 101.879 135.287 101.879 133.985 101.879C130.946 101.445 127.907 101.01 124.868 101.01C123.131 100.576 121.394 101.01 119.658 100.576C118.355 100.576 117.487 100.576 116.184 100.576C114.014 100.142 112.277 100.142 110.106 100.142Z" fill="#E9444A"/>
<path d="M88.3985 103.181C89.7009 103.615 90.5693 104.918 91.8717 105.352C93.1742 106.22 94.4767 107.089 95.7791 107.957C96.6475 108.391 97.5158 108.825 97.9499 109.694C97.9499 110.562 97.5158 110.996 97.5158 111.864C97.5158 112.733 97.0816 113.167 97.0816 114.035C97.0816 117.074 97.0816 120.113 97.0816 122.718C97.0816 123.587 97.5158 124.889 97.0816 125.757C97.0816 126.626 96.6475 127.494 96.6475 127.928C96.6475 130.967 96.6475 133.572 96.6475 136.611C96.6475 137.914 96.6475 138.782 97.0816 140.085C95.7791 140.519 94.4767 140.953 93.6084 140.953C93.6084 140.519 93.6084 140.085 93.6084 139.216C93.1742 136.177 92.74 133.138 92.3059 129.665C91.8717 127.06 91.8717 124.889 91.4376 122.284C90.5692 118.811 90.1351 115.338 89.2668 111.864C88.8326 110.996 89.2668 109.694 89.2668 108.825C89.2668 107.957 88.3985 107.523 88.8326 106.654C87.9643 105.786 87.9643 104.484 88.3985 103.181Z" fill="#E9444A"/>
<path d="M125.301 104.917C126.603 104.917 127.906 104.917 129.642 105.352C130.511 106.22 131.813 107.088 132.681 107.957C133.55 108.391 133.984 109.259 133.984 110.127C134.418 111.864 134.852 114.035 134.852 115.771C134.852 117.508 134.852 118.811 134.418 120.547C133.55 123.152 133.984 126.191 132.681 129.23C131.379 127.06 130.511 124.455 129.642 121.85C129.208 119.679 128.34 117.942 127.906 115.771C127.472 111.864 126.603 108.391 125.301 104.917Z" fill="#E9444A"/>
<path d="M94.9102 153.543C97.0809 153.543 98.8176 153.543 100.988 153.543C100.554 156.148 100.12 158.753 99.6859 161.358C99.2517 164.397 98.3834 167.436 97.9493 170.909H97.5151C97.0809 169.173 97.0809 167.436 96.6468 165.265C95.7785 162.226 95.7785 159.187 95.7785 156.148C94.9102 155.28 94.9102 154.411 94.9102 153.543Z" fill="#E9444A"/>
</svg>
