<svg width="248" height="248" viewBox="0 0 248 248" fill="none" xmlns="http://www.w3.org/2000/svg">
<rect width="248" height="248" rx="16" fill="white" fill-opacity="0.1"/>
<g clip-path="url(#clip0_68_638)">
<path fill-rule="evenodd" clip-rule="evenodd" d="M169.834 99.5484C169.476 82.5733 169.453 86.2426 169.803 80.9519C169.824 80.6383 169.587 80.3672 169.273 80.3458C143.996 78.6168 143.038 78.4175 141.08 78.4175C106.597 78.4147 124.7 77.8512 78.6729 80.5664C78.3601 80.585 78.1211 80.8524 78.1375 81.1649C81.1039 138.077 80.9956 128.793 79.4802 166.724C79.4694 166.996 79.6531 167.238 79.9186 167.3C83.3634 168.115 82.7529 167.794 90.7885 167.8C90.8017 167.804 105.848 166.161 105.861 166.16C105.932 166.171 126.667 169.575 126.739 169.575C126.755 169.575 126.771 169.574 126.787 169.572C151.088 167.536 144.122 168.028 159.8 167.159L169.005 169.021C169.364 169.093 169.692 168.816 169.688 168.457C169.489 149.923 169.834 99.5484 169.834 99.5484ZM132.467 98.1974C132.535 98.1808 132.633 98.1569 132.755 98.1244L139.307 96.6477C142.664 95.8068 143.16 95.6019 146.032 94.2516C147.358 94.7116 150.994 96.7236 151.916 97.8787C152.525 98.6434 152.485 98.8135 152.293 99.6323C152.256 99.7895 152.214 99.9704 152.17 100.184C152.167 100.198 152.164 100.213 152.162 100.227L150.721 111.502C149.296 111.555 149.177 111.446 148.783 111.083C148.62 110.932 148.417 110.746 148.06 110.506C145.892 109.051 138.797 103.801 136.556 101.994L132.152 98.4555L132.188 98.4212C132.235 98.3737 132.278 98.3099 132.306 98.2488C132.328 98.2315 132.415 98.2101 132.467 98.1974ZM142.677 154.969C142.548 154.84 87.6174 96.6063 87.5771 96.5258L92.376 92.8443L159.44 137.251C158.886 138.839 158.665 140.662 158.331 142.175C157.153 147.521 155.638 149.86 153.269 154.938C149.878 155.073 142.911 155.047 142.677 154.969ZM92.7079 139.214C93.3253 137.73 94.1741 135.343 94.8877 134.133C98.3954 136.325 112.098 150.093 113.29 151.952C112.63 152.197 109.795 152.618 105.084 154.5C102.099 155.691 99.2813 156.82 96.5592 155.897C96.2878 155.805 95.5641 155.191 94.491 154.265C92.5311 152.573 90.7563 151.354 89.7242 150.745C87.964 149.706 88.2382 149.925 92.7079 139.214Z" fill="#993333"/>
</g>
<defs>
<clipPath id="clip0_68_638">
<rect width="118" height="118" fill="white" transform="translate(65 65)"/>
</clipPath>
</defs>
</svg>
