<svg width="248" height="248" viewBox="0 0 248 248" fill="none" xmlns="http://www.w3.org/2000/svg">
<rect width="248" height="248" rx="16" fill="white" fill-opacity="0.1"/>
<path d="M83.1688 102.375L70.75 80.833H95.8924L83.1688 102.375Z" fill="#95C832"/>
<path d="M96.8835 86.8254L85.5312 106.319L93.4549 119.821L97.8739 112.312H118.445L126.445 98.4308H106.026L108.236 94.5623H128.807L136.807 80.833H119.512H105.569C101.378 81.8255 99.4637 83.123 96.8835 86.8254Z" fill="#95C832"/>
<path d="M108.464 145.612C109.378 148.797 124.235 172.767 124.235 172.767L154.939 119.973L139.168 119.897L124.235 145.46L121.949 141.515L149.453 94.6382H153.949L141.225 116.18H157.225L177.796 80.833H146.101C142.409 81.7409 140.696 82.9134 138.254 86.1427L120.883 115.725L113.492 128.469C113.492 128.469 109.073 136.205 108.54 137.191C108.007 138.177 107.549 142.425 108.464 145.612Z" fill="#95C832"/>
</svg>
