<svg width="248" height="248" viewBox="0 0 248 248" fill="none" xmlns="http://www.w3.org/2000/svg">
<rect width="248" height="248" rx="16" fill="white" fill-opacity="0.1"/>
<g clip-path="url(#clip0_68_644)">
<path d="M108.09 135.706C108.09 137.48 108.147 139.258 108.075 141.03C107.991 143.086 107.979 145.142 107.948 147.198C107.942 147.585 107.783 147.743 107.412 147.742C104.25 147.74 101.088 147.738 97.9269 147.742C97.4053 147.743 97.3725 147.406 97.3733 147.015C97.3772 144.756 97.3758 142.498 97.3758 140.239C97.3754 133.743 97.3743 127.247 97.3747 120.751C97.3747 119.781 97.3772 119.782 98.3305 119.785C99.1707 119.787 100.011 119.786 100.852 119.787C101.167 119.787 101.457 119.783 101.466 119.335C101.474 118.893 101.206 118.865 100.877 118.867C99.9365 118.872 98.9954 118.85 98.0555 118.875C97.5774 118.888 97.3664 118.741 97.3697 118.232C97.3859 115.814 97.3689 113.395 97.3812 110.977C97.3855 110.069 97.7909 109.732 98.8262 109.732C106.37 109.73 113.913 109.729 121.457 109.732C123.368 109.733 123.099 109.539 123.101 111.404C123.11 118.48 123.105 125.556 123.104 132.632C123.104 133.875 122.521 134.452 121.262 134.459C120.702 134.462 120.141 134.473 119.581 134.456C119.152 134.442 118.997 134.564 119.143 135.017C119.781 136.994 120.401 138.978 121.022 140.96C121.667 143.019 122.301 145.08 122.949 147.138C123.097 147.609 122.906 147.748 122.46 147.747C118.998 147.74 115.537 147.738 112.075 147.749C111.588 147.751 111.354 147.544 111.237 147.087C110.531 144.32 109.812 141.556 109.093 138.792C108.822 137.752 108.541 136.715 108.265 135.676C108.207 135.686 108.148 135.696 108.09 135.706ZM112.737 122.078C112.737 120.681 112.725 119.284 112.744 117.887C112.75 117.445 112.587 117.287 112.149 117.294C110.991 117.314 109.831 117.315 108.673 117.296C108.219 117.288 108.09 117.48 108.092 117.904C108.104 120.698 108.104 123.492 108.093 126.285C108.091 126.722 108.252 126.892 108.69 126.886C109.789 126.869 110.888 126.857 111.986 126.891C112.549 126.909 112.765 126.737 112.75 126.148C112.713 124.793 112.738 123.435 112.737 122.078Z" fill="#9AD689"/>
<path d="M178.563 123.802C178.563 127.738 178.545 131.675 178.574 135.611C178.583 136.766 178.433 137.83 177.931 138.905C176.535 141.89 175.236 144.921 173.923 147.944C173.729 148.389 173.462 148.52 173.004 148.503C170.509 148.412 168.013 148.338 165.517 148.268C164.599 148.242 163.68 148.252 162.761 148.233C160.884 148.194 159.008 148.133 157.131 148.114C156.673 148.109 156.496 147.87 156.367 147.508C155.751 145.777 155.134 144.046 154.518 142.315C154.472 142.183 154.446 142.043 154.386 141.918C153.228 139.515 153.009 136.978 153.068 134.34C153.169 129.807 153.101 125.269 153.091 120.734C153.089 120.141 153.207 119.602 153.441 119.055C154.653 116.227 155.853 113.395 157.017 110.548C157.266 109.938 157.587 109.708 158.256 109.711C164.697 109.735 171.138 109.725 177.579 109.726C178.561 109.726 178.562 109.728 178.563 110.734C178.563 115.09 178.563 119.446 178.563 123.802ZM168.063 128.85C168.063 125.235 168.052 121.62 168.073 118.006C168.077 117.452 167.907 117.272 167.355 117.29C166.236 117.327 165.116 117.311 163.996 117.298C163.59 117.293 163.429 117.444 163.427 117.86C163.418 120.155 163.532 122.447 163.508 124.743C163.485 126.956 163.608 129.17 163.661 131.383C163.729 134.216 163.574 137.052 163.771 139.884C163.803 140.336 163.917 140.53 164.396 140.517C165.375 140.491 166.357 140.479 167.335 140.521C167.931 140.546 168.076 140.313 168.073 139.754C168.053 136.119 168.063 132.485 168.063 128.85Z" fill="#9AD689"/>
<path d="M136.255 116.112C136.86 114.922 137.447 113.769 138.032 112.614C138.438 111.812 138.852 111.013 139.238 110.202C139.408 109.845 139.65 109.719 140.039 109.721C143.28 109.731 146.521 109.724 149.763 109.729C150.45 109.73 150.491 109.803 150.217 110.398C148.499 114.138 146.787 117.881 145.056 121.615C144.783 122.204 144.723 122.751 144.874 123.4C145.942 127.968 146.968 132.546 148.006 137.122C148.78 140.529 149.553 143.937 150.327 147.344C150.477 148.004 150.426 148.098 149.759 148.1C147.318 148.11 144.877 148.094 142.437 148.112C141.902 148.115 141.663 147.882 141.505 147.393C140.244 143.497 138.964 139.606 137.688 135.715C136.99 133.589 136.288 131.465 135.588 129.341C135.552 129.232 135.508 129.125 135.349 129.025C135.349 129.23 135.349 129.435 135.349 129.64C135.349 135.316 135.349 140.992 135.349 146.668C135.349 147.746 135.349 147.746 134.244 147.746C131.603 147.747 128.962 147.748 126.321 147.745C125.545 147.744 125.497 147.698 125.497 146.936C125.494 134.805 125.494 122.674 125.495 110.542C125.495 109.776 125.545 109.729 126.315 109.728C129.216 109.725 132.117 109.725 135.018 109.729C135.842 109.73 136.109 110.041 136.099 110.864C136.081 112.483 136.088 114.101 136.089 115.72C136.089 115.831 136.055 115.962 136.255 116.112Z" fill="#9AD689"/>
<path d="M193.048 128.749C193.616 127.006 194.144 125.249 194.768 123.526C195.145 122.484 195.218 121.438 195.209 120.353C195.187 117.375 195.199 114.397 195.197 111.419C195.197 111.219 195.204 111.019 195.189 110.82C195.109 109.727 195.108 109.726 196.186 109.726C198.507 109.726 200.828 109.722 203.148 109.73C203.446 109.731 203.751 109.754 204.039 109.825C204.783 110.006 205.01 110.367 204.902 111.14C204.817 111.742 204.946 112.334 204.962 112.931C205.083 117.409 204.893 121.869 204.336 126.322C203.832 130.35 203.111 134.334 202.209 138.286C201.516 141.323 200.667 144.322 199.72 147.292C199.527 147.895 199.237 148.127 198.576 148.122C194.895 148.088 191.213 148.091 187.532 148.12C186.893 148.124 186.565 147.919 186.326 147.325C185.052 144.154 184.331 140.839 183.68 137.503C183.01 134.073 182.51 130.617 182.03 127.157C181.604 124.091 181.287 121.013 180.956 117.937C180.72 115.756 180.547 113.567 180.34 111.381C180.237 110.291 180.738 109.73 181.852 109.728C184.533 109.723 187.214 109.724 189.895 109.728C190.627 109.729 190.682 109.778 190.674 110.515C190.643 113.431 190.617 116.348 190.559 119.263C190.534 120.47 190.61 121.639 191.011 122.801C191.687 124.762 192.274 126.755 192.898 128.734C192.948 128.739 192.998 128.744 193.048 128.749Z" fill="#9AD689"/>
<path d="M70.3778 133.818C70.3778 129.881 70.4465 125.942 70.345 122.008C70.3022 120.356 70.7709 118.923 71.4293 117.478C72.365 115.424 73.2527 113.348 74.1581 111.28C74.2139 111.152 74.256 111.017 74.2902 110.882C74.4918 110.088 74.9141 109.735 75.731 109.73C77.1512 109.72 78.5717 109.727 79.9923 109.726C84.4937 109.722 88.9948 109.719 93.4962 109.708C93.8739 109.707 94.2515 109.649 94.6288 109.615C95.3916 109.547 95.8596 109.949 95.8618 110.715C95.8694 113.393 95.8676 116.071 95.8604 118.748C95.8596 118.987 95.9579 119.321 95.5806 119.378C95.1828 119.437 95.2034 119.12 95.1879 118.861C95.1652 118.487 94.8855 118.555 94.6558 118.554C93.4962 118.55 92.336 118.527 91.1775 118.563C90.681 118.578 90.4553 118.439 90.5208 117.933C90.5882 117.413 90.3218 117.267 89.8509 117.306C89.5528 117.331 89.2511 117.314 88.9509 117.309C88.4548 117.301 87.8871 117.461 87.728 116.713C87.7002 116.583 87.458 116.493 87.3071 116.396C86.8096 116.077 86.2426 115.845 86.0525 115.192C85.992 114.984 85.7764 114.849 85.5726 114.758C84.9848 114.496 84.3623 114.334 83.7244 114.303C82.9097 114.263 82.0032 115.349 82.1166 116.186C82.2336 117.052 82.216 117.869 81.4179 118.455C81.176 118.633 80.9607 118.725 80.6547 118.556C80.047 118.22 79.4886 118.407 78.9972 118.825C78.6315 119.136 78.305 119.489 78.053 119.905C77.95 120.075 77.8539 120.319 77.6598 120.336C77.0295 120.39 77.1044 120.856 77.073 121.259C77.0345 121.755 77.0169 122.253 76.9906 122.751C76.983 122.892 76.9726 123.037 76.8581 123.136C75.4793 124.332 75.5308 125.927 75.596 127.541C75.6248 128.251 75.9239 128.693 76.6058 128.892C77.1396 129.049 77.333 129.372 77.2689 129.965C77.0889 131.63 76.9625 133.302 76.852 134.974C76.7984 135.789 76.8257 136.608 76.82 137.426C76.8192 137.504 76.8192 137.599 76.8603 137.657C77.4568 138.491 77.1425 139.192 76.5618 139.87C76.0985 140.41 76.0344 141.116 75.8472 141.76C75.3623 143.428 74.9426 145.115 74.4749 146.789C74.3597 147.201 74.4288 147.328 74.886 147.386C76.2994 147.567 77.3193 147.301 77.7617 145.707C78.0342 144.725 78.6574 143.841 79.1106 142.908C79.2399 142.642 79.4426 142.476 79.6776 142.312C80.0369 142.061 80.3955 141.798 80.7054 141.492C81.1551 141.047 81.4449 140.537 81.392 139.842C81.3254 138.967 81.3761 138.088 81.5918 137.224C81.6857 136.848 81.77 136.705 82.099 137.046C82.7106 137.678 83.3345 138.298 83.9616 138.915C84.2 139.149 84.2259 139.423 84.223 139.737C84.2025 142.035 84.2111 144.333 84.1751 146.63C84.1661 147.208 84.3569 147.415 84.9329 147.381C85.6108 147.341 86.2941 147.346 86.9727 147.38C87.4936 147.406 87.6938 147.222 87.6711 146.694C87.6387 145.936 87.6621 145.176 87.6639 144.416C87.6675 142.782 87.5721 141.145 88.0415 139.541C88.2204 138.929 88.0851 138.301 87.796 137.737C87.0206 136.223 86.4867 134.606 85.7764 133.065C85.5093 132.485 85.2479 131.901 85.0118 131.308C84.6755 130.464 84.8422 129.535 85.9215 129.391C86.2282 129.35 86.3456 129.12 86.4334 128.866C86.6562 128.221 86.7534 127.548 86.882 126.881C86.9795 126.374 86.7797 126.073 86.3362 125.89C86.0907 125.789 85.7822 125.709 85.9812 125.358C86.1479 125.063 86.437 124.971 86.7552 125.149C87.2254 125.413 87.692 125.668 88.2086 125.85C88.836 126.071 89.2475 125.907 89.6572 125.411C90.7001 124.149 91.5162 122.759 92.0663 121.224C92.2506 120.71 92.4911 120.463 93.0538 120.513C93.5301 120.555 94.0132 120.521 94.4934 120.522C94.8164 120.523 95.1458 120.558 95.2376 120.115C95.2696 119.961 95.4266 119.924 95.5799 119.944C95.7452 119.964 95.8272 120.071 95.842 120.224C95.8596 120.402 95.8643 120.583 95.8643 120.762C95.865 129.455 95.865 138.149 95.864 146.842C95.864 147.736 95.8542 147.742 94.9625 147.746C92.562 147.759 90.1594 147.715 87.7614 147.798C84.6824 147.905 81.6011 147.827 78.5246 147.935C76.0863 148.02 73.6455 147.923 71.2097 148.098C70.4663 148.152 70.3792 148.053 70.3788 147.307C70.3767 142.811 70.3778 138.315 70.3778 133.818Z" fill="#9AD689"/>
<path d="M61.0555 132.491C61.0555 137.286 61.0559 142.081 61.0552 146.877C61.0552 147.726 61.0386 147.743 60.1789 147.744C57.1985 147.746 54.2184 147.746 51.238 147.744C50.3517 147.743 50.32 147.714 50.32 146.841C50.3182 137.31 50.3182 127.779 50.3175 118.248C50.3175 117.309 50.3164 117.309 49.3577 117.308C47.5174 117.308 45.6774 117.31 43.8371 117.307C43.0519 117.306 43.0037 117.263 43.0015 116.508C42.9965 114.749 42.9965 112.991 43.0019 111.233C43.0048 110.318 43.4447 109.838 44.3573 109.736C44.5355 109.717 44.7169 109.725 44.8969 109.725C52.4177 109.725 59.9385 109.724 67.4592 109.725C68.6667 109.725 68.9687 110.022 68.9763 111.259C68.9863 112.857 68.9813 114.456 68.9788 116.054C68.9773 117.025 68.7268 117.293 67.7278 117.302C65.8677 117.318 64.0075 117.305 62.1474 117.31C60.927 117.313 61.0577 117.197 61.057 118.404C61.0537 123.1 61.0555 127.795 61.0555 132.491Z" fill="#9AD689"/>
<path d="M197.68 106.753C197.607 106.815 197.564 106.835 197.549 106.867C196.986 108.111 196.028 108.467 194.699 108.332C193.492 108.21 192.262 108.285 191.043 108.317C190.526 108.33 190.187 108.178 189.914 107.723C189.631 107.251 189.39 106.738 188.86 106.232C188.86 106.827 188.857 107.292 188.861 107.758C188.864 108.124 188.707 108.308 188.321 108.306C186.962 108.299 185.602 108.299 184.242 108.308C183.843 108.31 183.667 108.154 183.668 107.739C183.678 105.182 183.677 102.625 183.669 100.069C183.668 99.6846 183.832 99.5254 184.206 99.5265C185.966 99.5305 187.726 99.5301 189.485 99.5258C189.845 99.5251 190.062 99.718 190.274 99.9841C191.198 101.138 192.16 102.261 193.063 103.43C193.437 103.914 193.611 103.764 193.878 103.36C194.604 102.26 195.37 101.186 196.091 100.083C196.346 99.6932 196.63 99.5085 197.113 99.515C198.973 99.5391 200.833 99.5395 202.692 99.5161C203.247 99.5092 203.473 99.6673 203.467 100.261C203.44 102.738 203.442 105.215 203.465 107.692C203.47 108.257 203.294 108.469 202.711 108.455C201.332 108.422 199.952 108.431 198.572 108.452C198.084 108.459 197.873 108.265 197.87 107.79C197.867 107.452 197.857 107.112 197.68 106.753Z" fill="#9AD689"/>
<path d="M161.146 105.987C161.146 106.539 161.15 107.09 161.145 107.641C161.137 108.384 161.083 108.44 160.372 108.443C159.071 108.447 157.771 108.422 156.471 108.454C155.91 108.468 155.694 108.301 155.7 107.713C155.724 105.295 155.721 102.877 155.697 100.459C155.693 99.9822 155.891 99.8847 156.301 99.8868C158.302 99.8962 160.302 99.8904 162.303 99.8904C164.163 99.8904 166.024 99.8883 167.884 99.8915C168.679 99.8929 168.72 99.9365 168.722 100.749C168.725 101.968 168.726 103.187 168.721 104.406C168.717 105.124 168.659 105.174 167.922 105.181C167.682 105.183 167.442 105.177 167.202 105.186C167.069 105.191 166.896 105.138 166.82 105.284C166.737 105.441 166.902 105.532 166.982 105.636C167.513 106.336 168.053 107.03 168.581 107.732C168.682 107.867 168.864 108.008 168.738 108.204C168.638 108.357 168.446 108.301 168.292 108.301C166.691 108.305 165.091 108.292 163.491 108.311C163.077 108.316 162.826 108.153 162.607 107.824C162.182 107.185 161.726 106.566 161.283 105.939C161.237 105.956 161.192 105.971 161.146 105.987ZM162.41 101.453C160.855 101.467 161.167 101.321 161.144 102.433C161.135 102.837 161.295 103.016 161.707 103C162.144 102.982 162.583 102.972 163.019 103.003C163.522 103.038 163.674 102.82 163.668 102.339C163.658 101.47 163.666 101.456 162.767 101.454C162.648 101.453 162.529 101.454 162.41 101.453Z" fill="#9AD689"/>
<path d="M100.191 104.171C100.191 105.37 100.178 106.569 100.198 107.767C100.206 108.239 100.067 108.46 99.5533 108.451C98.194 108.428 96.8335 108.44 95.4738 108.446C95.1408 108.448 94.8679 108.407 94.8614 107.986C94.8564 107.662 94.644 107.601 94.3729 107.605C93.973 107.611 93.5723 107.62 93.1734 107.601C92.7738 107.583 92.4635 107.63 92.4278 108.133C92.4077 108.418 92.1578 108.441 91.9274 108.441C90.5476 108.442 89.1677 108.435 87.7878 108.446C87.3871 108.448 87.2726 108.255 87.2744 107.89C87.282 106.093 87.2798 104.295 87.2759 102.497C87.2752 102.199 87.3803 101.952 87.5776 101.738C87.6182 101.694 87.6593 101.651 87.7007 101.607C89.3347 99.8905 89.3347 99.8905 91.7028 99.8905C94.2826 99.8905 96.8623 99.9027 99.4421 99.8815C100.007 99.8768 100.221 100.05 100.203 100.635C100.165 101.813 100.192 102.992 100.191 104.171ZM94.8766 103.373C94.8175 101.085 95.31 101.498 92.9149 101.454C92.5394 101.447 92.3659 101.6 92.3767 101.985C92.39 102.462 92.3674 102.94 92.38 103.417C92.4379 105.661 91.94 105.207 94.333 105.267C94.7617 105.278 94.892 105.076 94.8787 104.686C94.864 104.249 94.8751 103.811 94.8766 103.373Z" fill="#9AD689"/>
<path d="M177.211 99.5247C178.75 99.5247 180.29 99.5388 181.829 99.5172C182.353 99.5096 182.537 99.7127 182.532 100.223C182.516 102.02 182.521 103.818 182.529 105.615C182.53 106.021 182.411 106.356 182.102 106.625C181.982 106.729 181.853 106.84 181.776 106.975C181.092 108.176 180.033 108.36 178.737 108.336C175.982 108.286 173.224 108.403 170.467 108.442C169.687 108.453 169.667 108.421 169.666 107.632C169.665 106.074 169.679 104.516 169.66 102.958C169.654 102.471 169.768 102.082 170.122 101.722C170.639 101.196 171.115 100.628 171.584 100.057C171.9 99.6713 172.263 99.5046 172.774 99.5147C174.251 99.5427 175.731 99.5244 177.211 99.5247ZM177.696 104.2C177.696 103.841 177.702 103.483 177.695 103.125C177.652 101.186 178.03 101.49 175.964 101.45C175.463 101.44 175.3 101.642 175.311 102.123C175.333 103.118 175.301 104.114 175.32 105.109C175.359 107.168 174.939 106.775 177.174 106.826C177.565 106.835 177.705 106.665 177.698 106.291C177.684 105.594 177.694 104.897 177.696 104.2Z" fill="#9AD689"/>
<path d="M107.6 99.5249C109.521 99.5249 111.443 99.5422 113.363 99.5145C113.945 99.5062 114.129 99.7135 114.118 100.279C114.089 101.678 114.087 103.078 114.119 104.477C114.132 105.045 113.905 105.196 113.375 105.191C111.334 105.171 109.293 105.183 107.252 105.184C106.435 105.185 106.435 105.187 106.432 106.027C106.431 106.646 106.421 107.266 106.432 107.885C106.439 108.293 106.263 108.452 105.854 108.449C104.453 108.435 103.052 108.437 101.652 108.447C101.247 108.45 101.079 108.297 101.08 107.881C101.089 105.303 101.09 102.724 101.071 100.146C101.067 99.6145 101.325 99.5159 101.778 99.5188C103.718 99.5321 105.66 99.5249 107.6 99.5249ZM107.564 101.46C107.304 101.46 107.044 101.463 106.785 101.459C106.475 101.453 106.248 101.577 106.297 101.907C106.373 102.425 106.004 103.028 106.566 103.451C106.646 103.512 106.799 103.483 106.918 103.485C107.298 103.489 107.68 103.46 108.056 103.495C108.645 103.55 108.819 103.293 108.807 102.732C108.775 101.275 108.879 101.47 107.564 101.46Z" fill="#9AD689"/>
<path d="M52.5677 99.5235C54.4479 99.5235 56.3286 99.5382 58.2089 99.5145C58.7604 99.5073 59.0009 99.6559 58.9893 100.253C58.9609 101.756 59.0329 101.58 57.6545 101.586C55.8141 101.593 53.9738 101.585 52.1335 101.587C51.4247 101.588 51.4265 101.618 51.3941 102.406C51.3714 102.954 51.4668 103.287 52.131 103.239C52.8078 103.192 53.4918 103.252 54.1704 103.221C54.8382 103.19 54.7752 103.635 54.7827 104.06C54.7899 104.48 54.8076 104.872 54.1873 104.849C53.4284 104.821 52.667 104.856 51.9071 104.841C51.5327 104.833 51.3764 104.939 51.3865 105.353C51.4113 106.369 51.3897 106.368 52.4226 106.367C54.363 106.366 56.3034 106.379 58.2434 106.359C58.7795 106.354 58.9947 106.535 58.9865 107.088C58.9627 108.665 59.0642 108.437 57.6339 108.441C54.5934 108.451 51.5528 108.442 48.5119 108.446C47.8794 108.448 47.2778 108.336 46.7263 108.019C46.0704 107.643 45.7115 107.109 45.7219 106.314C45.7457 104.496 45.7262 102.677 45.7305 100.858C45.7331 99.8295 46.0344 99.526 47.0467 99.5246C48.887 99.5217 50.7273 99.5235 52.5677 99.5235Z" fill="#9AD689"/>
<path d="M65.0678 108.306C63.5878 108.306 62.1079 108.288 60.6283 108.316C60.071 108.326 59.8381 108.17 59.8543 107.574C59.8841 106.495 59.8535 106.493 60.9285 106.493C62.7883 106.493 64.648 106.495 66.5078 106.492C67.1626 106.49 67.4596 106.027 67.2015 105.431C67.0708 105.129 66.8015 105.216 66.5769 105.215C64.5973 105.209 62.6169 105.19 60.6376 105.224C60.0375 105.235 59.909 105.058 59.8474 104.456C59.6941 102.965 60.152 101.792 61.1197 100.653C61.8044 99.847 62.4531 99.4618 63.5309 99.4988C65.948 99.5816 68.3697 99.5464 70.7894 99.5158C72.036 99.4999 72.026 100.104 71.9039 101.153C71.8629 101.505 71.5238 101.452 71.2739 101.453C69.5739 101.459 67.8743 101.457 66.1744 101.458C65.2467 101.458 65.2467 101.459 65.2453 102.375C65.2435 103.426 65.2435 103.425 66.3055 103.426C67.9442 103.426 69.5829 103.439 71.2217 103.422C71.7495 103.417 72.0184 103.595 71.9479 104.151C71.9378 104.229 71.9352 104.312 71.9486 104.39C72.2078 105.891 71.6937 107.055 70.4754 107.964C70.1828 108.182 69.9278 108.315 69.5674 108.312C68.0677 108.3 66.5675 108.306 65.0678 108.306Z" fill="#9AD689"/>
<path d="M121.392 99.5251C123.331 99.5248 125.271 99.5385 127.21 99.5158C127.75 99.5097 127.951 99.6821 127.944 100.238C127.927 101.456 127.952 101.457 126.756 101.457C124.817 101.457 122.877 101.482 120.939 101.444C120.262 101.43 120.221 101.756 120.207 102.287C120.193 102.854 120.405 103.02 120.943 102.994C121.701 102.959 122.462 102.999 123.221 102.982C123.639 102.973 123.836 103.104 123.845 103.56C123.867 104.586 123.873 104.601 122.851 104.604C122.112 104.606 121.372 104.615 120.632 104.602C120.25 104.596 120.08 104.747 120.101 105.134C120.118 105.433 120.131 105.736 120.099 106.032C120.034 106.623 120.242 106.835 120.865 106.825C122.964 106.788 125.063 106.808 127.162 106.815C127.407 106.816 127.741 106.704 127.86 107.005C128 107.358 128.005 107.765 127.853 108.116C127.728 108.407 127.397 108.302 127.15 108.303C123.792 108.309 120.433 108.307 117.075 108.307C116.535 108.307 115.995 108.297 115.455 108.307C115.063 108.314 114.87 108.171 114.872 107.748C114.881 105.192 114.883 102.636 114.871 100.08C114.868 99.6004 115.12 99.5208 115.514 99.5223C117.473 99.5291 119.433 99.5255 121.392 99.5251Z" fill="#9AD689"/>
<path d="M80.1882 99.522C82.1088 99.522 84.0298 99.5364 85.95 99.513C86.5141 99.5062 86.7287 99.6934 86.7258 100.271C86.719 101.588 86.7424 101.589 85.4341 101.589C83.5333 101.59 81.6325 101.602 79.7321 101.581C79.2465 101.576 79.0549 101.717 79.0675 102.226C79.0967 103.424 79.1003 104.624 79.0665 105.822C79.051 106.369 79.2681 106.501 79.7721 106.495C81.7125 106.474 83.6532 106.482 85.594 106.492C85.8726 106.493 86.2816 106.372 86.3543 106.769C86.4385 107.229 86.5055 107.727 86.2877 108.175C86.2071 108.341 85.9651 108.303 85.7869 108.303C81.9655 108.305 78.1441 108.3 74.3231 108.31C73.876 108.311 73.7273 108.128 73.7287 107.702C73.7377 105.183 73.7381 102.665 73.7266 100.147C73.7244 99.6851 73.8997 99.5126 74.3663 99.5166C76.3067 99.5332 78.2475 99.5234 80.1882 99.5234C80.1882 99.5234 80.1882 99.5227 80.1882 99.522Z" fill="#9AD689"/>
<path d="M148.262 99.8912C150.182 99.8908 152.101 99.8876 154.021 99.8926C154.736 99.8944 154.768 99.9668 154.8 100.696C154.825 101.268 154.607 101.471 154.036 101.464C151.936 101.442 149.836 101.481 147.737 101.442C147.06 101.429 147.014 101.746 147.002 102.279C146.989 102.832 147.167 103.024 147.722 102.995C148.48 102.955 149.241 103.001 150.001 102.981C150.445 102.969 150.589 103.159 150.602 103.586C150.638 104.821 150.651 104.821 149.415 104.821C148.855 104.821 148.294 104.84 147.736 104.813C147.259 104.79 147.096 104.998 147.105 105.45C147.122 106.229 147.09 107.008 147.114 107.787C147.13 108.277 146.948 108.46 146.451 108.452C145.092 108.428 143.731 108.429 142.372 108.451C141.88 108.459 141.687 108.272 141.689 107.789C141.698 105.372 141.7 102.955 141.687 100.538C141.684 100.033 141.913 99.8833 142.383 99.8865C144.343 99.8988 146.303 99.8912 148.262 99.8912Z" fill="#9AD689"/>
<path d="M89.724 122.393C89.6553 122.749 89.8846 123.208 89.4907 123.485C89.1444 123.728 88.7383 123.888 88.3474 123.532C88.0587 123.269 88.0072 122.595 88.2621 122.264C88.4925 121.965 88.7661 121.703 89.0958 121.509C89.2423 121.423 89.3716 121.239 89.5707 121.352C89.7568 121.458 89.7085 121.666 89.7208 121.837C89.7341 122.015 89.724 122.194 89.724 122.393Z" fill="#9AD689"/>
</g>
<defs>
<clipPath id="clip0_68_644">
<rect width="180" height="180" fill="white" transform="translate(34 34)"/>
</clipPath>
</defs>
</svg>
