<svg width="248" height="248" viewBox="0 0 248 248" fill="none" xmlns="http://www.w3.org/2000/svg">
<rect width="248" height="248" rx="16" fill="white" fill-opacity="0.1"/>
<g clip-path="url(#clip0_68_546)">
<path d="M162.267 69.0937C162.267 69.0937 162.751 68.6094 163.236 68.6094C163.72 68.6094 163.72 69.0938 163.72 69.5781C163.72 71.5156 163.72 73.4531 163.236 75.3906C162.751 76.3594 162.751 77.3281 161.783 77.8125C161.298 78.7812 160.33 79.2656 159.845 79.75C158.392 81.2031 157.423 82.6563 156.939 84.5938C156.939 85.0781 156.455 85.5625 156.455 85.5625C155.97 85.5625 155.486 85.5625 155.486 86.0469C154.517 86.0469 153.548 86.0469 153.064 86.0469C152.58 86.0469 152.095 86.0469 151.611 86.5312L151.126 87.0156C150.642 87.0156 150.158 86.5312 149.673 86.5312C148.705 86.0469 147.251 86.0469 146.283 86.5312C145.798 86.5312 145.314 87.0156 144.83 87.5C144.345 87.5 144.345 87.5 143.861 87.5C142.408 87.0156 141.439 86.0469 139.501 86.0469C138.048 86.0469 137.08 86.5312 135.626 87.5C135.142 87.9844 134.173 88.4688 133.689 89.4375C133.205 89.9219 133.205 90.4062 133.205 91.375C132.72 93.3125 133.205 94.7656 134.173 96.7031C134.658 97.1875 134.658 98.1563 135.626 98.1563C136.595 98.6406 137.564 98.1563 138.533 98.1563C139.017 98.1563 139.986 98.6406 140.47 99.125C140.955 99.125 140.955 99.6094 141.439 99.6094C142.408 99.125 142.892 98.6406 143.861 98.1563C144.345 98.1563 144.83 98.1562 144.83 97.6719C144.83 96.7031 144.83 95.7344 144.83 95.25C144.83 94.7656 145.314 94.2812 145.798 94.7656C146.283 94.7656 146.767 95.25 146.767 95.25C147.251 95.25 147.251 95.7344 147.251 96.2188C147.251 97.1875 146.767 97.6719 146.767 98.6406C146.767 99.125 147.251 99.125 147.251 99.6094C147.736 100.578 147.736 101.547 148.705 102.031C149.189 102.516 149.673 103 150.642 102.516C151.611 102.031 152.58 101.547 153.064 100.578C153.064 100.094 153.064 99.125 153.548 98.6406C154.033 98.6406 154.517 99.125 155.001 99.125C155.97 99.6094 156.939 99.125 157.908 99.125C158.392 99.125 158.876 99.125 159.845 99.125C160.33 99.125 160.33 99.6094 160.814 99.6094C161.298 100.094 161.783 100.578 162.267 101.062C162.751 101.062 163.72 101.062 164.205 100.578C164.689 100.578 165.173 100.578 165.658 100.094C166.142 99.125 165.658 98.1562 166.142 97.1875C166.142 96.7031 166.626 96.7031 167.111 96.2188C167.111 95.7344 167.111 95.25 167.111 94.7656C167.111 93.7969 167.111 93.3125 167.595 92.3438C168.08 92.3438 168.08 92.3438 168.564 92.3438C169.533 92.3438 170.017 92.3438 170.986 92.8281H171.47C172.439 91.8594 173.892 90.8906 174.861 89.9219L175.345 89.4375C175.345 89.9219 175.345 90.4062 175.345 90.8906C175.345 91.375 175.345 91.8594 174.861 92.3438C174.376 92.8281 174.376 93.3125 174.376 93.7969C174.376 94.2812 174.376 94.7656 174.376 95.25C173.892 95.25 173.408 95.25 172.439 95.7344C170.986 96.2188 169.533 97.1875 168.564 98.6406C168.08 99.125 168.564 99.6094 169.048 100.094C169.533 100.578 170.017 100.578 170.501 100.578C170.986 101.547 170.501 102.516 169.533 103C168.564 103.484 167.595 103.484 167.111 103.484C165.658 103.969 164.205 105.422 163.72 106.875C163.236 107.844 163.236 109.297 163.72 110.75C164.205 112.203 165.173 112.688 166.142 113.656C166.626 114.625 167.595 115.109 168.08 116.078C168.08 116.562 168.08 117.047 167.595 117.047C166.626 117.531 166.142 117.531 165.173 118.016C164.689 118.016 164.689 118.5 165.173 118.984C165.173 119.469 165.173 119.953 165.658 120.438C166.142 120.922 166.626 120.438 167.111 120.438C167.111 120.438 167.111 120.922 167.595 120.922C167.595 121.406 167.595 121.891 167.595 122.859C167.595 123.344 167.111 123.828 167.111 124.312C166.626 125.281 166.142 126.734 166.142 127.703C166.142 128.188 166.142 128.188 166.142 128.672C165.658 128.672 164.689 129.156 164.689 129.641C164.205 130.125 164.205 131.094 164.205 132.062C163.72 132.062 163.236 132.062 163.236 132.547C162.751 133.516 163.236 134.484 163.236 135.453C163.236 135.938 163.236 135.938 163.72 135.938C163.72 135.938 164.205 135.938 164.205 136.422C164.205 137.391 164.205 138.359 164.689 139.812C165.173 140.781 166.142 141.75 167.111 142.719C167.595 143.203 168.08 143.203 168.564 143.203C170.017 143.203 171.47 143.203 172.923 142.719C174.376 142.234 175.345 141.266 175.83 140.297C176.798 138.844 177.283 136.906 177.767 134.969C177.767 134.484 177.767 134 178.251 134C178.251 134 178.736 134 178.736 134.484C178.736 136.422 179.22 137.875 179.705 139.812C179.705 140.297 180.189 140.781 180.673 141.266C180.673 141.75 180.673 142.234 180.673 142.234C180.673 142.719 180.673 143.203 180.673 143.203C180.189 143.688 180.189 143.688 179.705 143.688C178.251 144.172 176.798 145.141 175.83 146.109C174.861 146.594 174.376 147.562 173.408 148.047C172.923 148.531 171.955 149.016 171.47 149.5C170.501 149.984 169.533 150.953 169.048 151.922C168.564 152.891 168.564 153.859 168.08 154.344C167.595 154.828 167.111 155.312 166.626 155.797C166.142 156.281 165.173 156.281 164.689 156.281C164.205 156.281 163.236 156.281 162.751 156.281C161.783 156.766 161.298 157.25 160.814 158.219C157.908 160.156 157.908 161.125 157.908 162.094C157.908 162.578 157.423 163.547 157.908 164.031C158.392 165.484 158.392 166.938 158.392 168.391C158.392 168.875 157.908 168.875 157.908 168.875C155.97 169.359 154.517 169.844 152.58 170.328C150.642 170.812 149.189 172.266 147.736 173.719C146.283 175.656 144.83 178.078 144.345 180.5C144.345 180.984 144.345 181.469 143.861 182.438H143.376C141.923 182.438 140.955 181.469 139.501 180.984C139.017 180.984 138.533 181.469 138.048 180.984C137.564 180.5 137.564 180.016 137.08 179.531C136.111 177.594 134.173 176.625 132.236 175.656C131.751 175.172 130.783 175.172 130.298 175.172C129.814 175.172 129.33 175.172 128.845 175.656C128.361 176.141 126.423 176.625 125.939 177.594C124.97 178.562 124.97 179.531 124.001 180.984C123.517 181.469 123.033 181.953 122.548 181.953C121.095 181.953 120.126 181.953 119.158 180.984C118.189 180.5 116.736 179.531 115.767 179.047C115.283 178.562 114.798 178.562 113.83 178.562C112.861 178.562 111.892 179.047 110.923 179.531C109.955 180.016 108.986 180.5 108.017 180.984C107.533 181.469 106.564 181.469 106.08 181.469C105.595 181.469 105.595 181.469 105.111 181.469C104.626 181.469 104.626 180.984 104.626 180.5C104.626 180.016 104.626 178.562 104.142 178.078C104.142 177.594 103.658 177.109 103.658 176.625C103.173 176.141 102.689 175.172 101.72 174.688C99.2983 172.75 96.392 171.781 93.4858 170.812C90.5795 170.328 88.1577 169.844 85.2514 169.844C84.767 169.844 83.7983 169.844 83.3139 169.359C82.8295 168.875 82.8295 168.391 82.8295 167.906C82.8295 167.906 83.3139 167.906 83.7983 167.422C84.767 167.422 85.7358 166.938 86.2202 165.969C86.7045 165 87.1889 163.547 86.7045 162.094C86.7045 160.156 85.7358 158.703 84.767 157.25C83.7983 156.281 82.8295 154.828 81.3764 154.828C80.892 154.828 80.4077 154.828 79.4389 154.828C78.9545 154.828 78.9545 154.344 78.4702 154.344C76.5327 152.406 75.0795 150.469 73.6264 148.047C73.142 147.078 72.6577 146.109 73.142 145.141C73.6264 145.141 74.1108 145.141 74.5952 145.141C76.5327 145.141 78.4702 144.656 79.9233 143.688C81.3764 142.719 82.3452 141.266 82.8295 139.812C83.7983 137.391 83.3139 134.484 82.8295 132.062C82.8295 131.094 82.3452 130.609 81.8608 129.641C81.8608 129.156 81.8608 129.156 81.8608 128.672C81.8608 128.188 82.3452 127.703 82.3452 127.219C82.3452 126.734 81.8608 126.25 81.3764 125.766C80.4077 125.281 79.4389 124.797 78.4702 123.828C77.9858 123.344 77.9858 122.375 77.9858 121.406C78.4702 120.922 78.4702 120.922 78.9545 120.438C80.4077 119.953 81.3764 119.469 82.3452 118.5C82.8295 118.016 83.3139 117.047 82.8295 116.078C82.3452 115.109 81.3764 114.625 80.892 114.625C79.9233 114.141 78.4702 114.141 77.5014 114.141H77.017C77.017 113.656 76.5327 113.656 76.5327 113.172C76.5327 112.203 77.017 111.234 77.017 110.266C77.017 109.781 77.017 109.781 76.5327 109.297C76.0483 108.812 75.5639 107.844 75.5639 107.359C75.5639 106.875 75.5639 106.391 76.0483 106.391C76.5327 106.391 77.017 106.875 77.017 106.875C78.4702 107.844 80.4077 109.297 82.3452 109.781C83.7983 110.266 85.2514 109.781 86.2202 108.812C87.6733 107.844 88.642 106.875 89.6108 105.422C90.5795 104.938 90.5795 104.453 91.0639 103.969C91.5483 103.969 92.517 104.938 93.0014 104.938C93.4858 105.422 94.4545 104.938 94.9389 104.453C95.4233 103.969 95.9077 103.484 95.4233 103C95.4233 103 94.9389 102.516 94.4545 102.031C93.9702 101.547 94.4545 101.062 94.4545 100.578C94.4545 99.6094 94.4545 98.6406 94.4545 97.6719C93.4858 96.7031 93.0014 95.7344 92.0327 95.25C91.5483 95.25 91.5483 94.7656 91.0639 94.2812C91.0639 93.7969 90.5795 92.8281 90.5795 92.3438C90.5795 91.8594 91.0639 91.8594 91.0639 91.8594C92.0327 91.8594 93.0014 91.8594 93.9702 91.8594C94.4545 91.8594 94.9389 91.375 95.4233 91.375C95.9077 90.8906 96.392 90.4062 96.392 89.9219C97.3608 88.4688 97.8452 87.0156 98.8139 86.0469C99.7827 84.5937 100.751 83.1406 102.205 81.6875C102.689 81.2031 103.173 81.2031 103.173 81.6875C103.658 82.1719 104.142 82.6562 104.142 83.625C104.142 84.5938 104.142 85.5625 104.626 86.5312C105.111 87.0156 105.595 87.5 106.08 87.5C107.048 87.5 107.533 87.5 108.501 87.5C108.986 87.5 109.47 88.4688 109.47 88.9531C109.47 89.4375 109.47 90.4062 108.986 90.4062C108.017 90.8906 107.048 91.375 106.564 92.3438C106.08 92.8281 106.08 93.3125 106.08 93.7969C106.08 94.2812 106.564 94.7656 107.048 95.25C108.501 96.2188 109.47 96.7031 110.923 96.7031C111.408 96.7031 111.892 97.1875 112.376 96.7031C113.345 96.7031 113.83 96.2188 114.314 95.25C115.283 94.2812 116.251 92.8281 116.736 91.375C117.22 89.9219 118.189 88.4688 118.189 86.5312C119.158 85.5625 119.642 84.5938 120.611 84.5938C121.58 84.1094 122.548 84.1094 124.001 84.5938C125.455 85.0781 126.908 85.5625 128.361 85.5625C128.845 85.5625 129.33 85.5625 129.814 85.0781C131.751 84.5938 133.205 84.1094 134.658 82.6562C135.626 81.6875 136.595 80.2344 137.08 78.7812C137.564 77.8125 138.533 76.8438 139.501 75.875C139.501 75.875 139.986 75.875 140.47 75.875C140.955 75.875 141.439 76.3594 142.408 76.8437C143.376 77.3281 144.345 77.8125 145.314 77.3281C147.251 76.8438 148.705 75.875 150.158 74.4219C150.642 73.9375 150.642 73.9375 151.126 73.4531C151.611 72.9688 152.095 73.4531 152.095 73.4531C153.064 73.9375 154.033 74.4219 155.486 73.9375C156.939 73.9375 158.392 72.9688 159.845 72C160.33 71.5156 161.298 70.0625 162.267 69.0937ZM120.611 102.516C118.189 102.516 116.251 103 113.83 103.969C110.923 104.938 108.017 106.391 105.111 107.844C99.7827 111.234 94.9389 116.078 92.0327 122.375C90.0952 126.25 89.6108 130.125 89.1264 134.484C89.1264 136.422 89.1264 138.844 89.1264 140.781C89.6108 143.203 90.0952 145.625 91.0639 148.047C93.0014 153.859 96.8764 158.703 101.72 162.578C104.142 164.516 107.048 166.453 110.439 167.422C114.798 169.359 119.158 170.328 124.001 169.844C127.876 169.359 131.267 168.875 134.658 167.422C138.048 165.969 140.955 164.516 143.861 162.094C149.189 158.219 153.064 152.406 155.001 145.625C155.97 141.75 156.455 137.391 155.97 133.516C155.486 130.125 155.001 126.734 153.548 123.344C152.58 120.438 151.126 117.531 149.189 115.109C147.251 112.688 144.83 110.266 142.408 108.812C139.017 106.391 135.142 104.938 131.267 103.484C128.361 103 124.486 102.516 120.611 102.516Z" fill="#4A7FE8"/>
<path d="M111.893 115.594C112.377 115.594 112.861 115.594 113.346 115.594C114.314 115.594 115.283 115.594 116.736 115.594C116.736 115.594 117.221 115.594 117.221 116.078C117.221 116.562 116.736 116.562 116.736 117.047C116.736 117.531 115.768 118.015 115.283 118.5C115.283 119.469 114.799 119.953 114.799 120.922C114.314 122.859 114.314 124.312 113.83 126.25C113.346 128.672 112.861 131.094 112.377 133.515C111.893 134.484 111.893 135.453 112.377 136.422C112.377 136.906 112.377 137.39 112.861 137.875C112.861 138.844 113.346 139.812 113.346 140.781C113.83 142.234 113.83 143.203 113.83 144.656C114.314 147.078 114.799 149.5 115.283 152.406C115.283 152.89 115.283 153.859 115.768 154.344C116.252 154.828 116.252 155.797 117.221 155.797L117.705 156.281C117.705 156.765 117.221 156.765 117.221 156.765C115.283 156.765 113.346 156.765 111.408 156.765C110.924 156.765 110.924 156.281 110.924 156.281C111.408 155.797 111.893 155.797 111.893 155.312C112.377 154.344 112.377 153.375 112.377 152.406C111.893 150.469 111.408 149.015 111.408 147.078C111.408 146.594 111.408 145.625 110.924 145.14C110.924 145.14 110.924 145.14 110.439 145.14C109.955 147.078 109.471 149.015 108.986 151.437C108.986 152.406 108.502 152.89 108.502 153.859C108.502 154.344 108.502 154.828 108.502 155.312C108.502 155.797 108.986 155.797 109.471 156.281V156.765C108.986 156.765 108.018 156.765 107.533 156.765C106.564 156.765 105.596 156.765 104.627 156.765V156.281C105.111 155.797 105.596 155.797 105.596 155.312C106.08 154.828 106.08 154.344 106.08 153.375C106.564 150.953 107.049 148.047 107.533 145.625C107.533 144.656 108.018 143.687 108.018 142.719C108.502 140.781 108.502 138.844 108.986 137.39C108.986 136.422 108.986 135.453 108.986 134.969C108.986 133.515 108.502 132.062 108.018 130.125C107.533 127.703 107.049 124.797 106.564 122.375C106.08 120.922 106.08 119.469 105.596 118.5C105.596 118.015 105.111 117.531 104.627 117.047C104.143 117.047 104.143 116.562 104.143 116.078C104.143 115.594 104.627 115.594 105.111 115.594C107.049 115.594 108.502 115.594 110.439 115.594C110.924 115.594 110.924 115.594 111.408 116.078C111.408 116.562 110.924 116.562 110.439 117.047C109.955 117.531 109.471 118.015 109.471 118.5C109.471 119.469 109.955 120.437 109.955 121.406C109.955 122.375 110.439 123.828 110.439 124.797C110.439 125.281 110.439 125.765 110.924 126.25C110.924 126.25 110.924 126.25 111.408 126.25V125.765C111.893 123.344 112.377 121.406 112.861 118.984C112.861 118.5 113.346 117.531 112.861 117.047C111.893 116.562 111.408 116.078 111.893 115.594Z" fill="#4A7FE8"/>
<path d="M118.19 115.594C118.674 115.594 118.674 115.594 119.159 115.594C120.612 115.594 122.065 115.594 124.002 115.594C124.487 115.594 124.487 115.594 124.487 116.078C124.487 116.562 124.002 116.562 123.518 117.047C123.034 117.531 123.034 118.015 123.034 118.5C123.034 130.609 123.034 142.719 123.034 154.344C123.034 154.828 123.034 154.828 123.518 155.312C124.002 155.797 124.002 155.797 124.487 156.281V156.765C124.487 156.765 124.002 156.765 123.518 156.765C122.065 156.765 120.127 156.765 118.674 156.765H118.19V156.281C118.674 155.797 119.159 155.797 119.159 155.312C119.643 154.828 119.643 153.859 119.643 152.89C119.643 141.75 119.643 130.125 119.643 118.984C119.643 118.5 119.643 118.015 119.159 117.047C119.159 116.562 118.674 116.078 118.19 115.594C118.19 116.078 117.706 116.078 118.19 115.594Z" fill="#4A7FE8"/>
<path d="M125.453 115.594C125.453 115.594 125.938 115.594 126.422 115.594C127.875 115.594 129.328 115.594 130.297 115.594C130.781 115.594 131.266 115.594 131.266 115.594V116.078C130.781 116.562 130.781 116.562 130.297 117.047C129.812 117.531 130.297 118.5 130.297 118.984C130.297 119.953 130.781 120.922 130.781 121.891C130.781 122.859 131.266 123.828 131.266 124.797C131.75 126.25 131.75 127.219 131.75 128.672C131.75 129.641 132.234 131.094 132.234 132.062C132.234 132.547 132.719 133.516 132.719 134C132.719 134.969 133.203 135.938 133.203 136.906C133.203 137.875 133.688 138.359 133.688 139.328C133.688 140.297 133.688 140.781 134.172 141.75C134.172 142.234 134.172 142.719 134.656 142.719V142.234C134.656 141.266 135.141 140.781 135.141 139.813C135.141 138.844 135.625 138.359 135.625 137.391C135.625 136.422 136.109 135.453 136.109 134.484C136.594 133.031 136.594 131.578 136.594 130.125C136.594 129.156 137.078 127.703 137.078 126.734C137.078 125.766 137.562 125.281 137.562 124.312C137.562 123.828 137.562 123.344 137.562 122.859C137.562 121.891 137.562 121.406 138.047 120.437C138.047 119.469 138.531 118.5 138.047 117.047C138.047 116.562 137.563 116.078 137.078 115.594C137.078 115.109 137.562 115.109 137.562 115.109C139.016 115.109 139.984 115.109 141.438 115.109C141.922 115.109 142.406 115.109 142.406 115.594C142.406 116.078 141.438 116.078 141.438 116.562C140.953 117.047 140.953 118.016 140.953 118.5C140.469 119.953 140.469 121.406 140.469 122.859C140.469 123.828 140.469 124.797 139.984 125.766C139.984 127.219 139.5 128.187 139.5 129.156C139.5 130.125 139.016 131.094 139.016 132.062C139.016 133.031 138.531 134 138.531 134.969C138.531 135.938 138.047 136.906 138.047 137.875C138.047 138.844 137.562 139.812 137.562 140.781C137.562 142.234 137.078 143.203 137.078 144.656C137.078 145.141 137.078 146.109 136.594 146.594C136.594 148.047 136.109 149.5 136.109 150.953C136.109 151.922 135.625 153.375 135.625 154.344C135.625 154.828 135.625 154.828 135.625 155.312C135.625 155.797 136.109 155.797 136.594 156.281C136.594 156.766 136.594 156.766 136.109 156.766C134.172 156.766 132.234 156.766 130.297 156.766C129.812 156.766 129.813 156.766 129.328 156.766V156.281C129.813 155.797 129.812 155.797 130.297 155.312C130.781 154.828 130.297 154.344 130.297 153.859C130.297 153.375 130.297 152.406 130.297 151.922C130.297 150.953 130.297 149.984 129.813 149.016C129.813 148.531 129.813 147.562 129.328 147.078C129.328 145.625 128.844 144.656 128.844 143.203C128.844 142.234 128.844 141.266 128.359 140.297C128.359 138.844 127.875 137.875 127.875 136.422C127.875 134.969 127.391 134 127.391 132.547C127.391 131.578 126.906 130.609 126.906 129.156C126.906 128.187 126.422 127.219 126.422 126.25C126.422 124.797 125.937 123.344 125.937 122.375C125.937 121.406 125.937 120.437 125.453 119.469C125.453 118.5 125.453 118.016 124.969 117.047C124.969 116.562 124.484 116.078 124 116.078C125.453 116.078 125.453 116.078 125.453 115.594Z" fill="#4A7FE8"/>
</g>
<defs>
<clipPath id="clip0_68_546">
<rect width="155" height="155" fill="white" transform="translate(46.5 46.5)"/>
</clipPath>
</defs>
</svg>
