<svg width="248" height="248" viewBox="0 0 248 248" fill="none" xmlns="http://www.w3.org/2000/svg">
<rect width="248" height="248" rx="16" fill="white" fill-opacity="0.1"/>
<path d="M100.978 173.376C100.978 168.585 100.978 164.272 100.978 159.959C91.8737 160.918 83.7275 162.355 74.623 163.314C74.623 162.355 74.623 161.876 74.623 160.918C75.5814 146.542 76.0606 132.646 76.5398 118.75C76.5398 114.437 77.019 110.124 77.019 105.812C76.5398 100.061 75.5814 93.832 75.1022 88.0818C75.1022 87.1235 75.1022 85.6859 75.1022 84.2484C83.7275 84.2484 92.3528 84.2484 101.457 84.2484C101.457 80.8941 101.457 78.4981 101.457 75.623C116.312 75.623 131.167 75.623 146.021 75.623C146.021 78.4981 145.542 81.3732 145.542 84.2484C154.647 84.2484 163.272 84.2484 172.376 84.2484C171.897 88.0818 171.897 91.9153 170.939 95.2696C169.501 103.416 169.981 111.562 170.46 119.708C170.939 129.771 171.418 139.834 171.897 150.376C171.897 153.251 172.376 155.647 172.376 158.522C158.001 157.563 143.625 157.084 129.25 156.126C129.25 159.959 129.25 163.793 129.25 168.105C119.666 170.022 110.562 171.46 100.978 173.376ZM124.937 98.6239C129.729 98.6239 134.521 98.6239 139.313 98.6239C139.792 91.9153 140.271 85.6859 141.23 79.4565C128.771 79.4565 117.27 79.4565 105.291 79.4565C105.291 109.166 105.291 138.396 105.291 168.105C111.999 167.147 118.229 165.71 124.937 164.751C124.937 163.793 124.937 162.834 124.937 162.355C124.937 153.73 124.937 145.105 124.458 136.479C124.458 135.042 124.458 133.604 124.937 132.167C129.25 132.167 133.083 132.167 137.396 132.167C137.396 125.937 137.396 119.708 137.396 113.479C133.563 112.999 129.25 113.958 125.416 112.999C124.937 108.208 124.937 103.416 124.937 98.6239Z" fill="#F6FF1A"/>
</svg>
