<svg width="248" height="248" viewBox="0 0 248 248" fill="none" xmlns="http://www.w3.org/2000/svg">
<rect width="248" height="248" rx="16" fill="white" fill-opacity="0.1"/>
<g clip-path="url(#clip0_68_607)">
<path d="M112.855 88.6406C116.73 82.8281 120.121 76.5313 123.996 70.7188C127.871 76.5313 131.262 82.8281 135.137 88.6406C127.871 86.2188 120.121 86.7031 112.855 88.6406Z" fill="#CFD3E2"/>
<path d="M91.0664 88.1567C96.3945 90.0942 101.238 91.5474 106.566 93.4849C111.895 90.0942 118.191 88.6411 124.488 88.6411C130.301 88.6411 136.598 90.5786 141.926 93.4849C147.254 91.5474 152.098 90.0942 157.426 88.1567C155.488 93.0005 154.035 97.8442 152.098 102.204C155.973 107.532 158.395 113.829 159.363 120.125C160.332 128.844 157.426 138.047 152.098 144.829C154.035 149.672 155.488 154.516 157.426 158.875C152.098 156.938 147.254 155.485 141.926 153.547C132.723 158.875 121.582 159.844 111.41 155.969C109.473 155.485 108.02 154.516 106.566 153.547C101.238 155.485 96.3945 156.938 91.0664 158.875C93.0039 154.032 94.457 149.188 96.3945 144.829C91.5508 139.016 89.1289 131.266 89.1289 123.516C89.1289 115.766 91.5508 108.016 96.3945 102.204C94.457 97.8442 92.5195 93.0005 91.0664 88.1567ZM120.129 93.9692C116.738 94.4536 113.348 95.4224 109.957 96.8755C104.629 99.7817 99.7852 104.625 96.8789 110.438C94.457 115.282 93.0039 121.094 93.4883 126.907C93.9727 133.204 96.3945 139.016 100.754 143.86C105.113 148.704 110.926 152.094 117.223 153.547C122.551 155 127.879 154.516 133.207 153.063C139.02 151.125 143.863 147.735 147.738 142.891C151.613 138.532 153.551 132.719 154.035 126.907C154.52 121.094 153.551 115.282 151.129 109.954C148.223 104.625 143.379 99.7817 137.566 96.8755C132.238 93.9692 125.941 93.0005 120.129 93.9692Z" fill="#CFD3E2"/>
<path d="M120.12 96.3911C125.933 95.4224 131.745 96.3911 137.073 99.2974C142.886 102.204 147.245 107.047 149.667 113.344C152.089 119.157 152.573 125.454 150.636 131.266C149.183 137.079 145.792 142.407 140.948 145.797C136.105 149.672 130.292 151.61 123.995 151.61C118.183 151.61 112.37 149.672 107.527 146.282C102.198 142.407 98.8078 137.079 96.8703 130.782C95.4172 124.969 95.9016 118.672 97.8391 112.86C100.261 107.047 104.62 101.719 110.433 98.813C113.823 97.8442 117.214 96.8755 120.12 96.3911ZM119.636 101.719C117.214 102.688 115.277 104.141 113.339 105.594C112.37 106.079 111.886 107.047 111.402 108.016C110.433 109.469 108.98 110.438 108.011 110.922C107.527 111.407 107.042 111.407 106.073 111.891C106.073 112.375 105.589 112.86 105.589 113.344C106.558 115.766 106.073 117.704 106.073 120.125C106.073 120.61 106.073 121.094 106.558 121.579C108.495 124 110.433 126.907 112.37 129.329C112.855 129.813 113.823 130.297 114.308 130.782C115.277 131.75 116.245 132.235 117.698 132.719C119.636 132.719 121.573 132.235 123.027 131.266C123.511 131.266 123.995 131.75 124.48 131.266C125.933 130.297 127.87 129.329 128.839 127.875C129.323 126.422 128.839 124.969 128.839 124C128.839 123.516 128.355 123.032 127.87 122.063C127.386 121.094 127.386 120.125 126.902 119.641C126.417 118.672 124.964 118.188 123.511 118.188C122.542 118.188 121.089 118.188 120.605 118.672C120.12 119.157 120.12 120.125 120.605 120.61C121.089 121.094 121.573 121.579 121.089 122.063C120.605 123.032 119.636 123.516 119.152 124C118.667 124.485 117.698 124 117.698 123.516C116.245 122.063 115.761 120.61 115.761 118.672C115.277 117.219 115.277 115.282 116.73 113.829C118.183 112.375 119.636 111.407 121.573 110.438C123.027 109.954 124.48 109.469 125.933 109.469C127.386 109.469 128.839 108.985 129.808 109.469C130.292 109.469 130.777 108.985 131.261 108.985C131.745 108.985 131.745 109.469 131.745 109.954C134.167 111.891 135.62 114.313 135.62 117.219C135.62 119.157 135.62 121.094 135.62 123.032C135.62 124 136.105 124.969 136.105 125.938C136.105 126.907 135.136 126.907 134.652 127.391C134.652 127.875 134.652 128.36 134.167 128.844C134.167 129.329 133.683 129.813 133.198 129.813C131.745 130.782 130.292 132.235 129.323 133.204C126.417 135.141 123.511 135.625 120.605 136.594C119.636 137.563 118.667 138.047 117.214 138.532C114.792 139.5 111.886 140.469 109.464 140.954C109.948 141.438 110.433 141.922 110.917 142.407C114.308 143.375 117.698 144.344 121.089 145.797C122.542 145.313 123.995 144.829 125.448 144.344C127.386 144.344 128.839 144.344 130.777 143.86C133.198 142.891 135.62 142.407 137.558 140.954C138.527 140.469 138.042 139.016 138.527 138.532C139.011 138.047 139.495 138.047 139.98 138.047C140.948 137.563 141.433 136.594 141.917 136.11C142.886 134.172 144.339 131.75 145.308 129.813C145.792 128.844 145.792 128.36 145.792 127.391C145.792 125.938 145.792 124.485 145.792 123.032C145.792 122.547 146.277 122.063 146.277 121.579C145.792 119.157 144.823 116.735 144.339 114.313C144.339 113.344 143.855 112.375 143.37 111.891C141.433 109.469 139.495 107.532 138.042 105.11C135.62 104.625 133.683 103.657 131.261 102.688C129.808 102.204 128.355 102.204 127.386 101.235C126.417 101.719 125.933 102.204 124.964 102.204C123.995 102.204 123.511 101.235 123.027 101.235C120.605 101.235 120.12 101.719 119.636 101.719Z" fill="#CFD3E2"/>
<path d="M70.7188 124C76.5313 120.125 82.8281 116.734 88.6406 112.859C86.2188 120.125 86.2188 127.875 88.6406 134.656C82.8281 131.266 76.5313 127.875 70.7188 124Z" fill="#CFD3E2"/>
<path d="M159.363 112.859C165.176 116.734 171.473 120.125 177.285 124C171.473 127.875 165.176 131.265 159.363 135.14C161.301 127.875 161.785 120.125 159.363 112.859Z" fill="#CFD3E2"/>
<path d="M112.855 159.36C120.121 161.781 127.871 161.781 134.652 159.36C130.777 165.172 127.387 171.469 123.512 177.281C120.121 171.469 116.73 165.172 112.855 159.36Z" fill="#CFD3E2"/>
</g>
<defs>
<clipPath id="clip0_68_607">
<rect width="155" height="155" fill="white" transform="translate(46.5 46.5)"/>
</clipPath>
</defs>
</svg>
