<svg width="248" height="248" viewBox="0 0 248 248" fill="none" xmlns="http://www.w3.org/2000/svg">
<rect width="248" height="248" rx="16" fill="white" fill-opacity="0.1"/>
<path fill-rule="evenodd" clip-rule="evenodd" d="M88.5733 90.5333C89.2092 90.2292 112.549 82.3879 124.139 78.5053L159.601 90.5333L157.147 125.615L168 136.986L153.76 154.717L143.944 151.088L139.485 164.983L124.139 169.683L108.62 164.983L104.092 151.088L94.3799 154.717L79.7942 136.986L90.889 125.615L88.5733 90.5333ZM104.507 140.788C109.565 140.788 113.666 136.688 113.666 131.629C113.666 126.571 109.565 122.47 104.507 122.47C99.4484 122.47 95.3477 126.571 95.3477 131.629C95.3477 136.688 99.4484 140.788 104.507 140.788ZM152.584 131.629C152.584 136.688 148.484 140.788 143.425 140.788C138.367 140.788 134.266 136.688 134.266 131.629C134.266 126.571 138.367 122.47 143.425 122.47C148.484 122.47 152.584 126.571 152.584 131.629ZM125.56 142.507C124.847 141.233 123.015 141.233 122.303 142.507L118.803 148.759C118.318 149.625 118.627 150.72 119.494 151.205C120.36 151.69 121.455 151.381 121.94 150.514L123.931 146.956L125.923 150.514C126.408 151.381 127.503 151.69 128.369 151.205C129.236 150.72 129.545 149.625 129.06 148.759L125.56 142.507Z" fill="#26B5BA"/>
</svg>
