<svg width="248" height="248" viewBox="0 0 248 248" fill="none" xmlns="http://www.w3.org/2000/svg">
<rect width="248" height="248" rx="16" fill="white" fill-opacity="0.1"/>
<path d="M141.331 105.275C155.136 97.7909 168.72 89.912 182.417 82.2415C170.703 92.6627 158.754 102.837 147.144 113.379C144.376 112.381 141.908 114.23 139.743 115.692C138.073 116.924 136.324 118.061 134.801 119.479C135.075 119.327 135.613 119.028 135.882 118.881C137.422 122.351 137.491 126.464 135.764 129.883C133.131 135.627 125.807 138.543 119.933 136.239C114.297 134.313 110.64 128.048 111.746 122.191C112.544 117.071 116.788 112.746 121.885 111.839C125.799 111.058 130.081 112.238 132.97 115.002C132.836 115.197 132.567 115.592 132.432 115.787C135.344 113.987 137.751 111.54 140.298 109.279C141.365 108.247 141.344 106.65 141.331 105.275ZM156.36 100.758C156.472 100.654 156.472 100.654 156.36 100.758V100.758ZM154.377 101.648C151.427 103.336 148.42 104.919 145.47 106.602C144.277 107.14 144.173 108.568 143.799 109.652C144.906 109.613 146.246 110.086 147.131 109.18C150.19 106.36 153.496 103.769 156.36 100.758C155.635 100.906 155.01 101.296 154.377 101.648ZM117.282 126.009C118.271 130.278 123.547 132.677 127.439 130.673C130.267 129.367 132.051 126.091 131.456 123.002C131.283 122.477 131.443 122.095 131.938 121.857C131.239 122.004 130.523 122.039 129.812 122.043C129.257 121.21 128.68 120.386 128.107 119.566C128.306 119.058 128.506 118.56 128.723 118.065C126.905 117.683 125.157 116.559 123.213 117.067C119.117 117.583 116.08 122.009 117.282 126.009Z" fill="#B8B6EC"/>
<path d="M105.915 87.5082C114.714 83.1479 125.109 82.1631 134.572 84.7705C141.617 86.6665 148.117 90.4974 153.214 95.708C150.017 96.9619 146.811 98.1984 143.609 99.4435C137.27 93.9509 128.563 91.7556 120.311 92.6927C121.231 96.0638 122.202 99.4175 123.148 102.784C126.823 102.615 130.454 103.461 133.795 104.945C133.691 105.14 133.478 105.535 133.374 105.73C131.973 105.348 130.511 105.24 129.161 104.658C127.144 104.359 125.096 104.225 123.087 103.843C124.949 104.776 127.166 104.177 129.066 104.993C130.094 105.452 131.227 105.439 132.29 105.739C132.237 106.541 131.3 106.763 130.693 107.049C128.133 107.899 125.469 106.875 122.857 107.201C117.764 107.574 112.927 110.381 110.098 114.637C106.419 119.861 106.197 127.176 109.412 132.677C109.304 132.872 109.091 133.263 108.987 133.458C109.482 133.059 109.985 132.664 110.493 132.273C110.844 132.408 111.547 132.681 111.898 132.816C111.976 133.393 112.054 133.97 112.128 134.551C111.625 134.851 111.117 135.141 110.592 135.402C111.43 135.271 111.894 135.987 112.441 136.473C116.15 140.135 121.643 141.84 126.784 141.037C133.305 140.157 139.023 135.107 140.698 128.742C141.418 125.805 142.876 122.893 145.5 121.227C145.9 124.464 145.626 127.77 144.637 130.876C147.635 132.608 150.551 134.486 153.592 136.13C153.809 136.083 154.243 135.987 154.46 135.94C154.442 135.159 153.483 135.024 153.054 134.508C152.507 134.087 152.841 133.362 152.915 132.816C154.338 126.837 154.208 120.542 152.807 114.576C155.427 111.739 157.822 108.702 160.534 105.951C164.933 114.655 166.057 124.933 163.683 134.391C163.627 135.627 162.143 135.436 161.301 135.749C161.857 136.135 162.425 136.495 162.998 136.859C159.831 146.777 152.802 155.394 143.674 160.405C134.776 165.385 123.981 166.782 114.098 164.314C106.093 162.374 98.7698 157.893 93.2902 151.762C96.5094 150.482 99.733 149.198 102.957 147.923C109.647 154.37 119.43 156.713 128.485 155.532C127.673 152.157 126.632 148.847 125.769 145.484C119.096 146.092 112.358 143.163 107.972 138.157C108.206 137.905 108.679 137.397 108.918 137.146C111.872 140.482 115.833 142.977 120.237 143.836C122.024 144.265 123.903 144.057 125.673 144.595C125.313 143.549 124.051 144.035 123.218 143.853C117.734 143.667 112.536 140.972 108.918 136.903C107.317 138.495 106.171 140.656 106.466 142.977C92.6871 150.452 79.1118 158.3 65.4453 165.988C65.8098 165.594 66.1915 165.216 66.5907 164.86C78.0098 154.912 89.4549 144.994 100.683 134.833C102.731 135.857 105.065 135.471 107.078 134.577C107.221 133.64 106.414 133.059 106.08 132.282C104.054 127.822 103.911 122.642 105.382 117.995C102.132 116.151 98.8783 114.325 95.62 112.507C93.2555 119.657 93.1297 127.514 95.1167 134.768C92.596 137.679 90.1795 140.682 87.572 143.51C82.5132 133.831 81.4459 122.108 84.9211 111.73C85.0686 111.023 85.8322 110.897 86.3919 110.654C87.2249 110.437 87.7976 109.769 88.4353 109.24C87.7325 108.802 87.0644 108.312 86.4179 107.8C90.2923 99.0401 97.3034 91.7079 105.915 87.5082ZM99.8197 104.385C99.2514 105.296 98.4531 106.003 97.5897 106.62C97.7806 108.607 96.2621 110.255 95.7502 112.125C99.3859 113.058 103 114.091 106.653 114.958C109.508 109.995 114.319 106.108 119.985 104.927C120.076 100.871 119.959 96.7927 120.011 92.7274C112.076 93.6819 104.466 97.8166 99.8197 104.385ZM142.043 133.219C139.283 138.339 134.316 142.144 128.641 143.432C128.671 147.445 128.745 151.454 128.758 155.467C132.693 154.834 136.52 153.472 139.917 151.38C145.019 148.27 148.945 143.424 151.236 137.931C151.488 137.141 152.191 136.677 152.794 136.174C149.171 135.349 145.626 134.208 142.043 133.219ZM95.7024 141.944C93.3813 144.109 90.891 146.066 88.6826 148.348C87.5459 149.485 85.6413 150.365 85.2248 151.927C86.5307 151.61 88.0579 151.111 88.9733 150.005C89.2944 149.754 89.6762 149.558 90.1187 149.419C94.7653 147.029 99.4163 144.578 103.785 141.714C100.011 143.849 96.1103 145.762 92.4138 148.022C92.1795 147.801 91.9409 147.58 91.7066 147.363C95.2903 145.762 98.6136 143.614 102.093 141.792C103.416 141.28 103.642 139.792 103.998 138.599C103.182 138.569 102.362 138.482 101.542 138.547C99.9586 139.324 98.8869 140.855 97.5073 141.909L97.234 141.189C98.5572 140.096 99.7113 138.807 101.169 137.888C98.7915 138.261 97.6852 140.816 95.7024 141.944Z" fill="#B8B6EC"/>
<path d="M114.15 105.309C115.824 104.389 117.664 103.86 119.447 103.214C119.681 103.53 119.781 103.886 119.746 104.272C119.2 104.901 118.315 104.945 117.586 105.24C112.852 106.789 108.965 110.29 106.427 114.516C106.088 114.516 105.412 114.52 105.073 114.52C107.134 110.663 110.245 107.327 114.15 105.309Z" fill="#B8B6EC"/>
<path d="M105.685 134.89C102.57 129.627 101.945 122.989 103.976 117.227C104.214 117.466 104.687 117.939 104.926 118.178C103.442 123.254 103.924 128.881 106.47 133.54C106.93 134.161 106.492 135.011 105.685 134.89Z" fill="#B8B6EC"/>
</svg>
