<svg width="248" height="248" viewBox="0 0 248 248" fill="none" xmlns="http://www.w3.org/2000/svg">
<rect width="248" height="248" rx="16" fill="white" fill-opacity="0.1"/>
<g clip-path="url(#clip0_68_570)">
<path d="M72.1582 73.1558C74.0957 73.1558 76.0332 73.1558 77.9707 73.6401C88.1426 75.0933 98.3145 76.5464 108.971 77.9995C111.393 78.4839 113.814 78.4839 116.236 78.9683C117.205 80.9058 118.658 82.8433 119.627 84.7808C121.08 86.7183 120.596 89.6245 120.596 92.0464C120.596 118.687 120.596 145.328 120.596 171.968C120.596 173.421 120.596 174.875 119.143 175.843C118.174 167.125 115.752 158.89 115.268 150.171C114.783 139.031 113.814 128.375 112.846 117.234C112.361 114.328 112.361 110.937 111.393 108.515C110.908 107.062 109.939 105.609 109.939 104.156C110.908 100.765 112.846 97.8589 112.846 93.9839C112.846 91.0776 113.33 87.2026 109.939 85.2651C105.58 81.8745 99.2832 81.8745 93.4707 82.3589C90.5645 82.3589 87.1738 83.812 86.6895 87.2026C85.7207 92.0464 88.1426 96.8901 87.6582 101.734C85.7207 100.281 85.2363 98.3433 83.7832 96.4058C80.3926 90.1089 77.4863 83.812 74.0957 77.5151C73.127 76.062 72.6426 74.6089 72.1582 73.1558Z" fill="#E1A856"/>
<path d="M169.998 73.6401C171.451 73.1558 173.389 73.1558 175.326 73.1558C174.357 76.062 172.904 78.4839 171.451 81.3901C168.061 87.687 165.154 93.9839 161.764 99.7964C161.279 100.765 160.795 101.25 159.826 101.734C159.342 96.8901 161.764 92.0464 160.795 86.7183C160.311 83.812 156.92 81.8745 154.014 81.8745C148.201 81.3901 141.904 81.8745 136.576 84.7808C133.67 86.7183 134.154 90.5933 134.154 93.4995C134.154 96.8901 135.607 99.7964 136.576 102.703C137.545 104.64 136.092 106.578 135.607 108.031C134.639 110.453 134.639 112.39 134.154 114.812C133.186 126.921 132.217 139.031 131.248 151.625C130.279 158.89 128.826 166.156 127.857 173.421C127.857 173.906 127.857 175.359 126.889 175.359C126.404 174.39 126.404 173.421 126.404 172.453C126.404 144.359 126.404 116.265 126.404 88.6558C126.404 87.2026 126.889 85.7495 127.373 84.7808C128.826 82.8433 129.795 80.9058 131.248 79.4526C133.186 78.4839 135.607 78.9683 137.545 78.4839C148.686 76.5464 159.342 75.5776 169.998 73.6401Z" fill="#E1A856"/>
</g>
<defs>
<clipPath id="clip0_68_570">
<rect width="155" height="155" fill="white" transform="translate(46 47)"/>
</clipPath>
</defs>
</svg>
