<svg width="248" height="248" viewBox="0 0 248 248" fill="none" xmlns="http://www.w3.org/2000/svg">
<rect width="248" height="248" rx="16" fill="white" fill-opacity="0.1"/>
<g clip-path="url(#clip0_68_618)">
<path d="M103.852 82.9246C105.402 84.4746 106.564 85.6371 108.114 87.1871C111.214 90.2871 114.314 93.3871 117.414 96.4871C116.252 97.6496 114.702 99.1996 113.539 100.362C117.027 103.85 120.514 107.337 124.002 110.825C127.489 107.337 130.977 103.85 134.464 100.362C133.302 99.1996 131.752 97.6496 130.589 96.4871C131.364 95.7121 132.139 94.9371 132.914 94.1621C136.789 90.2871 140.664 86.4121 144.152 82.9246C148.802 87.9621 153.839 92.6121 158.877 97.6496C163.139 101.137 167.402 104.625 171.664 108.112C172.052 108.112 172.052 108.5 172.439 108.5C172.052 108.887 171.664 109.662 171.664 110.05C170.502 112.375 169.339 115.087 167.789 117.025C165.852 119.737 163.527 122.062 160.814 124C157.714 126.325 154.227 127.875 150.739 129.812C149.189 125.937 147.252 122.062 145.702 117.8C146.089 116.25 146.864 114.7 146.864 113.15C146.864 111.987 146.089 111.212 145.314 110.437C143.764 108.887 142.214 107.337 140.664 105.787C129.039 117.412 117.027 129.425 105.402 141.05C98.4268 148.025 91.8393 154.612 84.8643 161.587C84.8643 157.712 84.8643 154.225 84.8643 150.35C96.1018 139.112 107.727 127.487 118.964 116.25C116.639 113.537 113.927 111.212 111.602 108.887C110.439 108.112 109.664 106.95 108.502 105.787C106.952 107.337 105.402 108.887 104.239 110.05C103.464 110.825 102.689 111.6 102.689 112.762C102.689 114.312 103.464 115.862 103.852 117.412C102.302 121.287 100.364 125.162 98.8143 129.425C95.7143 127.875 92.2268 126.325 89.5143 124.387C86.0268 122.062 82.9268 119.35 80.9893 115.862C79.4393 113.537 78.2768 110.825 77.1143 108.112C77.8893 107.725 78.2768 107.337 79.0518 106.562C81.7643 103.85 85.2518 100.75 88.7393 98.0371C89.9018 97.2621 90.6768 96.0996 91.4518 95.3246C95.7143 91.0621 99.9768 86.7996 103.852 82.9246ZM94.9393 103.462C92.2268 105.787 89.1268 108.112 86.4143 110.437C88.3518 113.925 91.0643 116.637 94.5518 118.575C94.9393 117.8 95.3268 117.412 94.9393 116.637C94.1643 113.15 94.5518 108.887 97.2643 105.787C100.364 102.687 103.464 99.5871 106.564 96.4871C105.789 95.7121 105.014 94.9371 104.239 94.1621C101.139 97.2621 98.0393 100.362 94.9393 103.462ZM141.439 96.4871C144.539 99.5871 147.639 102.687 150.352 105.4C153.064 108.112 153.839 112.375 153.064 116.25C152.677 117.025 153.064 117.412 153.452 118.187C156.552 116.25 159.652 113.537 161.589 110.05C158.877 107.725 155.777 105.4 153.064 103.075C149.964 99.9746 146.864 96.8746 143.764 93.7746C142.989 94.9371 142.214 95.7121 141.439 96.4871Z" fill="#9AD689"/>
<path d="M133.686 120.513C143.761 130.588 153.836 140.663 163.911 150.738C163.911 154.613 163.911 158.1 163.911 161.975C158.098 156.163 152.286 150.35 146.473 144.538C140.661 138.725 135.236 133.3 129.423 127.488C129.036 127.1 128.648 126.713 128.261 125.938C129.811 124 131.748 122.063 133.686 120.513Z" fill="#9AD689"/>
<path d="M106.948 148.412C112.761 142.6 118.186 137.175 123.998 131.362C129.811 137.175 135.236 142.6 141.048 148.412C135.236 154.225 129.811 159.65 123.998 165.462C118.186 159.65 112.761 153.837 106.948 148.412ZM118.186 148.412C120.123 150.35 122.061 152.287 123.998 154.225C125.936 152.287 127.873 150.35 129.811 148.412C127.873 146.475 125.936 144.537 123.998 142.6C122.061 144.537 120.123 146.475 118.186 148.412Z" fill="#9AD689"/>
</g>
<defs>
<clipPath id="clip0_68_618">
<rect width="124" height="124" fill="white" transform="translate(62 62)"/>
</clipPath>
</defs>
</svg>
