<svg width="248" height="248" viewBox="0 0 248 248" fill="none" xmlns="http://www.w3.org/2000/svg">
<rect width="248" height="248" rx="16" fill="white" fill-opacity="0.1"/>
<g clip-path="url(#clip0_68_577)">
<path d="M169.029 150.172C168.061 146.781 167.576 143.39 166.607 140C166.607 139.515 166.607 138.547 166.607 137.578C169.029 128.859 169.029 120.14 166.607 111.906C166.607 111.422 166.607 110.453 166.607 109.484C167.092 106.094 168.061 102.703 169.029 99.3123C166.607 98.8279 164.186 98.8279 161.279 98.3435C161.764 93.9841 162.732 89.6248 163.217 85.2654C158.857 86.2341 154.498 86.7185 149.654 87.6873C149.17 84.781 149.17 82.3591 148.686 79.4529C144.811 80.4216 141.42 80.906 138.029 81.8748C137.545 81.8748 136.576 81.8748 135.607 81.8748C127.373 79.9373 119.139 79.4529 110.904 81.8748C110.42 81.8748 109.451 81.8748 108.967 81.8748C105.092 80.906 101.701 80.4216 97.8262 79.4529C97.3418 82.3591 97.3418 84.781 96.8574 87.6873C92.498 86.2341 88.1387 85.7498 83.7793 84.781C84.2637 89.1404 84.748 93.4998 85.7168 97.8591C83.2949 98.3435 80.3887 98.3435 77.9668 98.8279C78.9355 102.219 79.4199 105.609 80.3887 109C80.3887 109.969 80.3887 110.937 80.3887 111.422C78.4512 118.687 77.9668 126.437 79.9043 134.187C79.9043 137.094 80.873 139.515 79.9043 142.422C79.4199 144.844 78.9355 147.265 77.9668 150.172C80.3887 150.656 82.8105 150.656 85.7168 151.14C85.2324 155.5 84.2637 159.859 83.7793 164.219C88.1387 163.25 92.9824 162.765 97.3418 161.797C97.8262 164.703 97.8262 167.125 98.3105 170.031C102.186 169.062 105.576 168.578 108.967 167.609C109.936 167.609 110.42 167.609 111.389 167.609C118.17 169.547 125.436 170.031 132.701 168.094C136.092 167.125 139.482 167.125 143.357 168.094C145.295 168.578 147.232 169.062 149.654 169.547C150.139 166.64 150.139 164.219 150.623 161.312C154.982 162.281 159.342 162.765 164.186 163.734C163.701 159.375 162.732 155.015 162.248 150.656C164.186 150.656 166.607 150.172 169.029 150.172ZM167.092 148.234C165.639 148.234 164.186 148.719 162.732 148.719C163.701 146.781 164.67 145.328 165.639 143.39C166.123 144.844 166.607 146.781 167.092 148.234ZM167.092 100.765C166.607 102.703 166.123 104.156 166.123 105.609C165.154 103.672 164.186 102.219 163.217 100.281C164.186 100.281 165.154 100.281 167.092 100.765ZM161.279 86.7185C160.311 90.5935 159.826 93.9841 158.857 97.3748C155.951 94.4685 153.045 91.5623 150.139 88.656C154.014 88.1716 157.404 87.2029 161.279 86.7185ZM147.232 81.3904C147.232 82.8435 147.717 84.2966 147.717 85.7498C145.779 84.781 143.842 83.8123 142.389 82.8435C143.842 81.8748 145.295 81.3904 147.232 81.3904ZM99.7637 81.3904C101.701 81.8748 103.154 82.3591 104.607 82.3591C102.67 83.3279 101.217 84.2966 99.2793 85.2654C99.2793 83.8123 99.7637 82.8435 99.7637 81.3904ZM85.7168 86.7185C89.5918 87.2029 92.9824 88.1716 96.373 88.656C93.4668 91.5623 90.5605 94.4685 87.6543 97.3748C87.1699 93.9841 86.2012 90.5935 85.7168 86.7185ZM79.9043 100.765C81.8418 100.281 82.8105 100.281 84.2637 100.281C83.2949 102.219 82.3262 103.672 81.3574 105.609C80.873 104.156 80.3887 102.219 79.9043 100.765ZM79.9043 148.234C80.3887 146.297 80.873 144.844 80.873 143.39C81.8418 145.328 82.8105 146.781 83.7793 148.719C82.8105 148.719 81.8418 148.719 79.9043 148.234ZM85.7168 162.281C86.6855 158.406 87.1699 155.015 87.6543 151.625C90.5605 154.531 93.4668 157.437 96.373 160.344C92.9824 160.828 89.5918 161.797 85.7168 162.281ZM99.7637 167.609C99.7637 166.156 99.2793 164.703 99.2793 163.25C101.217 164.219 102.67 165.187 104.607 166.156C103.154 167.125 101.701 167.609 99.7637 167.609ZM147.232 167.609C145.295 167.125 143.842 166.64 142.389 166.64C144.326 165.672 145.779 164.703 147.717 163.734C147.717 165.187 147.232 166.156 147.232 167.609ZM144.811 160.344C144.811 161.312 144.811 162.281 144.326 163.25C143.357 162.765 142.873 162.281 141.904 161.797C129.795 167.609 117.201 167.609 105.092 161.797C105.092 161.797 105.092 161.797 104.607 161.797L102.67 163.25C102.67 162.281 102.67 161.312 102.67 160.828C99.7637 158.406 96.8574 156.469 94.4355 154.047C91.5293 151.625 89.5918 148.719 87.1699 145.812C86.6855 145.812 85.7168 145.812 84.748 145.812C84.748 144.359 85.2324 143.875 85.7168 142.906C79.9043 130.797 79.9043 118.203 85.7168 106.094C85.2324 105.125 84.748 104.64 84.2637 103.672C85.2324 103.672 86.2012 103.672 87.1699 103.187C91.0449 96.8904 95.8887 92.0466 102.186 88.1716C102.186 87.2029 102.186 86.2341 102.67 85.2654C103.639 85.7498 104.123 86.2341 105.092 86.7185C117.201 80.906 129.795 80.906 141.904 86.7185C142.873 86.2341 143.357 85.7498 144.326 85.2654C144.326 86.2341 144.326 87.2029 144.811 88.1716C151.107 92.0466 155.951 96.8904 159.826 103.187C160.795 103.187 161.764 103.187 162.732 103.672C162.248 104.64 161.764 105.125 161.279 106.094C167.092 117.719 167.092 131.281 161.279 142.906C161.764 143.875 162.248 144.359 162.732 145.328C161.764 145.328 160.795 145.328 159.826 145.812C155.951 151.625 151.107 156.953 144.811 160.344ZM161.279 162.281C157.404 161.312 154.014 160.828 150.623 160.344C153.529 157.437 156.436 154.531 159.342 151.625C159.826 155.015 160.795 158.406 161.279 162.281Z" fill="#B9B6EC"/>
<path d="M105.092 127.406C111.389 127.406 115.748 123.047 115.748 116.265C115.748 109.969 111.389 107.062 107.029 106.578C101.217 106.094 95.8887 106.094 90.0762 106.094C90.5605 106.578 91.0449 107.062 91.0449 107.547C92.9824 109 92.9824 110.937 92.9824 113.359C92.9824 121.594 92.9824 129.828 92.9824 138.062C92.9824 139.515 92.498 140.969 91.5293 141.937C91.0449 141.937 91.0449 142.422 91.0449 142.906C95.4043 142.906 99.2793 142.906 103.154 142.906C102.186 141.453 101.217 140 101.217 138.547C101.217 135.156 101.217 131.281 101.217 127.89C102.186 127.406 103.639 127.406 105.092 127.406ZM100.732 110.453C103.154 109.484 107.029 112.875 107.514 116.265C107.998 120.14 104.607 124.5 100.732 124.5C100.732 119.656 100.732 115.297 100.732 110.453Z" fill="#B9B6EC"/>
<path d="M156.926 132.734C156.441 133.219 156.441 133.219 156.441 133.703C154.02 140 146.754 138.062 141.91 138.547C140.457 138.547 139.973 138.062 139.973 136.609C139.973 133.219 139.973 129.828 139.973 126.437C142.879 126.437 145.785 126.437 148.207 126.437C149.176 125.469 150.145 124.984 151.113 124.015C150.145 123.531 149.66 122.562 148.207 121.594C145.785 121.594 142.879 121.594 139.973 121.594C139.973 117.719 139.973 114.328 139.973 110.453C140.457 110.453 140.941 109.969 140.941 109.969C143.363 109.969 145.301 109.969 147.723 109.969C151.113 109.969 154.504 111.906 156.926 114.328C156.441 111.906 156.441 109 155.957 106.094C147.723 106.094 139.488 106.094 131.254 106.094C132.707 107.547 133.191 109.484 133.191 111.422C133.191 119.656 133.191 127.89 133.191 136.609C133.191 139.515 131.738 140.969 129.801 142.906C138.52 142.906 146.754 142.906 154.988 142.906C155.957 139.515 157.41 136.125 156.926 132.734Z" fill="#B9B6EC"/>
<path d="M112.842 127.406C112.357 128.859 112.357 130.312 111.873 131.765C111.873 136.125 113.811 141.453 119.623 142.422C129.311 143.875 133.67 134.187 130.279 126.437C127.373 119.656 115.748 119.172 112.842 127.406ZM125.92 137.094C125.436 138.547 124.467 139.031 123.014 139.515C121.561 139.515 119.623 139.031 119.139 137.578C117.201 134.187 117.201 130.797 118.654 127.89C120.107 124.984 123.014 124.984 124.951 127.406C126.404 128.859 126.404 130.797 126.889 132.734C126.404 134.187 126.404 135.64 125.92 137.094Z" fill="#B9B6EC"/>
<path d="M88.1387 139.031C84.748 129.343 84.748 119.656 88.1387 109.968C87.6543 109 86.6855 108.031 86.2012 107.062C80.873 119.171 80.873 130.312 86.2012 142.421C87.1699 140.968 87.6543 140 88.1387 139.031Z" fill="#B9B6EC"/>
<path d="M159.34 108.516C158.855 109 158.855 109.485 158.371 109.969C162.246 119.656 162.246 129.344 158.371 139.031C158.855 140 159.824 140.969 160.309 141.938C165.637 129.828 165.637 118.203 160.309 106.578C160.309 107.547 159.824 108.031 159.34 108.516Z" fill="#B9B6EC"/>
<path d="M123.502 162.765C118.174 162.765 113.33 161.797 108.486 159.859C107.518 160.343 107.033 160.828 106.064 161.312C115.268 166.64 130.768 167.125 141.424 161.312C140.455 160.828 139.486 160.344 138.518 159.375C133.674 161.797 128.83 162.765 123.502 162.765Z" fill="#B9B6EC"/>
<path d="M138.518 89.1404C139.486 88.656 139.971 88.1716 140.939 87.6873C133.189 82.3591 113.33 82.3591 106.064 87.6873C107.033 88.1716 108.002 88.656 108.486 89.1404C118.658 85.2654 128.346 85.2654 138.518 89.1404Z" fill="#B9B6EC"/>
<path d="M155.471 145.813C152.08 150.172 149.174 153.078 144.814 156.469C144.814 157.438 144.814 158.407 144.814 159.375C150.627 155.5 155.471 151.141 158.861 145.328C157.408 145.813 155.955 145.813 155.471 145.813Z" fill="#B9B6EC"/>
<path d="M96.3711 151.625C94.4336 149.687 92.9805 147.75 91.5273 145.812C90.5586 145.812 89.5898 145.812 88.1367 145.812C92.0117 151.625 96.3711 156.468 102.184 159.859C102.184 158.406 102.184 157.437 102.184 156.953C100.246 154.531 98.3086 153.078 96.3711 151.625Z" fill="#B9B6EC"/>
<path d="M102.184 92.531C102.184 91.5623 102.184 90.5935 102.184 89.1404C96.3711 93.0154 91.5273 97.3748 88.1367 103.187C89.5898 103.187 90.5586 103.187 91.5273 103.187C94.4336 98.8279 97.8242 95.4373 102.184 92.531Z" fill="#B9B6EC"/>
<path d="M154.988 103.187C155.957 103.187 157.41 103.187 158.379 103.187C154.504 97.3748 150.145 92.531 144.332 89.1404C144.332 90.5935 144.332 91.5623 144.332 92.531C149.176 95.4373 152.566 99.3123 154.988 103.187Z" fill="#B9B6EC"/>
<path d="M90.5586 143.875C89.5898 143.875 88.6211 143.875 87.6523 143.875C88.1367 142.906 88.6211 142.422 89.1055 141.453C89.1055 140.969 88.6211 140.969 88.6211 140.485C87.6523 141.938 86.6836 143.391 85.7148 144.844C87.6523 144.844 89.1055 144.844 91.043 145.328C91.043 144.36 90.5586 143.875 90.5586 143.875Z" fill="#B9B6EC"/>
<path d="M157.887 141.453C158.371 142.422 158.855 142.906 159.34 143.875C158.371 143.875 157.402 143.875 156.434 143.875C156.434 144.359 155.949 144.359 155.949 144.844C157.887 144.844 159.34 144.844 161.277 144.359C160.309 142.906 159.34 141.453 158.371 140C157.887 140.484 157.887 140.969 157.887 141.453Z" fill="#B9B6EC"/>
<path d="M89.1055 107.547C88.6211 106.578 88.1367 106.094 87.6523 105.125C88.6211 105.125 89.5898 105.125 90.5586 105.125C90.5586 104.641 91.043 104.641 91.043 104.156C89.1055 104.156 87.6523 104.156 85.7148 104.641C86.6836 106.094 87.6523 107.547 88.6211 109C89.1055 108.516 89.1055 108.031 89.1055 107.547Z" fill="#B9B6EC"/>
<path d="M156.434 105.125C157.402 105.125 158.371 105.125 159.34 105.125C158.855 106.094 158.371 107.062 157.887 107.547C157.887 108.031 158.371 108.031 158.371 108.515C159.34 107.062 160.309 105.609 161.277 104.156C159.34 104.156 157.887 104.156 155.949 103.672C155.949 104.64 156.434 104.64 156.434 105.125Z" fill="#B9B6EC"/>
<path d="M140.457 90.1091C140.941 89.6248 141.91 89.1404 142.395 88.656C142.395 89.6248 142.395 90.5935 142.395 91.0779C142.879 91.0779 142.879 91.5623 143.363 91.5623C143.363 90.1091 143.363 88.1716 143.363 86.7185C141.91 87.6873 140.457 88.656 139.488 89.6248C139.973 90.1091 140.457 90.1091 140.457 90.1091Z" fill="#B9B6EC"/>
<path d="M142.877 160.344C141.908 159.859 141.424 159.375 140.939 158.89C140.455 158.89 140.455 159.375 139.971 159.375C141.424 160.344 142.393 160.828 143.846 161.797C143.846 159.859 143.846 158.406 143.846 156.953C143.361 157.437 142.877 157.437 142.877 157.437C142.877 158.406 142.877 159.375 142.877 160.344Z" fill="#B9B6EC"/>
<path d="M104.129 88.656C105.098 89.1404 105.582 89.6248 106.066 90.1091C106.551 90.1091 106.551 89.6248 107.035 89.6248C105.582 88.656 104.613 87.6873 103.16 86.7185C103.16 88.656 103.16 90.1091 103.16 91.5623C103.645 91.5623 103.645 91.0779 104.129 91.0779C104.129 90.5935 104.129 89.6248 104.129 88.656Z" fill="#B9B6EC"/>
<path d="M106.549 158.891C106.064 159.375 105.096 159.86 104.611 160.344C104.611 159.375 104.611 158.406 104.611 157.922C104.127 157.922 104.127 157.438 103.643 157.438C103.643 159.375 103.643 160.828 104.127 162.281C105.58 161.313 107.033 160.344 108.002 159.375C107.033 158.891 106.549 158.891 106.549 158.891Z" fill="#B9B6EC"/>
<path d="M153.527 89.625C154.98 91.0781 156.918 93.0156 158.371 94.4688C158.855 93.0156 159.34 90.5938 160.309 88.1719C157.887 88.6562 155.465 89.1406 153.527 89.625Z" fill="#B9B6EC"/>
<path d="M153.527 159.375C155.465 159.86 157.402 160.344 160.309 161.313C159.824 158.891 158.855 156.469 158.371 155.016C156.918 155.985 155.465 157.922 153.527 159.375Z" fill="#B9B6EC"/>
<path d="M93.4707 89.6245C91.5332 89.1401 89.1113 88.6558 86.6895 87.687C87.1738 90.1089 88.1426 92.5308 88.627 93.9839C90.0801 93.0151 91.5332 91.0776 93.4707 89.6245Z" fill="#B9B6EC"/>
<path d="M93.4707 159.375C92.0176 157.922 90.0801 155.984 88.627 154.531C88.1426 156.469 87.6582 158.406 86.6895 160.828C89.1113 160.344 91.5332 159.859 93.4707 159.375Z" fill="#B9B6EC"/>
<path d="M119.139 132.25C120.107 133.219 121.076 134.188 122.045 135.157C123.014 134.188 123.982 133.219 124.951 132.25C123.982 131.282 123.498 130.797 122.529 129.829C121.076 130.313 120.107 131.282 119.139 132.25Z" fill="#B9B6EC"/>
</g>
<defs>
<clipPath id="clip0_68_577">
<rect width="155" height="155" fill="white" transform="translate(46 47)"/>
</clipPath>
</defs>
</svg>
