<svg width="248" height="248" viewBox="0 0 248 248" fill="none" xmlns="http://www.w3.org/2000/svg">
<rect width="248" height="248" rx="16" fill="white" fill-opacity="0.1"/>
<g clip-path="url(#clip0_68_677)">
<path d="M59 143V146H70.5V140L59 143ZM59 143L70.5 140V131H75L78 138L88.5 135.5L85.5 129C86.5 128.5 87 128 88 127.5C89 127 89.5 126 90 125C90.5 124 91 123 91.5 121.5C92 120 92 118.5 92 116.5C92 113.5 91.5 111 91 109C90.5 107 89.5 105.5 88 104.5C87 103.5 85.5 102.5 83.5 102C82 101.5 80 101.5 78 101.5H59V143ZM89 136.5L78.5 139L81.5 146.5H93.5L89 136.5ZM98 134.5L130 127.5L135.5 146H123.5L121.5 139H108L106.5 146H94.5L98 134.5ZM129.5 125L122.5 101.5H108L99 132.5L115.5 128.5H111.5L115.5 111.5L119.5 127.5L129.5 125ZM139 125.5V146H150.5V123L139 125.5ZM151 119.5L139 122.5V101.5H150.5V119.5H151ZM157.5 121.5V146H177C180.5 146 183.5 145 186 143.5C188.5 142 190 139.5 191.5 136.5C192.5 133 193.5 129 193.5 123.5C193.5 120.5 193.5 117.5 193 115C193 114.5 193 114 192.5 113.5L181 116C181 116.5 181 117 181 117C181.5 118.5 181.5 120.5 181.5 123.5C181.5 126.5 181.5 128.5 181 130.5C180.5 132 180 133.5 179.5 134.5C178.5 135.5 177.5 135.5 176 135.5H169V119L157.5 121.5ZM169 115L157.5 118V101.5H177C180 101.5 183 102 185 103C187 104 188.5 105.5 190 107.5C190 108 190.5 108.5 190.5 109L178 112C177.5 111.5 176.5 111.5 175.5 111.5H169V115ZM76 121.5H71V112H76.5C77 112 77.5 112 78 112C78.5 112 79 112.5 79 113C79.5 113.5 79.5 114 80 114.5C80.5 115 80 116 80 116.5C80 117.5 80 118 80 119C80 119.5 79.5 120 79 120.5C78.5 121 78.5 121 78 121.5C77.5 121.5 77 121.5 76 121.5Z" fill="#80D1AF"/>
</g>
<defs>
<clipPath id="clip0_68_677">
<rect width="160" height="160" fill="white" transform="translate(44 44)"/>
</clipPath>
</defs>
</svg>
