<svg width="248" height="248" viewBox="0 0 248 248" fill="none" xmlns="http://www.w3.org/2000/svg">
<rect width="248" height="248" rx="16" fill="white" fill-opacity="0.1"/>
<g clip-path="url(#clip0_68_436)">
<path d="M122.543 178.734C122.543 178.25 122.543 178.25 122.543 177.766C123.027 176.797 122.543 175.828 121.574 175.344C120.605 174.859 119.637 174.375 118.668 174.375C115.277 174.375 112.371 173.891 108.98 174.859C107.527 175.344 106.559 176.312 105.105 176.797C105.105 176.797 105.105 176.797 104.621 176.797C104.621 176.797 104.621 176.797 104.621 176.312C105.105 173.406 106.559 170.984 109.465 169.531C108.496 169.047 107.043 168.563 106.074 168.078C105.105 167.594 104.621 167.109 103.652 166.625L103.168 166.141C103.168 165.656 103.168 165.656 103.168 165.172C103.168 165.172 103.652 165.172 103.652 165.656C105.105 167.109 107.043 168.078 108.98 168.563H109.465L109.949 169.047C109.949 170.016 110.918 170.5 111.887 170.016C113.34 169.531 113.824 168.562 113.34 167.594V167.109C113.34 167.109 113.824 167.109 113.824 167.594L114.309 168.078C114.793 168.563 115.277 168.078 115.277 168.078H115.762C116.246 169.531 117.215 169.531 118.184 169.531C118.668 169.531 119.637 169.531 120.121 170.016C122.059 170.5 123.027 171.469 123.512 173.406C124.965 175.828 124.48 177.281 122.543 178.734ZM121.09 172.438C121.09 172.922 121.574 173.406 121.09 173.406C120.605 173.891 121.09 173.891 121.09 174.375C121.574 174.859 122.059 175.344 122.543 175.828C123.027 176.313 123.027 176.797 123.027 177.281C124.48 175.828 123.027 172.922 121.09 172.438ZM106.559 175.344H107.043C108.496 174.859 109.949 174.375 111.402 173.891C111.887 173.891 112.371 173.891 111.887 173.406C111.887 172.922 111.887 172.922 111.402 172.922C110.434 173.406 108.98 173.891 108.012 174.375C107.043 174.375 107.043 174.859 106.559 175.344Z" fill="#9AD689"/>
<path d="M68.7793 106.563C69.2637 106.563 69.748 106.563 69.748 107.047C70.7168 107.531 71.6855 107.047 72.6543 106.563C73.1387 106.078 73.623 106.078 74.1074 106.078C75.0762 106.078 76.0449 106.078 77.0137 106.078H77.498V106.563C75.0762 108.016 71.2012 109.469 68.7793 106.563Z" fill="#9AD689"/>
<path d="M76.5273 92.9998C75.5586 93.9685 75.0742 95.4216 74.1055 96.3904C74.1055 95.906 74.5898 95.4216 74.5898 95.4216C75.0742 93.9685 75.5586 92.5154 76.043 91.0623C76.043 90.5779 76.5273 90.0935 77.0117 89.6091C77.9805 88.6404 79.4336 87.6716 80.4023 86.2185C80.8867 85.7341 81.3711 86.2185 81.8555 86.7029V87.1873C81.3711 88.156 80.8867 89.1248 80.4023 90.0935C80.8867 89.1248 81.3711 88.156 82.3398 87.6716C83.793 86.2185 85.2461 84.7654 87.1836 83.7966H87.668V84.281C87.1836 84.7654 86.2148 85.7341 85.7305 86.2185C84.7617 87.6716 84.7617 89.1248 84.7617 90.5779H85.2461C85.7305 90.0935 86.6992 89.1248 87.1836 88.156V87.6716C87.1836 86.7029 87.668 85.7341 88.1523 85.2498C88.1523 85.2498 88.6367 85.2498 88.6367 85.7341C88.6367 86.2185 88.1523 86.7029 88.1523 87.6716C88.1523 87.1873 88.6367 86.2185 88.6367 85.7341C88.6367 85.2498 88.6367 84.7654 88.6367 84.281C88.1523 84.7654 88.1523 85.2498 87.668 85.2498C86.6992 86.2185 86.6992 87.1873 86.6992 88.156C86.6992 89.1248 86.2148 89.6091 85.7305 90.5779C85.7305 90.5779 85.7305 90.5779 85.2461 90.5779C85.2461 90.5779 85.2461 90.5779 85.2461 90.0935C85.2461 88.156 85.2461 86.7029 86.6992 85.2498C87.1836 85.2498 87.668 84.281 88.1523 83.7966L88.6367 83.3123C89.6055 82.8279 91.0586 81.8591 92.0273 81.3748C92.5117 81.3748 92.5117 81.3748 92.9961 81.3748C92.9961 81.8591 92.9961 81.8591 92.9961 82.3435V82.8279H93.4805C94.4492 82.3435 95.418 82.8279 95.9023 83.7966V84.281C94.9336 84.281 94.9336 84.7654 94.4492 85.2498H93.9648C93.4805 84.7654 92.9961 84.7654 92.9961 85.2498C92.5117 87.1873 91.543 88.6404 92.0273 90.0935C92.5117 92.031 93.4805 94.4529 94.9336 95.906C95.418 96.3904 96.8711 96.3904 97.3555 95.906C97.8398 95.4216 97.8398 95.4216 98.3242 94.9373C98.3242 94.9373 97.8398 94.9373 97.8398 95.4216C96.8711 96.3904 94.9336 96.3904 93.9648 95.4216C92.5117 92.5154 91.543 90.0935 92.5117 87.1873C92.5117 86.7029 92.9961 86.2185 92.9961 86.2185C92.9961 86.7029 92.9961 86.7029 92.9961 87.1873C92.5117 89.6091 93.4805 92.9998 95.9023 94.4529C96.3867 94.4529 96.8711 94.4529 97.3555 94.4529C97.8398 94.4529 98.3242 93.9685 98.3242 93.4841C98.3242 93.4841 98.3242 92.9998 98.3242 92.5154C98.3242 92.5154 98.3242 92.5154 98.3242 92.031C98.3242 92.031 98.3242 92.031 98.8086 92.031C99.7773 92.9998 100.746 94.4529 100.746 95.906C100.746 96.3904 100.262 96.8748 99.7773 96.8748C98.3242 96.8748 97.3555 97.3591 95.9023 97.3591C95.418 97.3591 94.9336 97.8435 94.4492 97.8435L93.9648 98.3279C93.9648 98.8123 93.4805 98.8123 93.4805 98.8123C92.5117 98.3279 92.0273 96.8748 92.5117 95.906C92.5117 95.906 92.5117 95.906 92.5117 95.4216H92.0273C91.543 95.4216 91.0586 95.906 91.0586 95.906C91.0586 96.8748 90.5742 97.3591 90.5742 98.3279L91.0586 98.8123L91.543 98.3279C91.543 97.8435 92.0273 97.8435 92.0273 98.3279C92.9961 99.2966 93.9648 98.8123 95.418 98.3279C97.3555 97.3591 98.3242 97.8435 98.8086 99.781C99.293 100.75 99.293 101.719 99.293 103.172C99.293 102.687 98.8086 102.203 98.8086 101.719C98.8086 101.234 98.3242 100.75 97.3555 101.234C96.3867 101.719 95.418 102.203 94.4492 102.203C92.0273 103.172 89.6055 101.719 89.6055 98.8123C89.6055 97.8435 89.6055 96.8748 90.0898 96.3904C90.5742 95.4216 91.543 94.9373 92.9961 95.4216C92.9961 95.4216 93.4805 95.4216 93.4805 95.906C93.4805 95.906 93.4805 95.906 93.9648 96.3904V95.906C93.9648 95.4216 93.9648 94.9373 93.4805 94.4529C92.9961 93.4841 92.5117 92.9998 92.0273 92.031V92.5154H91.543C88.6367 91.0623 85.2461 92.031 83.3086 94.9373C82.3398 96.3904 81.8555 98.3279 81.3711 100.265C81.3711 103.172 80.4023 104.14 77.0117 105.109C74.5898 106.078 72.168 105.109 70.2305 103.172C69.7461 102.203 69.2617 101.234 69.2617 100.265C70.7148 102.203 73.1367 102.203 74.1055 99.2966C75.5586 96.8748 76.043 94.9373 76.5273 92.9998ZM70.7148 101.719C70.7148 102.203 70.7148 102.203 70.7148 102.203C72.168 103.656 74.5898 103.656 76.043 102.203C77.0117 101.234 77.4961 100.265 78.4648 98.8123C78.4648 98.8123 78.4648 98.8123 78.4648 99.2966C78.4648 99.781 77.9805 100.75 77.9805 101.234C79.4336 98.8123 80.8867 96.3904 81.8555 94.4529C79.4336 95.4216 79.4336 95.4216 77.4961 93.9685C77.4961 94.9373 77.4961 95.906 77.0117 96.8748C76.5273 98.8123 76.043 101.234 74.1055 102.687C73.1367 103.656 71.6836 103.656 70.7148 103.172C71.1992 102.687 71.1992 102.203 70.7148 101.719ZM91.543 91.5466C91.543 91.0623 91.543 90.5779 91.543 90.0935C91.543 89.1248 91.0586 88.156 90.0898 88.156C90.0898 88.156 89.6055 88.156 89.6055 88.6404C88.6367 89.1248 88.1523 90.0935 87.668 90.5779L87.1836 91.0623C88.6367 90.5779 90.0898 89.6091 91.543 91.5466ZM81.3711 90.5779C81.3711 91.0623 81.3711 91.0623 81.3711 90.5779C80.8867 91.5466 80.4023 92.5154 79.4336 92.5154C79.4336 92.5154 78.9492 92.5154 78.9492 92.9998C78.9492 92.9998 78.9492 93.4841 79.4336 93.4841C80.4023 93.9685 81.8555 93.9685 82.3398 92.9998C81.3711 92.5154 81.3711 91.5466 81.3711 90.5779Z" fill="#9AD689"/>
<path d="M174.856 104.625C175.341 104.625 175.341 104.141 175.825 104.141C175.825 104.625 175.825 104.625 175.825 105.11C175.825 106.079 175.825 107.532 175.825 108.5C175.825 108.985 176.309 109.469 176.794 108.985C176.794 108.985 177.278 108.985 177.762 108.985L177.278 109.469C177.278 109.954 176.794 110.438 176.794 110.438C176.794 110.438 176.794 110.438 176.794 110.922C177.278 109.954 177.762 109.469 179.216 109.469C179.216 109.469 179.216 109.469 179.7 109.469C179.7 109.469 179.7 109.469 179.7 109.954C178.731 110.922 178.247 112.375 178.247 113.829C178.247 114.313 178.247 114.797 178.247 114.797C178.247 115.766 177.762 116.25 176.794 116.25C176.794 116.25 176.309 116.25 176.309 115.766C176.309 115.282 176.309 114.313 176.794 113.829V113.344L176.309 113.829C176.309 114.313 176.309 114.797 176.309 115.282C176.309 116.735 176.309 117.219 175.341 117.219C174.372 117.704 172.919 117.219 172.434 116.735V116.25C172.919 116.25 172.919 116.25 173.403 116.25L173.887 115.766L173.403 115.282C172.919 115.282 172.434 114.797 172.434 114.797V114.313C173.403 113.829 173.887 112.375 173.887 111.407C172.434 109.954 171.466 109.469 170.012 109.469C169.044 109.469 169.044 108.985 169.528 108.5C170.012 107.532 170.012 107.532 169.044 107.532C168.559 107.532 168.559 107.047 168.559 106.563C169.044 105.594 169.044 105.11 168.075 105.594C167.591 105.594 167.591 105.594 167.591 105.11C168.075 104.141 167.591 103.657 166.137 103.657C165.653 103.657 165.653 103.657 165.653 103.172C165.653 102.688 166.137 101.719 166.137 100.75C166.137 99.7817 165.169 99.2974 164.2 98.813C163.231 98.813 162.262 99.2974 161.778 99.7817C161.294 100.75 161.294 101.719 161.778 102.688L162.262 103.172H161.778C160.325 103.172 159.356 102.204 158.872 101.235C156.934 97.3599 159.356 93.9692 163.231 93.4849C163.716 93.4849 164.2 93.4849 164.684 93.4849C164.684 93.4849 164.684 93.4849 165.169 93.4849C164.2 94.4536 164.2 95.4224 164.684 95.9067C165.169 96.8755 166.622 96.8755 167.591 96.3911C168.559 95.9067 169.044 94.938 168.559 93.9692C168.559 93.0005 167.591 92.5161 166.622 92.5161C165.653 92.5161 165.653 92.5161 166.137 91.5474C167.106 89.1255 168.559 87.188 170.981 85.7349H171.466V86.2192C170.981 88.1567 170.981 90.0942 171.466 92.0317C171.466 92.5161 171.466 93.0005 171.466 93.0005C171.466 93.4849 170.981 93.9692 170.981 94.4536C170.981 94.938 170.981 95.4224 171.466 95.4224C171.95 95.4224 171.95 94.938 171.95 94.938C171.95 93.4849 172.919 92.0317 174.372 91.063H174.856C174.856 91.5474 174.856 91.5474 174.856 92.0317C174.856 92.5161 174.372 93.0005 174.372 93.0005C173.887 94.4536 173.403 95.9067 174.372 97.3599V97.8442C173.887 98.813 173.403 100.266 173.403 101.235C173.403 102.688 172.434 102.204 171.95 101.719C171.466 101.719 171.466 101.235 171.466 100.75C171.466 99.7817 171.95 98.3286 170.981 97.3599C170.012 96.8755 169.528 96.8755 169.528 97.8442C169.044 100.266 170.012 101.719 172.919 102.204C173.887 102.204 174.856 101.719 175.341 100.75C175.341 100.75 175.341 100.75 175.825 100.75C175.825 100.75 175.825 100.75 175.825 101.235V101.719V102.204H176.309C176.309 102.204 176.309 102.204 176.309 102.688C175.341 103.172 174.856 104.141 174.856 104.625ZM168.075 102.688C168.075 103.172 168.559 103.172 168.559 103.657C168.559 104.141 168.559 104.141 169.044 104.141C170.012 104.141 170.012 105.11 170.012 105.594V106.079C170.981 106.079 171.466 106.563 171.466 107.047C172.434 105.11 170.981 103.172 168.075 102.688ZM173.887 110.438C174.372 110.438 174.372 110.438 174.372 110.438C174.372 109.954 174.372 109.954 173.887 110.438C173.403 109.469 172.919 108.985 171.95 108.5H171.466V108.985C172.434 109.469 172.434 109.469 172.919 109.954C173.403 109.954 173.887 110.438 173.887 110.438Z" fill="#9AD689"/>
<path d="M108.02 157.907C109.473 158.875 110.926 160.329 111.895 161.297L112.379 161.782C111.895 161.782 111.895 161.782 111.41 161.782C111.41 161.782 110.926 161.782 110.926 161.297C109.957 160.813 109.957 160.813 109.957 161.782C109.957 161.782 109.957 161.782 110.441 161.782C111.41 161.782 112.379 161.782 113.348 161.782C113.832 161.782 114.316 162.266 114.801 162.266C115.77 163.235 116.254 163.235 117.223 162.75C118.191 162.266 119.16 162.266 119.645 163.235C120.613 164.204 121.582 163.719 123.035 163.719C126.91 163.235 130.301 161.782 132.723 158.875C132.723 158.391 133.207 158.391 133.691 158.391C135.629 157.907 137.082 156.454 138.535 155L139.02 154.516V155C138.535 157.422 137.566 159.36 135.629 160.813L135.145 161.297V160.813L134.66 161.297C131.754 164.204 128.848 167.11 125.457 169.047C124.488 169.532 123.035 170.016 121.582 169.532C120.613 169.532 120.613 168.563 120.613 167.594H121.098C122.066 168.079 123.52 168.079 124.488 167.594C126.91 166.625 128.848 165.172 130.785 163.719C130.301 163.719 130.301 164.204 129.816 164.204C127.395 165.657 124.973 166.625 122.066 166.625C121.582 166.625 121.098 166.625 120.613 165.657C120.613 164.688 119.645 164.204 119.16 164.688C118.676 164.688 118.191 165.657 118.191 166.141C118.191 166.625 119.16 167.594 119.645 167.594C118.676 169.047 117.223 169.047 116.254 168.079C115.77 167.594 115.77 167.11 115.77 166.625C115.285 163.719 113.348 162.75 111.41 162.266C110.441 162.266 109.957 162.266 108.988 161.782C108.988 161.782 108.504 161.782 108.504 161.297C108.02 160.329 107.535 159.36 107.051 158.875C106.566 157.907 105.598 158.391 105.113 159.36C105.113 159.844 105.113 160.813 105.113 161.297C105.113 161.297 105.113 161.297 105.113 161.782C104.629 160.329 103.66 158.875 103.176 156.938C102.691 155 103.66 153.547 106.082 153.547C107.535 153.547 108.504 154.032 109.473 154.516C110.926 155.485 112.379 155.485 113.832 154.516C114.316 154.032 114.801 154.032 115.77 154.032C115.77 154.032 115.77 154.032 116.254 154.032C116.254 154.032 116.254 154.032 115.77 154.032C114.316 154.516 113.348 155 112.379 156.454H111.895C110.441 155.969 110.441 156.454 110.926 157.422V157.907H110.441C109.473 158.391 108.988 157.907 108.02 157.907C108.02 157.422 108.02 157.422 108.02 157.907Z" fill="#9AD689"/>
<path d="M147.252 156.937C146.768 156.937 146.768 155.484 147.252 155.484C149.189 154.515 150.158 152.578 150.643 150.64C150.643 150.64 150.643 150.64 150.643 150.156V150.64C150.643 153.062 150.158 155 148.221 156.453C149.189 155.968 150.158 155.968 151.611 155.484C152.58 155.484 153.064 155 154.033 155.484C154.033 155.484 154.518 155.484 154.518 155C154.518 155 154.518 155 154.518 154.515H154.033C152.58 154.515 151.611 155 150.158 155H149.674V154.515C150.158 154.031 150.643 153.062 151.127 152.578C152.096 152.093 153.549 151.609 155.002 151.125C155.486 151.125 155.971 150.64 156.455 151.609C156.455 151.609 156.939 151.609 156.939 151.125C156.939 151.125 156.939 150.64 157.424 150.64C156.939 150.64 156.939 150.64 156.455 150.64C155.486 150.64 154.518 151.125 154.033 151.125H153.549V150.64C154.033 150.156 154.518 149.671 155.002 149.187C155.971 148.218 157.424 147.734 158.877 146.765C159.361 146.281 159.846 146.281 160.33 147.25H160.814C161.783 146.765 162.268 146.281 163.236 145.312C165.174 143.859 167.111 143.375 169.533 142.89C170.018 142.89 170.986 143.375 171.471 143.859C171.471 143.859 171.471 144.343 170.986 144.343C169.533 144.828 168.564 144.828 167.111 145.312C163.721 146.281 160.33 147.734 157.908 151.125C158.877 150.64 160.33 150.156 161.783 149.671C163.236 149.187 164.689 148.703 166.627 148.703C167.111 148.703 168.08 149.187 168.564 149.671L168.08 150.156C166.627 150.156 164.689 150.64 163.236 150.64C159.846 151.125 156.939 153.062 154.518 155.484C155.486 155 156.455 154.515 157.908 154.515C160.33 154.031 162.752 153.546 165.174 155L165.658 155.484H165.174C162.752 155.484 160.814 155.484 158.393 155.484C155.486 155.968 152.58 156.453 150.643 158.39H150.158V157.906L149.674 157.421C148.705 157.421 148.221 157.421 147.252 157.421C146.768 157.421 146.283 157.421 145.799 157.421H145.314C146.283 157.906 146.768 156.937 147.252 156.937Z" fill="#9AD689"/>
<path d="M123.518 162.749C123.033 162.749 122.064 162.749 121.58 162.749C120.127 162.749 119.158 162.265 118.189 161.781C117.705 161.296 116.736 161.296 115.768 161.296C114.799 161.296 113.83 161.296 112.861 161.296C112.861 161.296 112.377 161.296 112.377 160.812C111.893 159.843 111.893 157.906 112.377 157.421C113.83 155.968 115.283 154.999 117.705 155.484C119.158 155.484 120.127 155.484 121.58 155.484H122.064L121.58 155.968C121.096 155.968 120.127 156.453 119.643 156.453C119.643 156.453 119.643 156.453 119.158 156.453C121.096 158.39 124.971 158.39 127.393 156.453C127.877 156.453 127.877 155.968 128.361 155.968C128.361 156.453 128.361 156.937 127.877 156.937C126.908 158.39 125.455 159.359 123.518 159.843C121.096 160.812 118.674 160.328 116.736 158.39C116.252 157.906 115.283 157.421 114.314 156.937C112.861 156.937 111.893 158.39 112.377 159.843C112.377 158.874 112.377 157.906 112.861 157.421C113.346 156.937 114.314 156.937 114.799 157.421C115.283 157.906 116.252 158.39 116.736 158.874C118.674 160.328 120.611 160.812 122.549 160.328C124.002 159.843 125.455 159.359 126.424 158.874C127.877 158.39 129.814 157.421 131.268 156.937C131.752 156.453 132.721 155.968 133.205 155.968C133.205 155.968 133.205 155.968 133.689 155.968V156.453C131.752 160.328 128.846 163.718 124.002 164.203C123.033 164.203 122.064 164.203 121.58 164.203C121.096 164.203 121.096 163.718 120.611 163.718C120.611 163.718 121.096 163.234 121.58 163.234C122.549 162.749 123.033 162.749 123.518 162.749Z" fill="#9AD689"/>
<path d="M155 100.75C153.547 100.75 152.094 101.234 151.125 102.203C151.125 102.203 151.125 102.203 150.641 102.203C150.641 102.203 150.641 102.203 150.641 101.719C151.125 99.2969 153.547 96.875 156.453 96.3906C157.422 96.3906 157.422 96.3906 157.422 97.3594C157.422 99.7812 159.844 102.687 162.266 103.172C163.234 103.172 163.719 104.141 164.687 104.625C164.687 104.625 164.687 104.625 164.687 105.109C163.234 106.078 163.234 106.078 164.687 106.562V107.047C163.719 108.016 163.719 108.016 164.687 108.5V108.984C163.234 110.437 163.719 112.375 165.656 113.344C166.141 113.344 166.141 113.828 165.656 113.828C165.172 113.828 165.172 114.312 164.687 114.797C164.203 116.25 164.688 117.219 166.141 117.219C166.625 117.219 166.625 117.219 167.109 117.219L166.625 117.703C165.656 118.187 164.688 119.156 163.719 119.641H163.234C163.234 118.672 162.75 118.188 161.781 118.188C160.328 118.188 158.875 118.188 158.391 116.734V116.25C158.391 115.766 158.391 115.281 158.391 114.797C158.875 114.797 158.875 115.281 159.359 115.281C160.328 115.766 161.297 115.766 161.781 114.312C162.266 112.375 162.266 110.437 161.297 108.984C160.813 108.016 160.328 107.047 159.359 106.078C159.359 105.594 158.875 105.594 159.359 105.594C159.844 105.594 159.844 105.109 160.328 105.109C159.844 104.625 159.844 104.625 159.359 104.625C158.391 104.625 157.906 104.625 156.937 105.109H156.453V104.625C156.938 104.141 157.422 103.172 157.422 102.688C157.906 101.719 157.422 100.75 155 100.75ZM159.844 105.109C160.812 106.078 160.812 106.078 159.844 107.047C160.328 107.047 160.813 107.047 161.297 107.047C161.297 106.562 161.297 106.078 160.813 105.594C160.813 105.594 160.328 105.594 159.844 105.109Z" fill="#9AD689"/>
<path d="M89.1276 92.5156C90.5807 92.5156 92.0338 93 93.0026 94.4531C93.0026 94.4531 93.0026 94.4531 93.0026 94.9375H92.5182C91.0651 93.4844 89.612 93.4844 87.6745 94.4531C85.737 95.4219 84.7682 97.3594 84.2838 99.2969V99.7812C84.2838 99.7812 84.2838 100.266 84.7682 100.266L85.2526 99.7812C85.2526 99.7812 85.2526 99.7813 85.2526 100.266C85.2526 101.234 85.2526 102.203 85.737 103.172C86.2213 105.109 87.1901 106.562 88.6432 108.016C90.0963 109.469 91.5495 110.922 92.0338 113.344C92.5182 114.797 92.5182 116.734 91.0651 118.188C91.0651 118.188 90.5807 118.187 90.5807 118.672V118.188C91.0651 117.219 91.5495 116.25 91.5495 114.797C91.0651 113.344 90.5807 112.375 89.1276 111.406C87.6745 110.437 85.737 109.469 84.2838 108.016C80.8932 104.625 80.4088 96.875 85.737 93.4844C86.7057 93 87.6745 92.5156 89.1276 92.5156Z" fill="#9AD689"/>
<path d="M133.691 170.985C132.723 170.5 131.754 169.532 130.785 168.563C130.301 168.079 130.301 168.079 130.785 167.594L131.27 167.11C132.238 165.172 133.691 164.204 135.629 164.688C135.629 164.688 135.629 164.688 136.113 164.688C135.629 164.688 135.629 164.204 135.145 164.204C135.629 164.204 135.629 163.719 136.113 163.719C138.535 163.235 140.473 163.235 142.895 163.719H143.379L143.863 164.204H143.379C142.895 164.688 142.41 164.688 141.926 165.172C140.473 167.594 138.051 169.532 135.629 171.469C135.145 171.954 135.145 171.954 135.629 172.438C136.113 172.922 136.113 173.407 135.145 173.407C135.629 173.407 136.113 173.407 136.113 173.891L136.598 174.375C136.598 174.375 136.113 174.375 136.113 174.86C137.082 174.86 137.566 175.344 137.566 176.313C137.566 176.797 137.566 176.797 137.082 176.797C135.629 176.313 134.66 175.829 133.207 175.344C132.723 175.344 132.723 174.86 132.723 174.86C131.754 172.922 130.301 171.954 128.363 170.5C127.879 170.5 127.879 170.016 127.879 170.016C128.363 170.016 128.363 170.016 128.848 170.016C130.301 170.5 131.754 170.985 133.207 171.469C133.207 170.985 133.691 170.985 133.691 170.985ZM131.754 167.594C132.238 167.11 132.238 167.11 132.238 166.625C132.723 166.141 132.723 166.141 133.207 166.141C134.66 166.141 136.113 165.657 137.082 165.657C137.082 165.657 137.082 165.657 137.566 165.657C137.082 166.141 136.113 166.141 135.629 166.625C135.145 166.625 134.66 167.11 134.176 167.594V168.079C134.66 168.563 134.176 168.563 134.176 168.563C134.176 168.563 134.176 168.563 133.691 168.563L134.176 169.047H134.66C136.113 168.079 138.051 166.625 139.504 165.657C139.504 165.657 139.504 165.657 139.504 165.172C139.504 165.172 139.504 165.172 139.02 165.172C137.566 165.172 135.629 165.172 134.176 165.172C132.723 165.657 132.238 166.141 131.754 167.594ZM138.535 163.235C138.051 163.235 137.566 163.235 137.082 163.235C137.082 163.235 137.082 163.235 136.598 163.235C136.598 163.235 136.598 163.235 137.082 163.235C138.535 163.235 139.504 163.235 140.957 163.719H141.441C141.441 163.719 141.441 163.719 141.926 163.719C141.926 163.719 141.926 163.719 141.441 163.719C140.473 163.719 139.504 163.719 138.535 163.235ZM139.988 165.657L139.504 166.141C137.566 167.594 136.113 168.563 134.176 170.016C134.176 170.016 134.176 170.016 133.691 170.5H134.176C136.598 169.047 138.535 167.11 139.988 165.657Z" fill="#9AD689"/>
<path d="M153.066 88.6401C155.488 89.1245 157.91 90.0933 160.332 91.5464C160.332 91.5464 160.816 91.5464 160.816 92.0308C160.816 92.0308 160.816 92.0308 160.816 92.5151C160.816 92.9995 160.816 92.9995 160.332 93.4839C160.332 95.4214 160.332 95.4214 158.395 95.9058C156.941 96.3901 156.457 95.9058 155.488 94.937C154.52 92.9995 153.551 92.0308 153.066 90.0933C153.066 90.0933 153.066 90.0933 152.582 89.6089V90.0933C153.551 92.5151 154.52 94.4526 156.457 95.9058L156.941 96.3901C156.457 96.3901 156.457 96.3901 155.973 96.3901C155.004 95.9058 154.52 94.937 153.551 93.9683C153.066 93.4839 152.582 92.5151 151.613 92.0308C152.098 92.5151 152.098 92.9995 152.582 93.9683C151.129 92.0308 149.676 90.0933 149.676 87.6714C149.676 87.6714 149.676 87.187 150.16 87.187C153.551 87.187 156.457 88.1558 159.363 89.6089C159.848 90.0933 160.332 90.5776 161.301 91.062V91.5464H160.816C159.363 91.062 157.426 90.0933 155.973 89.6089C154.52 88.6401 153.551 88.6401 153.066 88.6401ZM155.488 90.5776C155.004 90.5776 154.52 90.5776 154.035 90.0933C153.551 90.0933 153.551 90.0933 153.551 90.5776C154.52 91.5464 155.488 92.9995 156.457 93.9683C156.941 94.4526 158.395 94.4526 158.879 93.9683C158.879 93.9683 158.879 93.4839 159.363 93.4839C158.879 93.4839 158.395 93.4839 158.395 93.4839C157.426 92.9995 156.457 92.0308 155.488 91.5464L155.004 91.062C155.004 90.5776 155.004 90.5776 155.488 90.5776Z" fill="#9AD689"/>
<path d="M166.623 113.829C167.107 114.313 167.592 114.797 167.592 114.797C167.592 114.797 167.592 114.797 168.076 114.797C168.076 114.797 168.076 114.797 168.076 114.313C168.076 114.313 168.561 114.313 168.561 114.797C168.561 115.766 168.561 116.735 169.045 117.704C169.045 118.188 169.045 118.188 169.045 118.672C169.529 117.219 169.529 115.766 169.045 114.313C168.561 112.86 167.592 110.922 167.107 109.469C166.623 107.532 166.139 105.11 165.654 103.172V102.688C165.654 102.688 165.654 103.172 166.139 103.172C166.139 103.657 166.623 104.141 167.592 104.141C167.592 104.141 168.076 104.141 168.076 104.625C168.561 107.532 170.014 110.438 170.982 113.344C171.951 115.282 171.467 117.219 170.982 119.157C170.498 120.61 169.529 122.063 169.045 123.516C168.561 124.969 168.561 126.422 169.529 127.875V128.36C169.529 128.36 169.045 128.36 169.045 127.875C167.592 125.938 167.107 124 168.076 121.579C168.076 119.641 168.076 116.735 166.623 113.829Z" fill="#9AD689"/>
<path d="M146.766 91.5469C147.734 91.5469 148.703 91.5469 149.672 91.5469C150.156 91.5469 150.156 91.5469 150.641 92.0312C152.094 93.4844 153.063 94.9375 154.031 96.875V97.3594C153.063 97.8437 151.609 98.8125 151.125 99.7812L150.641 100.266C149.188 100.266 147.734 99.7812 146.766 99.7812C146.766 99.7812 146.766 99.7812 146.281 99.7812C146.281 99.7812 146.281 99.7812 146.766 99.7812C147.734 99.7812 148.219 99.2969 149.188 99.2969C149.672 99.2969 150.156 98.8125 150.156 98.3281C150.156 97.8437 149.188 97.3594 148.703 97.8438C148.219 97.8438 148.219 97.8437 148.219 97.3594C148.219 96.3906 147.734 96.3906 147.25 95.9062C145.797 95.9062 144.828 95.4219 143.375 95.4219C142.891 95.4219 141.922 95.4219 141.438 95.4219C141.438 95.4219 141.438 95.4219 140.953 95.4219C142.406 92.0313 144.344 91.5469 146.766 91.5469ZM145.312 93.4844C146.766 93.9687 147.25 94.4531 147.734 95.4219H148.219C148.703 95.4219 149.672 94.9375 150.156 95.4219C150.156 95.4219 150.641 95.4219 150.641 95.9062V95.4219C149.672 93.4844 146.766 93 145.312 93.4844Z" fill="#9AD689"/>
<path d="M151.123 79.438C151.607 78.4692 151.607 77.5005 152.092 76.5317L152.576 76.0474L153.061 76.5317C153.061 77.9849 153.545 79.438 154.514 80.4067C154.998 80.8911 155.482 80.8911 155.967 81.3755C155.967 81.3755 155.967 81.3755 155.967 81.8599C155.967 81.8599 155.967 81.8599 155.482 81.8599C154.998 81.8599 154.514 82.8286 154.514 83.313C154.514 83.7974 154.998 84.2817 154.998 84.2817C155.482 84.2817 155.967 84.2817 156.451 83.7974C156.936 83.313 157.42 83.313 157.42 83.7974C157.42 84.2817 158.389 85.2505 158.873 86.2192C158.873 87.188 159.357 88.1567 159.842 89.1255C159.842 89.1255 159.842 89.1255 159.842 89.6099C158.389 88.6411 156.451 87.6724 154.998 87.188C152.092 86.2192 151.607 84.2817 151.123 82.3442C151.123 81.3755 151.123 80.4067 151.123 79.438Z" fill="#9AD689"/>
<path d="M77.9863 114.797C77.502 116.25 77.502 118.188 77.0176 119.641C76.5332 121.578 75.5645 122.547 73.627 123.516C72.6582 124 71.6895 124.485 70.7207 124.969C70.7207 124.969 70.7207 124.969 70.2363 124.969V124.485C71.2051 123.031 71.6895 121.578 72.6582 120.125C72.6582 120.125 72.6582 120.125 73.1426 120.125C73.627 120.125 74.1113 120.125 74.1113 120.125C74.5957 119.156 75.0801 118.188 75.5645 117.219C74.5957 118.188 73.1426 119.156 71.6895 119.641C71.6895 119.641 71.2051 119.641 70.7207 119.641C70.7207 119.641 70.7207 119.156 71.2051 119.156C72.6582 117.703 73.1426 115.766 73.627 114.313C73.627 113.828 74.1113 113.344 74.5957 112.86C75.5645 112.375 76.0488 111.891 77.0176 111.406C77.0176 111.406 77.502 111.406 77.502 110.922V111.406C77.502 112.86 77.502 113.828 77.9863 114.797C77.502 114.797 77.502 114.797 77.9863 114.797Z" fill="#9AD689"/>
<path d="M159.846 83.7964C160.33 82.8276 160.33 81.3745 160.814 80.4058L161.299 79.9214L161.783 80.4058C161.783 82.3433 162.268 84.7651 163.721 86.7026C164.205 87.187 164.689 87.6714 165.658 88.1558C165.658 88.1558 166.143 88.1558 166.143 87.6714C166.143 85.7339 166.143 84.2808 166.627 82.8276L167.111 82.3433L167.596 82.8276C168.08 84.2808 168.08 86.2183 168.564 87.6714V88.1558C168.08 89.1245 167.111 90.5776 166.627 91.5464C166.143 92.0308 166.143 92.0308 165.174 92.0308C164.689 92.0308 164.205 91.5464 163.721 91.5464C163.236 91.5464 162.268 91.062 162.268 90.0933C162.752 90.5776 163.236 90.5776 163.721 90.0933C163.721 89.6089 163.721 89.1245 163.721 88.6401C163.236 88.1558 162.752 88.1558 162.268 88.6401C161.783 89.1245 161.783 89.1245 161.299 88.6401C160.33 87.187 160.33 85.7339 159.846 83.7964Z" fill="#9AD689"/>
<path d="M93.4805 95.4213C92.5117 95.4213 92.0273 94.937 91.543 94.937C89.6055 94.937 87.668 96.3901 87.668 98.812C87.668 99.7807 88.1523 101.234 88.1523 102.203C88.1523 102.687 88.6367 102.687 88.6367 102.687L89.1211 102.203C89.1211 102.203 89.1211 101.718 89.6055 101.718C89.6055 101.718 89.6055 102.203 90.0898 102.203C90.5742 104.624 92.0273 105.593 94.4492 105.593C94.9336 105.593 95.9023 105.109 96.3867 104.624H96.8711V105.109C95.9023 107.531 93.4805 109.468 90.5742 107.531C87.668 106.078 86.2148 102.687 86.2148 99.7807C86.2148 97.8432 86.6992 96.3901 88.1523 95.4213C89.6055 94.4526 91.543 93.9682 92.9961 94.937C92.9961 95.4213 92.9961 95.4213 93.4805 95.4213Z" fill="#9AD689"/>
<path d="M78.9531 111.406C78.9531 113.344 79.4375 115.281 79.9219 116.734H80.4062C82.3438 114.797 83.7969 112.375 84.2813 109.953L84.7656 109.469C84.7656 109.953 85.25 109.953 85.25 110.438C84.2812 113.828 82.8281 116.734 80.4062 118.672C79.9219 119.156 79.9219 119.156 79.4375 118.672C78.4688 116.734 77.9844 114.313 77.9844 111.891C77.9844 110.438 77.9844 109.469 78.9531 108.984C79.9219 108.5 80.4062 107.531 81.375 106.562C81.8594 106.078 81.8594 106.078 82.3438 106.562C82.8281 107.531 83.7969 108.016 84.2813 108.984C84.2813 108.984 84.2813 108.984 84.2813 109.469C83.7969 111.891 82.8281 113.828 80.8906 115.766C80.4062 116.25 80.4063 116.25 79.9219 115.766C79.9219 114.313 79.4375 112.859 78.9531 111.406ZM79.9219 110.438C79.9219 111.891 80.4062 113.344 80.4062 114.797C80.4062 115.281 80.8906 115.281 80.8906 114.797C81.8594 113.344 82.3437 111.891 83.3125 110.438C83.7969 109.469 83.3125 108.5 82.8281 108.016C81.8594 107.047 81.8594 107.047 81.375 108.016C80.4062 108.5 79.4375 108.984 79.9219 110.438Z" fill="#9AD689"/>
<path d="M80.4062 105.594C80.8906 105.109 81.375 104.625 81.375 104.625C81.375 105.109 81.375 105.594 80.4062 105.594C79.4375 107.531 77.9844 108.984 77.0156 110.437C76.5312 110.922 76.0469 110.922 76.0469 111.406C75.0781 111.891 74.5937 112.375 73.625 111.891C72.6562 111.406 71.2031 111.891 70.7187 112.859C70.2344 113.828 70.2344 114.797 69.75 115.766C69.2656 112.859 70.7187 109.953 73.625 108.984C74.5937 108.5 76.0469 108.016 77.0156 107.047C77.5 106.562 77.9844 106.078 78.4687 105.594C78.4687 105.594 78.9531 105.109 79.4375 105.109C80.4062 104.625 81.375 103.656 81.8594 102.688C81.8594 102.688 81.8594 102.688 82.3437 102.203V102.688C81.8594 103.656 81.8594 104.141 81.375 105.109C80.8906 105.109 80.4062 105.594 80.4062 105.594Z" fill="#9AD689"/>
<path d="M152.096 86.219C151.127 85.7346 150.158 85.2502 149.189 85.2502C146.283 84.7659 145.314 82.8284 145.314 79.9221C145.314 78.469 145.314 77.0159 145.314 75.5627C145.314 75.0784 145.314 75.0784 145.799 74.594L146.283 75.0784C147.252 76.5315 147.736 77.9846 148.705 78.9534L149.189 79.4377C150.643 80.4065 151.127 81.8596 151.611 82.8284C152.096 83.3127 152.096 84.2815 152.58 84.7659C152.096 85.7346 152.096 86.219 152.096 86.219Z" fill="#9AD689"/>
<path d="M76.5352 126.906C75.082 127.391 74.1133 127.875 73.1445 128.359C73.1445 128.359 72.6602 128.359 72.1758 128.359C72.1758 128.359 72.1758 127.875 72.6602 127.875C73.1445 126.906 74.1133 125.938 74.5977 124.969C75.5664 124 76.0508 123.031 77.0195 122.063C77.5039 121.578 77.9883 120.609 78.4727 120.125C78.957 119.641 78.957 119.641 78.957 120.125C79.4414 121.578 79.4414 123.031 78.957 124.484C77.5039 127.391 75.5664 129.328 73.1445 131.75C73.1445 131.75 73.1445 131.75 72.6602 131.75V131.266C73.1445 129.813 73.6289 128.359 75.082 127.875C75.5664 127.391 76.0508 127.391 76.5352 126.906Z" fill="#9AD689"/>
<path d="M138.049 73.1406C139.986 74.5938 140.955 76.0469 142.893 77.0156C143.861 77.9844 144.83 78.4688 144.83 79.9219C144.83 80.8906 145.314 81.8594 145.799 82.8281V83.3125H145.314C141.439 82.3438 139.986 78.9531 139.018 75.5625C138.049 75.0781 138.049 74.1094 138.049 73.1406Z" fill="#9AD689"/>
<path d="M135.627 79.9221C130.783 79.9221 128.361 77.0159 125.939 73.1409C125.939 73.1409 125.939 72.6565 125.939 72.1721H126.424C128.361 72.6565 129.814 73.6252 131.752 74.1096L132.236 74.594C133.205 76.5315 134.658 77.9846 135.627 79.9221Z" fill="#9AD689"/>
<path d="M84.7676 116.25C84.7676 115.281 84.7676 114.312 85.252 113.344C85.7363 112.859 86.2207 111.89 86.7051 111.406C87.1895 110.922 88.6426 110.922 89.127 111.406C88.1582 111.406 87.1895 111.406 86.7051 112.375C86.2207 113.828 85.7363 115.281 86.7051 116.25L87.1895 116.734L87.6738 116.25C87.6738 115.765 87.6738 115.765 88.1582 115.281C88.1582 115.765 88.1582 115.765 88.6426 116.25C89.127 117.219 89.6113 118.187 90.0957 119.156V119.64H89.6113C89.127 119.156 88.6426 118.672 87.6738 118.672C87.6738 118.672 87.6738 118.672 87.1895 118.672C87.1895 118.672 87.1895 118.672 87.1895 119.156C87.6738 120.609 88.6426 122.062 89.6113 123.515C89.6113 123.515 89.6113 124 90.0957 124C89.6113 124 89.6113 124 89.127 124C86.2207 122.062 84.7676 119.64 84.7676 116.25Z" fill="#9AD689"/>
<path d="M130.781 174.859C131.266 174.859 132.234 175.344 132.234 175.828L131.75 176.312C129.812 175.828 128.359 174.859 126.422 174.375C125.937 174.375 125.937 173.891 125.937 173.891C125.453 172.922 124.969 171.953 124.484 171.469C124 170.984 124.484 170.5 124.969 170.5C125.937 170.5 126.906 170.5 127.391 170.5C129.328 170.5 130.297 171.953 130.781 173.406H130.297C130.781 173.891 130.781 173.891 131.266 174.375C131.266 174.859 131.266 174.859 130.781 174.859Z" fill="#9AD689"/>
<path d="M82.3398 140.469C82.3398 142.891 81.8555 145.313 80.4023 147.25L79.918 147.735V147.25C79.4336 145.313 79.4336 143.375 78.9492 141.438V140.953C79.4336 139.016 80.4023 137.563 80.8867 135.625C80.8867 135.625 80.8867 135.141 81.3711 135.141C81.3711 135.141 81.3711 135.625 81.8555 135.625C81.8555 137.563 81.8555 139.016 82.3398 140.469Z" fill="#9AD689"/>
<path d="M79.918 127.391C79.4336 131.266 77.9805 135.141 74.5898 137.563H74.1055V137.078C74.5898 135.141 75.0742 133.203 75.5586 131.266C75.5586 130.781 76.043 130.297 76.043 130.297C77.0117 128.844 77.9805 127.391 78.9492 125.938C78.9492 125.938 78.9492 125.938 78.9492 125.453C78.9492 125.453 78.9492 125.453 78.9492 125.938C79.918 126.422 79.918 126.907 79.918 127.391Z" fill="#9AD689"/>
<path d="M128.844 78.9531C124.969 78.9531 122.063 77.0156 119.641 74.1094C119.641 74.1094 119.156 73.625 119.156 73.1406C119.641 73.1406 119.641 73.1406 120.125 73.1406C122.062 73.625 124 74.1094 125.937 74.5938C125.937 74.5938 126.422 74.5938 126.422 75.0781C127.391 76.0469 128.359 77.0156 129.328 77.9844L129.813 78.4687C129.328 78.9531 129.328 78.9531 128.844 78.9531Z" fill="#9AD689"/>
<path d="M101.715 83.7971C99.293 83.7971 97.8398 83.3127 96.3867 82.344C96.3867 82.344 96.3867 82.344 95.9023 81.8596C95.9023 81.8596 95.9023 81.8596 96.3867 81.3752C97.8398 80.8909 99.293 80.4065 100.746 79.4377H101.23C103.168 80.4065 105.105 80.8909 107.043 80.8909H107.527C107.527 80.8909 107.527 80.8909 107.043 80.8909C105.105 83.3127 103.168 83.7971 101.715 83.7971Z" fill="#9AD689"/>
<path d="M120.123 78.9534C119.154 78.9534 118.67 78.469 117.701 78.469C115.764 77.5002 114.311 76.0471 112.857 75.0784C112.857 75.0784 112.857 74.594 112.373 74.594H112.857C114.795 74.594 116.732 75.0784 118.186 75.0784C118.186 75.0784 118.67 75.0784 118.67 75.5627C120.123 77.0159 121.092 77.9846 123.029 78.9534C123.029 78.9534 123.029 78.9534 123.029 79.4377C123.029 79.4377 123.029 79.4377 122.545 79.4377C122.061 78.9534 121.092 78.9534 120.123 78.9534Z" fill="#9AD689"/>
<path d="M85.2539 147.25C85.2539 149.187 85.2539 151.125 84.2852 152.578L83.8008 153.062C83.8008 153.062 83.8008 152.578 83.3164 152.578C83.3164 151.609 82.832 150.156 82.832 149.188C82.832 148.703 82.3477 147.734 81.8633 147.25V146.766C82.3477 144.828 82.832 143.375 83.3164 141.438C83.3164 141.438 83.3164 141.438 83.3164 140.953C83.3164 140.953 83.3164 140.953 83.3164 141.438C84.2852 143.375 85.2539 145.312 85.2539 147.25Z" fill="#9AD689"/>
<path d="M88.6426 153.063C88.6426 154.516 88.1582 155.969 88.1582 157.907C88.1582 158.391 87.6738 158.391 87.6738 158.391L87.1895 157.907C86.7051 156.938 86.7051 155.485 86.2207 154.516C86.2207 154.032 85.252 153.547 84.7676 153.063V152.579C85.7363 150.641 85.7363 148.704 85.7363 146.766V146.282C85.7363 146.282 86.2207 146.282 86.2207 146.766C87.6738 148.219 88.1582 149.672 88.1582 151.61C88.6426 152.094 88.6426 152.579 88.6426 153.063Z" fill="#9AD689"/>
<path d="M163.721 130.297C163.236 128.844 163.721 127.391 164.205 125.938C164.205 125.453 164.205 124.485 164.205 123.516C164.205 122.547 164.205 121.578 164.205 121.094C164.689 122.547 164.689 124 165.174 124.969V125.453C164.205 126.906 163.721 128.36 164.689 130.297V130.781C164.205 131.75 163.721 132.235 163.236 133.203C163.236 133.688 163.236 134.656 163.236 135.141C163.236 135.625 163.236 135.625 163.236 136.11C163.236 136.594 162.752 136.594 162.752 136.594C161.783 137.563 161.299 138.531 161.299 140.469C161.299 140.953 161.299 141.438 160.814 141.438C159.361 142.891 158.393 144.344 157.424 146.281C156.939 147.25 155.971 148.219 155.002 149.188C155.002 149.188 155.002 149.188 155.002 148.703C155.002 148.219 155.486 147.735 155.486 147.25C155.486 146.766 156.455 145.313 156.939 144.344C157.424 143.375 158.393 142.406 158.877 140.953C159.361 140.469 159.846 139.5 159.846 138.531C160.33 137.563 160.814 136.594 160.814 135.625C161.299 135.141 161.299 134.172 161.783 133.688C162.268 132.719 162.268 131.266 162.752 130.297C163.721 130.781 163.721 130.297 163.721 130.297Z" fill="#9AD689"/>
<path d="M132.232 72.6558C133.686 73.1401 134.654 74.1089 135.623 74.5933C137.076 75.0776 137.561 76.0464 138.045 77.0151C138.529 78.4683 139.498 79.437 139.982 80.8901V81.3745H139.498C136.592 80.4058 135.139 78.4683 133.201 76.0464C132.717 75.0776 132.232 74.1089 131.748 73.1401C132.232 73.1401 132.232 73.1401 132.232 72.6558Z" fill="#9AD689"/>
<path d="M80.4043 133.203C80.4043 136.594 78.9512 139.5 76.5293 141.922C76.5293 141.922 76.5293 141.922 76.0449 141.922C76.0449 141.922 76.0449 141.922 76.0449 141.437C76.0449 140.953 76.0449 140.468 76.0449 139.984C76.0449 138.531 76.0449 137.562 76.0449 136.109C76.0449 135.625 76.0449 135.625 76.5293 135.14C77.498 133.687 78.4668 131.75 79.4355 130.297C79.4355 130.297 79.4355 129.812 79.9199 129.812V130.297C80.4043 131.75 80.4043 132.719 80.4043 133.203Z" fill="#9AD689"/>
<path d="M107.535 81.3745C105.113 81.3745 103.176 80.4058 101.238 79.437V78.9526C103.176 78.4683 104.629 77.9839 106.566 77.4995H107.051C108.504 77.9839 109.957 78.9526 111.41 79.437C111.41 79.437 111.41 79.437 110.926 79.9214C110.441 80.8901 108.988 80.8901 107.535 81.3745Z" fill="#9AD689"/>
<path d="M109.955 76.0474C111.893 76.0474 113.346 76.0474 114.799 77.5005C115.768 77.9849 116.736 78.4692 117.705 78.9536C117.705 78.9536 117.705 78.9536 117.221 78.9536C113.346 79.9224 109.955 78.9536 107.049 76.5317L106.564 76.0474H107.049C108.502 76.0474 109.471 76.0474 109.955 76.0474Z" fill="#9AD689"/>
<path d="M146.768 165.657C147.736 165.657 149.189 166.141 150.158 166.141C150.643 166.141 150.643 166.625 151.127 166.625C151.611 167.11 152.096 167.11 153.064 167.594C153.549 167.594 153.064 168.079 153.064 168.079C152.096 168.079 151.127 168.079 150.158 168.079C149.189 168.079 148.705 168.563 147.736 168.563H147.252C145.799 168.079 144.83 167.594 143.377 167.11C143.377 167.11 143.377 167.11 142.893 167.11C142.893 167.11 142.893 167.11 142.893 166.625C143.861 166.625 145.314 165.657 146.768 165.657Z" fill="#9AD689"/>
<path d="M129.813 84.7656C129.328 84.7656 128.844 84.7656 128.359 84.2812C126.906 83.7969 125.453 83.7969 123.516 84.2812C122.062 84.7656 121.094 84.2812 119.641 84.2812C119.156 84.2812 118.672 84.2812 118.188 84.2812C117.219 84.7656 115.766 85.25 114.312 85.25C113.828 85.25 113.344 85.25 112.859 85.7344C111.891 86.2187 110.438 86.7031 109.469 87.1875C108.984 87.6719 108.5 87.6719 108.016 88.1562C107.047 89.125 105.594 89.6094 104.141 90.0937C103.656 90.0937 103.172 90.5781 102.688 91.0625C102.203 92.0312 101.234 92.5156 100.266 93H99.7812C99.7812 93 99.7813 92.5156 100.266 92.5156C101.234 92.0312 102.203 91.0625 102.203 90.0937L102.688 89.6094C104.141 89.125 105.109 88.6406 106.562 88.1562C107.047 88.1562 107.047 87.1875 107.531 87.1875C107.531 87.1875 108.016 86.7031 108.5 86.7031C109.469 86.7031 109.953 86.7031 110.922 86.2187C111.406 86.2187 112.375 85.7344 112.859 85.25C113.344 85.25 113.828 84.7656 114.312 84.7656C115.281 84.7656 116.734 84.7656 117.219 84.2812C118.672 83.3125 120.125 83.3125 121.578 83.7969C122.547 83.7969 123.516 83.7969 124.969 83.7969C125.938 83.7969 126.906 83.3125 127.875 83.7969C128.844 84.2812 130.297 84.2812 131.266 84.2812H131.75C131.75 84.2812 131.75 84.2812 131.266 84.7656C130.781 84.2812 130.297 84.2812 129.813 84.7656Z" fill="#9AD689"/>
<path d="M92.9961 160.329C92.9961 160.813 92.9961 161.782 92.9961 162.266C92.9961 162.266 92.9961 162.266 92.5117 162.75C92.5117 162.75 92.5117 162.75 92.0273 162.266C91.543 161.297 91.543 160.329 90.5742 159.36C90.0898 158.875 89.6055 158.391 89.1211 157.907L88.6367 157.422C88.6367 155.485 88.6367 153.547 88.6367 151.61C88.6367 151.61 88.6367 151.61 88.6367 151.125C88.6367 151.125 88.6367 151.125 89.1211 151.125C92.0273 154.516 92.9961 156.938 92.9961 160.329Z" fill="#9AD689"/>
<path d="M98.3242 165.656C98.3242 165.656 98.3242 166.141 97.8398 166.141L97.3555 165.656C96.8711 164.688 96.3867 163.234 95.418 162.266C94.9336 161.781 94.4492 161.297 93.9648 161.297C93.9648 161.297 93.9648 160.813 93.4805 160.813C93.4805 159.359 93.4805 157.906 93.4805 156.937C93.4805 156.453 93.4805 156.453 93.4805 155.969V155.484H93.9648C96.3867 157.422 97.3555 160.328 97.8398 163.234C97.8398 164.203 97.8398 165.172 98.3242 165.656Z" fill="#9AD689"/>
<path d="M111.406 167.109C107.531 167.109 105.109 165.172 102.688 162.266C101.234 160.812 99.7813 159.844 97.8438 159.359C97.8438 159.359 97.3594 159.359 97.3594 158.875H97.8438C99.7813 158.875 101.719 159.844 103.172 161.297C105.109 163.234 107.047 164.687 109.469 165.172H109.953C110.438 166.141 111.406 166.141 111.891 166.141C112.375 166.141 112.859 166.141 112.859 166.625C112.375 166.625 111.891 166.625 111.406 166.625C111.891 167.109 111.891 167.109 111.406 167.109Z" fill="#9AD689"/>
<path d="M151.123 162.265C153.545 162.75 155.482 162.75 156.936 164.203C156.936 164.203 157.42 164.687 157.42 165.171C156.936 165.171 156.936 165.656 156.451 165.656C155.967 165.656 154.998 166.14 154.514 166.14C154.029 166.14 153.545 166.14 153.061 165.656C151.607 164.687 150.154 164.687 148.217 164.687C147.732 164.687 147.248 164.687 146.764 164.687H146.279L146.764 164.203C148.217 163.234 149.67 162.75 151.123 162.265Z" fill="#9AD689"/>
<path d="M144.344 170.984C144.828 170.984 145.312 170.984 145.312 170.984C146.281 170.984 146.281 171.469 146.766 171.953L146.281 172.438C145.312 172.438 143.859 172.438 142.891 172.438C141.922 172.438 140.953 171.953 140.469 171.469C140.469 170.984 139.984 170.984 139.5 170.984C139.016 170.5 139.016 170.5 139.5 170.016C139.984 170.016 139.984 169.531 140.469 169.531C141.922 168.563 142.891 169.047 144.344 170.016C144.828 170.5 145.312 170.5 145.312 170.984C145.312 170.984 145.797 171.469 145.312 171.469C145.312 171.469 145.312 171.469 144.828 171.953C145.312 170.5 144.828 170.5 144.344 170.984Z" fill="#9AD689"/>
<path d="M143.373 153.547C142.889 156.938 140.951 159.844 137.561 161.297C136.592 161.782 135.623 162.266 134.654 162.75C134.654 162.75 134.654 162.75 134.17 162.75C135.139 161.782 136.592 160.329 137.561 159.36C139.982 157.422 141.436 155.485 143.373 153.547Z" fill="#9AD689"/>
<path d="M174.375 138.531C173.891 138.531 173.891 139.016 173.891 139.016C171.953 139.984 170.016 140.953 168.078 141.922C166.141 143.375 164.688 145.313 163.234 146.766L162.75 147.25V146.766C164.203 143.859 166.141 141.437 169.047 139.984C169.531 139.5 170.5 139.016 170.984 139.016C171.953 138.531 172.922 138.531 173.406 139.016C173.891 138.047 173.891 138.531 174.375 138.531Z" fill="#9AD689"/>
<path d="M101.717 156.937C101.232 156.937 101.232 156.453 101.232 156.453C100.748 155.968 99.7793 155 99.2949 154.515L98.8105 154.031C97.3574 153.546 96.873 152.578 96.3887 151.609C95.9043 150.64 94.9355 149.671 93.9668 149.187L93.4824 148.703C92.998 146.765 92.0293 144.828 90.5762 143.375C89.123 141.921 88.6387 139.984 88.1543 138.046C88.1543 138.046 88.1543 138.046 88.6387 138.046C88.1543 138.531 88.6387 138.531 88.6387 139.015C89.123 139.984 89.123 140.953 89.6074 141.921C90.0918 142.406 90.0918 143.375 90.5762 143.859C91.5449 145.312 92.0293 146.281 92.998 147.734C93.4824 148.218 93.9668 149.187 94.4512 149.671C95.4199 150.156 95.9043 151.125 96.873 152.093C96.873 152.578 97.3574 153.062 97.8418 153.062C98.8105 154.031 99.7793 154.515 100.748 155.484C101.232 155.968 101.232 155.968 101.717 155.968C102.201 155.968 102.686 155.968 102.686 156.453C102.686 156.937 102.201 156.937 101.717 156.937Z" fill="#9AD689"/>
<path d="M140.471 89.6094C141.439 89.6094 142.408 90.0938 143.377 90.5781L143.861 91.0625H143.377C141.924 90.5781 139.986 90.5781 138.533 90.0938H138.049C138.049 90.0938 138.049 89.6094 138.533 89.6094C140.471 88.1562 142.408 87.6719 144.346 87.6719H144.83C145.314 88.1562 146.283 89.125 146.768 89.6094C146.768 89.6094 146.768 89.6094 146.768 90.0938H146.283C145.314 89.6094 144.346 89.6094 143.377 89.125C142.408 89.125 141.439 89.125 140.471 89.6094C140.471 89.125 140.471 89.125 140.471 89.6094Z" fill="#9AD689"/>
<path d="M139.984 171.953C140.469 171.953 140.953 172.437 140.953 172.437C140.953 172.437 140.953 172.922 141.438 172.922H140.953H140.469C141.437 172.922 141.922 173.406 142.406 174.375V174.859H141.922C140.469 174.375 139.016 173.891 137.562 173.406C137.078 172.922 136.594 172.437 136.109 171.953V171.469C136.594 170.984 137.562 170.5 138.047 170.5H138.531C139.016 170.984 139.5 170.984 139.984 171.469C140.469 171.469 140.469 171.469 139.984 171.953Z" fill="#9AD689"/>
<path d="M100.266 164.203C99.7813 164.203 99.7812 164.687 99.2969 164.687H98.8125C98.8125 163.234 98.3281 161.781 97.3594 160.813C97.3594 160.813 97.3594 160.812 97.3594 160.328H97.8438C99.7813 160.812 101.234 162.266 102.203 164.203C102.688 165.172 102.687 166.141 103.172 167.109V167.594L102.688 167.109C102.203 166.141 101.719 165.656 100.75 164.687L100.266 164.203Z" fill="#9AD689"/>
<path d="M150.154 159.36C150.154 159.844 149.67 159.844 149.67 159.844C148.701 160.329 147.732 161.297 146.764 161.782C146.764 161.782 146.764 161.782 146.279 161.782C146.279 161.782 146.279 161.782 146.279 161.297C146.764 160.813 146.279 160.329 145.795 160.329C144.342 160.329 142.889 160.329 141.92 160.329H141.436C141.436 160.329 141.436 160.329 141.92 159.844C144.342 158.875 146.764 157.907 149.186 158.391C149.186 158.875 149.67 159.36 150.154 159.36Z" fill="#9AD689"/>
<path d="M173.891 131.266C174.375 131.266 174.375 131.266 174.859 131.266L175.344 131.75L174.859 132.234C173.891 132.719 172.437 133.688 171.469 134.172C169.047 135.625 167.109 138.047 165.656 140.469L165.172 140.953V140.469C166.141 137.078 168.078 134.656 170.5 132.719C170.984 132.234 171.953 131.75 172.438 131.266C173.406 131.75 173.406 131.75 173.891 131.266Z" fill="#9AD689"/>
<path d="M83.3105 129.329C83.3105 128.36 83.7949 127.391 83.7949 126.907H84.2793C85.248 127.875 85.7324 128.844 86.2168 129.813C86.7012 130.782 87.1855 131.75 87.6699 132.235V132.719H87.1855C85.7324 132.719 84.2793 131.266 83.3105 129.329Z" fill="#9AD689"/>
<path d="M142.41 157.906C142.41 157.422 142.895 156.937 143.379 156.453C144.348 155.484 145.801 154.031 146.77 153.062C147.254 152.578 147.254 152.093 147.738 152.093C147.738 152.093 148.223 152.094 148.223 151.609V152.093C147.738 154.031 147.254 155.484 145.801 156.937C145.316 157.422 144.348 158.39 143.379 158.875C142.895 159.359 142.41 158.875 142.41 157.906Z" fill="#9AD689"/>
<path d="M161.301 160.329C160.816 160.329 159.848 159.844 159.363 159.844C156.457 159.844 153.066 159.844 150.16 161.297H149.676C149.676 161.297 149.676 161.297 150.16 160.813C152.582 158.875 155.488 158.391 158.879 158.391C159.848 158.875 160.816 159.36 161.301 160.329Z" fill="#9AD689"/>
<path d="M126.906 79.4375C128.359 79.4375 129.328 79.9219 130.781 79.9219L131.266 80.4062C131.75 80.8906 132.234 81.8594 132.719 82.3437C132.719 82.3437 133.203 82.8281 133.203 83.3125C132.719 83.3125 132.234 83.7969 131.75 83.7969C129.813 82.8281 128.359 81.375 126.422 80.4062C126.422 79.9219 126.422 79.4375 126.906 79.4375Z" fill="#9AD689"/>
<path d="M85.7324 138.046C85.7324 139.5 85.248 141.437 85.248 142.89C85.248 142.89 85.248 142.89 85.248 143.375C85.248 143.375 85.248 143.375 84.7637 142.89C84.2793 141.921 83.7949 140.468 83.3105 139.5C83.3105 139.015 83.3105 139.015 83.3105 138.531C83.7949 138.046 83.7949 137.078 84.2793 136.593C84.2793 136.109 84.7637 136.109 84.7637 135.625C85.248 136.109 85.248 136.593 85.7324 136.593C85.7324 137.078 85.7324 137.562 85.7324 138.046Z" fill="#9AD689"/>
<path d="M80.4062 128.844C80.4062 128.844 80.8906 128.844 80.8906 128.359L81.375 127.875C81.8594 126.906 82.3438 125.938 82.8281 124.969C82.8281 124.969 82.8281 124.484 83.3125 124.484C83.3125 124.484 83.7969 124.484 83.7969 124.969C83.7969 125.453 84.2812 125.937 83.7969 126.422C83.3125 128.359 82.8281 129.812 81.8594 131.75C81.8594 132.234 81.375 132.234 81.375 132.719C81.375 132.234 80.8906 132.234 80.8906 131.75C80.8906 130.781 80.8906 129.812 80.4062 128.844Z" fill="#9AD689"/>
<path d="M175.346 125.937C171.471 127.875 169.533 130.297 167.596 133.687L167.111 134.172C167.111 133.687 167.111 133.687 167.111 133.203C168.08 129.812 170.018 126.906 172.924 124.969C173.893 125.453 174.861 124.969 175.346 125.937Z" fill="#9AD689"/>
<path d="M84.2813 118.672C84.2813 121.094 82.8281 123.516 81.8594 125.453C81.8594 125.937 81.375 126.422 80.8906 126.422H80.4062C80.4062 126.422 80.4062 126.422 80.4062 125.938C80.4062 124.969 80.4062 124 80.4062 123.031C80.4062 123.031 80.4062 123.031 80.8906 123.031C81.375 123.031 81.375 123.031 81.8594 122.547C82.3438 121.578 82.8281 120.609 83.7969 119.641C83.3125 120.125 83.3125 119.641 84.2813 118.672C83.7969 118.672 83.7969 118.672 84.2813 118.672Z" fill="#9AD689"/>
<path d="M142.895 83.313C143.379 83.313 143.379 83.313 143.379 83.7974C144.348 84.2817 144.832 84.7661 145.801 84.7661V85.2505C145.316 85.7349 145.316 85.7349 145.801 86.2192C146.77 87.6724 147.738 88.6411 148.223 90.0942V90.5786H147.738C145.316 89.1255 143.863 86.7036 142.41 84.2817C142.895 83.7974 142.895 83.7974 142.895 83.313Z" fill="#9AD689"/>
<path d="M84.2773 132.234C83.793 134.172 83.793 135.625 83.3086 137.562L82.8242 138.047L82.3398 137.562C81.8555 136.594 81.8555 135.625 81.3711 134.656C81.3711 134.172 81.3711 134.172 81.8555 134.172C81.8555 134.172 82.3398 134.172 82.3398 133.688C82.3398 133.203 82.8242 132.234 82.8242 131.75V131.266C82.8242 131.266 83.3086 131.266 83.3086 131.75C83.793 131.266 84.2773 131.75 84.2773 132.234Z" fill="#9AD689"/>
<path d="M146.283 162.265C145.799 162.749 144.83 163.234 144.346 163.718C143.377 162.749 141.924 162.749 140.955 162.749C139.986 162.749 139.502 162.749 138.533 162.749H138.049C138.049 162.749 138.049 162.749 138.533 162.749C140.471 161.781 142.408 161.781 143.861 162.265C144.346 162.265 144.83 162.265 145.314 162.265C145.799 161.296 145.799 161.781 146.283 162.265Z" fill="#9AD689"/>
<path d="M84.7617 121.093C85.7305 123.031 86.2148 124.968 87.1836 126.421C87.668 127.39 88.1523 127.875 88.6367 128.359C88.6367 128.359 88.6367 128.359 88.6367 128.843C88.6367 128.843 88.6367 128.843 88.1523 128.843C85.2461 127.875 83.793 125.453 83.793 122.546C84.2773 122.062 84.2773 121.578 84.7617 121.093Z" fill="#9AD689"/>
<path d="M137.082 84.2808C137.082 84.2808 136.598 84.2808 136.598 83.7964C135.145 82.8276 134.176 81.3745 132.723 80.4058V79.9214H133.207C134.66 80.4058 135.629 80.4058 137.082 80.8901V81.3745C137.082 81.8589 137.082 81.8589 137.082 82.3433C137.566 82.8276 138.051 83.312 138.535 83.7964L139.02 84.2808C138.051 84.2808 138.051 84.2808 137.082 84.2808C137.566 84.2808 137.566 84.2808 137.082 84.2808Z" fill="#9AD689"/>
<path d="M142.893 87.1877C142.893 87.1877 142.408 87.1877 142.408 86.7034C140.955 85.2502 139.502 83.7971 138.049 82.344V81.8596H138.533C139.502 82.344 140.471 82.344 141.439 82.8284V83.3127V83.7971C141.924 84.7659 142.408 85.2502 143.377 86.219C143.377 86.219 143.377 86.7034 143.861 86.7034C143.377 86.7034 143.377 86.7034 142.893 87.1877Z" fill="#9AD689"/>
<path d="M174.377 119.156C174.861 119.156 174.861 119.641 174.861 119.641L174.377 120.125C171.955 121.094 170.502 123.516 170.018 125.937C170.018 126.422 169.533 126.906 169.533 127.391C169.533 127.391 169.533 127.391 169.533 126.906C170.018 124 170.502 121.094 173.408 119.156C173.408 119.641 173.893 119.641 174.377 119.156Z" fill="#9AD689"/>
<path d="M84.7695 134.172C84.7695 133.687 84.7695 133.203 84.7695 132.718V132.234C84.7695 132.234 85.2539 132.234 85.2539 132.718C85.7383 133.687 86.2227 134.172 86.707 135.14C87.1914 136.109 87.6758 137.078 88.6445 137.562C88.6445 137.562 88.6445 137.562 88.1602 137.562C86.707 137.078 85.2539 136.593 84.2852 135.14C84.7695 135.14 84.7695 134.656 84.7695 134.172Z" fill="#9AD689"/>
<path d="M140.951 87.6714C140.467 87.6714 140.467 87.6714 139.982 87.187C139.498 86.2183 138.045 86.2183 137.561 86.7026C136.592 86.7026 135.623 87.187 134.654 87.187C134.654 87.187 134.654 87.187 134.17 87.187C134.17 87.187 134.17 87.187 134.17 86.7026C135.623 85.7339 137.076 84.7651 138.529 84.7651H139.014C139.498 85.2495 139.982 85.7339 140.951 86.2183C140.951 86.2183 140.951 86.7026 141.436 86.7026C141.436 87.187 141.436 87.187 140.951 87.6714Z" fill="#9AD689"/>
<path d="M146.764 85.7344L147.248 85.25C148.217 85.25 148.701 86.2188 148.701 86.7031C149.186 87.6719 149.186 89.125 149.67 90.0938V90.5781H149.186C149.186 90.5781 148.701 90.5781 148.701 90.0938C147.732 88.6406 147.248 87.1875 146.279 85.7344C146.764 86.2188 146.764 86.2188 146.764 85.7344Z" fill="#9AD689"/>
<path d="M79.9238 121.094C81.377 119.64 82.3457 118.672 83.3145 117.703C83.3145 117.703 83.3145 117.703 83.7988 117.703V118.187C82.8301 119.64 82.3457 121.094 81.377 122.547L80.8926 123.031H80.4082C79.9238 122.062 79.9238 121.578 79.9238 121.094Z" fill="#9AD689"/>
<path d="M134.174 83.313C135.143 83.7974 135.627 84.2817 136.111 84.7661C136.111 84.7661 136.111 84.7661 136.111 85.2505C136.111 85.2505 136.111 85.2505 135.627 85.2505C135.143 85.2505 134.658 85.2505 134.658 85.2505C134.658 85.2505 134.174 85.2505 134.174 84.7661L133.689 84.2817C133.205 84.7661 132.236 85.2505 131.268 85.2505H130.783V84.7661C131.752 84.2817 132.721 83.313 134.174 83.313Z" fill="#9AD689"/>
<path d="M155.004 149.188C155.004 151.125 154.52 152.578 152.582 153.062H152.098V152.578C152.098 152.578 152.582 152.094 153.066 151.609C154.035 150.641 154.52 150.156 154.52 148.703C154.52 148.219 155.004 148.219 155.004 148.219C154.52 148.703 154.52 148.703 155.004 149.188Z" fill="#9AD689"/>
<path d="M95.9062 94.4531C95.4219 93.9687 95.4219 93.9688 94.9375 93.4844V93C95.4219 92.5156 95.9063 91.5469 96.3906 91.0625H96.875C96.875 91.0625 97.3594 91.5469 97.3594 92.0312C97.3594 92.0312 97.3594 92.0313 97.3594 92.5156C97.3594 92.5156 97.3594 92.5156 96.875 92.5156C96.875 93 96.3906 93.4844 96.3906 93.9688C96.3906 93.9688 95.9063 94.4531 96.3906 94.4531V94.9375C96.875 94.4531 96.3906 94.4531 95.9062 94.4531Z" fill="#9AD689"/>
<path d="M166.141 100.266C166.141 100.75 165.656 101.234 165.656 101.234C165.656 101.234 165.656 100.75 165.172 100.75C164.688 100.75 164.687 99.7813 164.203 100.266C163.719 100.75 163.234 100.75 163.719 101.719V102.203C163.719 102.203 163.234 102.203 163.234 101.719C163.234 101.234 163.234 100.75 163.234 100.75C163.234 100.266 163.719 100.266 163.719 99.7813C163.719 99.7813 163.719 99.7812 163.719 99.2969C163.719 99.2969 163.719 99.2969 163.234 99.2969C163.234 99.2969 163.234 99.2969 162.75 99.2969C163.234 99.2969 163.719 99.2969 164.203 99.2969C165.656 99.2969 166.141 99.7813 166.141 100.266C166.625 100.266 166.625 100.266 166.141 100.266Z" fill="#9AD689"/>
<path d="M116.73 163.234C116.246 162.75 115.762 162.75 115.277 162.266C115.762 161.297 118.184 161.297 118.668 162.266V162.75C118.184 162.75 117.215 163.234 116.73 163.234Z" fill="#9AD689"/>
<path d="M170.986 100.75V101.234C170.986 101.719 170.986 101.719 170.502 101.719C170.018 101.719 170.018 101.719 170.018 101.234C169.533 100.75 169.533 99.781 169.533 99.2966C169.533 98.8123 170.018 98.8123 170.502 99.2966C170.986 99.781 170.986 100.265 170.986 100.75Z" fill="#9AD689"/>
<path d="M90.5781 115.281C90.5781 114.797 90.5781 114.797 90.5781 114.313C90.0938 113.344 89.125 112.859 88.1563 113.344H87.6719C87.6719 113.344 87.6719 112.859 88.1563 112.859C88.1563 112.859 88.1562 112.859 88.6406 112.375C89.125 111.891 89.6094 111.891 88.6406 111.406C88.6406 111.406 88.6406 111.406 89.125 111.406C90.0938 111.406 91.0625 112.375 91.5469 113.828C91.0625 114.797 91.0625 114.797 90.5781 115.281Z" fill="#9AD689"/>
<path d="M95.9043 89.6091C95.9043 91.0623 95.4199 91.5466 93.9668 92.031C93.4824 92.031 92.998 91.5466 92.998 91.0623L93.4824 90.5779C94.4512 90.5779 94.9355 90.0935 95.9043 89.6091C95.4199 89.1248 95.4199 89.1248 95.9043 89.6091C95.9043 89.1248 95.9043 89.1248 95.9043 89.6091Z" fill="#9AD689"/>
<path d="M95.9078 86.219C95.9078 86.7034 95.4235 86.7034 95.4235 86.219C94.4547 85.2502 94.4547 85.2502 95.9078 84.2815H96.3922C97.361 84.7659 96.8766 85.7346 97.3609 86.7034C96.3922 86.7034 96.3922 86.219 95.9078 86.219Z" fill="#9AD689"/>
<path d="M121.582 79.9214C122.551 79.9214 123.035 80.4058 123.52 80.4058C124.004 80.4058 124.488 80.8901 124.488 80.8901C124.488 80.8901 124.488 80.8901 124.973 81.3745H124.488C123.52 80.8901 122.551 80.8901 121.098 80.4058L120.613 79.9214C121.098 79.9214 121.582 79.9214 121.582 79.9214Z" fill="#9AD689"/>
<path d="M89.125 148.219C89.125 148.703 89.125 148.703 88.6406 148.703C88.6406 148.703 88.1563 148.703 88.1563 148.219C88.1563 146.766 87.6719 145.797 87.6719 144.344C88.6406 145.797 89.125 146.766 89.125 148.219Z" fill="#9AD689"/>
<path d="M94.4512 154.516C93.9668 155 93.9668 155 94.4512 154.516C93.9668 155 93.9668 155 93.9668 155C93.9668 154.516 93.4824 154.516 93.4824 154.031C93.4824 153.063 92.998 152.094 92.998 151.125C92.998 151.125 92.998 151.125 92.998 150.641C93.4824 152.094 93.9668 153.547 94.4512 154.516Z" fill="#9AD689"/>
<path d="M116.246 82.3442C115.277 82.3442 114.309 81.8599 113.34 81.3755L112.855 80.8911H113.34C114.309 81.3755 115.762 81.3755 116.73 81.8599C117.215 81.8599 117.215 81.8599 116.246 82.3442C116.73 81.8599 116.73 81.8599 116.246 82.3442Z" fill="#9AD689"/>
<path d="M166.143 138.531C166.143 138.531 165.658 138.531 165.658 139.016C164.689 139.5 163.721 139.985 162.268 140.469C163.236 139.985 164.205 139.016 165.658 138.531C165.658 138.047 165.658 138.047 166.143 138.531C166.143 138.047 166.143 138.047 166.143 138.531Z" fill="#9AD689"/>
<path d="M110.92 84.2813C109.951 84.2813 108.982 83.7969 108.014 83.3125C108.014 83.3125 107.529 83.3125 107.529 82.8281H108.014C108.982 82.8281 110.436 83.3125 110.92 84.2813C111.404 83.7969 111.404 84.2813 111.404 84.2813C111.404 83.7969 111.404 83.7969 110.92 84.2813Z" fill="#9AD689"/>
<path d="M163.23 143.859C162.746 143.859 162.746 144.344 162.262 144.344C161.293 144.828 160.324 145.312 159.355 145.797C159.355 145.797 159.355 145.797 158.871 145.797C158.871 145.797 158.871 145.797 158.871 145.312C159.84 144.828 160.809 143.859 161.777 143.375C162.746 143.375 162.746 143.859 163.23 143.859Z" fill="#9AD689"/>
<path d="M98.3301 158.391C97.8457 158.391 97.3613 157.906 97.3613 157.422C97.3613 156.453 96.877 155.969 96.877 155C96.877 155 96.877 155 96.877 154.516C97.8457 155.969 98.3301 156.938 98.3301 158.391Z" fill="#9AD689"/>
<path d="M103.168 86.703C102.684 86.703 102.199 86.703 101.23 86.703C101.23 86.703 101.23 86.7029 100.746 86.2186C100.746 86.2186 100.746 85.7342 101.23 86.2186C102.199 86.2186 103.652 86.2186 104.621 86.703C104.621 86.703 104.137 86.703 103.168 86.703Z" fill="#9AD689"/>
<path d="M167.596 132.719C167.596 133.203 167.596 133.688 167.111 133.688C166.627 134.172 165.658 134.656 165.174 135.141C165.174 135.141 165.174 135.141 164.689 135.141C165.658 134.172 166.627 133.688 167.596 132.719Z" fill="#9AD689"/>
<path d="M165.654 130.297C165.654 129.812 165.654 129.812 165.654 130.297C166.139 129.812 166.623 129.328 167.107 128.844H167.592V129.328C167.107 129.328 166.623 129.812 165.654 130.297Z" fill="#9AD689"/>
<path d="M79.9238 110.922C79.9238 109.469 80.8926 108.984 81.8613 108.015H82.3457C82.8301 108.5 83.3145 108.984 83.7988 109.953C83.7988 110.437 83.3145 110.437 82.8301 110.437C82.3457 109.953 82.3457 110.437 82.3457 110.922C82.3457 112.375 81.8613 113.344 81.8613 114.797V115.281C80.8926 114.312 80.4082 114.312 80.4082 114.312C80.4082 113.344 79.9238 111.89 79.9238 110.922Z" fill="#9AD689"/>
</g>
<defs>
<clipPath id="clip0_68_436">
<rect width="155" height="155" fill="white" transform="translate(46.5 46.5)"/>
</clipPath>
</defs>
</svg>
