<svg width="248" height="248" viewBox="0 0 248 248" fill="none" xmlns="http://www.w3.org/2000/svg">
<rect width="248" height="248" rx="16" fill="white" fill-opacity="0.1"/>
<path d="M172.916 75.4781C173.394 76.9123 173.872 78.3465 174.35 79.7807C174.828 84.5613 173.872 88.3858 171.96 92.6884C171.003 94.1226 170.047 95.5568 169.091 97.4691C168.613 98.4252 168.135 98.9033 168.135 99.8594C167.657 100.816 168.613 101.772 169.569 101.294C170.525 101.294 171.003 100.816 171.96 100.337C172.438 100.337 172.916 99.8594 173.394 99.8594C171.96 102.728 171.003 106.074 168.135 108.465C166.701 109.421 165.745 110.377 164.311 111.333C161.92 112.289 160.486 114.201 159.052 116.114V116.592C159.53 116.592 159.53 116.114 160.008 116.114C161.442 115.158 162.398 114.679 164.311 114.201C165.745 113.723 167.179 113.245 169.091 112.767C171.481 112.289 174.35 111.333 175.784 108.943C175.784 109.421 175.784 109.421 175.784 109.899C174.828 113.245 172.916 115.636 170.525 117.548C168.613 118.982 166.701 119.938 164.789 120.894C164.311 121.372 163.832 121.372 162.876 121.85C161.92 122.328 162.398 123.285 163.354 123.763C164.311 124.241 165.267 124.241 166.223 124.241C165.745 124.241 165.267 124.719 165.267 125.197C163.354 126.631 160.486 127.109 158.096 128.065C155.705 129.021 153.315 129.978 150.925 130.934C150.447 130.934 149.969 131.412 149.49 131.89C149.49 131.89 149.49 131.89 149.49 132.368H149.969C149.49 132.368 150.925 132.368 151.881 132.368C154.271 132.846 156.661 132.368 159.052 131.412C159.052 131.89 159.052 131.89 158.574 132.368C155.227 137.149 150.925 140.017 145.188 140.495C142.798 140.495 140.885 140.495 138.495 140.017C138.017 140.017 137.061 140.017 136.583 140.017C136.105 140.017 135.627 140.495 136.105 140.973C137.539 141.451 138.973 141.929 139.451 143.841C136.583 143.841 133.714 144.32 131.324 142.885C129.89 144.32 129.89 149.578 132.28 150.534C133.714 149.578 133.236 148.144 133.714 146.71C134.192 147.666 134.192 148.622 134.67 149.1C135.149 150.056 135.149 151.012 135.149 151.969C135.149 152.925 134.67 153.403 134.192 154.359C134.192 154.837 133.714 155.315 134.192 155.793C135.149 155.793 135.627 155.793 136.583 154.359C136.583 157.227 133.714 159.618 131.802 159.618C131.802 158.661 132.28 158.183 131.802 157.227C130.846 157.227 130.368 158.661 129.412 159.14C130.368 156.749 130.368 153.881 129.412 151.49C128.456 152.447 128.934 154.359 127.978 155.315C127.499 154.837 127.499 154.837 127.499 154.359C127.499 153.881 127.499 153.403 127.499 152.925C127.499 152.447 127.021 151.012 126.543 150.056C125.109 148.622 124.631 147.188 124.631 145.276C124.631 144.798 124.631 144.32 125.109 143.841C125.109 143.363 125.109 143.363 125.109 142.885H124.631C123.675 144.32 123.197 145.276 122.719 147.188C122.719 147.666 122.719 147.666 122.719 148.144C124.153 150.056 124.153 152.447 123.197 154.359C123.197 154.359 123.197 154.837 122.719 154.837C122.719 153.403 122.241 152.447 121.763 151.49C121.763 151.012 121.763 150.534 121.285 150.534C121.285 150.056 121.285 150.056 121.285 149.578C119.85 150.534 119.372 152.447 120.328 153.881C120.807 154.837 120.807 156.271 120.328 157.227C120.328 157.705 119.85 157.705 119.85 158.183C119.372 157.705 119.372 157.227 119.372 156.749C119.372 156.271 119.372 155.793 119.372 155.315C118.416 155.793 117.938 156.749 117.46 157.227C116.982 158.183 116.982 159.14 117.46 160.096C114.592 161.052 111.245 157.705 111.245 155.793C111.723 156.271 112.201 157.227 113.158 156.749C113.636 155.793 113.636 154.837 113.158 154.359C112.679 153.881 112.679 152.925 112.201 152.447C111.723 151.49 111.723 150.534 112.679 150.056C113.158 149.578 113.636 148.622 114.114 148.144C114.114 148.622 114.114 149.1 114.114 149.1C113.636 150.056 114.114 150.534 114.592 151.012C115.07 151.49 115.07 151.969 115.548 152.447C116.026 151.969 116.026 151.969 116.504 151.49C117.46 150.534 117.46 149.578 117.46 148.622C117.46 147.188 117.46 145.276 116.982 143.841C116.982 143.363 116.504 143.363 116.504 142.885C116.026 142.885 116.026 143.363 115.548 143.363C113.636 144.319 111.245 145.276 108.855 144.798C107.899 144.798 106.943 144.798 106.465 145.276C106.465 144.798 106.943 144.32 106.943 144.32C107.421 143.363 107.899 142.407 109.333 142.407C109.811 142.407 110.289 141.929 110.289 141.451C109.811 140.495 108.855 140.495 107.899 140.495C105.987 140.495 104.074 140.973 102.64 140.973C99.2936 141.451 96.4252 140.017 93.5568 138.105C91.6446 137.149 90.2104 135.714 89.2542 133.802C88.7762 133.324 88.7762 132.846 88.7762 132.368C88.7762 131.89 89.7323 132.368 91.1665 132.368C91.6446 132.368 92.1226 132.368 92.6007 132.368C94.991 132.368 97.3813 131.89 99.7717 132.846C99.7717 132.846 100.25 132.846 100.728 132.846C100.25 132.368 100.25 132.368 100.25 131.89C97.3813 129.978 94.5129 128.065 90.6884 127.587C87.82 127.109 85.9078 126.153 83.5174 124.719C84.9516 124.719 86.3858 124.719 87.342 123.285C87.342 122.328 86.8639 122.328 86.3858 121.85C84.4736 120.894 83.0394 119.938 81.1271 118.982C78.2587 117.07 75.8684 115.158 74.4342 112.289C73.9561 111.333 73.4781 110.377 73.4781 109.421C73.9561 109.899 74.4342 110.855 75.3903 111.333C76.8245 112.289 78.2587 112.767 79.6929 113.245C80.171 113.245 82.0832 113.723 83.9955 114.201C85.4297 114.679 86.3858 115.158 87.82 115.636C88.2981 115.636 88.2981 115.636 88.7762 116.114C88.2981 115.636 88.2981 115.158 87.82 115.158C85.4297 112.289 82.5613 109.899 79.2149 107.987C76.3465 105.596 74.9123 102.25 74.4342 98.9033C74.9123 99.3813 75.3903 99.8594 75.8684 99.8594C76.3465 100.337 76.8245 100.816 77.7807 100.816C78.7368 101.294 79.2149 100.816 79.6929 99.8594C79.6929 99.3813 79.6929 98.4252 79.6929 97.9471C79.2149 96.991 78.7368 96.0349 77.7807 95.0788C75.3903 92.6884 74.4342 90.2981 73.9561 87.9078C73 85.9955 73 83.6052 73 81.6929C73 79.7807 73.4781 77.3903 73.9561 75.4781L74.4342 75C74.4342 75.9561 74.4342 76.4342 74.4342 77.3903C74.9123 78.8245 75.8684 80.2587 76.8245 81.6929C79.6929 84.5613 82.0832 87.4297 84.9516 90.2981C90.6884 96.5129 96.4252 103.206 102.64 109.421C107.899 115.158 113.158 120.894 118.894 127.109C119.372 127.587 119.372 127.587 119.85 128.065C119.85 127.587 120.328 127.587 120.328 127.109C120.807 125.197 121.285 123.285 121.763 121.85C122.241 119.46 121.763 118.026 119.372 117.548C119.372 117.548 119.372 117.548 118.894 117.548C119.372 116.592 120.328 116.114 121.285 116.592C121.763 116.592 122.241 117.07 122.719 117.548C123.197 118.026 123.675 118.026 124.631 118.026C125.587 118.026 126.543 118.504 127.021 118.982C127.978 119.938 128.934 121.372 129.89 122.807C129.412 122.807 128.934 122.328 128.934 122.328C128.456 122.328 127.499 122.807 127.499 123.285C127.978 125.197 128.456 127.109 128.934 129.021C129.412 129.021 129.412 128.543 129.89 128.543C131.802 126.631 133.714 124.241 135.627 122.328C138.495 119.46 140.885 116.114 143.754 113.245C147.1 109.899 149.969 106.074 153.315 102.728C156.183 99.3813 159.052 96.513 161.92 93.1665C164.311 90.2981 166.701 87.9078 169.091 85.0394C171.003 83.1271 172.438 80.2587 172.916 77.8684C172.438 77.3903 172.438 76.4342 172.916 75.4781Z" fill="#FF6A14"/>
<path d="M83.519 132.845C85.4313 134.279 87.8216 136.192 89.7339 137.626C91.1681 147.187 95.4707 154.836 103.12 160.573C109.813 165.832 117.462 168.222 125.589 167.744C141.843 166.788 156.185 154.836 158.575 136.67C160.488 135.235 162.4 133.323 164.79 131.889C164.79 138.104 163.834 143.363 161.444 148.621C159.053 153.88 155.707 158.661 151.882 162.485C138.018 175.393 117.94 176.349 103.598 167.744C89.7339 159.617 83.041 145.275 83.519 132.845Z" fill="#FF6A14"/>
<path d="M150.446 101.294C149.012 102.728 148.056 104.163 146.622 106.075C139.929 100.816 132.758 97.9478 124.631 97.9478C116.503 97.9478 108.854 100.816 102.161 105.597C100.727 104.163 99.7711 102.728 98.3369 100.816C105.03 95.5575 112.679 92.2111 121.284 91.733C132.28 91.2549 141.841 94.6014 150.446 101.294Z" fill="#FF6A14"/>
</svg>
