<svg width="248" height="248" viewBox="0 0 248 248" fill="none" xmlns="http://www.w3.org/2000/svg">
<rect width="248" height="248" rx="16" fill="white" fill-opacity="0.1"/>
<path d="M123.927 164.512C146.645 164.512 165.062 146.205 165.062 123.622C165.062 101.039 146.645 82.7321 123.927 82.7321C101.209 82.7321 82.7922 101.039 82.7922 123.622C82.7922 146.205 101.209 164.512 123.927 164.512Z" fill="#1A1C39"/>
<path d="M175.419 123.622C175.419 113.327 172.187 103.177 166.409 94.561V82.0506C166.409 81.7099 166.066 81.3691 165.723 81.3691H153.138C135.631 69.3699 112.517 69.3699 95.0103 81.3691H82.4495C82.2781 81.3691 82.1067 81.3691 81.9353 81.5395C81.7639 81.7099 81.7639 81.8802 81.7639 82.0506V94.3906C69.5214 111.964 69.5214 135.11 81.7639 152.683V165.023C81.7639 165.364 82.1067 165.705 82.4495 165.705H95.0348C112.713 177.704 135.827 177.534 153.505 165.534H165.919C166.262 165.534 166.604 165.194 166.604 164.682V152.342C172.358 144.067 175.419 133.942 175.419 123.622ZM79.3889 123.622C79.3889 99.1124 99.2707 79.3489 123.927 79.3489C148.583 79.3489 168.465 99.1124 168.465 123.622C168.465 148.132 148.583 167.895 123.927 167.895C99.2707 167.895 79.3889 148.132 79.3889 123.622Z" fill="#F4BF2A"/>
<path d="M94.3486 99.6236H111.17C110.827 101.473 110.656 103.347 110.656 105.368C111.341 112.791 116.263 133.406 116.263 133.406L124.245 101.327L132.423 132.749C132.423 132.749 137.344 105.027 137.344 103.177C137.173 101.814 136.487 100.475 135.312 99.6236H153.162C150.787 101.814 149.073 104.516 148.069 107.729C146.551 113.813 141.09 144.554 141.09 146.428C141.262 148.448 141.947 150.322 143.123 152.002H126.473C126.816 150.493 126.987 148.959 126.987 147.45C126.987 144.578 124.441 131.24 124.441 131.24C124.441 131.24 121.037 145.089 121.037 147.621C121.037 149.13 121.38 150.663 122.066 152.002H105.244C105.244 152.002 108.476 149.641 108.476 147.45C108.134 141.195 99.2946 108.58 98.609 106.049C98.0704 103.518 96.5523 101.157 94.3486 99.6236Z" fill="#F4BF2A"/>
</svg>
