<svg width="248" height="248" viewBox="0 0 248 248" fill="none" xmlns="http://www.w3.org/2000/svg">
<rect width="248" height="248" rx="16" fill="white" fill-opacity="0.1"/>
<g clip-path="url(#clip0_68_411)">
<path d="M69.5312 153.446L76.8906 148.54L84.25 154.918L80.325 159.334L77.3812 156.881L75.4187 157.862V170.618L77.3812 172.09L81.3063 170.128L84.25 174.543L76.8906 179.94L69.5312 175.524V153.446Z" fill="#E1A856"/>
<path d="M84.731 177.978L87.1841 175.525V155.409L92.581 153.447V173.072H96.0153L99.4497 171.109V177.978H84.731Z" fill="#E1A856"/>
<path d="M99.9502 177.979L101.422 176.507L104.856 160.807L103.875 160.317L113.688 155.411L113.197 158.354L119.085 178.961H112.706L111.725 175.036L107.31 175.526L106.819 178.47H99.9502V177.979ZM110.744 170.129L109.272 163.751L107.8 171.111L110.744 170.129Z" fill="#E1A856"/>
<path d="M134.775 166.694C134.775 169.147 134.775 172.091 134.775 174.544L129.378 179.45L121.528 176.016L125.453 172.091L129.378 174.053C129.378 172.581 129.378 171.6 129.378 170.128L122.018 166.203V158.844L128.397 153.938L136.247 157.372L132.322 161.788L127.906 159.825V163.75L134.775 166.694Z" fill="#E1A856"/>
<path d="M149.994 166.694C149.994 169.147 149.994 172.091 149.994 174.544L144.597 179.45L136.747 176.016L140.672 172.091L144.597 174.053C144.597 172.581 144.597 171.6 144.597 170.128L137.238 166.203V158.844L143.125 153.938L150.975 157.372L147.05 161.788L142.635 159.825V163.75L149.994 166.694Z" fill="#E1A856"/>
<path d="M154.9 177.978V159.334L152.938 158.843L160.297 155.899V178.468L154.9 177.978Z" fill="#E1A856"/>
<path d="M163.731 153.937L171.091 149.031L177.96 155.409L174.525 159.825L171.581 157.372L170.11 158.844V171.6L172.072 173.072L175.506 171.109L178.45 175.525L171.581 180.431L164.222 176.016V153.937H163.731Z" fill="#E1A856"/>
<path d="M85.2313 148.05C80.8156 141.181 78.8531 132.35 78.8531 124.5C78.8531 115.178 81.7969 106.347 87.1938 98.4969L88.175 97.5156V88.6844H97.0063L97.9875 87.7031C105.838 82.3063 114.669 79.3625 123.991 79.3625C133.313 79.3625 142.144 82.3063 149.994 87.7031L150.975 88.6844H159.806V97.5156L160.788 98.4969C166.184 106.347 169.128 115.178 169.128 124.5C169.128 133.822 167.656 140.2 163.241 148.541L172.072 144.125L174.034 146.088C177.469 139.219 178.45 132.35 178.45 124.5C178.45 113.706 175.506 103.403 169.619 94.5719V79.3625H154.409C144.597 73.475 134.294 70.5312 123.5 70.5312C112.706 70.5312 102.403 73.475 93.5719 79.3625H78.3625V94.5719C72.475 103.403 69.5312 113.706 69.5312 124.5C69.5312 131.859 71.0031 139.219 73.9469 146.088L77.8719 144.125L85.2313 148.05Z" fill="#E1A856"/>
<path d="M138.7 104.875C139.19 105.856 139.19 106.838 139.19 107.819L134.284 127.934L123.49 101.931L113.187 128.425L108.281 108.309C107.79 107.328 108.281 106.347 108.772 105.366L110.243 102.422H92.0903L95.5247 105.856C96.0153 106.347 96.506 107.328 96.506 107.819L104.847 144.616C105.337 146.088 104.847 147.559 103.375 148.541L100.431 151.484L105.828 153.938L112.697 150.994L116.622 151.484H118.584L116.622 147.069L123 128.916L129.378 147.069L128.397 150.503L136.737 152.466L140.662 150.503L145.568 150.994L143.115 148.541C142.134 147.559 141.643 146.088 141.643 144.616L149.984 107.819C149.984 106.838 150.475 106.347 150.965 105.856L154.4 102.422H136.247L138.7 104.875Z" fill="#E1A856"/>
</g>
<defs>
<clipPath id="clip0_68_411">
<rect width="157" height="157" fill="white" transform="translate(45 46)"/>
</clipPath>
</defs>
</svg>
