<svg width="48" height="48" viewBox="0 0 48 48" fill="none" xmlns="http://www.w3.org/2000/svg">
<rect width="48" height="48" rx="8" fill="white" fill-opacity="0.15"/>
<path fill-rule="evenodd" clip-rule="evenodd" d="M13.0137 35.3472L34.5022 17.4538C34.7659 17.2244 34.9796 16.9432 35.1299 16.6277C35.2801 16.3122 35.3638 15.9693 35.3756 15.6201C35.3875 15.271 35.3272 14.9231 35.1987 14.5982C35.0701 14.2733 34.876 13.9783 34.6284 13.7316C34.3808 13.4848 34.0849 13.2916 33.7593 13.1639C33.4337 13.0363 33.0853 12.9769 32.7357 12.9895C32.3862 13.0021 32.0429 13.0865 31.7274 13.2373C31.4119 13.388 31.1308 13.6021 30.9016 13.866L13.0137 35.3472ZM23.3727 16.2947L14.3256 23.0798L21.1083 14.0359C21.2473 13.8514 21.4244 13.6989 21.6275 13.5886C21.8306 13.4783 22.055 13.4128 22.2857 13.3966C22.5163 13.3803 22.7477 13.4137 22.9643 13.4945C23.181 13.5752 23.3777 13.7014 23.5413 13.8646C23.7049 14.0278 23.8315 14.2241 23.9126 14.4403C23.9937 14.6566 24.0274 14.8877 24.0114 15.118C23.9954 15.3484 23.9301 15.5726 23.8199 15.7756C23.7098 15.9786 23.5572 16.1556 23.3727 16.2947ZM34.3394 27.2368L25.2923 34.0219L32.0749 24.979C32.214 24.7945 32.391 24.6419 32.5942 24.5316C32.7973 24.4214 33.0217 24.3559 33.2524 24.3396C33.483 24.3234 33.7144 24.3568 33.931 24.4375C34.1476 24.5182 34.3444 24.6445 34.508 24.8076C34.6715 24.9708 34.7982 25.1671 34.8793 25.3834C34.9604 25.5996 34.9941 25.8307 34.9781 26.0611C34.9621 26.2914 34.8968 26.5157 34.7866 26.7187C34.6764 26.9217 34.5239 27.0977 34.3394 27.2368Z" fill="white"/>
</svg>
