<svg width="48" height="48" viewBox="0 0 48 48" fill="none" xmlns="http://www.w3.org/2000/svg">
<rect width="48" height="48" rx="8" fill="white" fill-opacity="0.15"/>
<path fill-rule="evenodd" clip-rule="evenodd" d="M13.6208 22.4108C19.9489 19.6537 24.1686 17.8361 26.2799 16.958C32.3082 14.4506 33.5609 14.015 34.3773 14.0006C34.5569 13.9975 34.9584 14.042 35.2185 14.253C35.4381 14.4312 35.4985 14.6719 35.5274 14.8409C35.5563 15.0098 35.5923 15.3947 35.5637 15.6954C35.237 19.1278 33.8235 27.4574 33.1044 31.3017C32.8001 32.9284 32.201 33.4738 31.6209 33.5272C30.6227 33.6191 29.8147 33.043 28.9153 32.4019C28.6789 32.2334 28.4363 32.0604 28.1822 31.8938C27.1849 31.2401 26.4141 30.7151 25.6413 30.1888C24.9336 29.7069 24.2243 29.2239 23.3379 28.6398C21.4933 27.4242 22.2655 26.6799 23.2951 25.6873C23.4618 25.5266 23.6353 25.3594 23.8054 25.1826C23.8814 25.1037 24.2529 24.7584 24.7766 24.2714L24.7769 24.2712L24.7769 24.2712C26.4574 22.7088 29.7047 19.6898 29.7867 19.3405C29.8001 19.2831 29.8126 19.0695 29.6857 18.9567C29.5588 18.8439 29.3714 18.8824 29.2362 18.9131C29.0446 18.9566 25.9926 20.9739 20.0801 24.965C19.2137 25.5599 18.4291 25.8497 17.726 25.8346C16.9509 25.8178 15.46 25.3963 14.3517 25.036C14.1891 24.9832 14.0305 24.9333 13.8774 24.8852L13.8769 24.885L13.8769 24.885C12.7504 24.5308 11.9231 24.2707 12.006 23.6101C12.055 23.2192 12.5932 22.8194 13.6208 22.4108Z" fill="white"/>
</svg>
