<svg width="837" height="836" viewBox="0 0 837 836" fill="none" xmlns="http://www.w3.org/2000/svg">
<path d="M836.83 405.952C836.905 408.62 836.956 411.295 836.981 413.975L836.481 413.98C836.494 415.318 836.5 416.658 836.5 418C836.5 419.342 836.494 420.682 836.481 422.021L836.981 422.026C836.956 424.706 836.905 427.38 836.829 430.048L836.33 430.034C836.254 432.699 836.154 435.358 836.028 438.01L836.528 438.034C836.401 440.712 836.249 443.384 836.073 446.049L835.574 446.016C835.397 448.683 835.195 451.343 834.968 453.997L835.466 454.039C835.239 456.7 834.986 459.353 834.709 461.999L834.212 461.947C833.933 464.611 833.629 467.267 833.3 469.916L833.796 469.978C833.467 472.63 833.113 475.274 832.734 477.91L832.239 477.839C831.859 480.484 831.454 483.121 831.024 485.75L831.518 485.83C831.086 488.473 830.63 491.107 830.149 493.732L829.657 493.642C829.176 496.264 828.671 498.878 828.142 501.483L828.632 501.583C828.098 504.208 827.54 506.825 826.958 509.433L826.47 509.324C825.888 511.93 825.281 514.527 824.65 517.115L825.136 517.233C824.503 519.83 823.846 522.416 823.165 524.993L822.681 524.865C821.998 527.451 821.29 530.026 820.559 532.591L821.04 532.728C820.307 535.297 819.551 537.855 818.771 540.403L818.293 540.256C817.51 542.812 816.704 545.357 815.874 547.892L816.349 548.047C815.517 550.588 814.662 553.119 813.782 555.638L813.31 555.473C812.431 557.992 811.529 560.5 810.603 562.996L811.072 563.17C810.141 565.679 809.187 568.177 808.21 570.663L807.745 570.481C806.769 572.964 805.77 575.435 804.748 577.895L805.21 578.087C804.184 580.556 803.135 583.014 802.064 585.459L801.606 585.258C800.534 587.704 799.439 590.137 798.322 592.558L798.776 592.768C797.657 595.193 796.516 597.605 795.352 600.004L794.902 599.786C793.736 602.19 792.548 604.581 791.338 606.959L791.783 607.186C790.571 609.567 789.337 611.934 788.081 614.288L787.64 614.053C786.384 616.408 785.105 618.75 783.805 621.078L784.242 621.322C782.938 623.656 781.613 625.975 780.267 628.281L779.835 628.029C778.49 630.332 777.124 632.622 775.736 634.897L776.163 635.157C774.771 637.44 773.358 639.708 771.923 641.962L771.501 641.693C770.068 643.944 768.615 646.18 767.14 648.402L767.557 648.678C766.079 650.904 764.581 653.115 763.062 655.311L762.651 655.027C761.132 657.222 759.594 659.402 758.035 661.566L758.44 661.858C756.879 664.025 755.298 666.177 753.697 668.312L753.297 668.012C751.696 670.148 750.074 672.268 748.433 674.372L748.828 674.679C747.185 676.785 745.522 678.875 743.84 680.949L743.452 680.634C741.771 682.706 740.07 684.762 738.351 686.801L738.733 687.123C737.011 689.166 735.27 691.191 733.509 693.2L733.133 692.87C731.375 694.876 729.598 696.866 727.802 698.838L728.172 699.174C726.373 701.149 724.556 703.107 722.72 705.047L722.357 704.704C720.523 706.642 718.671 708.562 716.801 710.465L717.158 710.815C715.285 712.72 713.395 714.607 711.487 716.476L711.137 716.118C709.231 717.985 707.308 719.834 705.366 721.664L705.709 722.027C703.766 723.86 701.805 725.674 699.826 727.469L699.49 727.099C697.515 728.891 695.523 730.664 693.514 732.419L693.843 732.796C691.831 734.553 689.802 736.29 687.757 738.009L687.435 737.626C685.393 739.342 683.335 741.039 681.259 742.716L681.574 743.105C679.497 744.783 677.404 746.442 675.295 748.082L674.988 747.687C672.881 749.324 670.759 750.942 668.62 752.54L668.919 752.94C666.781 754.538 664.627 756.115 662.458 757.672L662.166 757.266C659.999 758.821 657.817 760.357 655.619 761.871L655.903 762.283C653.704 763.798 651.491 765.293 649.262 766.767L648.986 766.35C646.763 767.82 644.524 769.271 642.271 770.7L642.539 771.122C640.283 772.553 638.012 773.963 635.727 775.351L635.467 774.924C633.19 776.308 630.899 777.671 628.594 779.012L628.845 779.444C626.537 780.787 624.215 782.108 621.879 783.408L621.636 782.971C619.306 784.268 616.963 785.543 614.606 786.795L614.84 787.237C612.484 788.489 610.115 789.72 607.732 790.929L607.506 790.483C605.126 791.69 602.733 792.875 600.327 794.037L600.545 794.487C598.144 795.648 595.73 796.786 593.304 797.901L593.095 797.447C590.673 798.561 588.238 799.652 585.79 800.721L585.991 801.179C583.544 802.247 581.086 803.293 578.615 804.316L578.424 803.854C575.963 804.872 573.49 805.868 571.005 806.841L571.188 807.307C568.7 808.281 566.201 809.232 563.69 810.159L563.517 809.69C561.02 810.613 558.511 811.513 555.992 812.389L556.156 812.861C553.635 813.738 551.104 814.591 548.562 815.42L548.407 814.945C545.872 815.772 543.326 816.576 540.769 817.355L540.915 817.834C538.366 818.611 535.807 819.365 533.238 820.095L533.102 819.614C530.536 820.343 527.96 821.048 525.374 821.729L525.501 822.213C522.924 822.892 520.336 823.547 517.74 824.177L517.622 823.691C515.034 824.32 512.436 824.925 509.829 825.505L509.938 825.993C507.33 826.574 504.713 827.13 502.086 827.661L501.987 827.171C499.382 827.699 496.768 828.202 494.145 828.681L494.235 829.173C491.609 829.652 488.975 830.107 486.332 830.537L486.252 830.044C483.623 830.472 480.986 830.875 478.341 831.254L478.412 831.749C475.775 832.126 473.13 832.479 470.478 832.808L470.417 832.311C467.768 832.639 465.111 832.942 462.447 833.22L462.499 833.717C459.853 833.994 457.2 834.245 454.539 834.472L454.497 833.974C451.844 834.2 449.183 834.401 446.516 834.577L446.549 835.076C443.884 835.252 441.212 835.403 438.533 835.529L438.51 835.03C435.858 835.155 433.199 835.255 430.534 835.33L430.548 835.83C427.88 835.905 425.205 835.956 422.525 835.981L422.52 835.481C421.182 835.494 419.842 835.5 418.5 835.5C417.158 835.5 415.818 835.494 414.479 835.481L414.475 835.981C411.794 835.956 409.12 835.905 406.452 835.83L406.466 835.33C403.801 835.255 401.142 835.155 398.49 835.03L398.466 835.529C395.788 835.403 393.116 835.252 390.451 835.076L390.484 834.577C387.817 834.401 385.156 834.2 382.503 833.974L382.46 834.472C379.8 834.245 377.147 833.994 374.501 833.717L374.553 833.22C371.889 832.942 369.232 832.639 366.583 832.311L366.521 832.807C363.869 832.479 361.225 832.126 358.588 831.749L358.659 831.254C356.014 830.875 353.377 830.472 350.748 830.044L350.668 830.537C348.025 830.107 345.391 829.652 342.765 829.173L342.855 828.681C340.232 828.202 337.618 827.699 335.013 827.171L334.913 827.661C332.287 827.13 329.67 826.573 327.062 825.993L327.17 825.505C324.564 824.925 321.966 824.32 319.378 823.691L319.26 824.177C316.663 823.547 314.076 822.892 311.499 822.213L311.626 821.729C309.04 821.048 306.464 820.343 303.898 819.614L303.761 820.095C301.192 819.365 298.633 818.611 296.085 817.834L296.23 817.355C293.674 816.576 291.128 815.772 288.593 814.945L288.438 815.42C285.896 814.591 283.364 813.738 280.844 812.861L281.008 812.389C278.489 811.513 275.98 810.613 273.483 809.69L273.309 810.159C270.799 809.232 268.3 808.281 265.812 807.307L265.995 806.841C263.51 805.868 261.037 804.872 258.576 803.854L258.385 804.316C255.914 803.293 253.456 802.247 251.009 801.179L251.209 800.721C248.762 799.652 246.327 798.561 243.905 797.447L243.696 797.901C241.269 796.786 238.856 795.648 236.455 794.487L236.672 794.037C234.267 792.875 231.874 791.69 229.494 790.483L229.268 790.929C226.885 789.72 224.516 788.489 222.16 787.237L222.394 786.795C220.037 785.542 217.694 784.268 215.364 782.971L215.121 783.408C212.785 782.108 210.463 780.787 208.155 779.444L208.406 779.012C206.101 777.671 203.81 776.308 201.533 774.924L201.273 775.351C198.988 773.963 196.717 772.553 194.461 771.122L194.729 770.7C192.476 769.271 190.237 767.82 188.013 766.35L187.738 766.767C185.509 765.293 183.296 763.798 181.097 762.283L181.381 761.871C179.183 760.357 177.001 758.821 174.834 757.266L174.542 757.672C172.373 756.115 170.219 754.538 168.081 752.94L168.38 752.54C166.241 750.942 164.118 749.324 162.012 747.687L161.705 748.082C159.596 746.442 157.503 744.783 155.426 743.105L155.741 742.716C153.665 741.039 151.607 739.342 149.565 737.626L149.243 738.009C147.198 736.29 145.169 734.552 143.157 732.796L143.486 732.419C141.477 730.664 139.485 728.891 137.51 727.099L137.174 727.469C135.195 725.674 133.234 723.86 131.291 722.027L131.634 721.664C129.692 719.833 127.769 717.985 125.863 716.118L125.513 716.476C123.605 714.607 121.715 712.72 119.842 710.815L120.199 710.465C118.329 708.562 116.477 706.642 114.643 704.704L114.28 705.047C112.444 703.107 110.627 701.149 108.828 699.174L109.198 698.838C107.402 696.866 105.625 694.876 103.867 692.87L103.491 693.2C101.73 691.191 99.9889 689.166 98.2667 687.123L98.649 686.801C96.9295 684.762 95.2292 682.706 93.5483 680.634L93.16 680.949C91.4779 678.875 89.8152 676.785 88.1723 674.679L88.5665 674.372C86.9256 672.268 85.3043 670.148 83.7031 668.012L83.3031 668.312C81.7019 666.177 80.1207 664.025 78.5597 661.858L78.9654 661.566C77.4064 659.402 75.8676 657.222 74.3493 655.027L73.9381 655.311C72.4192 653.115 70.9207 650.904 69.4431 648.678L69.8597 648.402C68.3852 646.18 66.9315 643.944 65.4987 641.693L65.0769 641.962C63.6424 639.708 62.2289 637.44 60.8367 635.157L61.2636 634.897C59.876 632.622 58.5096 630.332 57.1646 628.029L56.7328 628.281C55.3865 625.975 54.0615 623.655 52.7583 621.322L53.1949 621.078C51.8948 618.75 50.6163 616.408 49.3598 614.053L48.9187 614.288C47.6627 611.934 46.4287 609.566 45.2167 607.186L45.6623 606.959C44.4519 604.581 43.2636 602.19 42.0976 599.786L41.6478 600.004C40.484 597.605 39.3425 595.192 38.2236 592.768L38.6776 592.558C37.5605 590.137 36.4659 587.704 35.394 585.258L34.9361 585.459C33.8645 583.013 32.8157 580.556 31.7899 578.087L32.2516 577.895C31.2297 575.435 30.2307 572.964 29.2549 570.48L28.7895 570.663C27.8125 568.177 26.8586 565.679 25.9281 563.17L26.3969 562.996C25.4712 560.5 24.5687 557.992 23.6897 555.473L23.2176 555.638C22.3383 553.118 21.4825 550.588 20.6504 548.047L21.1256 547.891C20.2957 545.357 19.4894 542.812 18.707 540.256L18.2289 540.402C17.4488 537.854 16.6925 535.296 15.9601 532.728L16.441 532.591C15.7095 530.026 15.002 527.45 14.3186 524.865L13.8352 524.993C13.1541 522.416 12.4969 519.829 11.8641 517.233L12.3498 517.115C11.7191 514.527 11.1124 511.93 10.5302 509.324L10.0422 509.433C9.45963 506.825 8.90145 504.208 8.3679 501.582L8.85789 501.483C8.3286 498.878 7.8236 496.264 7.34312 493.642L6.85131 493.732C6.37025 491.106 5.91376 488.472 5.48206 485.83L5.97552 485.749C5.54607 483.121 5.14119 480.484 4.76113 477.839L4.26621 477.91C3.88738 475.274 3.53319 472.629 3.20386 469.977L3.70005 469.916C3.37112 467.267 3.06703 464.61 2.78802 461.946L2.29074 461.998C2.01362 459.352 1.76122 456.699 1.53377 454.039L2.03195 453.996C1.80511 451.343 1.60311 448.683 1.42619 446.016L0.927282 446.049C0.750496 443.384 0.598719 440.712 0.472182 438.033L0.971625 438.01C0.846329 435.357 0.74581 432.699 0.670294 430.034L0.170494 430.048C0.0948888 427.38 0.0443154 424.705 0.0190004 422.025L0.518978 422.02C0.506335 420.682 0.5 419.342 0.5 418C0.5 416.658 0.506337 415.318 0.518982 413.979L0.0190044 413.974C0.044322 411.294 0.0948981 408.62 0.170506 405.952L0.670305 405.966C0.745825 403.301 0.846347 400.642 0.971645 397.99L0.472202 397.966C0.598742 395.288 0.750522 392.616 0.92731 389.951L1.42621 389.984C1.60314 387.317 1.80514 384.657 2.03198 382.003L1.5338 381.961C1.76126 379.3 2.01366 376.647 2.29078 374.001L2.78806 374.053C3.06707 371.389 3.37116 368.733 3.70009 366.084L3.2039 366.022C3.53323 363.37 3.88743 360.726 4.26626 358.09L4.76118 358.161C5.14124 355.516 5.54612 352.879 5.97558 350.25L5.48212 350.17C5.91382 347.527 6.37032 344.893 6.85138 342.268L7.34319 342.358C7.82367 339.736 8.32867 337.122 8.85796 334.517L8.36798 334.417C8.90152 331.792 9.4597 329.175 10.0423 326.567L10.5303 326.676C11.1125 324.07 11.7191 321.473 12.3499 318.885L11.8641 318.767C12.497 316.17 13.1542 313.584 13.8353 311.007L14.3187 311.135C15.0021 308.549 15.7096 305.974 16.4411 303.409L15.9602 303.272C16.6926 300.703 17.4489 298.145 18.229 295.597L18.7071 295.744C19.4895 293.188 20.2958 290.643 21.1257 288.108L20.6505 287.953C21.4826 285.412 22.3384 282.881 23.2177 280.362L23.6898 280.527C24.5688 278.008 25.4713 275.5 26.397 273.004L25.9282 272.83C26.8587 270.321 27.8126 267.823 28.7896 265.337L29.255 265.519C30.2308 263.036 31.2298 260.565 32.2517 258.105L31.79 257.913C32.8158 255.444 33.8646 252.986 34.9362 250.541L35.3941 250.742C36.4659 248.296 37.5606 245.863 38.6777 243.442L38.2237 243.232C39.3426 240.808 40.4841 238.395 41.6478 235.996L42.0977 236.214C43.2636 233.81 44.452 231.419 45.6624 229.041L45.2168 228.814C46.4287 226.434 47.6628 224.066 48.9188 221.712L49.3599 221.947C50.6164 219.592 51.8948 217.25 53.1949 214.922L52.7584 214.678C54.0616 212.344 55.3865 210.025 56.7329 207.719L57.1647 207.971C58.5097 205.668 59.8761 203.378 61.2636 201.103L60.8368 200.843C62.229 198.56 63.6424 196.292 65.0769 194.038L65.4987 194.307C66.9315 192.056 68.3853 189.82 69.8597 187.598L69.4431 187.322C70.9208 185.096 72.4192 182.885 73.9381 180.689L74.3493 180.973C75.8676 178.778 77.4064 176.598 78.9654 174.434L78.5597 174.142C80.1207 171.975 81.7019 169.823 83.3031 167.688L83.7031 167.988C85.3044 165.852 86.9256 163.732 88.5666 161.628L88.1723 161.321C89.8152 159.215 91.4779 157.125 93.16 155.051L93.5484 155.366C95.2292 153.294 96.9295 151.238 98.649 149.199L98.2668 148.877C99.989 146.834 101.73 144.809 103.491 142.8L103.867 143.13C105.625 141.124 107.402 139.134 109.198 137.162L108.829 136.826C110.627 134.851 112.444 132.893 114.28 130.953L114.643 131.296C116.477 129.358 118.329 127.438 120.199 125.535L119.842 125.185C121.715 123.28 123.605 121.393 125.513 119.524L125.863 119.882C127.769 118.015 129.692 116.166 131.634 114.336L131.291 113.973C133.234 112.14 135.195 110.326 137.174 108.531L137.51 108.901C139.485 107.109 141.477 105.336 143.486 103.581L143.157 103.204C145.169 101.447 147.198 99.7096 149.243 97.9909L149.565 98.3737C151.607 96.6579 153.665 94.9612 155.741 93.284L155.426 92.8951C157.503 91.2166 159.596 89.5576 161.705 87.9183L162.012 88.3131C164.119 86.6758 166.241 85.0581 168.38 83.4604L168.081 83.0599C170.219 81.4625 172.373 79.885 174.542 78.3278L174.834 78.734C177.001 77.1786 179.183 75.6434 181.381 74.1288L181.097 73.7171C183.296 72.2019 185.509 70.7072 187.738 69.2333L188.014 69.6503C190.237 68.1795 192.476 66.7294 194.729 65.3002L194.461 64.878C196.717 63.4471 198.988 62.0372 201.273 60.6486L201.533 61.0759C203.81 59.692 206.101 58.3293 208.407 56.988L208.155 56.5558C210.463 55.213 212.785 53.8916 215.121 52.5919L215.364 53.0288C217.694 51.7323 220.037 50.4575 222.394 49.2045L222.16 48.763C224.516 47.5106 226.885 46.2799 229.268 45.0714L229.494 45.5174C231.874 44.3103 234.267 43.1253 236.673 41.9627L236.455 41.5125C238.856 40.3522 241.27 39.2142 243.696 38.0987L243.905 38.553C246.327 37.4391 248.762 36.3477 251.21 35.279L251.009 34.8208C253.456 33.7525 255.914 32.7069 258.385 31.6843L258.576 32.1463C261.037 31.1275 263.51 30.1316 265.995 29.1587L265.812 28.6931C268.3 27.7191 270.799 26.7681 273.31 25.8406L273.483 26.3096C275.98 25.3868 278.489 24.4873 281.008 23.6111L280.844 23.1388C283.365 22.2624 285.896 21.4093 288.438 20.5798L288.593 21.0552C291.128 20.228 293.674 19.4244 296.231 18.6446L296.085 18.1663C298.633 17.3888 301.193 16.635 303.762 15.905L303.898 16.386C306.464 15.6569 309.04 14.9517 311.626 14.2706L311.499 13.7871C314.076 13.1083 316.664 12.4534 319.26 11.8227L319.378 12.3086C321.966 11.6799 324.564 11.0753 327.171 10.4951L327.062 10.007C329.67 9.42645 332.287 8.8702 334.914 8.33852L335.013 8.82858C337.618 8.3011 340.232 7.79783 342.855 7.31901L342.765 6.82714C345.391 6.34774 348.025 5.89282 350.668 5.46262L350.748 5.95612C353.377 5.52819 356.014 5.12475 358.659 4.74604L358.588 4.25109C361.225 3.87359 363.87 3.52063 366.522 3.19246L366.583 3.68867C369.232 3.36089 371.889 3.05787 374.553 2.77984L374.501 2.28255C377.147 2.00643 379.8 1.75493 382.461 1.5283L382.503 2.02649C385.156 1.80045 387.817 1.59917 390.484 1.42288L390.451 0.923963C393.116 0.747812 395.788 0.59658 398.467 0.470497L398.49 0.969944C401.142 0.845095 403.801 0.744934 406.466 0.669686L406.452 0.169886C409.12 0.0945499 411.795 0.044157 414.475 0.0189325L414.48 0.51891C415.818 0.506313 417.158 0.5 418.5 0.5C419.842 0.5 421.182 0.506314 422.521 0.518914L422.525 0.0189359C425.206 0.0441627 427.88 0.0945575 430.548 0.169895L430.534 0.669696C433.199 0.744945 435.858 0.845108 438.51 0.969959L438.534 0.470512C441.212 0.596597 443.884 0.747832 446.549 0.923984L446.516 1.4229C449.183 1.59919 451.844 1.80048 454.497 2.02652L454.54 1.52832C457.2 1.75496 459.853 2.00645 462.499 2.28257L462.447 2.77987C465.111 3.0579 467.768 3.36093 470.417 3.68871L470.479 3.19249C473.131 3.52066 475.775 3.87362 478.412 4.25113L478.341 4.74608C480.986 5.12479 483.623 5.52823 486.252 5.95617L486.332 5.46266C488.975 5.89286 491.609 6.34778 494.235 6.82718L494.145 7.31905C496.768 7.79788 499.382 8.30115 501.987 8.82862L502.087 8.33856C504.713 8.87025 507.33 9.4265 509.938 10.0071L509.83 10.4951C512.436 11.0754 515.034 11.68 517.622 12.3086L517.74 11.8228C520.337 12.4535 522.924 13.1083 525.501 13.7872L525.374 14.2707C527.96 14.9518 530.536 15.657 533.102 16.386L533.239 15.9051C535.808 16.635 538.367 17.3889 540.915 18.1664L540.77 18.6446C543.326 19.4244 545.872 20.2281 548.407 21.0552L548.562 20.5799C551.104 21.4093 553.636 22.2624 556.156 23.1389L555.992 23.6112C558.511 24.4873 561.02 25.3869 563.517 26.3096L563.691 25.8406C566.201 26.7682 568.7 27.7191 571.188 28.6932L571.005 29.1588C573.49 30.1316 575.963 31.1276 578.424 32.1463L578.615 31.6844C581.086 32.707 583.544 33.7526 585.991 34.8209L585.791 35.2791C588.238 36.3477 590.673 37.4391 593.095 38.553L593.304 38.0987C595.731 39.2143 598.144 40.3523 600.545 41.5126L600.328 41.9628C602.733 43.1254 605.126 44.3104 607.506 45.5174L607.732 45.0715C610.115 46.28 612.484 47.5106 614.84 48.7631L614.606 49.2045C616.963 50.4575 619.306 51.7324 621.636 53.0289L621.879 52.5919C624.215 53.8916 626.537 55.213 628.845 56.5559L628.594 56.988C630.899 58.3293 633.19 59.6921 635.467 61.0759L635.727 60.6486C638.012 62.0373 640.283 63.4472 642.539 64.878L642.271 65.3003C644.524 66.7294 646.763 68.1796 648.987 69.6504L649.262 69.2333C651.491 70.7073 653.704 72.202 655.903 73.7171L655.619 74.1288C657.817 75.6435 659.999 77.1787 662.166 78.734L662.458 78.3278C664.627 79.8851 666.781 81.4625 668.919 83.0599L668.62 83.4605C670.759 85.0581 672.882 86.6758 674.988 88.3131L675.295 87.9184C677.404 89.5576 679.497 91.2167 681.574 92.8951L681.259 93.284C683.335 94.9612 685.393 96.6579 687.435 98.3737L687.757 97.9909C689.802 99.7096 691.831 101.447 693.843 103.204L693.514 103.581C695.523 105.336 697.515 107.109 699.49 108.901L699.826 108.531C701.805 110.326 703.766 112.14 705.709 113.973L705.366 114.336C707.308 116.167 709.231 118.015 711.137 119.882L711.487 119.524C713.395 121.393 715.286 123.28 717.158 125.185L716.801 125.535C718.671 127.438 720.523 129.358 722.357 131.296L722.72 130.953C724.556 132.893 726.373 134.851 728.172 136.826L727.802 137.162C729.598 139.134 731.375 141.124 733.133 143.13L733.509 142.8C735.27 144.809 737.011 146.834 738.733 148.877L738.351 149.199C740.07 151.238 741.771 153.294 743.452 155.366L743.84 155.051C745.522 157.125 747.185 159.215 748.828 161.321L748.433 161.628C750.074 163.732 751.696 165.852 753.297 167.988L753.697 167.688C755.298 169.823 756.879 171.975 758.44 174.142L758.035 174.434C759.594 176.598 761.132 178.778 762.651 180.973L763.062 180.689C764.581 182.885 766.079 185.096 767.557 187.322L767.14 187.598C768.615 189.82 770.069 192.056 771.501 194.307L771.923 194.038C773.358 196.292 774.771 198.56 776.163 200.843L775.736 201.103C777.124 203.378 778.49 205.668 779.835 207.971L780.267 207.719C781.614 210.025 782.938 212.345 784.242 214.678L783.805 214.922C785.105 217.25 786.384 219.592 787.64 221.947L788.081 221.712C789.337 224.066 790.571 226.434 791.783 228.814L791.338 229.041C792.548 231.419 793.736 233.81 794.902 236.214L795.352 235.996C796.516 238.395 797.657 240.808 798.776 243.232L798.322 243.442C799.44 245.863 800.534 248.296 801.606 250.742L802.064 250.541C803.135 252.987 804.184 255.444 805.21 257.913L804.748 258.105C805.77 260.565 806.769 263.036 807.745 265.52L808.211 265.337C809.188 267.823 810.141 270.321 811.072 272.83L810.603 273.004C811.529 275.5 812.431 278.008 813.31 280.527L813.782 280.362C814.662 282.882 815.517 285.412 816.35 287.953L815.874 288.109C816.704 290.643 817.511 293.188 818.293 295.744L818.771 295.598C819.551 298.145 820.307 300.704 821.04 303.272L820.559 303.409C821.291 305.974 821.998 308.55 822.681 311.135L823.165 311.007C823.846 313.584 824.503 316.171 825.136 318.767L824.65 318.885C825.281 321.473 825.888 324.07 826.47 326.676L826.958 326.567C827.54 329.175 828.099 331.792 828.632 334.418L828.142 334.517C828.671 337.122 829.176 339.736 829.657 342.358L830.149 342.268C830.63 344.894 831.086 347.528 831.518 350.17L831.024 350.251C831.454 352.879 831.859 355.516 832.239 358.161L832.734 358.09C833.113 360.726 833.467 363.371 833.796 366.023L833.3 366.084C833.629 368.733 833.933 371.39 834.212 374.054L834.709 374.002C834.986 376.647 835.239 379.301 835.466 381.961L834.968 382.004C835.195 384.657 835.397 387.317 835.574 389.984L836.073 389.951C836.249 392.616 836.401 395.288 836.528 397.967L836.028 397.99C836.154 400.643 836.254 403.301 836.33 405.966L836.83 405.952Z" stroke="url(#paint0_linear_1183_8919)" stroke-opacity="0.2" stroke-dasharray="8 8"/>
<path d="M768.5 418C768.5 611.576 611.799 768.5 418.5 768.5C225.201 768.5 68.5 611.576 68.5 418C68.5 224.424 225.201 67.5 418.5 67.5C611.799 67.5 768.5 224.424 768.5 418Z" stroke="url(#paint1_linear_1183_8919)" stroke-opacity="0.45"/>
<circle cx="418.5" cy="418.5" r="330" stroke="url(#paint2_linear_1183_8919)" stroke-opacity="0.3" stroke-dasharray="8 8"/>
<path d="M674 418C674 558.831 559.611 673 418.5 673C277.389 673 163 558.831 163 418C163 277.169 277.389 163 418.5 163C559.611 163 674 277.169 674 418Z" stroke="url(#paint3_linear_1183_8919)" stroke-opacity="0.7" stroke-width="2"/>
<defs>
<linearGradient id="paint0_linear_1183_8919" x1="418.5" y1="0" x2="418.5" y2="551.254" gradientUnits="userSpaceOnUse">
<stop stop-color="white" stop-opacity="0"/>
<stop offset="1" stop-color="white"/>
</linearGradient>
<linearGradient id="paint1_linear_1183_8919" x1="418.5" y1="92.2539" x2="418.5" y2="769" gradientUnits="userSpaceOnUse">
<stop stop-color="white" stop-opacity="0"/>
<stop offset="1" stop-color="white"/>
</linearGradient>
<linearGradient id="paint2_linear_1183_8919" x1="418.5" y1="88" x2="418.5" y2="749" gradientUnits="userSpaceOnUse">
<stop stop-color="white" stop-opacity="0"/>
<stop offset="1" stop-color="white"/>
</linearGradient>
<linearGradient id="paint3_linear_1183_8919" x1="418.5" y1="233.254" x2="418.5" y2="674" gradientUnits="userSpaceOnUse">
<stop stop-color="white" stop-opacity="0"/>
<stop offset="1" stop-color="white"/>
</linearGradient>
</defs>
</svg>
