<svg width="1024" height="184" viewBox="0 0 1024 184" fill="none" xmlns="http://www.w3.org/2000/svg">
<g clip-path="url(#clip0_1183_8912)">
<path d="M1564 -914.377C1564 -334.756 1093.23 135.123 512.5 135.123C-68.2292 135.123 -539 -334.756 -539 -914.377C-539 -1494 -68.2292 -1963.88 512.5 -1963.88C1093.23 -1963.88 1564 -1494 1564 -914.377Z" stroke="white" stroke-opacity="0.7" stroke-width="2"/>
<path d="M1612.94 -926.426C1612.96 -923.752 1612.98 -921.075 1612.99 -918.397L1612.24 -918.394C1612.25 -917.056 1612.25 -915.717 1612.25 -914.377C1612.25 -913.828 1612.25 -913.279 1612.25 -912.731C1612.25 -911.939 1612.25 -911.148 1612.24 -910.357L1612.99 -910.354C1612.98 -907.676 1612.96 -904.999 1612.94 -902.325L1612.19 -902.333C1612.17 -900.85 1612.15 -899.367 1612.13 -897.885C1612.11 -896.697 1612.09 -895.51 1612.07 -894.323L1612.82 -894.31C1612.77 -891.64 1612.71 -888.973 1612.65 -886.308L1611.9 -886.327C1611.83 -883.664 1611.75 -881.004 1611.67 -878.345L1612.42 -878.321C1612.33 -875.661 1612.24 -873.003 1612.13 -870.348L1611.38 -870.378C1611.28 -867.724 1611.16 -865.073 1611.04 -862.425L1611.79 -862.39C1611.67 -859.727 1611.53 -857.067 1611.39 -854.409L1610.64 -854.45C1610.5 -851.778 1610.34 -849.109 1610.18 -846.442L1610.93 -846.396C1610.76 -843.727 1610.59 -841.061 1610.41 -838.398L1609.66 -838.449C1609.48 -835.787 1609.29 -833.128 1609.09 -830.472L1609.83 -830.415C1609.63 -827.757 1609.42 -825.102 1609.2 -822.449L1608.45 -822.511C1608.23 -819.86 1608 -817.212 1607.77 -814.566L1608.51 -814.498C1608.27 -811.851 1608.02 -809.206 1607.77 -806.564L1607.02 -806.637C1606.76 -803.986 1606.49 -801.338 1606.22 -798.692L1606.96 -798.614C1606.68 -795.952 1606.39 -793.293 1606.1 -790.637L1605.35 -790.721C1605.05 -788.067 1604.74 -785.416 1604.43 -782.767L1605.17 -782.678C1604.86 -780.028 1604.53 -777.381 1604.19 -774.736L1603.45 -774.831C1603.21 -772.944 1602.96 -771.059 1602.71 -769.176C1602.61 -768.421 1602.51 -767.666 1602.41 -766.912L1603.16 -766.812C1602.8 -764.174 1602.44 -761.538 1602.06 -758.906L1601.32 -759.011C1600.95 -756.38 1600.56 -753.753 1600.17 -751.128L1600.91 -751.017C1600.52 -748.38 1600.12 -745.745 1599.7 -743.114L1598.96 -743.23C1598.7 -741.526 1598.42 -739.823 1598.15 -738.121C1598 -737.186 1597.85 -736.251 1597.69 -735.317L1598.43 -735.196C1598 -732.559 1597.56 -729.926 1597.1 -727.296L1596.37 -727.423C1595.91 -724.795 1595.45 -722.171 1594.98 -719.549L1595.72 -719.417C1595.25 -716.793 1594.77 -714.173 1594.28 -711.556L1593.54 -711.694C1593.42 -711.053 1593.3 -710.412 1593.18 -709.772C1592.81 -707.799 1592.43 -705.828 1592.05 -703.858L1592.78 -703.715C1592.28 -701.105 1591.76 -698.497 1591.23 -695.894L1590.5 -696.042C1590.25 -694.838 1590.01 -693.634 1589.76 -692.431C1589.47 -691.023 1589.18 -689.616 1588.88 -688.21L1589.62 -688.056C1589.07 -685.44 1588.51 -682.827 1587.94 -680.218L1587.21 -680.377C1586.64 -677.769 1586.07 -675.165 1585.48 -672.564L1586.21 -672.4C1585.63 -669.797 1585.03 -667.198 1584.43 -664.603L1583.7 -664.773C1583.09 -662.179 1582.48 -659.589 1581.86 -657.002L1582.59 -656.827C1581.96 -654.239 1581.33 -651.654 1580.69 -649.073L1579.96 -649.253C1579.32 -646.674 1578.67 -644.098 1578.01 -641.526L1578.74 -641.34C1578.07 -638.752 1577.4 -636.169 1576.72 -633.589L1576 -633.78C1575.31 -631.199 1574.62 -628.621 1573.92 -626.047L1574.65 -625.85C1573.95 -623.274 1573.24 -620.702 1572.52 -618.134L1571.8 -618.336C1571.08 -615.77 1570.35 -613.207 1569.61 -610.648L1570.33 -610.441C1569.6 -607.88 1568.85 -605.323 1568.1 -602.771L1567.38 -602.983C1566.62 -600.432 1565.86 -597.885 1565.09 -595.342L1565.8 -595.124C1565.03 -592.578 1564.25 -590.036 1563.46 -587.499L1562.74 -587.722C1561.94 -585.172 1561.14 -582.627 1560.33 -580.085L1561.04 -579.856C1560.23 -577.313 1559.41 -574.773 1558.57 -572.238L1557.86 -572.472C1557.03 -569.938 1556.19 -567.408 1555.34 -564.883L1556.05 -564.644C1555.2 -562.117 1554.34 -559.594 1553.48 -557.075L1552.77 -557.319C1551.9 -554.802 1551.02 -552.289 1550.14 -549.78L1550.85 -549.53C1549.96 -547.02 1549.07 -544.513 1548.16 -542.011L1547.46 -542.265C1546.55 -539.761 1545.64 -537.261 1544.72 -534.766L1545.42 -534.506C1544.5 -532 1543.56 -529.499 1542.62 -527.002L1541.92 -527.267C1540.98 -524.771 1540.03 -522.28 1539.07 -519.793L1539.77 -519.523C1538.81 -517.035 1537.84 -514.551 1536.86 -512.071L1536.16 -512.346C1535.18 -509.868 1534.2 -507.395 1533.2 -504.925L1533.9 -504.645C1532.9 -502.174 1531.9 -499.708 1530.88 -497.246L1530.19 -497.531C1529.18 -495.071 1528.16 -492.615 1527.13 -490.164L1527.82 -489.874C1526.78 -487.415 1525.74 -484.961 1524.69 -482.511L1524 -482.807C1522.95 -480.355 1521.89 -477.907 1520.82 -475.464L1521.51 -475.164C1520.44 -472.719 1519.36 -470.279 1518.28 -467.844L1517.59 -468.15C1517.16 -467.193 1516.74 -466.238 1516.31 -465.283C1515.64 -463.808 1514.98 -462.335 1514.31 -460.863L1514.99 -460.553C1513.89 -458.127 1512.77 -455.706 1511.65 -453.289L1510.97 -453.605C1509.85 -451.19 1508.72 -448.78 1507.59 -446.375L1508.26 -446.054C1507.13 -443.648 1505.98 -441.246 1504.82 -438.848L1504.15 -439.174C1502.99 -436.771 1501.82 -434.373 1500.65 -431.98L1501.32 -431.649C1500.15 -429.254 1498.96 -426.863 1497.77 -424.477L1497.1 -424.813C1495.91 -422.429 1494.71 -420.05 1493.5 -417.675L1494.17 -417.335C1492.96 -414.959 1491.74 -412.588 1490.51 -410.223L1489.85 -410.568C1488.62 -408.203 1487.39 -405.844 1486.14 -403.49L1486.81 -403.14C1485.56 -400.784 1484.31 -398.434 1483.05 -396.088L1482.39 -396.443C1481.13 -394.097 1479.86 -391.757 1478.59 -389.422L1479.25 -389.062C1477.97 -386.72 1476.68 -384.383 1475.38 -382.052L1474.73 -382.416C1474.36 -381.767 1474 -381.118 1473.64 -380.469C1472.7 -378.791 1471.76 -377.115 1470.81 -375.442L1471.47 -375.073C1470.15 -372.752 1468.83 -370.436 1467.5 -368.125L1466.85 -368.499C1465.53 -366.19 1464.19 -363.887 1462.84 -361.588L1463.49 -361.209C1462.15 -358.91 1460.79 -356.615 1459.43 -354.326L1458.79 -354.709C1457.42 -352.421 1456.06 -350.139 1454.68 -347.862L1455.32 -347.474C1453.94 -345.193 1452.55 -342.916 1451.16 -340.646L1450.52 -341.038C1449.12 -338.767 1447.72 -336.502 1446.31 -334.241L1446.94 -333.844C1445.53 -331.582 1444.11 -329.326 1442.68 -327.075L1442.04 -327.477C1440.62 -325.228 1439.18 -322.985 1437.74 -320.747L1438.37 -320.34C1436.92 -318.1 1435.47 -315.866 1434.01 -313.638L1433.38 -314.049C1431.92 -311.822 1430.45 -309.601 1428.98 -307.386L1429.6 -306.97C1428.12 -304.753 1426.64 -302.541 1425.15 -300.336L1424.53 -300.756C1423.03 -298.548 1421.53 -296.346 1420.02 -294.15L1420.64 -293.725C1419.13 -291.527 1417.61 -289.334 1416.08 -287.148L1415.47 -287.577C1413.94 -285.392 1412.41 -283.213 1410.87 -281.04L1411.48 -280.606C1409.94 -278.431 1408.39 -276.262 1406.83 -274.099L1406.23 -274.537C1404.67 -272.376 1403.11 -270.22 1401.53 -268.07L1402.14 -267.628C1400.57 -265.476 1398.99 -263.331 1397.4 -261.192L1396.8 -261.639C1395.21 -259.5 1393.62 -257.367 1392.01 -255.24L1392.61 -254.788C1391.01 -252.658 1389.4 -250.534 1387.78 -248.416L1387.18 -248.872C1385.56 -246.755 1383.94 -244.645 1382.3 -242.541L1382.89 -242.081C1381.26 -239.975 1379.62 -237.875 1377.97 -235.781L1377.38 -236.246C1375.73 -234.154 1374.07 -232.068 1372.41 -229.988L1373 -229.519C1371.33 -227.438 1369.66 -225.363 1367.98 -223.294L1367.4 -223.766C1365.72 -221.699 1364.03 -219.638 1362.34 -217.583L1362.92 -217.106C1361.22 -215.048 1359.52 -212.997 1357.81 -210.952L1357.24 -211.433C1355.53 -209.389 1353.81 -207.351 1352.09 -205.319L1352.66 -204.834C1350.93 -202.801 1349.2 -200.775 1347.46 -198.755L1346.89 -199.244C1345.16 -197.225 1343.41 -195.213 1341.66 -193.207L1342.22 -192.714C1340.47 -190.706 1338.71 -188.705 1336.94 -186.711L1336.38 -187.208C1334.61 -185.215 1332.84 -183.229 1331.06 -181.249L1331.61 -180.747C1329.83 -178.766 1328.04 -176.791 1326.25 -174.822L1325.69 -175.328C1323.9 -173.36 1322.09 -171.399 1320.28 -169.444L1320.83 -168.935C1319.02 -166.979 1317.2 -165.029 1315.38 -163.087L1314.83 -163.6C1313.01 -161.659 1311.18 -159.724 1309.34 -157.796L1309.88 -157.278C1308.04 -155.349 1306.2 -153.426 1304.34 -151.51L1303.8 -152.031C1301.95 -150.117 1300.09 -148.209 1298.23 -146.307L1298.76 -145.782C1296.9 -143.88 1295.02 -141.984 1293.14 -140.095L1292.61 -140.624C1290.73 -138.736 1288.85 -136.855 1286.95 -134.981L1287.48 -134.448C1285.59 -132.573 1283.69 -130.704 1281.78 -128.843L1281.25 -129.38C1279.35 -127.519 1277.43 -125.666 1275.52 -123.819L1276.03 -123.279C1274.11 -121.431 1272.19 -119.59 1270.25 -117.756L1269.74 -118.3C1267.8 -116.468 1265.86 -114.642 1263.92 -112.823L1264.43 -112.275C1262.48 -110.455 1260.53 -108.642 1258.57 -106.836L1258.06 -107.388C1256.1 -105.583 1254.13 -103.785 1252.16 -101.995L1252.66 -101.439C1250.69 -99.6481 1248.71 -97.8641 1246.72 -96.0873L1246.22 -96.6462C1244.24 -94.8706 1242.25 -93.1021 1240.25 -91.3406L1240.75 -90.7781C1238.75 -89.0155 1236.74 -87.2599 1234.73 -85.5116L1234.24 -86.0778C1232.23 -84.3307 1230.21 -82.5908 1228.19 -80.858L1228.67 -80.2885C1226.65 -78.5546 1224.62 -76.8279 1222.58 -75.1085L1222.1 -75.6816C1220.06 -73.9634 1218.02 -72.2524 1215.97 -70.5487L1216.45 -69.972C1214.4 -68.2678 1212.34 -66.5709 1210.28 -64.8812L1209.81 -65.4613C1207.75 -63.7738 1205.68 -62.0936 1203.61 -60.4209L1204.08 -59.8373C1202.01 -58.1633 1199.93 -56.4968 1197.84 -54.8376L1197.37 -55.4246C1195.29 -53.7666 1193.2 -52.116 1191.1 -50.4728L1191.57 -49.8824C1189.47 -48.2382 1187.36 -46.6013 1185.25 -44.9719L1184.79 -45.5656C1182.69 -43.9373 1180.57 -42.3164 1178.45 -40.7031L1178.9 -40.1062C1176.78 -38.4918 1174.65 -36.885 1172.52 -35.2858L1172.07 -35.886C1169.94 -34.2894 1167.8 -32.7004 1165.66 -31.1191L1166.1 -30.5156C1163.96 -28.9337 1161.81 -27.3595 1159.66 -25.7927L1159.22 -26.3993C1157.06 -24.8337 1154.9 -23.2756 1152.74 -21.7253L1153.17 -21.1155C1151.01 -19.5641 1148.83 -18.0201 1146.65 -16.4841L1146.22 -17.0972C1144.04 -15.5621 1141.86 -14.0348 1139.67 -12.5153L1140.1 -11.8992C1137.91 -10.3785 1135.71 -8.86572 1133.51 -7.3606L1133.09 -7.97974C1130.89 -6.47607 1128.68 -4.9801 1126.47 -3.49207L1126.89 -2.86987C1124.68 -1.38318 1122.46 0.0958252 1120.24 1.56689L1119.83 0.94165C1117.61 2.41174 1115.39 3.87402 1113.16 5.32837L1113.56 5.95667C1111.33 7.41211 1109.09 8.8595 1106.85 10.2991L1106.45 9.66797C1104.21 11.1066 1101.96 12.5372 1099.71 13.9601L1100.11 14.5941C1097.85 16.0178 1095.59 17.4336 1093.33 18.8414L1092.93 18.2045C1090.67 19.6113 1088.4 21.0101 1086.12 22.401L1086.51 23.0409C1084.24 24.431 1081.96 25.8131 1079.68 27.1871L1079.29 26.5444C1077.01 27.9159 1074.72 29.2794 1072.43 30.6348L1072.81 31.2803C1070.52 32.6366 1068.22 33.9847 1065.92 35.325L1065.54 34.6768C1063.24 36.0161 1060.94 37.3472 1058.62 38.6702L1059 39.321C1056.68 40.645 1054.36 41.9607 1052.04 43.2683L1051.67 42.6147C1049.35 43.9214 1047.02 45.2197 1044.69 46.51L1045.05 47.1665C1042.72 48.4578 1040.38 49.7405 1038.03 51.0151L1037.67 50.3562C1035.33 51.6267 1032.99 52.8892 1030.64 54.1431L1031 54.8047C1028.65 56.0591 1026.3 57.3054 1023.94 58.5432L1023.59 57.8792C1021.23 59.1162 1018.87 60.345 1016.5 61.5654L1016.85 62.2319C1014.48 63.4531 1012.1 64.666 1009.73 65.8706L1009.39 65.2017C1008.51 65.6465 1007.63 66.0901 1006.75 66.5325C1005.25 67.2876 1003.75 68.0393 1002.24 68.7876L1002.57 69.4592C1000.19 70.647 997.792 71.8264 995.394 72.9973L995.065 72.3232C994.123 72.783 993.181 73.2415 992.238 73.6985C990.782 74.4041 989.325 75.1067 987.865 75.8059L988.189 76.4822C985.79 77.6321 983.385 78.7734 980.976 79.9065L980.657 79.2278C979.437 79.8015 978.215 80.3733 976.993 80.9426C975.803 81.4968 974.612 82.0491 973.42 82.5991L973.734 83.28C971.315 84.396 968.892 85.5039 966.464 86.6028L966.154 85.9194C963.728 87.0176 961.296 88.1074 958.86 89.1885L959.165 89.874C956.727 90.9558 954.285 92.0291 951.838 93.0938L951.539 92.406C949.094 93.47 946.644 94.5251 944.189 95.5718L944.484 96.2617C942.033 97.3069 939.577 98.3435 937.117 99.3713L936.828 98.6792C934.375 99.7043 931.917 100.721 929.455 101.729L929.739 102.423C927.275 103.431 924.807 104.431 922.334 105.422L922.055 104.726C921.116 105.102 920.176 105.477 919.236 105.851C917.702 106.461 916.166 107.067 914.628 107.671L914.902 108.369C912.42 109.343 909.934 110.308 907.444 111.264L907.175 110.563C906.42 110.853 905.665 111.142 904.909 111.43C903.174 112.092 901.436 112.75 899.696 113.404L899.96 114.105C897.46 115.044 894.957 115.974 892.449 116.895L892.191 116.191C889.695 117.107 887.194 118.015 884.689 118.914L884.943 119.62C882.439 120.519 879.931 121.409 877.419 122.29L877.17 121.582C874.66 122.463 872.145 123.334 869.626 124.197L869.869 124.907C867.349 125.77 864.824 126.625 862.295 127.47L862.057 126.759C861.103 127.078 860.148 127.396 859.192 127.712C857.618 128.234 856.042 128.752 854.464 129.267L854.697 129.98C852.16 130.808 849.619 131.626 847.073 132.436L846.846 131.722C844.303 132.531 841.757 133.331 839.206 134.122L839.428 134.838C836.89 135.625 834.347 136.404 831.801 137.173L831.584 136.455C829.04 137.224 826.491 137.984 823.939 138.735L824.15 139.454C821.596 140.206 819.038 140.948 816.476 141.681L816.27 140.96C813.71 141.693 811.146 142.417 808.578 143.132L808.78 143.854C806.21 144.57 803.637 145.276 801.06 145.973L800.864 145.249C798.289 145.945 795.71 146.633 793.127 147.311L793.318 148.037C790.738 148.714 788.154 149.383 785.567 150.042L785.381 149.315C782.808 149.971 780.231 150.618 777.651 151.255L777.831 151.984C775.249 152.622 772.663 153.25 770.074 153.87L769.899 153.141C767.312 153.76 764.721 154.371 762.126 154.972L762.296 155.702C759.699 156.304 757.099 156.896 754.496 157.479L754.332 156.747C751.731 157.33 749.126 157.904 746.517 158.468L746.676 159.201C744.065 159.765 741.452 160.321 738.834 160.867L738.681 160.133C736.074 160.677 733.464 161.212 730.85 161.737L730.998 162.472C728.393 162.996 725.786 163.51 723.175 164.016L723.032 163.28C720.423 163.784 717.81 164.28 715.195 164.767L715.332 165.504C712.714 165.991 710.093 166.468 707.469 166.937L707.338 166.198C704.715 166.666 702.09 167.125 699.461 167.574L699.588 168.313C696.957 168.763 694.324 169.204 691.687 169.635L691.566 168.894C688.931 169.325 686.293 169.746 683.652 170.158L683.767 170.899C681.136 171.31 678.502 171.711 675.865 172.103L675.755 171.361C673.13 171.751 670.502 172.131 667.87 172.503L667.975 173.245C665.343 173.617 662.707 173.979 660.068 174.332L659.968 173.589C657.331 173.942 654.691 174.285 652.048 174.619L652.142 175.363C649.498 175.698 646.85 176.023 644.2 176.338L644.111 175.593C641.462 175.909 638.811 176.215 636.156 176.511L636.239 177.256C633.583 177.553 630.924 177.84 628.262 178.118L628.184 177.372C627.245 177.47 626.306 177.567 625.366 177.663C623.659 177.836 621.95 178.006 620.24 178.172L620.313 178.919C617.671 179.175 615.026 179.422 612.378 179.66L612.311 178.913C609.665 179.15 607.016 179.379 604.365 179.598L604.427 180.345C601.774 180.564 599.118 180.774 596.46 180.974L596.404 180.226C593.747 180.426 591.088 180.617 588.426 180.798L588.477 181.546C585.813 181.728 583.147 181.899 580.479 182.062L580.433 181.313C577.766 181.475 575.097 181.628 572.425 181.771L572.465 182.52C569.807 182.662 567.148 182.795 564.485 182.919L564.451 182.17C561.802 182.293 559.151 182.406 556.497 182.511L556.527 183.26C553.871 183.364 551.214 183.459 548.554 183.545L548.529 182.795C545.871 182.88 543.21 182.957 540.547 183.023L540.566 183.773C537.901 183.839 535.234 183.896 532.564 183.944L532.551 183.194C529.883 183.242 527.213 183.28 524.541 183.309L524.549 184.059C521.875 184.087 519.198 184.106 516.52 184.116L516.517 183.366C515.179 183.371 513.84 183.373 512.5 183.373C511.912 183.373 511.324 183.373 510.736 183.372C509.984 183.371 509.232 183.369 508.48 183.366L508.477 184.116C505.799 184.106 503.122 184.087 500.448 184.059L500.456 183.309C497.784 183.28 495.114 183.242 492.446 183.194L492.433 183.944C489.763 183.896 487.096 183.839 484.431 183.773L484.45 183.023C481.787 182.956 479.126 182.88 476.468 182.795L476.444 183.545C473.784 183.459 471.126 183.364 468.471 183.26L468.5 182.51C465.846 182.406 463.195 182.293 460.547 182.17L460.512 182.919C457.85 182.795 455.19 182.662 452.533 182.52L452.573 181.771C449.901 181.628 447.231 181.475 444.564 181.313L444.519 182.061C441.85 181.899 439.184 181.727 436.52 181.546L436.571 180.798C433.909 180.616 431.25 180.426 428.594 180.226L428.537 180.974C425.879 180.773 423.223 180.564 420.57 180.345L420.632 179.597C417.981 179.378 415.332 179.15 412.687 178.913L412.619 179.66C409.972 179.422 407.327 179.175 404.685 178.918L404.757 178.172C402.106 177.915 399.458 177.648 396.813 177.372L396.735 178.118C394.074 177.84 391.414 177.553 388.758 177.256L388.841 176.511C386.187 176.214 383.535 175.908 380.887 175.593L380.798 176.338C378.147 176.022 375.5 175.697 372.855 175.363L372.949 174.619C370.306 174.285 367.666 173.941 365.029 173.589L364.93 174.332C362.291 173.979 359.655 173.617 357.022 173.245L357.127 172.502C354.496 172.131 351.868 171.75 349.243 171.36L349.133 172.102C346.495 171.71 343.861 171.31 341.23 170.899L341.346 170.158C338.705 169.746 336.067 169.325 333.432 168.894L333.311 169.634C330.674 169.203 328.04 168.763 325.41 168.313L325.536 167.574C324.375 167.375 323.215 167.175 322.055 166.973C320.589 166.718 319.124 166.459 317.66 166.198L317.528 166.936C314.904 166.468 312.283 165.99 309.666 165.504L309.803 164.766C307.187 164.28 304.575 163.784 301.966 163.279L301.823 164.015C299.212 163.51 296.604 162.996 294 162.472L294.148 161.737C291.534 161.211 288.924 160.676 286.316 160.132L286.163 160.866C283.546 160.32 280.932 159.765 278.322 159.2L278.481 158.467C275.872 157.903 273.267 157.33 270.666 156.747L270.502 157.479C267.898 156.896 265.298 156.303 262.702 155.702L262.871 154.971C260.277 154.37 257.686 153.76 255.098 153.14L254.924 153.87C252.334 153.25 249.749 152.621 247.167 151.983L247.347 151.255C244.766 150.617 242.19 149.971 239.616 149.315L239.431 150.042C236.844 149.382 234.26 148.714 231.68 148.036L231.87 147.311C230.943 147.067 230.016 146.823 229.09 146.577C227.436 146.137 225.784 145.695 224.134 145.248L223.938 145.972C221.361 145.275 218.788 144.569 216.218 143.854L216.419 143.131C213.852 142.416 211.288 141.692 208.728 140.96L208.521 141.681C205.96 140.947 203.402 140.205 200.848 139.454L201.059 138.734C198.507 137.983 195.958 137.223 193.414 136.454L193.197 137.172C190.65 136.403 188.108 135.625 185.57 134.837L185.792 134.121C183.241 133.33 180.694 132.53 178.152 131.721L177.924 132.436C175.379 131.626 172.838 130.807 170.301 129.979L170.534 129.266C167.999 128.439 165.468 127.603 162.941 126.758L162.703 127.469C160.174 126.624 157.649 125.769 155.129 124.906L155.372 124.196C152.853 123.333 150.338 122.462 147.828 121.581L147.579 122.289C145.067 121.408 142.559 120.518 140.055 119.619L140.309 118.913C137.804 118.014 135.303 117.106 132.807 116.19L132.549 116.894C130.041 115.973 127.537 115.043 125.038 114.105L125.302 113.403C124.225 112.998 123.149 112.592 122.074 112.185C120.656 111.647 119.238 111.106 117.823 110.562L117.554 111.263C115.063 110.307 112.577 109.342 110.096 108.368L110.37 107.67C107.89 106.697 105.414 105.715 102.943 104.725L102.664 105.421C100.191 104.43 97.7228 103.43 95.2589 102.422L95.543 101.728C93.0808 100.72 90.623 99.7034 88.1699 98.6785L87.8807 99.3704C85.4207 98.3425 82.9653 97.3062 80.5143 96.261L80.8085 95.571C78.3541 94.5244 75.9044 93.469 73.4592 92.405L73.1599 93.0928C70.713 92.0281 68.2708 90.9548 65.8332 89.873L66.1374 89.1875C63.7015 88.1064 61.2703 87.0168 58.8438 85.9185L58.5345 86.6018C56.1063 85.5027 53.6827 84.3953 51.264 83.2793L51.5782 82.5981C49.1611 81.4829 46.7487 80.3591 44.3411 79.2268L44.0219 79.9055C41.6127 78.7725 39.2083 77.6311 36.8087 76.4812L37.1329 75.8049C34.728 74.6526 32.3281 73.4917 29.933 72.3223L29.6039 72.9963C27.2056 71.8254 24.8121 70.646 22.4236 69.4583L22.7575 68.7866C20.3706 67.5996 17.9886 66.4043 15.6116 65.2007L15.2728 65.8696C12.8941 64.665 10.5204 63.4521 8.15179 62.231L8.49554 61.5645C6.12848 60.344 3.76648 59.1152 1.40948 57.8782L1.06091 58.5422C-1.29767 57.3044 -3.65112 56.0581 -5.99957 54.8037L-5.64624 54.1421C-7.99408 52.8879 -10.3368 51.6257 -12.6744 50.355L-13.0325 51.0139C-15.3776 49.7393 -17.7175 48.4565 -20.0522 47.1653L-19.6893 46.509C-22.0224 45.2188 -24.3503 43.9202 -26.6731 42.6135L-27.0408 43.2671C-29.3651 41.9595 -31.6842 40.644 -33.998 39.3201L-33.6255 38.6689C-35.9377 37.3459 -38.2446 36.0149 -40.5461 34.6757L-40.9233 35.324C-43.2266 33.9838 -45.5244 32.6354 -47.817 31.2791L-47.4351 30.6337C-49.726 29.2782 -52.0116 27.9147 -54.2918 26.5432L-54.6784 27.1859C-56.9628 25.8119 -59.2419 24.4298 -61.5154 23.0397L-61.1242 22.3998C-63.3989 21.0089 -65.6683 19.6101 -67.9321 18.2032L-68.3279 18.8403C-70.5933 17.4325 -72.8531 16.0166 -75.1075 14.5929L-74.707 13.9589C-76.9598 12.536 -79.2071 11.1053 -81.4488 9.66663L-81.8539 10.2979C-84.0971 8.85828 -86.3347 7.41077 -88.5667 5.95532L-88.1571 5.32703C-90.3875 3.87268 -92.6124 2.4104 -94.8316 0.940308L-95.2458 1.56555C-97.4665 0.0944824 -99.6816 -1.3844 -101.891 -2.87109L-101.472 -3.49341C-103.684 -4.98145 -105.889 -6.47742 -108.089 -7.98108L-108.513 -7.36194C-110.715 -8.86707 -112.911 -10.3799 -115.101 -11.9005L-114.674 -12.5166C-116.863 -14.0361 -119.046 -15.5635 -121.223 -17.0985L-121.655 -16.4855C-123.834 -18.0216 -126.007 -19.5654 -128.174 -21.1168L-127.738 -21.7267C-129.903 -23.277 -132.063 -24.8351 -134.217 -26.4008L-134.658 -25.7941C-136.813 -27.3608 -138.963 -28.9352 -141.106 -30.5171L-140.661 -31.1205C-142.803 -32.7019 -144.94 -34.2909 -147.071 -35.8875L-147.521 -35.2872C-149.655 -36.8865 -151.784 -38.4933 -153.906 -40.1077L-153.452 -40.7046C-155.573 -42.3179 -157.688 -43.9387 -159.797 -45.567L-160.255 -44.9734C-162.365 -46.6028 -164.469 -48.2396 -166.567 -49.8839L-166.105 -50.4742C-168.201 -52.1174 -170.292 -53.7681 -172.376 -55.4261L-172.843 -54.8391C-174.929 -56.4983 -177.008 -58.1649 -179.081 -59.8389L-178.61 -60.4224C-180.682 -62.0952 -182.748 -63.7753 -184.807 -65.4628L-185.283 -64.8827C-187.345 -66.5724 -189.401 -68.2694 -191.45 -69.9736L-190.971 -70.5503C-193.019 -72.2539 -195.062 -73.965 -197.098 -75.6832L-197.582 -75.11C-199.619 -76.8293 -201.651 -78.556 -203.675 -80.2899L-203.188 -80.8596C-205.211 -82.5923 -207.228 -84.3323 -209.239 -86.0793L-209.731 -85.5132C-211.743 -87.2615 -213.748 -89.017 -215.747 -90.7795L-215.251 -91.3422C-217.249 -93.1035 -219.241 -94.8721 -221.225 -96.6477L-221.725 -96.0887C-223.712 -97.8656 -225.691 -99.6497 -227.664 -101.441L-227.16 -101.996C-229.133 -103.787 -231.099 -105.584 -233.059 -107.389L-233.567 -106.838C-235.528 -108.644 -237.482 -110.457 -239.43 -112.277L-238.918 -112.825C-240.864 -114.643 -242.804 -116.469 -244.737 -118.302L-245.253 -117.758C-247.188 -119.592 -249.116 -121.433 -251.037 -123.28L-250.517 -123.821C-252.436 -125.667 -254.349 -127.521 -256.256 -129.381L-256.78 -128.844C-258.687 -130.706 -260.588 -132.575 -262.482 -134.45L-261.954 -134.983C-263.847 -136.857 -265.733 -138.738 -267.612 -140.625L-268.144 -140.096C-270.025 -141.985 -271.898 -143.881 -273.765 -145.784L-273.23 -146.309C-275.095 -148.21 -276.954 -150.119 -278.806 -152.033L-279.345 -151.512C-281.198 -153.428 -283.044 -155.351 -284.883 -157.28L-284.34 -157.798C-286.178 -159.726 -288.009 -161.661 -289.833 -163.602L-290.38 -163.088C-292.205 -165.031 -294.024 -166.98 -295.835 -168.936L-295.284 -169.446C-297.094 -171.401 -298.897 -173.362 -300.693 -175.329L-301.247 -174.824C-303.044 -176.792 -304.833 -178.767 -306.616 -180.749L-306.058 -181.25C-307.839 -183.231 -309.613 -185.217 -311.38 -187.21L-311.941 -186.713C-313.709 -188.707 -315.47 -190.708 -317.224 -192.715L-316.659 -193.209C-318.412 -195.215 -320.157 -197.227 -321.895 -199.246L-322.463 -198.756C-324.203 -200.777 -325.935 -202.803 -327.66 -204.836L-327.088 -205.321C-328.811 -207.353 -330.528 -209.39 -332.237 -211.434L-332.812 -210.953C-334.522 -212.998 -336.224 -215.05 -337.92 -217.108L-337.341 -217.584C-339.034 -219.64 -340.72 -221.701 -342.398 -223.768L-342.98 -223.296C-344.66 -225.365 -346.332 -227.44 -347.997 -229.521L-347.411 -229.99C-349.074 -232.069 -350.731 -234.155 -352.379 -236.248L-352.968 -235.783C-354.618 -237.877 -356.261 -239.977 -357.895 -242.083L-357.303 -242.542C-358.937 -244.647 -360.563 -246.757 -362.182 -248.874L-362.777 -248.418C-364.397 -250.536 -366.01 -252.66 -367.614 -254.79L-367.015 -255.242C-368.618 -257.369 -370.212 -259.502 -371.8 -261.641L-372.402 -261.194C-373.989 -263.333 -375.569 -265.478 -377.142 -267.63L-376.536 -268.072C-378.107 -270.222 -379.671 -272.378 -381.227 -274.539L-381.836 -274.101C-383.393 -276.264 -384.942 -278.433 -386.484 -280.608L-385.872 -281.042C-387.412 -283.215 -388.945 -285.394 -390.47 -287.579L-391.085 -287.15C-392.611 -289.336 -394.13 -291.529 -395.64 -293.727L-395.022 -294.151C-396.532 -296.348 -398.033 -298.55 -399.527 -300.758L-400.148 -300.338C-401.641 -302.543 -403.125 -304.755 -404.602 -306.972L-403.978 -307.388C-405.453 -309.603 -406.921 -311.824 -408.381 -314.051L-409.008 -313.64C-410.469 -315.868 -411.922 -318.102 -413.368 -320.342L-412.737 -320.749C-414.181 -322.987 -415.618 -325.23 -417.046 -327.479L-417.679 -327.077C-419.108 -329.328 -420.529 -331.584 -421.943 -333.846L-421.307 -334.243C-422.719 -336.504 -424.123 -338.769 -425.519 -341.04L-426.158 -340.648C-427.554 -342.918 -428.942 -345.194 -430.322 -347.476L-429.68 -347.864C-431.057 -350.141 -432.426 -352.423 -433.787 -354.711L-434.432 -354.328C-435.794 -356.617 -437.147 -358.912 -438.493 -361.212L-437.845 -361.59C-439.19 -363.889 -440.527 -366.192 -441.855 -368.501L-442.505 -368.127C-443.834 -370.438 -445.156 -372.754 -446.468 -375.075L-445.816 -375.444C-447.128 -377.764 -448.431 -380.088 -449.727 -382.418L-450.382 -382.054C-451.679 -384.385 -452.967 -386.722 -454.247 -389.064L-453.589 -389.423C-454.865 -391.759 -456.133 -394.099 -457.393 -396.445L-458.054 -396.09C-459.313 -398.436 -460.565 -400.786 -461.808 -403.142L-461.145 -403.492C-462.387 -405.846 -463.621 -408.206 -464.847 -410.57L-465.513 -410.225C-466.739 -412.59 -467.957 -414.961 -469.167 -417.337L-468.499 -417.677C-469.708 -420.052 -470.908 -422.431 -472.1 -424.815L-472.771 -424.479C-473.964 -426.865 -475.148 -429.256 -476.324 -431.652L-475.651 -431.982C-476.826 -434.375 -477.992 -436.773 -479.15 -439.176L-479.825 -438.851C-480.98 -441.248 -482.127 -443.65 -483.265 -446.057L-482.587 -446.377C-483.724 -448.782 -484.853 -451.192 -485.973 -453.607L-486.654 -453.292C-487.775 -455.708 -488.887 -458.129 -489.991 -460.555L-489.309 -460.865C-490.412 -463.29 -491.506 -465.718 -492.592 -468.152L-493.277 -467.846C-494.364 -470.281 -495.442 -472.721 -496.511 -475.166L-495.824 -475.467C-496.893 -477.909 -497.953 -480.357 -499.005 -482.809L-499.694 -482.513C-500.744 -484.963 -501.786 -487.417 -502.819 -489.876L-502.127 -490.166C-503.157 -492.618 -504.178 -495.073 -505.191 -497.534L-505.884 -497.248C-506.897 -499.71 -507.902 -502.177 -508.898 -504.647L-508.202 -504.928C-509.197 -507.397 -510.183 -509.87 -511.161 -512.348L-511.859 -512.073C-512.837 -514.553 -513.806 -517.037 -514.767 -519.525L-514.067 -519.796C-515.027 -522.282 -515.978 -524.773 -516.92 -527.269L-517.622 -527.004C-518.565 -529.501 -519.499 -532.003 -520.424 -534.508L-519.721 -534.768C-520.642 -537.264 -521.555 -539.764 -522.458 -542.268L-523.164 -542.013C-524.067 -544.515 -524.961 -547.022 -525.847 -549.532L-525.139 -549.782C-526.024 -552.291 -526.9 -554.804 -527.767 -557.321L-528.476 -557.077C-529.344 -559.596 -530.202 -562.119 -531.052 -564.646L-530.341 -564.885C-531.19 -567.411 -532.03 -569.94 -532.862 -572.474L-533.574 -572.24C-534.406 -574.776 -535.229 -577.315 -536.042 -579.859L-535.328 -580.087C-536.141 -582.629 -536.945 -585.175 -537.741 -587.724L-538.457 -587.501C-539.248 -590.039 -540.03 -592.58 -540.803 -595.126L-540.086 -595.344C-540.859 -597.887 -541.622 -600.434 -542.377 -602.986L-543.096 -602.773C-543.851 -605.326 -544.597 -607.883 -545.334 -610.443L-544.614 -610.651C-545.35 -613.209 -546.078 -615.772 -546.796 -618.339L-547.518 -618.136C-548.237 -620.705 -548.947 -623.276 -549.647 -625.852L-548.924 -626.049C-549.624 -628.623 -550.315 -631.201 -550.996 -633.782L-551.722 -633.591C-552.403 -636.171 -553.075 -638.755 -553.738 -641.342L-553.012 -641.528C-553.671 -644.1 -554.321 -646.676 -554.962 -649.256L-555.69 -649.075C-556.331 -651.656 -556.963 -654.241 -557.586 -656.829L-556.857 -657.005C-557.479 -659.591 -558.093 -662.182 -558.697 -664.775L-559.427 -664.605C-560.032 -667.2 -560.627 -669.799 -561.213 -672.402L-560.482 -672.567C-561.067 -675.167 -561.644 -677.772 -562.211 -680.379L-562.944 -680.22C-563.511 -682.829 -564.07 -685.442 -564.619 -688.059L-563.885 -688.213C-564.432 -690.82 -564.97 -693.431 -565.498 -696.045L-566.233 -695.896C-566.76 -698.5 -567.277 -701.107 -567.785 -703.717L-567.049 -703.861C-567.556 -706.469 -568.054 -709.081 -568.543 -711.696L-569.281 -711.558C-569.77 -714.175 -570.25 -716.796 -570.721 -719.419L-569.983 -719.551C-570.453 -722.173 -570.914 -724.798 -571.366 -727.426L-572.105 -727.299C-572.557 -729.929 -573 -732.562 -573.433 -735.198L-572.693 -735.32C-573.126 -737.954 -573.549 -740.592 -573.964 -743.232L-574.705 -743.116C-575.117 -745.748 -575.521 -748.382 -575.915 -751.02L-575.173 -751.13C-575.565 -753.755 -575.948 -756.383 -576.321 -759.013L-577.063 -758.908C-577.437 -761.541 -577.801 -764.176 -578.156 -766.815L-577.413 -766.915C-577.768 -769.551 -578.113 -772.191 -578.449 -774.833L-579.193 -774.739C-579.529 -777.383 -579.855 -780.031 -580.173 -782.681L-579.428 -782.77C-579.745 -785.418 -580.053 -788.069 -580.351 -790.724L-581.096 -790.64C-581.394 -793.296 -581.683 -795.955 -581.962 -798.616L-581.216 -798.695C-581.494 -801.34 -581.762 -803.989 -582.021 -806.64L-582.767 -806.567C-583.025 -809.209 -583.274 -811.854 -583.513 -814.501L-582.766 -814.568C-583.004 -817.214 -583.234 -819.863 -583.454 -822.514L-584.201 -822.452C-584.422 -825.104 -584.632 -827.76 -584.834 -830.418L-584.086 -830.475C-584.287 -833.131 -584.479 -835.79 -584.661 -838.452L-585.409 -838.401C-585.591 -841.064 -585.764 -843.73 -585.927 -846.399L-585.179 -846.444C-585.342 -849.111 -585.495 -851.781 -585.639 -854.453L-586.388 -854.412C-586.531 -857.07 -586.665 -859.73 -586.789 -862.392L-586.04 -862.427C-586.164 -865.076 -586.278 -867.727 -586.383 -870.38L-587.132 -870.351C-587.237 -873.006 -587.333 -875.664 -587.418 -878.324L-586.669 -878.348C-586.755 -881.006 -586.831 -883.667 -586.898 -886.33L-587.648 -886.311C-587.715 -888.976 -587.772 -891.643 -587.82 -894.313L-587.07 -894.326C-587.118 -896.994 -587.156 -899.664 -587.185 -902.336L-587.935 -902.328C-587.964 -905.002 -587.983 -907.679 -587.993 -910.357L-587.243 -910.36C-587.248 -911.698 -587.25 -913.037 -587.25 -914.377C-587.25 -915.717 -587.248 -917.057 -587.243 -918.397L-587.993 -918.399C-587.983 -921.078 -587.964 -923.755 -587.935 -926.429L-587.185 -926.421C-587.156 -929.093 -587.118 -931.763 -587.07 -934.431L-587.82 -934.444C-587.772 -937.114 -587.715 -939.781 -587.648 -942.446L-586.898 -942.427C-586.831 -945.09 -586.755 -947.75 -586.669 -950.409L-587.418 -950.433C-587.332 -953.093 -587.237 -955.751 -587.132 -958.406L-586.383 -958.376C-586.278 -961.03 -586.164 -963.681 -586.04 -966.329L-586.789 -966.364C-586.665 -969.027 -586.531 -971.687 -586.388 -974.344L-585.639 -974.304C-585.495 -976.976 -585.342 -979.645 -585.178 -982.312L-585.927 -982.358C-585.764 -985.027 -585.591 -987.693 -585.409 -990.356L-584.661 -990.305C-584.478 -992.966 -584.287 -995.625 -584.086 -998.282L-584.833 -998.338C-584.632 -1001 -584.421 -1003.65 -584.201 -1006.3L-583.454 -1006.24C-583.234 -1008.89 -583.004 -1011.54 -582.765 -1014.19L-583.512 -1014.26C-583.273 -1016.9 -583.025 -1019.55 -582.767 -1022.19L-582.021 -1022.12C-581.762 -1024.77 -581.494 -1027.42 -581.216 -1030.06L-581.962 -1030.14C-581.683 -1032.8 -581.394 -1035.46 -581.096 -1038.12L-580.35 -1038.03C-580.052 -1040.69 -579.745 -1043.34 -579.428 -1045.99L-580.172 -1046.08C-579.855 -1048.73 -579.528 -1051.37 -579.192 -1054.02L-578.448 -1053.92C-578.112 -1056.57 -577.767 -1059.21 -577.413 -1061.84L-578.156 -1061.94C-577.801 -1064.58 -577.437 -1067.22 -577.063 -1069.85L-576.321 -1069.74C-575.947 -1072.37 -575.564 -1075 -575.172 -1077.63L-575.914 -1077.74C-575.52 -1080.37 -575.117 -1083.01 -574.704 -1085.64L-573.963 -1085.52C-573.549 -1088.16 -573.126 -1090.8 -572.693 -1093.44L-573.433 -1093.56C-572.999 -1096.19 -572.557 -1098.83 -572.105 -1101.46L-571.365 -1101.33C-570.914 -1103.96 -570.453 -1106.58 -569.982 -1109.2L-570.72 -1109.34C-570.25 -1111.96 -569.77 -1114.58 -569.28 -1117.2L-568.543 -1117.06C-568.054 -1119.68 -567.556 -1122.29 -567.048 -1124.9L-567.784 -1125.04C-567.276 -1127.65 -566.759 -1130.26 -566.233 -1132.86L-565.498 -1132.71C-564.969 -1135.33 -564.431 -1137.94 -563.884 -1140.54L-564.618 -1140.7C-564.069 -1143.31 -563.511 -1145.93 -562.943 -1148.54L-562.211 -1148.38C-561.643 -1150.98 -561.067 -1153.59 -560.481 -1156.19L-561.213 -1156.35C-560.627 -1158.96 -560.031 -1161.56 -559.427 -1164.15L-558.696 -1163.98C-558.092 -1166.57 -557.479 -1169.16 -556.856 -1171.75L-557.585 -1171.93C-556.962 -1174.52 -556.33 -1177.1 -555.689 -1179.68L-554.961 -1179.5C-554.32 -1182.08 -553.67 -1184.66 -553.011 -1187.23L-553.738 -1187.41C-553.075 -1190 -552.402 -1192.59 -551.721 -1195.17L-550.996 -1194.97C-550.314 -1197.56 -549.623 -1200.13 -548.923 -1202.71L-549.647 -1202.9C-548.946 -1205.48 -548.236 -1208.05 -547.518 -1210.62L-546.795 -1210.42C-546.077 -1212.98 -545.35 -1215.55 -544.613 -1218.11L-545.334 -1218.31C-544.597 -1220.87 -543.851 -1223.43 -543.095 -1225.98L-542.376 -1225.77C-541.622 -1228.32 -540.858 -1230.87 -540.085 -1233.41L-540.803 -1233.63C-540.029 -1236.18 -539.247 -1238.72 -538.456 -1241.26L-537.74 -1241.03C-536.945 -1243.58 -536.141 -1246.13 -535.327 -1248.67L-536.042 -1248.9C-535.228 -1251.44 -534.405 -1253.98 -533.573 -1256.52L-532.861 -1256.28C-532.03 -1258.82 -531.189 -1261.35 -530.34 -1263.87L-531.051 -1264.11C-530.202 -1266.64 -529.343 -1269.16 -528.475 -1271.68L-527.766 -1271.43C-526.899 -1273.95 -526.023 -1276.47 -525.139 -1278.97L-525.846 -1279.22C-524.96 -1281.73 -524.066 -1284.24 -523.163 -1286.74L-522.458 -1286.49C-521.554 -1288.99 -520.641 -1291.49 -519.72 -1293.99L-520.423 -1294.25C-519.498 -1296.75 -518.564 -1299.26 -517.621 -1301.75L-516.92 -1301.49C-515.977 -1303.98 -515.026 -1306.47 -514.066 -1308.96L-514.766 -1309.23C-513.805 -1311.72 -512.836 -1314.2 -511.858 -1316.68L-511.16 -1316.41C-510.182 -1318.89 -509.196 -1321.36 -508.201 -1323.83L-508.897 -1324.11C-507.901 -1326.58 -506.897 -1329.05 -505.883 -1331.51L-505.19 -1331.22C-504.177 -1333.68 -503.156 -1336.14 -502.126 -1338.59L-502.818 -1338.88C-501.785 -1341.34 -500.743 -1343.79 -499.693 -1346.24L-499.004 -1345.95C-497.952 -1348.4 -496.892 -1350.85 -495.823 -1353.29L-496.511 -1353.59C-495.441 -1356.03 -494.363 -1358.47 -493.276 -1360.91L-492.591 -1360.6C-491.505 -1363.04 -490.411 -1365.47 -489.308 -1367.89L-489.99 -1368.2C-488.886 -1370.63 -487.774 -1373.05 -486.653 -1375.46L-485.972 -1375.15C-484.852 -1377.56 -483.723 -1379.97 -482.586 -1382.38L-483.264 -1382.7C-482.126 -1385.11 -480.979 -1387.51 -479.824 -1389.91L-479.149 -1389.58C-477.991 -1391.98 -476.825 -1394.38 -475.65 -1396.77L-476.323 -1397.1C-475.147 -1399.5 -473.963 -1401.89 -472.77 -1404.28L-472.099 -1403.94C-470.907 -1406.33 -469.706 -1408.7 -468.498 -1411.08L-469.166 -1411.42C-467.956 -1413.79 -466.738 -1416.17 -465.512 -1418.53L-464.846 -1418.19C-463.62 -1420.55 -462.386 -1422.91 -461.144 -1425.26L-461.807 -1425.61C-460.564 -1427.97 -459.312 -1430.32 -458.053 -1432.67L-457.392 -1432.31C-456.132 -1434.66 -454.864 -1437 -453.588 -1439.33L-454.246 -1439.69C-452.966 -1442.03 -451.678 -1444.37 -450.381 -1446.7L-449.726 -1446.34C-448.43 -1448.67 -447.126 -1450.99 -445.814 -1453.31L-446.467 -1453.68C-445.154 -1456 -443.833 -1458.32 -442.504 -1460.63L-441.854 -1460.25C-440.525 -1462.56 -439.189 -1464.87 -437.844 -1467.17L-438.492 -1467.54C-437.146 -1469.84 -435.792 -1472.14 -434.43 -1474.43L-433.786 -1474.04C-432.425 -1476.33 -431.056 -1478.61 -429.679 -1480.89L-430.321 -1481.28C-428.941 -1483.56 -427.553 -1485.84 -426.157 -1488.11L-425.518 -1487.72C-424.122 -1489.99 -422.718 -1492.25 -421.305 -1494.51L-421.941 -1494.91C-420.528 -1497.17 -419.107 -1499.43 -417.678 -1501.68L-417.045 -1501.28C-415.616 -1503.53 -414.18 -1505.77 -412.736 -1508.01L-413.366 -1508.41C-411.921 -1510.65 -410.468 -1512.89 -409.007 -1515.12L-408.38 -1514.7C-406.92 -1516.93 -405.452 -1519.15 -403.976 -1521.37L-404.601 -1521.78C-403.124 -1524 -401.639 -1526.21 -400.147 -1528.42L-399.526 -1528C-398.032 -1530.21 -396.53 -1532.41 -395.021 -1534.6L-395.639 -1535.03C-394.128 -1537.23 -392.61 -1539.42 -391.084 -1541.61L-390.469 -1541.18C-388.944 -1543.36 -387.411 -1545.54 -385.87 -1547.71L-386.482 -1548.15C-384.941 -1550.32 -383.391 -1552.49 -381.834 -1554.65L-381.226 -1554.22C-379.67 -1556.38 -378.106 -1558.53 -376.535 -1560.68L-377.14 -1561.13C-375.568 -1563.28 -373.988 -1565.42 -372.4 -1567.56L-371.798 -1567.12C-370.211 -1569.25 -368.616 -1571.39 -367.014 -1573.51L-367.613 -1573.97C-366.008 -1576.1 -364.396 -1578.22 -362.776 -1580.34L-362.18 -1579.88C-360.562 -1582 -358.935 -1584.11 -357.302 -1586.21L-357.894 -1586.67C-356.259 -1588.78 -354.617 -1590.88 -352.967 -1592.97L-352.378 -1592.51C-350.729 -1594.6 -349.073 -1596.69 -347.409 -1598.77L-347.995 -1599.23C-346.33 -1601.32 -344.658 -1603.39 -342.979 -1605.46L-342.396 -1604.99C-340.718 -1607.05 -339.032 -1609.12 -337.339 -1611.17L-337.918 -1611.65C-336.223 -1613.71 -334.52 -1615.76 -332.81 -1617.8L-332.235 -1617.32C-330.526 -1619.37 -328.81 -1621.4 -327.086 -1623.43L-327.658 -1623.92C-325.933 -1625.95 -324.201 -1627.98 -322.462 -1630L-321.893 -1629.51C-320.155 -1631.53 -318.41 -1633.54 -316.658 -1635.55L-317.222 -1636.04C-315.469 -1638.05 -313.708 -1640.05 -311.94 -1642.04L-311.378 -1641.55C-309.612 -1643.54 -307.838 -1645.53 -306.056 -1647.51L-306.614 -1648.01C-304.832 -1649.99 -303.042 -1651.96 -301.246 -1653.93L-300.692 -1653.43C-298.896 -1655.39 -297.093 -1657.36 -295.283 -1659.31L-295.833 -1659.82C-294.022 -1661.78 -292.204 -1663.72 -290.378 -1665.67L-289.832 -1665.15C-288.008 -1667.1 -286.177 -1669.03 -284.339 -1670.96L-284.882 -1671.48C-283.043 -1673.4 -281.196 -1675.33 -279.343 -1677.24L-278.804 -1676.72C-276.952 -1678.64 -275.094 -1680.55 -273.228 -1682.45L-273.763 -1682.97C-271.897 -1684.87 -270.023 -1686.77 -268.142 -1688.66L-267.611 -1688.13C-265.732 -1690.02 -263.845 -1691.9 -261.953 -1693.77L-262.48 -1694.31C-260.586 -1696.18 -258.686 -1698.05 -256.778 -1699.91L-256.254 -1699.37C-254.348 -1701.23 -252.435 -1703.09 -250.515 -1704.93L-251.035 -1705.48C-249.114 -1707.32 -247.186 -1709.16 -245.252 -1711L-244.736 -1710.45C-242.803 -1712.29 -240.863 -1714.11 -238.916 -1715.93L-239.428 -1716.48C-237.481 -1718.3 -235.526 -1720.11 -233.565 -1721.92L-233.057 -1721.37C-231.098 -1723.17 -229.131 -1724.97 -227.159 -1726.76L-227.663 -1727.31C-225.69 -1729.11 -223.71 -1730.89 -221.724 -1732.67L-221.224 -1732.11C-219.239 -1733.88 -217.247 -1735.65 -215.25 -1737.41L-215.746 -1737.98C-213.747 -1739.74 -211.741 -1741.49 -209.729 -1743.24L-209.237 -1742.68C-207.226 -1744.42 -205.209 -1746.16 -203.186 -1747.9L-203.674 -1748.47C-201.649 -1750.2 -199.618 -1751.93 -197.58 -1753.65L-197.096 -1753.07C-195.06 -1754.79 -193.018 -1756.5 -190.969 -1758.21L-191.448 -1758.78C-189.399 -1760.49 -187.343 -1762.18 -185.281 -1763.87L-184.806 -1763.29C-182.746 -1764.98 -180.68 -1766.66 -178.608 -1768.33L-179.08 -1768.92C-177.006 -1770.59 -174.927 -1772.26 -172.841 -1773.92L-172.374 -1773.33C-170.29 -1774.99 -168.199 -1776.64 -166.103 -1778.28L-166.565 -1778.87C-164.467 -1780.52 -162.363 -1782.15 -160.253 -1783.78L-159.795 -1783.19C-157.686 -1784.82 -155.571 -1786.44 -153.45 -1788.05L-153.904 -1788.65C-151.782 -1790.26 -149.653 -1791.87 -147.519 -1793.47L-147.069 -1792.87C-144.938 -1794.46 -142.802 -1796.05 -140.659 -1797.63L-141.104 -1798.24C-138.961 -1799.82 -136.811 -1801.39 -134.656 -1802.96L-134.215 -1802.35C-132.061 -1803.92 -129.901 -1805.48 -127.736 -1807.03L-128.172 -1807.64C-126.005 -1809.19 -123.832 -1810.73 -121.653 -1812.27L-121.221 -1811.66C-119.044 -1813.19 -116.861 -1814.72 -114.672 -1816.24L-115.099 -1816.85C-112.909 -1818.38 -110.713 -1819.89 -108.511 -1821.39L-108.087 -1820.77C-105.887 -1822.28 -103.682 -1823.77 -101.47 -1825.26L-101.889 -1825.88C-99.6796 -1827.37 -97.4646 -1828.85 -95.2438 -1830.32L-94.8297 -1829.7C-92.6104 -1831.17 -90.3855 -1832.63 -88.155 -1834.08L-88.5647 -1834.71C-86.3327 -1836.17 -84.095 -1837.61 -81.8518 -1839.05L-81.4468 -1838.42C-79.2051 -1839.86 -76.9579 -1841.29 -74.7051 -1842.71L-75.1055 -1843.35C-72.8512 -1844.77 -70.5914 -1846.19 -68.326 -1847.6L-67.9301 -1846.96C-65.6663 -1848.37 -63.397 -1849.76 -61.1222 -1851.15L-61.5134 -1851.79C-59.2399 -1853.18 -56.9608 -1854.57 -54.6763 -1855.94L-54.2898 -1855.3C-52.0096 -1856.67 -49.724 -1858.03 -47.433 -1859.39L-47.8149 -1860.03C-45.5225 -1861.39 -43.2245 -1862.74 -40.9214 -1864.08L-40.5442 -1863.43C-38.2426 -1864.77 -35.9357 -1866.1 -33.6235 -1867.42L-33.9959 -1868.08C-31.6821 -1869.4 -29.3631 -1870.71 -27.0388 -1872.02L-26.6711 -1871.37C-24.3484 -1872.68 -22.0204 -1873.97 -19.6873 -1875.26L-20.0503 -1875.92C-17.7156 -1877.21 -15.3756 -1878.49 -13.0305 -1879.77L-12.6724 -1879.11C-10.3348 -1880.38 -7.99207 -1881.64 -5.64429 -1882.9L-5.99762 -1883.56C-3.64917 -1884.81 -1.29565 -1886.06 1.06293 -1887.3L1.4115 -1886.63C3.76843 -1887.87 6.13049 -1889.1 8.4975 -1890.32L8.15381 -1890.99C10.5225 -1892.21 12.8961 -1893.42 15.2748 -1894.62L15.6136 -1893.96C17.9907 -1895.16 20.3726 -1896.35 22.7595 -1897.54L22.4256 -1898.21C24.8141 -1899.4 27.2076 -1900.58 29.606 -1901.75L29.935 -1901.08C32.3301 -1902.25 34.73 -1903.41 37.1349 -1904.56L36.8107 -1905.24C39.2103 -1906.39 41.6148 -1907.53 44.024 -1908.66L44.3432 -1907.98C46.7508 -1909.11 49.1631 -1910.24 51.5803 -1911.35L51.2661 -1912.03C53.6848 -1913.15 56.1083 -1914.26 58.5366 -1915.36L58.8458 -1914.67C61.2723 -1915.77 63.7036 -1916.86 66.1395 -1917.94L65.8353 -1918.63C68.2728 -1919.71 70.7151 -1920.78 73.162 -1921.85L73.4612 -1921.16C75.9064 -1922.22 78.3563 -1923.28 80.8107 -1924.33L80.5165 -1925.02C82.9673 -1926.06 85.4229 -1927.1 87.8828 -1928.13L88.1719 -1927.43C90.6252 -1928.46 93.0829 -1929.47 95.5451 -1930.48L95.261 -1931.18C97.725 -1932.18 100.193 -1933.18 102.666 -1934.18L102.945 -1933.48C105.416 -1934.47 107.892 -1935.45 110.372 -1936.42L110.098 -1937.12C112.58 -1938.1 115.066 -1939.06 117.556 -1940.02L117.825 -1939.32C120.314 -1940.27 122.807 -1941.22 125.304 -1942.16L125.04 -1942.86C127.54 -1943.8 130.043 -1944.73 132.551 -1945.65L132.809 -1944.94C135.305 -1945.86 137.806 -1946.77 140.311 -1947.67L140.057 -1948.37C142.561 -1949.27 145.069 -1950.16 147.582 -1951.04L147.83 -1950.34C150.34 -1951.22 152.855 -1952.09 155.374 -1952.95L155.131 -1953.66C157.651 -1954.52 160.176 -1955.38 162.705 -1956.22L162.943 -1955.51C165.47 -1956.36 168.001 -1957.19 170.536 -1958.02L170.303 -1958.73C172.84 -1959.56 175.381 -1960.38 177.926 -1961.19L178.154 -1960.48C180.697 -1961.28 183.243 -1962.08 185.794 -1962.88L185.572 -1963.59C188.11 -1964.38 190.653 -1965.16 193.199 -1965.93L193.416 -1965.21C195.961 -1965.98 198.509 -1966.74 201.061 -1967.49L200.85 -1968.21C203.404 -1968.96 205.962 -1969.7 208.524 -1970.44L208.73 -1969.71C211.29 -1970.45 213.854 -1971.17 216.422 -1971.89L216.22 -1972.61C218.79 -1973.32 221.363 -1974.03 223.94 -1974.73L224.136 -1974C226.711 -1974.7 229.29 -1975.39 231.873 -1976.07L231.682 -1976.79C234.262 -1977.47 236.846 -1978.14 239.434 -1978.8L239.619 -1978.07C242.192 -1978.73 244.769 -1979.37 247.349 -1980.01L247.169 -1980.74C249.751 -1981.38 252.337 -1982 254.926 -1982.62L255.101 -1981.89C257.688 -1982.51 260.279 -1983.12 262.874 -1983.73L262.704 -1984.46C265.301 -1985.06 267.901 -1985.65 270.504 -1986.23L270.668 -1985.5C273.269 -1986.08 275.874 -1986.66 278.483 -1987.22L278.324 -1987.95C280.935 -1988.52 283.548 -1989.07 286.166 -1989.62L286.319 -1988.89C288.926 -1989.43 291.536 -1989.97 294.15 -1990.49L294.002 -1991.23C296.607 -1991.75 299.214 -1992.26 301.825 -1992.77L301.968 -1992.03C304.577 -1992.54 307.19 -1993.03 309.805 -1993.52L309.668 -1994.26C312.286 -1994.74 314.907 -1995.22 317.531 -1995.69L317.662 -1994.95C320.285 -1995.42 322.91 -1995.88 325.539 -1996.33L325.412 -1997.07C328.043 -1997.52 330.676 -1997.96 333.313 -1998.39L333.434 -1997.65C336.069 -1998.08 338.707 -1998.5 341.348 -1998.91L341.233 -1999.65C343.864 -2000.06 346.498 -2000.46 349.135 -2000.86L349.245 -2000.11C351.87 -2000.5 354.498 -2000.89 357.13 -2001.26L357.025 -2002C359.658 -2002.37 362.293 -2002.73 364.932 -2003.09L365.032 -2002.34C367.669 -2002.7 370.309 -2003.04 372.952 -2003.37L372.858 -2004.12C375.502 -2004.45 378.15 -2004.78 380.8 -2005.09L380.889 -2004.35C383.538 -2004.66 386.189 -2004.97 388.844 -2005.26L388.761 -2006.01C391.417 -2006.31 394.076 -2006.59 396.738 -2006.87L396.816 -2006.13C399.461 -2006.4 402.109 -2006.67 404.76 -2006.93L404.687 -2007.67C407.329 -2007.93 409.974 -2008.18 412.622 -2008.41L412.689 -2007.67C415.335 -2007.9 417.983 -2008.13 420.635 -2008.35L420.573 -2009.1C423.226 -2009.32 425.882 -2009.53 428.54 -2009.73L428.596 -2008.98C431.253 -2009.18 433.912 -2009.37 436.574 -2009.55L436.523 -2010.3C439.187 -2010.48 441.853 -2010.65 444.521 -2010.82L444.567 -2010.07C447.234 -2010.23 449.903 -2010.38 452.575 -2010.53L452.535 -2011.27C455.193 -2011.42 457.852 -2011.55 460.515 -2011.67L460.549 -2010.92C463.198 -2011.05 465.849 -2011.16 468.503 -2011.26L468.473 -2012.01C471.129 -2012.12 473.786 -2012.21 476.447 -2012.3L476.471 -2011.55C479.129 -2011.63 481.79 -2011.71 484.453 -2011.78L484.434 -2012.53C487.099 -2012.59 489.766 -2012.65 492.436 -2012.7L492.449 -2011.95C495.117 -2012 497.787 -2012.03 500.459 -2012.06L500.451 -2012.81C503.125 -2012.84 505.802 -2012.86 508.48 -2012.87L508.483 -2012.12C509.821 -2012.12 511.16 -2012.13 512.5 -2012.13C513.841 -2012.13 515.181 -2012.12 516.52 -2012.12L516.523 -2012.87C519.201 -2012.86 521.878 -2012.84 524.552 -2012.81L524.544 -2012.06C527.216 -2012.03 529.886 -2012 532.554 -2011.95L532.567 -2012.7C535.237 -2012.65 537.904 -2012.59 540.569 -2012.53L540.55 -2011.78C543.213 -2011.71 545.874 -2011.63 548.532 -2011.55L548.556 -2012.3C551.216 -2012.21 553.874 -2012.12 556.529 -2012.01L556.5 -2011.26C559.154 -2011.16 561.805 -2011.05 564.453 -2010.92L564.488 -2011.67C567.15 -2011.55 569.81 -2011.42 572.467 -2011.27L572.427 -2010.52C575.099 -2010.38 577.769 -2010.23 580.436 -2010.07L580.481 -2010.82C583.15 -2010.65 585.816 -2010.48 588.48 -2010.3L588.429 -2009.55C591.09 -2009.37 593.75 -2009.18 596.406 -2008.98L596.463 -2009.73C599.121 -2009.53 601.777 -2009.32 604.43 -2009.1L604.368 -2008.35C607.019 -2008.13 609.668 -2007.9 612.313 -2007.67L612.38 -2008.41C615.028 -2008.18 617.673 -2007.93 620.315 -2007.67L620.243 -2006.93C622.894 -2006.67 625.542 -2006.4 628.187 -2006.13L628.265 -2006.87C630.927 -2006.59 633.586 -2006.31 636.242 -2006.01L636.159 -2005.26C638.813 -2004.97 641.465 -2004.66 644.113 -2004.35L644.202 -2005.09C646.853 -2004.78 649.5 -2004.45 652.145 -2004.12L652.051 -2003.37C654.694 -2003.04 657.334 -2002.7 659.971 -2002.34L660.07 -2003.09C662.709 -2002.73 665.345 -2002.37 667.978 -2002L667.873 -2001.26C670.504 -2000.88 673.132 -2000.5 675.757 -2000.11L675.867 -2000.86C678.505 -2000.46 681.139 -2000.06 683.77 -1999.65L683.654 -1998.91C686.295 -1998.5 688.933 -1998.08 691.568 -1997.65L691.689 -1998.39C694.326 -1997.96 696.96 -1997.52 699.59 -1997.07L699.464 -1996.33C702.092 -1995.88 704.718 -1995.42 707.34 -1994.95L707.472 -1995.69C710.096 -1995.22 712.717 -1994.74 715.334 -1994.26L715.197 -1993.52C717.813 -1993.03 720.425 -1992.54 723.034 -1992.03L723.177 -1992.77C725.788 -1992.26 728.396 -1991.75 731 -1991.23L730.852 -1990.49C733.466 -1989.97 736.076 -1989.43 738.683 -1988.89L738.837 -1989.62C741.454 -1989.07 744.068 -1988.52 746.678 -1987.95L746.519 -1987.22C749.128 -1986.66 751.733 -1986.08 754.334 -1985.5L754.498 -1986.23C757.102 -1985.65 759.702 -1985.06 762.298 -1984.46L762.129 -1983.72C764.723 -1983.12 767.314 -1982.51 769.902 -1981.89L770.076 -1982.62C772.666 -1982 775.251 -1981.37 777.833 -1980.74L777.653 -1980.01C780.234 -1979.37 782.81 -1978.72 785.384 -1978.07L785.569 -1978.8C788.156 -1978.14 790.74 -1977.47 793.32 -1976.79L793.13 -1976.06C795.712 -1975.39 798.291 -1974.7 800.866 -1974L801.062 -1974.73C803.639 -1974.03 806.212 -1973.32 808.782 -1972.61L808.581 -1971.88C811.148 -1971.17 813.712 -1970.45 816.272 -1969.71L816.479 -1970.43C819.04 -1969.7 821.598 -1968.96 824.152 -1968.21L823.941 -1967.49C826.493 -1966.74 829.042 -1965.98 831.586 -1965.21L831.803 -1965.93C834.349 -1965.16 836.892 -1964.38 839.43 -1963.59L839.208 -1962.87C841.759 -1962.08 844.306 -1961.28 846.848 -1960.47L847.076 -1961.19C849.621 -1960.38 852.162 -1959.56 854.699 -1958.73L854.466 -1958.02C857.001 -1957.19 859.532 -1956.36 862.059 -1955.51L862.297 -1956.22C864.826 -1955.38 867.351 -1954.52 869.871 -1953.66L869.628 -1952.95C872.147 -1952.09 874.662 -1951.22 877.172 -1950.34L877.421 -1951.04C879.933 -1950.16 882.441 -1949.27 884.945 -1948.37L884.691 -1947.67C887.196 -1946.77 889.697 -1945.86 892.193 -1944.94L892.451 -1945.65C894.959 -1944.73 897.463 -1943.8 899.962 -1942.86L899.698 -1942.16C902.195 -1941.22 904.689 -1940.27 907.177 -1939.32L907.446 -1940.02C909.936 -1939.06 912.422 -1938.1 914.904 -1937.12L914.63 -1936.42C917.11 -1935.45 919.586 -1934.47 922.057 -1933.48L922.336 -1934.17C924.809 -1933.18 927.277 -1932.18 929.741 -1931.18L929.457 -1930.48C931.919 -1929.47 934.377 -1928.46 936.83 -1927.43L937.119 -1928.12C939.579 -1927.1 942.035 -1926.06 944.486 -1925.01L944.191 -1924.32C946.646 -1923.28 949.096 -1922.22 951.541 -1921.16L951.84 -1921.85C954.287 -1920.78 956.729 -1919.71 959.167 -1918.63L958.863 -1917.94C961.298 -1916.86 963.73 -1915.77 966.156 -1914.67L966.465 -1915.36C968.894 -1914.26 971.317 -1913.15 973.736 -1912.03L973.422 -1911.35C975.839 -1910.24 978.251 -1909.11 980.659 -1907.98L980.978 -1908.66C983.387 -1907.53 985.792 -1906.39 988.191 -1905.24L987.867 -1904.56C990.272 -1903.41 992.672 -1902.25 995.067 -1901.08L995.396 -1901.75C997.794 -1900.58 1000.19 -1899.4 1002.58 -1898.21L1002.24 -1897.54C1004.63 -1896.35 1007.01 -1895.16 1009.39 -1893.95L1009.73 -1894.62C1012.11 -1893.42 1014.48 -1892.21 1016.85 -1890.98L1016.5 -1890.32C1018.87 -1889.1 1021.23 -1887.87 1023.59 -1886.63L1023.94 -1887.3C1026.3 -1886.06 1028.65 -1884.81 1031 -1883.56L1030.65 -1882.9C1032.99 -1881.64 1035.34 -1880.38 1037.67 -1879.11L1038.03 -1879.77C1040.38 -1878.49 1042.72 -1877.21 1045.05 -1875.92L1044.69 -1875.26C1047.02 -1873.97 1049.35 -1872.67 1051.67 -1871.37L1052.04 -1872.02C1054.37 -1870.71 1056.68 -1869.4 1059 -1868.07L1058.63 -1867.42C1060.94 -1866.1 1063.24 -1864.77 1065.55 -1863.43L1065.92 -1864.08C1068.23 -1862.74 1070.52 -1861.39 1072.82 -1860.03L1072.44 -1859.39C1074.73 -1858.03 1077.01 -1856.67 1079.29 -1855.3L1079.68 -1855.94C1081.96 -1854.57 1084.24 -1853.18 1086.52 -1851.79L1086.12 -1851.15C1088.4 -1849.76 1090.67 -1848.36 1092.93 -1846.96L1093.33 -1847.59C1095.59 -1846.19 1097.85 -1844.77 1100.11 -1843.35L1099.71 -1842.71C1101.96 -1841.29 1104.21 -1839.86 1106.45 -1838.42L1106.85 -1839.05C1109.1 -1837.61 1111.33 -1836.16 1113.57 -1834.71L1113.16 -1834.08C1115.39 -1832.63 1117.61 -1831.16 1119.83 -1829.69L1120.25 -1830.32C1122.47 -1828.85 1124.68 -1827.37 1126.89 -1825.88L1126.47 -1825.26C1128.68 -1823.77 1130.89 -1822.28 1133.09 -1820.77L1133.51 -1821.39C1135.71 -1819.89 1137.91 -1818.37 1140.1 -1816.85L1139.67 -1816.24C1141.86 -1814.72 1144.05 -1813.19 1146.22 -1811.66L1146.66 -1812.27C1148.83 -1810.73 1151.01 -1809.19 1153.17 -1807.64L1152.74 -1807.03C1154.9 -1805.48 1157.06 -1803.92 1159.22 -1802.35L1159.66 -1802.96C1161.81 -1801.39 1163.96 -1799.82 1166.11 -1798.24L1165.66 -1797.63C1167.8 -1796.05 1169.94 -1794.46 1172.07 -1792.87L1172.52 -1793.47C1174.66 -1791.87 1176.78 -1790.26 1178.91 -1788.65L1178.45 -1788.05C1180.57 -1786.44 1182.69 -1784.82 1184.8 -1783.19L1185.26 -1783.78C1187.37 -1782.15 1189.47 -1780.51 1191.57 -1778.87L1191.1 -1778.28C1193.2 -1776.64 1195.29 -1774.99 1197.38 -1773.33L1197.84 -1773.91C1199.93 -1772.26 1202.01 -1770.59 1204.08 -1768.92L1203.61 -1768.33C1205.68 -1766.66 1207.75 -1764.98 1209.81 -1763.29L1210.28 -1763.87C1212.34 -1762.18 1214.4 -1760.48 1216.45 -1758.78L1215.97 -1758.2C1218.02 -1756.5 1220.06 -1754.79 1222.1 -1753.07L1222.58 -1753.64C1224.62 -1751.92 1226.65 -1750.2 1228.68 -1748.46L1228.19 -1747.89C1230.21 -1746.16 1232.23 -1744.42 1234.24 -1742.67L1234.73 -1743.24C1236.74 -1741.49 1238.75 -1739.74 1240.75 -1737.97L1240.25 -1737.41C1242.25 -1735.65 1244.24 -1733.88 1246.23 -1732.11L1246.73 -1732.67C1248.71 -1730.89 1250.69 -1729.1 1252.66 -1727.31L1252.16 -1726.76C1254.13 -1724.97 1256.1 -1723.17 1258.06 -1721.36L1258.57 -1721.92C1260.53 -1720.11 1262.48 -1718.3 1264.43 -1716.48L1263.92 -1715.93C1265.86 -1714.11 1267.8 -1712.28 1269.74 -1710.45L1270.25 -1711C1272.19 -1709.16 1274.12 -1707.32 1276.04 -1705.47L1275.52 -1704.93C1277.44 -1703.09 1279.35 -1701.23 1281.26 -1699.37L1281.78 -1699.91C1283.69 -1698.05 1285.59 -1696.18 1287.48 -1694.3L1286.95 -1693.77C1288.85 -1691.9 1290.73 -1690.02 1292.61 -1688.13L1293.14 -1688.66C1295.02 -1686.77 1296.9 -1684.87 1298.77 -1682.97L1298.23 -1682.44C1300.1 -1680.54 1301.95 -1678.64 1303.81 -1676.72L1304.34 -1677.24C1306.2 -1675.33 1308.04 -1673.4 1309.88 -1671.47L1309.34 -1670.96C1311.18 -1669.03 1313.01 -1667.09 1314.83 -1665.15L1315.38 -1665.67C1317.21 -1663.72 1319.02 -1661.77 1320.83 -1659.82L1320.28 -1659.31C1322.09 -1657.35 1323.9 -1655.39 1325.69 -1653.42L1326.25 -1653.93C1328.04 -1651.96 1329.83 -1649.99 1331.62 -1648L1331.06 -1647.5C1332.84 -1645.52 1334.61 -1643.54 1336.38 -1641.54L1336.94 -1642.04C1338.71 -1640.05 1340.47 -1638.05 1342.22 -1636.04L1341.66 -1635.55C1343.41 -1633.54 1345.16 -1631.53 1346.9 -1629.51L1347.46 -1630C1349.2 -1627.98 1350.93 -1625.95 1352.66 -1623.92L1352.09 -1623.43C1353.81 -1621.4 1355.53 -1619.36 1357.24 -1617.32L1357.81 -1617.8C1359.52 -1615.76 1361.22 -1613.7 1362.92 -1611.65L1362.34 -1611.17C1364.03 -1609.11 1365.72 -1607.05 1367.4 -1604.99L1367.98 -1605.46C1369.66 -1603.39 1371.33 -1601.31 1373 -1599.23L1372.41 -1598.76C1374.07 -1596.68 1375.73 -1594.6 1377.38 -1592.51L1377.97 -1592.97C1379.62 -1590.88 1381.26 -1588.78 1382.9 -1586.67L1382.3 -1586.21C1383.94 -1584.11 1385.56 -1582 1387.18 -1579.88L1387.78 -1580.34C1389.4 -1578.22 1391.01 -1576.09 1392.61 -1573.96L1392.02 -1573.51C1393.62 -1571.39 1395.21 -1569.25 1396.8 -1567.11L1397.4 -1567.56C1398.99 -1565.42 1400.57 -1563.28 1402.14 -1561.12L1401.54 -1560.68C1403.11 -1558.53 1404.67 -1556.38 1406.23 -1554.21L1406.84 -1554.65C1408.39 -1552.49 1409.94 -1550.32 1411.48 -1548.15L1410.87 -1547.71C1412.41 -1545.54 1413.95 -1543.36 1415.47 -1541.17L1416.09 -1541.6C1417.61 -1539.42 1419.13 -1537.23 1420.64 -1535.03L1420.02 -1534.6C1421.53 -1532.41 1423.03 -1530.2 1424.53 -1528L1425.15 -1528.42C1426.64 -1526.21 1428.13 -1524 1429.6 -1521.78L1428.98 -1521.37C1430.45 -1519.15 1431.92 -1516.93 1433.38 -1514.7L1434.01 -1515.11C1435.47 -1512.89 1436.92 -1510.65 1438.37 -1508.41L1437.74 -1508.01C1439.18 -1505.77 1440.62 -1503.52 1442.05 -1501.27L1442.68 -1501.68C1444.11 -1499.43 1445.53 -1497.17 1446.94 -1494.91L1446.31 -1494.51C1447.72 -1492.25 1449.12 -1489.98 1450.52 -1487.71L1451.16 -1488.11C1452.55 -1485.84 1453.94 -1483.56 1455.32 -1481.28L1454.68 -1480.89C1455.14 -1480.14 1455.59 -1479.38 1456.05 -1478.62C1456.96 -1477.1 1457.88 -1475.57 1458.79 -1474.04L1459.43 -1474.43C1460.79 -1472.14 1462.15 -1469.84 1463.49 -1467.54L1462.85 -1467.16C1464.19 -1464.87 1465.53 -1462.56 1466.85 -1460.25L1467.51 -1460.63C1468.83 -1458.32 1470.16 -1456 1471.47 -1453.68L1470.82 -1453.31C1472.13 -1450.99 1473.43 -1448.67 1474.73 -1446.34L1475.38 -1446.7C1476.68 -1444.37 1477.97 -1442.03 1479.25 -1439.69L1478.59 -1439.33C1479.87 -1437 1481.13 -1434.65 1482.39 -1432.31L1483.05 -1432.66C1484.31 -1430.32 1485.56 -1427.97 1486.81 -1425.61L1486.14 -1425.26C1487.39 -1422.91 1488.62 -1420.55 1489.85 -1418.18L1490.51 -1418.53C1491.74 -1416.16 1492.96 -1413.79 1494.17 -1411.42L1493.5 -1411.08C1494.71 -1408.7 1495.91 -1406.32 1497.1 -1403.94L1497.77 -1404.27C1498.96 -1401.89 1500.15 -1399.5 1501.32 -1397.1L1500.65 -1396.77C1501.83 -1394.38 1502.99 -1391.98 1504.15 -1389.58L1504.83 -1389.9C1505.98 -1387.51 1507.13 -1385.1 1508.27 -1382.7L1507.59 -1382.38C1508.72 -1379.97 1509.85 -1377.56 1510.97 -1375.15L1511.65 -1375.46C1512.77 -1373.05 1513.89 -1370.62 1514.99 -1368.2L1514.31 -1367.89C1515.41 -1365.46 1516.51 -1363.04 1517.59 -1360.6L1518.28 -1360.91C1519.36 -1358.47 1520.44 -1356.03 1521.51 -1353.59L1520.82 -1353.29C1521.89 -1350.84 1522.95 -1348.4 1524 -1345.94L1524.69 -1346.24C1525.74 -1343.79 1526.79 -1341.34 1527.82 -1338.88L1527.13 -1338.59C1528.16 -1336.14 1529.18 -1333.68 1530.19 -1331.22L1530.88 -1331.51C1531.9 -1329.04 1532.9 -1326.58 1533.9 -1324.11L1533.2 -1323.83C1534.2 -1321.36 1535.18 -1318.88 1536.16 -1316.41L1536.86 -1316.68C1537.84 -1314.2 1538.81 -1311.72 1539.77 -1309.23L1539.07 -1308.96C1540.03 -1306.47 1540.98 -1303.98 1541.92 -1301.49L1542.62 -1301.75C1543.56 -1299.25 1544.5 -1296.75 1545.42 -1294.25L1544.72 -1293.99C1545.64 -1291.49 1546.55 -1288.99 1547.46 -1286.49L1548.16 -1286.74C1549.07 -1284.24 1549.96 -1281.73 1550.85 -1279.22L1550.14 -1278.97C1550.5 -1277.95 1550.86 -1276.92 1551.22 -1275.89C1551.74 -1274.41 1552.25 -1272.92 1552.77 -1271.43L1553.48 -1271.68C1554.34 -1269.16 1555.2 -1266.63 1556.05 -1264.11L1555.34 -1263.87C1556.19 -1261.34 1557.03 -1258.81 1557.86 -1256.28L1558.57 -1256.51C1559.41 -1253.98 1560.23 -1251.44 1561.04 -1248.9L1560.33 -1248.67C1561.14 -1246.13 1561.95 -1243.58 1562.74 -1241.03L1563.46 -1241.25C1564.25 -1238.72 1565.03 -1236.17 1565.8 -1233.63L1565.09 -1233.41C1565.86 -1230.87 1566.62 -1228.32 1567.38 -1225.77L1568.1 -1225.98C1568.85 -1223.43 1569.6 -1220.87 1570.33 -1218.31L1569.61 -1218.1C1570 -1216.78 1570.37 -1215.45 1570.75 -1214.12C1571.1 -1212.89 1571.45 -1211.65 1571.8 -1210.42L1572.52 -1210.62C1573.24 -1208.05 1573.95 -1205.48 1574.65 -1202.9L1573.92 -1202.7C1574.62 -1200.13 1575.31 -1197.55 1576 -1194.97L1576.72 -1195.16C1577.4 -1192.58 1578.08 -1190 1578.74 -1187.41L1578.01 -1187.23C1578.67 -1184.65 1579.32 -1182.08 1579.96 -1179.5L1580.69 -1179.68C1581.33 -1177.1 1581.96 -1174.51 1582.59 -1171.92L1581.86 -1171.75C1582.48 -1169.16 1583.09 -1166.57 1583.7 -1163.98L1584.43 -1164.15C1585.03 -1161.55 1585.63 -1158.95 1586.21 -1156.35L1585.48 -1156.19C1586.07 -1153.59 1586.64 -1150.98 1587.21 -1148.37L1587.94 -1148.53C1588.51 -1145.92 1589.07 -1143.31 1589.62 -1140.7L1588.88 -1140.54C1589.43 -1137.93 1589.97 -1135.32 1590.5 -1132.71L1591.23 -1132.86C1591.76 -1130.25 1592.28 -1127.65 1592.78 -1125.04L1592.05 -1124.89C1592.56 -1122.28 1593.05 -1119.67 1593.54 -1117.06L1594.28 -1117.2C1594.77 -1114.58 1595.25 -1111.96 1595.72 -1109.34L1594.98 -1109.2C1595.45 -1106.58 1595.91 -1103.96 1596.37 -1101.33L1597.1 -1101.46C1597.56 -1098.83 1598 -1096.19 1598.43 -1093.56L1597.69 -1093.43C1598.13 -1090.8 1598.55 -1088.16 1598.96 -1085.52L1599.7 -1085.64C1600.12 -1083.01 1600.52 -1080.37 1600.91 -1077.73L1600.17 -1077.62C1600.56 -1075 1600.95 -1072.37 1601.32 -1069.74L1602.06 -1069.85C1602.44 -1067.21 1602.8 -1064.58 1603.16 -1061.94L1602.41 -1061.84C1602.77 -1059.2 1603.11 -1056.56 1603.45 -1053.92L1604.19 -1054.02C1604.53 -1051.37 1604.86 -1048.72 1605.17 -1046.07L1604.43 -1045.98C1604.74 -1043.34 1605.05 -1040.68 1605.35 -1038.03L1606.1 -1038.11C1606.39 -1035.46 1606.68 -1032.8 1606.96 -1030.14L1606.22 -1030.06C1606.49 -1027.41 1606.76 -1024.77 1607.02 -1022.11L1607.77 -1022.19C1608.03 -1019.55 1608.27 -1016.9 1608.51 -1014.25L1607.77 -1014.19C1608 -1011.54 1608.23 -1008.89 1608.45 -1006.24L1609.2 -1006.3C1609.42 -1003.65 1609.63 -1000.99 1609.83 -998.336L1609.09 -998.279C1609.29 -995.623 1609.48 -992.964 1609.66 -990.302L1610.41 -990.353C1610.59 -987.69 1610.76 -985.024 1610.93 -982.355L1610.18 -982.309C1610.26 -980.961 1610.34 -979.611 1610.42 -978.261C1610.49 -976.942 1610.57 -975.622 1610.64 -974.301L1611.39 -974.342C1611.53 -971.684 1611.67 -969.024 1611.79 -966.362L1611.04 -966.327C1611.16 -963.678 1611.28 -961.027 1611.38 -958.374L1612.13 -958.403C1612.24 -955.748 1612.33 -953.09 1612.42 -950.43L1611.67 -950.406C1611.75 -947.748 1611.83 -945.087 1611.9 -942.424L1612.65 -942.443C1612.71 -939.778 1612.77 -937.111 1612.82 -934.441L1612.07 -934.428C1612.12 -931.76 1612.16 -929.09 1612.19 -926.418L1612.94 -926.426Z" stroke="white" stroke-opacity="0.3" stroke-width="1.5" stroke-dasharray="8 8"/>
<circle cx="411.5" cy="130.369" r="6" fill="#FBBE7E"/>
<circle cx="621.5" cy="177.369" r="6" fill="#FBBE7E"/>
</g>
<defs>
<clipPath id="clip0_1183_8912">
<rect width="1024" height="184" fill="white"/>
</clipPath>
</defs>
</svg>
