<svg width="396" height="652" viewBox="0 0 396 652" fill="none" xmlns="http://www.w3.org/2000/svg">
<g clip-path="url(#clip0_8431_27933)">
<g filter="url(#filter0_f_8431_27933)">
<ellipse cx="450.705" cy="382.989" rx="450.705" ry="382.989" transform="matrix(0.986598 0.163173 -0.162178 0.986762 -148.457 -619.015)" fill="#4523A5" fill-opacity="0.6"/>
</g>
<g filter="url(#filter1_f_8431_27933)">
<ellipse cx="227.518" cy="215.67" rx="227.518" ry="215.67" transform="matrix(0.986598 0.163173 -0.162178 0.986762 73.168 -474.6)" fill="#FF502A"/>
</g>
<g filter="url(#filter2_f_8431_27933)">
<ellipse cx="196.927" cy="124.058" rx="196.927" ry="124.058" transform="matrix(0.986598 0.163173 -0.162178 0.986762 57.3477 -433.368)" fill="#FF8C1B"/>
</g>
<path d="M369 2.7203e-05L369 27.2882C369 35.01 375.26 41.2697 382.982 41.2697L569.018 41.2696C576.74 41.2696 583 47.5294 583 55.2512L583 372" stroke="url(#paint0_linear_8431_27933)" stroke-opacity="0.4" stroke-width="1.74769"/>
<path d="M247.43 -2.20465L247.43 51.7495C247.43 59.4713 241.17 65.7311 233.448 65.7311L94.1923 65.7311C86.4705 65.7311 80.2107 71.9908 80.2107 79.7126L80.2107 197.881L80.2107 262.789C80.2107 270.511 73.951 276.771 66.2292 276.771L-191.629 276.771" stroke="url(#paint1_linear_8431_27933)" stroke-opacity="0.4" stroke-width="1.74769"/>
<path d="M292.887 -151.705L-143.282 -151.705C-151.004 -151.705 -157.263 -145.445 -157.263 -137.723L-157.263 -3.68621C-157.263 4.03558 -163.523 10.2953 -171.245 10.2953L-301.113 10.2953" stroke="url(#paint2_linear_8431_27933)" stroke-width="1.74769"/>
<path d="M382.379 -126.072L619.264 -126.072C626.985 -126.072 633.245 -119.813 633.245 -112.091L633.245 29.4722C633.245 37.194 639.505 43.4537 647.227 43.4537L837.764 43.4537" stroke="url(#paint3_linear_8431_27933)" stroke-width="1.74769"/>
<path d="M217.887 -53.7047L-97.1513 -53.7047C-104.873 -53.7047 -111.133 -47.4449 -111.133 -39.7231L-111.133 29.3138C-111.133 37.0356 -117.393 43.2953 -125.114 43.2953L-274.113 43.2953" stroke="url(#paint4_linear_8431_27933)" stroke-opacity="0.4" stroke-width="1.74769"/>
<path d="M218.207 -24.7063L41.6901 -24.7063C33.9683 -24.7063 27.7086 -18.4465 27.7086 -10.7247L27.7086 52.1922C27.7086 59.914 21.4488 66.1737 13.727 66.1737L-293.867 66.1738" stroke="url(#paint5_linear_8431_27933)" stroke-width="1.74769"/>
<path d="M335 1.91456e-05L335 177.641C335 185.363 341.26 191.623 348.982 191.623L467.018 191.623C474.74 191.623 481 197.883 481 205.604L481 391" stroke="url(#paint6_linear_8431_27933)" stroke-width="1.74769"/>
<path d="M267 -1.00003L267 133.29C267 141.012 260.74 147.271 253.018 147.271L-102.018 147.271C-109.74 147.271 -116 153.531 -116 161.253L-116 377" stroke="url(#paint7_linear_8431_27933)" stroke-opacity="0.4" stroke-width="1.74769"/>
<path d="M288 -1.00002L288 232.54C288 240.262 281.74 246.522 274.018 246.522L146.982 246.522C139.26 246.522 133 252.781 133 260.503L133 389" stroke="url(#paint8_linear_8431_27933)" stroke-width="1.74769"/>
<path d="M312 3.37015e-05L312 262.948C312 270.67 318.26 276.93 325.982 276.93L555.018 276.93C562.74 276.93 569 283.189 569 290.911L569 389" stroke="url(#paint9_linear_8431_27933)" stroke-opacity="0.4" stroke-width="1.74769"/>
<path d="M354 -1.99996L354 124.534C354 132.256 360.26 138.515 367.982 138.515L646.17 138.515C653.892 138.515 660.152 144.775 660.152 152.497L660.152 244.018C660.152 251.74 666.412 258 674.133 258L817 258" stroke="url(#paint10_linear_8431_27933)" stroke-opacity="0.4" stroke-width="1.74769"/>
<circle opacity="0.7" cx="3.49538" cy="3.49538" r="3.49538" transform="matrix(-1 8.74228e-08 8.74228e-08 1 338.805 172.678)" fill="#FBBE7E"/>
<circle opacity="0.6" cx="3.49538" cy="3.49538" r="3.49538" transform="matrix(-1 8.74228e-08 8.74228e-08 1 122.082 62.6783)" fill="#FF6E75"/>
<circle cx="4.36923" cy="4.36923" r="4.36923" transform="matrix(-1 8.74228e-08 8.74228e-08 1 292.449 95.1307)" fill="#FF6E75"/>
</g>
<rect x="0.5" y="0.5" width="395" height="651" rx="11.5" stroke="white" stroke-opacity="0.15"/>
<defs>
<filter id="filter0_f_8431_27933" x="-469.384" y="-807.077" width="1406.96" height="1279.05" filterUnits="userSpaceOnUse" color-interpolation-filters="sRGB">
<feFlood flood-opacity="0" result="BackgroundImageFix"/>
<feBlend mode="normal" in="SourceGraphic" in2="BackgroundImageFix" result="shape"/>
<feGaussianBlur stdDeviation="127.221" result="effect1_foregroundBlur_8431_27933"/>
</filter>
<filter id="filter1_f_8431_27933" x="-218.994" y="-695.168" width="963.308" height="941.014" filterUnits="userSpaceOnUse" color-interpolation-filters="sRGB">
<feFlood flood-opacity="0" result="BackgroundImageFix"/>
<feBlend mode="normal" in="SourceGraphic" in2="BackgroundImageFix" result="shape"/>
<feGaussianBlur stdDeviation="127.221" result="effect1_foregroundBlur_8431_27933"/>
</filter>
<filter id="filter2_f_8431_27933" x="-218.271" y="-659.856" width="899.573" height="762.073" filterUnits="userSpaceOnUse" color-interpolation-filters="sRGB">
<feFlood flood-opacity="0" result="BackgroundImageFix"/>
<feBlend mode="normal" in="SourceGraphic" in2="BackgroundImageFix" result="shape"/>
<feGaussianBlur stdDeviation="127.221" result="effect1_foregroundBlur_8431_27933"/>
</filter>
<linearGradient id="paint0_linear_8431_27933" x1="457.693" y1="2.73632e-06" x2="484.806" y2="388.647" gradientUnits="userSpaceOnUse">
<stop offset="0.272266" stop-color="#FBBE7E"/>
<stop offset="1" stop-color="#000223" stop-opacity="0"/>
</linearGradient>
<linearGradient id="paint1_linear_8431_27933" x1="158.82" y1="16.3646" x2="-119.647" y2="443.353" gradientUnits="userSpaceOnUse">
<stop offset="0.159446" stop-color="#FF6E75"/>
<stop offset="1" stop-color="#000223"/>
</linearGradient>
<linearGradient id="paint2_linear_8431_27933" x1="250.876" y1="-54.7412" x2="-277.547" y2="-45.5076" gradientUnits="userSpaceOnUse">
<stop stop-color="#FF6E75"/>
<stop offset="1" stop-color="#000223"/>
</linearGradient>
<linearGradient id="paint3_linear_8431_27933" x1="406.084" y1="-41.3093" x2="842.133" y2="-41.3094" gradientUnits="userSpaceOnUse">
<stop stop-color="#FF6E75"/>
<stop offset="1" stop-color="#000223" stop-opacity="0"/>
</linearGradient>
<linearGradient id="paint4_linear_8431_27933" x1="217.887" y1="-5.20471" x2="-324.099" y2="-5.20467" gradientUnits="userSpaceOnUse">
<stop stop-color="#FBBE7E"/>
<stop offset="1" stop-color="#000223"/>
</linearGradient>
<linearGradient id="paint5_linear_8431_27933" x1="281.998" y1="5.87832" x2="-293.867" y2="20.7338" gradientUnits="userSpaceOnUse">
<stop stop-color="#FF6E75"/>
<stop offset="1" stop-color="#000223"/>
</linearGradient>
<linearGradient id="paint6_linear_8431_27933" x1="485.961" y1="-8.51685e-06" x2="485.961" y2="306.349" gradientUnits="userSpaceOnUse">
<stop stop-color="#FBBE7E"/>
<stop offset="1" stop-color="#000223" stop-opacity="0"/>
</linearGradient>
<linearGradient id="paint7_linear_8431_27933" x1="187.112" y1="-21.6645" x2="-126.549" y2="288.911" gradientUnits="userSpaceOnUse">
<stop stop-color="#FBBE7E"/>
<stop offset="1" stop-color="#000223"/>
</linearGradient>
<linearGradient id="paint8_linear_8431_27933" x1="127.733" y1="-1.00001" x2="111.146" y2="436.872" gradientUnits="userSpaceOnUse">
<stop stop-color="#FF6E75"/>
<stop offset="1" stop-color="#000223" stop-opacity="0"/>
</linearGradient>
<linearGradient id="paint9_linear_8431_27933" x1="403.672" y1="5.87744e-06" x2="402.053" y2="446.994" gradientUnits="userSpaceOnUse">
<stop offset="0.272266" stop-color="#FF6E75"/>
<stop offset="1" stop-color="#000223"/>
</linearGradient>
<linearGradient id="paint10_linear_8431_27933" x1="489.604" y1="10.1068" x2="815.172" y2="273.04" gradientUnits="userSpaceOnUse">
<stop stop-color="#FF6E75"/>
<stop offset="1" stop-color="#000223"/>
</linearGradient>
<clipPath id="clip0_8431_27933">
<rect width="396" height="652" rx="12" fill="white"/>
</clipPath>
</defs>
</svg>
