<svg width="912" height="252" viewBox="0 0 912 252" fill="none" xmlns="http://www.w3.org/2000/svg">
<g clip-path="url(#clip0_8453_32112)">
<g filter="url(#filter0_f_8453_32112)">
<ellipse cx="450.705" cy="382.989" rx="450.705" ry="382.989" transform="matrix(0.986598 0.163173 -0.162178 0.986762 -88.457 -649.015)" fill="#4523A5" fill-opacity="0.6"/>
</g>
<g filter="url(#filter1_f_8453_32112)">
<ellipse cx="227.518" cy="215.67" rx="227.518" ry="215.67" transform="matrix(0.986598 0.163173 -0.162178 0.986762 133.168 -504.6)" fill="#FF502A"/>
</g>
<g filter="url(#filter2_f_8453_32112)">
<ellipse cx="196.927" cy="124.058" rx="196.927" ry="124.058" transform="matrix(0.986598 0.163173 -0.162178 0.986762 117.348 -463.368)" fill="#FF8C1B"/>
</g>
<path d="M429 -30L429 -2.71182C429 5.00997 435.26 11.2697 442.982 11.2697L629.018 11.2696C636.74 11.2696 643 17.5294 643 25.2512L643 342" stroke="url(#paint0_linear_8453_32112)" stroke-opacity="0.4" stroke-width="1.74769"/>
<path d="M307.43 -36.2046L307.43 17.7495C307.43 25.4713 301.17 31.7311 293.448 31.7311L154.192 31.7311C146.47 31.7311 140.211 37.9908 140.211 45.7126L140.211 163.881L140.211 228.789C140.211 236.511 133.951 242.771 126.229 242.771L-131.629 242.771" stroke="url(#paint1_linear_8453_32112)" stroke-opacity="0.4" stroke-width="1.74769"/>
<path d="M442.379 -156.072L679.264 -156.072C686.985 -156.072 693.245 -149.813 693.245 -142.091L693.245 -0.527806C693.245 7.19398 699.505 13.4537 707.227 13.4537L897.764 13.4537" stroke="url(#paint2_linear_8453_32112)" stroke-width="1.74769"/>
<path d="M466.082 -75.6787L507.321 -75.6787C515.042 -75.6787 521.302 -69.4189 521.302 -61.6972L521.302 61.8388C521.302 69.5606 527.562 75.8203 535.284 75.8203L712.774 75.8203L867.177 75.8203C874.899 75.8203 881.159 82.0801 881.159 89.8018L881.159 249.392" stroke="url(#paint3_linear_8453_32112)" stroke-opacity="0.4" stroke-width="1.74769"/>
<path d="M277.887 -83.7047L-37.1513 -83.7047C-44.8731 -83.7047 -51.1328 -77.4449 -51.1328 -69.7231L-51.1328 -0.686217C-51.1328 7.03557 -57.3926 13.2953 -65.1144 13.2953L-214.113 13.2953" stroke="url(#paint4_linear_8453_32112)" stroke-opacity="0.4" stroke-width="1.74769"/>
<path d="M278.207 -54.7063L101.69 -54.7063C93.9683 -54.7063 87.7086 -48.4465 87.7086 -40.7247L87.7086 22.1922C87.7086 29.914 81.4488 36.1737 73.727 36.1737L-233.867 36.1738" stroke="url(#paint5_linear_8453_32112)" stroke-width="1.74769"/>
<path d="M395 -20L395 157.641C395 165.363 401.26 171.623 408.982 171.623L527.018 171.623C534.74 171.623 541 177.883 541 185.604L541 371" stroke="url(#paint6_linear_8453_32112)" stroke-width="1.74769"/>
<path d="M327 -48.0001L327 86.2897C327 94.0115 320.74 100.271 313.018 100.271L-42.0184 100.271C-49.7402 100.271 -56 106.531 -56 114.253L-55.9999 330" stroke="url(#paint7_linear_8453_32112)" stroke-opacity="0.4" stroke-width="1.74769"/>
<path d="M348 -21L348 212.54C348 220.262 341.74 226.522 334.018 226.522L206.982 226.522C199.26 226.522 193 232.781 193 240.503L193 369" stroke="url(#paint8_linear_8453_32112)" stroke-width="1.74769"/>
<path d="M372 -38L372 224.948C372 232.67 378.26 238.93 385.982 238.93L615.018 238.93C622.74 238.93 629 245.189 629 252.911L629 351" stroke="url(#paint9_linear_8453_32112)" stroke-opacity="0.4" stroke-width="1.74769"/>
<path d="M414 -42L414 84.5339C414 92.2557 420.26 98.5154 427.982 98.5154L706.17 98.5154C713.892 98.5154 720.152 104.775 720.152 112.497L720.152 204.018C720.152 211.74 726.412 218 734.133 218L877 218" stroke="url(#paint10_linear_8453_32112)" stroke-opacity="0.4" stroke-width="1.74769"/>
<circle opacity="0.3" cx="2.62154" cy="2.62154" r="2.62154" transform="matrix(-1 8.74228e-08 8.74228e-08 1 869.801 10.8322)" fill="#FF6E75"/>
<circle opacity="0.7" cx="3.49538" cy="3.49538" r="3.49538" transform="matrix(-1 8.74228e-08 8.74228e-08 1 581.43 8.07532)" fill="#FBBE7E"/>
<circle opacity="0.7" cx="3.49538" cy="3.49538" r="3.49538" transform="matrix(-1 8.74228e-08 8.74228e-08 1 398.805 142.678)" fill="#FBBE7E"/>
<circle opacity="0.6" cx="3.49538" cy="3.49538" r="3.49538" transform="matrix(-1 8.74228e-08 8.74228e-08 1 182.082 28.6783)" fill="#FF6E75"/>
<circle cx="4.36923" cy="4.36923" r="4.36923" transform="matrix(-1 8.74228e-08 8.74228e-08 1 352.449 65.1307)" fill="#FF6E75"/>
<circle opacity="0.6" cx="3.49538" cy="3.49538" r="3.49538" transform="matrix(-1 8.74228e-08 8.74228e-08 1 697.652 72.0013)" fill="#FF6E75"/>
</g>
<rect x="0.5" y="0.5" width="911" height="251" rx="11.5" stroke="white" stroke-opacity="0.15"/>
<defs>
<filter id="filter0_f_8453_32112" x="-409.384" y="-837.077" width="1406.96" height="1279.05" filterUnits="userSpaceOnUse" color-interpolation-filters="sRGB">
<feFlood flood-opacity="0" result="BackgroundImageFix"/>
<feBlend mode="normal" in="SourceGraphic" in2="BackgroundImageFix" result="shape"/>
<feGaussianBlur stdDeviation="127.221" result="effect1_foregroundBlur_8453_32112"/>
</filter>
<filter id="filter1_f_8453_32112" x="-158.994" y="-725.168" width="963.308" height="941.014" filterUnits="userSpaceOnUse" color-interpolation-filters="sRGB">
<feFlood flood-opacity="0" result="BackgroundImageFix"/>
<feBlend mode="normal" in="SourceGraphic" in2="BackgroundImageFix" result="shape"/>
<feGaussianBlur stdDeviation="127.221" result="effect1_foregroundBlur_8453_32112"/>
</filter>
<filter id="filter2_f_8453_32112" x="-158.271" y="-689.856" width="899.573" height="762.073" filterUnits="userSpaceOnUse" color-interpolation-filters="sRGB">
<feFlood flood-opacity="0" result="BackgroundImageFix"/>
<feBlend mode="normal" in="SourceGraphic" in2="BackgroundImageFix" result="shape"/>
<feGaussianBlur stdDeviation="127.221" result="effect1_foregroundBlur_8453_32112"/>
</filter>
<linearGradient id="paint0_linear_8453_32112" x1="517.693" y1="-30" x2="544.806" y2="358.647" gradientUnits="userSpaceOnUse">
<stop offset="0.272266" stop-color="#FBBE7E"/>
<stop offset="1" stop-color="#000223" stop-opacity="0"/>
</linearGradient>
<linearGradient id="paint1_linear_8453_32112" x1="218.82" y1="-17.6354" x2="-59.6466" y2="409.353" gradientUnits="userSpaceOnUse">
<stop offset="0.159446" stop-color="#FF6E75"/>
<stop offset="1" stop-color="#000223"/>
</linearGradient>
<linearGradient id="paint2_linear_8453_32112" x1="466.084" y1="-71.3093" x2="902.133" y2="-71.3094" gradientUnits="userSpaceOnUse">
<stop stop-color="#FF6E75"/>
<stop offset="1" stop-color="#000223" stop-opacity="0"/>
</linearGradient>
<linearGradient id="paint3_linear_8453_32112" x1="466.082" y1="0.0707868" x2="899.073" y2="260.315" gradientUnits="userSpaceOnUse">
<stop offset="0.304295" stop-color="#FF6E75"/>
<stop offset="0.777689" stop-color="#000223" stop-opacity="0"/>
</linearGradient>
<linearGradient id="paint4_linear_8453_32112" x1="277.887" y1="-35.2047" x2="-264.099" y2="-35.2047" gradientUnits="userSpaceOnUse">
<stop stop-color="#FBBE7E"/>
<stop offset="1" stop-color="#000223"/>
</linearGradient>
<linearGradient id="paint5_linear_8453_32112" x1="341.998" y1="-24.1217" x2="-233.867" y2="-9.26625" gradientUnits="userSpaceOnUse">
<stop stop-color="#FF6E75"/>
<stop offset="1" stop-color="#000223"/>
</linearGradient>
<linearGradient id="paint6_linear_8453_32112" x1="545.961" y1="-20" x2="545.961" y2="286.349" gradientUnits="userSpaceOnUse">
<stop stop-color="#FBBE7E"/>
<stop offset="1" stop-color="#000223" stop-opacity="0"/>
</linearGradient>
<linearGradient id="paint7_linear_8453_32112" x1="247.112" y1="-68.6645" x2="-66.5489" y2="241.911" gradientUnits="userSpaceOnUse">
<stop stop-color="#FBBE7E"/>
<stop offset="1" stop-color="#000223"/>
</linearGradient>
<linearGradient id="paint8_linear_8453_32112" x1="187.733" y1="-21" x2="171.146" y2="416.872" gradientUnits="userSpaceOnUse">
<stop stop-color="#FF6E75"/>
<stop offset="1" stop-color="#000223" stop-opacity="0"/>
</linearGradient>
<linearGradient id="paint9_linear_8453_32112" x1="463.672" y1="-38" x2="462.053" y2="408.994" gradientUnits="userSpaceOnUse">
<stop offset="0.272266" stop-color="#FF6E75"/>
<stop offset="1" stop-color="#000223"/>
</linearGradient>
<linearGradient id="paint10_linear_8453_32112" x1="549.604" y1="-29.8932" x2="875.172" y2="233.04" gradientUnits="userSpaceOnUse">
<stop stop-color="#FF6E75"/>
<stop offset="1" stop-color="#000223"/>
</linearGradient>
<clipPath id="clip0_8453_32112">
<rect width="912" height="252" rx="12" fill="white"/>
</clipPath>
</defs>
</svg>
