<svg width="672" height="251" viewBox="0 0 672 251" fill="none" xmlns="http://www.w3.org/2000/svg">
<g clip-path="url(#clip0_8463_32262)">
<g filter="url(#filter0_f_8463_32262)">
<ellipse cx="450.705" cy="382.989" rx="450.705" ry="382.989" transform="matrix(0.986598 0.163173 -0.162178 0.986762 21.543 -628.371)" fill="#4523A5" fill-opacity="0.6"/>
</g>
<g filter="url(#filter1_f_8463_32262)">
<ellipse cx="227.518" cy="215.67" rx="227.518" ry="215.67" transform="matrix(0.986598 0.163173 -0.162178 0.986762 243.168 -483.955)" fill="#FF502A"/>
</g>
<g filter="url(#filter2_f_8463_32262)">
<ellipse cx="196.927" cy="124.058" rx="196.927" ry="124.058" transform="matrix(0.986598 0.163173 -0.162178 0.986762 227.348 -442.723)" fill="#FF8C1B"/>
</g>
<path d="M539 -9.3552L539 17.933C539 25.6547 545.26 31.9145 552.982 31.9145L739.018 31.9144C746.74 31.9144 753 38.1741 753 45.8959L753 362.645" stroke="url(#paint0_linear_8463_32262)" stroke-opacity="0.4" stroke-width="1.74769"/>
<path d="M417.43 -11.5599L417.43 42.3943C417.43 50.1161 411.17 56.3759 403.448 56.3759L264.192 56.3759C256.47 56.3759 250.211 62.6356 250.211 70.3574L250.211 188.526L250.211 253.434C250.211 261.156 243.951 267.415 236.229 267.415L-21.6289 267.415" stroke="url(#paint1_linear_8463_32262)" stroke-opacity="0.4" stroke-width="1.74769"/>
<path d="M462.887 -161.06L26.7181 -161.06C18.9963 -161.06 12.7366 -154.8 12.7366 -147.078L12.7366 -13.0414C12.7366 -5.31965 6.47688 0.940103 -1.24491 0.940104L-131.113 0.940115" stroke="url(#paint2_linear_8463_32262)" stroke-width="1.74769"/>
<path d="M552.379 -135.428L789.264 -135.428C796.985 -135.428 803.245 -129.168 803.245 -121.446L803.245 20.117C803.245 27.8388 809.505 34.0985 817.227 34.0985L1007.76 34.0985" stroke="url(#paint3_linear_8463_32262)" stroke-width="1.74769"/>
<path d="M576.082 -55.0339L617.321 -55.0339C625.042 -55.0339 631.302 -48.7742 631.302 -41.0524L631.302 82.4836C631.302 90.2054 637.562 96.4651 645.284 96.4651L822.774 96.4651L977.177 96.4651C984.899 96.4651 991.159 102.725 991.159 110.447L991.159 270.037" stroke="url(#paint4_linear_8463_32262)" stroke-opacity="0.4" stroke-width="1.74769"/>
<path d="M387.887 -71.0599L72.8487 -71.0599C65.1269 -71.0599 58.8672 -64.8002 58.8672 -57.0784L58.8672 11.9586C58.8672 19.6803 52.6074 25.9401 44.8856 25.9401L-104.113 25.9401" stroke="url(#paint5_linear_8463_32262)" stroke-opacity="0.4" stroke-width="1.74769"/>
<path d="M388.207 -29.0615L211.69 -29.0615C203.968 -29.0615 197.709 -22.8018 197.709 -15.08L197.709 47.8369C197.709 55.5587 191.449 61.8185 183.727 61.8185L-123.867 61.8185" stroke="url(#paint6_linear_8463_32262)" stroke-width="1.74769"/>
<path d="M505 -9.35521L505 168.286C505 176.008 511.26 182.268 518.982 182.268L637.018 182.268C644.74 182.268 651 188.527 651 196.249L651 381.645" stroke="url(#paint7_linear_8463_32262)" stroke-width="1.74769"/>
<path d="M437 -48.3553L437 85.9345C437 93.6563 430.74 99.916 423.018 99.916L67.9816 99.9161C60.2598 99.9161 54 106.176 54 113.898L54.0001 329.645" stroke="url(#paint8_linear_8463_32262)" stroke-opacity="0.4" stroke-width="1.74769"/>
<path d="M458 -10.3552L458 223.185C458 230.907 451.74 237.166 444.018 237.166L316.982 237.166C309.26 237.166 303 243.426 303 251.148L303 379.645" stroke="url(#paint9_linear_8463_32262)" stroke-width="1.74769"/>
<path d="M482 -9.35519L482 253.593C482 261.315 488.26 267.575 495.982 267.575L725.018 267.574C732.74 267.574 739 273.834 739 281.556L739 379.645" stroke="url(#paint10_linear_8463_32262)" stroke-opacity="0.4" stroke-width="1.74769"/>
<path d="M524 -11.3552L524 115.179C524 122.9 530.26 129.16 537.982 129.16L816.17 129.16C823.892 129.16 830.152 135.42 830.152 143.142L830.152 234.663C830.152 242.385 836.412 248.645 844.133 248.645L987 248.645" stroke="url(#paint11_linear_8463_32262)" stroke-opacity="0.4" stroke-width="1.74769"/>
<circle opacity="0.7" cx="3.49538" cy="3.49538" r="3.49538" transform="matrix(-1 8.74228e-08 8.74228e-08 1 508.805 163.323)" fill="#FBBE7E"/>
<circle opacity="0.6" cx="3.49538" cy="3.49538" r="3.49538" transform="matrix(-1 8.74228e-08 8.74228e-08 1 292.082 53.3231)" fill="#FF6E75"/>
<circle cx="4.36923" cy="4.36923" r="4.36923" transform="matrix(-1 8.74228e-08 8.74228e-08 1 462.449 85.7755)" fill="#FF6E75"/>
</g>
<rect x="0.5" y="0.5" width="671" height="250" rx="11.5" stroke="white" stroke-opacity="0.15"/>
<defs>
<filter id="filter0_f_8463_32262" x="-299.384" y="-816.432" width="1406.96" height="1279.05" filterUnits="userSpaceOnUse" color-interpolation-filters="sRGB">
<feFlood flood-opacity="0" result="BackgroundImageFix"/>
<feBlend mode="normal" in="SourceGraphic" in2="BackgroundImageFix" result="shape"/>
<feGaussianBlur stdDeviation="127.221" result="effect1_foregroundBlur_8463_32262"/>
</filter>
<filter id="filter1_f_8463_32262" x="-48.9938" y="-704.523" width="963.308" height="941.014" filterUnits="userSpaceOnUse" color-interpolation-filters="sRGB">
<feFlood flood-opacity="0" result="BackgroundImageFix"/>
<feBlend mode="normal" in="SourceGraphic" in2="BackgroundImageFix" result="shape"/>
<feGaussianBlur stdDeviation="127.221" result="effect1_foregroundBlur_8463_32262"/>
</filter>
<filter id="filter2_f_8463_32262" x="-48.2711" y="-669.211" width="899.573" height="762.073" filterUnits="userSpaceOnUse" color-interpolation-filters="sRGB">
<feFlood flood-opacity="0" result="BackgroundImageFix"/>
<feBlend mode="normal" in="SourceGraphic" in2="BackgroundImageFix" result="shape"/>
<feGaussianBlur stdDeviation="127.221" result="effect1_foregroundBlur_8463_32262"/>
</filter>
<linearGradient id="paint0_linear_8463_32262" x1="627.693" y1="-9.35522" x2="654.806" y2="379.292" gradientUnits="userSpaceOnUse">
<stop offset="0.272266" stop-color="#FBBE7E"/>
<stop offset="1" stop-color="#000223" stop-opacity="0"/>
</linearGradient>
<linearGradient id="paint1_linear_8463_32262" x1="328.82" y1="7.00936" x2="50.3534" y2="433.998" gradientUnits="userSpaceOnUse">
<stop offset="0.159446" stop-color="#FF6E75"/>
<stop offset="1" stop-color="#000223"/>
</linearGradient>
<linearGradient id="paint2_linear_8463_32262" x1="420.876" y1="-64.0964" x2="-107.547" y2="-54.8628" gradientUnits="userSpaceOnUse">
<stop stop-color="#FF6E75"/>
<stop offset="1" stop-color="#000223"/>
</linearGradient>
<linearGradient id="paint3_linear_8463_32262" x1="576.084" y1="-50.6646" x2="1012.13" y2="-50.6646" gradientUnits="userSpaceOnUse">
<stop stop-color="#FF6E75"/>
<stop offset="1" stop-color="#000223" stop-opacity="0"/>
</linearGradient>
<linearGradient id="paint4_linear_8463_32262" x1="576.082" y1="20.7156" x2="1009.07" y2="280.96" gradientUnits="userSpaceOnUse">
<stop offset="0.304295" stop-color="#FF6E75"/>
<stop offset="0.777689" stop-color="#000223" stop-opacity="0"/>
</linearGradient>
<linearGradient id="paint5_linear_8463_32262" x1="387.887" y1="-22.5599" x2="-154.099" y2="-22.5599" gradientUnits="userSpaceOnUse">
<stop stop-color="#FBBE7E"/>
<stop offset="1" stop-color="#000223"/>
</linearGradient>
<linearGradient id="paint6_linear_8463_32262" x1="451.998" y1="1.52309" x2="-123.867" y2="16.3785" gradientUnits="userSpaceOnUse">
<stop stop-color="#FF6E75"/>
<stop offset="1" stop-color="#000223"/>
</linearGradient>
<linearGradient id="paint7_linear_8463_32262" x1="655.961" y1="-9.35523" x2="655.961" y2="296.994" gradientUnits="userSpaceOnUse">
<stop stop-color="#FBBE7E"/>
<stop offset="1" stop-color="#000223" stop-opacity="0"/>
</linearGradient>
<linearGradient id="paint8_linear_8463_32262" x1="357.112" y1="-69.0197" x2="43.4511" y2="241.556" gradientUnits="userSpaceOnUse">
<stop stop-color="#FBBE7E"/>
<stop offset="1" stop-color="#000223"/>
</linearGradient>
<linearGradient id="paint9_linear_8463_32262" x1="297.733" y1="-10.3552" x2="281.146" y2="427.516" gradientUnits="userSpaceOnUse">
<stop stop-color="#FF6E75"/>
<stop offset="1" stop-color="#000223" stop-opacity="0"/>
</linearGradient>
<linearGradient id="paint10_linear_8463_32262" x1="573.672" y1="-9.35522" x2="572.053" y2="437.639" gradientUnits="userSpaceOnUse">
<stop offset="0.272266" stop-color="#FF6E75"/>
<stop offset="1" stop-color="#000223"/>
</linearGradient>
<linearGradient id="paint11_linear_8463_32262" x1="659.604" y1="0.751587" x2="985.172" y2="263.685" gradientUnits="userSpaceOnUse">
<stop stop-color="#FF6E75"/>
<stop offset="1" stop-color="#000223"/>
</linearGradient>
<clipPath id="clip0_8463_32262">
<rect width="672" height="251" rx="12" fill="white"/>
</clipPath>
</defs>
</svg>
