<svg width="432" height="431" viewBox="0 0 432 431" fill="none" xmlns="http://www.w3.org/2000/svg">
<g filter="url(#filter0_d_1973_4901)">
<circle cx="3.84188" cy="3.84188" r="3.84188" transform="matrix(0.866025 -0.5 0.857167 0.515038 206.546 183.848)" fill="#FBBE7E"/>
</g>
<g filter="url(#filter1_f_1973_4901)">
<circle cx="215.793" cy="215.413" r="135.087" fill="url(#paint0_radial_1973_4901)"/>
</g>
<path opacity="0.5" d="M213.592 313.965L98.2959 248.547L213.483 183.163L328.779 248.581L213.592 313.965Z" stroke="#FBBE7E" stroke-width="0.902087" stroke-miterlimit="10"/>
<g filter="url(#filter2_d_1973_4901)">
<circle cx="3.84188" cy="3.84188" r="3.84188" transform="matrix(0.866025 -0.5 0.857167 0.515038 322.013 248.347)" fill="#FBBE7E"/>
</g>
<g opacity="0.5" filter="url(#filter3_b_1973_4901)">
<path d="M259.638 184.603L213.223 158.331L166.816 184.588C167.204 185.255 167.755 185.805 168.438 186.193C182.629 194.25 196.821 202.3 211.012 210.349C212.331 211.101 213.937 211.117 215.271 210.395L225.358 204.688L258.008 186.209C258.699 185.821 259.25 185.263 259.638 184.603Z" fill="url(#paint1_linear_1973_4901)"/>
<path d="M259.638 184.603L213.223 158.331L166.816 184.588C167.204 185.255 167.755 185.805 168.438 186.193C182.629 194.25 196.821 202.3 211.012 210.349C212.331 211.101 213.937 211.117 215.271 210.395L225.358 204.688L258.008 186.209C258.699 185.821 259.25 185.263 259.638 184.603Z" stroke="white" stroke-opacity="0.15" stroke-width="0.902087" stroke-miterlimit="10"/>
</g>
<g filter="url(#filter4_b_1973_4901)">
<path d="M260.435 132.77V182.671C260.435 184.253 259.581 185.718 258.2 186.494C244.001 194.535 229.795 202.569 215.588 210.611C214.245 211.371 212.601 211.371 211.25 210.611C197.044 202.569 182.845 194.535 168.638 186.494C167.257 185.718 166.403 184.253 166.403 182.671V132.785C166.403 131.994 166.621 131.226 167.009 130.567C167.396 129.9 167.947 129.35 168.63 128.962C182.821 120.905 197.013 112.856 211.204 104.806C212.523 104.054 214.129 104.039 215.464 104.76L225.55 110.467L258.2 128.947C258.891 129.334 259.442 129.893 259.83 130.552C260.218 131.211 260.435 131.979 260.435 132.77Z" fill="url(#paint2_linear_1973_4901)"/>
<path d="M260.435 132.77V182.671C260.435 184.253 259.581 185.718 258.2 186.494C244.001 194.535 229.795 202.569 215.588 210.611C214.245 211.371 212.601 211.371 211.25 210.611C197.044 202.569 182.845 194.535 168.638 186.494C167.257 185.718 166.403 184.253 166.403 182.671V132.785C166.403 131.994 166.621 131.226 167.009 130.567C167.396 129.9 167.947 129.35 168.63 128.962C182.821 120.905 197.013 112.856 211.204 104.806C212.523 104.054 214.129 104.039 215.464 104.76L225.55 110.467L258.2 128.947C258.891 129.334 259.442 129.893 259.83 130.552C260.218 131.211 260.435 131.979 260.435 132.77Z" stroke="white" stroke-opacity="0.15" stroke-width="0.902087" stroke-miterlimit="10"/>
</g>
<g filter="url(#filter5_b_1973_4901)">
<path d="M259.83 130.552L213.415 156.824L167.009 130.567C167.397 129.9 167.948 129.35 168.63 128.962C182.822 120.905 197.013 112.856 211.204 104.806C212.523 104.054 214.129 104.039 215.464 104.76L225.551 110.467L258.201 128.947C258.891 129.334 259.442 129.893 259.83 130.552Z" stroke="white" stroke-opacity="0.15" stroke-width="0.902087" stroke-miterlimit="10"/>
</g>
<path d="M213.219 156.908L213.219 211.009" stroke="white" stroke-opacity="0.1" stroke-width="0.902087" stroke-miterlimit="10"/>
<g filter="url(#filter6_b_1973_4901)">
<g opacity="0.5" filter="url(#filter7_b_1973_4901)">
<path d="M374.202 249.065L327.788 222.792L281.381 249.049C281.769 249.716 282.32 250.267 283.003 250.654C297.194 258.711 311.385 266.761 325.577 274.81C326.896 275.562 328.502 275.578 329.836 274.857L339.923 269.149L372.573 250.67C373.264 250.282 373.815 249.724 374.202 249.065Z" fill="url(#paint3_linear_1973_4901)"/>
<path d="M374.202 249.065L327.788 222.792L281.381 249.049C281.769 249.716 282.32 250.267 283.003 250.654C297.194 258.711 311.385 266.761 325.577 274.81C326.896 275.562 328.502 275.578 329.836 274.857L339.923 269.149L372.573 250.67C373.264 250.282 373.815 249.724 374.202 249.065Z" stroke="white" stroke-opacity="0.15" stroke-width="0.902087" stroke-miterlimit="10"/>
</g>
<path d="M375 196.818V246.719C375 248.301 374.146 249.766 372.765 250.542C358.566 258.583 344.359 266.617 330.153 274.659C328.81 275.419 327.165 275.419 325.815 274.659C311.609 266.617 297.41 258.583 283.203 250.542C281.822 249.766 280.968 248.301 280.968 246.719V196.833C280.968 196.042 281.186 195.275 281.573 194.615C281.961 193.949 282.512 193.398 283.195 193.01C297.386 184.953 311.578 176.904 325.769 168.855C327.088 168.102 328.694 168.087 330.029 168.808L340.115 174.515L372.765 192.995C373.456 193.382 374.007 193.941 374.395 194.6C374.783 195.259 375 196.027 375 196.818Z" fill="url(#paint4_linear_1973_4901)" stroke="white" stroke-opacity="0.15" stroke-width="0.902087" stroke-miterlimit="10"/>
<g filter="url(#filter8_b_1973_4901)">
<path d="M374.395 194.6L327.98 220.873L281.574 194.615C281.962 193.949 282.513 193.398 283.195 193.01C297.387 184.953 311.578 176.904 325.769 168.855C327.088 168.102 328.694 168.087 330.029 168.808L340.116 174.515L372.765 192.995C373.456 193.382 374.007 193.941 374.395 194.6Z" stroke="white" stroke-opacity="0.15" stroke-width="0.902087" stroke-miterlimit="10"/>
</g>
<path d="M327.784 220.956L327.784 275.057" stroke="white" stroke-opacity="0.15" stroke-width="0.902087" stroke-miterlimit="10"/>
</g>
<g filter="url(#filter9_d_1973_4901)">
<circle cx="3.84188" cy="3.84188" r="3.84188" transform="matrix(0.866025 -0.5 0.857167 0.515038 206.546 313.749)" fill="#FBBE7E"/>
</g>
<g filter="url(#filter10_d_1973_4901)">
<circle cx="3.84188" cy="3.84188" r="3.84188" transform="matrix(0.866025 -0.5 0.857167 0.515038 91.5303 248.347)" fill="#FBBE7E"/>
</g>
<g opacity="0.5" filter="url(#filter11_b_1973_4901)">
<path d="M145.073 248.652L98.6582 222.379L52.2515 248.636C52.6394 249.303 53.1903 249.854 53.8731 250.241C68.0643 258.298 82.2556 266.348 96.4468 274.397C97.7659 275.149 99.372 275.165 100.707 274.444L110.793 268.736L143.443 250.257C144.134 249.869 144.685 249.311 145.073 248.652Z" fill="url(#paint5_linear_1973_4901)"/>
<path d="M145.073 248.652L98.6582 222.379L52.2515 248.636C52.6394 249.303 53.1903 249.854 53.8731 250.241C68.0643 258.298 82.2556 266.348 96.4468 274.397C97.7659 275.149 99.372 275.165 100.707 274.444L110.793 268.736L143.443 250.257C144.134 249.869 144.685 249.311 145.073 248.652Z" stroke="white" stroke-opacity="0.15" stroke-width="0.902087" stroke-miterlimit="10"/>
</g>
<g filter="url(#filter12_b_1973_4901)">
<path d="M145.87 196.818V246.719C145.87 248.301 145.016 249.766 143.635 250.542C129.436 258.583 115.23 266.617 101.023 274.659C99.6805 275.419 98.0356 275.419 96.6855 274.659C82.4787 266.617 68.2797 258.583 54.073 250.542C52.6919 249.766 51.8384 248.301 51.8384 246.719V196.833C51.8384 196.042 52.0556 195.275 52.4436 194.615C52.8315 193.949 53.3824 193.398 54.0652 193.01C68.2565 184.953 82.4477 176.904 96.639 168.855C97.958 168.102 99.5641 168.087 100.899 168.808L110.985 174.515L143.635 192.995C144.326 193.382 144.877 193.941 145.265 194.6C145.653 195.259 145.87 196.027 145.87 196.818Z" fill="url(#paint6_linear_1973_4901)"/>
<path d="M145.87 196.818V246.719C145.87 248.301 145.016 249.766 143.635 250.542C129.436 258.583 115.23 266.617 101.023 274.659C99.6805 275.419 98.0356 275.419 96.6855 274.659C82.4787 266.617 68.2797 258.583 54.073 250.542C52.6919 249.766 51.8384 248.301 51.8384 246.719V196.833C51.8384 196.042 52.0556 195.275 52.4436 194.615C52.8315 193.949 53.3824 193.398 54.0652 193.01C68.2565 184.953 82.4477 176.904 96.639 168.855C97.958 168.102 99.5641 168.087 100.899 168.808L110.985 174.515L143.635 192.995C144.326 193.382 144.877 193.941 145.265 194.6C145.653 195.259 145.87 196.027 145.87 196.818Z" stroke="white" stroke-opacity="0.15" stroke-width="0.902087" stroke-miterlimit="10"/>
</g>
<g filter="url(#filter13_b_1973_4901)">
<path d="M145.265 194.6L98.8505 220.873L52.4438 194.615C52.8318 193.949 53.3827 193.398 54.0655 193.01C68.2567 184.953 82.448 176.904 96.6392 168.855C97.9583 168.102 99.5644 168.087 100.899 168.808L110.986 174.515L143.636 192.995C144.326 193.382 144.877 193.941 145.265 194.6Z" stroke="white" stroke-opacity="0.15" stroke-width="0.902087" stroke-miterlimit="10"/>
</g>
<path d="M98.6538 220.956L98.6538 275.057" stroke="white" stroke-opacity="0.15" stroke-width="0.902087" stroke-miterlimit="10"/>
<g opacity="0.5" filter="url(#filter14_b_1973_4901)">
<path d="M259.638 316.308L213.223 290.035L166.816 316.293C167.204 316.959 167.755 317.51 168.438 317.898C182.629 325.955 196.821 334.004 211.012 342.053C212.331 342.806 213.937 342.821 215.271 342.1L225.358 336.393L258.008 317.913C258.699 317.526 259.25 316.967 259.638 316.308Z" fill="url(#paint7_linear_1973_4901)"/>
<path d="M259.638 316.308L213.223 290.035L166.816 316.293C167.204 316.959 167.755 317.51 168.438 317.898C182.629 325.955 196.821 334.004 211.012 342.053C212.331 342.806 213.937 342.821 215.271 342.1L225.358 336.393L258.008 317.913C258.699 317.526 259.25 316.967 259.638 316.308Z" stroke="white" stroke-opacity="0.15" stroke-width="0.902087" stroke-miterlimit="10"/>
</g>
<g filter="url(#filter15_b_1973_4901)">
<path d="M260.435 264.474V314.375C260.435 315.957 259.581 317.423 258.2 318.198C244.001 326.24 229.795 334.274 215.588 342.315C214.245 343.075 212.601 343.075 211.25 342.315C197.044 334.274 182.845 326.24 168.638 318.198C167.257 317.423 166.403 315.957 166.403 314.375V264.49C166.403 263.699 166.621 262.931 167.009 262.272C167.396 261.605 167.947 261.054 168.63 260.667C182.821 252.61 197.013 244.56 211.204 236.511C212.523 235.759 214.129 235.743 215.464 236.464L225.55 242.172L258.2 260.651C258.891 261.039 259.442 261.597 259.83 262.256C260.218 262.916 260.435 263.683 260.435 264.474Z" fill="url(#paint8_linear_1973_4901)"/>
<path d="M260.435 264.474V314.375C260.435 315.957 259.581 317.423 258.2 318.198C244.001 326.24 229.795 334.274 215.588 342.315C214.245 343.075 212.601 343.075 211.25 342.315C197.044 334.274 182.845 326.24 168.638 318.198C167.257 317.423 166.403 315.957 166.403 314.375V264.49C166.403 263.699 166.621 262.931 167.009 262.272C167.396 261.605 167.947 261.054 168.63 260.667C182.821 252.61 197.013 244.56 211.204 236.511C212.523 235.759 214.129 235.743 215.464 236.464L225.55 242.172L258.2 260.651C258.891 261.039 259.442 261.597 259.83 262.256C260.218 262.916 260.435 263.683 260.435 264.474Z" stroke="white" stroke-opacity="0.15" stroke-width="0.902087" stroke-miterlimit="10"/>
</g>
<g filter="url(#filter16_b_1973_4901)">
<path d="M259.83 262.256L213.415 288.529L167.009 262.272C167.397 261.605 167.948 261.054 168.63 260.667C182.822 252.61 197.013 244.56 211.204 236.511C212.523 235.759 214.129 235.743 215.464 236.464L225.551 242.172L258.201 260.651C258.891 261.039 259.442 261.597 259.83 262.256Z" stroke="white" stroke-opacity="0.15" stroke-width="0.902087" stroke-miterlimit="10"/>
</g>
<path d="M213.219 288.613L213.219 342.713" stroke="white" stroke-opacity="0.15" stroke-width="0.902087" stroke-miterlimit="10"/>
<path opacity="0.4" d="M140.694 172.789L140.694 113.251" stroke="url(#paint9_linear_1973_4901)" stroke-width="0.451043"/>
<g opacity="0.7" filter="url(#filter17_d_1973_4901)">
<circle cx="140.694" cy="112.349" r="0.902087" transform="rotate(-90 140.694 112.349)" fill="#FBBE7E"/>
</g>
<path opacity="0.4" d="M356.744 204.362L356.744 144.824" stroke="url(#paint10_linear_1973_4901)" stroke-width="0.451043" stroke-dasharray="2.23 2.23"/>
<g opacity="0.7" filter="url(#filter18_d_1973_4901)">
<circle cx="356.744" cy="143.922" r="0.902087" transform="rotate(-90 356.744 143.922)" fill="#FBBE7E"/>
</g>
<path opacity="0.4" d="M206.546 130.391L206.546 70.8531" stroke="url(#paint11_linear_1973_4901)" stroke-width="0.451043" stroke-dasharray="2.23 2.23"/>
<g opacity="0.7" filter="url(#filter19_d_1973_4901)">
<circle cx="206.546" cy="69.951" r="0.902087" transform="rotate(-90 206.546 69.951)" fill="#FBBE7E"/>
</g>
<path opacity="0.4" d="M79.3521 222.855L79.3521 163.317" stroke="url(#paint12_linear_1973_4901)" stroke-width="0.451043" stroke-dasharray="2.23 2.23"/>
<g opacity="0.7" filter="url(#filter20_d_1973_4901)">
<circle cx="79.3518" cy="162.415" r="0.902087" transform="rotate(-90 79.3518 162.415)" fill="#FBBE7E"/>
</g>
<path opacity="0.4" d="M322.464 179.104L322.464 119.566" stroke="url(#paint13_linear_1973_4901)" stroke-width="0.451043"/>
<path opacity="0.4" d="M104.61 137.608L104.61 78.0698" stroke="url(#paint14_linear_1973_4901)" stroke-width="0.451043"/>
<path opacity="0.4" d="M292.245 143.02L292.245 83.4824" stroke="url(#paint15_linear_1973_4901)" stroke-width="0.451043"/>
<g opacity="0.7" filter="url(#filter21_d_1973_4901)">
<circle cx="292.244" cy="82.5802" r="0.902087" transform="rotate(-90 292.244 82.5802)" fill="#FBBE7E"/>
</g>
<g filter="url(#filter22_f_1973_4901)">
<path d="M328.43 249.466V84.3844L213.312 102.645V314.417L328.43 249.466Z" fill="url(#paint16_linear_1973_4901)"/>
</g>
<g filter="url(#filter23_f_1973_4901)">
<path d="M98.2959 249.094L98.296 85.7375L213.763 103.103V314.417L98.2959 249.094Z" fill="url(#paint17_linear_1973_4901)"/>
</g>
<path d="M269.166 205.701V191.089L258.072 191.422C247.873 186.64 231.623 183.86 213.418 184.47C195.581 185.069 179.833 188.786 169.936 194.064L159.042 194.392V209.638H159.052C159.533 221.029 184.456 229.431 214.805 228.417C245.216 227.398 269.56 217.307 269.176 205.88C269.176 205.824 269.166 205.762 269.166 205.706V205.701Z" fill="url(#paint18_linear_1973_4901)"/>
<path d="M255.138 128.803C252.952 138.761 245.498 145.534 240.147 149.44L256.868 168.783C260.483 163.842 273.262 145.181 268.208 123.806C263.831 105.288 248.109 93.3491 246.296 94.588C244.371 95.9038 258.932 111.514 255.138 128.798V128.803Z" fill="url(#paint19_linear_1973_4901)"/>
<path d="M214.808 213.55C245.221 212.53 269.565 202.44 269.182 191.011C268.799 179.583 243.834 171.146 213.421 172.165C183.008 173.185 158.665 183.275 159.048 194.704C159.431 206.132 184.396 214.569 214.808 213.55Z" fill="url(#paint20_linear_1973_4901)"/>
<path d="M266.355 192.057C264.681 194.167 262.009 197.116 258.138 199.839C253.786 202.906 249.112 204.851 240.624 206.833C227.369 209.925 216.715 210.319 214.16 210.401C214.16 210.401 186.13 211.287 170.853 203.085C168.411 201.774 161.438 198.032 161.965 194.53C161.98 194.428 162.001 194.346 162.011 194.29C162.072 191.899 162.287 188.356 163.066 184.153C164.361 177.154 167.55 159.942 182.669 148.402C196.272 138.019 211.39 138.434 215.343 138.603C227.507 139.12 236.446 143.82 240.716 146.482C258.645 157.658 263.58 176.043 264.691 180.451C265.884 185.187 266.243 189.252 266.35 192.057H266.355Z" fill="url(#paint21_linear_1973_4901)"/>
<path d="M191.521 143.13C195.1 142.592 200.88 142.239 207.321 144.353C207.607 144.445 207.996 144.578 208.478 144.758C217.632 148.198 225.419 158.212 226.34 159.42C234.742 170.469 238.059 181.363 239.984 187.86C242.181 195.258 243.215 201.612 243.742 206.066C244.827 206.89 245.908 207.709 246.993 208.534C246.962 204.079 246.573 198.12 245.073 191.28C242.713 180.503 238.771 172.865 237.337 170.208C232.499 161.233 223.734 145.034 206.798 141.056C200.455 139.566 194.88 140.283 191.337 141.056C191.403 141.747 191.465 142.443 191.531 143.135L191.521 143.13Z" fill="url(#paint22_linear_1973_4901)"/>
<path d="M202.283 136.632C203.947 136.273 211.76 134.748 220.494 137.666C223.33 138.613 230.815 141.547 239.524 152.8C253.567 170.949 257.14 193.092 258.231 203.991C256.982 204.631 255.651 205.266 254.238 205.876C251.678 206.981 249.236 207.847 246.978 208.533C246.046 197.996 242.754 175.598 228.567 157.443C219.675 146.067 211.744 143.072 209.538 142.309C202.022 139.714 195.243 140.344 191.301 141.055C193.667 139.596 197.394 137.681 202.283 136.632Z" fill="url(#paint23_linear_1973_4901)"/>
<path d="M181.01 167.221C180.513 167.068 180.017 166.95 179.51 166.873C176.996 166.121 173.837 164.871 170.566 162.726C169.03 161.718 164.514 158.579 160.454 152.446C150.215 136.954 152.662 118.559 150.809 118.451C148.741 118.333 143.15 135.735 146.652 154.734C148.746 166.08 153.338 173.974 155.002 176.662C156.016 178.3 160.644 185.632 169.127 192.712C170.371 193.751 171.492 194.612 172.409 195.287C172.865 195.625 173.694 195.963 174.262 196.014C180.124 196.542 186.104 192.062 188.295 185.099C190.758 177.266 187.497 169.264 181.01 167.226V167.221Z" fill="url(#paint24_linear_1973_4901)"/>
<path d="M271.122 201.253C271.204 202.737 270.262 204.033 268.926 204.411C268.926 204.33 268.926 204.248 268.921 204.166C268.921 204.109 268.916 204.048 268.911 203.992V198.432C270.124 198.78 271.046 199.891 271.122 201.253Z" fill="url(#paint25_linear_1973_4901)"/>
<path d="M255.528 215.827C257.188 215.733 258.455 214.27 258.357 212.559C258.26 210.848 256.836 209.538 255.176 209.632C253.516 209.727 252.249 211.19 252.346 212.901C252.443 214.611 253.868 215.922 255.528 215.827Z" fill="url(#paint26_radial_1973_4901)"/>
<path d="M228.915 222.829C230.575 222.735 231.842 221.271 231.745 219.561C231.647 217.85 230.223 216.54 228.563 216.634C226.903 216.728 225.636 218.191 225.734 219.902C225.831 221.613 227.255 222.923 228.915 222.829Z" fill="url(#paint27_radial_1973_4901)"/>
<path d="M194.449 223.741C196.109 223.647 197.375 222.183 197.278 220.473C197.181 218.762 195.757 217.452 194.097 217.546C192.437 217.64 191.17 219.103 191.267 220.814C191.364 222.525 192.789 223.835 194.449 223.741Z" fill="url(#paint28_radial_1973_4901)"/>
<path d="M165.266 214.523C166.925 214.429 168.192 212.965 168.095 211.255C167.998 209.544 166.574 208.233 164.914 208.328C163.254 208.422 161.987 209.885 162.084 211.596C162.181 213.307 163.606 214.617 165.266 214.523Z" fill="url(#paint29_radial_1973_4901)"/>
<defs>
<filter id="filter0_d_1973_4901" x="198.427" y="171.09" width="29.4793" height="25.6321" filterUnits="userSpaceOnUse" color-interpolation-filters="sRGB">
<feFlood flood-opacity="0" result="BackgroundImageFix"/>
<feColorMatrix in="SourceAlpha" type="matrix" values="0 0 0 0 0 0 0 0 0 0 0 0 0 0 0 0 0 0 127 0" result="hardAlpha"/>
<feOffset/>
<feGaussianBlur stdDeviation="5.02913"/>
<feComposite in2="hardAlpha" operator="out"/>
<feColorMatrix type="matrix" values="0 0 0 0 0.984314 0 0 0 0 0.745098 0 0 0 0 0.494118 0 0 0 1 0"/>
<feBlend mode="normal" in2="BackgroundImageFix" result="effect1_dropShadow_1973_4901"/>
<feBlend mode="normal" in="SourceGraphic" in2="effect1_dropShadow_1973_4901" result="shape"/>
</filter>
<filter id="filter1_f_1973_4901" x="0.468552" y="0.0885162" width="430.648" height="430.648" filterUnits="userSpaceOnUse" color-interpolation-filters="sRGB">
<feFlood flood-opacity="0" result="BackgroundImageFix"/>
<feBlend mode="normal" in="SourceGraphic" in2="BackgroundImageFix" result="shape"/>
<feGaussianBlur stdDeviation="40.1183" result="effect1_foregroundBlur_1973_4901"/>
</filter>
<filter id="filter2_d_1973_4901" x="313.894" y="235.589" width="29.4793" height="25.6321" filterUnits="userSpaceOnUse" color-interpolation-filters="sRGB">
<feFlood flood-opacity="0" result="BackgroundImageFix"/>
<feColorMatrix in="SourceAlpha" type="matrix" values="0 0 0 0 0 0 0 0 0 0 0 0 0 0 0 0 0 0 127 0" result="hardAlpha"/>
<feOffset/>
<feGaussianBlur stdDeviation="5.02913"/>
<feComposite in2="hardAlpha" operator="out"/>
<feColorMatrix type="matrix" values="0 0 0 0 0.984314 0 0 0 0 0.745098 0 0 0 0 0.494118 0 0 0 1 0"/>
<feBlend mode="normal" in2="BackgroundImageFix" result="effect1_dropShadow_1973_4901"/>
<feBlend mode="normal" in="SourceGraphic" in2="effect1_dropShadow_1973_4901" result="shape"/>
</filter>
<filter id="filter3_b_1973_4901" x="164.882" y="156.498" width="96.6917" height="56.1931" filterUnits="userSpaceOnUse" color-interpolation-filters="sRGB">
<feFlood flood-opacity="0" result="BackgroundImageFix"/>
<feGaussianBlur in="BackgroundImageFix" stdDeviation="0.657412"/>
<feComposite in2="SourceAlpha" operator="in" result="effect1_backgroundBlur_1973_4901"/>
<feBlend mode="normal" in="SourceGraphic" in2="effect1_backgroundBlur_1973_4901" result="shape"/>
</filter>
<filter id="filter4_b_1973_4901" x="164.637" y="102.464" width="97.5632" height="110.482" filterUnits="userSpaceOnUse" color-interpolation-filters="sRGB">
<feFlood flood-opacity="0" result="BackgroundImageFix"/>
<feGaussianBlur in="BackgroundImageFix" stdDeviation="0.657412"/>
<feComposite in2="SourceAlpha" operator="in" result="effect1_backgroundBlur_1973_4901"/>
<feBlend mode="normal" in="SourceGraphic" in2="effect1_backgroundBlur_1973_4901" result="shape"/>
</filter>
<filter id="filter5_b_1973_4901" x="165.074" y="102.464" width="96.6917" height="56.1931" filterUnits="userSpaceOnUse" color-interpolation-filters="sRGB">
<feFlood flood-opacity="0" result="BackgroundImageFix"/>
<feGaussianBlur in="BackgroundImageFix" stdDeviation="0.657412"/>
<feComposite in2="SourceAlpha" operator="in" result="effect1_backgroundBlur_1973_4901"/>
<feBlend mode="normal" in="SourceGraphic" in2="effect1_backgroundBlur_1973_4901" result="shape"/>
</filter>
<filter id="filter6_b_1973_4901" x="263.998" y="151.308" width="127.972" height="141.048" filterUnits="userSpaceOnUse" color-interpolation-filters="sRGB">
<feFlood flood-opacity="0" result="BackgroundImageFix"/>
<feGaussianBlur in="BackgroundImageFix" stdDeviation="8.25964"/>
<feComposite in2="SourceAlpha" operator="in" result="effect1_backgroundBlur_1973_4901"/>
<feBlend mode="normal" in="SourceGraphic" in2="effect1_backgroundBlur_1973_4901" result="shape"/>
</filter>
<filter id="filter7_b_1973_4901" x="279.447" y="220.959" width="96.6917" height="56.1931" filterUnits="userSpaceOnUse" color-interpolation-filters="sRGB">
<feFlood flood-opacity="0" result="BackgroundImageFix"/>
<feGaussianBlur in="BackgroundImageFix" stdDeviation="0.657412"/>
<feComposite in2="SourceAlpha" operator="in" result="effect1_backgroundBlur_1973_4901"/>
<feBlend mode="normal" in="SourceGraphic" in2="effect1_backgroundBlur_1973_4901" result="shape"/>
</filter>
<filter id="filter8_b_1973_4901" x="279.639" y="166.513" width="96.6917" height="56.1931" filterUnits="userSpaceOnUse" color-interpolation-filters="sRGB">
<feFlood flood-opacity="0" result="BackgroundImageFix"/>
<feGaussianBlur in="BackgroundImageFix" stdDeviation="0.657412"/>
<feComposite in2="SourceAlpha" operator="in" result="effect1_backgroundBlur_1973_4901"/>
<feBlend mode="normal" in="SourceGraphic" in2="effect1_backgroundBlur_1973_4901" result="shape"/>
</filter>
<filter id="filter9_d_1973_4901" x="198.427" y="300.991" width="29.4793" height="25.6321" filterUnits="userSpaceOnUse" color-interpolation-filters="sRGB">
<feFlood flood-opacity="0" result="BackgroundImageFix"/>
<feColorMatrix in="SourceAlpha" type="matrix" values="0 0 0 0 0 0 0 0 0 0 0 0 0 0 0 0 0 0 127 0" result="hardAlpha"/>
<feOffset/>
<feGaussianBlur stdDeviation="5.02913"/>
<feComposite in2="hardAlpha" operator="out"/>
<feColorMatrix type="matrix" values="0 0 0 0 0.984314 0 0 0 0 0.745098 0 0 0 0 0.494118 0 0 0 1 0"/>
<feBlend mode="normal" in2="BackgroundImageFix" result="effect1_dropShadow_1973_4901"/>
<feBlend mode="normal" in="SourceGraphic" in2="effect1_dropShadow_1973_4901" result="shape"/>
</filter>
<filter id="filter10_d_1973_4901" x="83.411" y="235.589" width="29.4793" height="25.6321" filterUnits="userSpaceOnUse" color-interpolation-filters="sRGB">
<feFlood flood-opacity="0" result="BackgroundImageFix"/>
<feColorMatrix in="SourceAlpha" type="matrix" values="0 0 0 0 0 0 0 0 0 0 0 0 0 0 0 0 0 0 127 0" result="hardAlpha"/>
<feOffset/>
<feGaussianBlur stdDeviation="5.02913"/>
<feComposite in2="hardAlpha" operator="out"/>
<feColorMatrix type="matrix" values="0 0 0 0 0.984314 0 0 0 0 0.745098 0 0 0 0 0.494118 0 0 0 1 0"/>
<feBlend mode="normal" in2="BackgroundImageFix" result="effect1_dropShadow_1973_4901"/>
<feBlend mode="normal" in="SourceGraphic" in2="effect1_dropShadow_1973_4901" result="shape"/>
</filter>
<filter id="filter11_b_1973_4901" x="50.317" y="220.546" width="96.6917" height="56.1931" filterUnits="userSpaceOnUse" color-interpolation-filters="sRGB">
<feFlood flood-opacity="0" result="BackgroundImageFix"/>
<feGaussianBlur in="BackgroundImageFix" stdDeviation="0.657412"/>
<feComposite in2="SourceAlpha" operator="in" result="effect1_backgroundBlur_1973_4901"/>
<feBlend mode="normal" in="SourceGraphic" in2="effect1_backgroundBlur_1973_4901" result="shape"/>
</filter>
<filter id="filter12_b_1973_4901" x="50.0724" y="166.513" width="97.5632" height="110.482" filterUnits="userSpaceOnUse" color-interpolation-filters="sRGB">
<feFlood flood-opacity="0" result="BackgroundImageFix"/>
<feGaussianBlur in="BackgroundImageFix" stdDeviation="0.657412"/>
<feComposite in2="SourceAlpha" operator="in" result="effect1_backgroundBlur_1973_4901"/>
<feBlend mode="normal" in="SourceGraphic" in2="effect1_backgroundBlur_1973_4901" result="shape"/>
</filter>
<filter id="filter13_b_1973_4901" x="50.5094" y="166.513" width="96.6917" height="56.1931" filterUnits="userSpaceOnUse" color-interpolation-filters="sRGB">
<feFlood flood-opacity="0" result="BackgroundImageFix"/>
<feGaussianBlur in="BackgroundImageFix" stdDeviation="0.657412"/>
<feComposite in2="SourceAlpha" operator="in" result="effect1_backgroundBlur_1973_4901"/>
<feBlend mode="normal" in="SourceGraphic" in2="effect1_backgroundBlur_1973_4901" result="shape"/>
</filter>
<filter id="filter14_b_1973_4901" x="164.882" y="288.202" width="96.6917" height="56.1931" filterUnits="userSpaceOnUse" color-interpolation-filters="sRGB">
<feFlood flood-opacity="0" result="BackgroundImageFix"/>
<feGaussianBlur in="BackgroundImageFix" stdDeviation="0.657412"/>
<feComposite in2="SourceAlpha" operator="in" result="effect1_backgroundBlur_1973_4901"/>
<feBlend mode="normal" in="SourceGraphic" in2="effect1_backgroundBlur_1973_4901" result="shape"/>
</filter>
<filter id="filter15_b_1973_4901" x="164.637" y="234.169" width="97.5632" height="110.482" filterUnits="userSpaceOnUse" color-interpolation-filters="sRGB">
<feFlood flood-opacity="0" result="BackgroundImageFix"/>
<feGaussianBlur in="BackgroundImageFix" stdDeviation="0.657412"/>
<feComposite in2="SourceAlpha" operator="in" result="effect1_backgroundBlur_1973_4901"/>
<feBlend mode="normal" in="SourceGraphic" in2="effect1_backgroundBlur_1973_4901" result="shape"/>
</filter>
<filter id="filter16_b_1973_4901" x="165.074" y="234.169" width="96.6917" height="56.1931" filterUnits="userSpaceOnUse" color-interpolation-filters="sRGB">
<feFlood flood-opacity="0" result="BackgroundImageFix"/>
<feGaussianBlur in="BackgroundImageFix" stdDeviation="0.657412"/>
<feComposite in2="SourceAlpha" operator="in" result="effect1_backgroundBlur_1973_4901"/>
<feBlend mode="normal" in="SourceGraphic" in2="effect1_backgroundBlur_1973_4901" result="shape"/>
</filter>
<filter id="filter17_d_1973_4901" x="137.627" y="109.282" width="6.13422" height="6.13418" filterUnits="userSpaceOnUse" color-interpolation-filters="sRGB">
<feFlood flood-opacity="0" result="BackgroundImageFix"/>
<feColorMatrix in="SourceAlpha" type="matrix" values="0 0 0 0 0 0 0 0 0 0 0 0 0 0 0 0 0 0 127 0" result="hardAlpha"/>
<feOffset/>
<feGaussianBlur stdDeviation="1.0825"/>
<feComposite in2="hardAlpha" operator="out"/>
<feColorMatrix type="matrix" values="0 0 0 0 0.984314 0 0 0 0 0.745098 0 0 0 0 0.494118 0 0 0 1 0"/>
<feBlend mode="normal" in2="BackgroundImageFix" result="effect1_dropShadow_1973_4901"/>
<feBlend mode="normal" in="SourceGraphic" in2="effect1_dropShadow_1973_4901" result="shape"/>
</filter>
<filter id="filter18_d_1973_4901" x="353.677" y="140.855" width="6.13422" height="6.13422" filterUnits="userSpaceOnUse" color-interpolation-filters="sRGB">
<feFlood flood-opacity="0" result="BackgroundImageFix"/>
<feColorMatrix in="SourceAlpha" type="matrix" values="0 0 0 0 0 0 0 0 0 0 0 0 0 0 0 0 0 0 127 0" result="hardAlpha"/>
<feOffset/>
<feGaussianBlur stdDeviation="1.0825"/>
<feComposite in2="hardAlpha" operator="out"/>
<feColorMatrix type="matrix" values="0 0 0 0 0.984314 0 0 0 0 0.745098 0 0 0 0 0.494118 0 0 0 1 0"/>
<feBlend mode="normal" in2="BackgroundImageFix" result="effect1_dropShadow_1973_4901"/>
<feBlend mode="normal" in="SourceGraphic" in2="effect1_dropShadow_1973_4901" result="shape"/>
</filter>
<filter id="filter19_d_1973_4901" x="203.479" y="66.8839" width="6.13422" height="6.13418" filterUnits="userSpaceOnUse" color-interpolation-filters="sRGB">
<feFlood flood-opacity="0" result="BackgroundImageFix"/>
<feColorMatrix in="SourceAlpha" type="matrix" values="0 0 0 0 0 0 0 0 0 0 0 0 0 0 0 0 0 0 127 0" result="hardAlpha"/>
<feOffset/>
<feGaussianBlur stdDeviation="1.0825"/>
<feComposite in2="hardAlpha" operator="out"/>
<feColorMatrix type="matrix" values="0 0 0 0 0.984314 0 0 0 0 0.745098 0 0 0 0 0.494118 0 0 0 1 0"/>
<feBlend mode="normal" in2="BackgroundImageFix" result="effect1_dropShadow_1973_4901"/>
<feBlend mode="normal" in="SourceGraphic" in2="effect1_dropShadow_1973_4901" result="shape"/>
</filter>
<filter id="filter20_d_1973_4901" x="76.2847" y="159.348" width="6.13422" height="6.13422" filterUnits="userSpaceOnUse" color-interpolation-filters="sRGB">
<feFlood flood-opacity="0" result="BackgroundImageFix"/>
<feColorMatrix in="SourceAlpha" type="matrix" values="0 0 0 0 0 0 0 0 0 0 0 0 0 0 0 0 0 0 127 0" result="hardAlpha"/>
<feOffset/>
<feGaussianBlur stdDeviation="1.0825"/>
<feComposite in2="hardAlpha" operator="out"/>
<feColorMatrix type="matrix" values="0 0 0 0 0.984314 0 0 0 0 0.745098 0 0 0 0 0.494118 0 0 0 1 0"/>
<feBlend mode="normal" in2="BackgroundImageFix" result="effect1_dropShadow_1973_4901"/>
<feBlend mode="normal" in="SourceGraphic" in2="effect1_dropShadow_1973_4901" result="shape"/>
</filter>
<filter id="filter21_d_1973_4901" x="289.177" y="79.5132" width="6.13422" height="6.13418" filterUnits="userSpaceOnUse" color-interpolation-filters="sRGB">
<feFlood flood-opacity="0" result="BackgroundImageFix"/>
<feColorMatrix in="SourceAlpha" type="matrix" values="0 0 0 0 0 0 0 0 0 0 0 0 0 0 0 0 0 0 127 0" result="hardAlpha"/>
<feOffset/>
<feGaussianBlur stdDeviation="1.0825"/>
<feComposite in2="hardAlpha" operator="out"/>
<feColorMatrix type="matrix" values="0 0 0 0 0.984314 0 0 0 0 0.745098 0 0 0 0 0.494118 0 0 0 1 0"/>
<feBlend mode="normal" in2="BackgroundImageFix" result="effect1_dropShadow_1973_4901"/>
<feBlend mode="normal" in="SourceGraphic" in2="effect1_dropShadow_1973_4901" result="shape"/>
</filter>
<filter id="filter22_f_1973_4901" x="211.959" y="83.0313" width="117.824" height="232.738" filterUnits="userSpaceOnUse" color-interpolation-filters="sRGB">
<feFlood flood-opacity="0" result="BackgroundImageFix"/>
<feBlend mode="normal" in="SourceGraphic" in2="BackgroundImageFix" result="shape"/>
<feGaussianBlur stdDeviation="0.676565" result="effect1_foregroundBlur_1973_4901"/>
</filter>
<filter id="filter23_f_1973_4901" x="96.9428" y="84.3844" width="118.174" height="231.385" filterUnits="userSpaceOnUse" color-interpolation-filters="sRGB">
<feFlood flood-opacity="0" result="BackgroundImageFix"/>
<feBlend mode="normal" in="SourceGraphic" in2="BackgroundImageFix" result="shape"/>
<feGaussianBlur stdDeviation="0.676565" result="effect1_foregroundBlur_1973_4901"/>
</filter>
<radialGradient id="paint0_radial_1973_4901" cx="0" cy="0" r="1" gradientUnits="userSpaceOnUse" gradientTransform="translate(215.793 215.413) rotate(89.9043) scale(135.088)">
<stop stop-color="#FBBE7E"/>
<stop offset="0.667535" stop-color="#FBBE7E" stop-opacity="0.2"/>
</radialGradient>
<linearGradient id="paint1_linear_1973_4901" x1="179.949" y1="210.925" x2="252.291" y2="119.454" gradientUnits="userSpaceOnUse">
<stop stop-color="#FBBE7E" stop-opacity="0.1"/>
<stop offset="1" stop-color="white" stop-opacity="0.4"/>
</linearGradient>
<linearGradient id="paint2_linear_1973_4901" x1="179.707" y1="104.23" x2="307.683" y2="194.722" gradientUnits="userSpaceOnUse">
<stop stop-color="#FBBE7E" stop-opacity="0.1"/>
<stop offset="1" stop-color="white" stop-opacity="0.4"/>
</linearGradient>
<linearGradient id="paint3_linear_1973_4901" x1="294.514" y1="275.386" x2="357.371" y2="186.168" gradientUnits="userSpaceOnUse">
<stop stop-color="#FBBE7E" stop-opacity="0.1"/>
<stop offset="1" stop-color="white" stop-opacity="0.4"/>
</linearGradient>
<linearGradient id="paint4_linear_1973_4901" x1="294.272" y1="168.279" x2="422.248" y2="258.77" gradientUnits="userSpaceOnUse">
<stop stop-color="#FBBE7E" stop-opacity="0.1"/>
<stop offset="1" stop-color="white" stop-opacity="0.4"/>
</linearGradient>
<linearGradient id="paint5_linear_1973_4901" x1="65.3838" y1="274.973" x2="137.726" y2="183.502" gradientUnits="userSpaceOnUse">
<stop stop-color="#FBBE7E" stop-opacity="0.1"/>
<stop offset="1" stop-color="white" stop-opacity="0.4"/>
</linearGradient>
<linearGradient id="paint6_linear_1973_4901" x1="65.142" y1="168.279" x2="193.118" y2="258.77" gradientUnits="userSpaceOnUse">
<stop stop-color="#FBBE7E" stop-opacity="0.1"/>
<stop offset="1" stop-color="white" stop-opacity="0.4"/>
</linearGradient>
<linearGradient id="paint7_linear_1973_4901" x1="179.949" y1="342.63" x2="252.291" y2="251.158" gradientUnits="userSpaceOnUse">
<stop stop-color="#FBBE7E" stop-opacity="0.1"/>
<stop offset="1" stop-color="white" stop-opacity="0.4"/>
</linearGradient>
<linearGradient id="paint8_linear_1973_4901" x1="179.707" y1="235.935" x2="307.683" y2="326.427" gradientUnits="userSpaceOnUse">
<stop stop-color="#FBBE7E" stop-opacity="0.1"/>
<stop offset="1" stop-color="white" stop-opacity="0.4"/>
</linearGradient>
<linearGradient id="paint9_linear_1973_4901" x1="150.194" y1="177.5" x2="149.741" y2="113.243" gradientUnits="userSpaceOnUse">
<stop offset="0.015" stop-color="#FBBE7E" stop-opacity="0"/>
<stop offset="0.69" stop-color="#FBBE7E"/>
</linearGradient>
<linearGradient id="paint10_linear_1973_4901" x1="366.244" y1="209.073" x2="365.79" y2="144.816" gradientUnits="userSpaceOnUse">
<stop offset="0.015" stop-color="#FBBE7E" stop-opacity="0"/>
<stop offset="0.69" stop-color="#FBBE7E"/>
</linearGradient>
<linearGradient id="paint11_linear_1973_4901" x1="216.046" y1="135.102" x2="215.593" y2="70.8447" gradientUnits="userSpaceOnUse">
<stop offset="0.015" stop-color="#FBBE7E" stop-opacity="0"/>
<stop offset="0.69" stop-color="#FBBE7E"/>
</linearGradient>
<linearGradient id="paint12_linear_1973_4901" x1="88.8521" y1="227.566" x2="88.3988" y2="163.309" gradientUnits="userSpaceOnUse">
<stop offset="0.015" stop-color="#FBBE7E" stop-opacity="0"/>
<stop offset="0.69" stop-color="#FBBE7E"/>
</linearGradient>
<linearGradient id="paint13_linear_1973_4901" x1="331.964" y1="183.815" x2="331.511" y2="119.557" gradientUnits="userSpaceOnUse">
<stop offset="0.015" stop-color="#FBBE7E" stop-opacity="0"/>
<stop offset="0.52" stop-color="#FBBE7E"/>
<stop offset="0.97" stop-color="#FBBE7E" stop-opacity="0"/>
</linearGradient>
<linearGradient id="paint14_linear_1973_4901" x1="114.11" y1="142.319" x2="113.657" y2="78.0614" gradientUnits="userSpaceOnUse">
<stop offset="0.015" stop-color="#FBBE7E" stop-opacity="0"/>
<stop offset="0.52" stop-color="#FBBE7E"/>
<stop offset="0.97" stop-color="#FBBE7E" stop-opacity="0"/>
</linearGradient>
<linearGradient id="paint15_linear_1973_4901" x1="301.745" y1="147.731" x2="301.291" y2="83.4739" gradientUnits="userSpaceOnUse">
<stop offset="0.015" stop-color="#FBBE7E" stop-opacity="0"/>
<stop offset="0.69" stop-color="#FBBE7E"/>
</linearGradient>
<linearGradient id="paint16_linear_1973_4901" x1="299.445" y1="118.43" x2="206.701" y2="307.322" gradientUnits="userSpaceOnUse">
<stop offset="0.107318" stop-color="#FBBE7E" stop-opacity="0"/>
<stop offset="0.42" stop-color="#FBBE7E" stop-opacity="0.4"/>
<stop offset="1" stop-color="#FF6E75" stop-opacity="0.7"/>
</linearGradient>
<linearGradient id="paint17_linear_1973_4901" x1="127.292" y1="118.043" x2="220.295" y2="310.324" gradientUnits="userSpaceOnUse">
<stop offset="0.157793" stop-color="#FBBE7E" stop-opacity="0"/>
<stop offset="0.42" stop-color="#FBBE7E" stop-opacity="0.4"/>
<stop offset="1" stop-color="#FF6E75" stop-opacity="0.7"/>
</linearGradient>
<linearGradient id="paint18_linear_1973_4901" x1="142.198" y1="267.803" x2="211.323" y2="140.49" gradientUnits="userSpaceOnUse">
<stop stop-color="#FF6E75"/>
<stop offset="1" stop-color="#FBBE7E"/>
</linearGradient>
<linearGradient id="paint19_linear_1973_4901" x1="247.407" y1="161.056" x2="278.435" y2="129.037" gradientUnits="userSpaceOnUse">
<stop stop-color="#FF6E75"/>
<stop offset="1" stop-color="#FBBE7E"/>
</linearGradient>
<linearGradient id="paint20_linear_1973_4901" x1="226.86" y1="212.993" x2="230.798" y2="163.394" gradientUnits="userSpaceOnUse">
<stop stop-color="#FF6E75"/>
<stop offset="1" stop-color="#FBBE7E"/>
</linearGradient>
<linearGradient id="paint21_linear_1973_4901" x1="184.179" y1="288.538" x2="200.723" y2="158.334" gradientUnits="userSpaceOnUse">
<stop stop-color="#FF6E75"/>
<stop offset="1" stop-color="#FBBE7E"/>
</linearGradient>
<linearGradient id="paint22_linear_1973_4901" x1="234.352" y1="196.64" x2="277.452" y2="137.568" gradientUnits="userSpaceOnUse">
<stop stop-color="#FF6E75"/>
<stop offset="1" stop-color="#FBBE7E"/>
</linearGradient>
<linearGradient id="paint23_linear_1973_4901" x1="226.929" y1="233.502" x2="240.088" y2="128.393" gradientUnits="userSpaceOnUse">
<stop stop-color="#FF6E75"/>
<stop offset="1" stop-color="#FBBE7E"/>
</linearGradient>
<linearGradient id="paint24_linear_1973_4901" x1="189.042" y1="211.741" x2="181.875" y2="144.052" gradientUnits="userSpaceOnUse">
<stop stop-color="#FF6E75"/>
<stop offset="1" stop-color="#FBBE7E"/>
</linearGradient>
<linearGradient id="paint25_linear_1973_4901" x1="267.119" y1="202.015" x2="270.451" y2="201.674" gradientUnits="userSpaceOnUse">
<stop stop-color="#FF6E75"/>
<stop offset="1" stop-color="#FBBE7E"/>
</linearGradient>
<radialGradient id="paint26_radial_1973_4901" cx="0" cy="0" r="1" gradientUnits="userSpaceOnUse" gradientTransform="translate(255.855 211.743) rotate(136.273) scale(8.14739 8.11088)">
<stop stop-color="#FBBE7E"/>
<stop offset="0.221995" stop-color="#FBBE7E"/>
<stop offset="0.571501" stop-color="#FF6E75"/>
</radialGradient>
<radialGradient id="paint27_radial_1973_4901" cx="0" cy="0" r="1" gradientUnits="userSpaceOnUse" gradientTransform="translate(229.242 218.744) rotate(136.273) scale(8.14739 8.11088)">
<stop stop-color="#FBBE7E"/>
<stop offset="0.221995" stop-color="#FBBE7E"/>
<stop offset="0.571501" stop-color="#FF6E75"/>
</radialGradient>
<radialGradient id="paint28_radial_1973_4901" cx="0" cy="0" r="1" gradientUnits="userSpaceOnUse" gradientTransform="translate(194.776 219.656) rotate(136.273) scale(8.14739 8.11088)">
<stop stop-color="#FBBE7E"/>
<stop offset="0.221995" stop-color="#FBBE7E"/>
<stop offset="0.571501" stop-color="#FF6E75"/>
</radialGradient>
<radialGradient id="paint29_radial_1973_4901" cx="0" cy="0" r="1" gradientUnits="userSpaceOnUse" gradientTransform="translate(165.593 210.438) rotate(136.273) scale(8.14739 8.11088)">
<stop stop-color="#FBBE7E"/>
<stop offset="0.221995" stop-color="#FBBE7E"/>
<stop offset="0.571501" stop-color="#FF6E75"/>
</radialGradient>
</defs>
</svg>
