<svg width="357" height="353" viewBox="0 0 357 353" fill="none" xmlns="http://www.w3.org/2000/svg">
<g filter="url(#filter0_f_1806_5781)">
<ellipse cx="178.5" cy="176.5" rx="118.5" ry="116.5" fill="url(#paint0_radial_1806_5781)"/>
</g>
<g opacity="0.4" filter="url(#filter1_f_1806_5781)">
<circle cx="178.753" cy="192.585" r="95.4155" fill="url(#paint1_radial_1806_5781)"/>
</g>
<path opacity="0.4" d="M146.382 95.837L98.7822 95.837" stroke="url(#paint2_linear_1806_5781)" stroke-width="0.418489"/>
<g opacity="0.7" filter="url(#filter2_d_1806_5781)">
<circle cx="0.836978" cy="0.836978" r="0.836978" transform="matrix(-1 0 0 1 98.6738 95)" fill="#FBBE7E"/>
</g>
<path opacity="0.4" d="M244.037 146.089L299.278 146.089" stroke="url(#paint3_linear_1806_5781)" stroke-width="0.418489" stroke-dasharray="2.07 2.07"/>
<g opacity="0.7" filter="url(#filter3_d_1806_5781)">
<circle cx="300.115" cy="146.09" r="0.836978" fill="#FBBE7E"/>
</g>
<path opacity="0.4" d="M248.641 228.157L303.881 228.157" stroke="url(#paint4_linear_1806_5781)" stroke-width="0.418489"/>
<g opacity="0.7" filter="url(#filter4_d_1806_5781)">
<circle cx="304.718" cy="228.157" r="0.836978" fill="#FBBE7E"/>
</g>
<path opacity="0.4" d="M108.914 150.837L53.6735 150.837" stroke="url(#paint5_linear_1806_5781)" stroke-width="0.418489" stroke-dasharray="2.07 2.07"/>
<g opacity="0.7" filter="url(#filter5_d_1806_5781)">
<circle cx="0.836978" cy="0.836978" r="0.836978" transform="matrix(-1 0 0 1 53.6738 150)" fill="#FBBE7E"/>
</g>
<path opacity="0.4" d="M131.046 261.636L83.4462 261.636" stroke="url(#paint6_linear_1806_5781)" stroke-width="0.418489"/>
<g opacity="0.7" filter="url(#filter6_d_1806_5781)">
<circle cx="0.836978" cy="0.836978" r="0.836978" transform="matrix(-1 0 0 1 83.3379 260.799)" fill="#FBBE7E"/>
</g>
<path opacity="0.4" d="M294.985 260.799L228.972 260.799" stroke="url(#paint7_linear_1806_5781)" stroke-width="0.418489" stroke-dasharray="2.07 2.07"/>
<g opacity="0.4">
<path opacity="0.4" d="M147.678 180.031L100.078 180.031" stroke="url(#paint8_linear_1806_5781)" stroke-width="0.418489"/>
</g>
<path opacity="0.4" d="M159.922 214.765L112.322 214.765" stroke="url(#paint9_linear_1806_5781)" stroke-width="0.418489" stroke-dasharray="2.07 2.07"/>
<g opacity="0.7" filter="url(#filter7_d_1806_5781)">
<circle cx="0.836978" cy="0.836978" r="0.836978" transform="matrix(-1 0 0 1 112.214 213.928)" fill="#FBBE7E"/>
</g>
<path d="M253.797 175.316L259.634 177.83L269.059 184.305L263.222 181.791L253.797 175.316Z" fill="url(#paint10_linear_1806_5781)"/>
<path d="M265.643 198.591L271.479 201.104L264.597 212.224L258.76 209.71L265.643 198.591Z" fill="url(#paint11_linear_1806_5781)"/>
<path d="M279.103 176.858L284.94 179.372L278.051 190.49L272.214 187.976L279.103 176.858Z" fill="url(#paint12_linear_1806_5781)"/>
<path d="M270.104 170.672L275.94 173.185L284.94 179.372L279.103 176.858L270.104 170.672Z" fill="url(#paint13_linear_1806_5781)"/>
<path d="M279.103 176.858L272.215 187.976L281.639 194.451L275.06 205.07L265.643 198.59L258.76 209.709L249.76 203.529L256.642 192.409L247.223 185.935L253.796 175.315L263.221 181.79L270.104 170.671L279.103 176.858Z" fill="url(#paint14_linear_1806_5781)"/>
<path d="M272.215 187.975L278.052 190.489L287.477 196.964L281.64 194.45L272.215 187.975Z" fill="url(#paint15_linear_1806_5781)"/>
<path d="M281.639 194.451L287.476 196.965L280.897 207.584L275.06 205.07L281.639 194.451Z" fill="url(#paint16_linear_1806_5781)"/>
<g filter="url(#filter8_b_1806_5781)">
<path d="M162.706 112.933L159.705 123.414C159.656 123.546 159.597 123.675 159.558 123.809C157.843 129.8 170.895 138.799 188.713 143.901C206.531 149.003 222.369 148.276 224.084 142.285L224.09 142.264C224.09 142.264 224.127 142.174 224.139 142.133C224.16 142.06 224.146 141.989 224.154 141.924L224.175 141.93L227.235 131.242C237.915 140.278 248.581 149.322 259.257 158.368C259.402 158.488 259.544 158.618 259.675 158.746L259.718 158.792C261.527 160.608 262.332 163.19 261.871 165.7C261.834 165.947 261.773 166.198 261.702 166.446L232.975 266.774C232.131 269.723 229.641 271.887 226.615 272.331L152.166 283.19C149.959 283.51 147.714 282.867 146.01 281.427L88.5918 232.81C86.2584 230.832 85.2919 227.678 86.1363 224.729L114.861 124.412C114.929 124.174 115.004 123.949 115.1 123.73C115.965 121.493 117.817 119.795 120.108 119.107L120.118 119.11C120.474 119 120.845 118.915 121.231 118.858C135.059 116.861 148.886 114.864 162.724 112.871" fill="url(#paint17_linear_1806_5781)"/>
<path d="M162.706 112.933L159.705 123.414C159.656 123.546 159.597 123.675 159.558 123.809C157.843 129.8 170.895 138.799 188.713 143.901C206.531 149.003 222.369 148.276 224.084 142.285L224.09 142.264C224.09 142.264 224.127 142.174 224.139 142.133C224.16 142.06 224.146 141.989 224.154 141.924L224.175 141.93L227.235 131.242C237.915 140.278 248.581 149.322 259.257 158.368C259.402 158.488 259.544 158.618 259.675 158.746L259.718 158.792C261.527 160.608 262.332 163.19 261.871 165.7C261.834 165.947 261.773 166.198 261.702 166.446L232.975 266.774C232.131 269.723 229.641 271.887 226.615 272.331L152.166 283.19C149.959 283.51 147.714 282.867 146.01 281.427L88.5918 232.81C86.2584 230.832 85.2919 227.678 86.1363 224.729L114.861 124.412C114.929 124.174 115.004 123.949 115.1 123.73C115.965 121.493 117.817 119.795 120.108 119.107L120.118 119.11C120.474 119 120.845 118.915 121.231 118.858C135.059 116.861 148.886 114.864 162.724 112.871" stroke="url(#paint18_linear_1806_5781)" stroke-width="1.2" stroke-miterlimit="10"/>
</g>
<g filter="url(#filter9_b_1806_5781)">
<path d="M261.872 165.701L178.814 177.734L115.101 123.732C115.966 121.494 117.818 119.796 120.108 119.108L120.119 119.111L162.707 112.934L159.706 123.416C159.657 123.547 159.597 123.676 159.559 123.81C157.843 129.801 170.896 138.801 188.714 143.903C206.532 149.005 222.369 148.277 224.085 142.286L224.091 142.266C224.091 142.266 224.128 142.175 224.14 142.134C224.16 142.062 224.147 141.991 224.154 141.926L224.175 141.932L227.236 131.243L259.676 158.747L259.719 158.793C261.527 160.609 262.333 163.191 261.872 165.701Z" fill="url(#paint19_linear_1806_5781)"/>
<path d="M261.872 165.701L178.814 177.734L115.101 123.732C115.966 121.494 117.818 119.796 120.108 119.108L120.119 119.111L162.707 112.934L159.706 123.416C159.657 123.547 159.597 123.676 159.559 123.81C157.843 129.801 170.896 138.801 188.714 143.903C206.532 149.005 222.369 148.277 224.085 142.286L224.091 142.266C224.091 142.266 224.128 142.175 224.14 142.134C224.16 142.062 224.147 141.991 224.154 141.926L224.175 141.932L227.236 131.243L259.676 158.747L259.719 158.793C261.527 160.609 262.333 163.191 261.872 165.701Z" stroke="url(#paint20_linear_1806_5781)" stroke-width="1.2" stroke-miterlimit="10"/>
</g>
<g opacity="0.89" filter="url(#filter10_f_1806_5781)">
<path d="M184.058 160.003C162.089 163.183 140.105 166.372 118.136 169.552L102.311 224.817L153.241 267.121L219.369 257.753L234.995 203.181C217.947 189.018 201.107 174.165 184.055 160.013L184.058 160.003Z" fill="url(#paint21_linear_1806_5781)"/>
<path d="M168.815 212.806L117.988 169.715L184.249 160.116L235.079 203.197L168.815 212.806Z" fill="url(#paint22_linear_1806_5781)"/>
</g>
<g opacity="0.6">
<path d="M228.533 97.7277L218.728 131.97C217.42 136.538 205.428 137.102 191.951 133.243C178.475 129.384 168.599 122.558 169.904 118.001L179.751 83.61C178.446 88.1672 188.311 94.9898 201.799 98.8516C215.286 102.714 227.034 102.16 228.533 97.7277Z" fill="#FBBE7E"/>
<path d="M200.332 104.012C213.82 107.874 225.811 107.31 227.116 102.753C228.421 98.1953 218.546 91.37 205.058 87.508C191.57 83.6461 179.579 84.2099 178.274 88.7674C176.969 93.3249 186.845 100.15 200.332 104.012Z" fill="#FBBE7E"/>
</g>
<g filter="url(#filter11_b_1806_5781)">
<path d="M199.745 105.907C219.666 111.611 237.372 110.801 239.291 104.098C241.21 97.3944 226.617 87.3362 206.696 81.632C186.774 75.9279 169.069 76.7378 167.15 83.4411C165.23 90.1444 179.824 100.203 199.745 105.907Z" fill="url(#paint23_linear_1806_5781)"/>
<path d="M199.745 105.907C219.666 111.611 237.372 110.801 239.291 104.098C241.21 97.3944 226.617 87.3362 206.696 81.632C186.774 75.9279 169.069 76.7378 167.15 83.4411C165.23 90.1444 179.824 100.203 199.745 105.907Z" stroke="url(#paint24_linear_1806_5781)" stroke-width="1.2" stroke-miterlimit="10"/>
</g>
<g filter="url(#filter12_b_1806_5781)">
<path d="M224.421 141.582C224.421 141.582 224.382 141.677 224.37 141.721L224.363 141.743C222.557 148.051 206.646 149.037 188.828 143.935C171.01 138.833 158.031 129.575 159.838 123.267C159.878 123.125 159.939 122.989 159.99 122.851L165.416 103.902C170.16 109.776 181.55 116.138 195.632 120.17C209.715 124.203 222.766 124.839 229.9 122.367L224.459 141.369L224.438 141.363C224.43 141.432 224.442 141.506 224.421 141.582Z" fill="url(#paint25_linear_1806_5781)"/>
<path d="M224.421 141.582C224.421 141.582 224.382 141.677 224.37 141.721L224.363 141.743C222.557 148.051 206.646 149.037 188.828 143.935C171.01 138.833 158.031 129.575 159.838 123.267C159.878 123.125 159.939 122.989 159.99 122.851L165.416 103.902C170.16 109.776 181.55 116.138 195.632 120.17C209.715 124.203 222.766 124.839 229.9 122.367L224.459 141.369L224.438 141.363C224.43 141.432 224.442 141.506 224.421 141.582Z" stroke="url(#paint26_linear_1806_5781)" stroke-width="1.2" stroke-miterlimit="10"/>
</g>
<g filter="url(#filter13_b_1806_5781)">
<path d="M235.058 118.995C235.058 118.995 235.018 119.095 235.003 119.147L234.997 119.168C233.081 125.862 215.37 126.68 195.441 120.974C175.512 115.267 160.918 105.2 162.835 98.505C162.88 98.3498 162.942 98.2109 162.997 98.0586L167.174 83.4689C165.966 90.1537 180.366 99.9196 199.86 105.502C219.354 111.083 236.929 110.428 239.314 104.013L235.089 118.768L235.069 118.763C235.058 118.838 235.072 118.909 235.048 118.992L235.058 118.995Z" fill="url(#paint27_linear_1806_5781)"/>
<path d="M235.058 118.995C235.058 118.995 235.018 119.095 235.003 119.147L234.997 119.168C233.081 125.862 215.37 126.68 195.441 120.974C175.512 115.267 160.918 105.2 162.835 98.505C162.88 98.3498 162.942 98.2109 162.997 98.0586L167.174 83.4689C165.966 90.1537 180.366 99.9196 199.86 105.502C219.354 111.083 236.929 110.428 239.314 104.013L235.089 118.768L235.069 118.763C235.058 118.838 235.072 118.909 235.048 118.992L235.058 118.995Z" stroke="url(#paint28_linear_1806_5781)" stroke-width="1.2" stroke-miterlimit="10"/>
</g>
<path d="M179.255 177.605L149.272 282.318" stroke="url(#paint29_linear_1806_5781)" stroke-width="1.2"/>
<path d="M233.063 81.9053L228.28 98.6092C226.972 103.177 214.98 103.741 201.503 99.8823C188.027 96.0234 178.151 89.1978 179.456 84.6406L184.281 67.7876C182.976 72.3448 192.842 79.1674 206.329 83.0293C219.816 86.8911 231.564 86.338 233.063 81.9053Z" fill="#FBBE7E"/>
<path d="M206.241 83.3771C219.728 87.239 231.72 86.6752 233.025 82.1177C234.33 77.5603 224.454 70.735 210.966 66.873C197.479 63.0111 185.487 63.5749 184.182 68.1324C182.877 72.6899 192.753 79.5151 206.241 83.3771Z" fill="url(#paint30_linear_1806_5781)"/>
<g filter="url(#filter14_b_1806_5781)">
<path d="M268.31 79.6082L274.119 80.8977L283.922 85.2023L278.113 83.9127L268.31 79.6082Z" fill="url(#paint31_linear_1806_5781)"/>
<path d="M283.284 98.9403L289.093 100.23L284.71 111.663L278.901 110.373L283.284 98.9403Z" fill="url(#paint32_linear_1806_5781)"/>
<path d="M291.857 76.5938L297.666 77.8833L293.278 89.3165L287.469 88.0269L291.857 76.5938Z" fill="url(#paint33_linear_1806_5781)"/>
<path d="M282.495 72.4791L288.304 73.7687L297.666 77.8823L291.857 76.5927L282.495 72.4791Z" fill="url(#paint34_linear_1806_5781)"/>
<g filter="url(#filter15_b_1806_5781)">
<path d="M291.857 76.5927L287.469 88.0258L297.272 92.3304L293.081 103.25L283.284 98.9395L278.902 110.373L269.54 106.265L273.922 94.832L264.125 90.5274L268.31 79.6077L278.113 83.9123L282.496 72.4791L291.857 76.5927Z" fill="url(#paint35_linear_1806_5781)"/>
</g>
<path d="M287.469 88.0254L293.278 89.315L303.081 93.6196L297.272 92.33L287.469 88.0254Z" fill="url(#paint36_linear_1806_5781)"/>
<path d="M297.272 92.3312L303.081 93.6208L298.89 104.54L293.081 103.251L297.272 92.3312Z" fill="url(#paint37_linear_1806_5781)"/>
</g>
<path d="M97.252 184.564L89.1243 186.368L75.4085 192.391L83.5361 190.586L97.252 184.564Z" fill="url(#paint38_linear_1806_5781)"/>
<path d="M76.3024 211.612L68.1748 213.416L74.306 229.412L82.4336 227.608L76.3024 211.612Z" fill="url(#paint39_linear_1806_5781)"/>
<path d="M64.3067 180.346L56.1791 182.15L62.3187 198.147L70.4463 196.342L64.3067 180.346Z" fill="url(#paint40_linear_1806_5781)"/>
<path d="M77.4053 174.59L69.2777 176.395L56.1799 182.15L64.3075 180.346L77.4053 174.59Z" fill="url(#paint41_linear_1806_5781)"/>
<path d="M64.307 180.346L70.4466 196.342L56.7307 202.365L62.5946 217.642L76.3022 211.611L82.4334 227.608L95.5311 221.861L89.3999 205.865L103.107 199.842L97.2519 184.564L83.536 190.587L77.4048 174.59L64.307 180.346Z" fill="url(#paint42_linear_1806_5781)"/>
<path d="M70.4463 196.34L62.3187 198.145L48.6028 204.167L56.7304 202.363L70.4463 196.34Z" fill="url(#paint43_linear_1806_5781)"/>
<path d="M56.7308 202.364L48.6032 204.169L54.4671 219.446L62.5947 217.642L56.7308 202.364Z" fill="url(#paint44_linear_1806_5781)"/>
<defs>
<filter id="filter0_f_1806_5781" x="0" y="0" width="357" height="353" filterUnits="userSpaceOnUse" color-interpolation-filters="sRGB">
<feFlood flood-opacity="0" result="BackgroundImageFix"/>
<feBlend mode="normal" in="SourceGraphic" in2="BackgroundImageFix" result="shape"/>
<feGaussianBlur stdDeviation="30" result="effect1_foregroundBlur_1806_5781"/>
</filter>
<filter id="filter1_f_1806_5781" x="46.9188" y="60.7508" width="263.669" height="263.669" filterUnits="userSpaceOnUse" color-interpolation-filters="sRGB">
<feFlood flood-opacity="0" result="BackgroundImageFix"/>
<feBlend mode="normal" in="SourceGraphic" in2="BackgroundImageFix" result="shape"/>
<feGaussianBlur stdDeviation="18.2096" result="effect1_foregroundBlur_1806_5781"/>
</filter>
<filter id="filter2_d_1806_5781" x="94.9913" y="92.9913" width="5.69132" height="5.69144" filterUnits="userSpaceOnUse" color-interpolation-filters="sRGB">
<feFlood flood-opacity="0" result="BackgroundImageFix"/>
<feColorMatrix in="SourceAlpha" type="matrix" values="0 0 0 0 0 0 0 0 0 0 0 0 0 0 0 0 0 0 127 0" result="hardAlpha"/>
<feOffset/>
<feGaussianBlur stdDeviation="1.00437"/>
<feComposite in2="hardAlpha" operator="out"/>
<feColorMatrix type="matrix" values="0 0 0 0 0.984314 0 0 0 0 0.745098 0 0 0 0 0.494118 0 0 0 1 0"/>
<feBlend mode="normal" in2="BackgroundImageFix" result="effect1_dropShadow_1806_5781"/>
<feBlend mode="normal" in="SourceGraphic" in2="effect1_dropShadow_1806_5781" result="shape"/>
</filter>
<filter id="filter3_d_1806_5781" x="297.27" y="143.244" width="5.69132" height="5.69144" filterUnits="userSpaceOnUse" color-interpolation-filters="sRGB">
<feFlood flood-opacity="0" result="BackgroundImageFix"/>
<feColorMatrix in="SourceAlpha" type="matrix" values="0 0 0 0 0 0 0 0 0 0 0 0 0 0 0 0 0 0 127 0" result="hardAlpha"/>
<feOffset/>
<feGaussianBlur stdDeviation="1.00437"/>
<feComposite in2="hardAlpha" operator="out"/>
<feColorMatrix type="matrix" values="0 0 0 0 0.984314 0 0 0 0 0.745098 0 0 0 0 0.494118 0 0 0 1 0"/>
<feBlend mode="normal" in2="BackgroundImageFix" result="effect1_dropShadow_1806_5781"/>
<feBlend mode="normal" in="SourceGraphic" in2="effect1_dropShadow_1806_5781" result="shape"/>
</filter>
<filter id="filter4_d_1806_5781" x="301.872" y="225.311" width="5.69132" height="5.69144" filterUnits="userSpaceOnUse" color-interpolation-filters="sRGB">
<feFlood flood-opacity="0" result="BackgroundImageFix"/>
<feColorMatrix in="SourceAlpha" type="matrix" values="0 0 0 0 0 0 0 0 0 0 0 0 0 0 0 0 0 0 127 0" result="hardAlpha"/>
<feOffset/>
<feGaussianBlur stdDeviation="1.00437"/>
<feComposite in2="hardAlpha" operator="out"/>
<feColorMatrix type="matrix" values="0 0 0 0 0.984314 0 0 0 0 0.745098 0 0 0 0 0.494118 0 0 0 1 0"/>
<feBlend mode="normal" in2="BackgroundImageFix" result="effect1_dropShadow_1806_5781"/>
<feBlend mode="normal" in="SourceGraphic" in2="effect1_dropShadow_1806_5781" result="shape"/>
</filter>
<filter id="filter5_d_1806_5781" x="49.9913" y="147.991" width="5.69132" height="5.69144" filterUnits="userSpaceOnUse" color-interpolation-filters="sRGB">
<feFlood flood-opacity="0" result="BackgroundImageFix"/>
<feColorMatrix in="SourceAlpha" type="matrix" values="0 0 0 0 0 0 0 0 0 0 0 0 0 0 0 0 0 0 127 0" result="hardAlpha"/>
<feOffset/>
<feGaussianBlur stdDeviation="1.00437"/>
<feComposite in2="hardAlpha" operator="out"/>
<feColorMatrix type="matrix" values="0 0 0 0 0.984314 0 0 0 0 0.745098 0 0 0 0 0.494118 0 0 0 1 0"/>
<feBlend mode="normal" in2="BackgroundImageFix" result="effect1_dropShadow_1806_5781"/>
<feBlend mode="normal" in="SourceGraphic" in2="effect1_dropShadow_1806_5781" result="shape"/>
</filter>
<filter id="filter6_d_1806_5781" x="79.6553" y="258.79" width="5.69132" height="5.69144" filterUnits="userSpaceOnUse" color-interpolation-filters="sRGB">
<feFlood flood-opacity="0" result="BackgroundImageFix"/>
<feColorMatrix in="SourceAlpha" type="matrix" values="0 0 0 0 0 0 0 0 0 0 0 0 0 0 0 0 0 0 127 0" result="hardAlpha"/>
<feOffset/>
<feGaussianBlur stdDeviation="1.00437"/>
<feComposite in2="hardAlpha" operator="out"/>
<feColorMatrix type="matrix" values="0 0 0 0 0.984314 0 0 0 0 0.745098 0 0 0 0 0.494118 0 0 0 1 0"/>
<feBlend mode="normal" in2="BackgroundImageFix" result="effect1_dropShadow_1806_5781"/>
<feBlend mode="normal" in="SourceGraphic" in2="effect1_dropShadow_1806_5781" result="shape"/>
</filter>
<filter id="filter7_d_1806_5781" x="108.531" y="211.92" width="5.69132" height="5.69144" filterUnits="userSpaceOnUse" color-interpolation-filters="sRGB">
<feFlood flood-opacity="0" result="BackgroundImageFix"/>
<feColorMatrix in="SourceAlpha" type="matrix" values="0 0 0 0 0 0 0 0 0 0 0 0 0 0 0 0 0 0 127 0" result="hardAlpha"/>
<feOffset/>
<feGaussianBlur stdDeviation="1.00437"/>
<feComposite in2="hardAlpha" operator="out"/>
<feColorMatrix type="matrix" values="0 0 0 0 0.984314 0 0 0 0 0.745098 0 0 0 0 0.494118 0 0 0 1 0"/>
<feBlend mode="normal" in2="BackgroundImageFix" result="effect1_dropShadow_1806_5781"/>
<feBlend mode="normal" in="SourceGraphic" in2="effect1_dropShadow_1806_5781" result="shape"/>
</filter>
<filter id="filter8_b_1806_5781" x="79.4583" y="106.5" width="188.917" height="183.148" filterUnits="userSpaceOnUse" color-interpolation-filters="sRGB">
<feFlood flood-opacity="0" result="BackgroundImageFix"/>
<feGaussianBlur in="BackgroundImageFix" stdDeviation="2.88853"/>
<feComposite in2="SourceAlpha" operator="in" result="effect1_backgroundBlur_1806_5781"/>
<feBlend mode="normal" in="SourceGraphic" in2="effect1_backgroundBlur_1806_5781" result="shape"/>
</filter>
<filter id="filter9_b_1806_5781" x="108.611" y="106.43" width="159.766" height="77.7137" filterUnits="userSpaceOnUse" color-interpolation-filters="sRGB">
<feFlood flood-opacity="0" result="BackgroundImageFix"/>
<feGaussianBlur in="BackgroundImageFix" stdDeviation="2.88853"/>
<feComposite in2="SourceAlpha" operator="in" result="effect1_backgroundBlur_1806_5781"/>
<feBlend mode="normal" in="SourceGraphic" in2="effect1_backgroundBlur_1806_5781" result="shape"/>
</filter>
<filter id="filter10_f_1806_5781" x="100.559" y="158.25" width="136.273" height="110.624" filterUnits="userSpaceOnUse" color-interpolation-filters="sRGB">
<feFlood flood-opacity="0" result="BackgroundImageFix"/>
<feBlend mode="normal" in="SourceGraphic" in2="BackgroundImageFix" result="shape"/>
<feGaussianBlur stdDeviation="0.876375" result="effect1_foregroundBlur_1806_5781"/>
</filter>
<filter id="filter11_b_1806_5781" x="163.411" y="74.2631" width="79.6195" height="39.0126" filterUnits="userSpaceOnUse" color-interpolation-filters="sRGB">
<feFlood flood-opacity="0" result="BackgroundImageFix"/>
<feGaussianBlur in="BackgroundImageFix" stdDeviation="1.48447"/>
<feComposite in2="SourceAlpha" operator="in" result="effect1_backgroundBlur_1806_5781"/>
<feBlend mode="normal" in="SourceGraphic" in2="effect1_backgroundBlur_1806_5781" result="shape"/>
</filter>
<filter id="filter12_b_1806_5781" x="156.1" y="99.6581" width="77.6635" height="51.1111" filterUnits="userSpaceOnUse" color-interpolation-filters="sRGB">
<feFlood flood-opacity="0" result="BackgroundImageFix"/>
<feGaussianBlur in="BackgroundImageFix" stdDeviation="1.48447"/>
<feComposite in2="SourceAlpha" operator="in" result="effect1_backgroundBlur_1806_5781"/>
<feBlend mode="normal" in="SourceGraphic" in2="effect1_backgroundBlur_1806_5781" result="shape"/>
</filter>
<filter id="filter13_b_1806_5781" x="159.096" y="80.3348" width="83.7641" height="48.0071" filterUnits="userSpaceOnUse" color-interpolation-filters="sRGB">
<feFlood flood-opacity="0" result="BackgroundImageFix"/>
<feGaussianBlur in="BackgroundImageFix" stdDeviation="1.48447"/>
<feComposite in2="SourceAlpha" operator="in" result="effect1_backgroundBlur_1806_5781"/>
<feBlend mode="normal" in="SourceGraphic" in2="effect1_backgroundBlur_1806_5781" result="shape"/>
</filter>
<filter id="filter14_b_1806_5781" x="257.128" y="65.4817" width="52.9509" height="53.1789" filterUnits="userSpaceOnUse" color-interpolation-filters="sRGB">
<feFlood flood-opacity="0" result="BackgroundImageFix"/>
<feGaussianBlur in="BackgroundImageFix" stdDeviation="3.49872"/>
<feComposite in2="SourceAlpha" operator="in" result="effect1_backgroundBlur_1806_5781"/>
<feBlend mode="normal" in="SourceGraphic" in2="effect1_backgroundBlur_1806_5781" result="shape"/>
</filter>
<filter id="filter15_b_1806_5781" x="257.128" y="65.4817" width="47.1424" height="51.8884" filterUnits="userSpaceOnUse" color-interpolation-filters="sRGB">
<feFlood flood-opacity="0" result="BackgroundImageFix"/>
<feGaussianBlur in="BackgroundImageFix" stdDeviation="3.49872"/>
<feComposite in2="SourceAlpha" operator="in" result="effect1_backgroundBlur_1806_5781"/>
<feBlend mode="normal" in="SourceGraphic" in2="effect1_backgroundBlur_1806_5781" result="shape"/>
</filter>
<radialGradient id="paint0_radial_1806_5781" cx="0" cy="0" r="1" gradientUnits="userSpaceOnUse" gradientTransform="translate(178.5 176.5) rotate(90) scale(104.815 106.614)">
<stop offset="0.00284881" stop-color="#FBBE7E"/>
<stop offset="0.506709" stop-color="#FBBE7E" stop-opacity="0.15"/>
</radialGradient>
<radialGradient id="paint1_radial_1806_5781" cx="0" cy="0" r="1" gradientUnits="userSpaceOnUse" gradientTransform="translate(178.753 192.585) rotate(89.9748) scale(91.7742)">
<stop stop-color="#FBBE7E"/>
<stop offset="0.667535" stop-color="#FBBE7E" stop-opacity="0.5"/>
</radialGradient>
<linearGradient id="paint2_linear_1806_5781" x1="150.148" y1="105.337" x2="98.7745" y2="105.047" gradientUnits="userSpaceOnUse">
<stop offset="0.015" stop-color="#FBBE7E" stop-opacity="0"/>
<stop offset="0.69" stop-color="#FBBE7E"/>
</linearGradient>
<linearGradient id="paint3_linear_1806_5781" x1="239.666" y1="155.589" x2="299.286" y2="155.199" gradientUnits="userSpaceOnUse">
<stop offset="0.015" stop-color="#FBBE7E" stop-opacity="0"/>
<stop offset="0.69" stop-color="#FBBE7E"/>
</linearGradient>
<linearGradient id="paint4_linear_1806_5781" x1="244.27" y1="237.657" x2="303.889" y2="237.267" gradientUnits="userSpaceOnUse">
<stop offset="0.015" stop-color="#FBBE7E" stop-opacity="0"/>
<stop offset="0.69" stop-color="#FBBE7E"/>
</linearGradient>
<linearGradient id="paint5_linear_1806_5781" x1="113.285" y1="160.337" x2="53.6652" y2="159.947" gradientUnits="userSpaceOnUse">
<stop offset="0.015" stop-color="#FBBE7E" stop-opacity="0"/>
<stop offset="0.69" stop-color="#FBBE7E"/>
</linearGradient>
<linearGradient id="paint6_linear_1806_5781" x1="134.812" y1="271.136" x2="83.4386" y2="270.846" gradientUnits="userSpaceOnUse">
<stop offset="0.015" stop-color="#FBBE7E" stop-opacity="0"/>
<stop offset="0.69" stop-color="#FBBE7E"/>
</linearGradient>
<linearGradient id="paint7_linear_1806_5781" x1="300.209" y1="270.299" x2="228.963" y2="269.742" gradientUnits="userSpaceOnUse">
<stop offset="0.015" stop-color="#FBBE7E" stop-opacity="0"/>
<stop offset="0.69" stop-color="#FBBE7E"/>
</linearGradient>
<linearGradient id="paint8_linear_1806_5781" x1="151.444" y1="189.531" x2="100.07" y2="189.241" gradientUnits="userSpaceOnUse">
<stop offset="0.015" stop-color="#FBBE7E" stop-opacity="0"/>
<stop offset="0.58" stop-color="#FBBE7E"/>
<stop offset="0.965" stop-color="#FBBE7E" stop-opacity="0"/>
</linearGradient>
<linearGradient id="paint9_linear_1806_5781" x1="163.688" y1="224.265" x2="112.315" y2="223.976" gradientUnits="userSpaceOnUse">
<stop offset="0.015" stop-color="#FBBE7E" stop-opacity="0"/>
<stop offset="0.69" stop-color="#FBBE7E"/>
</linearGradient>
<linearGradient id="paint10_linear_1806_5781" x1="250.955" y1="190.235" x2="257.961" y2="169.274" gradientUnits="userSpaceOnUse">
<stop stop-color="#FF6E75"/>
<stop offset="1" stop-color="#FBBE7E"/>
</linearGradient>
<linearGradient id="paint11_linear_1806_5781" x1="267.384" y1="212.995" x2="296.524" y2="156.967" gradientUnits="userSpaceOnUse">
<stop stop-color="#FF6E75"/>
<stop offset="1" stop-color="#FBBE7E"/>
</linearGradient>
<linearGradient id="paint12_linear_1806_5781" x1="277.019" y1="193.084" x2="288.105" y2="177.919" gradientUnits="userSpaceOnUse">
<stop stop-color="#FF6E75"/>
<stop offset="1" stop-color="#FBBE7E"/>
</linearGradient>
<linearGradient id="paint13_linear_1806_5781" x1="283.73" y1="188.521" x2="270.165" y2="175.594" gradientUnits="userSpaceOnUse">
<stop stop-color="#FF6E75"/>
<stop offset="1" stop-color="#FBBE7E"/>
</linearGradient>
<linearGradient id="paint14_linear_1806_5781" x1="249.696" y1="229.983" x2="281.714" y2="170.633" gradientUnits="userSpaceOnUse">
<stop stop-color="#FF6E75"/>
<stop offset="1" stop-color="#FBBE7E"/>
</linearGradient>
<linearGradient id="paint15_linear_1806_5781" x1="276.661" y1="208.594" x2="260.377" y2="169.942" gradientUnits="userSpaceOnUse">
<stop stop-color="#FF6E75"/>
<stop offset="1" stop-color="#FBBE7E"/>
</linearGradient>
<linearGradient id="paint16_linear_1806_5781" x1="282.909" y1="208.162" x2="284.162" y2="184.198" gradientUnits="userSpaceOnUse">
<stop stop-color="#FF6E75"/>
<stop offset="1" stop-color="#FBBE7E"/>
</linearGradient>
<linearGradient id="paint17_linear_1806_5781" x1="142.343" y1="106.934" x2="296.274" y2="305.705" gradientUnits="userSpaceOnUse">
<stop stop-color="#FBBE7E" stop-opacity="0.1"/>
<stop offset="1" stop-color="white" stop-opacity="0.4"/>
</linearGradient>
<linearGradient id="paint18_linear_1806_5781" x1="165.145" y1="286.977" x2="273.357" y2="128.072" gradientUnits="userSpaceOnUse">
<stop stop-color="#FF6E75"/>
<stop offset="1" stop-color="#FBBE7E"/>
</linearGradient>
<linearGradient id="paint19_linear_1806_5781" x1="142.373" y1="106.944" x2="163.935" y2="238.35" gradientUnits="userSpaceOnUse">
<stop stop-color="#FBBE7E" stop-opacity="0.1"/>
<stop offset="1" stop-color="white" stop-opacity="0.4"/>
</linearGradient>
<linearGradient id="paint20_linear_1806_5781" x1="195.141" y1="182.186" x2="221.831" y2="117.787" gradientUnits="userSpaceOnUse">
<stop stop-color="#FF6E75"/>
<stop offset="1" stop-color="#FBBE7E"/>
</linearGradient>
<linearGradient id="paint21_linear_1806_5781" x1="166.339" y1="270.443" x2="234.062" y2="159.566" gradientUnits="userSpaceOnUse">
<stop stop-color="#FF6E75"/>
<stop offset="1" stop-color="#FBBE7E"/>
</linearGradient>
<linearGradient id="paint22_linear_1806_5781" x1="181.849" y1="216.327" x2="208.305" y2="156.094" gradientUnits="userSpaceOnUse">
<stop stop-color="#FF6E75"/>
<stop offset="1" stop-color="#FBBE7E"/>
</linearGradient>
<linearGradient id="paint23_linear_1806_5781" x1="160.303" y1="68.3672" x2="172.576" y2="139.492" gradientUnits="userSpaceOnUse">
<stop stop-color="#FBBE7E" stop-opacity="0.4"/>
<stop offset="1" stop-color="white" stop-opacity="0.71"/>
</linearGradient>
<linearGradient id="paint24_linear_1806_5781" x1="207.668" y1="108.079" x2="218.934" y2="79.8662" gradientUnits="userSpaceOnUse">
<stop stop-color="#FF6E75"/>
<stop offset="1" stop-color="#FBBE7E"/>
</linearGradient>
<linearGradient id="paint25_linear_1806_5781" x1="174.515" y1="106.508" x2="192.275" y2="174.157" gradientUnits="userSpaceOnUse">
<stop stop-color="#FBBE7E" stop-opacity="0.1"/>
<stop offset="1" stop-color="white" stop-opacity="0.4"/>
</linearGradient>
<linearGradient id="paint26_linear_1806_5781" x1="195.931" y1="145.845" x2="211.628" y2="110.854" gradientUnits="userSpaceOnUse">
<stop stop-color="#FF6E75"/>
<stop offset="1" stop-color="#FBBE7E"/>
</linearGradient>
<linearGradient id="paint27_linear_1806_5781" x1="177.384" y1="86.2803" x2="187.807" y2="150.642" gradientUnits="userSpaceOnUse">
<stop stop-color="#FBBE7E" stop-opacity="0.1"/>
<stop offset="1" stop-color="white" stop-opacity="0.4"/>
</linearGradient>
<linearGradient id="paint28_linear_1806_5781" x1="203.376" y1="123.137" x2="216.413" y2="91.6262" gradientUnits="userSpaceOnUse">
<stop stop-color="#FF6E75"/>
<stop offset="1" stop-color="#FBBE7E"/>
</linearGradient>
<linearGradient id="paint29_linear_1806_5781" x1="149.969" y1="282.099" x2="153.857" y2="283.085" gradientUnits="userSpaceOnUse">
<stop stop-color="#FF6E75"/>
<stop offset="1" stop-color="#FBBE7E"/>
</linearGradient>
<linearGradient id="paint30_linear_1806_5781" x1="174.532" y1="101.835" x2="192.728" y2="62.5804" gradientUnits="userSpaceOnUse">
<stop stop-color="#FF6E75"/>
<stop offset="1" stop-color="#FBBE7E"/>
</linearGradient>
<linearGradient id="paint31_linear_1806_5781" x1="270.518" y1="79.6082" x2="275.281" y2="96.1371" gradientUnits="userSpaceOnUse">
<stop stop-color="white" stop-opacity="0.2"/>
<stop offset="1" stop-color="white" stop-opacity="0.4"/>
</linearGradient>
<linearGradient id="paint32_linear_1806_5781" x1="280.343" y1="98.9403" x2="300.699" y2="119.218" gradientUnits="userSpaceOnUse">
<stop stop-color="white" stop-opacity="0.2"/>
<stop offset="1" stop-color="white" stop-opacity="0.4"/>
</linearGradient>
<linearGradient id="paint33_linear_1806_5781" x1="288.911" y1="76.5937" x2="309.267" y2="96.8837" gradientUnits="userSpaceOnUse">
<stop stop-color="white" stop-opacity="0.2"/>
<stop offset="1" stop-color="white" stop-opacity="0.4"/>
</linearGradient>
<linearGradient id="paint34_linear_1806_5781" x1="284.641" y1="72.4791" x2="289.218" y2="88.4583" gradientUnits="userSpaceOnUse">
<stop stop-color="white" stop-opacity="0.2"/>
<stop offset="1" stop-color="white" stop-opacity="0.4"/>
</linearGradient>
<linearGradient id="paint35_linear_1806_5781" x1="300.743" y1="118.513" x2="255.692" y2="63.9596" gradientUnits="userSpaceOnUse">
<stop stop-color="white" stop-opacity="0.71"/>
<stop offset="0.963882" stop-color="white" stop-opacity="0.1"/>
</linearGradient>
<linearGradient id="paint36_linear_1806_5781" x1="289.678" y1="88.0254" x2="293.373" y2="102.668" gradientUnits="userSpaceOnUse">
<stop stop-color="white" stop-opacity="0.3"/>
<stop offset="1" stop-color="white" stop-opacity="0.4"/>
</linearGradient>
<linearGradient id="paint37_linear_1806_5781" x1="294.496" y1="92.3312" x2="314.027" y2="112.226" gradientUnits="userSpaceOnUse">
<stop stop-color="white" stop-opacity="0.2"/>
<stop offset="1" stop-color="white" stop-opacity="0.4"/>
</linearGradient>
<linearGradient id="paint38_linear_1806_5781" x1="97.252" y1="204.46" x2="93.3738" y2="175.768" gradientUnits="userSpaceOnUse">
<stop stop-color="#FF6E75"/>
<stop offset="1" stop-color="#FBBE7E"/>
</linearGradient>
<linearGradient id="paint39_linear_1806_5781" x1="70.5304" y1="229.721" x2="46.7649" y2="150.477" gradientUnits="userSpaceOnUse">
<stop stop-color="#FF6E75"/>
<stop offset="1" stop-color="#FBBE7E"/>
</linearGradient>
<linearGradient id="paint40_linear_1806_5781" x1="63.0117" y1="201.738" x2="52.4621" y2="179.504" gradientUnits="userSpaceOnUse">
<stop stop-color="#FF6E75"/>
<stop offset="1" stop-color="#FBBE7E"/>
</linearGradient>
<linearGradient id="paint41_linear_1806_5781" x1="55.4946" y1="194.22" x2="76.1191" y2="180.91" gradientUnits="userSpaceOnUse">
<stop stop-color="#FF6E75"/>
<stop offset="1" stop-color="#FBBE7E"/>
</linearGradient>
<linearGradient id="paint42_linear_1806_5781" x1="79.7186" y1="256.451" x2="61.9906" y2="169.867" gradientUnits="userSpaceOnUse">
<stop stop-color="#FF6E75"/>
<stop offset="1" stop-color="#FBBE7E"/>
</linearGradient>
<linearGradient id="paint43_linear_1806_5781" x1="59.6704" y1="221.785" x2="90.1008" y2="176.036" gradientUnits="userSpaceOnUse">
<stop stop-color="#FF6E75"/>
<stop offset="1" stop-color="#FBBE7E"/>
</linearGradient>
<linearGradient id="paint44_linear_1806_5781" x1="51.7356" y1="219.697" x2="55.998" y2="188.551" gradientUnits="userSpaceOnUse">
<stop stop-color="#FF6E75"/>
<stop offset="1" stop-color="#FBBE7E"/>
</linearGradient>
</defs>
</svg>
