<svg width="295" height="565" viewBox="0 0 295 565" fill="none" xmlns="http://www.w3.org/2000/svg">
<rect x="186.043" y="65.981" width="75.1653" height="75.1653" rx="17.7483" fill="white" fill-opacity="0.05"/>
<rect x="186.931" y="66.8684" width="73.3905" height="73.3905" rx="16.8609" stroke="white" stroke-opacity="0.6" stroke-width="1.77483"/>
<path d="M239.698 100.277C239.698 103.268 238.714 106.034 237.052 108.266C236.525 108.973 235.931 109.628 235.278 110.219C235.655 108.875 235.849 107.473 235.849 106.042C235.849 97.5179 228.913 90.582 220.389 90.582C219.084 90.582 217.805 90.7419 216.572 91.0559C217.064 90.5351 217.601 90.0539 218.173 89.6168C220.428 87.8931 223.242 86.8706 226.292 86.8706C233.684 86.8706 239.698 92.8852 239.698 100.277Z" fill="white"/>
<path d="M222.38 109.565C222.404 109.538 222.428 109.51 222.451 109.48C222.544 109.363 222.617 109.24 222.667 109.105L222.38 109.565ZM222.38 109.565C222.404 109.538 222.428 109.51 222.451 109.48C222.544 109.363 222.617 109.24 222.667 109.105L222.38 109.565ZM220.314 92.6733C217.27 92.6733 214.462 93.6943 212.211 95.4151C209.005 97.8591 206.932 101.72 206.932 106.056C206.932 113.435 212.935 119.438 220.314 119.438C224.709 119.438 228.614 117.31 231.055 114.029C232.714 111.801 233.697 109.04 233.697 106.056C233.697 98.6762 227.693 92.6733 220.314 92.6733ZM222.667 109.103L222.38 109.565H222.378L220.474 112.621C220.402 112.737 220.235 112.737 220.163 112.621L216.944 107.457L220.116 108.964C220.164 108.987 220.222 108.989 220.27 108.965L221.158 108.564L222.62 107.902L223.729 107.4L222.667 109.103ZM224.206 105.869L221.491 107.098C221.379 107.148 221.269 107.199 221.158 107.249L220.282 107.645C220.233 107.667 220.176 107.667 220.128 107.644L216.419 105.882C216.321 105.835 216.284 105.712 216.343 105.619L220.163 99.4903C220.235 99.3759 220.402 99.3759 220.474 99.4903L224.285 105.605C224.344 105.699 224.307 105.823 224.206 105.869ZM222.38 109.565C222.404 109.538 222.428 109.51 222.451 109.48C222.544 109.363 222.617 109.24 222.667 109.105L222.38 109.565ZM222.38 109.565C222.404 109.538 222.428 109.51 222.451 109.48C222.544 109.363 222.617 109.24 222.667 109.105L222.38 109.565Z" fill="white"/>
<rect x="109.162" y="156.908" width="75.1653" height="75.1653" rx="17.7483" fill="#FF6E75"/>
<rect x="171.043" y="267.835" width="75.1653" height="75.1653" rx="17.7483" fill="white" fill-opacity="0.15"/>
<path d="M221.738 300.421V302.47C221.709 302.468 221.678 302.468 221.648 302.468H216.664C213.835 302.468 211.533 304.771 211.533 307.6V309.564C211.533 312.394 213.835 314.698 216.664 314.698H221.648C221.678 314.698 221.709 314.698 221.738 314.696V316.743C221.738 318.551 220.273 320.017 218.463 320.017H195.207C193.399 320.017 191.932 318.551 191.932 316.743V300.421C191.932 298.613 193.399 297.148 195.207 297.148H218.463C220.273 297.148 221.738 298.613 221.738 300.421Z" fill="white"/>
<path d="M201.311 295.032H216.449L215.395 292.145C214.765 290.418 212.787 289.606 211.126 290.391L201.31 295.032H201.311Z" fill="white"/>
<path d="M221.738 304.539C221.709 304.536 221.678 304.536 221.648 304.536H216.664C214.971 304.536 213.599 305.908 213.599 307.601V309.565C213.599 311.258 214.971 312.632 216.664 312.632H221.648C221.678 312.632 221.709 312.632 221.738 312.629C223.391 312.584 224.715 311.229 224.715 309.565V307.601C224.715 305.938 223.391 304.584 221.738 304.539ZM217.072 309.751C216.427 309.751 215.903 309.229 215.903 308.584C215.903 307.939 216.427 307.415 217.072 307.415C217.717 307.415 218.241 307.938 218.241 308.584C218.241 309.23 217.717 309.751 217.072 309.751Z" fill="white"/>
<rect x="48.1687" y="268.723" width="73.3905" height="73.3905" rx="16.8609" stroke="white" stroke-opacity="0.6" stroke-width="1.77483"/>
<path d="M81.4916 298.234C79.7585 298.761 78.2137 299.724 76.9868 300.995V315.606C78.9008 317.585 81.582 318.817 84.5507 318.817C87.5194 318.817 90.2065 317.585 92.1175 315.604V300.993C90.2036 299.013 87.5208 297.782 84.5507 297.782C83.4872 297.782 82.4588 297.941 81.4916 298.234Z" fill="white"/>
<path d="M97.5342 302.582C96.5699 296.291 91.1213 291.456 84.5639 291.456C78.0066 291.456 72.5653 296.285 71.5967 302.571C69.5733 303.506 68.1699 305.552 68.1699 307.929V308.671C68.1699 311.929 70.8104 314.571 74.0693 314.571H74.5872V302.143C75.6828 297.652 79.7397 294.305 84.5654 294.305C89.3911 294.305 93.3839 297.596 94.5188 302.035V314.569H95.0367C98.2957 314.569 100.936 311.927 100.936 308.67V307.927C100.936 305.563 99.5444 303.523 97.5356 302.582H97.5342Z" fill="white"/>
<rect x="35.394" y="0.550781" width="75.1653" height="75.1653" rx="17.7483" fill="#FBBE7E"/>
<path d="M60.0044 43.2049C61.1422 43.2049 62.2251 42.8464 63.1228 42.2212V54.2031H60.1614C58.7748 54.2031 57.6504 53.0787 57.6504 51.6921V42.6715C58.3689 43.0152 59.1689 43.2049 60.0044 43.2049Z" fill="#000223"/>
<path d="M75.182 51.2565V54.2046H69.8354V51.2565C69.8354 49.7825 71.0339 48.5825 72.508 48.5825C73.982 48.5825 75.182 49.7825 75.182 51.2565Z" fill="#000223"/>
<path d="M79.8438 42.1866V54.204H77.2557V51.256C77.2557 48.6382 75.1254 46.5079 72.5077 46.5079C69.89 46.5079 67.7612 48.6382 67.7612 51.256V54.204H65.1968V42.2029C66.099 42.8399 67.1908 43.2058 68.3404 43.2058C69.97 43.2058 71.487 42.471 72.5092 41.2681C73.5314 42.471 75.0469 43.2058 76.6765 43.2058C77.835 43.2058 78.9372 42.834 79.8438 42.1866Z" fill="#000223"/>
<path d="M87.3662 42.6743V51.6933C87.3662 53.08 86.2433 54.2044 84.8567 54.2044H81.9175V42.2388C82.8108 42.8536 83.8848 43.2062 85.0122 43.2062C85.8492 43.2062 86.6492 43.0165 87.3662 42.6743Z" fill="#000223"/>
<path d="M88.0135 36.216L78.7071 31.025C76.682 29.8162 74.6583 28.6073 72.6347 27.3984C71.5014 28.0414 70.3695 28.6828 69.2362 29.3258L57.001 36.2086C56.838 36.3004 56.7373 36.4723 56.7373 36.6604V38.6693C56.9269 39.3241 57.2973 39.89 57.7876 40.3122C58.3876 40.8307 59.1669 41.1373 60.0039 41.1373C61.4261 41.1373 62.709 40.2337 63.1979 38.8885C63.2334 38.7922 63.2823 38.7018 63.3431 38.6219H63.3608C63.3831 38.5833 63.4082 38.5478 63.4379 38.5137C63.466 38.4767 63.4986 38.4426 63.5327 38.41L70.6881 31.7272C71.5028 31.7228 72.3162 31.7183 73.131 31.7139C73.1398 31.7183 73.1487 31.7213 73.1576 31.7257C73.165 31.7213 73.1695 31.7183 73.1754 31.7139C73.5532 31.7124 73.9295 31.7094 74.3072 31.708L81.5515 38.4856C81.5678 38.5004 81.5826 38.5152 81.5944 38.5315C81.6226 38.5611 81.6478 38.5907 81.6715 38.6233C81.7322 38.7033 81.7811 38.7937 81.8167 38.89C81.8241 38.9048 81.8285 38.9211 81.8344 38.9374C81.8359 38.9404 81.8374 38.9448 81.8389 38.9478C81.8567 38.9937 81.8744 39.0381 81.8937 39.0826C81.9085 39.1152 81.9218 39.1478 81.9381 39.1789C81.9559 39.2189 81.9752 39.2574 81.9959 39.2959C82.0152 39.3344 82.0359 39.3729 82.0581 39.41C82.0789 39.4485 82.1011 39.4855 82.1233 39.5211C82.147 39.5581 82.1692 39.5937 82.1944 39.6307C82.2418 39.7018 82.2922 39.77 82.3455 39.8381C82.3589 39.8544 82.3707 39.8707 82.3855 39.887C82.3989 39.9033 82.4122 39.9196 82.4255 39.9359C82.4537 39.9685 82.4818 40.0011 82.51 40.0322C82.5396 40.0633 82.5677 40.0944 82.5974 40.124C82.6285 40.1551 82.6581 40.1848 82.6892 40.2129C82.7203 40.2425 82.7514 40.2707 82.784 40.2988C82.8151 40.327 82.8477 40.3537 82.8803 40.3803C82.9129 40.407 82.947 40.4337 82.9811 40.4588C83.0181 40.487 83.0566 40.5137 83.0951 40.5403C83.1262 40.5625 83.1574 40.5833 83.1885 40.6025C83.2596 40.6485 83.3337 40.6914 83.4077 40.7314C83.4448 40.7522 83.4818 40.7714 83.5203 40.7907C83.5736 40.8173 83.627 40.8411 83.6818 40.8648C83.6848 40.8662 83.6877 40.8677 83.6892 40.8677C83.7455 40.8914 83.8018 40.9136 83.8581 40.9344C83.904 40.9522 83.947 40.9655 83.9959 40.9818C84.0773 41.0085 84.1603 41.0307 84.2433 41.0499C84.2773 41.0573 84.3129 41.0662 84.3484 41.0736C84.3929 41.081 84.4358 41.0899 84.4803 41.0973C84.5247 41.1033 84.5707 41.1107 84.6151 41.1151C84.6432 41.1181 84.6699 41.121 84.6981 41.124C84.7055 41.124 84.7114 41.1255 84.7188 41.1255C84.7425 41.127 84.7662 41.1299 84.7899 41.1314C84.7988 41.1314 84.8062 41.1329 84.8151 41.1329C84.8803 41.1373 84.9455 41.1388 85.0106 41.1388C85.8491 41.1388 86.6269 40.8336 87.2269 40.3137C87.7202 39.8885 88.092 39.3166 88.2772 38.653V36.6708C88.2772 36.4826 88.175 36.3093 88.012 36.2189L88.0135 36.216Z" fill="#000223"/>
<path d="M73.5464 33.8325V39.0472C74.0767 40.3035 75.3137 41.1346 76.6767 41.1346C77.8766 41.1346 78.9788 40.4901 79.5847 39.4813L78.6633 38.6191L73.5464 33.8325Z" fill="#000223"/>
<path d="M78.3648 25.7223H71.6109C71.5383 25.7223 71.479 25.663 71.479 25.5905V21.5713C71.479 21.4987 71.5383 21.4395 71.6109 21.4395H78.3396C78.4462 21.4395 78.5085 21.5595 78.4477 21.6469C78.0596 22.2024 77.6714 22.7565 77.2833 23.312C77.2537 23.3535 77.2522 23.4098 77.2774 23.4542C77.6774 24.1446 78.0774 24.8364 78.4773 25.5268C78.5277 25.6142 78.4655 25.7238 78.3633 25.7238L78.3648 25.7223Z" fill="#000223"/>
<path d="M71.5193 38.6152V33.8286L66.4024 38.6152L65.481 39.4774C66.0869 40.4862 67.1891 41.1306 68.389 41.1306C69.752 41.1306 70.989 40.2996 71.5193 39.0433V38.6152Z" fill="#000223"/>
<path d="M72.5092 29.4745C71.9359 29.4745 71.4722 29.0108 71.4722 28.4375V24.8583C71.4722 24.285 71.9359 23.8213 72.5092 23.8213C73.0825 23.8213 73.5462 24.285 73.5462 24.8583V28.4375C73.5462 29.0108 73.0825 29.4745 72.5092 29.4745Z" fill="#000223"/>
<path d="M65.378 506.551L56.5038 501.427L56.5038 511.674L65.378 506.551ZM73.2879 75.981L73.2879 81.2152L75.0627 81.2152L75.0627 75.981L73.2879 75.981ZM73.2879 91.6838L73.2879 102.152L75.0627 102.152L75.0627 91.6838L73.2879 91.6838ZM73.2879 112.621L73.2879 123.09L75.0627 123.09L75.0627 112.621L73.2879 112.621ZM73.2879 133.558L73.2879 144.027L75.0627 144.027L75.0627 133.558L73.2879 133.558ZM73.2879 154.495L73.2879 164.964L75.0627 164.964L75.0627 154.495L73.2879 154.495ZM73.2879 175.432L73.2879 185.901L75.0627 185.901L75.0627 175.432L73.2879 175.432ZM73.2879 196.37L73.2879 201.604L75.0627 201.604L75.0627 196.37L73.2879 196.37ZM73.2879 201.604C73.2879 203.063 73.1449 204.487 72.8724 205.865L74.6135 206.209C74.9083 204.719 75.0627 203.179 75.0627 201.604L73.2879 201.604ZM69.6118 213.731C68.018 216.112 65.968 218.162 63.5873 219.756L64.5747 221.231C67.1482 219.508 69.3637 217.292 71.0867 214.719L69.6118 213.731ZM55.721 223.016C54.3436 223.289 52.919 223.432 51.4601 223.432L51.4601 225.207C53.0352 225.207 54.5752 225.052 56.0654 224.757L55.721 223.016ZM51.4601 223.432C49.8849 223.432 48.3449 223.586 46.8547 223.881L47.1991 225.622C48.5765 225.35 50.0011 225.207 51.4601 225.207L51.4601 223.432ZM38.3454 227.408C35.7719 229.131 33.5564 231.346 31.8334 233.92L33.3083 234.907C34.9021 232.526 36.9521 230.476 39.3328 228.883L38.3454 227.408ZM28.3066 242.429C28.0118 243.919 27.8574 245.459 27.8574 247.034L29.6322 247.034C29.6322 245.575 29.7752 244.151 30.0477 242.773L28.3066 242.429ZM27.8574 247.034L27.8574 251.886L29.6322 251.886L29.6322 247.034L27.8574 247.034ZM27.8574 261.59L27.8574 271.294L29.6322 271.294L29.6322 261.59L27.8574 261.59ZM27.8574 280.998L27.8574 290.702L29.6322 290.702L29.6322 280.998L27.8574 280.998ZM27.8574 300.406L27.8574 310.11L29.6322 310.11L29.6322 300.406L27.8574 300.406ZM27.8574 319.814L27.8574 329.518L29.6322 329.518L29.6322 319.814L27.8574 319.814ZM27.8574 339.221L27.8574 348.925L29.6322 348.925L29.6322 339.221L27.8574 339.221ZM27.8574 358.629L27.8574 368.333L29.6322 368.333L29.6322 358.629L27.8574 358.629ZM27.8574 378.037L27.8574 387.741L29.6322 387.741L29.6322 378.037L27.8574 378.037ZM27.8574 397.445L27.8574 407.149L29.6322 407.149L29.6322 397.445L27.8574 397.445ZM27.8574 416.853L27.8574 426.557L29.6322 426.557L29.6322 416.853L27.8574 416.853ZM27.8574 436.26L27.8574 445.964L29.6322 445.964L29.6322 436.26L27.8574 436.26ZM27.8574 455.668L27.8574 465.372L29.6322 465.372L29.6322 455.668L27.8574 455.668ZM27.8574 475.076L27.8574 479.928L29.6322 479.928L29.6322 475.076L27.8574 475.076ZM27.8574 479.928C27.8574 481.764 28.0374 483.559 28.381 485.296L30.1221 484.951C29.8008 483.327 29.6322 481.648 29.6322 479.928L27.8574 479.928ZM32.4916 495.214C34.4997 498.213 37.0822 500.796 40.0818 502.804L41.0691 501.329C38.2623 499.45 35.8455 497.033 33.9664 494.226L32.4916 495.214ZM49.9994 506.914C51.7363 507.258 53.5312 507.438 55.3673 507.438L55.3673 505.663C53.6475 505.663 51.9679 505.495 50.3439 505.173L49.9994 506.914ZM55.3673 507.438L57.87 507.438L57.87 505.663L55.3673 505.663L55.3673 507.438Z" fill="white" fill-opacity="0.6"/>
<path d="M146.169 399.173L151.292 390.299L141.045 390.299L146.169 399.173ZM145.282 231.451L145.282 236.11L147.056 236.11L147.056 231.451L145.282 231.451ZM145.282 245.428L145.282 254.746L147.056 254.746L147.056 245.428L145.282 245.428ZM145.282 264.064L145.282 273.382L147.056 273.382L147.056 264.064L145.282 264.064ZM145.282 282.7L145.282 292.017L147.056 292.017L147.056 282.7L145.282 282.7ZM145.282 301.335L145.282 310.653L147.056 310.653L147.056 301.335L145.282 301.335ZM145.282 319.971L145.282 329.289L147.056 329.289L147.056 319.971L145.282 319.971ZM145.282 338.607L145.282 347.925L147.056 347.925L147.056 338.607L145.282 338.607ZM145.282 357.243L145.282 366.56L147.056 366.56L147.056 357.243L145.282 357.243ZM145.282 375.878L145.282 385.196L147.056 385.196L147.056 375.878L145.282 375.878Z" fill="white" fill-opacity="0.6"/>
<path d="M207.162 399.173L212.286 390.299L202.039 390.299L207.162 399.173ZM206.275 343.266L206.275 347.925L208.05 347.925L208.05 343.266L206.275 343.266ZM206.275 357.243L206.275 366.561L208.05 366.561L208.05 357.243L206.275 357.243ZM206.275 375.879L206.275 385.197L208.05 385.197L208.05 375.879L206.275 375.879Z" fill="white" fill-opacity="0.6"/>
<path d="M84.2881 399.173L89.4116 390.299L79.1646 390.299L84.2881 399.173ZM83.4007 343.266L83.4007 347.925L85.1755 347.925L85.1755 343.266L83.4007 343.266ZM83.4007 357.243L83.4007 366.561L85.1755 366.561L85.1755 357.243L83.4007 357.243ZM83.4007 375.879L83.4007 385.197L85.1755 385.197L85.1755 375.879L83.4007 375.879Z" fill="white" fill-opacity="0.6"/>
<path d="M230.827 506.551L239.702 511.674L239.702 501.427L230.827 506.551ZM221.275 141.412L221.275 147.402L223.05 147.402L223.05 141.412L221.275 141.412ZM221.275 159.382L221.275 171.363L223.05 171.363L223.05 159.382L221.275 159.382ZM221.275 183.343L221.275 189.333L223.05 189.333L223.05 183.343L221.275 183.343ZM221.275 189.333C221.275 190.997 221.438 192.624 221.749 194.198L223.49 193.854C223.201 192.392 223.05 190.881 223.05 189.333L221.275 189.333ZM225.475 203.187C227.295 205.906 229.636 208.246 232.354 210.067L233.342 208.592C230.816 206.901 228.641 204.726 226.95 202.2L225.475 203.187ZM241.343 213.792C242.918 214.104 244.544 214.267 246.209 214.267L246.209 212.492C244.661 212.492 243.149 212.34 241.688 212.051L241.343 213.792ZM246.209 214.267C247.756 214.267 249.268 214.419 250.729 214.708L251.074 212.967C249.499 212.655 247.873 212.492 246.209 212.492L246.209 214.267ZM259.075 218.167C261.601 219.858 263.776 222.033 265.467 224.559L266.942 223.572C265.122 220.853 262.781 218.512 260.063 216.692L259.075 218.167ZM268.927 232.905C269.216 234.366 269.367 235.878 269.367 237.426L271.142 237.426C271.142 235.762 270.979 234.135 270.668 232.561L268.927 232.905ZM269.367 237.426L269.367 242.478L271.142 242.478L271.142 237.426L269.367 237.426ZM269.367 252.582L269.367 262.686L271.142 262.686L271.142 252.582L269.367 252.582ZM269.367 272.791L269.367 282.895L271.142 282.895L271.142 272.791L269.367 272.791ZM269.367 292.999L269.367 303.104L271.142 303.104L271.142 292.999L269.367 292.999ZM269.367 313.208L269.367 323.312L271.142 323.312L271.142 313.208L269.367 313.208ZM269.367 333.416L269.367 343.521L271.142 343.521L271.142 333.416L269.367 333.416ZM269.367 353.625L269.367 363.729L271.142 363.729L271.142 353.625L269.367 353.625ZM269.367 373.833L269.367 383.938L271.142 383.938L271.142 373.833L269.367 373.833ZM269.367 394.042L269.367 404.146L271.142 404.146L271.142 394.042L269.367 394.042ZM269.367 414.25L269.367 424.355L271.142 424.355L271.142 414.25L269.367 414.25ZM269.367 434.459L269.367 444.563L271.142 444.563L271.142 434.459L269.367 434.459ZM269.367 454.667L269.367 464.772L271.142 464.772L271.142 454.667L269.367 454.667ZM269.367 474.876L269.367 479.928L271.142 479.928L271.142 474.876L269.367 474.876ZM269.367 479.928C269.367 481.648 269.199 483.328 268.878 484.952L270.619 485.296C270.962 483.559 271.142 481.764 271.142 479.928L269.367 479.928ZM265.033 494.226C263.154 497.033 260.737 499.45 257.931 501.329L258.918 502.804C261.918 500.796 264.5 498.213 266.508 495.214L265.033 494.226ZM248.656 505.173C247.032 505.495 245.352 505.663 243.632 505.663L243.632 507.438C245.468 507.438 247.263 507.258 249 506.914L248.656 505.173ZM243.632 505.663L240.431 505.663L240.431 507.438L243.632 507.438L243.632 505.663Z" fill="white" fill-opacity="0.6"/>
<path d="M137.411 190.825C134.873 188.911 133.56 185.851 133.346 183.287C133.315 182.88 132.959 182.644 132.603 182.644C132.342 182.644 132.081 182.769 131.939 183.035C129.353 187.906 130.381 194.602 133.307 197.278C133.995 195.341 135.118 193.412 136.581 191.727C136.85 191.417 137.126 191.121 137.411 190.833V190.825ZM161.752 183.035C161.609 182.769 161.348 182.644 161.087 182.644C160.724 182.644 160.376 182.873 160.336 183.287C160.123 185.851 158.81 188.918 156.271 190.833C156.556 191.121 156.833 191.417 157.102 191.727C158.565 193.412 159.688 195.341 160.376 197.278C163.302 194.602 164.33 187.913 161.752 183.035ZM151.131 189.399V199.672H159.023C158.264 195.733 155.204 191.335 151.131 189.399ZM142.559 199.672V189.399C138.487 191.328 135.434 195.726 134.667 199.672H142.559ZM159.316 201.498H134.375C133.924 201.498 133.56 201.838 133.56 202.259V205.607C133.56 206.029 133.924 206.369 134.375 206.369H159.308C159.759 206.369 160.123 206.029 160.123 205.607V202.259C160.123 201.838 159.759 201.498 159.308 201.498H159.316ZM149.178 188.689C148.427 188.497 147.644 188.394 146.845 188.394C146.047 188.394 145.272 188.497 144.512 188.689V199.665H149.17V188.689H149.178Z" fill="white"/>
</svg>
