<svg width="648" height="298" viewBox="0 0 648 298" fill="none" xmlns="http://www.w3.org/2000/svg">
<rect x="75.4304" y="40.0461" width="75.1653" height="75.1653" rx="17.7483" fill="white" fill-opacity="0.05"/>
<rect x="76.3178" y="40.9336" width="73.3905" height="73.3905" rx="16.8609" stroke="white" stroke-opacity="0.6" stroke-width="1.77483"/>
<path d="M129.085 74.3419C129.085 77.3331 128.101 80.0983 126.439 82.331C125.912 83.0381 125.318 83.6924 124.665 84.2836C125.042 82.9398 125.236 81.5374 125.236 80.1071C125.236 71.5826 118.3 64.6467 109.776 64.6467C108.471 64.6467 107.192 64.8066 105.958 65.1206C106.451 64.5998 106.988 64.1186 107.56 63.6815C109.815 61.9578 112.629 60.9353 115.679 60.9353C123.071 60.9353 129.085 66.9499 129.085 74.3419Z" fill="white"/>
<path d="M111.767 83.6302C111.791 83.6023 111.815 83.5744 111.838 83.5451C111.931 83.4277 112.004 83.3045 112.054 83.1695L111.767 83.6302ZM111.767 83.6302C111.791 83.6023 111.815 83.5744 111.838 83.5451C111.931 83.4277 112.004 83.3045 112.054 83.1695L111.767 83.6302ZM109.701 66.738C106.657 66.738 103.849 67.759 101.597 69.4798C98.3922 71.9238 96.3193 75.7848 96.3193 80.1212C96.3193 87.5 102.322 93.5029 109.701 93.5029C114.096 93.5029 118.001 91.3743 120.442 88.0941C122.101 85.8658 123.084 83.105 123.084 80.1212C123.084 72.7409 117.08 66.738 109.701 66.738ZM112.054 83.1681L111.767 83.6302H111.765L109.861 86.6859C109.789 86.8017 109.622 86.8017 109.55 86.6859L106.331 81.5221L109.503 83.0287C109.551 83.0522 109.609 83.0536 109.657 83.0302L110.545 82.6282L112.007 81.9666L113.116 81.4649L112.054 83.1681ZM113.593 79.9334L110.878 81.1627C110.766 81.2126 110.656 81.2639 110.545 81.3138L109.669 81.7099C109.62 81.7319 109.563 81.7319 109.515 81.7084L105.806 79.9466C105.708 79.8997 105.671 79.7764 105.73 79.684L109.55 73.555C109.622 73.4406 109.789 73.4406 109.861 73.555L113.672 79.6694C113.731 79.7632 113.694 79.8879 113.593 79.9334ZM111.767 83.6302C111.791 83.6023 111.815 83.5744 111.838 83.5451C111.931 83.4277 112.004 83.3045 112.054 83.1695L111.767 83.6302ZM111.767 83.6302C111.791 83.6023 111.815 83.5744 111.838 83.5451C111.931 83.4277 112.004 83.3045 112.054 83.1695L111.767 83.6302Z" fill="white"/>
<rect x="186.358" y="111.927" width="75.1653" height="75.1653" rx="17.7483" fill="#FF6E75"/>
<rect x="297.285" y="40.0461" width="75.1653" height="75.1653" rx="17.7483" fill="white" fill-opacity="0.15"/>
<path d="M347.98 72.6324V74.6809C347.95 74.6794 347.919 74.6794 347.89 74.6794H342.906C340.076 74.6794 337.774 76.9818 337.774 79.811V81.7754C337.774 84.6047 340.076 86.9085 342.906 86.9085H347.89C347.919 86.9085 347.95 86.9085 347.98 86.907V88.9541C347.98 90.762 346.514 92.2276 344.705 92.2276H321.448C319.64 92.2276 318.173 90.762 318.173 88.9541V72.6324C318.173 70.8244 319.64 69.3589 321.448 69.3589H344.705C346.514 69.3589 347.98 70.8244 347.98 72.6324Z" fill="white"/>
<path d="M327.552 67.2422H342.69L341.637 64.3554C341.006 62.6286 339.029 61.8169 337.367 62.6021L327.551 67.2422H327.552Z" fill="white"/>
<path d="M347.98 76.749C347.95 76.7461 347.919 76.7461 347.89 76.7461H342.905C341.213 76.7461 339.84 78.1187 339.84 79.8115V81.7759C339.84 83.4687 341.213 84.8427 342.905 84.8427H347.89C347.919 84.8427 347.95 84.8427 347.98 84.8398C349.633 84.794 350.956 83.4392 350.956 81.7759V79.8115C350.956 78.1482 349.633 76.7948 347.98 76.749ZM343.313 81.9618C342.668 81.9618 342.144 81.4394 342.144 80.7944C342.144 80.1495 342.668 79.6255 343.313 79.6255C343.958 79.6255 344.482 80.148 344.482 80.7944C344.482 81.4409 343.958 81.9618 343.313 81.9618Z" fill="white"/>
<rect x="298.172" y="184.696" width="73.3905" height="73.3905" rx="16.8609" stroke="white" stroke-opacity="0.6" stroke-width="1.77483"/>
<path d="M331.495 214.207C329.762 214.733 328.217 215.696 326.99 216.967V231.578C328.904 233.558 331.585 234.789 334.554 234.789C337.523 234.789 340.21 233.558 342.121 231.577V216.965C340.207 214.986 337.524 213.754 334.554 213.754C333.49 213.754 332.462 213.913 331.495 214.207Z" fill="white"/>
<path d="M347.537 218.555C346.573 212.263 341.124 207.428 334.567 207.428C328.01 207.428 322.568 212.257 321.6 218.543C319.576 219.478 318.173 221.525 318.173 223.901V224.644C318.173 227.901 320.814 230.543 324.072 230.543H324.59V218.116C325.686 213.624 329.743 210.278 334.569 210.278C339.394 210.278 343.387 213.569 344.522 218.008V230.542H345.04C348.299 230.542 350.939 227.9 350.939 224.642V223.9C350.939 221.535 349.548 219.496 347.539 218.555H347.537Z" fill="white"/>
<rect y="184.695" width="75.1653" height="75.1653" rx="17.7483" fill="#FBBE7E"/>
<path d="M24.6101 227.35C25.7479 227.35 26.8308 226.991 27.7286 226.366V238.348H24.7671C23.3805 238.348 22.2561 237.224 22.2561 235.837V226.817C22.9746 227.16 23.7746 227.35 24.6101 227.35Z" fill="#000223"/>
<path d="M39.7879 235.401V238.349H34.4414V235.401C34.4414 233.927 35.6399 232.727 37.1139 232.727C38.588 232.727 39.7879 233.927 39.7879 235.401Z" fill="#000223"/>
<path d="M44.4495 226.331V238.349H41.8614V235.401C41.8614 232.783 39.7311 230.653 37.1134 230.653C34.4957 230.653 32.3669 232.783 32.3669 235.401V238.349H29.8025V226.348C30.7047 226.985 31.7965 227.351 32.9461 227.351C34.5757 227.351 36.0927 226.616 37.1149 225.413C38.1371 226.616 39.6526 227.351 41.2822 227.351C42.4407 227.351 43.5429 226.979 44.4495 226.331Z" fill="#000223"/>
<path d="M51.9722 226.819V235.838C51.9722 237.224 50.8493 238.349 49.4626 238.349H46.5234V226.383C47.4167 226.998 48.4908 227.351 49.6182 227.351C50.4552 227.351 51.2552 227.161 51.9722 226.819Z" fill="#000223"/>
<path d="M52.62 220.361L43.3136 215.17C41.2884 213.961 39.2648 212.752 37.2411 211.543C36.1078 212.186 34.976 212.828 33.8427 213.471L21.6074 220.353C21.4445 220.445 21.3438 220.617 21.3438 220.805V222.814C21.5334 223.469 21.9037 224.035 22.3941 224.457C22.9941 224.975 23.7733 225.282 24.6103 225.282C26.0325 225.282 27.3154 224.378 27.8043 223.033C27.8399 222.937 27.8888 222.847 27.9495 222.767H27.9673C27.9895 222.728 28.0147 222.693 28.0443 222.658C28.0725 222.621 28.1051 222.587 28.1391 222.555L35.2945 215.872C36.1093 215.868 36.9226 215.863 37.7374 215.859C37.7463 215.863 37.7552 215.866 37.7641 215.871C37.7715 215.866 37.7759 215.863 37.7818 215.859C38.1596 215.857 38.5359 215.854 38.9137 215.853L46.1579 222.63C46.1742 222.645 46.189 222.66 46.2009 222.676C46.229 222.706 46.2542 222.736 46.2779 222.768C46.3387 222.848 46.3875 222.938 46.4231 223.035C46.4305 223.05 46.435 223.066 46.4409 223.082C46.4424 223.085 46.4438 223.09 46.4453 223.093C46.4631 223.138 46.4809 223.183 46.5001 223.227C46.5149 223.26 46.5283 223.293 46.5446 223.324C46.5624 223.364 46.5816 223.402 46.6024 223.441C46.6216 223.479 46.6424 223.518 46.6646 223.555C46.6853 223.593 46.7075 223.63 46.7298 223.666C46.7535 223.703 46.7757 223.738 46.8009 223.775C46.8483 223.847 46.8986 223.915 46.952 223.983C46.9653 223.999 46.9772 224.015 46.992 224.032C47.0053 224.048 47.0186 224.064 47.032 224.081C47.0601 224.113 47.0883 224.146 47.1164 224.177C47.146 224.208 47.1742 224.239 47.2038 224.269C47.2349 224.3 47.2646 224.33 47.2957 224.358C47.3268 224.387 47.3579 224.415 47.3905 224.444C47.4216 224.472 47.4542 224.498 47.4868 224.525C47.5194 224.552 47.5534 224.578 47.5875 224.604C47.6245 224.632 47.6631 224.658 47.7016 224.685C47.7327 224.707 47.7638 224.728 47.7949 224.747C47.866 224.793 47.9401 224.836 48.0142 224.876C48.0512 224.897 48.0882 224.916 48.1268 224.935C48.1801 224.962 48.2334 224.986 48.2882 225.01C48.2912 225.011 48.2942 225.012 48.2956 225.012C48.3519 225.036 48.4082 225.058 48.4645 225.079C48.5105 225.097 48.5534 225.11 48.6023 225.127C48.6838 225.153 48.7667 225.175 48.8497 225.195C48.8838 225.202 48.9193 225.211 48.9549 225.218C48.9993 225.226 49.0423 225.235 49.0867 225.242C49.1312 225.248 49.1771 225.255 49.2215 225.26C49.2497 225.263 49.2764 225.266 49.3045 225.269C49.3119 225.269 49.3178 225.27 49.3252 225.27C49.3489 225.272 49.3727 225.275 49.3964 225.276C49.4052 225.276 49.4127 225.278 49.4215 225.278C49.4867 225.282 49.5519 225.284 49.6171 225.284C50.4556 225.284 51.2333 224.978 51.8333 224.458C52.3266 224.033 52.6985 223.461 52.8837 222.798V220.816C52.8837 220.627 52.7815 220.454 52.6185 220.364L52.62 220.361Z" fill="#000223"/>
<path d="M38.1526 217.977V223.192C38.6829 224.448 39.9199 225.279 41.2829 225.279C42.4828 225.279 43.585 224.635 44.191 223.626L43.2695 222.764L38.1526 217.977Z" fill="#000223"/>
<path d="M42.9712 209.867H36.2173C36.1447 209.867 36.0854 209.808 36.0854 209.735V205.716C36.0854 205.644 36.1447 205.584 36.2173 205.584H42.946C43.0527 205.584 43.1149 205.704 43.0542 205.792C42.666 206.347 42.2779 206.901 41.8897 207.457C41.8601 207.498 41.8586 207.555 41.8838 207.599C42.2838 208.29 42.6838 208.981 43.0838 209.672C43.1342 209.759 43.0719 209.869 42.9697 209.869L42.9712 209.867Z" fill="#000223"/>
<path d="M36.1258 222.76V217.974L31.0089 222.76L30.0874 223.622C30.6933 224.631 31.7955 225.276 32.9955 225.276C34.3584 225.276 35.5954 224.445 36.1258 223.188V222.76Z" fill="#000223"/>
<path d="M37.1154 213.619C36.5421 213.619 36.0784 213.156 36.0784 212.582V209.003C36.0784 208.43 36.5421 207.966 37.1154 207.966C37.6887 207.966 38.1524 208.43 38.1524 209.003V212.582C38.1524 213.156 37.6887 213.619 37.1154 213.619Z" fill="#000223"/>
<path d="M536 259.877L530.876 268.751H541.123L536 259.877ZM75.4304 221.967H80.5019V220.192H75.4304V221.967ZM90.6449 221.967H100.788V220.192H90.6449V221.967ZM110.931 221.967H121.074V220.192H110.931V221.967ZM131.217 221.967H141.36V220.192H131.217V221.967ZM151.503 221.967H161.646V220.192H151.503V221.967ZM171.789 221.967H181.932V220.192H171.789V221.967ZM192.075 221.967H197.146V220.192H192.075V221.967ZM197.146 221.967C198.866 221.967 200.546 222.136 202.17 222.457L202.514 220.716C200.777 220.372 198.982 220.192 197.146 220.192V221.967ZM211.444 226.301C214.251 228.18 216.668 230.597 218.547 233.404L220.022 232.417C218.014 229.417 215.431 226.835 212.432 224.826L211.444 226.301ZM222.391 242.679C222.713 244.303 222.881 245.982 222.881 247.702H224.656C224.656 245.866 224.476 244.071 224.132 242.334L222.391 242.679ZM222.881 247.702V253.248H224.656V247.702H222.881ZM222.881 264.341V269.888H224.656V264.341H222.881ZM222.881 269.888C222.881 271.724 223.061 273.519 223.405 275.255L225.146 274.911C224.825 273.287 224.656 271.607 224.656 269.888H222.881ZM227.515 285.173C229.524 288.173 232.106 290.755 235.106 292.763L236.093 291.288C233.286 289.409 230.869 286.993 228.99 284.186L227.515 285.173ZM245.023 296.874C246.76 297.217 248.555 297.397 250.391 297.397V295.623C248.671 295.623 246.992 295.454 245.368 295.133L245.023 296.874ZM250.391 297.397H255.372V295.623H250.391V297.397ZM265.333 297.397H275.294V295.623H265.333V297.397ZM285.255 297.397H295.216V295.623H285.255V297.397ZM305.177 297.397H315.138V295.623H305.177V297.397ZM325.099 297.397H335.06V295.623H325.099V297.397ZM345.021 297.397H354.982V295.623H345.021V297.397ZM364.943 297.397H374.904V295.623H364.943V297.397ZM384.865 297.397H394.826V295.623H384.865V297.397ZM404.787 297.397H414.748V295.623H404.787V297.397ZM424.709 297.397H434.67V295.623H424.709V297.397ZM444.631 297.397H454.592V295.623H444.631V297.397ZM464.553 297.397H474.514V295.623H464.553V297.397ZM484.475 297.397H494.436V295.623H484.475V297.397ZM504.397 297.397H509.377V295.623H504.397V297.397ZM509.377 297.397C511.214 297.397 513.009 297.217 514.745 296.874L514.401 295.133C512.777 295.454 511.097 295.623 509.377 295.623V297.397ZM524.663 292.763C527.663 290.755 530.245 288.173 532.253 285.173L530.778 284.186C528.899 286.993 526.482 289.409 523.676 291.288L524.663 292.763ZM536.364 275.255C536.707 273.519 536.887 271.724 536.887 269.888H535.113C535.113 271.607 534.944 273.287 534.623 274.911L536.364 275.255ZM536.887 269.888V267.385H535.113V269.888H536.887Z" fill="white" fill-opacity="0.6"/>
<path d="M428.622 150.086L419.748 144.962V155.209L428.622 150.086ZM260.901 150.973H265.56V149.199H260.901V150.973ZM274.877 150.973H284.195V149.199H274.877V150.973ZM293.513 150.973H302.831V149.199H293.513V150.973ZM312.149 150.973H321.467V149.199H312.149V150.973ZM330.785 150.973H340.103V149.199H330.785V150.973ZM349.42 150.973H358.738V149.199H349.42V150.973ZM368.056 150.973H377.374V149.199H368.056V150.973ZM386.692 150.973H396.01V149.199H386.692V150.973ZM405.328 150.973H414.646V149.199H405.328V150.973Z" fill="white" fill-opacity="0.6"/>
<path d="M428.623 79.0928L419.748 73.9693L419.748 84.2163L428.623 79.0928ZM372.715 79.9802L377.374 79.9802L377.374 78.2054L372.715 78.2054L372.715 79.9802ZM386.692 79.9802L396.01 79.9802L396.01 78.2054L386.692 78.2054L386.692 79.9802ZM405.328 79.9802L414.646 79.9802L414.646 78.2054L405.328 78.2054L405.328 79.9802Z" fill="white" fill-opacity="0.6"/>
<path d="M428.623 221.967L419.748 216.843L419.748 227.09L428.623 221.967ZM372.715 222.854L377.374 222.854L377.374 221.079L372.715 221.079L372.715 222.854ZM386.692 222.854L396.01 222.854L396.01 221.079L386.692 221.079L386.692 222.854ZM405.328 222.854L414.646 222.854L414.646 221.079L405.328 221.079L405.328 222.854Z" fill="white" fill-opacity="0.6"/>
<path d="M536 40.4272L541.123 31.553H530.876L536 40.4272ZM150.861 79.9799H156.529V78.205H150.861V79.9799ZM167.865 79.9799H179.202V78.205H167.865V79.9799ZM190.538 79.9799H196.206V78.205H190.538V79.9799ZM196.206 79.9799C198.042 79.9799 199.837 79.7999 201.574 79.4563L201.23 77.7152C199.606 78.0365 197.926 78.205 196.206 78.205V79.9799ZM211.492 75.3457C214.491 73.3375 217.074 70.7551 219.082 67.7555L217.607 66.7682C215.728 69.575 213.311 71.9918 210.504 73.8709L211.492 75.3457ZM223.192 57.8379C223.536 56.101 223.716 54.3061 223.716 52.47H221.941C221.941 54.1898 221.773 55.8694 221.451 57.4934L223.192 57.8379ZM223.716 52.47V46.258H221.941V52.47H223.716ZM223.716 33.8342V27.6223H221.941V33.8342H223.716ZM223.716 27.6223C223.716 25.9024 223.885 24.2228 224.206 22.5988L222.465 22.2544C222.121 23.9912 221.941 25.7862 221.941 27.6223H223.716ZM228.05 13.3241C229.929 10.5172 232.346 8.10045 235.153 6.22132L234.166 4.74649C231.166 6.75468 228.584 9.33708 226.575 12.3367L228.05 13.3241ZM244.428 2.37704C246.052 2.05576 247.731 1.88717 249.451 1.88717V0.112339C247.615 0.112339 245.82 0.292346 244.083 0.635944L244.428 2.37704ZM249.451 1.88717H254.45V0.112339H249.451V1.88717ZM264.447 1.88717H274.444V0.112339H264.447V1.88717ZM284.441 1.88717H294.438V0.112339H284.441V1.88717ZM304.436 1.88717H314.433V0.112339H304.436V1.88717ZM324.43 1.88717H334.427V0.112339H324.43V1.88717ZM344.424 1.88717H354.421V0.112339H344.424V1.88717ZM364.419 1.88717H374.416V0.112339H364.419V1.88717ZM384.413 1.88717H394.41V0.112339H384.413V1.88717ZM404.407 1.88717H414.404V0.112339H404.407V1.88717ZM424.401 1.88717H434.399V0.112339H424.401V1.88717ZM444.396 1.88717H454.393V0.112339H444.396V1.88717ZM464.39 1.88717H474.387V0.112339H464.39V1.88717ZM484.384 1.88717H494.382V0.112339H484.384V1.88717ZM504.379 1.88717H509.377V0.112339H504.379V1.88717ZM509.377 1.88717C511.097 1.88717 512.777 2.05576 514.401 2.37704L514.745 0.635945C513.008 0.292346 511.213 0.112339 509.377 0.112339V1.88717ZM523.676 6.22133C526.482 8.10045 528.899 10.5172 530.778 13.3241L532.253 12.3367C530.245 9.33709 527.663 6.75469 524.663 4.7465L523.676 6.22133ZM534.623 22.5988C534.944 24.2228 535.112 25.9024 535.112 27.6223H536.887C536.887 25.7862 536.707 23.9912 536.364 22.2544L534.623 22.5988ZM535.112 27.6223V30.8235H536.887V27.6223H535.112Z" fill="white" fill-opacity="0.6"/>
<path d="M214.606 145.844C212.068 143.93 210.755 140.87 210.542 138.306C210.51 137.899 210.154 137.663 209.798 137.663C209.538 137.663 209.277 137.788 209.134 138.054C206.548 142.925 207.576 149.621 210.502 152.297C211.19 150.36 212.313 148.431 213.776 146.746C214.045 146.436 214.322 146.14 214.606 145.852V145.844ZM238.947 138.054C238.805 137.788 238.544 137.663 238.283 137.663C237.919 137.663 237.571 137.892 237.531 138.306C237.318 140.87 236.005 143.938 233.467 145.852C233.751 146.14 234.028 146.436 234.297 146.746C235.76 148.431 236.883 150.36 237.571 152.297C240.497 149.621 241.525 142.932 238.947 138.054ZM228.327 144.418V154.691H236.219C235.46 150.752 232.399 146.354 228.327 144.418ZM219.754 154.691V144.418C215.682 146.347 212.629 150.745 211.862 154.691H219.754ZM236.511 156.517H211.57C211.119 156.517 210.755 156.857 210.755 157.278V160.626C210.755 161.048 211.119 161.388 211.57 161.388H236.503C236.954 161.388 237.318 161.048 237.318 160.626V157.278C237.318 156.857 236.954 156.517 236.503 156.517H236.511ZM226.373 143.708C225.622 143.516 224.839 143.413 224.041 143.413C223.242 143.413 222.467 143.516 221.708 143.708V154.684H226.365V143.708H226.373Z" fill="white"/>
</svg>
